%TF.GenerationSoftware,KiCad,Pcbnew,10.0.4*%
%TF.CreationDate,2026-08-27T14:11:51+02:00*%
%TF.ProjectId,KoloredVerb.panel,4b6f6c6f-7265-4645-9665-72622e70616e,rev?*%
%TF.SameCoordinates,Original*%
%TF.FileFunction,Copper,L1,Top*%
%TF.FilePolarity,Positive*%
%FSLAX46Y46*%
G04 Gerber Fmt 4.6, Leading zero omitted, Abs format (unit mm)*
G04 Created by KiCad (PCBNEW 10.0.4) date 2026-08-27 14:11:51*
%MOMM*%
%LPD*%
G01*
G04 APERTURE LIST*
%TA.AperFunction,ComponentPad*%
%ADD10O,7.400000X4.200000*%
%TD*%
G04 APERTURE END LIST*
D10*
%TO.P,,*%
%TO.N,*%
X7500000Y-125500000D03*
%TD*%
%TO.P,,*%
%TO.N,*%
X53220000Y-3000000D03*
%TD*%
%TO.P,,*%
%TO.N,*%
X53220000Y-125500000D03*
%TD*%
%TO.P,,*%
%TO.N,*%
X7500000Y-3000000D03*
%TD*%
%TA.AperFunction,NonConductor*%
G36*
X4833043Y-526806D02*
G01*
X4851349Y-571000D01*
X4833043Y-615194D01*
X4814767Y-627873D01*
X4673056Y-692454D01*
X4492628Y-803021D01*
X4484224Y-808171D01*
X4400983Y-859181D01*
X4151256Y-1057823D01*
X3927599Y-1285418D01*
X3733346Y-1538573D01*
X3571393Y-1813515D01*
X3570629Y-1815272D01*
X3444917Y-2104389D01*
X3444914Y-2104396D01*
X3444154Y-2106145D01*
X3353526Y-2412100D01*
X3300860Y-2726819D01*
X3286941Y-3045611D01*
X3311977Y-3363723D01*
X3375594Y-3676412D01*
X3476845Y-3979018D01*
X3477660Y-3980728D01*
X3477661Y-3980729D01*
X3576589Y-4188135D01*
X3614219Y-4267029D01*
X3615246Y-4268641D01*
X3784644Y-4534543D01*
X3784649Y-4534550D01*
X3785669Y-4536151D01*
X3786878Y-4537618D01*
X3786879Y-4537619D01*
X3987425Y-4780901D01*
X3987430Y-4780906D01*
X3988639Y-4782373D01*
X4220102Y-5002024D01*
X4476609Y-5191829D01*
X4754336Y-5348960D01*
X4756096Y-5349689D01*
X5047379Y-5470342D01*
X5047383Y-5470343D01*
X5049142Y-5471072D01*
X5356632Y-5556347D01*
X5358520Y-5556629D01*
X5358524Y-5556630D01*
X5487939Y-5575971D01*
X5672222Y-5603512D01*
X5673846Y-5603583D01*
X5673847Y-5603583D01*
X5785818Y-5608472D01*
X5785831Y-5608472D01*
X5786466Y-5608500D01*
X9181047Y-5608500D01*
X9329347Y-5599430D01*
X9416590Y-5594094D01*
X9416593Y-5594094D01*
X9418500Y-5593977D01*
X9732252Y-5535826D01*
X9734082Y-5535249D01*
X9734086Y-5535248D01*
X9858390Y-5496055D01*
X10036579Y-5439872D01*
X10236069Y-5348960D01*
X10325211Y-5308336D01*
X10325214Y-5308334D01*
X10326944Y-5307546D01*
X10514249Y-5192765D01*
X10597384Y-5141820D01*
X10597387Y-5141818D01*
X10599017Y-5140819D01*
X10848744Y-4942177D01*
X11072401Y-4714582D01*
X11266654Y-4461427D01*
X11428607Y-4186485D01*
X11429371Y-4184728D01*
X11555083Y-3895611D01*
X11555086Y-3895604D01*
X11555846Y-3893855D01*
X11646474Y-3587900D01*
X11699140Y-3273181D01*
X11713059Y-2954389D01*
X11688023Y-2636277D01*
X11624406Y-2323588D01*
X11523155Y-2020982D01*
X11425037Y-1815272D01*
X11386602Y-1734692D01*
X11386601Y-1734690D01*
X11385781Y-1732971D01*
X11373857Y-1714253D01*
X11215356Y-1465457D01*
X11215351Y-1465450D01*
X11214331Y-1463849D01*
X11213121Y-1462381D01*
X11012575Y-1219099D01*
X11012570Y-1219094D01*
X11011361Y-1217627D01*
X10779898Y-997976D01*
X10523391Y-808171D01*
X10245664Y-651040D01*
X10191834Y-628743D01*
X10158010Y-594918D01*
X10158009Y-547082D01*
X10191834Y-513258D01*
X10215752Y-508500D01*
X50508849Y-508500D01*
X50553043Y-526806D01*
X50571349Y-571000D01*
X50553043Y-615194D01*
X50534767Y-627873D01*
X50393056Y-692454D01*
X50212628Y-803021D01*
X50204224Y-808171D01*
X50120983Y-859181D01*
X49871256Y-1057823D01*
X49647599Y-1285418D01*
X49453346Y-1538573D01*
X49291393Y-1813515D01*
X49290629Y-1815272D01*
X49164917Y-2104389D01*
X49164914Y-2104396D01*
X49164154Y-2106145D01*
X49073526Y-2412100D01*
X49020860Y-2726819D01*
X49006941Y-3045611D01*
X49031977Y-3363723D01*
X49095594Y-3676412D01*
X49196845Y-3979018D01*
X49197660Y-3980728D01*
X49197661Y-3980729D01*
X49296589Y-4188135D01*
X49334219Y-4267029D01*
X49335246Y-4268641D01*
X49504644Y-4534543D01*
X49504649Y-4534550D01*
X49505669Y-4536151D01*
X49506878Y-4537618D01*
X49506879Y-4537619D01*
X49707425Y-4780901D01*
X49707430Y-4780906D01*
X49708639Y-4782373D01*
X49940102Y-5002024D01*
X50196609Y-5191829D01*
X50474336Y-5348960D01*
X50476096Y-5349689D01*
X50767379Y-5470342D01*
X50767383Y-5470343D01*
X50769142Y-5471072D01*
X51076632Y-5556347D01*
X51078520Y-5556629D01*
X51078524Y-5556630D01*
X51207939Y-5575971D01*
X51392222Y-5603512D01*
X51393846Y-5603583D01*
X51393847Y-5603583D01*
X51505818Y-5608472D01*
X51505831Y-5608472D01*
X51506466Y-5608500D01*
X54901047Y-5608500D01*
X55049347Y-5599430D01*
X55136590Y-5594094D01*
X55136593Y-5594094D01*
X55138500Y-5593977D01*
X55452252Y-5535826D01*
X55454082Y-5535249D01*
X55454086Y-5535248D01*
X55578390Y-5496055D01*
X55756579Y-5439872D01*
X55956069Y-5348960D01*
X56045211Y-5308336D01*
X56045214Y-5308334D01*
X56046944Y-5307546D01*
X56234249Y-5192765D01*
X56317384Y-5141820D01*
X56317387Y-5141818D01*
X56319017Y-5140819D01*
X56568744Y-4942177D01*
X56792401Y-4714582D01*
X56986654Y-4461427D01*
X57148607Y-4186485D01*
X57149371Y-4184728D01*
X57275083Y-3895611D01*
X57275086Y-3895604D01*
X57275846Y-3893855D01*
X57366474Y-3587900D01*
X57419140Y-3273181D01*
X57433059Y-2954389D01*
X57408023Y-2636277D01*
X57344406Y-2323588D01*
X57243155Y-2020982D01*
X57145037Y-1815272D01*
X57106602Y-1734692D01*
X57106601Y-1734690D01*
X57105781Y-1732971D01*
X57093857Y-1714253D01*
X56935356Y-1465457D01*
X56935351Y-1465450D01*
X56934331Y-1463849D01*
X56933121Y-1462381D01*
X56732575Y-1219099D01*
X56732570Y-1219094D01*
X56731361Y-1217627D01*
X56499898Y-997976D01*
X56243391Y-808171D01*
X55965664Y-651040D01*
X55911834Y-628743D01*
X55878010Y-594918D01*
X55878009Y-547082D01*
X55911834Y-513258D01*
X55935752Y-508500D01*
X60029000Y-508500D01*
X60073194Y-526806D01*
X60091500Y-571000D01*
X60091500Y-127929000D01*
X60073194Y-127973194D01*
X60029000Y-127991500D01*
X55931151Y-127991500D01*
X55886957Y-127973194D01*
X55868651Y-127929000D01*
X55886957Y-127884806D01*
X55905233Y-127872127D01*
X55954469Y-127849689D01*
X56046944Y-127807546D01*
X56234249Y-127692765D01*
X56317384Y-127641820D01*
X56317387Y-127641818D01*
X56319017Y-127640819D01*
X56568744Y-127442177D01*
X56792401Y-127214582D01*
X56986654Y-126961427D01*
X57148607Y-126686485D01*
X57149371Y-126684728D01*
X57275083Y-126395611D01*
X57275086Y-126395604D01*
X57275846Y-126393855D01*
X57366474Y-126087900D01*
X57419140Y-125773181D01*
X57433059Y-125454389D01*
X57408023Y-125136277D01*
X57344406Y-124823588D01*
X57243155Y-124520982D01*
X57145037Y-124315272D01*
X57106602Y-124234692D01*
X57106601Y-124234690D01*
X57105781Y-124232971D01*
X57093857Y-124214253D01*
X56935356Y-123965457D01*
X56935351Y-123965450D01*
X56934331Y-123963849D01*
X56933121Y-123962381D01*
X56732575Y-123719099D01*
X56732570Y-123719094D01*
X56731361Y-123717627D01*
X56499898Y-123497976D01*
X56243391Y-123308171D01*
X55965664Y-123151040D01*
X55950767Y-123144869D01*
X55672621Y-123029658D01*
X55672617Y-123029657D01*
X55670858Y-123028928D01*
X55363368Y-122943653D01*
X55361480Y-122943371D01*
X55361476Y-122943370D01*
X55232061Y-122924029D01*
X55047778Y-122896488D01*
X55046154Y-122896417D01*
X55046153Y-122896417D01*
X54934182Y-122891528D01*
X54934169Y-122891528D01*
X54933534Y-122891500D01*
X51538953Y-122891500D01*
X51390653Y-122900570D01*
X51303410Y-122905906D01*
X51303407Y-122905906D01*
X51301500Y-122906023D01*
X50987748Y-122964174D01*
X50985918Y-122964751D01*
X50985914Y-122964752D01*
X50861610Y-123003945D01*
X50683421Y-123060128D01*
X50681680Y-123060921D01*
X50681681Y-123060921D01*
X50394789Y-123191664D01*
X50394786Y-123191666D01*
X50393056Y-123192454D01*
X50212628Y-123303021D01*
X50204224Y-123308171D01*
X50120983Y-123359181D01*
X49871256Y-123557823D01*
X49647599Y-123785418D01*
X49453346Y-124038573D01*
X49291393Y-124313515D01*
X49290629Y-124315272D01*
X49164917Y-124604389D01*
X49164914Y-124604396D01*
X49164154Y-124606145D01*
X49073526Y-124912100D01*
X49020860Y-125226819D01*
X49006941Y-125545611D01*
X49031977Y-125863723D01*
X49095594Y-126176412D01*
X49196845Y-126479018D01*
X49197660Y-126480728D01*
X49197661Y-126480729D01*
X49296589Y-126688135D01*
X49334219Y-126767029D01*
X49335246Y-126768641D01*
X49504644Y-127034543D01*
X49504649Y-127034550D01*
X49505669Y-127036151D01*
X49506878Y-127037618D01*
X49506879Y-127037619D01*
X49707425Y-127280901D01*
X49707430Y-127280906D01*
X49708639Y-127282373D01*
X49940102Y-127502024D01*
X50196609Y-127691829D01*
X50474336Y-127848960D01*
X50476096Y-127849689D01*
X50528166Y-127871257D01*
X50561990Y-127905082D01*
X50561991Y-127952918D01*
X50528166Y-127986742D01*
X50504248Y-127991500D01*
X10211151Y-127991500D01*
X10166957Y-127973194D01*
X10148651Y-127929000D01*
X10166957Y-127884806D01*
X10185233Y-127872127D01*
X10234469Y-127849689D01*
X10326944Y-127807546D01*
X10514249Y-127692765D01*
X10597384Y-127641820D01*
X10597387Y-127641818D01*
X10599017Y-127640819D01*
X10848744Y-127442177D01*
X11072401Y-127214582D01*
X11266654Y-126961427D01*
X11428607Y-126686485D01*
X11429371Y-126684728D01*
X11555083Y-126395611D01*
X11555086Y-126395604D01*
X11555846Y-126393855D01*
X11646474Y-126087900D01*
X11699140Y-125773181D01*
X11713059Y-125454389D01*
X11688023Y-125136277D01*
X11624406Y-124823588D01*
X11523155Y-124520982D01*
X11425037Y-124315272D01*
X11386602Y-124234692D01*
X11386601Y-124234690D01*
X11385781Y-124232971D01*
X11373857Y-124214253D01*
X11215356Y-123965457D01*
X11215351Y-123965450D01*
X11214331Y-123963849D01*
X11213121Y-123962381D01*
X11012575Y-123719099D01*
X11012570Y-123719094D01*
X11011361Y-123717627D01*
X10779898Y-123497976D01*
X10523391Y-123308171D01*
X10245664Y-123151040D01*
X10230767Y-123144869D01*
X9952621Y-123029658D01*
X9952617Y-123029657D01*
X9950858Y-123028928D01*
X9643368Y-122943653D01*
X9641480Y-122943371D01*
X9641476Y-122943370D01*
X9512061Y-122924029D01*
X9327778Y-122896488D01*
X9326154Y-122896417D01*
X9326153Y-122896417D01*
X9214182Y-122891528D01*
X9214169Y-122891528D01*
X9213534Y-122891500D01*
X5818953Y-122891500D01*
X5670653Y-122900570D01*
X5583410Y-122905906D01*
X5583407Y-122905906D01*
X5581500Y-122906023D01*
X5267748Y-122964174D01*
X5265918Y-122964751D01*
X5265914Y-122964752D01*
X5141610Y-123003945D01*
X4963421Y-123060128D01*
X4961680Y-123060921D01*
X4961681Y-123060921D01*
X4674789Y-123191664D01*
X4674786Y-123191666D01*
X4673056Y-123192454D01*
X4492628Y-123303021D01*
X4484224Y-123308171D01*
X4400983Y-123359181D01*
X4151256Y-123557823D01*
X3927599Y-123785418D01*
X3733346Y-124038573D01*
X3571393Y-124313515D01*
X3570629Y-124315272D01*
X3444917Y-124604389D01*
X3444914Y-124604396D01*
X3444154Y-124606145D01*
X3353526Y-124912100D01*
X3300860Y-125226819D01*
X3286941Y-125545611D01*
X3311977Y-125863723D01*
X3375594Y-126176412D01*
X3476845Y-126479018D01*
X3477660Y-126480728D01*
X3477661Y-126480729D01*
X3576589Y-126688135D01*
X3614219Y-126767029D01*
X3615246Y-126768641D01*
X3784644Y-127034543D01*
X3784649Y-127034550D01*
X3785669Y-127036151D01*
X3786878Y-127037618D01*
X3786879Y-127037619D01*
X3987425Y-127280901D01*
X3987430Y-127280906D01*
X3988639Y-127282373D01*
X4220102Y-127502024D01*
X4476609Y-127691829D01*
X4754336Y-127848960D01*
X4756096Y-127849689D01*
X4808166Y-127871257D01*
X4841990Y-127905082D01*
X4841991Y-127952918D01*
X4808166Y-127986742D01*
X4784248Y-127991500D01*
X571000Y-127991500D01*
X526806Y-127973194D01*
X508500Y-127929000D01*
X508500Y-111486864D01*
X7666693Y-111486864D01*
X7684631Y-111867237D01*
X7740916Y-112243850D01*
X7834972Y-112612847D01*
X7877245Y-112728363D01*
X7911046Y-112820728D01*
X7965836Y-112970450D01*
X8132169Y-113312998D01*
X8332266Y-113636983D01*
X8333223Y-113638230D01*
X8333227Y-113638236D01*
X8407226Y-113734673D01*
X8564080Y-113939089D01*
X8825237Y-114216222D01*
X9113063Y-114465545D01*
X9424611Y-114684504D01*
X9756691Y-114870859D01*
X10105904Y-115022701D01*
X10107412Y-115023182D01*
X10107414Y-115023183D01*
X10467162Y-115137993D01*
X10467166Y-115137994D01*
X10468673Y-115138475D01*
X10470220Y-115138801D01*
X10839737Y-115216671D01*
X10839741Y-115216672D01*
X10841285Y-115216997D01*
X11085801Y-115243128D01*
X11218342Y-115257293D01*
X11218345Y-115257293D01*
X11219925Y-115257462D01*
X11408884Y-115258451D01*
X11599122Y-115259448D01*
X11599129Y-115259448D01*
X11600716Y-115259456D01*
X11979759Y-115222958D01*
X12166466Y-115185651D01*
X12351623Y-115148653D01*
X12353173Y-115148343D01*
X12717135Y-115036373D01*
X12750997Y-115022069D01*
X13066465Y-114888811D01*
X13066469Y-114888809D01*
X13067918Y-114888197D01*
X13401932Y-114705330D01*
X13433566Y-114683589D01*
X13714446Y-114490544D01*
X13715756Y-114489644D01*
X13716958Y-114488625D01*
X13716968Y-114488617D01*
X14004966Y-114244377D01*
X14006177Y-114243350D01*
X14270221Y-113968967D01*
X14505186Y-113669305D01*
X14594706Y-113527699D01*
X14707819Y-113348772D01*
X14707823Y-113348765D01*
X14708665Y-113347433D01*
X14709370Y-113346018D01*
X14709375Y-113346010D01*
X14877863Y-113008075D01*
X14877866Y-113008067D01*
X14878575Y-113006646D01*
X14879135Y-113005165D01*
X14879139Y-113005155D01*
X15012614Y-112651922D01*
X15013177Y-112650432D01*
X15022780Y-112614344D01*
X15110687Y-112283962D01*
X15111092Y-112282440D01*
X15171318Y-111906437D01*
X15177407Y-111800837D01*
X15193190Y-111527108D01*
X15193190Y-111527103D01*
X15193238Y-111526273D01*
X15193330Y-111500000D01*
X15192665Y-111486864D01*
X21636693Y-111486864D01*
X21654631Y-111867237D01*
X21710916Y-112243850D01*
X21804972Y-112612847D01*
X21847245Y-112728363D01*
X21881046Y-112820728D01*
X21935836Y-112970450D01*
X22102169Y-113312998D01*
X22302266Y-113636983D01*
X22303223Y-113638230D01*
X22303227Y-113638236D01*
X22377226Y-113734673D01*
X22534080Y-113939089D01*
X22795237Y-114216222D01*
X23083063Y-114465545D01*
X23394611Y-114684504D01*
X23726691Y-114870859D01*
X24075904Y-115022701D01*
X24077412Y-115023182D01*
X24077414Y-115023183D01*
X24437162Y-115137993D01*
X24437166Y-115137994D01*
X24438673Y-115138475D01*
X24440220Y-115138801D01*
X24809737Y-115216671D01*
X24809741Y-115216672D01*
X24811285Y-115216997D01*
X25055801Y-115243128D01*
X25188342Y-115257293D01*
X25188345Y-115257293D01*
X25189925Y-115257462D01*
X25378884Y-115258451D01*
X25569122Y-115259448D01*
X25569129Y-115259448D01*
X25570716Y-115259456D01*
X25949759Y-115222958D01*
X26136466Y-115185651D01*
X26321623Y-115148653D01*
X26323173Y-115148343D01*
X26687135Y-115036373D01*
X26720997Y-115022069D01*
X27036465Y-114888811D01*
X27036469Y-114888809D01*
X27037918Y-114888197D01*
X27371932Y-114705330D01*
X27403566Y-114683589D01*
X27684446Y-114490544D01*
X27685756Y-114489644D01*
X27686958Y-114488625D01*
X27686968Y-114488617D01*
X27974966Y-114244377D01*
X27976177Y-114243350D01*
X28240221Y-113968967D01*
X28475186Y-113669305D01*
X28564706Y-113527699D01*
X28677819Y-113348772D01*
X28677823Y-113348765D01*
X28678665Y-113347433D01*
X28679370Y-113346018D01*
X28679375Y-113346010D01*
X28847863Y-113008075D01*
X28847866Y-113008067D01*
X28848575Y-113006646D01*
X28849135Y-113005165D01*
X28849139Y-113005155D01*
X28982614Y-112651922D01*
X28983177Y-112650432D01*
X28992780Y-112614344D01*
X29080687Y-112283962D01*
X29081092Y-112282440D01*
X29141318Y-111906437D01*
X29147407Y-111800837D01*
X29163190Y-111527108D01*
X29163190Y-111527103D01*
X29163238Y-111526273D01*
X29163330Y-111500000D01*
X29162665Y-111486864D01*
X34336693Y-111486864D01*
X34354631Y-111867237D01*
X34410916Y-112243850D01*
X34504972Y-112612847D01*
X34547245Y-112728363D01*
X34581046Y-112820728D01*
X34635836Y-112970450D01*
X34802169Y-113312998D01*
X35002266Y-113636983D01*
X35003223Y-113638230D01*
X35003227Y-113638236D01*
X35077226Y-113734673D01*
X35234080Y-113939089D01*
X35495237Y-114216222D01*
X35783063Y-114465545D01*
X36094611Y-114684504D01*
X36426691Y-114870859D01*
X36775904Y-115022701D01*
X36777412Y-115023182D01*
X36777414Y-115023183D01*
X37137162Y-115137993D01*
X37137166Y-115137994D01*
X37138673Y-115138475D01*
X37140220Y-115138801D01*
X37509737Y-115216671D01*
X37509741Y-115216672D01*
X37511285Y-115216997D01*
X37755801Y-115243128D01*
X37888342Y-115257293D01*
X37888345Y-115257293D01*
X37889925Y-115257462D01*
X38078884Y-115258451D01*
X38269122Y-115259448D01*
X38269129Y-115259448D01*
X38270716Y-115259456D01*
X38649759Y-115222958D01*
X38836466Y-115185651D01*
X39021623Y-115148653D01*
X39023173Y-115148343D01*
X39387135Y-115036373D01*
X39420997Y-115022069D01*
X39736465Y-114888811D01*
X39736469Y-114888809D01*
X39737918Y-114888197D01*
X40071932Y-114705330D01*
X40103566Y-114683589D01*
X40384446Y-114490544D01*
X40385756Y-114489644D01*
X40386958Y-114488625D01*
X40386968Y-114488617D01*
X40674966Y-114244377D01*
X40676177Y-114243350D01*
X40940221Y-113968967D01*
X41175186Y-113669305D01*
X41264706Y-113527699D01*
X41377819Y-113348772D01*
X41377823Y-113348765D01*
X41378665Y-113347433D01*
X41379370Y-113346018D01*
X41379375Y-113346010D01*
X41547863Y-113008075D01*
X41547866Y-113008067D01*
X41548575Y-113006646D01*
X41549135Y-113005165D01*
X41549139Y-113005155D01*
X41682614Y-112651922D01*
X41683177Y-112650432D01*
X41692780Y-112614344D01*
X41780687Y-112283962D01*
X41781092Y-112282440D01*
X41841318Y-111906437D01*
X41847407Y-111800837D01*
X41863190Y-111527108D01*
X41863190Y-111527103D01*
X41863238Y-111526273D01*
X41863330Y-111500000D01*
X41862665Y-111486864D01*
X45766693Y-111486864D01*
X45784631Y-111867237D01*
X45840916Y-112243850D01*
X45934972Y-112612847D01*
X45977245Y-112728363D01*
X46011046Y-112820728D01*
X46065836Y-112970450D01*
X46232169Y-113312998D01*
X46432266Y-113636983D01*
X46433223Y-113638230D01*
X46433227Y-113638236D01*
X46507226Y-113734673D01*
X46664080Y-113939089D01*
X46925237Y-114216222D01*
X47213063Y-114465545D01*
X47524611Y-114684504D01*
X47856691Y-114870859D01*
X48205904Y-115022701D01*
X48207412Y-115023182D01*
X48207414Y-115023183D01*
X48567162Y-115137993D01*
X48567166Y-115137994D01*
X48568673Y-115138475D01*
X48570220Y-115138801D01*
X48939737Y-115216671D01*
X48939741Y-115216672D01*
X48941285Y-115216997D01*
X49185801Y-115243128D01*
X49318342Y-115257293D01*
X49318345Y-115257293D01*
X49319925Y-115257462D01*
X49508884Y-115258451D01*
X49699122Y-115259448D01*
X49699129Y-115259448D01*
X49700716Y-115259456D01*
X50079759Y-115222958D01*
X50266466Y-115185651D01*
X50451623Y-115148653D01*
X50453173Y-115148343D01*
X50817135Y-115036373D01*
X50850997Y-115022069D01*
X51166465Y-114888811D01*
X51166469Y-114888809D01*
X51167918Y-114888197D01*
X51501932Y-114705330D01*
X51533566Y-114683589D01*
X51814446Y-114490544D01*
X51815756Y-114489644D01*
X51816958Y-114488625D01*
X51816968Y-114488617D01*
X52104966Y-114244377D01*
X52106177Y-114243350D01*
X52370221Y-113968967D01*
X52605186Y-113669305D01*
X52694706Y-113527699D01*
X52807819Y-113348772D01*
X52807823Y-113348765D01*
X52808665Y-113347433D01*
X52809370Y-113346018D01*
X52809375Y-113346010D01*
X52977863Y-113008075D01*
X52977866Y-113008067D01*
X52978575Y-113006646D01*
X52979135Y-113005165D01*
X52979139Y-113005155D01*
X53112614Y-112651922D01*
X53113177Y-112650432D01*
X53122780Y-112614344D01*
X53210687Y-112283962D01*
X53211092Y-112282440D01*
X53271318Y-111906437D01*
X53277407Y-111800837D01*
X53293190Y-111527108D01*
X53293190Y-111527103D01*
X53293238Y-111526273D01*
X53293330Y-111500000D01*
X53274064Y-111119692D01*
X53216465Y-110743277D01*
X53121121Y-110374611D01*
X53103069Y-110325810D01*
X52989564Y-110018963D01*
X52989560Y-110018953D01*
X52989010Y-110017467D01*
X52983824Y-110006880D01*
X52822179Y-109676922D01*
X52821483Y-109675501D01*
X52815307Y-109665578D01*
X52621086Y-109353552D01*
X52620255Y-109352217D01*
X52387388Y-109050922D01*
X52379113Y-109042201D01*
X52181773Y-108834248D01*
X52125266Y-108774702D01*
X51836572Y-108526386D01*
X51676781Y-108414915D01*
X51525559Y-108309420D01*
X51525552Y-108309416D01*
X51524261Y-108308515D01*
X51191532Y-108123321D01*
X50841792Y-107972699D01*
X50478620Y-107858191D01*
X50477069Y-107857870D01*
X50477066Y-107857869D01*
X50246912Y-107810206D01*
X50105736Y-107780970D01*
X50104158Y-107780807D01*
X50104152Y-107780806D01*
X49862428Y-107755827D01*
X49726957Y-107741828D01*
X49725388Y-107741825D01*
X49725383Y-107741825D01*
X49536559Y-107741495D01*
X49346162Y-107741163D01*
X49344603Y-107741319D01*
X49344595Y-107741319D01*
X49156273Y-107760116D01*
X48967249Y-107778983D01*
X48965698Y-107779299D01*
X48965695Y-107779299D01*
X48846831Y-107803482D01*
X48594098Y-107854902D01*
X48582007Y-107858668D01*
X48232037Y-107967671D01*
X48232032Y-107967673D01*
X48230529Y-107968141D01*
X47880265Y-108117541D01*
X47878889Y-108118301D01*
X47878880Y-108118305D01*
X47548273Y-108300810D01*
X47546891Y-108301573D01*
X47233822Y-108518353D01*
X47232621Y-108519379D01*
X46945466Y-108764632D01*
X46945460Y-108764638D01*
X46944263Y-108765660D01*
X46943175Y-108766798D01*
X46943166Y-108766807D01*
X46777097Y-108940589D01*
X46681178Y-109040963D01*
X46680216Y-109042198D01*
X46680214Y-109042201D01*
X46663356Y-109063856D01*
X46447261Y-109341443D01*
X46244906Y-109664023D01*
X46076186Y-110005401D01*
X45942829Y-110362082D01*
X45846199Y-110730414D01*
X45845953Y-110731982D01*
X45845952Y-110731989D01*
X45843939Y-110744845D01*
X45787286Y-111106625D01*
X45767536Y-111471292D01*
X45766693Y-111486864D01*
X41862665Y-111486864D01*
X41844064Y-111119692D01*
X41786465Y-110743277D01*
X41691121Y-110374611D01*
X41673069Y-110325810D01*
X41559564Y-110018963D01*
X41559560Y-110018953D01*
X41559010Y-110017467D01*
X41553824Y-110006880D01*
X41392179Y-109676922D01*
X41391483Y-109675501D01*
X41385307Y-109665578D01*
X41191086Y-109353552D01*
X41190255Y-109352217D01*
X40957388Y-109050922D01*
X40949113Y-109042201D01*
X40751773Y-108834248D01*
X40695266Y-108774702D01*
X40406572Y-108526386D01*
X40246781Y-108414915D01*
X40095559Y-108309420D01*
X40095552Y-108309416D01*
X40094261Y-108308515D01*
X39761532Y-108123321D01*
X39411792Y-107972699D01*
X39048620Y-107858191D01*
X39047069Y-107857870D01*
X39047066Y-107857869D01*
X38816912Y-107810206D01*
X38675736Y-107780970D01*
X38674158Y-107780807D01*
X38674152Y-107780806D01*
X38432428Y-107755827D01*
X38296957Y-107741828D01*
X38295388Y-107741825D01*
X38295383Y-107741825D01*
X38106559Y-107741495D01*
X37916162Y-107741163D01*
X37914603Y-107741319D01*
X37914595Y-107741319D01*
X37726273Y-107760116D01*
X37537249Y-107778983D01*
X37535698Y-107779299D01*
X37535695Y-107779299D01*
X37416831Y-107803482D01*
X37164098Y-107854902D01*
X37152007Y-107858668D01*
X36802037Y-107967671D01*
X36802032Y-107967673D01*
X36800529Y-107968141D01*
X36450265Y-108117541D01*
X36448889Y-108118301D01*
X36448880Y-108118305D01*
X36118273Y-108300810D01*
X36116891Y-108301573D01*
X35803822Y-108518353D01*
X35802621Y-108519379D01*
X35515466Y-108764632D01*
X35515460Y-108764638D01*
X35514263Y-108765660D01*
X35513175Y-108766798D01*
X35513166Y-108766807D01*
X35347097Y-108940589D01*
X35251178Y-109040963D01*
X35250216Y-109042198D01*
X35250214Y-109042201D01*
X35233356Y-109063856D01*
X35017261Y-109341443D01*
X34814906Y-109664023D01*
X34646186Y-110005401D01*
X34512829Y-110362082D01*
X34416199Y-110730414D01*
X34415953Y-110731982D01*
X34415952Y-110731989D01*
X34413939Y-110744845D01*
X34357286Y-111106625D01*
X34337536Y-111471292D01*
X34336693Y-111486864D01*
X29162665Y-111486864D01*
X29144064Y-111119692D01*
X29086465Y-110743277D01*
X28991121Y-110374611D01*
X28973069Y-110325810D01*
X28859564Y-110018963D01*
X28859560Y-110018953D01*
X28859010Y-110017467D01*
X28853824Y-110006880D01*
X28692179Y-109676922D01*
X28691483Y-109675501D01*
X28685307Y-109665578D01*
X28491086Y-109353552D01*
X28490255Y-109352217D01*
X28257388Y-109050922D01*
X28249113Y-109042201D01*
X28051773Y-108834248D01*
X27995266Y-108774702D01*
X27706572Y-108526386D01*
X27546781Y-108414915D01*
X27395559Y-108309420D01*
X27395552Y-108309416D01*
X27394261Y-108308515D01*
X27061532Y-108123321D01*
X26711792Y-107972699D01*
X26348620Y-107858191D01*
X26347069Y-107857870D01*
X26347066Y-107857869D01*
X26116912Y-107810206D01*
X25975736Y-107780970D01*
X25974158Y-107780807D01*
X25974152Y-107780806D01*
X25732428Y-107755827D01*
X25596957Y-107741828D01*
X25595388Y-107741825D01*
X25595383Y-107741825D01*
X25406559Y-107741495D01*
X25216162Y-107741163D01*
X25214603Y-107741319D01*
X25214595Y-107741319D01*
X25026273Y-107760116D01*
X24837249Y-107778983D01*
X24835698Y-107779299D01*
X24835695Y-107779299D01*
X24716831Y-107803482D01*
X24464098Y-107854902D01*
X24452007Y-107858668D01*
X24102037Y-107967671D01*
X24102032Y-107967673D01*
X24100529Y-107968141D01*
X23750265Y-108117541D01*
X23748889Y-108118301D01*
X23748880Y-108118305D01*
X23418273Y-108300810D01*
X23416891Y-108301573D01*
X23103822Y-108518353D01*
X23102621Y-108519379D01*
X22815466Y-108764632D01*
X22815460Y-108764638D01*
X22814263Y-108765660D01*
X22813175Y-108766798D01*
X22813166Y-108766807D01*
X22647097Y-108940589D01*
X22551178Y-109040963D01*
X22550216Y-109042198D01*
X22550214Y-109042201D01*
X22533356Y-109063856D01*
X22317261Y-109341443D01*
X22114906Y-109664023D01*
X21946186Y-110005401D01*
X21812829Y-110362082D01*
X21716199Y-110730414D01*
X21715953Y-110731982D01*
X21715952Y-110731989D01*
X21713939Y-110744845D01*
X21657286Y-111106625D01*
X21637536Y-111471292D01*
X21636693Y-111486864D01*
X15192665Y-111486864D01*
X15174064Y-111119692D01*
X15116465Y-110743277D01*
X15021121Y-110374611D01*
X15003069Y-110325810D01*
X14889564Y-110018963D01*
X14889560Y-110018953D01*
X14889010Y-110017467D01*
X14883824Y-110006880D01*
X14722179Y-109676922D01*
X14721483Y-109675501D01*
X14715307Y-109665578D01*
X14521086Y-109353552D01*
X14520255Y-109352217D01*
X14287388Y-109050922D01*
X14279113Y-109042201D01*
X14081773Y-108834248D01*
X14025266Y-108774702D01*
X13736572Y-108526386D01*
X13576781Y-108414915D01*
X13425559Y-108309420D01*
X13425552Y-108309416D01*
X13424261Y-108308515D01*
X13091532Y-108123321D01*
X12741792Y-107972699D01*
X12378620Y-107858191D01*
X12377069Y-107857870D01*
X12377066Y-107857869D01*
X12146912Y-107810206D01*
X12005736Y-107780970D01*
X12004158Y-107780807D01*
X12004152Y-107780806D01*
X11762428Y-107755827D01*
X11626957Y-107741828D01*
X11625388Y-107741825D01*
X11625383Y-107741825D01*
X11436559Y-107741495D01*
X11246162Y-107741163D01*
X11244603Y-107741319D01*
X11244595Y-107741319D01*
X11056273Y-107760116D01*
X10867249Y-107778983D01*
X10865698Y-107779299D01*
X10865695Y-107779299D01*
X10746831Y-107803482D01*
X10494098Y-107854902D01*
X10482007Y-107858668D01*
X10132037Y-107967671D01*
X10132032Y-107967673D01*
X10130529Y-107968141D01*
X9780265Y-108117541D01*
X9778889Y-108118301D01*
X9778880Y-108118305D01*
X9448273Y-108300810D01*
X9446891Y-108301573D01*
X9133822Y-108518353D01*
X9132621Y-108519379D01*
X8845466Y-108764632D01*
X8845460Y-108764638D01*
X8844263Y-108765660D01*
X8843175Y-108766798D01*
X8843166Y-108766807D01*
X8677097Y-108940589D01*
X8581178Y-109040963D01*
X8580216Y-109042198D01*
X8580214Y-109042201D01*
X8563356Y-109063856D01*
X8347261Y-109341443D01*
X8144906Y-109664023D01*
X7976186Y-110005401D01*
X7842829Y-110362082D01*
X7746199Y-110730414D01*
X7745953Y-110731982D01*
X7745952Y-110731989D01*
X7743939Y-110744845D01*
X7687286Y-111106625D01*
X7667536Y-111471292D01*
X7666693Y-111486864D01*
X508500Y-111486864D01*
X508500Y-97486864D01*
X7666693Y-97486864D01*
X7684631Y-97867237D01*
X7740916Y-98243850D01*
X7834972Y-98612847D01*
X7877245Y-98728363D01*
X7911046Y-98820728D01*
X7965836Y-98970450D01*
X8132169Y-99312998D01*
X8332266Y-99636983D01*
X8333223Y-99638230D01*
X8333227Y-99638236D01*
X8407226Y-99734673D01*
X8564080Y-99939089D01*
X8825237Y-100216222D01*
X9113063Y-100465545D01*
X9424611Y-100684504D01*
X9756691Y-100870859D01*
X10105904Y-101022701D01*
X10107412Y-101023182D01*
X10107414Y-101023183D01*
X10467162Y-101137993D01*
X10467166Y-101137994D01*
X10468673Y-101138475D01*
X10470220Y-101138801D01*
X10839737Y-101216671D01*
X10839741Y-101216672D01*
X10841285Y-101216997D01*
X11085801Y-101243128D01*
X11218342Y-101257293D01*
X11218345Y-101257293D01*
X11219925Y-101257462D01*
X11408884Y-101258451D01*
X11599122Y-101259448D01*
X11599129Y-101259448D01*
X11600716Y-101259456D01*
X11979759Y-101222958D01*
X12166466Y-101185651D01*
X12351623Y-101148653D01*
X12353173Y-101148343D01*
X12717135Y-101036373D01*
X12750997Y-101022069D01*
X13066465Y-100888811D01*
X13066469Y-100888809D01*
X13067918Y-100888197D01*
X13401932Y-100705330D01*
X13433566Y-100683589D01*
X13714446Y-100490544D01*
X13715756Y-100489644D01*
X13716958Y-100488625D01*
X13716968Y-100488617D01*
X14004966Y-100244377D01*
X14006177Y-100243350D01*
X14270221Y-99968967D01*
X14505186Y-99669305D01*
X14594706Y-99527699D01*
X14707819Y-99348772D01*
X14707823Y-99348765D01*
X14708665Y-99347433D01*
X14709370Y-99346018D01*
X14709375Y-99346010D01*
X14877863Y-99008075D01*
X14877866Y-99008067D01*
X14878575Y-99006646D01*
X14879135Y-99005165D01*
X14879139Y-99005155D01*
X15012614Y-98651922D01*
X15013177Y-98650432D01*
X15022780Y-98614344D01*
X15110687Y-98283962D01*
X15111092Y-98282440D01*
X15171318Y-97906437D01*
X15177407Y-97800837D01*
X15193190Y-97527108D01*
X15193190Y-97527103D01*
X15193238Y-97526273D01*
X15193330Y-97500000D01*
X15192665Y-97486864D01*
X21636693Y-97486864D01*
X21654631Y-97867237D01*
X21710916Y-98243850D01*
X21804972Y-98612847D01*
X21847245Y-98728363D01*
X21881046Y-98820728D01*
X21935836Y-98970450D01*
X22102169Y-99312998D01*
X22302266Y-99636983D01*
X22303223Y-99638230D01*
X22303227Y-99638236D01*
X22377226Y-99734673D01*
X22534080Y-99939089D01*
X22795237Y-100216222D01*
X23083063Y-100465545D01*
X23394611Y-100684504D01*
X23726691Y-100870859D01*
X24075904Y-101022701D01*
X24077412Y-101023182D01*
X24077414Y-101023183D01*
X24437162Y-101137993D01*
X24437166Y-101137994D01*
X24438673Y-101138475D01*
X24440220Y-101138801D01*
X24809737Y-101216671D01*
X24809741Y-101216672D01*
X24811285Y-101216997D01*
X25055801Y-101243128D01*
X25188342Y-101257293D01*
X25188345Y-101257293D01*
X25189925Y-101257462D01*
X25378884Y-101258451D01*
X25569122Y-101259448D01*
X25569129Y-101259448D01*
X25570716Y-101259456D01*
X25949759Y-101222958D01*
X26136466Y-101185651D01*
X26321623Y-101148653D01*
X26323173Y-101148343D01*
X26687135Y-101036373D01*
X26720997Y-101022069D01*
X27036465Y-100888811D01*
X27036469Y-100888809D01*
X27037918Y-100888197D01*
X27371932Y-100705330D01*
X27403566Y-100683589D01*
X27684446Y-100490544D01*
X27685756Y-100489644D01*
X27686958Y-100488625D01*
X27686968Y-100488617D01*
X27974966Y-100244377D01*
X27976177Y-100243350D01*
X28240221Y-99968967D01*
X28475186Y-99669305D01*
X28564706Y-99527699D01*
X28677819Y-99348772D01*
X28677823Y-99348765D01*
X28678665Y-99347433D01*
X28679370Y-99346018D01*
X28679375Y-99346010D01*
X28847863Y-99008075D01*
X28847866Y-99008067D01*
X28848575Y-99006646D01*
X28849135Y-99005165D01*
X28849139Y-99005155D01*
X28982614Y-98651922D01*
X28983177Y-98650432D01*
X28992780Y-98614344D01*
X29080687Y-98283962D01*
X29081092Y-98282440D01*
X29141318Y-97906437D01*
X29147407Y-97800837D01*
X29163190Y-97527108D01*
X29163190Y-97527103D01*
X29163238Y-97526273D01*
X29163330Y-97500000D01*
X29162665Y-97486864D01*
X34336693Y-97486864D01*
X34354631Y-97867237D01*
X34410916Y-98243850D01*
X34504972Y-98612847D01*
X34547245Y-98728363D01*
X34581046Y-98820728D01*
X34635836Y-98970450D01*
X34802169Y-99312998D01*
X35002266Y-99636983D01*
X35003223Y-99638230D01*
X35003227Y-99638236D01*
X35077226Y-99734673D01*
X35234080Y-99939089D01*
X35495237Y-100216222D01*
X35783063Y-100465545D01*
X36094611Y-100684504D01*
X36426691Y-100870859D01*
X36775904Y-101022701D01*
X36777412Y-101023182D01*
X36777414Y-101023183D01*
X37137162Y-101137993D01*
X37137166Y-101137994D01*
X37138673Y-101138475D01*
X37140220Y-101138801D01*
X37509737Y-101216671D01*
X37509741Y-101216672D01*
X37511285Y-101216997D01*
X37755801Y-101243128D01*
X37888342Y-101257293D01*
X37888345Y-101257293D01*
X37889925Y-101257462D01*
X38078884Y-101258451D01*
X38269122Y-101259448D01*
X38269129Y-101259448D01*
X38270716Y-101259456D01*
X38649759Y-101222958D01*
X38836466Y-101185651D01*
X39021623Y-101148653D01*
X39023173Y-101148343D01*
X39387135Y-101036373D01*
X39420997Y-101022069D01*
X39736465Y-100888811D01*
X39736469Y-100888809D01*
X39737918Y-100888197D01*
X40071932Y-100705330D01*
X40103566Y-100683589D01*
X40384446Y-100490544D01*
X40385756Y-100489644D01*
X40386958Y-100488625D01*
X40386968Y-100488617D01*
X40674966Y-100244377D01*
X40676177Y-100243350D01*
X40940221Y-99968967D01*
X41175186Y-99669305D01*
X41264706Y-99527699D01*
X41377819Y-99348772D01*
X41377823Y-99348765D01*
X41378665Y-99347433D01*
X41379370Y-99346018D01*
X41379375Y-99346010D01*
X41547863Y-99008075D01*
X41547866Y-99008067D01*
X41548575Y-99006646D01*
X41549135Y-99005165D01*
X41549139Y-99005155D01*
X41682614Y-98651922D01*
X41683177Y-98650432D01*
X41692780Y-98614344D01*
X41780687Y-98283962D01*
X41781092Y-98282440D01*
X41841318Y-97906437D01*
X41847407Y-97800837D01*
X41863190Y-97527108D01*
X41863190Y-97527103D01*
X41863238Y-97526273D01*
X41863330Y-97500000D01*
X41862665Y-97486864D01*
X45766693Y-97486864D01*
X45784631Y-97867237D01*
X45840916Y-98243850D01*
X45934972Y-98612847D01*
X45977245Y-98728363D01*
X46011046Y-98820728D01*
X46065836Y-98970450D01*
X46232169Y-99312998D01*
X46432266Y-99636983D01*
X46433223Y-99638230D01*
X46433227Y-99638236D01*
X46507226Y-99734673D01*
X46664080Y-99939089D01*
X46925237Y-100216222D01*
X47213063Y-100465545D01*
X47524611Y-100684504D01*
X47856691Y-100870859D01*
X48205904Y-101022701D01*
X48207412Y-101023182D01*
X48207414Y-101023183D01*
X48567162Y-101137993D01*
X48567166Y-101137994D01*
X48568673Y-101138475D01*
X48570220Y-101138801D01*
X48939737Y-101216671D01*
X48939741Y-101216672D01*
X48941285Y-101216997D01*
X49185801Y-101243128D01*
X49318342Y-101257293D01*
X49318345Y-101257293D01*
X49319925Y-101257462D01*
X49508884Y-101258451D01*
X49699122Y-101259448D01*
X49699129Y-101259448D01*
X49700716Y-101259456D01*
X50079759Y-101222958D01*
X50266466Y-101185651D01*
X50451623Y-101148653D01*
X50453173Y-101148343D01*
X50817135Y-101036373D01*
X50850997Y-101022069D01*
X51166465Y-100888811D01*
X51166469Y-100888809D01*
X51167918Y-100888197D01*
X51501932Y-100705330D01*
X51533566Y-100683589D01*
X51814446Y-100490544D01*
X51815756Y-100489644D01*
X51816958Y-100488625D01*
X51816968Y-100488617D01*
X52104966Y-100244377D01*
X52106177Y-100243350D01*
X52370221Y-99968967D01*
X52605186Y-99669305D01*
X52694706Y-99527699D01*
X52807819Y-99348772D01*
X52807823Y-99348765D01*
X52808665Y-99347433D01*
X52809370Y-99346018D01*
X52809375Y-99346010D01*
X52977863Y-99008075D01*
X52977866Y-99008067D01*
X52978575Y-99006646D01*
X52979135Y-99005165D01*
X52979139Y-99005155D01*
X53112614Y-98651922D01*
X53113177Y-98650432D01*
X53122780Y-98614344D01*
X53210687Y-98283962D01*
X53211092Y-98282440D01*
X53271318Y-97906437D01*
X53277407Y-97800837D01*
X53293190Y-97527108D01*
X53293190Y-97527103D01*
X53293238Y-97526273D01*
X53293330Y-97500000D01*
X53274064Y-97119692D01*
X53216465Y-96743277D01*
X53121121Y-96374611D01*
X53103069Y-96325810D01*
X52989564Y-96018963D01*
X52989560Y-96018953D01*
X52989010Y-96017467D01*
X52983824Y-96006880D01*
X52822179Y-95676922D01*
X52821483Y-95675501D01*
X52815307Y-95665578D01*
X52621086Y-95353552D01*
X52620255Y-95352217D01*
X52387388Y-95050922D01*
X52379113Y-95042201D01*
X52181773Y-94834248D01*
X52125266Y-94774702D01*
X51836572Y-94526386D01*
X51676781Y-94414915D01*
X51525559Y-94309420D01*
X51525552Y-94309416D01*
X51524261Y-94308515D01*
X51191532Y-94123321D01*
X50841792Y-93972699D01*
X50478620Y-93858191D01*
X50477069Y-93857870D01*
X50477066Y-93857869D01*
X50246912Y-93810206D01*
X50105736Y-93780970D01*
X50104158Y-93780807D01*
X50104152Y-93780806D01*
X49862428Y-93755827D01*
X49726957Y-93741828D01*
X49725388Y-93741825D01*
X49725383Y-93741825D01*
X49536559Y-93741495D01*
X49346162Y-93741163D01*
X49344603Y-93741319D01*
X49344595Y-93741319D01*
X49156273Y-93760116D01*
X48967249Y-93778983D01*
X48965698Y-93779299D01*
X48965695Y-93779299D01*
X48846831Y-93803482D01*
X48594098Y-93854902D01*
X48582007Y-93858668D01*
X48232037Y-93967671D01*
X48232032Y-93967673D01*
X48230529Y-93968141D01*
X47880265Y-94117541D01*
X47878889Y-94118301D01*
X47878880Y-94118305D01*
X47548273Y-94300810D01*
X47546891Y-94301573D01*
X47233822Y-94518353D01*
X47232621Y-94519379D01*
X46945466Y-94764632D01*
X46945460Y-94764638D01*
X46944263Y-94765660D01*
X46943175Y-94766798D01*
X46943166Y-94766807D01*
X46777097Y-94940589D01*
X46681178Y-95040963D01*
X46680216Y-95042198D01*
X46680214Y-95042201D01*
X46663356Y-95063856D01*
X46447261Y-95341443D01*
X46244906Y-95664023D01*
X46076186Y-96005401D01*
X45942829Y-96362082D01*
X45846199Y-96730414D01*
X45845953Y-96731982D01*
X45845952Y-96731989D01*
X45843939Y-96744845D01*
X45787286Y-97106625D01*
X45767536Y-97471292D01*
X45766693Y-97486864D01*
X41862665Y-97486864D01*
X41844064Y-97119692D01*
X41786465Y-96743277D01*
X41691121Y-96374611D01*
X41673069Y-96325810D01*
X41559564Y-96018963D01*
X41559560Y-96018953D01*
X41559010Y-96017467D01*
X41553824Y-96006880D01*
X41392179Y-95676922D01*
X41391483Y-95675501D01*
X41385307Y-95665578D01*
X41191086Y-95353552D01*
X41190255Y-95352217D01*
X40957388Y-95050922D01*
X40949113Y-95042201D01*
X40751773Y-94834248D01*
X40695266Y-94774702D01*
X40406572Y-94526386D01*
X40246781Y-94414915D01*
X40095559Y-94309420D01*
X40095552Y-94309416D01*
X40094261Y-94308515D01*
X39761532Y-94123321D01*
X39411792Y-93972699D01*
X39048620Y-93858191D01*
X39047069Y-93857870D01*
X39047066Y-93857869D01*
X38816912Y-93810206D01*
X38675736Y-93780970D01*
X38674158Y-93780807D01*
X38674152Y-93780806D01*
X38432428Y-93755827D01*
X38296957Y-93741828D01*
X38295388Y-93741825D01*
X38295383Y-93741825D01*
X38106559Y-93741495D01*
X37916162Y-93741163D01*
X37914603Y-93741319D01*
X37914595Y-93741319D01*
X37726273Y-93760116D01*
X37537249Y-93778983D01*
X37535698Y-93779299D01*
X37535695Y-93779299D01*
X37416831Y-93803482D01*
X37164098Y-93854902D01*
X37152007Y-93858668D01*
X36802037Y-93967671D01*
X36802032Y-93967673D01*
X36800529Y-93968141D01*
X36450265Y-94117541D01*
X36448889Y-94118301D01*
X36448880Y-94118305D01*
X36118273Y-94300810D01*
X36116891Y-94301573D01*
X35803822Y-94518353D01*
X35802621Y-94519379D01*
X35515466Y-94764632D01*
X35515460Y-94764638D01*
X35514263Y-94765660D01*
X35513175Y-94766798D01*
X35513166Y-94766807D01*
X35347097Y-94940589D01*
X35251178Y-95040963D01*
X35250216Y-95042198D01*
X35250214Y-95042201D01*
X35233356Y-95063856D01*
X35017261Y-95341443D01*
X34814906Y-95664023D01*
X34646186Y-96005401D01*
X34512829Y-96362082D01*
X34416199Y-96730414D01*
X34415953Y-96731982D01*
X34415952Y-96731989D01*
X34413939Y-96744845D01*
X34357286Y-97106625D01*
X34337536Y-97471292D01*
X34336693Y-97486864D01*
X29162665Y-97486864D01*
X29144064Y-97119692D01*
X29086465Y-96743277D01*
X28991121Y-96374611D01*
X28973069Y-96325810D01*
X28859564Y-96018963D01*
X28859560Y-96018953D01*
X28859010Y-96017467D01*
X28853824Y-96006880D01*
X28692179Y-95676922D01*
X28691483Y-95675501D01*
X28685307Y-95665578D01*
X28491086Y-95353552D01*
X28490255Y-95352217D01*
X28257388Y-95050922D01*
X28249113Y-95042201D01*
X28051773Y-94834248D01*
X27995266Y-94774702D01*
X27706572Y-94526386D01*
X27546781Y-94414915D01*
X27395559Y-94309420D01*
X27395552Y-94309416D01*
X27394261Y-94308515D01*
X27061532Y-94123321D01*
X26711792Y-93972699D01*
X26348620Y-93858191D01*
X26347069Y-93857870D01*
X26347066Y-93857869D01*
X26116912Y-93810206D01*
X25975736Y-93780970D01*
X25974158Y-93780807D01*
X25974152Y-93780806D01*
X25732428Y-93755827D01*
X25596957Y-93741828D01*
X25595388Y-93741825D01*
X25595383Y-93741825D01*
X25406559Y-93741495D01*
X25216162Y-93741163D01*
X25214603Y-93741319D01*
X25214595Y-93741319D01*
X25026273Y-93760116D01*
X24837249Y-93778983D01*
X24835698Y-93779299D01*
X24835695Y-93779299D01*
X24716831Y-93803482D01*
X24464098Y-93854902D01*
X24452007Y-93858668D01*
X24102037Y-93967671D01*
X24102032Y-93967673D01*
X24100529Y-93968141D01*
X23750265Y-94117541D01*
X23748889Y-94118301D01*
X23748880Y-94118305D01*
X23418273Y-94300810D01*
X23416891Y-94301573D01*
X23103822Y-94518353D01*
X23102621Y-94519379D01*
X22815466Y-94764632D01*
X22815460Y-94764638D01*
X22814263Y-94765660D01*
X22813175Y-94766798D01*
X22813166Y-94766807D01*
X22647097Y-94940589D01*
X22551178Y-95040963D01*
X22550216Y-95042198D01*
X22550214Y-95042201D01*
X22533356Y-95063856D01*
X22317261Y-95341443D01*
X22114906Y-95664023D01*
X21946186Y-96005401D01*
X21812829Y-96362082D01*
X21716199Y-96730414D01*
X21715953Y-96731982D01*
X21715952Y-96731989D01*
X21713939Y-96744845D01*
X21657286Y-97106625D01*
X21637536Y-97471292D01*
X21636693Y-97486864D01*
X15192665Y-97486864D01*
X15174064Y-97119692D01*
X15116465Y-96743277D01*
X15021121Y-96374611D01*
X15003069Y-96325810D01*
X14889564Y-96018963D01*
X14889560Y-96018953D01*
X14889010Y-96017467D01*
X14883824Y-96006880D01*
X14722179Y-95676922D01*
X14721483Y-95675501D01*
X14715307Y-95665578D01*
X14521086Y-95353552D01*
X14520255Y-95352217D01*
X14287388Y-95050922D01*
X14279113Y-95042201D01*
X14081773Y-94834248D01*
X14025266Y-94774702D01*
X13736572Y-94526386D01*
X13576781Y-94414915D01*
X13425559Y-94309420D01*
X13425552Y-94309416D01*
X13424261Y-94308515D01*
X13091532Y-94123321D01*
X12741792Y-93972699D01*
X12378620Y-93858191D01*
X12377069Y-93857870D01*
X12377066Y-93857869D01*
X12146912Y-93810206D01*
X12005736Y-93780970D01*
X12004158Y-93780807D01*
X12004152Y-93780806D01*
X11762428Y-93755827D01*
X11626957Y-93741828D01*
X11625388Y-93741825D01*
X11625383Y-93741825D01*
X11436559Y-93741495D01*
X11246162Y-93741163D01*
X11244603Y-93741319D01*
X11244595Y-93741319D01*
X11056273Y-93760116D01*
X10867249Y-93778983D01*
X10865698Y-93779299D01*
X10865695Y-93779299D01*
X10746831Y-93803482D01*
X10494098Y-93854902D01*
X10482007Y-93858668D01*
X10132037Y-93967671D01*
X10132032Y-93967673D01*
X10130529Y-93968141D01*
X9780265Y-94117541D01*
X9778889Y-94118301D01*
X9778880Y-94118305D01*
X9448273Y-94300810D01*
X9446891Y-94301573D01*
X9133822Y-94518353D01*
X9132621Y-94519379D01*
X8845466Y-94764632D01*
X8845460Y-94764638D01*
X8844263Y-94765660D01*
X8843175Y-94766798D01*
X8843166Y-94766807D01*
X8677097Y-94940589D01*
X8581178Y-95040963D01*
X8580216Y-95042198D01*
X8580214Y-95042201D01*
X8563356Y-95063856D01*
X8347261Y-95341443D01*
X8144906Y-95664023D01*
X7976186Y-96005401D01*
X7842829Y-96362082D01*
X7746199Y-96730414D01*
X7745953Y-96731982D01*
X7745952Y-96731989D01*
X7743939Y-96744845D01*
X7687286Y-97106625D01*
X7667536Y-97471292D01*
X7666693Y-97486864D01*
X508500Y-97486864D01*
X508500Y-82486864D01*
X7666693Y-82486864D01*
X7684631Y-82867237D01*
X7740916Y-83243850D01*
X7834972Y-83612847D01*
X7852805Y-83661577D01*
X7911046Y-83820728D01*
X7965836Y-83970450D01*
X8132169Y-84312998D01*
X8332266Y-84636983D01*
X8333223Y-84638230D01*
X8333227Y-84638236D01*
X8552774Y-84924355D01*
X8564080Y-84939089D01*
X8825237Y-85216222D01*
X9113063Y-85465545D01*
X9424611Y-85684504D01*
X9756691Y-85870859D01*
X10105904Y-86022701D01*
X10107412Y-86023182D01*
X10107414Y-86023183D01*
X10467162Y-86137993D01*
X10467166Y-86137994D01*
X10468673Y-86138475D01*
X10470220Y-86138801D01*
X10839737Y-86216671D01*
X10839741Y-86216672D01*
X10841285Y-86216997D01*
X11085801Y-86243128D01*
X11218342Y-86257293D01*
X11218345Y-86257293D01*
X11219925Y-86257462D01*
X11408884Y-86258451D01*
X11599122Y-86259448D01*
X11599129Y-86259448D01*
X11600716Y-86259456D01*
X11979759Y-86222958D01*
X12166466Y-86185650D01*
X12351623Y-86148653D01*
X12353173Y-86148343D01*
X12717135Y-86036373D01*
X12750997Y-86022069D01*
X13066465Y-85888811D01*
X13066469Y-85888809D01*
X13067918Y-85888197D01*
X13401932Y-85705330D01*
X13427132Y-85688011D01*
X13558844Y-85597487D01*
X13715756Y-85489644D01*
X13716958Y-85488625D01*
X13716968Y-85488617D01*
X13729024Y-85478393D01*
X28416803Y-85478393D01*
X28416925Y-85480506D01*
X28417210Y-85485458D01*
X28420611Y-85544431D01*
X28432960Y-85758601D01*
X28486996Y-86034024D01*
X28577911Y-86299565D01*
X28578860Y-86301452D01*
X28578863Y-86301459D01*
X28664141Y-86471015D01*
X28704022Y-86550310D01*
X28862997Y-86781620D01*
X28864428Y-86783192D01*
X28864433Y-86783199D01*
X29050462Y-86987642D01*
X29050467Y-86987647D01*
X29051894Y-86989215D01*
X29267217Y-87169253D01*
X29504981Y-87318402D01*
X29760788Y-87433903D01*
X29833833Y-87455540D01*
X30027863Y-87513015D01*
X30027867Y-87513016D01*
X30029903Y-87513619D01*
X30307347Y-87556074D01*
X30452779Y-87558358D01*
X30585858Y-87560449D01*
X30585864Y-87560449D01*
X30587985Y-87560482D01*
X30866626Y-87526763D01*
X30868683Y-87526223D01*
X30868685Y-87526223D01*
X31002369Y-87491151D01*
X31138112Y-87455540D01*
X31397420Y-87348131D01*
X31639752Y-87206524D01*
X31860624Y-87033338D01*
X31904907Y-86987642D01*
X32054467Y-86833307D01*
X32055948Y-86831779D01*
X32222110Y-86605577D01*
X32356036Y-86358916D01*
X32407410Y-86222958D01*
X32454495Y-86098353D01*
X32454496Y-86098349D01*
X32455247Y-86096362D01*
X32517907Y-85822773D01*
X32528321Y-85706091D01*
X32542748Y-85544431D01*
X32542857Y-85543211D01*
X32543310Y-85500000D01*
X32541837Y-85478393D01*
X46196803Y-85478393D01*
X46196925Y-85480506D01*
X46197210Y-85485458D01*
X46200611Y-85544431D01*
X46212960Y-85758601D01*
X46266996Y-86034024D01*
X46357911Y-86299565D01*
X46358860Y-86301452D01*
X46358863Y-86301459D01*
X46444141Y-86471015D01*
X46484022Y-86550310D01*
X46642997Y-86781620D01*
X46644428Y-86783192D01*
X46644433Y-86783199D01*
X46830462Y-86987642D01*
X46830467Y-86987647D01*
X46831894Y-86989215D01*
X47047217Y-87169253D01*
X47284981Y-87318402D01*
X47540788Y-87433903D01*
X47613833Y-87455540D01*
X47807863Y-87513015D01*
X47807867Y-87513016D01*
X47809903Y-87513619D01*
X48087347Y-87556074D01*
X48232779Y-87558358D01*
X48365858Y-87560449D01*
X48365864Y-87560449D01*
X48367985Y-87560482D01*
X48646626Y-87526763D01*
X48648683Y-87526223D01*
X48648685Y-87526223D01*
X48782369Y-87491151D01*
X48918112Y-87455540D01*
X49177420Y-87348131D01*
X49419752Y-87206524D01*
X49640624Y-87033338D01*
X49684907Y-86987642D01*
X49834467Y-86833307D01*
X49835948Y-86831779D01*
X50002110Y-86605577D01*
X50136036Y-86358916D01*
X50187410Y-86222958D01*
X50234495Y-86098353D01*
X50234496Y-86098349D01*
X50235247Y-86096362D01*
X50297907Y-85822773D01*
X50308321Y-85706091D01*
X50322748Y-85544431D01*
X50322857Y-85543211D01*
X50323310Y-85500000D01*
X50308548Y-85283460D01*
X50304366Y-85222112D01*
X50304365Y-85222105D01*
X50304220Y-85219977D01*
X50303786Y-85217880D01*
X50247735Y-84947219D01*
X50247733Y-84947213D01*
X50247303Y-84945135D01*
X50240685Y-84926445D01*
X50172774Y-84734673D01*
X50153612Y-84680561D01*
X50024882Y-84431150D01*
X50013254Y-84414604D01*
X49864712Y-84203251D01*
X49864710Y-84203248D01*
X49863493Y-84201517D01*
X49846518Y-84183250D01*
X49673885Y-83997474D01*
X49673881Y-83997470D01*
X49672433Y-83995912D01*
X49670788Y-83994565D01*
X49670782Y-83994560D01*
X49458400Y-83820728D01*
X49455237Y-83818139D01*
X49215923Y-83671487D01*
X48958921Y-83558671D01*
X48688986Y-83481778D01*
X48411113Y-83442231D01*
X48280867Y-83441549D01*
X48132581Y-83440772D01*
X48132578Y-83440772D01*
X48130444Y-83440761D01*
X48128326Y-83441040D01*
X48128324Y-83441040D01*
X47991308Y-83459079D01*
X47852172Y-83477397D01*
X47850117Y-83477959D01*
X47850113Y-83477960D01*
X47583502Y-83550896D01*
X47583495Y-83550899D01*
X47581446Y-83551459D01*
X47579491Y-83552293D01*
X47579485Y-83552295D01*
X47437523Y-83612847D01*
X47323277Y-83661577D01*
X47082441Y-83805715D01*
X47080781Y-83807045D01*
X47080778Y-83807047D01*
X46865053Y-83979875D01*
X46865047Y-83979880D01*
X46863395Y-83981204D01*
X46670192Y-84184797D01*
X46506408Y-84412727D01*
X46505415Y-84414602D01*
X46505414Y-84414604D01*
X46495655Y-84433036D01*
X46375073Y-84660776D01*
X46278616Y-84924355D01*
X46278161Y-84926441D01*
X46278160Y-84926445D01*
X46229033Y-85151765D01*
X46218825Y-85198585D01*
X46218658Y-85200703D01*
X46218658Y-85200705D01*
X46197743Y-85466453D01*
X46196803Y-85478393D01*
X32541837Y-85478393D01*
X32528548Y-85283460D01*
X32524366Y-85222112D01*
X32524365Y-85222105D01*
X32524220Y-85219977D01*
X32523786Y-85217880D01*
X32467735Y-84947219D01*
X32467733Y-84947213D01*
X32467303Y-84945135D01*
X32460685Y-84926445D01*
X32392774Y-84734673D01*
X32373612Y-84680561D01*
X32244882Y-84431150D01*
X32233254Y-84414604D01*
X32084712Y-84203251D01*
X32084710Y-84203248D01*
X32083493Y-84201517D01*
X32066518Y-84183250D01*
X31893885Y-83997474D01*
X31893881Y-83997470D01*
X31892433Y-83995912D01*
X31890788Y-83994565D01*
X31890782Y-83994560D01*
X31678400Y-83820728D01*
X31675237Y-83818139D01*
X31435923Y-83671487D01*
X31178921Y-83558671D01*
X30908986Y-83481778D01*
X30631113Y-83442231D01*
X30500867Y-83441549D01*
X30352581Y-83440772D01*
X30352578Y-83440772D01*
X30350444Y-83440761D01*
X30348326Y-83441040D01*
X30348324Y-83441040D01*
X30211308Y-83459079D01*
X30072172Y-83477397D01*
X30070117Y-83477959D01*
X30070113Y-83477960D01*
X29803502Y-83550896D01*
X29803495Y-83550899D01*
X29801446Y-83551459D01*
X29799491Y-83552293D01*
X29799485Y-83552295D01*
X29657523Y-83612847D01*
X29543277Y-83661577D01*
X29302441Y-83805715D01*
X29300781Y-83807045D01*
X29300778Y-83807047D01*
X29085053Y-83979875D01*
X29085047Y-83979880D01*
X29083395Y-83981204D01*
X28890192Y-84184797D01*
X28726408Y-84412727D01*
X28725415Y-84414602D01*
X28725414Y-84414604D01*
X28715655Y-84433036D01*
X28595073Y-84660776D01*
X28498616Y-84924355D01*
X28498161Y-84926441D01*
X28498160Y-84926445D01*
X28449033Y-85151765D01*
X28438825Y-85198585D01*
X28438658Y-85200703D01*
X28438658Y-85200705D01*
X28417743Y-85466453D01*
X28416803Y-85478393D01*
X13729024Y-85478393D01*
X14004966Y-85244377D01*
X14006177Y-85243350D01*
X14270221Y-84968967D01*
X14505186Y-84669305D01*
X14525619Y-84636983D01*
X14707819Y-84348772D01*
X14707823Y-84348765D01*
X14708665Y-84347433D01*
X14709370Y-84346018D01*
X14709375Y-84346010D01*
X14877863Y-84008075D01*
X14877866Y-84008067D01*
X14878575Y-84006646D01*
X14879135Y-84005165D01*
X14879139Y-84005155D01*
X15012614Y-83651922D01*
X15013177Y-83650432D01*
X15022780Y-83614344D01*
X15110687Y-83283962D01*
X15111092Y-83282440D01*
X15171318Y-82906437D01*
X15177407Y-82800837D01*
X15193190Y-82527108D01*
X15193190Y-82527103D01*
X15193238Y-82526273D01*
X15193330Y-82500000D01*
X15174064Y-82119692D01*
X15116465Y-81743277D01*
X15021121Y-81374611D01*
X15003069Y-81325810D01*
X14889564Y-81018963D01*
X14889560Y-81018953D01*
X14889010Y-81017467D01*
X14883824Y-81006880D01*
X14749569Y-80732832D01*
X14721483Y-80675501D01*
X14715307Y-80665578D01*
X14521086Y-80353552D01*
X14520255Y-80352217D01*
X14287388Y-80050922D01*
X14279113Y-80042201D01*
X14126234Y-79881101D01*
X14025266Y-79774702D01*
X13736572Y-79526386D01*
X13446106Y-79323754D01*
X13425559Y-79309420D01*
X13425552Y-79309416D01*
X13424261Y-79308515D01*
X13091532Y-79123321D01*
X12741792Y-78972699D01*
X12378620Y-78858191D01*
X12377069Y-78857870D01*
X12377066Y-78857869D01*
X12146912Y-78810206D01*
X12005736Y-78780970D01*
X12004158Y-78780807D01*
X12004152Y-78780806D01*
X11762428Y-78755827D01*
X11626957Y-78741828D01*
X11625388Y-78741825D01*
X11625383Y-78741825D01*
X11436559Y-78741495D01*
X11246162Y-78741163D01*
X11244603Y-78741319D01*
X11244595Y-78741319D01*
X11056273Y-78760116D01*
X10867249Y-78778983D01*
X10865698Y-78779299D01*
X10865695Y-78779299D01*
X10746831Y-78803482D01*
X10494098Y-78854902D01*
X10482007Y-78858668D01*
X10132037Y-78967671D01*
X10132032Y-78967673D01*
X10130529Y-78968141D01*
X9780265Y-79117541D01*
X9778889Y-79118301D01*
X9778880Y-79118305D01*
X9528997Y-79256248D01*
X9446891Y-79301573D01*
X9133822Y-79518353D01*
X9132621Y-79519379D01*
X8845466Y-79764632D01*
X8845460Y-79764638D01*
X8844263Y-79765660D01*
X8843175Y-79766798D01*
X8843166Y-79766807D01*
X8677097Y-79940589D01*
X8581178Y-80040963D01*
X8580216Y-80042198D01*
X8580214Y-80042201D01*
X8563356Y-80063856D01*
X8347261Y-80341443D01*
X8144906Y-80664023D01*
X8144205Y-80665442D01*
X8144203Y-80665445D01*
X8071031Y-80813498D01*
X7976186Y-81005401D01*
X7842829Y-81362082D01*
X7746199Y-81730414D01*
X7745953Y-81731982D01*
X7745952Y-81731989D01*
X7743939Y-81744845D01*
X7687286Y-82106625D01*
X7667536Y-82471292D01*
X7666693Y-82486864D01*
X508500Y-82486864D01*
X508500Y-75500000D01*
X25166443Y-75500000D01*
X25186663Y-75963107D01*
X25247168Y-76422689D01*
X25347498Y-76875250D01*
X25486890Y-77317344D01*
X25664282Y-77745606D01*
X25878325Y-78156778D01*
X26127389Y-78547731D01*
X26128207Y-78548797D01*
X26390750Y-78890950D01*
X26409579Y-78915489D01*
X26722748Y-79257252D01*
X27064511Y-79570421D01*
X27432269Y-79852611D01*
X27823221Y-80101675D01*
X27824432Y-80102306D01*
X27824440Y-80102310D01*
X28074647Y-80232559D01*
X28234394Y-80315718D01*
X28662656Y-80493110D01*
X28663967Y-80493523D01*
X28663966Y-80493523D01*
X29103452Y-80632093D01*
X29103457Y-80632094D01*
X29104750Y-80632502D01*
X29106068Y-80632794D01*
X29106071Y-80632795D01*
X29193481Y-80652173D01*
X29557311Y-80732832D01*
X29558660Y-80733010D01*
X29558668Y-80733011D01*
X30015548Y-80793160D01*
X30015550Y-80793160D01*
X30016893Y-80793337D01*
X30018236Y-80793396D01*
X30018240Y-80793396D01*
X30478649Y-80813498D01*
X30480000Y-80813557D01*
X30481351Y-80813498D01*
X30941760Y-80793396D01*
X30941764Y-80793396D01*
X30943107Y-80793337D01*
X30944450Y-80793160D01*
X30944452Y-80793160D01*
X31401332Y-80733011D01*
X31401340Y-80733010D01*
X31402689Y-80732832D01*
X31766519Y-80652173D01*
X31853929Y-80632795D01*
X31853932Y-80632794D01*
X31855250Y-80632502D01*
X31856543Y-80632094D01*
X31856548Y-80632093D01*
X32296034Y-80493523D01*
X32296033Y-80493523D01*
X32297344Y-80493110D01*
X32725606Y-80315718D01*
X32885353Y-80232559D01*
X33135560Y-80102310D01*
X33135568Y-80102306D01*
X33136779Y-80101675D01*
X33527731Y-79852611D01*
X33895489Y-79570421D01*
X34237252Y-79257252D01*
X34550421Y-78915489D01*
X34569251Y-78890950D01*
X34831793Y-78548797D01*
X34832611Y-78547731D01*
X35081675Y-78156778D01*
X35295718Y-77745606D01*
X35473110Y-77317344D01*
X35612502Y-76875250D01*
X35712832Y-76422689D01*
X35773337Y-75963107D01*
X35793557Y-75500000D01*
X42946443Y-75500000D01*
X42966663Y-75963107D01*
X43027168Y-76422689D01*
X43127498Y-76875250D01*
X43266890Y-77317344D01*
X43444282Y-77745606D01*
X43658325Y-78156778D01*
X43907389Y-78547731D01*
X43908207Y-78548797D01*
X44170750Y-78890950D01*
X44189579Y-78915489D01*
X44502748Y-79257252D01*
X44844511Y-79570421D01*
X45212269Y-79852611D01*
X45603221Y-80101675D01*
X45604432Y-80102306D01*
X45604440Y-80102310D01*
X45854647Y-80232559D01*
X46014394Y-80315718D01*
X46442656Y-80493110D01*
X46443967Y-80493523D01*
X46443966Y-80493523D01*
X46883452Y-80632093D01*
X46883457Y-80632094D01*
X46884750Y-80632502D01*
X46886068Y-80632794D01*
X46886071Y-80632795D01*
X46973481Y-80652173D01*
X47337311Y-80732832D01*
X47338660Y-80733010D01*
X47338668Y-80733011D01*
X47795548Y-80793160D01*
X47795550Y-80793160D01*
X47796893Y-80793337D01*
X47798236Y-80793396D01*
X47798240Y-80793396D01*
X48258649Y-80813498D01*
X48260000Y-80813557D01*
X48261351Y-80813498D01*
X48721760Y-80793396D01*
X48721764Y-80793396D01*
X48723107Y-80793337D01*
X48724450Y-80793160D01*
X48724452Y-80793160D01*
X49181332Y-80733011D01*
X49181340Y-80733010D01*
X49182689Y-80732832D01*
X49546519Y-80652173D01*
X49633929Y-80632795D01*
X49633932Y-80632794D01*
X49635250Y-80632502D01*
X49636543Y-80632094D01*
X49636548Y-80632093D01*
X50076034Y-80493523D01*
X50076033Y-80493523D01*
X50077344Y-80493110D01*
X50505606Y-80315718D01*
X50665353Y-80232559D01*
X50915560Y-80102310D01*
X50915568Y-80102306D01*
X50916779Y-80101675D01*
X51307731Y-79852611D01*
X51675489Y-79570421D01*
X52017252Y-79257252D01*
X52330421Y-78915489D01*
X52349251Y-78890950D01*
X52611793Y-78548797D01*
X52612611Y-78547731D01*
X52861675Y-78156778D01*
X53075718Y-77745606D01*
X53253110Y-77317344D01*
X53392502Y-76875250D01*
X53492832Y-76422689D01*
X53553337Y-75963107D01*
X53573557Y-75500000D01*
X53572182Y-75468506D01*
X53553396Y-75038240D01*
X53553396Y-75038236D01*
X53553337Y-75036893D01*
X53543495Y-74962132D01*
X53493011Y-74578668D01*
X53493010Y-74578660D01*
X53492832Y-74577311D01*
X53392502Y-74124750D01*
X53253110Y-73682656D01*
X53075718Y-73254394D01*
X52989004Y-73087819D01*
X52862310Y-72844441D01*
X52862306Y-72844433D01*
X52861675Y-72843222D01*
X52612611Y-72452269D01*
X52330421Y-72084511D01*
X52017252Y-71742748D01*
X51675489Y-71429579D01*
X51307731Y-71147389D01*
X50916779Y-70898325D01*
X50915568Y-70897694D01*
X50915560Y-70897690D01*
X50506812Y-70684910D01*
X50505606Y-70684282D01*
X50077344Y-70506890D01*
X50014280Y-70487006D01*
X49636548Y-70367907D01*
X49636543Y-70367906D01*
X49635250Y-70367498D01*
X49633932Y-70367206D01*
X49633929Y-70367205D01*
X49546519Y-70347827D01*
X49182689Y-70267168D01*
X49181340Y-70266990D01*
X49181332Y-70266989D01*
X48724452Y-70206840D01*
X48724450Y-70206840D01*
X48723107Y-70206663D01*
X48721764Y-70206604D01*
X48721760Y-70206604D01*
X48261351Y-70186502D01*
X48260000Y-70186443D01*
X48258649Y-70186502D01*
X47798240Y-70206604D01*
X47798236Y-70206604D01*
X47796893Y-70206663D01*
X47795550Y-70206840D01*
X47795548Y-70206840D01*
X47338668Y-70266989D01*
X47338660Y-70266990D01*
X47337311Y-70267168D01*
X46973481Y-70347827D01*
X46886071Y-70367205D01*
X46886068Y-70367206D01*
X46884750Y-70367498D01*
X46883457Y-70367906D01*
X46883452Y-70367907D01*
X46505720Y-70487006D01*
X46442656Y-70506890D01*
X46014394Y-70684282D01*
X46013188Y-70684910D01*
X45604441Y-70897690D01*
X45604433Y-70897694D01*
X45603222Y-70898325D01*
X45212269Y-71147389D01*
X44844511Y-71429579D01*
X44502748Y-71742748D01*
X44189579Y-72084511D01*
X43907389Y-72452269D01*
X43658325Y-72843222D01*
X43657694Y-72844433D01*
X43657690Y-72844441D01*
X43530996Y-73087819D01*
X43444282Y-73254394D01*
X43266890Y-73682656D01*
X43127498Y-74124750D01*
X43027168Y-74577311D01*
X43026990Y-74578660D01*
X43026989Y-74578668D01*
X42976505Y-74962132D01*
X42966663Y-75036893D01*
X42966604Y-75038236D01*
X42966604Y-75038240D01*
X42952329Y-75365201D01*
X42946443Y-75500000D01*
X35793557Y-75500000D01*
X35792182Y-75468506D01*
X35773396Y-75038240D01*
X35773396Y-75038236D01*
X35773337Y-75036893D01*
X35763495Y-74962132D01*
X35713011Y-74578668D01*
X35713010Y-74578660D01*
X35712832Y-74577311D01*
X35612502Y-74124750D01*
X35473110Y-73682656D01*
X35295718Y-73254394D01*
X35209004Y-73087819D01*
X35082310Y-72844441D01*
X35082306Y-72844433D01*
X35081675Y-72843222D01*
X34832611Y-72452269D01*
X34550421Y-72084511D01*
X34237252Y-71742748D01*
X33895489Y-71429579D01*
X33527731Y-71147389D01*
X33136779Y-70898325D01*
X33135568Y-70897694D01*
X33135560Y-70897690D01*
X32726812Y-70684910D01*
X32725606Y-70684282D01*
X32297344Y-70506890D01*
X32234280Y-70487006D01*
X31856548Y-70367907D01*
X31856543Y-70367906D01*
X31855250Y-70367498D01*
X31853932Y-70367206D01*
X31853929Y-70367205D01*
X31766519Y-70347827D01*
X31402689Y-70267168D01*
X31401340Y-70266990D01*
X31401332Y-70266989D01*
X30944452Y-70206840D01*
X30944450Y-70206840D01*
X30943107Y-70206663D01*
X30941764Y-70206604D01*
X30941760Y-70206604D01*
X30481351Y-70186502D01*
X30480000Y-70186443D01*
X30478649Y-70186502D01*
X30018240Y-70206604D01*
X30018236Y-70206604D01*
X30016893Y-70206663D01*
X30015550Y-70206840D01*
X30015548Y-70206840D01*
X29558668Y-70266989D01*
X29558660Y-70266990D01*
X29557311Y-70267168D01*
X29193481Y-70347827D01*
X29106071Y-70367205D01*
X29106068Y-70367206D01*
X29104750Y-70367498D01*
X29103457Y-70367906D01*
X29103452Y-70367907D01*
X28725720Y-70487006D01*
X28662656Y-70506890D01*
X28234394Y-70684282D01*
X28233188Y-70684910D01*
X27824441Y-70897690D01*
X27824433Y-70897694D01*
X27823222Y-70898325D01*
X27432269Y-71147389D01*
X27064511Y-71429579D01*
X26722748Y-71742748D01*
X26409579Y-72084511D01*
X26127389Y-72452269D01*
X25878325Y-72843222D01*
X25877694Y-72844433D01*
X25877690Y-72844441D01*
X25750996Y-73087819D01*
X25664282Y-73254394D01*
X25486890Y-73682656D01*
X25347498Y-74124750D01*
X25247168Y-74577311D01*
X25246990Y-74578660D01*
X25246989Y-74578668D01*
X25196505Y-74962132D01*
X25186663Y-75036893D01*
X25186604Y-75038236D01*
X25186604Y-75038240D01*
X25172329Y-75365201D01*
X25166443Y-75500000D01*
X508500Y-75500000D01*
X508500Y-58366086D01*
X7168775Y-58366086D01*
X7170701Y-58488685D01*
X7175084Y-58767697D01*
X7219160Y-59166932D01*
X7219458Y-59168372D01*
X7219459Y-59168377D01*
X7229766Y-59218149D01*
X7300611Y-59560247D01*
X7418716Y-59944151D01*
X7572425Y-60315237D01*
X7760374Y-60670211D01*
X7761176Y-60671431D01*
X7761176Y-60671432D01*
X7808570Y-60743582D01*
X7980894Y-61005922D01*
X7981812Y-61007068D01*
X7981815Y-61007072D01*
X8231106Y-61318237D01*
X8232030Y-61319390D01*
X8233061Y-61320454D01*
X8233062Y-61320455D01*
X8453307Y-61547731D01*
X8511550Y-61607833D01*
X8512679Y-61608797D01*
X8512683Y-61608801D01*
X8621328Y-61701592D01*
X8816976Y-61868691D01*
X9145594Y-62099648D01*
X9494489Y-62298654D01*
X9703697Y-62393115D01*
X9859221Y-62463337D01*
X9859228Y-62463340D01*
X9860564Y-62463943D01*
X9861959Y-62464421D01*
X9861965Y-62464423D01*
X9937067Y-62490136D01*
X10240569Y-62594048D01*
X10242000Y-62594392D01*
X10242005Y-62594393D01*
X10629686Y-62687467D01*
X10629689Y-62687468D01*
X10631132Y-62687814D01*
X10632609Y-62688024D01*
X10632608Y-62688024D01*
X11027315Y-62744199D01*
X11027319Y-62744199D01*
X11028785Y-62744408D01*
X11430000Y-62763329D01*
X11831215Y-62744408D01*
X11832681Y-62744199D01*
X11832685Y-62744199D01*
X12227392Y-62688024D01*
X12227391Y-62688024D01*
X12228868Y-62687814D01*
X12230311Y-62687468D01*
X12230314Y-62687467D01*
X12617995Y-62594393D01*
X12618000Y-62594392D01*
X12619431Y-62594048D01*
X12922933Y-62490136D01*
X12998035Y-62464423D01*
X12998041Y-62464421D01*
X12999436Y-62463943D01*
X13000772Y-62463340D01*
X13000779Y-62463337D01*
X13156303Y-62393115D01*
X13365511Y-62298654D01*
X13714406Y-62099648D01*
X14043024Y-61868691D01*
X14238672Y-61701592D01*
X14347317Y-61608801D01*
X14347321Y-61608797D01*
X14348450Y-61607833D01*
X14406693Y-61547731D01*
X14626938Y-61320455D01*
X14626939Y-61320454D01*
X14627970Y-61319390D01*
X14628894Y-61318237D01*
X14878185Y-61007072D01*
X14878188Y-61007068D01*
X14879106Y-61005922D01*
X15051431Y-60743582D01*
X15098824Y-60671432D01*
X15098824Y-60671431D01*
X15099626Y-60670211D01*
X15287575Y-60315237D01*
X15441284Y-59944151D01*
X15559389Y-59560247D01*
X15630234Y-59218149D01*
X15640541Y-59168377D01*
X15640542Y-59168372D01*
X15640840Y-59166932D01*
X15684916Y-58767697D01*
X15693329Y-58500000D01*
X15693266Y-58498649D01*
X15687014Y-58366086D01*
X26218775Y-58366086D01*
X26220701Y-58488685D01*
X26225084Y-58767697D01*
X26269160Y-59166932D01*
X26269458Y-59168372D01*
X26269459Y-59168377D01*
X26279766Y-59218149D01*
X26350611Y-59560247D01*
X26468716Y-59944151D01*
X26622425Y-60315237D01*
X26810374Y-60670211D01*
X26811176Y-60671431D01*
X26811176Y-60671432D01*
X26858570Y-60743582D01*
X27030894Y-61005922D01*
X27031812Y-61007068D01*
X27031815Y-61007072D01*
X27281106Y-61318237D01*
X27282030Y-61319390D01*
X27283061Y-61320454D01*
X27283062Y-61320455D01*
X27503307Y-61547731D01*
X27561550Y-61607833D01*
X27562679Y-61608797D01*
X27562683Y-61608801D01*
X27671328Y-61701592D01*
X27866976Y-61868691D01*
X28195594Y-62099648D01*
X28544489Y-62298654D01*
X28753697Y-62393115D01*
X28909221Y-62463337D01*
X28909228Y-62463340D01*
X28910564Y-62463943D01*
X28911959Y-62464421D01*
X28911965Y-62464423D01*
X28987067Y-62490136D01*
X29290569Y-62594048D01*
X29292000Y-62594392D01*
X29292005Y-62594393D01*
X29679686Y-62687467D01*
X29679689Y-62687468D01*
X29681132Y-62687814D01*
X29682609Y-62688024D01*
X29682608Y-62688024D01*
X30077315Y-62744199D01*
X30077319Y-62744199D01*
X30078785Y-62744408D01*
X30480000Y-62763329D01*
X30881215Y-62744408D01*
X30882681Y-62744199D01*
X30882685Y-62744199D01*
X31277392Y-62688024D01*
X31277391Y-62688024D01*
X31278868Y-62687814D01*
X31280311Y-62687468D01*
X31280314Y-62687467D01*
X31667995Y-62594393D01*
X31668000Y-62594392D01*
X31669431Y-62594048D01*
X31972933Y-62490136D01*
X32048035Y-62464423D01*
X32048041Y-62464421D01*
X32049436Y-62463943D01*
X32050772Y-62463340D01*
X32050779Y-62463337D01*
X32206303Y-62393115D01*
X32415511Y-62298654D01*
X32764406Y-62099648D01*
X33093024Y-61868691D01*
X33288672Y-61701592D01*
X33397317Y-61608801D01*
X33397321Y-61608797D01*
X33398450Y-61607833D01*
X33456693Y-61547731D01*
X33676938Y-61320455D01*
X33676939Y-61320454D01*
X33677970Y-61319390D01*
X33678894Y-61318237D01*
X33928185Y-61007072D01*
X33928188Y-61007068D01*
X33929106Y-61005922D01*
X34101431Y-60743582D01*
X34148824Y-60671432D01*
X34148824Y-60671431D01*
X34149626Y-60670211D01*
X34337575Y-60315237D01*
X34491284Y-59944151D01*
X34609389Y-59560247D01*
X34680234Y-59218149D01*
X34690541Y-59168377D01*
X34690542Y-59168372D01*
X34690840Y-59166932D01*
X34734916Y-58767697D01*
X34743329Y-58500000D01*
X44216443Y-58500000D01*
X44216502Y-58501351D01*
X44228184Y-58768899D01*
X44236663Y-58963107D01*
X44297168Y-59422689D01*
X44397498Y-59875250D01*
X44536890Y-60317344D01*
X44714282Y-60745606D01*
X44928325Y-61156778D01*
X45177389Y-61547731D01*
X45178207Y-61548797D01*
X45440750Y-61890950D01*
X45459579Y-61915489D01*
X45772748Y-62257252D01*
X46114511Y-62570421D01*
X46115584Y-62571245D01*
X46115586Y-62571246D01*
X46303564Y-62715486D01*
X46482269Y-62852611D01*
X46873221Y-63101675D01*
X46874432Y-63102306D01*
X46874440Y-63102310D01*
X47154813Y-63248262D01*
X47284394Y-63315718D01*
X47712656Y-63493110D01*
X47713967Y-63493523D01*
X47713966Y-63493523D01*
X48153452Y-63632093D01*
X48153457Y-63632094D01*
X48154750Y-63632502D01*
X48156068Y-63632794D01*
X48156071Y-63632795D01*
X48243481Y-63652173D01*
X48607311Y-63732832D01*
X48608660Y-63733010D01*
X48608668Y-63733011D01*
X49065548Y-63793160D01*
X49065550Y-63793160D01*
X49066893Y-63793337D01*
X49068236Y-63793396D01*
X49068240Y-63793396D01*
X49528649Y-63813498D01*
X49530000Y-63813557D01*
X49531351Y-63813498D01*
X49991760Y-63793396D01*
X49991764Y-63793396D01*
X49993107Y-63793337D01*
X49994450Y-63793160D01*
X49994452Y-63793160D01*
X50451332Y-63733011D01*
X50451340Y-63733010D01*
X50452689Y-63732832D01*
X50816519Y-63652173D01*
X50903929Y-63632795D01*
X50903932Y-63632794D01*
X50905250Y-63632502D01*
X50906543Y-63632094D01*
X50906548Y-63632093D01*
X51346034Y-63493523D01*
X51346033Y-63493523D01*
X51347344Y-63493110D01*
X51775606Y-63315718D01*
X51905187Y-63248262D01*
X52185560Y-63102310D01*
X52185568Y-63102306D01*
X52186779Y-63101675D01*
X52577731Y-62852611D01*
X52756436Y-62715486D01*
X52944414Y-62571246D01*
X52944416Y-62571245D01*
X52945489Y-62570421D01*
X53287252Y-62257252D01*
X53600421Y-61915489D01*
X53619251Y-61890950D01*
X53881793Y-61548797D01*
X53882611Y-61547731D01*
X54131675Y-61156778D01*
X54345718Y-60745606D01*
X54523110Y-60317344D01*
X54662502Y-59875250D01*
X54762832Y-59422689D01*
X54823337Y-58963107D01*
X54831817Y-58768899D01*
X54843498Y-58501351D01*
X54843557Y-58500000D01*
X54837710Y-58366086D01*
X54823396Y-58038240D01*
X54823396Y-58038236D01*
X54823337Y-58036893D01*
X54814153Y-57967133D01*
X54763011Y-57578668D01*
X54763010Y-57578660D01*
X54762832Y-57577311D01*
X54682173Y-57213481D01*
X54662795Y-57126071D01*
X54662794Y-57126068D01*
X54662502Y-57124750D01*
X54566672Y-56820815D01*
X54523523Y-56683966D01*
X54523110Y-56682656D01*
X54345718Y-56254394D01*
X54153866Y-55885850D01*
X54132310Y-55844441D01*
X54132306Y-55844433D01*
X54131675Y-55843222D01*
X54112215Y-55812675D01*
X53964972Y-55581550D01*
X53882611Y-55452269D01*
X53600421Y-55084511D01*
X53287252Y-54742748D01*
X52945489Y-54429579D01*
X52827563Y-54339091D01*
X52578797Y-54148207D01*
X52577731Y-54147389D01*
X52186779Y-53898325D01*
X52185568Y-53897694D01*
X52185560Y-53897690D01*
X51776812Y-53684910D01*
X51775606Y-53684282D01*
X51347344Y-53506890D01*
X51284280Y-53487006D01*
X50906548Y-53367907D01*
X50906543Y-53367906D01*
X50905250Y-53367498D01*
X50903932Y-53367206D01*
X50903929Y-53367205D01*
X50816519Y-53347827D01*
X50452689Y-53267168D01*
X50451340Y-53266990D01*
X50451332Y-53266989D01*
X49994452Y-53206840D01*
X49994450Y-53206840D01*
X49993107Y-53206663D01*
X49991764Y-53206604D01*
X49991760Y-53206604D01*
X49531351Y-53186502D01*
X49530000Y-53186443D01*
X49528649Y-53186502D01*
X49068240Y-53206604D01*
X49068236Y-53206604D01*
X49066893Y-53206663D01*
X49065550Y-53206840D01*
X49065548Y-53206840D01*
X48608668Y-53266989D01*
X48608660Y-53266990D01*
X48607311Y-53267168D01*
X48243481Y-53347827D01*
X48156071Y-53367205D01*
X48156068Y-53367206D01*
X48154750Y-53367498D01*
X48153457Y-53367906D01*
X48153452Y-53367907D01*
X47775720Y-53487006D01*
X47712656Y-53506890D01*
X47284394Y-53684282D01*
X47283188Y-53684910D01*
X46874441Y-53897690D01*
X46874433Y-53897694D01*
X46873222Y-53898325D01*
X46482269Y-54147389D01*
X46481203Y-54148207D01*
X46232438Y-54339091D01*
X46114511Y-54429579D01*
X45772748Y-54742748D01*
X45459579Y-55084511D01*
X45177389Y-55452269D01*
X45095028Y-55581550D01*
X44947786Y-55812675D01*
X44928325Y-55843222D01*
X44927694Y-55844433D01*
X44927690Y-55844441D01*
X44906134Y-55885850D01*
X44714282Y-56254394D01*
X44536890Y-56682656D01*
X44536477Y-56683966D01*
X44493329Y-56820815D01*
X44397498Y-57124750D01*
X44397206Y-57126068D01*
X44397205Y-57126071D01*
X44377827Y-57213481D01*
X44297168Y-57577311D01*
X44296990Y-57578660D01*
X44296989Y-57578668D01*
X44245847Y-57967133D01*
X44236663Y-58036893D01*
X44236604Y-58038236D01*
X44236604Y-58038240D01*
X44234025Y-58097315D01*
X44222329Y-58365201D01*
X44216443Y-58500000D01*
X34743329Y-58500000D01*
X34743266Y-58498649D01*
X34724477Y-58100258D01*
X34724408Y-58098785D01*
X34705256Y-57964211D01*
X34668024Y-57702608D01*
X34667814Y-57701132D01*
X34638087Y-57577311D01*
X34574393Y-57312005D01*
X34574392Y-57312000D01*
X34574048Y-57310569D01*
X34443943Y-56930564D01*
X34439261Y-56920193D01*
X34331435Y-56681387D01*
X34278654Y-56564489D01*
X34079648Y-56215594D01*
X33848691Y-55886976D01*
X33587833Y-55581550D01*
X33567933Y-55562266D01*
X33300455Y-55303062D01*
X33300454Y-55303061D01*
X33299390Y-55302030D01*
X33298237Y-55301106D01*
X32987072Y-55051815D01*
X32987068Y-55051812D01*
X32985922Y-55050894D01*
X32951228Y-55028104D01*
X32651432Y-54831176D01*
X32651431Y-54831176D01*
X32650211Y-54830374D01*
X32648924Y-54829693D01*
X32648918Y-54829689D01*
X32296538Y-54643114D01*
X32295237Y-54642425D01*
X32293881Y-54641863D01*
X32293876Y-54641861D01*
X31925511Y-54489279D01*
X31925505Y-54489277D01*
X31924151Y-54488716D01*
X31540247Y-54370611D01*
X31388042Y-54339091D01*
X31148377Y-54289459D01*
X31148372Y-54289458D01*
X31146932Y-54289160D01*
X30747697Y-54245084D01*
X30573023Y-54242340D01*
X30347562Y-54238798D01*
X30347558Y-54238798D01*
X30346086Y-54238775D01*
X30213970Y-54249173D01*
X29947133Y-54270173D01*
X29947127Y-54270174D01*
X29945663Y-54270289D01*
X29944220Y-54270541D01*
X29944211Y-54270542D01*
X29551444Y-54339091D01*
X29551440Y-54339092D01*
X29549984Y-54339346D01*
X29548560Y-54339736D01*
X29548558Y-54339736D01*
X29163987Y-54444942D01*
X29163980Y-54444944D01*
X29162559Y-54445333D01*
X28786828Y-54587310D01*
X28426126Y-54764016D01*
X28424875Y-54764783D01*
X28424867Y-54764787D01*
X28084918Y-54973108D01*
X28084912Y-54973112D01*
X28083654Y-54973883D01*
X27762452Y-55215049D01*
X27761359Y-55216043D01*
X27761356Y-55216046D01*
X27502921Y-55451203D01*
X27465371Y-55485371D01*
X27464381Y-55486459D01*
X27211389Y-55764495D01*
X27195049Y-55782452D01*
X26953883Y-56103654D01*
X26953112Y-56104912D01*
X26953108Y-56104918D01*
X26744787Y-56444867D01*
X26744783Y-56444875D01*
X26744016Y-56446126D01*
X26567310Y-56806828D01*
X26425333Y-57182559D01*
X26424944Y-57183980D01*
X26424942Y-57183987D01*
X26350699Y-57455376D01*
X26319346Y-57569984D01*
X26250289Y-57965663D01*
X26218775Y-58366086D01*
X15687014Y-58366086D01*
X15674477Y-58100258D01*
X15674408Y-58098785D01*
X15655256Y-57964211D01*
X15618024Y-57702608D01*
X15617814Y-57701132D01*
X15588087Y-57577311D01*
X15524393Y-57312005D01*
X15524392Y-57312000D01*
X15524048Y-57310569D01*
X15393943Y-56930564D01*
X15389261Y-56920193D01*
X15281435Y-56681387D01*
X15228654Y-56564489D01*
X15029648Y-56215594D01*
X14798691Y-55886976D01*
X14537833Y-55581550D01*
X14517933Y-55562266D01*
X14250455Y-55303062D01*
X14250454Y-55303061D01*
X14249390Y-55302030D01*
X14248237Y-55301106D01*
X13937072Y-55051815D01*
X13937068Y-55051812D01*
X13935922Y-55050894D01*
X13901228Y-55028104D01*
X13601432Y-54831176D01*
X13601431Y-54831176D01*
X13600211Y-54830374D01*
X13598924Y-54829693D01*
X13598918Y-54829689D01*
X13246538Y-54643114D01*
X13245237Y-54642425D01*
X13243881Y-54641863D01*
X13243876Y-54641861D01*
X12875511Y-54489279D01*
X12875505Y-54489277D01*
X12874151Y-54488716D01*
X12490247Y-54370611D01*
X12338042Y-54339091D01*
X12098377Y-54289459D01*
X12098372Y-54289458D01*
X12096932Y-54289160D01*
X11697697Y-54245084D01*
X11523023Y-54242340D01*
X11297562Y-54238798D01*
X11297558Y-54238798D01*
X11296086Y-54238775D01*
X11163970Y-54249173D01*
X10897133Y-54270173D01*
X10897127Y-54270174D01*
X10895663Y-54270289D01*
X10894220Y-54270541D01*
X10894211Y-54270542D01*
X10501444Y-54339091D01*
X10501440Y-54339092D01*
X10499984Y-54339346D01*
X10498560Y-54339736D01*
X10498558Y-54339736D01*
X10113987Y-54444942D01*
X10113980Y-54444944D01*
X10112559Y-54445333D01*
X9736828Y-54587310D01*
X9376126Y-54764016D01*
X9374875Y-54764783D01*
X9374867Y-54764787D01*
X9034918Y-54973108D01*
X9034912Y-54973112D01*
X9033654Y-54973883D01*
X8712452Y-55215049D01*
X8711359Y-55216043D01*
X8711356Y-55216046D01*
X8452921Y-55451203D01*
X8415371Y-55485371D01*
X8414381Y-55486459D01*
X8161389Y-55764495D01*
X8145049Y-55782452D01*
X7903883Y-56103654D01*
X7903112Y-56104912D01*
X7903108Y-56104918D01*
X7694787Y-56444867D01*
X7694783Y-56444875D01*
X7694016Y-56446126D01*
X7517310Y-56806828D01*
X7375333Y-57182559D01*
X7374944Y-57183980D01*
X7374942Y-57183987D01*
X7300699Y-57455376D01*
X7269346Y-57569984D01*
X7200289Y-57965663D01*
X7168775Y-58366086D01*
X508500Y-58366086D01*
X508500Y-49478393D01*
X47466803Y-49478393D01*
X47466925Y-49480506D01*
X47467210Y-49485458D01*
X47470611Y-49544431D01*
X47482960Y-49758601D01*
X47536996Y-50034024D01*
X47627911Y-50299565D01*
X47628860Y-50301452D01*
X47628863Y-50301459D01*
X47714141Y-50471015D01*
X47754022Y-50550310D01*
X47912997Y-50781620D01*
X47914428Y-50783192D01*
X47914433Y-50783199D01*
X48100462Y-50987642D01*
X48100467Y-50987647D01*
X48101894Y-50989215D01*
X48317217Y-51169253D01*
X48554981Y-51318402D01*
X48810788Y-51433903D01*
X48883833Y-51455540D01*
X49077863Y-51513015D01*
X49077867Y-51513016D01*
X49079903Y-51513619D01*
X49357347Y-51556074D01*
X49502779Y-51558358D01*
X49635858Y-51560449D01*
X49635864Y-51560449D01*
X49637985Y-51560482D01*
X49916626Y-51526763D01*
X49918683Y-51526223D01*
X49918685Y-51526223D01*
X50052369Y-51491151D01*
X50188112Y-51455540D01*
X50447420Y-51348131D01*
X50689752Y-51206524D01*
X50910624Y-51033338D01*
X50954907Y-50987642D01*
X51104467Y-50833307D01*
X51105948Y-50831779D01*
X51272110Y-50605577D01*
X51406036Y-50358916D01*
X51505247Y-50096362D01*
X51567907Y-49822773D01*
X51592857Y-49543211D01*
X51593310Y-49500000D01*
X51574220Y-49219977D01*
X51569790Y-49198585D01*
X51517735Y-48947219D01*
X51517733Y-48947213D01*
X51517303Y-48945135D01*
X51510685Y-48926445D01*
X51450283Y-48755877D01*
X51423612Y-48680561D01*
X51294882Y-48431150D01*
X51283254Y-48414604D01*
X51134712Y-48203251D01*
X51134710Y-48203248D01*
X51133493Y-48201517D01*
X50942433Y-47995912D01*
X50940788Y-47994565D01*
X50940782Y-47994560D01*
X50817111Y-47893337D01*
X50725237Y-47818139D01*
X50485923Y-47671487D01*
X50228921Y-47558671D01*
X49958986Y-47481778D01*
X49681113Y-47442231D01*
X49550867Y-47441549D01*
X49402581Y-47440772D01*
X49402578Y-47440772D01*
X49400444Y-47440761D01*
X49398326Y-47441040D01*
X49398324Y-47441040D01*
X49261308Y-47459079D01*
X49122172Y-47477397D01*
X49120117Y-47477959D01*
X49120113Y-47477960D01*
X48853502Y-47550896D01*
X48853495Y-47550899D01*
X48851446Y-47551459D01*
X48849491Y-47552293D01*
X48849485Y-47552295D01*
X48699439Y-47616295D01*
X48593277Y-47661577D01*
X48352441Y-47805715D01*
X48350781Y-47807045D01*
X48350778Y-47807047D01*
X48135053Y-47979875D01*
X48135047Y-47979880D01*
X48133395Y-47981204D01*
X47940192Y-48184797D01*
X47776408Y-48412727D01*
X47775415Y-48414602D01*
X47775414Y-48414604D01*
X47765655Y-48433036D01*
X47645073Y-48660776D01*
X47548616Y-48924355D01*
X47548161Y-48926441D01*
X47548160Y-48926445D01*
X47489278Y-49196506D01*
X47488825Y-49198585D01*
X47466803Y-49478393D01*
X508500Y-49478393D01*
X508500Y-35366086D01*
X7168775Y-35366086D01*
X7170701Y-35488685D01*
X7175084Y-35767697D01*
X7219160Y-36166932D01*
X7219458Y-36168372D01*
X7219459Y-36168377D01*
X7229766Y-36218149D01*
X7300611Y-36560247D01*
X7418716Y-36944151D01*
X7572425Y-37315237D01*
X7760374Y-37670211D01*
X7761176Y-37671431D01*
X7761176Y-37671432D01*
X7808570Y-37743582D01*
X7980894Y-38005922D01*
X7981812Y-38007068D01*
X7981815Y-38007072D01*
X8231106Y-38318237D01*
X8232030Y-38319390D01*
X8511550Y-38607833D01*
X8512679Y-38608797D01*
X8512683Y-38608801D01*
X8621328Y-38701592D01*
X8816976Y-38868691D01*
X9145594Y-39099648D01*
X9494489Y-39298654D01*
X9703697Y-39393115D01*
X9859221Y-39463337D01*
X9859228Y-39463340D01*
X9860564Y-39463943D01*
X9861959Y-39464421D01*
X9861965Y-39464423D01*
X10043115Y-39526444D01*
X10240569Y-39594048D01*
X10242000Y-39594392D01*
X10242005Y-39594393D01*
X10629686Y-39687467D01*
X10629689Y-39687468D01*
X10631132Y-39687814D01*
X10632609Y-39688024D01*
X10632608Y-39688024D01*
X11027315Y-39744199D01*
X11027319Y-39744199D01*
X11028785Y-39744408D01*
X11430000Y-39763329D01*
X11831215Y-39744408D01*
X11832681Y-39744199D01*
X11832685Y-39744199D01*
X12227392Y-39688024D01*
X12227391Y-39688024D01*
X12228868Y-39687814D01*
X12230311Y-39687468D01*
X12230314Y-39687467D01*
X12617995Y-39594393D01*
X12618000Y-39594392D01*
X12619431Y-39594048D01*
X12816885Y-39526444D01*
X12998035Y-39464423D01*
X12998041Y-39464421D01*
X12999436Y-39463943D01*
X13000772Y-39463340D01*
X13000779Y-39463337D01*
X13156303Y-39393115D01*
X13365511Y-39298654D01*
X13714406Y-39099648D01*
X14043024Y-38868691D01*
X14238672Y-38701592D01*
X14347317Y-38608801D01*
X14347321Y-38608797D01*
X14348450Y-38607833D01*
X14627970Y-38319390D01*
X14628894Y-38318237D01*
X14878185Y-38007072D01*
X14878188Y-38007068D01*
X14879106Y-38005922D01*
X15051431Y-37743582D01*
X15098824Y-37671432D01*
X15098824Y-37671431D01*
X15099626Y-37670211D01*
X15287575Y-37315237D01*
X15441284Y-36944151D01*
X15559389Y-36560247D01*
X15630234Y-36218149D01*
X15640541Y-36168377D01*
X15640542Y-36168372D01*
X15640840Y-36166932D01*
X15684916Y-35767697D01*
X15693329Y-35500000D01*
X15692796Y-35488685D01*
X15687014Y-35366086D01*
X26218775Y-35366086D01*
X26220701Y-35488685D01*
X26225084Y-35767697D01*
X26269160Y-36166932D01*
X26269458Y-36168372D01*
X26269459Y-36168377D01*
X26279766Y-36218149D01*
X26350611Y-36560247D01*
X26468716Y-36944151D01*
X26622425Y-37315237D01*
X26810374Y-37670211D01*
X26811176Y-37671431D01*
X26811176Y-37671432D01*
X26858570Y-37743582D01*
X27030894Y-38005922D01*
X27031812Y-38007068D01*
X27031815Y-38007072D01*
X27281106Y-38318237D01*
X27282030Y-38319390D01*
X27561550Y-38607833D01*
X27562679Y-38608797D01*
X27562683Y-38608801D01*
X27671328Y-38701592D01*
X27866976Y-38868691D01*
X28195594Y-39099648D01*
X28544489Y-39298654D01*
X28753697Y-39393115D01*
X28909221Y-39463337D01*
X28909228Y-39463340D01*
X28910564Y-39463943D01*
X28911959Y-39464421D01*
X28911965Y-39464423D01*
X29093115Y-39526444D01*
X29290569Y-39594048D01*
X29292000Y-39594392D01*
X29292005Y-39594393D01*
X29679686Y-39687467D01*
X29679689Y-39687468D01*
X29681132Y-39687814D01*
X29682609Y-39688024D01*
X29682608Y-39688024D01*
X30077315Y-39744199D01*
X30077319Y-39744199D01*
X30078785Y-39744408D01*
X30480000Y-39763329D01*
X30881215Y-39744408D01*
X30882681Y-39744199D01*
X30882685Y-39744199D01*
X31277392Y-39688024D01*
X31277391Y-39688024D01*
X31278868Y-39687814D01*
X31280311Y-39687468D01*
X31280314Y-39687467D01*
X31667995Y-39594393D01*
X31668000Y-39594392D01*
X31669431Y-39594048D01*
X31866885Y-39526444D01*
X32048035Y-39464423D01*
X32048041Y-39464421D01*
X32049436Y-39463943D01*
X32050772Y-39463340D01*
X32050779Y-39463337D01*
X32206303Y-39393115D01*
X32415511Y-39298654D01*
X32764406Y-39099648D01*
X33093024Y-38868691D01*
X33288672Y-38701592D01*
X33397317Y-38608801D01*
X33397321Y-38608797D01*
X33398450Y-38607833D01*
X33677970Y-38319390D01*
X33678894Y-38318237D01*
X33928185Y-38007072D01*
X33928188Y-38007068D01*
X33929106Y-38005922D01*
X34101431Y-37743582D01*
X34148824Y-37671432D01*
X34148824Y-37671431D01*
X34149626Y-37670211D01*
X34337575Y-37315237D01*
X34491284Y-36944151D01*
X34609389Y-36560247D01*
X34680234Y-36218149D01*
X34690541Y-36168377D01*
X34690542Y-36168372D01*
X34690840Y-36166932D01*
X34734916Y-35767697D01*
X34743329Y-35500000D01*
X34742796Y-35488685D01*
X34724477Y-35100258D01*
X34724408Y-35098785D01*
X34705256Y-34964211D01*
X34668024Y-34702608D01*
X34667814Y-34701132D01*
X34574048Y-34310569D01*
X34443943Y-33930564D01*
X34394390Y-33820815D01*
X34373115Y-33773697D01*
X34278654Y-33564489D01*
X34079648Y-33215594D01*
X33848691Y-32886976D01*
X33587833Y-32581550D01*
X33586765Y-32580515D01*
X33300455Y-32303062D01*
X33300454Y-32303061D01*
X33299390Y-32302030D01*
X33298237Y-32301106D01*
X32987072Y-32051815D01*
X32987068Y-32051812D01*
X32985922Y-32050894D01*
X32870042Y-31974775D01*
X32651432Y-31831176D01*
X32651431Y-31831176D01*
X32650211Y-31830374D01*
X32648924Y-31829693D01*
X32648918Y-31829689D01*
X32296538Y-31643114D01*
X32295237Y-31642425D01*
X32293881Y-31641863D01*
X32293876Y-31641861D01*
X31925511Y-31489279D01*
X31925505Y-31489277D01*
X31924151Y-31488716D01*
X31540247Y-31370611D01*
X31388042Y-31339091D01*
X31148377Y-31289459D01*
X31148372Y-31289458D01*
X31146932Y-31289160D01*
X30747697Y-31245084D01*
X30587192Y-31242563D01*
X30347562Y-31238798D01*
X30347558Y-31238798D01*
X30346086Y-31238775D01*
X30213970Y-31249173D01*
X29947133Y-31270173D01*
X29947127Y-31270174D01*
X29945663Y-31270289D01*
X29944220Y-31270541D01*
X29944211Y-31270542D01*
X29551444Y-31339091D01*
X29551440Y-31339092D01*
X29549984Y-31339346D01*
X29548560Y-31339736D01*
X29548558Y-31339736D01*
X29163987Y-31444942D01*
X29163980Y-31444944D01*
X29162559Y-31445333D01*
X28786828Y-31587310D01*
X28426126Y-31764016D01*
X28424875Y-31764783D01*
X28424867Y-31764787D01*
X28084918Y-31973108D01*
X28084912Y-31973112D01*
X28083654Y-31973883D01*
X27762452Y-32215049D01*
X27761359Y-32216043D01*
X27761356Y-32216046D01*
X27466976Y-32483911D01*
X27465371Y-32485371D01*
X27195049Y-32782452D01*
X26953883Y-33103654D01*
X26953112Y-33104912D01*
X26953108Y-33104918D01*
X26744787Y-33444867D01*
X26744783Y-33444875D01*
X26744016Y-33446126D01*
X26567310Y-33806828D01*
X26425333Y-34182559D01*
X26424944Y-34183980D01*
X26424942Y-34183987D01*
X26350699Y-34455376D01*
X26319346Y-34569984D01*
X26250289Y-34965663D01*
X26218775Y-35366086D01*
X15687014Y-35366086D01*
X15674477Y-35100258D01*
X15674408Y-35098785D01*
X15655256Y-34964211D01*
X15618024Y-34702608D01*
X15617814Y-34701132D01*
X15524048Y-34310569D01*
X15393943Y-33930564D01*
X15344390Y-33820815D01*
X15323115Y-33773697D01*
X15228654Y-33564489D01*
X15029648Y-33215594D01*
X14798691Y-32886976D01*
X14537833Y-32581550D01*
X14536765Y-32580515D01*
X14250455Y-32303062D01*
X14250454Y-32303061D01*
X14249390Y-32302030D01*
X14248237Y-32301106D01*
X13937072Y-32051815D01*
X13937068Y-32051812D01*
X13935922Y-32050894D01*
X13820042Y-31974775D01*
X13601432Y-31831176D01*
X13601431Y-31831176D01*
X13600211Y-31830374D01*
X13598924Y-31829693D01*
X13598918Y-31829689D01*
X13246538Y-31643114D01*
X13245237Y-31642425D01*
X13243881Y-31641863D01*
X13243876Y-31641861D01*
X12875511Y-31489279D01*
X12875505Y-31489277D01*
X12874151Y-31488716D01*
X12490247Y-31370611D01*
X12338042Y-31339091D01*
X12098377Y-31289459D01*
X12098372Y-31289458D01*
X12096932Y-31289160D01*
X11697697Y-31245084D01*
X11537192Y-31242563D01*
X11297562Y-31238798D01*
X11297558Y-31238798D01*
X11296086Y-31238775D01*
X11163970Y-31249173D01*
X10897133Y-31270173D01*
X10897127Y-31270174D01*
X10895663Y-31270289D01*
X10894220Y-31270541D01*
X10894211Y-31270542D01*
X10501444Y-31339091D01*
X10501440Y-31339092D01*
X10499984Y-31339346D01*
X10498560Y-31339736D01*
X10498558Y-31339736D01*
X10113987Y-31444942D01*
X10113980Y-31444944D01*
X10112559Y-31445333D01*
X9736828Y-31587310D01*
X9376126Y-31764016D01*
X9374875Y-31764783D01*
X9374867Y-31764787D01*
X9034918Y-31973108D01*
X9034912Y-31973112D01*
X9033654Y-31973883D01*
X8712452Y-32215049D01*
X8711359Y-32216043D01*
X8711356Y-32216046D01*
X8416976Y-32483911D01*
X8415371Y-32485371D01*
X8145049Y-32782452D01*
X7903883Y-33103654D01*
X7903112Y-33104912D01*
X7903108Y-33104918D01*
X7694787Y-33444867D01*
X7694783Y-33444875D01*
X7694016Y-33446126D01*
X7517310Y-33806828D01*
X7375333Y-34182559D01*
X7374944Y-34183980D01*
X7374942Y-34183987D01*
X7300699Y-34455376D01*
X7269346Y-34569984D01*
X7200289Y-34965663D01*
X7168775Y-35366086D01*
X508500Y-35366086D01*
X508500Y-17366086D01*
X7168775Y-17366086D01*
X7170701Y-17488685D01*
X7175084Y-17767697D01*
X7219160Y-18166932D01*
X7219458Y-18168372D01*
X7219459Y-18168377D01*
X7229766Y-18218149D01*
X7300611Y-18560247D01*
X7418716Y-18944151D01*
X7572425Y-19315237D01*
X7760374Y-19670211D01*
X7761176Y-19671431D01*
X7761176Y-19671432D01*
X7808570Y-19743582D01*
X7980894Y-20005922D01*
X7981812Y-20007068D01*
X7981815Y-20007072D01*
X8231106Y-20318237D01*
X8232030Y-20319390D01*
X8511550Y-20607833D01*
X8512679Y-20608797D01*
X8512683Y-20608801D01*
X8621328Y-20701592D01*
X8816976Y-20868691D01*
X9145594Y-21099648D01*
X9494489Y-21298654D01*
X9703697Y-21393115D01*
X9859221Y-21463337D01*
X9859228Y-21463340D01*
X9860564Y-21463943D01*
X9861959Y-21464421D01*
X9861965Y-21464423D01*
X10043115Y-21526444D01*
X10240569Y-21594048D01*
X10242000Y-21594392D01*
X10242005Y-21594393D01*
X10629686Y-21687467D01*
X10629689Y-21687468D01*
X10631132Y-21687814D01*
X10632609Y-21688024D01*
X10632608Y-21688024D01*
X11027315Y-21744199D01*
X11027319Y-21744199D01*
X11028785Y-21744408D01*
X11430000Y-21763329D01*
X11831215Y-21744408D01*
X11832681Y-21744199D01*
X11832685Y-21744199D01*
X12227392Y-21688024D01*
X12227391Y-21688024D01*
X12228868Y-21687814D01*
X12230311Y-21687468D01*
X12230314Y-21687467D01*
X12617995Y-21594393D01*
X12618000Y-21594392D01*
X12619431Y-21594048D01*
X12816885Y-21526444D01*
X12998035Y-21464423D01*
X12998041Y-21464421D01*
X12999436Y-21463943D01*
X13000772Y-21463340D01*
X13000779Y-21463337D01*
X13156303Y-21393115D01*
X13365511Y-21298654D01*
X13714406Y-21099648D01*
X14043024Y-20868691D01*
X14238672Y-20701592D01*
X14347317Y-20608801D01*
X14347321Y-20608797D01*
X14348450Y-20607833D01*
X14627970Y-20319390D01*
X14628894Y-20318237D01*
X14878185Y-20007072D01*
X14878188Y-20007068D01*
X14879106Y-20005922D01*
X15051431Y-19743582D01*
X15098824Y-19671432D01*
X15098824Y-19671431D01*
X15099626Y-19670211D01*
X15287575Y-19315237D01*
X15441284Y-18944151D01*
X15559389Y-18560247D01*
X15630234Y-18218149D01*
X15640541Y-18168377D01*
X15640542Y-18168372D01*
X15640840Y-18166932D01*
X15684916Y-17767697D01*
X15693329Y-17500000D01*
X15692796Y-17488685D01*
X15687014Y-17366086D01*
X26218775Y-17366086D01*
X26220701Y-17488685D01*
X26225084Y-17767697D01*
X26269160Y-18166932D01*
X26269458Y-18168372D01*
X26269459Y-18168377D01*
X26279766Y-18218149D01*
X26350611Y-18560247D01*
X26468716Y-18944151D01*
X26622425Y-19315237D01*
X26810374Y-19670211D01*
X26811176Y-19671431D01*
X26811176Y-19671432D01*
X26858570Y-19743582D01*
X27030894Y-20005922D01*
X27031812Y-20007068D01*
X27031815Y-20007072D01*
X27281106Y-20318237D01*
X27282030Y-20319390D01*
X27561550Y-20607833D01*
X27562679Y-20608797D01*
X27562683Y-20608801D01*
X27671328Y-20701592D01*
X27866976Y-20868691D01*
X28195594Y-21099648D01*
X28544489Y-21298654D01*
X28753697Y-21393115D01*
X28909221Y-21463337D01*
X28909228Y-21463340D01*
X28910564Y-21463943D01*
X28911959Y-21464421D01*
X28911965Y-21464423D01*
X29093115Y-21526444D01*
X29290569Y-21594048D01*
X29292000Y-21594392D01*
X29292005Y-21594393D01*
X29679686Y-21687467D01*
X29679689Y-21687468D01*
X29681132Y-21687814D01*
X29682609Y-21688024D01*
X29682608Y-21688024D01*
X30077315Y-21744199D01*
X30077319Y-21744199D01*
X30078785Y-21744408D01*
X30480000Y-21763329D01*
X30881215Y-21744408D01*
X30882681Y-21744199D01*
X30882685Y-21744199D01*
X31277392Y-21688024D01*
X31277391Y-21688024D01*
X31278868Y-21687814D01*
X31280311Y-21687468D01*
X31280314Y-21687467D01*
X31667995Y-21594393D01*
X31668000Y-21594392D01*
X31669431Y-21594048D01*
X31866885Y-21526444D01*
X32048035Y-21464423D01*
X32048041Y-21464421D01*
X32049436Y-21463943D01*
X32050772Y-21463340D01*
X32050779Y-21463337D01*
X32206303Y-21393115D01*
X32415511Y-21298654D01*
X32764406Y-21099648D01*
X33093024Y-20868691D01*
X33288672Y-20701592D01*
X33397317Y-20608801D01*
X33397321Y-20608797D01*
X33398450Y-20607833D01*
X33677970Y-20319390D01*
X33678894Y-20318237D01*
X33928185Y-20007072D01*
X33928188Y-20007068D01*
X33929106Y-20005922D01*
X34101431Y-19743582D01*
X34148824Y-19671432D01*
X34148824Y-19671431D01*
X34149626Y-19670211D01*
X34337575Y-19315237D01*
X34491284Y-18944151D01*
X34609389Y-18560247D01*
X34680234Y-18218149D01*
X34690541Y-18168377D01*
X34690542Y-18168372D01*
X34690840Y-18166932D01*
X34734916Y-17767697D01*
X34743329Y-17500000D01*
X34742796Y-17488685D01*
X34737014Y-17366086D01*
X45268775Y-17366086D01*
X45270701Y-17488685D01*
X45275084Y-17767697D01*
X45319160Y-18166932D01*
X45319458Y-18168372D01*
X45319459Y-18168377D01*
X45329766Y-18218149D01*
X45400611Y-18560247D01*
X45518716Y-18944151D01*
X45672425Y-19315237D01*
X45860374Y-19670211D01*
X45861176Y-19671431D01*
X45861176Y-19671432D01*
X45908570Y-19743582D01*
X46080894Y-20005922D01*
X46081812Y-20007068D01*
X46081815Y-20007072D01*
X46331106Y-20318237D01*
X46332030Y-20319390D01*
X46611550Y-20607833D01*
X46612679Y-20608797D01*
X46612683Y-20608801D01*
X46721328Y-20701592D01*
X46916976Y-20868691D01*
X47245594Y-21099648D01*
X47594489Y-21298654D01*
X47803697Y-21393115D01*
X47959221Y-21463337D01*
X47959228Y-21463340D01*
X47960564Y-21463943D01*
X47961959Y-21464421D01*
X47961965Y-21464423D01*
X48143115Y-21526444D01*
X48340569Y-21594048D01*
X48342000Y-21594392D01*
X48342005Y-21594393D01*
X48729686Y-21687467D01*
X48729689Y-21687468D01*
X48731132Y-21687814D01*
X48732609Y-21688024D01*
X48732608Y-21688024D01*
X49127315Y-21744199D01*
X49127319Y-21744199D01*
X49128785Y-21744408D01*
X49530000Y-21763329D01*
X49931215Y-21744408D01*
X49932681Y-21744199D01*
X49932685Y-21744199D01*
X50327392Y-21688024D01*
X50327391Y-21688024D01*
X50328868Y-21687814D01*
X50330311Y-21687468D01*
X50330314Y-21687467D01*
X50717995Y-21594393D01*
X50718000Y-21594392D01*
X50719431Y-21594048D01*
X50916885Y-21526444D01*
X51098035Y-21464423D01*
X51098041Y-21464421D01*
X51099436Y-21463943D01*
X51100772Y-21463340D01*
X51100779Y-21463337D01*
X51256303Y-21393115D01*
X51465511Y-21298654D01*
X51814406Y-21099648D01*
X52143024Y-20868691D01*
X52338672Y-20701592D01*
X52447317Y-20608801D01*
X52447321Y-20608797D01*
X52448450Y-20607833D01*
X52727970Y-20319390D01*
X52728894Y-20318237D01*
X52978185Y-20007072D01*
X52978188Y-20007068D01*
X52979106Y-20005922D01*
X53151431Y-19743582D01*
X53198824Y-19671432D01*
X53198824Y-19671431D01*
X53199626Y-19670211D01*
X53387575Y-19315237D01*
X53541284Y-18944151D01*
X53659389Y-18560247D01*
X53730234Y-18218149D01*
X53740541Y-18168377D01*
X53740542Y-18168372D01*
X53740840Y-18166932D01*
X53784916Y-17767697D01*
X53793329Y-17500000D01*
X53792796Y-17488685D01*
X53774477Y-17100258D01*
X53774408Y-17098785D01*
X53755256Y-16964211D01*
X53718024Y-16702608D01*
X53717814Y-16701132D01*
X53624048Y-16310569D01*
X53493943Y-15930564D01*
X53444390Y-15820815D01*
X53423115Y-15773697D01*
X53328654Y-15564489D01*
X53129648Y-15215594D01*
X52898691Y-14886976D01*
X52637833Y-14581550D01*
X52636765Y-14580515D01*
X52350455Y-14303062D01*
X52350454Y-14303061D01*
X52349390Y-14302030D01*
X52348237Y-14301106D01*
X52037072Y-14051815D01*
X52037068Y-14051812D01*
X52035922Y-14050894D01*
X51920042Y-13974775D01*
X51701432Y-13831176D01*
X51701431Y-13831176D01*
X51700211Y-13830374D01*
X51698924Y-13829693D01*
X51698918Y-13829689D01*
X51346538Y-13643114D01*
X51345237Y-13642425D01*
X51343881Y-13641863D01*
X51343876Y-13641861D01*
X50975511Y-13489279D01*
X50975505Y-13489277D01*
X50974151Y-13488716D01*
X50590247Y-13370611D01*
X50438042Y-13339091D01*
X50198377Y-13289459D01*
X50198372Y-13289458D01*
X50196932Y-13289160D01*
X49797697Y-13245084D01*
X49637192Y-13242563D01*
X49397562Y-13238798D01*
X49397558Y-13238798D01*
X49396086Y-13238775D01*
X49263970Y-13249173D01*
X48997133Y-13270173D01*
X48997127Y-13270174D01*
X48995663Y-13270289D01*
X48994220Y-13270541D01*
X48994211Y-13270542D01*
X48601444Y-13339091D01*
X48601440Y-13339092D01*
X48599984Y-13339346D01*
X48598560Y-13339736D01*
X48598558Y-13339736D01*
X48213987Y-13444942D01*
X48213980Y-13444944D01*
X48212559Y-13445333D01*
X47836828Y-13587310D01*
X47476126Y-13764016D01*
X47474875Y-13764783D01*
X47474867Y-13764787D01*
X47134918Y-13973108D01*
X47134912Y-13973112D01*
X47133654Y-13973883D01*
X46812452Y-14215049D01*
X46811359Y-14216043D01*
X46811356Y-14216046D01*
X46516976Y-14483911D01*
X46515371Y-14485371D01*
X46245049Y-14782452D01*
X46003883Y-15103654D01*
X46003112Y-15104912D01*
X46003108Y-15104918D01*
X45794787Y-15444867D01*
X45794783Y-15444875D01*
X45794016Y-15446126D01*
X45617310Y-15806828D01*
X45475333Y-16182559D01*
X45474944Y-16183980D01*
X45474942Y-16183987D01*
X45400699Y-16455376D01*
X45369346Y-16569984D01*
X45300289Y-16965663D01*
X45268775Y-17366086D01*
X34737014Y-17366086D01*
X34724477Y-17100258D01*
X34724408Y-17098785D01*
X34705256Y-16964211D01*
X34668024Y-16702608D01*
X34667814Y-16701132D01*
X34574048Y-16310569D01*
X34443943Y-15930564D01*
X34394390Y-15820815D01*
X34373115Y-15773697D01*
X34278654Y-15564489D01*
X34079648Y-15215594D01*
X33848691Y-14886976D01*
X33587833Y-14581550D01*
X33586765Y-14580515D01*
X33300455Y-14303062D01*
X33300454Y-14303061D01*
X33299390Y-14302030D01*
X33298237Y-14301106D01*
X32987072Y-14051815D01*
X32987068Y-14051812D01*
X32985922Y-14050894D01*
X32870042Y-13974775D01*
X32651432Y-13831176D01*
X32651431Y-13831176D01*
X32650211Y-13830374D01*
X32648924Y-13829693D01*
X32648918Y-13829689D01*
X32296538Y-13643114D01*
X32295237Y-13642425D01*
X32293881Y-13641863D01*
X32293876Y-13641861D01*
X31925511Y-13489279D01*
X31925505Y-13489277D01*
X31924151Y-13488716D01*
X31540247Y-13370611D01*
X31388042Y-13339091D01*
X31148377Y-13289459D01*
X31148372Y-13289458D01*
X31146932Y-13289160D01*
X30747697Y-13245084D01*
X30587192Y-13242563D01*
X30347562Y-13238798D01*
X30347558Y-13238798D01*
X30346086Y-13238775D01*
X30213970Y-13249173D01*
X29947133Y-13270173D01*
X29947127Y-13270174D01*
X29945663Y-13270289D01*
X29944220Y-13270541D01*
X29944211Y-13270542D01*
X29551444Y-13339091D01*
X29551440Y-13339092D01*
X29549984Y-13339346D01*
X29548560Y-13339736D01*
X29548558Y-13339736D01*
X29163987Y-13444942D01*
X29163980Y-13444944D01*
X29162559Y-13445333D01*
X28786828Y-13587310D01*
X28426126Y-13764016D01*
X28424875Y-13764783D01*
X28424867Y-13764787D01*
X28084918Y-13973108D01*
X28084912Y-13973112D01*
X28083654Y-13973883D01*
X27762452Y-14215049D01*
X27761359Y-14216043D01*
X27761356Y-14216046D01*
X27466976Y-14483911D01*
X27465371Y-14485371D01*
X27195049Y-14782452D01*
X26953883Y-15103654D01*
X26953112Y-15104912D01*
X26953108Y-15104918D01*
X26744787Y-15444867D01*
X26744783Y-15444875D01*
X26744016Y-15446126D01*
X26567310Y-15806828D01*
X26425333Y-16182559D01*
X26424944Y-16183980D01*
X26424942Y-16183987D01*
X26350699Y-16455376D01*
X26319346Y-16569984D01*
X26250289Y-16965663D01*
X26218775Y-17366086D01*
X15687014Y-17366086D01*
X15674477Y-17100258D01*
X15674408Y-17098785D01*
X15655256Y-16964211D01*
X15618024Y-16702608D01*
X15617814Y-16701132D01*
X15524048Y-16310569D01*
X15393943Y-15930564D01*
X15344390Y-15820815D01*
X15323115Y-15773697D01*
X15228654Y-15564489D01*
X15029648Y-15215594D01*
X14798691Y-14886976D01*
X14537833Y-14581550D01*
X14536765Y-14580515D01*
X14250455Y-14303062D01*
X14250454Y-14303061D01*
X14249390Y-14302030D01*
X14248237Y-14301106D01*
X13937072Y-14051815D01*
X13937068Y-14051812D01*
X13935922Y-14050894D01*
X13820042Y-13974775D01*
X13601432Y-13831176D01*
X13601431Y-13831176D01*
X13600211Y-13830374D01*
X13598924Y-13829693D01*
X13598918Y-13829689D01*
X13246538Y-13643114D01*
X13245237Y-13642425D01*
X13243881Y-13641863D01*
X13243876Y-13641861D01*
X12875511Y-13489279D01*
X12875505Y-13489277D01*
X12874151Y-13488716D01*
X12490247Y-13370611D01*
X12338042Y-13339091D01*
X12098377Y-13289459D01*
X12098372Y-13289458D01*
X12096932Y-13289160D01*
X11697697Y-13245084D01*
X11537192Y-13242563D01*
X11297562Y-13238798D01*
X11297558Y-13238798D01*
X11296086Y-13238775D01*
X11163970Y-13249173D01*
X10897133Y-13270173D01*
X10897127Y-13270174D01*
X10895663Y-13270289D01*
X10894220Y-13270541D01*
X10894211Y-13270542D01*
X10501444Y-13339091D01*
X10501440Y-13339092D01*
X10499984Y-13339346D01*
X10498560Y-13339736D01*
X10498558Y-13339736D01*
X10113987Y-13444942D01*
X10113980Y-13444944D01*
X10112559Y-13445333D01*
X9736828Y-13587310D01*
X9376126Y-13764016D01*
X9374875Y-13764783D01*
X9374867Y-13764787D01*
X9034918Y-13973108D01*
X9034912Y-13973112D01*
X9033654Y-13973883D01*
X8712452Y-14215049D01*
X8711359Y-14216043D01*
X8711356Y-14216046D01*
X8416976Y-14483911D01*
X8415371Y-14485371D01*
X8145049Y-14782452D01*
X7903883Y-15103654D01*
X7903112Y-15104912D01*
X7903108Y-15104918D01*
X7694787Y-15444867D01*
X7694783Y-15444875D01*
X7694016Y-15446126D01*
X7517310Y-15806828D01*
X7375333Y-16182559D01*
X7374944Y-16183980D01*
X7374942Y-16183987D01*
X7300699Y-16455376D01*
X7269346Y-16569984D01*
X7200289Y-16965663D01*
X7168775Y-17366086D01*
X508500Y-17366086D01*
X508500Y-571000D01*
X526806Y-526806D01*
X571000Y-508500D01*
X4788849Y-508500D01*
X4833043Y-526806D01*
G37*
%TD.AperFunction*%
M02*
