%TF.GenerationSoftware,KiCad,Pcbnew,10.0.4*%
%TF.CreationDate,2026-08-27T14:11:51+02:00*%
%TF.ProjectId,KoloredVerb.panel,4b6f6c6f-7265-4645-9665-72622e70616e,rev?*%
%TF.SameCoordinates,Original*%
%TF.FileFunction,Profile,NP*%
%FSLAX46Y46*%
G04 Gerber Fmt 4.6, Leading zero omitted, Abs format (unit mm)*
G04 Created by KiCad (PCBNEW 10.0.4) date 2026-08-27 14:11:51*
%MOMM*%
%LPD*%
G01*
G04 APERTURE LIST*
%TA.AperFunction,Profile*%
%ADD10C,0.150000*%
%TD*%
G04 APERTURE END LIST*
D10*
X15180000Y-17500000D02*
G75*
G02*
X7680000Y-17500000I-3750000J0D01*
G01*
X7680000Y-17500000D02*
G75*
G02*
X15180000Y-17500000I3750000J0D01*
G01*
X34230000Y-17500000D02*
G75*
G02*
X26730000Y-17500000I-3750000J0D01*
G01*
X26730000Y-17500000D02*
G75*
G02*
X34230000Y-17500000I3750000J0D01*
G01*
X53280000Y-17500000D02*
G75*
G02*
X45780000Y-17500000I-3750000J0D01*
G01*
X45780000Y-17500000D02*
G75*
G02*
X53280000Y-17500000I3750000J0D01*
G01*
X15180000Y-35500000D02*
G75*
G02*
X7680000Y-35500000I-3750000J0D01*
G01*
X7680000Y-35500000D02*
G75*
G02*
X15180000Y-35500000I3750000J0D01*
G01*
X60600000Y0D02*
X60600000Y-128500000D01*
X0Y0D02*
X60600000Y0D01*
X60600000Y-128500000D02*
X0Y-128500000D01*
X0Y-128500000D02*
X0Y0D01*
X51080000Y-49500000D02*
G75*
G02*
X47980000Y-49500000I-1550000J0D01*
G01*
X47980000Y-49500000D02*
G75*
G02*
X51080000Y-49500000I1550000J0D01*
G01*
X14680000Y-82500000D02*
G75*
G02*
X8180000Y-82500000I-3250000J0D01*
G01*
X8180000Y-82500000D02*
G75*
G02*
X14680000Y-82500000I3250000J0D01*
G01*
X49810000Y-85500000D02*
G75*
G02*
X46710000Y-85500000I-1550000J0D01*
G01*
X46710000Y-85500000D02*
G75*
G02*
X49810000Y-85500000I1550000J0D01*
G01*
X14680000Y-97500000D02*
G75*
G02*
X8180000Y-97500000I-3250000J0D01*
G01*
X8180000Y-97500000D02*
G75*
G02*
X14680000Y-97500000I3250000J0D01*
G01*
X34230000Y-58500000D02*
G75*
G02*
X26730000Y-58500000I-3750000J0D01*
G01*
X26730000Y-58500000D02*
G75*
G02*
X34230000Y-58500000I3750000J0D01*
G01*
X32030000Y-85500000D02*
G75*
G02*
X28930000Y-85500000I-1550000J0D01*
G01*
X28930000Y-85500000D02*
G75*
G02*
X32030000Y-85500000I1550000J0D01*
G01*
X41350000Y-97500000D02*
G75*
G02*
X34850000Y-97500000I-3250000J0D01*
G01*
X34850000Y-97500000D02*
G75*
G02*
X41350000Y-97500000I3250000J0D01*
G01*
X28650000Y-97500000D02*
G75*
G02*
X22150000Y-97500000I-3250000J0D01*
G01*
X22150000Y-97500000D02*
G75*
G02*
X28650000Y-97500000I3250000J0D01*
G01*
X52780000Y-97500000D02*
G75*
G02*
X46280000Y-97500000I-3250000J0D01*
G01*
X46280000Y-97500000D02*
G75*
G02*
X52780000Y-97500000I3250000J0D01*
G01*
X35280000Y-75500000D02*
G75*
G02*
X25680000Y-75500000I-4800000J0D01*
G01*
X25680000Y-75500000D02*
G75*
G02*
X35280000Y-75500000I4800000J0D01*
G01*
X53060000Y-75500000D02*
G75*
G02*
X43460000Y-75500000I-4800000J0D01*
G01*
X43460000Y-75500000D02*
G75*
G02*
X53060000Y-75500000I4800000J0D01*
G01*
X14680000Y-111500000D02*
G75*
G02*
X8180000Y-111500000I-3250000J0D01*
G01*
X8180000Y-111500000D02*
G75*
G02*
X14680000Y-111500000I3250000J0D01*
G01*
X52780000Y-111500000D02*
G75*
G02*
X46280000Y-111500000I-3250000J0D01*
G01*
X46280000Y-111500000D02*
G75*
G02*
X52780000Y-111500000I3250000J0D01*
G01*
X54330000Y-58500000D02*
G75*
G02*
X44730000Y-58500000I-4800000J0D01*
G01*
X44730000Y-58500000D02*
G75*
G02*
X54330000Y-58500000I4800000J0D01*
G01*
X41350000Y-111500000D02*
G75*
G02*
X34850000Y-111500000I-3250000J0D01*
G01*
X34850000Y-111500000D02*
G75*
G02*
X41350000Y-111500000I3250000J0D01*
G01*
X28650000Y-111500000D02*
G75*
G02*
X22150000Y-111500000I-3250000J0D01*
G01*
X22150000Y-111500000D02*
G75*
G02*
X28650000Y-111500000I3250000J0D01*
G01*
X15180000Y-58500000D02*
G75*
G02*
X7680000Y-58500000I-3750000J0D01*
G01*
X7680000Y-58500000D02*
G75*
G02*
X15180000Y-58500000I3750000J0D01*
G01*
X34230000Y-35500000D02*
G75*
G02*
X26730000Y-35500000I-3750000J0D01*
G01*
X26730000Y-35500000D02*
G75*
G02*
X34230000Y-35500000I3750000J0D01*
G01*
M02*
