%TF.GenerationSoftware,KiCad,Pcbnew,10.0.4*%
%TF.CreationDate,2026-08-22T18:44:09+02:00*%
%TF.ProjectId,KoloredVerb.core,4b6f6c6f-7265-4645-9665-72622e636f72,rev?*%
%TF.SameCoordinates,Original*%
%TF.FileFunction,Legend,Top*%
%TF.FilePolarity,Positive*%
%FSLAX46Y46*%
G04 Gerber Fmt 4.6, Leading zero omitted, Abs format (unit mm)*
G04 Created by KiCad (PCBNEW 10.0.4) date 2026-08-22 18:44:09*
%MOMM*%
%LPD*%
G01*
G04 APERTURE LIST*
%ADD10C,0.150000*%
%ADD11C,0.120000*%
G04 APERTURE END LIST*
D10*
X2786000Y-40234000D02*
X4056000Y-40234000D01*
X2786000Y-45314000D02*
X4056000Y-45314000D01*
X4056000Y-40234000D02*
X4056000Y-41504000D01*
X4056000Y-43536000D02*
X4056000Y-44806000D01*
X4056000Y-44806000D02*
X2786000Y-44806000D01*
X4056000Y-45314000D02*
X4056000Y-46584000D01*
X4056000Y-48362000D02*
X4056000Y-49886000D01*
X4056000Y-49886000D02*
X2786000Y-49886000D01*
X28694000Y-11913000D02*
X28694000Y-12675000D01*
X28694000Y-12675000D02*
X29583000Y-12675000D01*
X32377000Y-12675000D02*
X33139000Y-12675000D01*
X33139000Y-12675000D02*
X33139000Y-11913000D01*
X35933000Y-97130000D02*
X35933000Y-98146000D01*
X35933000Y-98146000D02*
X37965000Y-98146000D01*
X35933000Y-98654000D02*
X35933000Y-99670000D01*
X35933000Y-99670000D02*
X37965000Y-99670000D01*
X36187000Y-98908000D02*
X36187000Y-99416000D01*
X36187000Y-99416000D02*
X37203000Y-99416000D01*
X36695000Y-97384000D02*
X36695000Y-97892000D01*
X36695000Y-97892000D02*
X37711000Y-97892000D01*
X37203000Y-98908000D02*
X36187000Y-98908000D01*
X37203000Y-99416000D02*
X37203000Y-98908000D01*
X37711000Y-97384000D02*
X36695000Y-97384000D01*
X37711000Y-97892000D02*
X37711000Y-97384000D01*
X37965000Y-97130000D02*
X35933000Y-97130000D01*
X37965000Y-98146000D02*
X37965000Y-97130000D01*
X37965000Y-98654000D02*
X35933000Y-98654000D01*
X37965000Y-99670000D02*
X37965000Y-98654000D01*
X42791000Y-97130000D02*
X43045000Y-97130000D01*
X43045000Y-97130000D02*
X43045000Y-99670000D01*
X43045000Y-99670000D02*
X42791000Y-99670000D01*
X52189000Y-76302000D02*
X52189000Y-81128000D01*
X52189000Y-81128000D02*
X54221000Y-81128000D01*
X52443000Y-76556000D02*
X52443000Y-77064000D01*
X52443000Y-77064000D02*
X53459000Y-77064000D01*
X52443000Y-77318000D02*
X52443000Y-77826000D01*
X52443000Y-77826000D02*
X53459000Y-77826000D01*
X52443000Y-78080000D02*
X52443000Y-78588000D01*
X52443000Y-78588000D02*
X53459000Y-78588000D01*
X52443000Y-78842000D02*
X52443000Y-79350000D01*
X52443000Y-79350000D02*
X53459000Y-79350000D01*
X52443000Y-79604000D02*
X52443000Y-80112000D01*
X52443000Y-80112000D02*
X53459000Y-80112000D01*
X52443000Y-80366000D02*
X52443000Y-80874000D01*
X52443000Y-80874000D02*
X53459000Y-80874000D01*
X53459000Y-76556000D02*
X52443000Y-76556000D01*
X53459000Y-77064000D02*
X53459000Y-76556000D01*
X53459000Y-77318000D02*
X52443000Y-77318000D01*
X53459000Y-77826000D02*
X53459000Y-77318000D01*
X53459000Y-78080000D02*
X52443000Y-78080000D01*
X53459000Y-78588000D02*
X53459000Y-78080000D01*
X53459000Y-78842000D02*
X52443000Y-78842000D01*
X53459000Y-79350000D02*
X53459000Y-78842000D01*
X53459000Y-79604000D02*
X52443000Y-79604000D01*
X53459000Y-80112000D02*
X53459000Y-79604000D01*
X53459000Y-80366000D02*
X52443000Y-80366000D01*
X53459000Y-80874000D02*
X53459000Y-80366000D01*
X54221000Y-59792000D02*
X54221000Y-72238000D01*
X54221000Y-72238000D02*
X55872000Y-72238000D01*
X54221000Y-76302000D02*
X52189000Y-76302000D01*
X54221000Y-81128000D02*
X54221000Y-76302000D01*
X55110000Y-59030000D02*
X55872000Y-59030000D01*
X56253000Y-76302000D02*
X56253000Y-81128000D01*
X56253000Y-81128000D02*
X58285000Y-81128000D01*
X57015000Y-76556000D02*
X57015000Y-77064000D01*
X57015000Y-77064000D02*
X58031000Y-77064000D01*
X57015000Y-77318000D02*
X57015000Y-77826000D01*
X57015000Y-77826000D02*
X58031000Y-77826000D01*
X57015000Y-78080000D02*
X57015000Y-78588000D01*
X57015000Y-78588000D02*
X58031000Y-78588000D01*
X57015000Y-78842000D02*
X57015000Y-79350000D01*
X57015000Y-79350000D02*
X58031000Y-79350000D01*
X57015000Y-79604000D02*
X57015000Y-80112000D01*
X57015000Y-80112000D02*
X58031000Y-80112000D01*
X57015000Y-80366000D02*
X57015000Y-80874000D01*
X57015000Y-80874000D02*
X58031000Y-80874000D01*
X58031000Y-76556000D02*
X57015000Y-76556000D01*
X58031000Y-77064000D02*
X58031000Y-76556000D01*
X58031000Y-77318000D02*
X57015000Y-77318000D01*
X58031000Y-77826000D02*
X58031000Y-77318000D01*
X58031000Y-78080000D02*
X57015000Y-78080000D01*
X58031000Y-78588000D02*
X58031000Y-78080000D01*
X58031000Y-78842000D02*
X57015000Y-78842000D01*
X58031000Y-79350000D02*
X58031000Y-78842000D01*
X58031000Y-79604000D02*
X57015000Y-79604000D01*
X58031000Y-80112000D02*
X58031000Y-79604000D01*
X58031000Y-80366000D02*
X57015000Y-80366000D01*
X58031000Y-80874000D02*
X58031000Y-80366000D01*
X58285000Y-76302000D02*
X56253000Y-76302000D01*
X58285000Y-81128000D02*
X58285000Y-76302000D01*
X3252969Y-41974819D02*
X3748207Y-41974819D01*
X3748207Y-41974819D02*
X3481541Y-42355771D01*
X3481541Y-42355771D02*
X3595826Y-42355771D01*
X3595826Y-42355771D02*
X3672017Y-42403390D01*
X3672017Y-42403390D02*
X3710112Y-42451009D01*
X3710112Y-42451009D02*
X3748207Y-42546247D01*
X3748207Y-42546247D02*
X3748207Y-42784342D01*
X3748207Y-42784342D02*
X3710112Y-42879580D01*
X3710112Y-42879580D02*
X3672017Y-42927200D01*
X3672017Y-42927200D02*
X3595826Y-42974819D01*
X3595826Y-42974819D02*
X3367255Y-42974819D01*
X3367255Y-42974819D02*
X3291064Y-42927200D01*
X3291064Y-42927200D02*
X3252969Y-42879580D01*
X3976779Y-41974819D02*
X4243446Y-42974819D01*
X4243446Y-42974819D02*
X4510112Y-41974819D01*
X4700588Y-41974819D02*
X5195826Y-41974819D01*
X5195826Y-41974819D02*
X4929160Y-42355771D01*
X4929160Y-42355771D02*
X5043445Y-42355771D01*
X5043445Y-42355771D02*
X5119636Y-42403390D01*
X5119636Y-42403390D02*
X5157731Y-42451009D01*
X5157731Y-42451009D02*
X5195826Y-42546247D01*
X5195826Y-42546247D02*
X5195826Y-42784342D01*
X5195826Y-42784342D02*
X5157731Y-42879580D01*
X5157731Y-42879580D02*
X5119636Y-42927200D01*
X5119636Y-42927200D02*
X5043445Y-42974819D01*
X5043445Y-42974819D02*
X4814874Y-42974819D01*
X4814874Y-42974819D02*
X4738683Y-42927200D01*
X4738683Y-42927200D02*
X4700588Y-42879580D01*
X3748207Y-47102438D02*
X3672017Y-47054819D01*
X3672017Y-47054819D02*
X3557731Y-47054819D01*
X3557731Y-47054819D02*
X3443445Y-47102438D01*
X3443445Y-47102438D02*
X3367255Y-47197676D01*
X3367255Y-47197676D02*
X3329160Y-47292914D01*
X3329160Y-47292914D02*
X3291064Y-47483390D01*
X3291064Y-47483390D02*
X3291064Y-47626247D01*
X3291064Y-47626247D02*
X3329160Y-47816723D01*
X3329160Y-47816723D02*
X3367255Y-47911961D01*
X3367255Y-47911961D02*
X3443445Y-48007200D01*
X3443445Y-48007200D02*
X3557731Y-48054819D01*
X3557731Y-48054819D02*
X3633922Y-48054819D01*
X3633922Y-48054819D02*
X3748207Y-48007200D01*
X3748207Y-48007200D02*
X3786303Y-47959580D01*
X3786303Y-47959580D02*
X3786303Y-47626247D01*
X3786303Y-47626247D02*
X3633922Y-47626247D01*
X4129160Y-48054819D02*
X4129160Y-47054819D01*
X4129160Y-47054819D02*
X4586303Y-48054819D01*
X4586303Y-48054819D02*
X4586303Y-47054819D01*
X4967255Y-48054819D02*
X4967255Y-47054819D01*
X4967255Y-47054819D02*
X5157731Y-47054819D01*
X5157731Y-47054819D02*
X5272017Y-47102438D01*
X5272017Y-47102438D02*
X5348207Y-47197676D01*
X5348207Y-47197676D02*
X5386302Y-47292914D01*
X5386302Y-47292914D02*
X5424398Y-47483390D01*
X5424398Y-47483390D02*
X5424398Y-47626247D01*
X5424398Y-47626247D02*
X5386302Y-47816723D01*
X5386302Y-47816723D02*
X5348207Y-47911961D01*
X5348207Y-47911961D02*
X5272017Y-48007200D01*
X5272017Y-48007200D02*
X5157731Y-48054819D01*
X5157731Y-48054819D02*
X4967255Y-48054819D01*
X3389160Y-95044819D02*
X3389160Y-94044819D01*
X3389160Y-94044819D02*
X3846303Y-95044819D01*
X3846303Y-95044819D02*
X3846303Y-94044819D01*
X4227255Y-95044819D02*
X4227255Y-94044819D01*
X4227255Y-94044819D02*
X4532017Y-94044819D01*
X4532017Y-94044819D02*
X4608207Y-94092438D01*
X4608207Y-94092438D02*
X4646302Y-94140057D01*
X4646302Y-94140057D02*
X4684398Y-94235295D01*
X4684398Y-94235295D02*
X4684398Y-94378152D01*
X4684398Y-94378152D02*
X4646302Y-94473390D01*
X4646302Y-94473390D02*
X4608207Y-94521009D01*
X4608207Y-94521009D02*
X4532017Y-94568628D01*
X4532017Y-94568628D02*
X4227255Y-94568628D01*
X5484398Y-95044819D02*
X5217731Y-94568628D01*
X5027255Y-95044819D02*
X5027255Y-94044819D01*
X5027255Y-94044819D02*
X5332017Y-94044819D01*
X5332017Y-94044819D02*
X5408207Y-94092438D01*
X5408207Y-94092438D02*
X5446302Y-94140057D01*
X5446302Y-94140057D02*
X5484398Y-94235295D01*
X5484398Y-94235295D02*
X5484398Y-94378152D01*
X5484398Y-94378152D02*
X5446302Y-94473390D01*
X5446302Y-94473390D02*
X5408207Y-94521009D01*
X5408207Y-94521009D02*
X5332017Y-94568628D01*
X5332017Y-94568628D02*
X5027255Y-94568628D01*
X3808207Y-96632438D02*
X3732017Y-96584819D01*
X3732017Y-96584819D02*
X3617731Y-96584819D01*
X3617731Y-96584819D02*
X3503445Y-96632438D01*
X3503445Y-96632438D02*
X3427255Y-96727676D01*
X3427255Y-96727676D02*
X3389160Y-96822914D01*
X3389160Y-96822914D02*
X3351064Y-97013390D01*
X3351064Y-97013390D02*
X3351064Y-97156247D01*
X3351064Y-97156247D02*
X3389160Y-97346723D01*
X3389160Y-97346723D02*
X3427255Y-97441961D01*
X3427255Y-97441961D02*
X3503445Y-97537200D01*
X3503445Y-97537200D02*
X3617731Y-97584819D01*
X3617731Y-97584819D02*
X3693922Y-97584819D01*
X3693922Y-97584819D02*
X3808207Y-97537200D01*
X3808207Y-97537200D02*
X3846303Y-97489580D01*
X3846303Y-97489580D02*
X3846303Y-97156247D01*
X3846303Y-97156247D02*
X3693922Y-97156247D01*
X4189160Y-97584819D02*
X4189160Y-96584819D01*
X4189160Y-96584819D02*
X4646303Y-97584819D01*
X4646303Y-97584819D02*
X4646303Y-96584819D01*
X5027255Y-97584819D02*
X5027255Y-96584819D01*
X5027255Y-96584819D02*
X5217731Y-96584819D01*
X5217731Y-96584819D02*
X5332017Y-96632438D01*
X5332017Y-96632438D02*
X5408207Y-96727676D01*
X5408207Y-96727676D02*
X5446302Y-96822914D01*
X5446302Y-96822914D02*
X5484398Y-97013390D01*
X5484398Y-97013390D02*
X5484398Y-97156247D01*
X5484398Y-97156247D02*
X5446302Y-97346723D01*
X5446302Y-97346723D02*
X5408207Y-97441961D01*
X5408207Y-97441961D02*
X5332017Y-97537200D01*
X5332017Y-97537200D02*
X5217731Y-97584819D01*
X5217731Y-97584819D02*
X5027255Y-97584819D01*
X3846303Y-100029580D02*
X3808207Y-100077200D01*
X3808207Y-100077200D02*
X3693922Y-100124819D01*
X3693922Y-100124819D02*
X3617731Y-100124819D01*
X3617731Y-100124819D02*
X3503445Y-100077200D01*
X3503445Y-100077200D02*
X3427255Y-99981961D01*
X3427255Y-99981961D02*
X3389160Y-99886723D01*
X3389160Y-99886723D02*
X3351064Y-99696247D01*
X3351064Y-99696247D02*
X3351064Y-99553390D01*
X3351064Y-99553390D02*
X3389160Y-99362914D01*
X3389160Y-99362914D02*
X3427255Y-99267676D01*
X3427255Y-99267676D02*
X3503445Y-99172438D01*
X3503445Y-99172438D02*
X3617731Y-99124819D01*
X3617731Y-99124819D02*
X3693922Y-99124819D01*
X3693922Y-99124819D02*
X3808207Y-99172438D01*
X3808207Y-99172438D02*
X3846303Y-99220057D01*
X4341541Y-99124819D02*
X4493922Y-99124819D01*
X4493922Y-99124819D02*
X4570112Y-99172438D01*
X4570112Y-99172438D02*
X4646303Y-99267676D01*
X4646303Y-99267676D02*
X4684398Y-99458152D01*
X4684398Y-99458152D02*
X4684398Y-99791485D01*
X4684398Y-99791485D02*
X4646303Y-99981961D01*
X4646303Y-99981961D02*
X4570112Y-100077200D01*
X4570112Y-100077200D02*
X4493922Y-100124819D01*
X4493922Y-100124819D02*
X4341541Y-100124819D01*
X4341541Y-100124819D02*
X4265350Y-100077200D01*
X4265350Y-100077200D02*
X4189160Y-99981961D01*
X4189160Y-99981961D02*
X4151064Y-99791485D01*
X4151064Y-99791485D02*
X4151064Y-99458152D01*
X4151064Y-99458152D02*
X4189160Y-99267676D01*
X4189160Y-99267676D02*
X4265350Y-99172438D01*
X4265350Y-99172438D02*
X4341541Y-99124819D01*
X5446302Y-100124819D02*
X4989159Y-100124819D01*
X5217731Y-100124819D02*
X5217731Y-99124819D01*
X5217731Y-99124819D02*
X5141540Y-99267676D01*
X5141540Y-99267676D02*
X5065350Y-99362914D01*
X5065350Y-99362914D02*
X4989159Y-99410533D01*
X3846303Y-102569580D02*
X3808207Y-102617200D01*
X3808207Y-102617200D02*
X3693922Y-102664819D01*
X3693922Y-102664819D02*
X3617731Y-102664819D01*
X3617731Y-102664819D02*
X3503445Y-102617200D01*
X3503445Y-102617200D02*
X3427255Y-102521961D01*
X3427255Y-102521961D02*
X3389160Y-102426723D01*
X3389160Y-102426723D02*
X3351064Y-102236247D01*
X3351064Y-102236247D02*
X3351064Y-102093390D01*
X3351064Y-102093390D02*
X3389160Y-101902914D01*
X3389160Y-101902914D02*
X3427255Y-101807676D01*
X3427255Y-101807676D02*
X3503445Y-101712438D01*
X3503445Y-101712438D02*
X3617731Y-101664819D01*
X3617731Y-101664819D02*
X3693922Y-101664819D01*
X3693922Y-101664819D02*
X3808207Y-101712438D01*
X3808207Y-101712438D02*
X3846303Y-101760057D01*
X4341541Y-101664819D02*
X4493922Y-101664819D01*
X4493922Y-101664819D02*
X4570112Y-101712438D01*
X4570112Y-101712438D02*
X4646303Y-101807676D01*
X4646303Y-101807676D02*
X4684398Y-101998152D01*
X4684398Y-101998152D02*
X4684398Y-102331485D01*
X4684398Y-102331485D02*
X4646303Y-102521961D01*
X4646303Y-102521961D02*
X4570112Y-102617200D01*
X4570112Y-102617200D02*
X4493922Y-102664819D01*
X4493922Y-102664819D02*
X4341541Y-102664819D01*
X4341541Y-102664819D02*
X4265350Y-102617200D01*
X4265350Y-102617200D02*
X4189160Y-102521961D01*
X4189160Y-102521961D02*
X4151064Y-102331485D01*
X4151064Y-102331485D02*
X4151064Y-101998152D01*
X4151064Y-101998152D02*
X4189160Y-101807676D01*
X4189160Y-101807676D02*
X4265350Y-101712438D01*
X4265350Y-101712438D02*
X4341541Y-101664819D01*
X4989159Y-101760057D02*
X5027255Y-101712438D01*
X5027255Y-101712438D02*
X5103445Y-101664819D01*
X5103445Y-101664819D02*
X5293921Y-101664819D01*
X5293921Y-101664819D02*
X5370112Y-101712438D01*
X5370112Y-101712438D02*
X5408207Y-101760057D01*
X5408207Y-101760057D02*
X5446302Y-101855295D01*
X5446302Y-101855295D02*
X5446302Y-101950533D01*
X5446302Y-101950533D02*
X5408207Y-102093390D01*
X5408207Y-102093390D02*
X4951064Y-102664819D01*
X4951064Y-102664819D02*
X5446302Y-102664819D01*
X3351064Y-104919104D02*
X3732017Y-104919104D01*
X3274874Y-105204819D02*
X3541541Y-104204819D01*
X3541541Y-104204819D02*
X3808207Y-105204819D01*
X4227255Y-104204819D02*
X4379636Y-104204819D01*
X4379636Y-104204819D02*
X4455826Y-104252438D01*
X4455826Y-104252438D02*
X4532017Y-104347676D01*
X4532017Y-104347676D02*
X4570112Y-104538152D01*
X4570112Y-104538152D02*
X4570112Y-104871485D01*
X4570112Y-104871485D02*
X4532017Y-105061961D01*
X4532017Y-105061961D02*
X4455826Y-105157200D01*
X4455826Y-105157200D02*
X4379636Y-105204819D01*
X4379636Y-105204819D02*
X4227255Y-105204819D01*
X4227255Y-105204819D02*
X4151064Y-105157200D01*
X4151064Y-105157200D02*
X4074874Y-105061961D01*
X4074874Y-105061961D02*
X4036778Y-104871485D01*
X4036778Y-104871485D02*
X4036778Y-104538152D01*
X4036778Y-104538152D02*
X4074874Y-104347676D01*
X4074874Y-104347676D02*
X4151064Y-104252438D01*
X4151064Y-104252438D02*
X4227255Y-104204819D01*
X4874873Y-104300057D02*
X4912969Y-104252438D01*
X4912969Y-104252438D02*
X4989159Y-104204819D01*
X4989159Y-104204819D02*
X5179635Y-104204819D01*
X5179635Y-104204819D02*
X5255826Y-104252438D01*
X5255826Y-104252438D02*
X5293921Y-104300057D01*
X5293921Y-104300057D02*
X5332016Y-104395295D01*
X5332016Y-104395295D02*
X5332016Y-104490533D01*
X5332016Y-104490533D02*
X5293921Y-104633390D01*
X5293921Y-104633390D02*
X4836778Y-105204819D01*
X4836778Y-105204819D02*
X5332016Y-105204819D01*
X3351064Y-107459104D02*
X3732017Y-107459104D01*
X3274874Y-107744819D02*
X3541541Y-106744819D01*
X3541541Y-106744819D02*
X3808207Y-107744819D01*
X4227255Y-106744819D02*
X4379636Y-106744819D01*
X4379636Y-106744819D02*
X4455826Y-106792438D01*
X4455826Y-106792438D02*
X4532017Y-106887676D01*
X4532017Y-106887676D02*
X4570112Y-107078152D01*
X4570112Y-107078152D02*
X4570112Y-107411485D01*
X4570112Y-107411485D02*
X4532017Y-107601961D01*
X4532017Y-107601961D02*
X4455826Y-107697200D01*
X4455826Y-107697200D02*
X4379636Y-107744819D01*
X4379636Y-107744819D02*
X4227255Y-107744819D01*
X4227255Y-107744819D02*
X4151064Y-107697200D01*
X4151064Y-107697200D02*
X4074874Y-107601961D01*
X4074874Y-107601961D02*
X4036778Y-107411485D01*
X4036778Y-107411485D02*
X4036778Y-107078152D01*
X4036778Y-107078152D02*
X4074874Y-106887676D01*
X4074874Y-106887676D02*
X4151064Y-106792438D01*
X4151064Y-106792438D02*
X4227255Y-106744819D01*
X5332016Y-107744819D02*
X4874873Y-107744819D01*
X5103445Y-107744819D02*
X5103445Y-106744819D01*
X5103445Y-106744819D02*
X5027254Y-106887676D01*
X5027254Y-106887676D02*
X4951064Y-106982914D01*
X4951064Y-106982914D02*
X4874873Y-107030533D01*
X3351064Y-109999104D02*
X3732017Y-109999104D01*
X3274874Y-110284819D02*
X3541541Y-109284819D01*
X3541541Y-109284819D02*
X3808207Y-110284819D01*
X4074874Y-110284819D02*
X4074874Y-109284819D01*
X4417730Y-109380057D02*
X4455826Y-109332438D01*
X4455826Y-109332438D02*
X4532016Y-109284819D01*
X4532016Y-109284819D02*
X4722492Y-109284819D01*
X4722492Y-109284819D02*
X4798683Y-109332438D01*
X4798683Y-109332438D02*
X4836778Y-109380057D01*
X4836778Y-109380057D02*
X4874873Y-109475295D01*
X4874873Y-109475295D02*
X4874873Y-109570533D01*
X4874873Y-109570533D02*
X4836778Y-109713390D01*
X4836778Y-109713390D02*
X4379635Y-110284819D01*
X4379635Y-110284819D02*
X4874873Y-110284819D01*
X3351064Y-112539104D02*
X3732017Y-112539104D01*
X3274874Y-112824819D02*
X3541541Y-111824819D01*
X3541541Y-111824819D02*
X3808207Y-112824819D01*
X4074874Y-112824819D02*
X4074874Y-111824819D01*
X4874873Y-112824819D02*
X4417730Y-112824819D01*
X4646302Y-112824819D02*
X4646302Y-111824819D01*
X4646302Y-111824819D02*
X4570111Y-111967676D01*
X4570111Y-111967676D02*
X4493921Y-112062914D01*
X4493921Y-112062914D02*
X4417730Y-112110533D01*
X3808207Y-114412438D02*
X3732017Y-114364819D01*
X3732017Y-114364819D02*
X3617731Y-114364819D01*
X3617731Y-114364819D02*
X3503445Y-114412438D01*
X3503445Y-114412438D02*
X3427255Y-114507676D01*
X3427255Y-114507676D02*
X3389160Y-114602914D01*
X3389160Y-114602914D02*
X3351064Y-114793390D01*
X3351064Y-114793390D02*
X3351064Y-114936247D01*
X3351064Y-114936247D02*
X3389160Y-115126723D01*
X3389160Y-115126723D02*
X3427255Y-115221961D01*
X3427255Y-115221961D02*
X3503445Y-115317200D01*
X3503445Y-115317200D02*
X3617731Y-115364819D01*
X3617731Y-115364819D02*
X3693922Y-115364819D01*
X3693922Y-115364819D02*
X3808207Y-115317200D01*
X3808207Y-115317200D02*
X3846303Y-115269580D01*
X3846303Y-115269580D02*
X3846303Y-114936247D01*
X3846303Y-114936247D02*
X3693922Y-114936247D01*
X4341541Y-114364819D02*
X4493922Y-114364819D01*
X4493922Y-114364819D02*
X4570112Y-114412438D01*
X4570112Y-114412438D02*
X4646303Y-114507676D01*
X4646303Y-114507676D02*
X4684398Y-114698152D01*
X4684398Y-114698152D02*
X4684398Y-115031485D01*
X4684398Y-115031485D02*
X4646303Y-115221961D01*
X4646303Y-115221961D02*
X4570112Y-115317200D01*
X4570112Y-115317200D02*
X4493922Y-115364819D01*
X4493922Y-115364819D02*
X4341541Y-115364819D01*
X4341541Y-115364819D02*
X4265350Y-115317200D01*
X4265350Y-115317200D02*
X4189160Y-115221961D01*
X4189160Y-115221961D02*
X4151064Y-115031485D01*
X4151064Y-115031485D02*
X4151064Y-114698152D01*
X4151064Y-114698152D02*
X4189160Y-114507676D01*
X4189160Y-114507676D02*
X4265350Y-114412438D01*
X4265350Y-114412438D02*
X4341541Y-114364819D01*
X5446302Y-115364819D02*
X4989159Y-115364819D01*
X5217731Y-115364819D02*
X5217731Y-114364819D01*
X5217731Y-114364819D02*
X5141540Y-114507676D01*
X5141540Y-114507676D02*
X5065350Y-114602914D01*
X5065350Y-114602914D02*
X4989159Y-114650533D01*
X3808207Y-116952438D02*
X3732017Y-116904819D01*
X3732017Y-116904819D02*
X3617731Y-116904819D01*
X3617731Y-116904819D02*
X3503445Y-116952438D01*
X3503445Y-116952438D02*
X3427255Y-117047676D01*
X3427255Y-117047676D02*
X3389160Y-117142914D01*
X3389160Y-117142914D02*
X3351064Y-117333390D01*
X3351064Y-117333390D02*
X3351064Y-117476247D01*
X3351064Y-117476247D02*
X3389160Y-117666723D01*
X3389160Y-117666723D02*
X3427255Y-117761961D01*
X3427255Y-117761961D02*
X3503445Y-117857200D01*
X3503445Y-117857200D02*
X3617731Y-117904819D01*
X3617731Y-117904819D02*
X3693922Y-117904819D01*
X3693922Y-117904819D02*
X3808207Y-117857200D01*
X3808207Y-117857200D02*
X3846303Y-117809580D01*
X3846303Y-117809580D02*
X3846303Y-117476247D01*
X3846303Y-117476247D02*
X3693922Y-117476247D01*
X4341541Y-116904819D02*
X4493922Y-116904819D01*
X4493922Y-116904819D02*
X4570112Y-116952438D01*
X4570112Y-116952438D02*
X4646303Y-117047676D01*
X4646303Y-117047676D02*
X4684398Y-117238152D01*
X4684398Y-117238152D02*
X4684398Y-117571485D01*
X4684398Y-117571485D02*
X4646303Y-117761961D01*
X4646303Y-117761961D02*
X4570112Y-117857200D01*
X4570112Y-117857200D02*
X4493922Y-117904819D01*
X4493922Y-117904819D02*
X4341541Y-117904819D01*
X4341541Y-117904819D02*
X4265350Y-117857200D01*
X4265350Y-117857200D02*
X4189160Y-117761961D01*
X4189160Y-117761961D02*
X4151064Y-117571485D01*
X4151064Y-117571485D02*
X4151064Y-117238152D01*
X4151064Y-117238152D02*
X4189160Y-117047676D01*
X4189160Y-117047676D02*
X4265350Y-116952438D01*
X4265350Y-116952438D02*
X4341541Y-116904819D01*
X4989159Y-117000057D02*
X5027255Y-116952438D01*
X5027255Y-116952438D02*
X5103445Y-116904819D01*
X5103445Y-116904819D02*
X5293921Y-116904819D01*
X5293921Y-116904819D02*
X5370112Y-116952438D01*
X5370112Y-116952438D02*
X5408207Y-117000057D01*
X5408207Y-117000057D02*
X5446302Y-117095295D01*
X5446302Y-117095295D02*
X5446302Y-117190533D01*
X5446302Y-117190533D02*
X5408207Y-117333390D01*
X5408207Y-117333390D02*
X4951064Y-117904819D01*
X4951064Y-117904819D02*
X5446302Y-117904819D01*
X1446190Y-16416009D02*
X1560476Y-16463628D01*
X1560476Y-16463628D02*
X1598571Y-16511247D01*
X1598571Y-16511247D02*
X1636667Y-16606485D01*
X1636667Y-16606485D02*
X1636667Y-16749342D01*
X1636667Y-16749342D02*
X1598571Y-16844580D01*
X1598571Y-16844580D02*
X1560476Y-16892200D01*
X1560476Y-16892200D02*
X1484286Y-16939819D01*
X1484286Y-16939819D02*
X1179524Y-16939819D01*
X1179524Y-16939819D02*
X1179524Y-15939819D01*
X1179524Y-15939819D02*
X1446190Y-15939819D01*
X1446190Y-15939819D02*
X1522381Y-15987438D01*
X1522381Y-15987438D02*
X1560476Y-16035057D01*
X1560476Y-16035057D02*
X1598571Y-16130295D01*
X1598571Y-16130295D02*
X1598571Y-16225533D01*
X1598571Y-16225533D02*
X1560476Y-16320771D01*
X1560476Y-16320771D02*
X1522381Y-16368390D01*
X1522381Y-16368390D02*
X1446190Y-16416009D01*
X1446190Y-16416009D02*
X1179524Y-16416009D01*
X2398571Y-16939819D02*
X1941428Y-16939819D01*
X2170000Y-16939819D02*
X2170000Y-15939819D01*
X2170000Y-15939819D02*
X2093809Y-16082676D01*
X2093809Y-16082676D02*
X2017619Y-16177914D01*
X2017619Y-16177914D02*
X1941428Y-16225533D01*
X1446190Y-38006009D02*
X1560476Y-38053628D01*
X1560476Y-38053628D02*
X1598571Y-38101247D01*
X1598571Y-38101247D02*
X1636667Y-38196485D01*
X1636667Y-38196485D02*
X1636667Y-38339342D01*
X1636667Y-38339342D02*
X1598571Y-38434580D01*
X1598571Y-38434580D02*
X1560476Y-38482200D01*
X1560476Y-38482200D02*
X1484286Y-38529819D01*
X1484286Y-38529819D02*
X1179524Y-38529819D01*
X1179524Y-38529819D02*
X1179524Y-37529819D01*
X1179524Y-37529819D02*
X1446190Y-37529819D01*
X1446190Y-37529819D02*
X1522381Y-37577438D01*
X1522381Y-37577438D02*
X1560476Y-37625057D01*
X1560476Y-37625057D02*
X1598571Y-37720295D01*
X1598571Y-37720295D02*
X1598571Y-37815533D01*
X1598571Y-37815533D02*
X1560476Y-37910771D01*
X1560476Y-37910771D02*
X1522381Y-37958390D01*
X1522381Y-37958390D02*
X1446190Y-38006009D01*
X1446190Y-38006009D02*
X1179524Y-38006009D01*
X2093809Y-37958390D02*
X2017619Y-37910771D01*
X2017619Y-37910771D02*
X1979524Y-37863152D01*
X1979524Y-37863152D02*
X1941428Y-37767914D01*
X1941428Y-37767914D02*
X1941428Y-37720295D01*
X1941428Y-37720295D02*
X1979524Y-37625057D01*
X1979524Y-37625057D02*
X2017619Y-37577438D01*
X2017619Y-37577438D02*
X2093809Y-37529819D01*
X2093809Y-37529819D02*
X2246190Y-37529819D01*
X2246190Y-37529819D02*
X2322381Y-37577438D01*
X2322381Y-37577438D02*
X2360476Y-37625057D01*
X2360476Y-37625057D02*
X2398571Y-37720295D01*
X2398571Y-37720295D02*
X2398571Y-37767914D01*
X2398571Y-37767914D02*
X2360476Y-37863152D01*
X2360476Y-37863152D02*
X2322381Y-37910771D01*
X2322381Y-37910771D02*
X2246190Y-37958390D01*
X2246190Y-37958390D02*
X2093809Y-37958390D01*
X2093809Y-37958390D02*
X2017619Y-38006009D01*
X2017619Y-38006009D02*
X1979524Y-38053628D01*
X1979524Y-38053628D02*
X1941428Y-38148866D01*
X1941428Y-38148866D02*
X1941428Y-38339342D01*
X1941428Y-38339342D02*
X1979524Y-38434580D01*
X1979524Y-38434580D02*
X2017619Y-38482200D01*
X2017619Y-38482200D02*
X2093809Y-38529819D01*
X2093809Y-38529819D02*
X2246190Y-38529819D01*
X2246190Y-38529819D02*
X2322381Y-38482200D01*
X2322381Y-38482200D02*
X2360476Y-38434580D01*
X2360476Y-38434580D02*
X2398571Y-38339342D01*
X2398571Y-38339342D02*
X2398571Y-38148866D01*
X2398571Y-38148866D02*
X2360476Y-38053628D01*
X2360476Y-38053628D02*
X2322381Y-38006009D01*
X2322381Y-38006009D02*
X2246190Y-37958390D01*
X1446190Y-54516009D02*
X1560476Y-54563628D01*
X1560476Y-54563628D02*
X1598571Y-54611247D01*
X1598571Y-54611247D02*
X1636667Y-54706485D01*
X1636667Y-54706485D02*
X1636667Y-54849342D01*
X1636667Y-54849342D02*
X1598571Y-54944580D01*
X1598571Y-54944580D02*
X1560476Y-54992200D01*
X1560476Y-54992200D02*
X1484286Y-55039819D01*
X1484286Y-55039819D02*
X1179524Y-55039819D01*
X1179524Y-55039819D02*
X1179524Y-54039819D01*
X1179524Y-54039819D02*
X1446190Y-54039819D01*
X1446190Y-54039819D02*
X1522381Y-54087438D01*
X1522381Y-54087438D02*
X1560476Y-54135057D01*
X1560476Y-54135057D02*
X1598571Y-54230295D01*
X1598571Y-54230295D02*
X1598571Y-54325533D01*
X1598571Y-54325533D02*
X1560476Y-54420771D01*
X1560476Y-54420771D02*
X1522381Y-54468390D01*
X1522381Y-54468390D02*
X1446190Y-54516009D01*
X1446190Y-54516009D02*
X1179524Y-54516009D01*
X2017619Y-55039819D02*
X2170000Y-55039819D01*
X2170000Y-55039819D02*
X2246190Y-54992200D01*
X2246190Y-54992200D02*
X2284286Y-54944580D01*
X2284286Y-54944580D02*
X2360476Y-54801723D01*
X2360476Y-54801723D02*
X2398571Y-54611247D01*
X2398571Y-54611247D02*
X2398571Y-54230295D01*
X2398571Y-54230295D02*
X2360476Y-54135057D01*
X2360476Y-54135057D02*
X2322381Y-54087438D01*
X2322381Y-54087438D02*
X2246190Y-54039819D01*
X2246190Y-54039819D02*
X2093809Y-54039819D01*
X2093809Y-54039819D02*
X2017619Y-54087438D01*
X2017619Y-54087438D02*
X1979524Y-54135057D01*
X1979524Y-54135057D02*
X1941428Y-54230295D01*
X1941428Y-54230295D02*
X1941428Y-54468390D01*
X1941428Y-54468390D02*
X1979524Y-54563628D01*
X1979524Y-54563628D02*
X2017619Y-54611247D01*
X2017619Y-54611247D02*
X2093809Y-54658866D01*
X2093809Y-54658866D02*
X2246190Y-54658866D01*
X2246190Y-54658866D02*
X2322381Y-54611247D01*
X2322381Y-54611247D02*
X2360476Y-54563628D01*
X2360476Y-54563628D02*
X2398571Y-54468390D01*
X1065237Y-76106009D02*
X1179523Y-76153628D01*
X1179523Y-76153628D02*
X1217618Y-76201247D01*
X1217618Y-76201247D02*
X1255714Y-76296485D01*
X1255714Y-76296485D02*
X1255714Y-76439342D01*
X1255714Y-76439342D02*
X1217618Y-76534580D01*
X1217618Y-76534580D02*
X1179523Y-76582200D01*
X1179523Y-76582200D02*
X1103333Y-76629819D01*
X1103333Y-76629819D02*
X798571Y-76629819D01*
X798571Y-76629819D02*
X798571Y-75629819D01*
X798571Y-75629819D02*
X1065237Y-75629819D01*
X1065237Y-75629819D02*
X1141428Y-75677438D01*
X1141428Y-75677438D02*
X1179523Y-75725057D01*
X1179523Y-75725057D02*
X1217618Y-75820295D01*
X1217618Y-75820295D02*
X1217618Y-75915533D01*
X1217618Y-75915533D02*
X1179523Y-76010771D01*
X1179523Y-76010771D02*
X1141428Y-76058390D01*
X1141428Y-76058390D02*
X1065237Y-76106009D01*
X1065237Y-76106009D02*
X798571Y-76106009D01*
X2017618Y-76629819D02*
X1560475Y-76629819D01*
X1789047Y-76629819D02*
X1789047Y-75629819D01*
X1789047Y-75629819D02*
X1712856Y-75772676D01*
X1712856Y-75772676D02*
X1636666Y-75867914D01*
X1636666Y-75867914D02*
X1560475Y-75915533D01*
X2703333Y-75629819D02*
X2550952Y-75629819D01*
X2550952Y-75629819D02*
X2474761Y-75677438D01*
X2474761Y-75677438D02*
X2436666Y-75725057D01*
X2436666Y-75725057D02*
X2360476Y-75867914D01*
X2360476Y-75867914D02*
X2322380Y-76058390D01*
X2322380Y-76058390D02*
X2322380Y-76439342D01*
X2322380Y-76439342D02*
X2360476Y-76534580D01*
X2360476Y-76534580D02*
X2398571Y-76582200D01*
X2398571Y-76582200D02*
X2474761Y-76629819D01*
X2474761Y-76629819D02*
X2627142Y-76629819D01*
X2627142Y-76629819D02*
X2703333Y-76582200D01*
X2703333Y-76582200D02*
X2741428Y-76534580D01*
X2741428Y-76534580D02*
X2779523Y-76439342D01*
X2779523Y-76439342D02*
X2779523Y-76201247D01*
X2779523Y-76201247D02*
X2741428Y-76106009D01*
X2741428Y-76106009D02*
X2703333Y-76058390D01*
X2703333Y-76058390D02*
X2627142Y-76010771D01*
X2627142Y-76010771D02*
X2474761Y-76010771D01*
X2474761Y-76010771D02*
X2398571Y-76058390D01*
X2398571Y-76058390D02*
X2360476Y-76106009D01*
X2360476Y-76106009D02*
X2322380Y-76201247D01*
X4176666Y-13129819D02*
X3795714Y-13129819D01*
X3795714Y-13129819D02*
X3795714Y-12129819D01*
X4862380Y-13129819D02*
X4405237Y-13129819D01*
X4633809Y-13129819D02*
X4633809Y-12129819D01*
X4633809Y-12129819D02*
X4557618Y-12272676D01*
X4557618Y-12272676D02*
X4481428Y-12367914D01*
X4481428Y-12367914D02*
X4405237Y-12415533D01*
X6716666Y-13129819D02*
X6335714Y-13129819D01*
X6335714Y-13129819D02*
X6335714Y-12129819D01*
X6945237Y-12225057D02*
X6983333Y-12177438D01*
X6983333Y-12177438D02*
X7059523Y-12129819D01*
X7059523Y-12129819D02*
X7249999Y-12129819D01*
X7249999Y-12129819D02*
X7326190Y-12177438D01*
X7326190Y-12177438D02*
X7364285Y-12225057D01*
X7364285Y-12225057D02*
X7402380Y-12320295D01*
X7402380Y-12320295D02*
X7402380Y-12415533D01*
X7402380Y-12415533D02*
X7364285Y-12558390D01*
X7364285Y-12558390D02*
X6907142Y-13129819D01*
X6907142Y-13129819D02*
X7402380Y-13129819D01*
X9256666Y-13129819D02*
X8875714Y-13129819D01*
X8875714Y-13129819D02*
X8875714Y-12129819D01*
X9447142Y-12129819D02*
X9942380Y-12129819D01*
X9942380Y-12129819D02*
X9675714Y-12510771D01*
X9675714Y-12510771D02*
X9789999Y-12510771D01*
X9789999Y-12510771D02*
X9866190Y-12558390D01*
X9866190Y-12558390D02*
X9904285Y-12606009D01*
X9904285Y-12606009D02*
X9942380Y-12701247D01*
X9942380Y-12701247D02*
X9942380Y-12939342D01*
X9942380Y-12939342D02*
X9904285Y-13034580D01*
X9904285Y-13034580D02*
X9866190Y-13082200D01*
X9866190Y-13082200D02*
X9789999Y-13129819D01*
X9789999Y-13129819D02*
X9561428Y-13129819D01*
X9561428Y-13129819D02*
X9485237Y-13082200D01*
X9485237Y-13082200D02*
X9447142Y-13034580D01*
X11796666Y-13129819D02*
X11415714Y-13129819D01*
X11415714Y-13129819D02*
X11415714Y-12129819D01*
X12406190Y-12463152D02*
X12406190Y-13129819D01*
X12215714Y-12082200D02*
X12025237Y-12796485D01*
X12025237Y-12796485D02*
X12520476Y-12796485D01*
X14336666Y-13129819D02*
X13955714Y-13129819D01*
X13955714Y-13129819D02*
X13955714Y-12129819D01*
X14984285Y-12129819D02*
X14603333Y-12129819D01*
X14603333Y-12129819D02*
X14565237Y-12606009D01*
X14565237Y-12606009D02*
X14603333Y-12558390D01*
X14603333Y-12558390D02*
X14679523Y-12510771D01*
X14679523Y-12510771D02*
X14869999Y-12510771D01*
X14869999Y-12510771D02*
X14946190Y-12558390D01*
X14946190Y-12558390D02*
X14984285Y-12606009D01*
X14984285Y-12606009D02*
X15022380Y-12701247D01*
X15022380Y-12701247D02*
X15022380Y-12939342D01*
X15022380Y-12939342D02*
X14984285Y-13034580D01*
X14984285Y-13034580D02*
X14946190Y-13082200D01*
X14946190Y-13082200D02*
X14869999Y-13129819D01*
X14869999Y-13129819D02*
X14679523Y-13129819D01*
X14679523Y-13129819D02*
X14603333Y-13082200D01*
X14603333Y-13082200D02*
X14565237Y-13034580D01*
X16876666Y-13129819D02*
X16495714Y-13129819D01*
X16495714Y-13129819D02*
X16495714Y-12129819D01*
X17486190Y-12129819D02*
X17333809Y-12129819D01*
X17333809Y-12129819D02*
X17257618Y-12177438D01*
X17257618Y-12177438D02*
X17219523Y-12225057D01*
X17219523Y-12225057D02*
X17143333Y-12367914D01*
X17143333Y-12367914D02*
X17105237Y-12558390D01*
X17105237Y-12558390D02*
X17105237Y-12939342D01*
X17105237Y-12939342D02*
X17143333Y-13034580D01*
X17143333Y-13034580D02*
X17181428Y-13082200D01*
X17181428Y-13082200D02*
X17257618Y-13129819D01*
X17257618Y-13129819D02*
X17409999Y-13129819D01*
X17409999Y-13129819D02*
X17486190Y-13082200D01*
X17486190Y-13082200D02*
X17524285Y-13034580D01*
X17524285Y-13034580D02*
X17562380Y-12939342D01*
X17562380Y-12939342D02*
X17562380Y-12701247D01*
X17562380Y-12701247D02*
X17524285Y-12606009D01*
X17524285Y-12606009D02*
X17486190Y-12558390D01*
X17486190Y-12558390D02*
X17409999Y-12510771D01*
X17409999Y-12510771D02*
X17257618Y-12510771D01*
X17257618Y-12510771D02*
X17181428Y-12558390D01*
X17181428Y-12558390D02*
X17143333Y-12606009D01*
X17143333Y-12606009D02*
X17105237Y-12701247D01*
X5841903Y-90060152D02*
X5841903Y-90869676D01*
X5841903Y-90869676D02*
X5803808Y-90964914D01*
X5803808Y-90964914D02*
X5765712Y-91012533D01*
X5765712Y-91012533D02*
X5689522Y-91060152D01*
X5689522Y-91060152D02*
X5575236Y-91060152D01*
X5575236Y-91060152D02*
X5499046Y-91012533D01*
X5841903Y-90679200D02*
X5765712Y-90726819D01*
X5765712Y-90726819D02*
X5613331Y-90726819D01*
X5613331Y-90726819D02*
X5537141Y-90679200D01*
X5537141Y-90679200D02*
X5499046Y-90631580D01*
X5499046Y-90631580D02*
X5460950Y-90536342D01*
X5460950Y-90536342D02*
X5460950Y-90250628D01*
X5460950Y-90250628D02*
X5499046Y-90155390D01*
X5499046Y-90155390D02*
X5537141Y-90107771D01*
X5537141Y-90107771D02*
X5613331Y-90060152D01*
X5613331Y-90060152D02*
X5765712Y-90060152D01*
X5765712Y-90060152D02*
X5841903Y-90107771D01*
X6222856Y-90726819D02*
X6222856Y-90060152D01*
X6222856Y-89726819D02*
X6184760Y-89774438D01*
X6184760Y-89774438D02*
X6222856Y-89822057D01*
X6222856Y-89822057D02*
X6260951Y-89774438D01*
X6260951Y-89774438D02*
X6222856Y-89726819D01*
X6222856Y-89726819D02*
X6222856Y-89822057D01*
X6489522Y-90060152D02*
X6794284Y-90060152D01*
X6603808Y-89726819D02*
X6603808Y-90583961D01*
X6603808Y-90583961D02*
X6641903Y-90679200D01*
X6641903Y-90679200D02*
X6718093Y-90726819D01*
X6718093Y-90726819D02*
X6794284Y-90726819D01*
X7060951Y-90726819D02*
X7060951Y-89726819D01*
X7403808Y-90726819D02*
X7403808Y-90203009D01*
X7403808Y-90203009D02*
X7365713Y-90107771D01*
X7365713Y-90107771D02*
X7289522Y-90060152D01*
X7289522Y-90060152D02*
X7175236Y-90060152D01*
X7175236Y-90060152D02*
X7099046Y-90107771D01*
X7099046Y-90107771D02*
X7060951Y-90155390D01*
X8127618Y-90060152D02*
X8127618Y-90726819D01*
X7784761Y-90060152D02*
X7784761Y-90583961D01*
X7784761Y-90583961D02*
X7822856Y-90679200D01*
X7822856Y-90679200D02*
X7899046Y-90726819D01*
X7899046Y-90726819D02*
X8013332Y-90726819D01*
X8013332Y-90726819D02*
X8089523Y-90679200D01*
X8089523Y-90679200D02*
X8127618Y-90631580D01*
X8508571Y-90726819D02*
X8508571Y-89726819D01*
X8508571Y-90107771D02*
X8584761Y-90060152D01*
X8584761Y-90060152D02*
X8737142Y-90060152D01*
X8737142Y-90060152D02*
X8813333Y-90107771D01*
X8813333Y-90107771D02*
X8851428Y-90155390D01*
X8851428Y-90155390D02*
X8889523Y-90250628D01*
X8889523Y-90250628D02*
X8889523Y-90536342D01*
X8889523Y-90536342D02*
X8851428Y-90631580D01*
X8851428Y-90631580D02*
X8813333Y-90679200D01*
X8813333Y-90679200D02*
X8737142Y-90726819D01*
X8737142Y-90726819D02*
X8584761Y-90726819D01*
X8584761Y-90726819D02*
X8508571Y-90679200D01*
X9232381Y-90631580D02*
X9270476Y-90679200D01*
X9270476Y-90679200D02*
X9232381Y-90726819D01*
X9232381Y-90726819D02*
X9194285Y-90679200D01*
X9194285Y-90679200D02*
X9232381Y-90631580D01*
X9232381Y-90631580D02*
X9232381Y-90726819D01*
X9956190Y-90679200D02*
X9879999Y-90726819D01*
X9879999Y-90726819D02*
X9727618Y-90726819D01*
X9727618Y-90726819D02*
X9651428Y-90679200D01*
X9651428Y-90679200D02*
X9613333Y-90631580D01*
X9613333Y-90631580D02*
X9575237Y-90536342D01*
X9575237Y-90536342D02*
X9575237Y-90250628D01*
X9575237Y-90250628D02*
X9613333Y-90155390D01*
X9613333Y-90155390D02*
X9651428Y-90107771D01*
X9651428Y-90107771D02*
X9727618Y-90060152D01*
X9727618Y-90060152D02*
X9879999Y-90060152D01*
X9879999Y-90060152D02*
X9956190Y-90107771D01*
X10413332Y-90726819D02*
X10337142Y-90679200D01*
X10337142Y-90679200D02*
X10299047Y-90631580D01*
X10299047Y-90631580D02*
X10260951Y-90536342D01*
X10260951Y-90536342D02*
X10260951Y-90250628D01*
X10260951Y-90250628D02*
X10299047Y-90155390D01*
X10299047Y-90155390D02*
X10337142Y-90107771D01*
X10337142Y-90107771D02*
X10413332Y-90060152D01*
X10413332Y-90060152D02*
X10527618Y-90060152D01*
X10527618Y-90060152D02*
X10603809Y-90107771D01*
X10603809Y-90107771D02*
X10641904Y-90155390D01*
X10641904Y-90155390D02*
X10679999Y-90250628D01*
X10679999Y-90250628D02*
X10679999Y-90536342D01*
X10679999Y-90536342D02*
X10641904Y-90631580D01*
X10641904Y-90631580D02*
X10603809Y-90679200D01*
X10603809Y-90679200D02*
X10527618Y-90726819D01*
X10527618Y-90726819D02*
X10413332Y-90726819D01*
X11022857Y-90726819D02*
X11022857Y-90060152D01*
X11022857Y-90155390D02*
X11060952Y-90107771D01*
X11060952Y-90107771D02*
X11137142Y-90060152D01*
X11137142Y-90060152D02*
X11251428Y-90060152D01*
X11251428Y-90060152D02*
X11327619Y-90107771D01*
X11327619Y-90107771D02*
X11365714Y-90203009D01*
X11365714Y-90203009D02*
X11365714Y-90726819D01*
X11365714Y-90203009D02*
X11403809Y-90107771D01*
X11403809Y-90107771D02*
X11480000Y-90060152D01*
X11480000Y-90060152D02*
X11594285Y-90060152D01*
X11594285Y-90060152D02*
X11670476Y-90107771D01*
X11670476Y-90107771D02*
X11708571Y-90203009D01*
X11708571Y-90203009D02*
X11708571Y-90726819D01*
X12660952Y-89679200D02*
X11975238Y-90964914D01*
X13041904Y-90726819D02*
X12965714Y-90679200D01*
X12965714Y-90679200D02*
X12927619Y-90631580D01*
X12927619Y-90631580D02*
X12889523Y-90536342D01*
X12889523Y-90536342D02*
X12889523Y-90250628D01*
X12889523Y-90250628D02*
X12927619Y-90155390D01*
X12927619Y-90155390D02*
X12965714Y-90107771D01*
X12965714Y-90107771D02*
X13041904Y-90060152D01*
X13041904Y-90060152D02*
X13156190Y-90060152D01*
X13156190Y-90060152D02*
X13232381Y-90107771D01*
X13232381Y-90107771D02*
X13270476Y-90155390D01*
X13270476Y-90155390D02*
X13308571Y-90250628D01*
X13308571Y-90250628D02*
X13308571Y-90536342D01*
X13308571Y-90536342D02*
X13270476Y-90631580D01*
X13270476Y-90631580D02*
X13232381Y-90679200D01*
X13232381Y-90679200D02*
X13156190Y-90726819D01*
X13156190Y-90726819D02*
X13041904Y-90726819D01*
X13651429Y-90726819D02*
X13651429Y-89726819D01*
X13994286Y-90726819D02*
X13994286Y-90203009D01*
X13994286Y-90203009D02*
X13956191Y-90107771D01*
X13956191Y-90107771D02*
X13880000Y-90060152D01*
X13880000Y-90060152D02*
X13765714Y-90060152D01*
X13765714Y-90060152D02*
X13689524Y-90107771D01*
X13689524Y-90107771D02*
X13651429Y-90155390D01*
X14375239Y-90726819D02*
X14375239Y-90060152D01*
X14375239Y-90155390D02*
X14413334Y-90107771D01*
X14413334Y-90107771D02*
X14489524Y-90060152D01*
X14489524Y-90060152D02*
X14603810Y-90060152D01*
X14603810Y-90060152D02*
X14680001Y-90107771D01*
X14680001Y-90107771D02*
X14718096Y-90203009D01*
X14718096Y-90203009D02*
X14718096Y-90726819D01*
X14718096Y-90203009D02*
X14756191Y-90107771D01*
X14756191Y-90107771D02*
X14832382Y-90060152D01*
X14832382Y-90060152D02*
X14946667Y-90060152D01*
X14946667Y-90060152D02*
X15022858Y-90107771D01*
X15022858Y-90107771D02*
X15060953Y-90203009D01*
X15060953Y-90203009D02*
X15060953Y-90726819D01*
X15327620Y-90060152D02*
X15632382Y-90060152D01*
X15441906Y-89726819D02*
X15441906Y-90583961D01*
X15441906Y-90583961D02*
X15480001Y-90679200D01*
X15480001Y-90679200D02*
X15556191Y-90726819D01*
X15556191Y-90726819D02*
X15632382Y-90726819D01*
X16203811Y-90679200D02*
X16127620Y-90726819D01*
X16127620Y-90726819D02*
X15975239Y-90726819D01*
X15975239Y-90726819D02*
X15899049Y-90679200D01*
X15899049Y-90679200D02*
X15860953Y-90583961D01*
X15860953Y-90583961D02*
X15860953Y-90203009D01*
X15860953Y-90203009D02*
X15899049Y-90107771D01*
X15899049Y-90107771D02*
X15975239Y-90060152D01*
X15975239Y-90060152D02*
X16127620Y-90060152D01*
X16127620Y-90060152D02*
X16203811Y-90107771D01*
X16203811Y-90107771D02*
X16241906Y-90203009D01*
X16241906Y-90203009D02*
X16241906Y-90298247D01*
X16241906Y-90298247D02*
X15860953Y-90393485D01*
X16927620Y-90679200D02*
X16851429Y-90726819D01*
X16851429Y-90726819D02*
X16699048Y-90726819D01*
X16699048Y-90726819D02*
X16622858Y-90679200D01*
X16622858Y-90679200D02*
X16584763Y-90631580D01*
X16584763Y-90631580D02*
X16546667Y-90536342D01*
X16546667Y-90536342D02*
X16546667Y-90250628D01*
X16546667Y-90250628D02*
X16584763Y-90155390D01*
X16584763Y-90155390D02*
X16622858Y-90107771D01*
X16622858Y-90107771D02*
X16699048Y-90060152D01*
X16699048Y-90060152D02*
X16851429Y-90060152D01*
X16851429Y-90060152D02*
X16927620Y-90107771D01*
X17270477Y-90726819D02*
X17270477Y-89726819D01*
X17613334Y-90726819D02*
X17613334Y-90203009D01*
X17613334Y-90203009D02*
X17575239Y-90107771D01*
X17575239Y-90107771D02*
X17499048Y-90060152D01*
X17499048Y-90060152D02*
X17384762Y-90060152D01*
X17384762Y-90060152D02*
X17308572Y-90107771D01*
X17308572Y-90107771D02*
X17270477Y-90155390D01*
X17994287Y-90345866D02*
X18603811Y-90345866D01*
X18984763Y-90726819D02*
X18984763Y-90060152D01*
X18984763Y-90250628D02*
X19022858Y-90155390D01*
X19022858Y-90155390D02*
X19060953Y-90107771D01*
X19060953Y-90107771D02*
X19137144Y-90060152D01*
X19137144Y-90060152D02*
X19213334Y-90060152D01*
X19822858Y-90726819D02*
X19822858Y-89726819D01*
X19822858Y-90679200D02*
X19746667Y-90726819D01*
X19746667Y-90726819D02*
X19594286Y-90726819D01*
X19594286Y-90726819D02*
X19518096Y-90679200D01*
X19518096Y-90679200D02*
X19480001Y-90631580D01*
X19480001Y-90631580D02*
X19441905Y-90536342D01*
X19441905Y-90536342D02*
X19441905Y-90250628D01*
X19441905Y-90250628D02*
X19480001Y-90155390D01*
X19480001Y-90155390D02*
X19518096Y-90107771D01*
X19518096Y-90107771D02*
X19594286Y-90060152D01*
X19594286Y-90060152D02*
X19746667Y-90060152D01*
X19746667Y-90060152D02*
X19822858Y-90107771D01*
X20203811Y-90726819D02*
X20203811Y-90060152D01*
X20203811Y-89726819D02*
X20165715Y-89774438D01*
X20165715Y-89774438D02*
X20203811Y-89822057D01*
X20203811Y-89822057D02*
X20241906Y-89774438D01*
X20241906Y-89774438D02*
X20203811Y-89726819D01*
X20203811Y-89726819D02*
X20203811Y-89822057D01*
X21156191Y-89679200D02*
X20470477Y-90964914D01*
X21727620Y-90679200D02*
X21651429Y-90726819D01*
X21651429Y-90726819D02*
X21499048Y-90726819D01*
X21499048Y-90726819D02*
X21422858Y-90679200D01*
X21422858Y-90679200D02*
X21384762Y-90583961D01*
X21384762Y-90583961D02*
X21384762Y-90203009D01*
X21384762Y-90203009D02*
X21422858Y-90107771D01*
X21422858Y-90107771D02*
X21499048Y-90060152D01*
X21499048Y-90060152D02*
X21651429Y-90060152D01*
X21651429Y-90060152D02*
X21727620Y-90107771D01*
X21727620Y-90107771D02*
X21765715Y-90203009D01*
X21765715Y-90203009D02*
X21765715Y-90298247D01*
X21765715Y-90298247D02*
X21384762Y-90393485D01*
X22451429Y-90060152D02*
X22451429Y-90726819D01*
X22108572Y-90060152D02*
X22108572Y-90583961D01*
X22108572Y-90583961D02*
X22146667Y-90679200D01*
X22146667Y-90679200D02*
X22222857Y-90726819D01*
X22222857Y-90726819D02*
X22337143Y-90726819D01*
X22337143Y-90726819D02*
X22413334Y-90679200D01*
X22413334Y-90679200D02*
X22451429Y-90631580D01*
X22832382Y-90726819D02*
X22832382Y-90060152D01*
X22832382Y-90250628D02*
X22870477Y-90155390D01*
X22870477Y-90155390D02*
X22908572Y-90107771D01*
X22908572Y-90107771D02*
X22984763Y-90060152D01*
X22984763Y-90060152D02*
X23060953Y-90060152D01*
X23441905Y-90726819D02*
X23365715Y-90679200D01*
X23365715Y-90679200D02*
X23327620Y-90631580D01*
X23327620Y-90631580D02*
X23289524Y-90536342D01*
X23289524Y-90536342D02*
X23289524Y-90250628D01*
X23289524Y-90250628D02*
X23327620Y-90155390D01*
X23327620Y-90155390D02*
X23365715Y-90107771D01*
X23365715Y-90107771D02*
X23441905Y-90060152D01*
X23441905Y-90060152D02*
X23556191Y-90060152D01*
X23556191Y-90060152D02*
X23632382Y-90107771D01*
X23632382Y-90107771D02*
X23670477Y-90155390D01*
X23670477Y-90155390D02*
X23708572Y-90250628D01*
X23708572Y-90250628D02*
X23708572Y-90536342D01*
X23708572Y-90536342D02*
X23670477Y-90631580D01*
X23670477Y-90631580D02*
X23632382Y-90679200D01*
X23632382Y-90679200D02*
X23556191Y-90726819D01*
X23556191Y-90726819D02*
X23441905Y-90726819D01*
X24051430Y-90726819D02*
X24051430Y-90060152D01*
X24051430Y-90250628D02*
X24089525Y-90155390D01*
X24089525Y-90155390D02*
X24127620Y-90107771D01*
X24127620Y-90107771D02*
X24203811Y-90060152D01*
X24203811Y-90060152D02*
X24280001Y-90060152D01*
X24889525Y-90726819D02*
X24889525Y-90203009D01*
X24889525Y-90203009D02*
X24851430Y-90107771D01*
X24851430Y-90107771D02*
X24775239Y-90060152D01*
X24775239Y-90060152D02*
X24622858Y-90060152D01*
X24622858Y-90060152D02*
X24546668Y-90107771D01*
X24889525Y-90679200D02*
X24813334Y-90726819D01*
X24813334Y-90726819D02*
X24622858Y-90726819D01*
X24622858Y-90726819D02*
X24546668Y-90679200D01*
X24546668Y-90679200D02*
X24508572Y-90583961D01*
X24508572Y-90583961D02*
X24508572Y-90488723D01*
X24508572Y-90488723D02*
X24546668Y-90393485D01*
X24546668Y-90393485D02*
X24622858Y-90345866D01*
X24622858Y-90345866D02*
X24813334Y-90345866D01*
X24813334Y-90345866D02*
X24889525Y-90298247D01*
X25613335Y-90679200D02*
X25537144Y-90726819D01*
X25537144Y-90726819D02*
X25384763Y-90726819D01*
X25384763Y-90726819D02*
X25308573Y-90679200D01*
X25308573Y-90679200D02*
X25270478Y-90631580D01*
X25270478Y-90631580D02*
X25232382Y-90536342D01*
X25232382Y-90536342D02*
X25232382Y-90250628D01*
X25232382Y-90250628D02*
X25270478Y-90155390D01*
X25270478Y-90155390D02*
X25308573Y-90107771D01*
X25308573Y-90107771D02*
X25384763Y-90060152D01*
X25384763Y-90060152D02*
X25537144Y-90060152D01*
X25537144Y-90060152D02*
X25613335Y-90107771D01*
X25956192Y-90726819D02*
X25956192Y-89726819D01*
X26032382Y-90345866D02*
X26260954Y-90726819D01*
X26260954Y-90060152D02*
X25956192Y-90441104D01*
X26603811Y-90345866D02*
X27213335Y-90345866D01*
X27594287Y-90726819D02*
X27594287Y-89726819D01*
X27594287Y-90107771D02*
X27670477Y-90060152D01*
X27670477Y-90060152D02*
X27822858Y-90060152D01*
X27822858Y-90060152D02*
X27899049Y-90107771D01*
X27899049Y-90107771D02*
X27937144Y-90155390D01*
X27937144Y-90155390D02*
X27975239Y-90250628D01*
X27975239Y-90250628D02*
X27975239Y-90536342D01*
X27975239Y-90536342D02*
X27937144Y-90631580D01*
X27937144Y-90631580D02*
X27899049Y-90679200D01*
X27899049Y-90679200D02*
X27822858Y-90726819D01*
X27822858Y-90726819D02*
X27670477Y-90726819D01*
X27670477Y-90726819D02*
X27594287Y-90679200D01*
X28432382Y-90726819D02*
X28356192Y-90679200D01*
X28356192Y-90679200D02*
X28318097Y-90583961D01*
X28318097Y-90583961D02*
X28318097Y-89726819D01*
X28851430Y-90726819D02*
X28775240Y-90679200D01*
X28775240Y-90679200D02*
X28737145Y-90631580D01*
X28737145Y-90631580D02*
X28699049Y-90536342D01*
X28699049Y-90536342D02*
X28699049Y-90250628D01*
X28699049Y-90250628D02*
X28737145Y-90155390D01*
X28737145Y-90155390D02*
X28775240Y-90107771D01*
X28775240Y-90107771D02*
X28851430Y-90060152D01*
X28851430Y-90060152D02*
X28965716Y-90060152D01*
X28965716Y-90060152D02*
X29041907Y-90107771D01*
X29041907Y-90107771D02*
X29080002Y-90155390D01*
X29080002Y-90155390D02*
X29118097Y-90250628D01*
X29118097Y-90250628D02*
X29118097Y-90536342D01*
X29118097Y-90536342D02*
X29080002Y-90631580D01*
X29080002Y-90631580D02*
X29041907Y-90679200D01*
X29041907Y-90679200D02*
X28965716Y-90726819D01*
X28965716Y-90726819D02*
X28851430Y-90726819D01*
X29803812Y-90679200D02*
X29727621Y-90726819D01*
X29727621Y-90726819D02*
X29575240Y-90726819D01*
X29575240Y-90726819D02*
X29499050Y-90679200D01*
X29499050Y-90679200D02*
X29460955Y-90631580D01*
X29460955Y-90631580D02*
X29422859Y-90536342D01*
X29422859Y-90536342D02*
X29422859Y-90250628D01*
X29422859Y-90250628D02*
X29460955Y-90155390D01*
X29460955Y-90155390D02*
X29499050Y-90107771D01*
X29499050Y-90107771D02*
X29575240Y-90060152D01*
X29575240Y-90060152D02*
X29727621Y-90060152D01*
X29727621Y-90060152D02*
X29803812Y-90107771D01*
X30146669Y-90726819D02*
X30146669Y-89726819D01*
X30222859Y-90345866D02*
X30451431Y-90726819D01*
X30451431Y-90060152D02*
X30146669Y-90441104D01*
X30756192Y-90679200D02*
X30832383Y-90726819D01*
X30832383Y-90726819D02*
X30984764Y-90726819D01*
X30984764Y-90726819D02*
X31060954Y-90679200D01*
X31060954Y-90679200D02*
X31099050Y-90583961D01*
X31099050Y-90583961D02*
X31099050Y-90536342D01*
X31099050Y-90536342D02*
X31060954Y-90441104D01*
X31060954Y-90441104D02*
X30984764Y-90393485D01*
X30984764Y-90393485D02*
X30870478Y-90393485D01*
X30870478Y-90393485D02*
X30794288Y-90345866D01*
X30794288Y-90345866D02*
X30756192Y-90250628D01*
X30756192Y-90250628D02*
X30756192Y-90203009D01*
X30756192Y-90203009D02*
X30794288Y-90107771D01*
X30794288Y-90107771D02*
X30870478Y-90060152D01*
X30870478Y-90060152D02*
X30984764Y-90060152D01*
X30984764Y-90060152D02*
X31060954Y-90107771D01*
X19416666Y-13129819D02*
X19035714Y-13129819D01*
X19035714Y-13129819D02*
X19035714Y-12129819D01*
X19607142Y-12129819D02*
X20140476Y-12129819D01*
X20140476Y-12129819D02*
X19797618Y-13129819D01*
X21956666Y-13129819D02*
X21575714Y-13129819D01*
X21575714Y-13129819D02*
X21575714Y-12129819D01*
X22337618Y-12558390D02*
X22261428Y-12510771D01*
X22261428Y-12510771D02*
X22223333Y-12463152D01*
X22223333Y-12463152D02*
X22185237Y-12367914D01*
X22185237Y-12367914D02*
X22185237Y-12320295D01*
X22185237Y-12320295D02*
X22223333Y-12225057D01*
X22223333Y-12225057D02*
X22261428Y-12177438D01*
X22261428Y-12177438D02*
X22337618Y-12129819D01*
X22337618Y-12129819D02*
X22489999Y-12129819D01*
X22489999Y-12129819D02*
X22566190Y-12177438D01*
X22566190Y-12177438D02*
X22604285Y-12225057D01*
X22604285Y-12225057D02*
X22642380Y-12320295D01*
X22642380Y-12320295D02*
X22642380Y-12367914D01*
X22642380Y-12367914D02*
X22604285Y-12463152D01*
X22604285Y-12463152D02*
X22566190Y-12510771D01*
X22566190Y-12510771D02*
X22489999Y-12558390D01*
X22489999Y-12558390D02*
X22337618Y-12558390D01*
X22337618Y-12558390D02*
X22261428Y-12606009D01*
X22261428Y-12606009D02*
X22223333Y-12653628D01*
X22223333Y-12653628D02*
X22185237Y-12748866D01*
X22185237Y-12748866D02*
X22185237Y-12939342D01*
X22185237Y-12939342D02*
X22223333Y-13034580D01*
X22223333Y-13034580D02*
X22261428Y-13082200D01*
X22261428Y-13082200D02*
X22337618Y-13129819D01*
X22337618Y-13129819D02*
X22489999Y-13129819D01*
X22489999Y-13129819D02*
X22566190Y-13082200D01*
X22566190Y-13082200D02*
X22604285Y-13034580D01*
X22604285Y-13034580D02*
X22642380Y-12939342D01*
X22642380Y-12939342D02*
X22642380Y-12748866D01*
X22642380Y-12748866D02*
X22604285Y-12653628D01*
X22604285Y-12653628D02*
X22566190Y-12606009D01*
X22566190Y-12606009D02*
X22489999Y-12558390D01*
X30370476Y-12177438D02*
X30294286Y-12129819D01*
X30294286Y-12129819D02*
X30180000Y-12129819D01*
X30180000Y-12129819D02*
X30065714Y-12177438D01*
X30065714Y-12177438D02*
X29989524Y-12272676D01*
X29989524Y-12272676D02*
X29951429Y-12367914D01*
X29951429Y-12367914D02*
X29913333Y-12558390D01*
X29913333Y-12558390D02*
X29913333Y-12701247D01*
X29913333Y-12701247D02*
X29951429Y-12891723D01*
X29951429Y-12891723D02*
X29989524Y-12986961D01*
X29989524Y-12986961D02*
X30065714Y-13082200D01*
X30065714Y-13082200D02*
X30180000Y-13129819D01*
X30180000Y-13129819D02*
X30256191Y-13129819D01*
X30256191Y-13129819D02*
X30370476Y-13082200D01*
X30370476Y-13082200D02*
X30408572Y-13034580D01*
X30408572Y-13034580D02*
X30408572Y-12701247D01*
X30408572Y-12701247D02*
X30256191Y-12701247D01*
X30751429Y-13129819D02*
X30751429Y-12129819D01*
X30751429Y-12129819D02*
X31208572Y-13129819D01*
X31208572Y-13129819D02*
X31208572Y-12129819D01*
X31589524Y-13129819D02*
X31589524Y-12129819D01*
X31589524Y-12129819D02*
X31780000Y-12129819D01*
X31780000Y-12129819D02*
X31894286Y-12177438D01*
X31894286Y-12177438D02*
X31970476Y-12272676D01*
X31970476Y-12272676D02*
X32008571Y-12367914D01*
X32008571Y-12367914D02*
X32046667Y-12558390D01*
X32046667Y-12558390D02*
X32046667Y-12701247D01*
X32046667Y-12701247D02*
X32008571Y-12891723D01*
X32008571Y-12891723D02*
X31970476Y-12986961D01*
X31970476Y-12986961D02*
X31894286Y-13082200D01*
X31894286Y-13082200D02*
X31780000Y-13129819D01*
X31780000Y-13129819D02*
X31589524Y-13129819D01*
X38466666Y-13129819D02*
X38085714Y-13129819D01*
X38085714Y-13129819D02*
X38085714Y-12129819D01*
X38771428Y-13129819D02*
X38923809Y-13129819D01*
X38923809Y-13129819D02*
X38999999Y-13082200D01*
X38999999Y-13082200D02*
X39038095Y-13034580D01*
X39038095Y-13034580D02*
X39114285Y-12891723D01*
X39114285Y-12891723D02*
X39152380Y-12701247D01*
X39152380Y-12701247D02*
X39152380Y-12320295D01*
X39152380Y-12320295D02*
X39114285Y-12225057D01*
X39114285Y-12225057D02*
X39076190Y-12177438D01*
X39076190Y-12177438D02*
X38999999Y-12129819D01*
X38999999Y-12129819D02*
X38847618Y-12129819D01*
X38847618Y-12129819D02*
X38771428Y-12177438D01*
X38771428Y-12177438D02*
X38733333Y-12225057D01*
X38733333Y-12225057D02*
X38695237Y-12320295D01*
X38695237Y-12320295D02*
X38695237Y-12558390D01*
X38695237Y-12558390D02*
X38733333Y-12653628D01*
X38733333Y-12653628D02*
X38771428Y-12701247D01*
X38771428Y-12701247D02*
X38847618Y-12748866D01*
X38847618Y-12748866D02*
X38999999Y-12748866D01*
X38999999Y-12748866D02*
X39076190Y-12701247D01*
X39076190Y-12701247D02*
X39114285Y-12653628D01*
X39114285Y-12653628D02*
X39152380Y-12558390D01*
X40625714Y-13129819D02*
X40244762Y-13129819D01*
X40244762Y-13129819D02*
X40244762Y-12129819D01*
X41311428Y-13129819D02*
X40854285Y-13129819D01*
X41082857Y-13129819D02*
X41082857Y-12129819D01*
X41082857Y-12129819D02*
X41006666Y-12272676D01*
X41006666Y-12272676D02*
X40930476Y-12367914D01*
X40930476Y-12367914D02*
X40854285Y-12415533D01*
X41806667Y-12129819D02*
X41882857Y-12129819D01*
X41882857Y-12129819D02*
X41959048Y-12177438D01*
X41959048Y-12177438D02*
X41997143Y-12225057D01*
X41997143Y-12225057D02*
X42035238Y-12320295D01*
X42035238Y-12320295D02*
X42073333Y-12510771D01*
X42073333Y-12510771D02*
X42073333Y-12748866D01*
X42073333Y-12748866D02*
X42035238Y-12939342D01*
X42035238Y-12939342D02*
X41997143Y-13034580D01*
X41997143Y-13034580D02*
X41959048Y-13082200D01*
X41959048Y-13082200D02*
X41882857Y-13129819D01*
X41882857Y-13129819D02*
X41806667Y-13129819D01*
X41806667Y-13129819D02*
X41730476Y-13082200D01*
X41730476Y-13082200D02*
X41692381Y-13034580D01*
X41692381Y-13034580D02*
X41654286Y-12939342D01*
X41654286Y-12939342D02*
X41616190Y-12748866D01*
X41616190Y-12748866D02*
X41616190Y-12510771D01*
X41616190Y-12510771D02*
X41654286Y-12320295D01*
X41654286Y-12320295D02*
X41692381Y-12225057D01*
X41692381Y-12225057D02*
X41730476Y-12177438D01*
X41730476Y-12177438D02*
X41806667Y-12129819D01*
X43165714Y-13129819D02*
X42784762Y-13129819D01*
X42784762Y-13129819D02*
X42784762Y-12129819D01*
X43851428Y-13129819D02*
X43394285Y-13129819D01*
X43622857Y-13129819D02*
X43622857Y-12129819D01*
X43622857Y-12129819D02*
X43546666Y-12272676D01*
X43546666Y-12272676D02*
X43470476Y-12367914D01*
X43470476Y-12367914D02*
X43394285Y-12415533D01*
X44613333Y-13129819D02*
X44156190Y-13129819D01*
X44384762Y-13129819D02*
X44384762Y-12129819D01*
X44384762Y-12129819D02*
X44308571Y-12272676D01*
X44308571Y-12272676D02*
X44232381Y-12367914D01*
X44232381Y-12367914D02*
X44156190Y-12415533D01*
X45705714Y-13129819D02*
X45324762Y-13129819D01*
X45324762Y-13129819D02*
X45324762Y-12129819D01*
X46391428Y-13129819D02*
X45934285Y-13129819D01*
X46162857Y-13129819D02*
X46162857Y-12129819D01*
X46162857Y-12129819D02*
X46086666Y-12272676D01*
X46086666Y-12272676D02*
X46010476Y-12367914D01*
X46010476Y-12367914D02*
X45934285Y-12415533D01*
X46696190Y-12225057D02*
X46734286Y-12177438D01*
X46734286Y-12177438D02*
X46810476Y-12129819D01*
X46810476Y-12129819D02*
X47000952Y-12129819D01*
X47000952Y-12129819D02*
X47077143Y-12177438D01*
X47077143Y-12177438D02*
X47115238Y-12225057D01*
X47115238Y-12225057D02*
X47153333Y-12320295D01*
X47153333Y-12320295D02*
X47153333Y-12415533D01*
X47153333Y-12415533D02*
X47115238Y-12558390D01*
X47115238Y-12558390D02*
X46658095Y-13129819D01*
X46658095Y-13129819D02*
X47153333Y-13129819D01*
X48245714Y-13129819D02*
X47864762Y-13129819D01*
X47864762Y-13129819D02*
X47864762Y-12129819D01*
X48931428Y-13129819D02*
X48474285Y-13129819D01*
X48702857Y-13129819D02*
X48702857Y-12129819D01*
X48702857Y-12129819D02*
X48626666Y-12272676D01*
X48626666Y-12272676D02*
X48550476Y-12367914D01*
X48550476Y-12367914D02*
X48474285Y-12415533D01*
X49198095Y-12129819D02*
X49693333Y-12129819D01*
X49693333Y-12129819D02*
X49426667Y-12510771D01*
X49426667Y-12510771D02*
X49540952Y-12510771D01*
X49540952Y-12510771D02*
X49617143Y-12558390D01*
X49617143Y-12558390D02*
X49655238Y-12606009D01*
X49655238Y-12606009D02*
X49693333Y-12701247D01*
X49693333Y-12701247D02*
X49693333Y-12939342D01*
X49693333Y-12939342D02*
X49655238Y-13034580D01*
X49655238Y-13034580D02*
X49617143Y-13082200D01*
X49617143Y-13082200D02*
X49540952Y-13129819D01*
X49540952Y-13129819D02*
X49312381Y-13129819D01*
X49312381Y-13129819D02*
X49236190Y-13082200D01*
X49236190Y-13082200D02*
X49198095Y-13034580D01*
X50785714Y-13129819D02*
X50404762Y-13129819D01*
X50404762Y-13129819D02*
X50404762Y-12129819D01*
X51471428Y-13129819D02*
X51014285Y-13129819D01*
X51242857Y-13129819D02*
X51242857Y-12129819D01*
X51242857Y-12129819D02*
X51166666Y-12272676D01*
X51166666Y-12272676D02*
X51090476Y-12367914D01*
X51090476Y-12367914D02*
X51014285Y-12415533D01*
X52157143Y-12463152D02*
X52157143Y-13129819D01*
X51966667Y-12082200D02*
X51776190Y-12796485D01*
X51776190Y-12796485D02*
X52271429Y-12796485D01*
X52233571Y-82032037D02*
X52347857Y-82079656D01*
X52347857Y-82079656D02*
X52385952Y-82127275D01*
X52385952Y-82127275D02*
X52424048Y-82222513D01*
X52424048Y-82222513D02*
X52424048Y-82365370D01*
X52424048Y-82365370D02*
X52385952Y-82460608D01*
X52385952Y-82460608D02*
X52347857Y-82508228D01*
X52347857Y-82508228D02*
X52271667Y-82555847D01*
X52271667Y-82555847D02*
X51966905Y-82555847D01*
X51966905Y-82555847D02*
X51966905Y-81555847D01*
X51966905Y-81555847D02*
X52233571Y-81555847D01*
X52233571Y-81555847D02*
X52309762Y-81603466D01*
X52309762Y-81603466D02*
X52347857Y-81651085D01*
X52347857Y-81651085D02*
X52385952Y-81746323D01*
X52385952Y-81746323D02*
X52385952Y-81841561D01*
X52385952Y-81841561D02*
X52347857Y-81936799D01*
X52347857Y-81936799D02*
X52309762Y-81984418D01*
X52309762Y-81984418D02*
X52233571Y-82032037D01*
X52233571Y-82032037D02*
X51966905Y-82032037D01*
X53109762Y-82555847D02*
X53109762Y-82032037D01*
X53109762Y-82032037D02*
X53071667Y-81936799D01*
X53071667Y-81936799D02*
X52995476Y-81889180D01*
X52995476Y-81889180D02*
X52843095Y-81889180D01*
X52843095Y-81889180D02*
X52766905Y-81936799D01*
X53109762Y-82508228D02*
X53033571Y-82555847D01*
X53033571Y-82555847D02*
X52843095Y-82555847D01*
X52843095Y-82555847D02*
X52766905Y-82508228D01*
X52766905Y-82508228D02*
X52728809Y-82412989D01*
X52728809Y-82412989D02*
X52728809Y-82317751D01*
X52728809Y-82317751D02*
X52766905Y-82222513D01*
X52766905Y-82222513D02*
X52843095Y-82174894D01*
X52843095Y-82174894D02*
X53033571Y-82174894D01*
X53033571Y-82174894D02*
X53109762Y-82127275D01*
X53833572Y-82508228D02*
X53757381Y-82555847D01*
X53757381Y-82555847D02*
X53605000Y-82555847D01*
X53605000Y-82555847D02*
X53528810Y-82508228D01*
X53528810Y-82508228D02*
X53490715Y-82460608D01*
X53490715Y-82460608D02*
X53452619Y-82365370D01*
X53452619Y-82365370D02*
X53452619Y-82079656D01*
X53452619Y-82079656D02*
X53490715Y-81984418D01*
X53490715Y-81984418D02*
X53528810Y-81936799D01*
X53528810Y-81936799D02*
X53605000Y-81889180D01*
X53605000Y-81889180D02*
X53757381Y-81889180D01*
X53757381Y-81889180D02*
X53833572Y-81936799D01*
X54176429Y-82555847D02*
X54176429Y-81555847D01*
X54252619Y-82174894D02*
X54481191Y-82555847D01*
X54481191Y-81889180D02*
X54176429Y-82270132D01*
X52043095Y-84118172D02*
X51966904Y-84165791D01*
X51966904Y-84165791D02*
X51814523Y-84165791D01*
X51814523Y-84165791D02*
X51738333Y-84118172D01*
X51738333Y-84118172D02*
X51700237Y-84022933D01*
X51700237Y-84022933D02*
X51700237Y-83641981D01*
X51700237Y-83641981D02*
X51738333Y-83546743D01*
X51738333Y-83546743D02*
X51814523Y-83499124D01*
X51814523Y-83499124D02*
X51966904Y-83499124D01*
X51966904Y-83499124D02*
X52043095Y-83546743D01*
X52043095Y-83546743D02*
X52081190Y-83641981D01*
X52081190Y-83641981D02*
X52081190Y-83737219D01*
X52081190Y-83737219D02*
X51700237Y-83832457D01*
X52424047Y-84165791D02*
X52424047Y-83165791D01*
X52424047Y-83165791D02*
X52690713Y-83880076D01*
X52690713Y-83880076D02*
X52957380Y-83165791D01*
X52957380Y-83165791D02*
X52957380Y-84165791D01*
X53338333Y-84165791D02*
X53338333Y-83165791D01*
X53338333Y-83165791D02*
X53604999Y-83880076D01*
X53604999Y-83880076D02*
X53871666Y-83165791D01*
X53871666Y-83165791D02*
X53871666Y-84165791D01*
X54709762Y-84070552D02*
X54671666Y-84118172D01*
X54671666Y-84118172D02*
X54557381Y-84165791D01*
X54557381Y-84165791D02*
X54481190Y-84165791D01*
X54481190Y-84165791D02*
X54366904Y-84118172D01*
X54366904Y-84118172D02*
X54290714Y-84022933D01*
X54290714Y-84022933D02*
X54252619Y-83927695D01*
X54252619Y-83927695D02*
X54214523Y-83737219D01*
X54214523Y-83737219D02*
X54214523Y-83594362D01*
X54214523Y-83594362D02*
X54252619Y-83403886D01*
X54252619Y-83403886D02*
X54290714Y-83308648D01*
X54290714Y-83308648D02*
X54366904Y-83213410D01*
X54366904Y-83213410D02*
X54481190Y-83165791D01*
X54481190Y-83165791D02*
X54557381Y-83165791D01*
X54557381Y-83165791D02*
X54671666Y-83213410D01*
X54671666Y-83213410D02*
X54709762Y-83261029D01*
X53325714Y-13129819D02*
X52944762Y-13129819D01*
X52944762Y-13129819D02*
X52944762Y-12129819D01*
X54011428Y-13129819D02*
X53554285Y-13129819D01*
X53782857Y-13129819D02*
X53782857Y-12129819D01*
X53782857Y-12129819D02*
X53706666Y-12272676D01*
X53706666Y-12272676D02*
X53630476Y-12367914D01*
X53630476Y-12367914D02*
X53554285Y-12415533D01*
X54735238Y-12129819D02*
X54354286Y-12129819D01*
X54354286Y-12129819D02*
X54316190Y-12606009D01*
X54316190Y-12606009D02*
X54354286Y-12558390D01*
X54354286Y-12558390D02*
X54430476Y-12510771D01*
X54430476Y-12510771D02*
X54620952Y-12510771D01*
X54620952Y-12510771D02*
X54697143Y-12558390D01*
X54697143Y-12558390D02*
X54735238Y-12606009D01*
X54735238Y-12606009D02*
X54773333Y-12701247D01*
X54773333Y-12701247D02*
X54773333Y-12939342D01*
X54773333Y-12939342D02*
X54735238Y-13034580D01*
X54735238Y-13034580D02*
X54697143Y-13082200D01*
X54697143Y-13082200D02*
X54620952Y-13129819D01*
X54620952Y-13129819D02*
X54430476Y-13129819D01*
X54430476Y-13129819D02*
X54354286Y-13082200D01*
X54354286Y-13082200D02*
X54316190Y-13034580D01*
X55865714Y-13129819D02*
X55484762Y-13129819D01*
X55484762Y-13129819D02*
X55484762Y-12129819D01*
X56551428Y-13129819D02*
X56094285Y-13129819D01*
X56322857Y-13129819D02*
X56322857Y-12129819D01*
X56322857Y-12129819D02*
X56246666Y-12272676D01*
X56246666Y-12272676D02*
X56170476Y-12367914D01*
X56170476Y-12367914D02*
X56094285Y-12415533D01*
X57237143Y-12129819D02*
X57084762Y-12129819D01*
X57084762Y-12129819D02*
X57008571Y-12177438D01*
X57008571Y-12177438D02*
X56970476Y-12225057D01*
X56970476Y-12225057D02*
X56894286Y-12367914D01*
X56894286Y-12367914D02*
X56856190Y-12558390D01*
X56856190Y-12558390D02*
X56856190Y-12939342D01*
X56856190Y-12939342D02*
X56894286Y-13034580D01*
X56894286Y-13034580D02*
X56932381Y-13082200D01*
X56932381Y-13082200D02*
X57008571Y-13129819D01*
X57008571Y-13129819D02*
X57160952Y-13129819D01*
X57160952Y-13129819D02*
X57237143Y-13082200D01*
X57237143Y-13082200D02*
X57275238Y-13034580D01*
X57275238Y-13034580D02*
X57313333Y-12939342D01*
X57313333Y-12939342D02*
X57313333Y-12701247D01*
X57313333Y-12701247D02*
X57275238Y-12606009D01*
X57275238Y-12606009D02*
X57237143Y-12558390D01*
X57237143Y-12558390D02*
X57160952Y-12510771D01*
X57160952Y-12510771D02*
X57008571Y-12510771D01*
X57008571Y-12510771D02*
X56932381Y-12558390D01*
X56932381Y-12558390D02*
X56894286Y-12606009D01*
X56894286Y-12606009D02*
X56856190Y-12701247D01*
X56183285Y-82032037D02*
X55916619Y-82032037D01*
X55916619Y-82555847D02*
X55916619Y-81555847D01*
X55916619Y-81555847D02*
X56297571Y-81555847D01*
X56602333Y-82555847D02*
X56602333Y-81889180D01*
X56602333Y-82079656D02*
X56640428Y-81984418D01*
X56640428Y-81984418D02*
X56678523Y-81936799D01*
X56678523Y-81936799D02*
X56754714Y-81889180D01*
X56754714Y-81889180D02*
X56830904Y-81889180D01*
X57211856Y-82555847D02*
X57135666Y-82508228D01*
X57135666Y-82508228D02*
X57097571Y-82460608D01*
X57097571Y-82460608D02*
X57059475Y-82365370D01*
X57059475Y-82365370D02*
X57059475Y-82079656D01*
X57059475Y-82079656D02*
X57097571Y-81984418D01*
X57097571Y-81984418D02*
X57135666Y-81936799D01*
X57135666Y-81936799D02*
X57211856Y-81889180D01*
X57211856Y-81889180D02*
X57326142Y-81889180D01*
X57326142Y-81889180D02*
X57402333Y-81936799D01*
X57402333Y-81936799D02*
X57440428Y-81984418D01*
X57440428Y-81984418D02*
X57478523Y-82079656D01*
X57478523Y-82079656D02*
X57478523Y-82365370D01*
X57478523Y-82365370D02*
X57440428Y-82460608D01*
X57440428Y-82460608D02*
X57402333Y-82508228D01*
X57402333Y-82508228D02*
X57326142Y-82555847D01*
X57326142Y-82555847D02*
X57211856Y-82555847D01*
X57821381Y-81889180D02*
X57821381Y-82555847D01*
X57821381Y-81984418D02*
X57859476Y-81936799D01*
X57859476Y-81936799D02*
X57935666Y-81889180D01*
X57935666Y-81889180D02*
X58049952Y-81889180D01*
X58049952Y-81889180D02*
X58126143Y-81936799D01*
X58126143Y-81936799D02*
X58164238Y-82032037D01*
X58164238Y-82032037D02*
X58164238Y-82555847D01*
X58430905Y-81889180D02*
X58735667Y-81889180D01*
X58545191Y-81555847D02*
X58545191Y-82412989D01*
X58545191Y-82412989D02*
X58583286Y-82508228D01*
X58583286Y-82508228D02*
X58659476Y-82555847D01*
X58659476Y-82555847D02*
X58735667Y-82555847D01*
X56640428Y-84118172D02*
X56754714Y-84165791D01*
X56754714Y-84165791D02*
X56945190Y-84165791D01*
X56945190Y-84165791D02*
X57021381Y-84118172D01*
X57021381Y-84118172D02*
X57059476Y-84070552D01*
X57059476Y-84070552D02*
X57097571Y-83975314D01*
X57097571Y-83975314D02*
X57097571Y-83880076D01*
X57097571Y-83880076D02*
X57059476Y-83784838D01*
X57059476Y-83784838D02*
X57021381Y-83737219D01*
X57021381Y-83737219D02*
X56945190Y-83689600D01*
X56945190Y-83689600D02*
X56792809Y-83641981D01*
X56792809Y-83641981D02*
X56716619Y-83594362D01*
X56716619Y-83594362D02*
X56678524Y-83546743D01*
X56678524Y-83546743D02*
X56640428Y-83451505D01*
X56640428Y-83451505D02*
X56640428Y-83356267D01*
X56640428Y-83356267D02*
X56678524Y-83261029D01*
X56678524Y-83261029D02*
X56716619Y-83213410D01*
X56716619Y-83213410D02*
X56792809Y-83165791D01*
X56792809Y-83165791D02*
X56983286Y-83165791D01*
X56983286Y-83165791D02*
X57097571Y-83213410D01*
X57440429Y-84165791D02*
X57440429Y-83165791D01*
X57440429Y-83165791D02*
X57630905Y-83165791D01*
X57630905Y-83165791D02*
X57745191Y-83213410D01*
X57745191Y-83213410D02*
X57821381Y-83308648D01*
X57821381Y-83308648D02*
X57859476Y-83403886D01*
X57859476Y-83403886D02*
X57897572Y-83594362D01*
X57897572Y-83594362D02*
X57897572Y-83737219D01*
X57897572Y-83737219D02*
X57859476Y-83927695D01*
X57859476Y-83927695D02*
X57821381Y-84022933D01*
X57821381Y-84022933D02*
X57745191Y-84118172D01*
X57745191Y-84118172D02*
X57630905Y-84165791D01*
X57630905Y-84165791D02*
X57440429Y-84165791D01*
X53601791Y-59437200D02*
X53716077Y-59484819D01*
X53716077Y-59484819D02*
X53906553Y-59484819D01*
X53906553Y-59484819D02*
X53982744Y-59437200D01*
X53982744Y-59437200D02*
X54020839Y-59389580D01*
X54020839Y-59389580D02*
X54058934Y-59294342D01*
X54058934Y-59294342D02*
X54058934Y-59199104D01*
X54058934Y-59199104D02*
X54020839Y-59103866D01*
X54020839Y-59103866D02*
X53982744Y-59056247D01*
X53982744Y-59056247D02*
X53906553Y-59008628D01*
X53906553Y-59008628D02*
X53754172Y-58961009D01*
X53754172Y-58961009D02*
X53677982Y-58913390D01*
X53677982Y-58913390D02*
X53639887Y-58865771D01*
X53639887Y-58865771D02*
X53601791Y-58770533D01*
X53601791Y-58770533D02*
X53601791Y-58675295D01*
X53601791Y-58675295D02*
X53639887Y-58580057D01*
X53639887Y-58580057D02*
X53677982Y-58532438D01*
X53677982Y-58532438D02*
X53754172Y-58484819D01*
X53754172Y-58484819D02*
X53944649Y-58484819D01*
X53944649Y-58484819D02*
X54058934Y-58532438D01*
X54401792Y-59484819D02*
X54401792Y-58484819D01*
X54401792Y-58484819D02*
X54592268Y-58484819D01*
X54592268Y-58484819D02*
X54706554Y-58532438D01*
X54706554Y-58532438D02*
X54782744Y-58627676D01*
X54782744Y-58627676D02*
X54820839Y-58722914D01*
X54820839Y-58722914D02*
X54858935Y-58913390D01*
X54858935Y-58913390D02*
X54858935Y-59056247D01*
X54858935Y-59056247D02*
X54820839Y-59246723D01*
X54820839Y-59246723D02*
X54782744Y-59341961D01*
X54782744Y-59341961D02*
X54706554Y-59437200D01*
X54706554Y-59437200D02*
X54592268Y-59484819D01*
X54592268Y-59484819D02*
X54401792Y-59484819D01*
X56179887Y-18844819D02*
X56179887Y-17844819D01*
X56179887Y-17844819D02*
X56484649Y-17844819D01*
X56484649Y-17844819D02*
X56560839Y-17892438D01*
X56560839Y-17892438D02*
X56598934Y-17940057D01*
X56598934Y-17940057D02*
X56637030Y-18035295D01*
X56637030Y-18035295D02*
X56637030Y-18178152D01*
X56637030Y-18178152D02*
X56598934Y-18273390D01*
X56598934Y-18273390D02*
X56560839Y-18321009D01*
X56560839Y-18321009D02*
X56484649Y-18368628D01*
X56484649Y-18368628D02*
X56179887Y-18368628D01*
X57398934Y-18844819D02*
X56941791Y-18844819D01*
X57170363Y-18844819D02*
X57170363Y-17844819D01*
X57170363Y-17844819D02*
X57094172Y-17987676D01*
X57094172Y-17987676D02*
X57017982Y-18082914D01*
X57017982Y-18082914D02*
X56941791Y-18130533D01*
X56179887Y-21384819D02*
X56179887Y-20384819D01*
X56179887Y-20384819D02*
X56484649Y-20384819D01*
X56484649Y-20384819D02*
X56560839Y-20432438D01*
X56560839Y-20432438D02*
X56598934Y-20480057D01*
X56598934Y-20480057D02*
X56637030Y-20575295D01*
X56637030Y-20575295D02*
X56637030Y-20718152D01*
X56637030Y-20718152D02*
X56598934Y-20813390D01*
X56598934Y-20813390D02*
X56560839Y-20861009D01*
X56560839Y-20861009D02*
X56484649Y-20908628D01*
X56484649Y-20908628D02*
X56179887Y-20908628D01*
X56941791Y-20480057D02*
X56979887Y-20432438D01*
X56979887Y-20432438D02*
X57056077Y-20384819D01*
X57056077Y-20384819D02*
X57246553Y-20384819D01*
X57246553Y-20384819D02*
X57322744Y-20432438D01*
X57322744Y-20432438D02*
X57360839Y-20480057D01*
X57360839Y-20480057D02*
X57398934Y-20575295D01*
X57398934Y-20575295D02*
X57398934Y-20670533D01*
X57398934Y-20670533D02*
X57360839Y-20813390D01*
X57360839Y-20813390D02*
X56903696Y-21384819D01*
X56903696Y-21384819D02*
X57398934Y-21384819D01*
X56179887Y-23924819D02*
X56179887Y-22924819D01*
X56179887Y-22924819D02*
X56484649Y-22924819D01*
X56484649Y-22924819D02*
X56560839Y-22972438D01*
X56560839Y-22972438D02*
X56598934Y-23020057D01*
X56598934Y-23020057D02*
X56637030Y-23115295D01*
X56637030Y-23115295D02*
X56637030Y-23258152D01*
X56637030Y-23258152D02*
X56598934Y-23353390D01*
X56598934Y-23353390D02*
X56560839Y-23401009D01*
X56560839Y-23401009D02*
X56484649Y-23448628D01*
X56484649Y-23448628D02*
X56179887Y-23448628D01*
X56903696Y-22924819D02*
X57398934Y-22924819D01*
X57398934Y-22924819D02*
X57132268Y-23305771D01*
X57132268Y-23305771D02*
X57246553Y-23305771D01*
X57246553Y-23305771D02*
X57322744Y-23353390D01*
X57322744Y-23353390D02*
X57360839Y-23401009D01*
X57360839Y-23401009D02*
X57398934Y-23496247D01*
X57398934Y-23496247D02*
X57398934Y-23734342D01*
X57398934Y-23734342D02*
X57360839Y-23829580D01*
X57360839Y-23829580D02*
X57322744Y-23877200D01*
X57322744Y-23877200D02*
X57246553Y-23924819D01*
X57246553Y-23924819D02*
X57017982Y-23924819D01*
X57017982Y-23924819D02*
X56941791Y-23877200D01*
X56941791Y-23877200D02*
X56903696Y-23829580D01*
X56179887Y-26464819D02*
X56179887Y-25464819D01*
X56179887Y-25464819D02*
X56484649Y-25464819D01*
X56484649Y-25464819D02*
X56560839Y-25512438D01*
X56560839Y-25512438D02*
X56598934Y-25560057D01*
X56598934Y-25560057D02*
X56637030Y-25655295D01*
X56637030Y-25655295D02*
X56637030Y-25798152D01*
X56637030Y-25798152D02*
X56598934Y-25893390D01*
X56598934Y-25893390D02*
X56560839Y-25941009D01*
X56560839Y-25941009D02*
X56484649Y-25988628D01*
X56484649Y-25988628D02*
X56179887Y-25988628D01*
X57322744Y-25798152D02*
X57322744Y-26464819D01*
X57132268Y-25417200D02*
X56941791Y-26131485D01*
X56941791Y-26131485D02*
X57437030Y-26131485D01*
X56179887Y-29004819D02*
X56179887Y-28004819D01*
X56179887Y-28004819D02*
X56484649Y-28004819D01*
X56484649Y-28004819D02*
X56560839Y-28052438D01*
X56560839Y-28052438D02*
X56598934Y-28100057D01*
X56598934Y-28100057D02*
X56637030Y-28195295D01*
X56637030Y-28195295D02*
X56637030Y-28338152D01*
X56637030Y-28338152D02*
X56598934Y-28433390D01*
X56598934Y-28433390D02*
X56560839Y-28481009D01*
X56560839Y-28481009D02*
X56484649Y-28528628D01*
X56484649Y-28528628D02*
X56179887Y-28528628D01*
X57360839Y-28004819D02*
X56979887Y-28004819D01*
X56979887Y-28004819D02*
X56941791Y-28481009D01*
X56941791Y-28481009D02*
X56979887Y-28433390D01*
X56979887Y-28433390D02*
X57056077Y-28385771D01*
X57056077Y-28385771D02*
X57246553Y-28385771D01*
X57246553Y-28385771D02*
X57322744Y-28433390D01*
X57322744Y-28433390D02*
X57360839Y-28481009D01*
X57360839Y-28481009D02*
X57398934Y-28576247D01*
X57398934Y-28576247D02*
X57398934Y-28814342D01*
X57398934Y-28814342D02*
X57360839Y-28909580D01*
X57360839Y-28909580D02*
X57322744Y-28957200D01*
X57322744Y-28957200D02*
X57246553Y-29004819D01*
X57246553Y-29004819D02*
X57056077Y-29004819D01*
X57056077Y-29004819D02*
X56979887Y-28957200D01*
X56979887Y-28957200D02*
X56941791Y-28909580D01*
X56179887Y-31544819D02*
X56179887Y-30544819D01*
X56179887Y-30544819D02*
X56484649Y-30544819D01*
X56484649Y-30544819D02*
X56560839Y-30592438D01*
X56560839Y-30592438D02*
X56598934Y-30640057D01*
X56598934Y-30640057D02*
X56637030Y-30735295D01*
X56637030Y-30735295D02*
X56637030Y-30878152D01*
X56637030Y-30878152D02*
X56598934Y-30973390D01*
X56598934Y-30973390D02*
X56560839Y-31021009D01*
X56560839Y-31021009D02*
X56484649Y-31068628D01*
X56484649Y-31068628D02*
X56179887Y-31068628D01*
X57322744Y-30544819D02*
X57170363Y-30544819D01*
X57170363Y-30544819D02*
X57094172Y-30592438D01*
X57094172Y-30592438D02*
X57056077Y-30640057D01*
X57056077Y-30640057D02*
X56979887Y-30782914D01*
X56979887Y-30782914D02*
X56941791Y-30973390D01*
X56941791Y-30973390D02*
X56941791Y-31354342D01*
X56941791Y-31354342D02*
X56979887Y-31449580D01*
X56979887Y-31449580D02*
X57017982Y-31497200D01*
X57017982Y-31497200D02*
X57094172Y-31544819D01*
X57094172Y-31544819D02*
X57246553Y-31544819D01*
X57246553Y-31544819D02*
X57322744Y-31497200D01*
X57322744Y-31497200D02*
X57360839Y-31449580D01*
X57360839Y-31449580D02*
X57398934Y-31354342D01*
X57398934Y-31354342D02*
X57398934Y-31116247D01*
X57398934Y-31116247D02*
X57360839Y-31021009D01*
X57360839Y-31021009D02*
X57322744Y-30973390D01*
X57322744Y-30973390D02*
X57246553Y-30925771D01*
X57246553Y-30925771D02*
X57094172Y-30925771D01*
X57094172Y-30925771D02*
X57017982Y-30973390D01*
X57017982Y-30973390D02*
X56979887Y-31021009D01*
X56979887Y-31021009D02*
X56941791Y-31116247D01*
X56179887Y-34084819D02*
X56179887Y-33084819D01*
X56179887Y-33084819D02*
X56484649Y-33084819D01*
X56484649Y-33084819D02*
X56560839Y-33132438D01*
X56560839Y-33132438D02*
X56598934Y-33180057D01*
X56598934Y-33180057D02*
X56637030Y-33275295D01*
X56637030Y-33275295D02*
X56637030Y-33418152D01*
X56637030Y-33418152D02*
X56598934Y-33513390D01*
X56598934Y-33513390D02*
X56560839Y-33561009D01*
X56560839Y-33561009D02*
X56484649Y-33608628D01*
X56484649Y-33608628D02*
X56179887Y-33608628D01*
X56903696Y-33084819D02*
X57437030Y-33084819D01*
X57437030Y-33084819D02*
X57094172Y-34084819D01*
X56179887Y-36624819D02*
X56179887Y-35624819D01*
X56179887Y-35624819D02*
X56484649Y-35624819D01*
X56484649Y-35624819D02*
X56560839Y-35672438D01*
X56560839Y-35672438D02*
X56598934Y-35720057D01*
X56598934Y-35720057D02*
X56637030Y-35815295D01*
X56637030Y-35815295D02*
X56637030Y-35958152D01*
X56637030Y-35958152D02*
X56598934Y-36053390D01*
X56598934Y-36053390D02*
X56560839Y-36101009D01*
X56560839Y-36101009D02*
X56484649Y-36148628D01*
X56484649Y-36148628D02*
X56179887Y-36148628D01*
X57094172Y-36053390D02*
X57017982Y-36005771D01*
X57017982Y-36005771D02*
X56979887Y-35958152D01*
X56979887Y-35958152D02*
X56941791Y-35862914D01*
X56941791Y-35862914D02*
X56941791Y-35815295D01*
X56941791Y-35815295D02*
X56979887Y-35720057D01*
X56979887Y-35720057D02*
X57017982Y-35672438D01*
X57017982Y-35672438D02*
X57094172Y-35624819D01*
X57094172Y-35624819D02*
X57246553Y-35624819D01*
X57246553Y-35624819D02*
X57322744Y-35672438D01*
X57322744Y-35672438D02*
X57360839Y-35720057D01*
X57360839Y-35720057D02*
X57398934Y-35815295D01*
X57398934Y-35815295D02*
X57398934Y-35862914D01*
X57398934Y-35862914D02*
X57360839Y-35958152D01*
X57360839Y-35958152D02*
X57322744Y-36005771D01*
X57322744Y-36005771D02*
X57246553Y-36053390D01*
X57246553Y-36053390D02*
X57094172Y-36053390D01*
X57094172Y-36053390D02*
X57017982Y-36101009D01*
X57017982Y-36101009D02*
X56979887Y-36148628D01*
X56979887Y-36148628D02*
X56941791Y-36243866D01*
X56941791Y-36243866D02*
X56941791Y-36434342D01*
X56941791Y-36434342D02*
X56979887Y-36529580D01*
X56979887Y-36529580D02*
X57017982Y-36577200D01*
X57017982Y-36577200D02*
X57094172Y-36624819D01*
X57094172Y-36624819D02*
X57246553Y-36624819D01*
X57246553Y-36624819D02*
X57322744Y-36577200D01*
X57322744Y-36577200D02*
X57360839Y-36529580D01*
X57360839Y-36529580D02*
X57398934Y-36434342D01*
X57398934Y-36434342D02*
X57398934Y-36243866D01*
X57398934Y-36243866D02*
X57360839Y-36148628D01*
X57360839Y-36148628D02*
X57322744Y-36101009D01*
X57322744Y-36101009D02*
X57246553Y-36053390D01*
X56179887Y-39164819D02*
X56179887Y-38164819D01*
X56179887Y-38164819D02*
X56484649Y-38164819D01*
X56484649Y-38164819D02*
X56560839Y-38212438D01*
X56560839Y-38212438D02*
X56598934Y-38260057D01*
X56598934Y-38260057D02*
X56637030Y-38355295D01*
X56637030Y-38355295D02*
X56637030Y-38498152D01*
X56637030Y-38498152D02*
X56598934Y-38593390D01*
X56598934Y-38593390D02*
X56560839Y-38641009D01*
X56560839Y-38641009D02*
X56484649Y-38688628D01*
X56484649Y-38688628D02*
X56179887Y-38688628D01*
X57017982Y-39164819D02*
X57170363Y-39164819D01*
X57170363Y-39164819D02*
X57246553Y-39117200D01*
X57246553Y-39117200D02*
X57284649Y-39069580D01*
X57284649Y-39069580D02*
X57360839Y-38926723D01*
X57360839Y-38926723D02*
X57398934Y-38736247D01*
X57398934Y-38736247D02*
X57398934Y-38355295D01*
X57398934Y-38355295D02*
X57360839Y-38260057D01*
X57360839Y-38260057D02*
X57322744Y-38212438D01*
X57322744Y-38212438D02*
X57246553Y-38164819D01*
X57246553Y-38164819D02*
X57094172Y-38164819D01*
X57094172Y-38164819D02*
X57017982Y-38212438D01*
X57017982Y-38212438D02*
X56979887Y-38260057D01*
X56979887Y-38260057D02*
X56941791Y-38355295D01*
X56941791Y-38355295D02*
X56941791Y-38593390D01*
X56941791Y-38593390D02*
X56979887Y-38688628D01*
X56979887Y-38688628D02*
X57017982Y-38736247D01*
X57017982Y-38736247D02*
X57094172Y-38783866D01*
X57094172Y-38783866D02*
X57246553Y-38783866D01*
X57246553Y-38783866D02*
X57322744Y-38736247D01*
X57322744Y-38736247D02*
X57360839Y-38688628D01*
X57360839Y-38688628D02*
X57398934Y-38593390D01*
X55417982Y-41704819D02*
X55417982Y-40704819D01*
X55417982Y-40704819D02*
X55722744Y-40704819D01*
X55722744Y-40704819D02*
X55798934Y-40752438D01*
X55798934Y-40752438D02*
X55837029Y-40800057D01*
X55837029Y-40800057D02*
X55875125Y-40895295D01*
X55875125Y-40895295D02*
X55875125Y-41038152D01*
X55875125Y-41038152D02*
X55837029Y-41133390D01*
X55837029Y-41133390D02*
X55798934Y-41181009D01*
X55798934Y-41181009D02*
X55722744Y-41228628D01*
X55722744Y-41228628D02*
X55417982Y-41228628D01*
X56637029Y-41704819D02*
X56179886Y-41704819D01*
X56408458Y-41704819D02*
X56408458Y-40704819D01*
X56408458Y-40704819D02*
X56332267Y-40847676D01*
X56332267Y-40847676D02*
X56256077Y-40942914D01*
X56256077Y-40942914D02*
X56179886Y-40990533D01*
X57132268Y-40704819D02*
X57208458Y-40704819D01*
X57208458Y-40704819D02*
X57284649Y-40752438D01*
X57284649Y-40752438D02*
X57322744Y-40800057D01*
X57322744Y-40800057D02*
X57360839Y-40895295D01*
X57360839Y-40895295D02*
X57398934Y-41085771D01*
X57398934Y-41085771D02*
X57398934Y-41323866D01*
X57398934Y-41323866D02*
X57360839Y-41514342D01*
X57360839Y-41514342D02*
X57322744Y-41609580D01*
X57322744Y-41609580D02*
X57284649Y-41657200D01*
X57284649Y-41657200D02*
X57208458Y-41704819D01*
X57208458Y-41704819D02*
X57132268Y-41704819D01*
X57132268Y-41704819D02*
X57056077Y-41657200D01*
X57056077Y-41657200D02*
X57017982Y-41609580D01*
X57017982Y-41609580D02*
X56979887Y-41514342D01*
X56979887Y-41514342D02*
X56941791Y-41323866D01*
X56941791Y-41323866D02*
X56941791Y-41085771D01*
X56941791Y-41085771D02*
X56979887Y-40895295D01*
X56979887Y-40895295D02*
X57017982Y-40800057D01*
X57017982Y-40800057D02*
X57056077Y-40752438D01*
X57056077Y-40752438D02*
X57132268Y-40704819D01*
X55417982Y-44244819D02*
X55417982Y-43244819D01*
X55417982Y-43244819D02*
X55722744Y-43244819D01*
X55722744Y-43244819D02*
X55798934Y-43292438D01*
X55798934Y-43292438D02*
X55837029Y-43340057D01*
X55837029Y-43340057D02*
X55875125Y-43435295D01*
X55875125Y-43435295D02*
X55875125Y-43578152D01*
X55875125Y-43578152D02*
X55837029Y-43673390D01*
X55837029Y-43673390D02*
X55798934Y-43721009D01*
X55798934Y-43721009D02*
X55722744Y-43768628D01*
X55722744Y-43768628D02*
X55417982Y-43768628D01*
X56637029Y-44244819D02*
X56179886Y-44244819D01*
X56408458Y-44244819D02*
X56408458Y-43244819D01*
X56408458Y-43244819D02*
X56332267Y-43387676D01*
X56332267Y-43387676D02*
X56256077Y-43482914D01*
X56256077Y-43482914D02*
X56179886Y-43530533D01*
X57398934Y-44244819D02*
X56941791Y-44244819D01*
X57170363Y-44244819D02*
X57170363Y-43244819D01*
X57170363Y-43244819D02*
X57094172Y-43387676D01*
X57094172Y-43387676D02*
X57017982Y-43482914D01*
X57017982Y-43482914D02*
X56941791Y-43530533D01*
X55417982Y-46784819D02*
X55417982Y-45784819D01*
X55417982Y-45784819D02*
X55722744Y-45784819D01*
X55722744Y-45784819D02*
X55798934Y-45832438D01*
X55798934Y-45832438D02*
X55837029Y-45880057D01*
X55837029Y-45880057D02*
X55875125Y-45975295D01*
X55875125Y-45975295D02*
X55875125Y-46118152D01*
X55875125Y-46118152D02*
X55837029Y-46213390D01*
X55837029Y-46213390D02*
X55798934Y-46261009D01*
X55798934Y-46261009D02*
X55722744Y-46308628D01*
X55722744Y-46308628D02*
X55417982Y-46308628D01*
X56637029Y-46784819D02*
X56179886Y-46784819D01*
X56408458Y-46784819D02*
X56408458Y-45784819D01*
X56408458Y-45784819D02*
X56332267Y-45927676D01*
X56332267Y-45927676D02*
X56256077Y-46022914D01*
X56256077Y-46022914D02*
X56179886Y-46070533D01*
X56941791Y-45880057D02*
X56979887Y-45832438D01*
X56979887Y-45832438D02*
X57056077Y-45784819D01*
X57056077Y-45784819D02*
X57246553Y-45784819D01*
X57246553Y-45784819D02*
X57322744Y-45832438D01*
X57322744Y-45832438D02*
X57360839Y-45880057D01*
X57360839Y-45880057D02*
X57398934Y-45975295D01*
X57398934Y-45975295D02*
X57398934Y-46070533D01*
X57398934Y-46070533D02*
X57360839Y-46213390D01*
X57360839Y-46213390D02*
X56903696Y-46784819D01*
X56903696Y-46784819D02*
X57398934Y-46784819D01*
X55456077Y-50864819D02*
X55951315Y-50864819D01*
X55951315Y-50864819D02*
X55684649Y-51245771D01*
X55684649Y-51245771D02*
X55798934Y-51245771D01*
X55798934Y-51245771D02*
X55875125Y-51293390D01*
X55875125Y-51293390D02*
X55913220Y-51341009D01*
X55913220Y-51341009D02*
X55951315Y-51436247D01*
X55951315Y-51436247D02*
X55951315Y-51674342D01*
X55951315Y-51674342D02*
X55913220Y-51769580D01*
X55913220Y-51769580D02*
X55875125Y-51817200D01*
X55875125Y-51817200D02*
X55798934Y-51864819D01*
X55798934Y-51864819D02*
X55570363Y-51864819D01*
X55570363Y-51864819D02*
X55494172Y-51817200D01*
X55494172Y-51817200D02*
X55456077Y-51769580D01*
X56179887Y-50864819D02*
X56446554Y-51864819D01*
X56446554Y-51864819D02*
X56713220Y-50864819D01*
X56903696Y-50864819D02*
X57398934Y-50864819D01*
X57398934Y-50864819D02*
X57132268Y-51245771D01*
X57132268Y-51245771D02*
X57246553Y-51245771D01*
X57246553Y-51245771D02*
X57322744Y-51293390D01*
X57322744Y-51293390D02*
X57360839Y-51341009D01*
X57360839Y-51341009D02*
X57398934Y-51436247D01*
X57398934Y-51436247D02*
X57398934Y-51674342D01*
X57398934Y-51674342D02*
X57360839Y-51769580D01*
X57360839Y-51769580D02*
X57322744Y-51817200D01*
X57322744Y-51817200D02*
X57246553Y-51864819D01*
X57246553Y-51864819D02*
X57017982Y-51864819D01*
X57017982Y-51864819D02*
X56941791Y-51817200D01*
X56941791Y-51817200D02*
X56903696Y-51769580D01*
X55722744Y-53452438D02*
X55646554Y-53404819D01*
X55646554Y-53404819D02*
X55532268Y-53404819D01*
X55532268Y-53404819D02*
X55417982Y-53452438D01*
X55417982Y-53452438D02*
X55341792Y-53547676D01*
X55341792Y-53547676D02*
X55303697Y-53642914D01*
X55303697Y-53642914D02*
X55265601Y-53833390D01*
X55265601Y-53833390D02*
X55265601Y-53976247D01*
X55265601Y-53976247D02*
X55303697Y-54166723D01*
X55303697Y-54166723D02*
X55341792Y-54261961D01*
X55341792Y-54261961D02*
X55417982Y-54357200D01*
X55417982Y-54357200D02*
X55532268Y-54404819D01*
X55532268Y-54404819D02*
X55608459Y-54404819D01*
X55608459Y-54404819D02*
X55722744Y-54357200D01*
X55722744Y-54357200D02*
X55760840Y-54309580D01*
X55760840Y-54309580D02*
X55760840Y-53976247D01*
X55760840Y-53976247D02*
X55608459Y-53976247D01*
X56103697Y-54404819D02*
X56103697Y-53404819D01*
X56103697Y-53404819D02*
X56560840Y-54404819D01*
X56560840Y-54404819D02*
X56560840Y-53404819D01*
X56941792Y-54404819D02*
X56941792Y-53404819D01*
X56941792Y-53404819D02*
X57132268Y-53404819D01*
X57132268Y-53404819D02*
X57246554Y-53452438D01*
X57246554Y-53452438D02*
X57322744Y-53547676D01*
X57322744Y-53547676D02*
X57360839Y-53642914D01*
X57360839Y-53642914D02*
X57398935Y-53833390D01*
X57398935Y-53833390D02*
X57398935Y-53976247D01*
X57398935Y-53976247D02*
X57360839Y-54166723D01*
X57360839Y-54166723D02*
X57322744Y-54261961D01*
X57322744Y-54261961D02*
X57246554Y-54357200D01*
X57246554Y-54357200D02*
X57132268Y-54404819D01*
X57132268Y-54404819D02*
X56941792Y-54404819D01*
X56179887Y-59484819D02*
X56179887Y-58484819D01*
X56179887Y-58484819D02*
X56370363Y-58484819D01*
X56370363Y-58484819D02*
X56484649Y-58532438D01*
X56484649Y-58532438D02*
X56560839Y-58627676D01*
X56560839Y-58627676D02*
X56598934Y-58722914D01*
X56598934Y-58722914D02*
X56637030Y-58913390D01*
X56637030Y-58913390D02*
X56637030Y-59056247D01*
X56637030Y-59056247D02*
X56598934Y-59246723D01*
X56598934Y-59246723D02*
X56560839Y-59341961D01*
X56560839Y-59341961D02*
X56484649Y-59437200D01*
X56484649Y-59437200D02*
X56370363Y-59484819D01*
X56370363Y-59484819D02*
X56179887Y-59484819D01*
X57398934Y-59484819D02*
X56941791Y-59484819D01*
X57170363Y-59484819D02*
X57170363Y-58484819D01*
X57170363Y-58484819D02*
X57094172Y-58627676D01*
X57094172Y-58627676D02*
X57017982Y-58722914D01*
X57017982Y-58722914D02*
X56941791Y-58770533D01*
X56179887Y-62024819D02*
X56179887Y-61024819D01*
X56179887Y-61024819D02*
X56370363Y-61024819D01*
X56370363Y-61024819D02*
X56484649Y-61072438D01*
X56484649Y-61072438D02*
X56560839Y-61167676D01*
X56560839Y-61167676D02*
X56598934Y-61262914D01*
X56598934Y-61262914D02*
X56637030Y-61453390D01*
X56637030Y-61453390D02*
X56637030Y-61596247D01*
X56637030Y-61596247D02*
X56598934Y-61786723D01*
X56598934Y-61786723D02*
X56560839Y-61881961D01*
X56560839Y-61881961D02*
X56484649Y-61977200D01*
X56484649Y-61977200D02*
X56370363Y-62024819D01*
X56370363Y-62024819D02*
X56179887Y-62024819D01*
X57132268Y-61024819D02*
X57208458Y-61024819D01*
X57208458Y-61024819D02*
X57284649Y-61072438D01*
X57284649Y-61072438D02*
X57322744Y-61120057D01*
X57322744Y-61120057D02*
X57360839Y-61215295D01*
X57360839Y-61215295D02*
X57398934Y-61405771D01*
X57398934Y-61405771D02*
X57398934Y-61643866D01*
X57398934Y-61643866D02*
X57360839Y-61834342D01*
X57360839Y-61834342D02*
X57322744Y-61929580D01*
X57322744Y-61929580D02*
X57284649Y-61977200D01*
X57284649Y-61977200D02*
X57208458Y-62024819D01*
X57208458Y-62024819D02*
X57132268Y-62024819D01*
X57132268Y-62024819D02*
X57056077Y-61977200D01*
X57056077Y-61977200D02*
X57017982Y-61929580D01*
X57017982Y-61929580D02*
X56979887Y-61834342D01*
X56979887Y-61834342D02*
X56941791Y-61643866D01*
X56941791Y-61643866D02*
X56941791Y-61405771D01*
X56941791Y-61405771D02*
X56979887Y-61215295D01*
X56979887Y-61215295D02*
X57017982Y-61120057D01*
X57017982Y-61120057D02*
X57056077Y-61072438D01*
X57056077Y-61072438D02*
X57132268Y-61024819D01*
X55951316Y-64469580D02*
X55913220Y-64517200D01*
X55913220Y-64517200D02*
X55798935Y-64564819D01*
X55798935Y-64564819D02*
X55722744Y-64564819D01*
X55722744Y-64564819D02*
X55608458Y-64517200D01*
X55608458Y-64517200D02*
X55532268Y-64421961D01*
X55532268Y-64421961D02*
X55494173Y-64326723D01*
X55494173Y-64326723D02*
X55456077Y-64136247D01*
X55456077Y-64136247D02*
X55456077Y-63993390D01*
X55456077Y-63993390D02*
X55494173Y-63802914D01*
X55494173Y-63802914D02*
X55532268Y-63707676D01*
X55532268Y-63707676D02*
X55608458Y-63612438D01*
X55608458Y-63612438D02*
X55722744Y-63564819D01*
X55722744Y-63564819D02*
X55798935Y-63564819D01*
X55798935Y-63564819D02*
X55913220Y-63612438D01*
X55913220Y-63612438D02*
X55951316Y-63660057D01*
X56675125Y-64564819D02*
X56294173Y-64564819D01*
X56294173Y-64564819D02*
X56294173Y-63564819D01*
X56941792Y-64564819D02*
X56941792Y-63564819D01*
X57398935Y-64564819D02*
X57056077Y-63993390D01*
X57398935Y-63564819D02*
X56941792Y-64136247D01*
X55684649Y-67009580D02*
X55646553Y-67057200D01*
X55646553Y-67057200D02*
X55532268Y-67104819D01*
X55532268Y-67104819D02*
X55456077Y-67104819D01*
X55456077Y-67104819D02*
X55341791Y-67057200D01*
X55341791Y-67057200D02*
X55265601Y-66961961D01*
X55265601Y-66961961D02*
X55227506Y-66866723D01*
X55227506Y-66866723D02*
X55189410Y-66676247D01*
X55189410Y-66676247D02*
X55189410Y-66533390D01*
X55189410Y-66533390D02*
X55227506Y-66342914D01*
X55227506Y-66342914D02*
X55265601Y-66247676D01*
X55265601Y-66247676D02*
X55341791Y-66152438D01*
X55341791Y-66152438D02*
X55456077Y-66104819D01*
X55456077Y-66104819D02*
X55532268Y-66104819D01*
X55532268Y-66104819D02*
X55646553Y-66152438D01*
X55646553Y-66152438D02*
X55684649Y-66200057D01*
X56027506Y-67104819D02*
X56027506Y-66104819D01*
X56027506Y-66104819D02*
X56294172Y-66819104D01*
X56294172Y-66819104D02*
X56560839Y-66104819D01*
X56560839Y-66104819D02*
X56560839Y-67104819D01*
X56941792Y-67104819D02*
X56941792Y-66104819D01*
X56941792Y-66104819D02*
X57132268Y-66104819D01*
X57132268Y-66104819D02*
X57246554Y-66152438D01*
X57246554Y-66152438D02*
X57322744Y-66247676D01*
X57322744Y-66247676D02*
X57360839Y-66342914D01*
X57360839Y-66342914D02*
X57398935Y-66533390D01*
X57398935Y-66533390D02*
X57398935Y-66676247D01*
X57398935Y-66676247D02*
X57360839Y-66866723D01*
X57360839Y-66866723D02*
X57322744Y-66961961D01*
X57322744Y-66961961D02*
X57246554Y-67057200D01*
X57246554Y-67057200D02*
X57132268Y-67104819D01*
X57132268Y-67104819D02*
X56941792Y-67104819D01*
X56179887Y-69644819D02*
X56179887Y-68644819D01*
X56179887Y-68644819D02*
X56370363Y-68644819D01*
X56370363Y-68644819D02*
X56484649Y-68692438D01*
X56484649Y-68692438D02*
X56560839Y-68787676D01*
X56560839Y-68787676D02*
X56598934Y-68882914D01*
X56598934Y-68882914D02*
X56637030Y-69073390D01*
X56637030Y-69073390D02*
X56637030Y-69216247D01*
X56637030Y-69216247D02*
X56598934Y-69406723D01*
X56598934Y-69406723D02*
X56560839Y-69501961D01*
X56560839Y-69501961D02*
X56484649Y-69597200D01*
X56484649Y-69597200D02*
X56370363Y-69644819D01*
X56370363Y-69644819D02*
X56179887Y-69644819D01*
X56903696Y-68644819D02*
X57398934Y-68644819D01*
X57398934Y-68644819D02*
X57132268Y-69025771D01*
X57132268Y-69025771D02*
X57246553Y-69025771D01*
X57246553Y-69025771D02*
X57322744Y-69073390D01*
X57322744Y-69073390D02*
X57360839Y-69121009D01*
X57360839Y-69121009D02*
X57398934Y-69216247D01*
X57398934Y-69216247D02*
X57398934Y-69454342D01*
X57398934Y-69454342D02*
X57360839Y-69549580D01*
X57360839Y-69549580D02*
X57322744Y-69597200D01*
X57322744Y-69597200D02*
X57246553Y-69644819D01*
X57246553Y-69644819D02*
X57017982Y-69644819D01*
X57017982Y-69644819D02*
X56941791Y-69597200D01*
X56941791Y-69597200D02*
X56903696Y-69549580D01*
X56179887Y-72184819D02*
X56179887Y-71184819D01*
X56179887Y-71184819D02*
X56370363Y-71184819D01*
X56370363Y-71184819D02*
X56484649Y-71232438D01*
X56484649Y-71232438D02*
X56560839Y-71327676D01*
X56560839Y-71327676D02*
X56598934Y-71422914D01*
X56598934Y-71422914D02*
X56637030Y-71613390D01*
X56637030Y-71613390D02*
X56637030Y-71756247D01*
X56637030Y-71756247D02*
X56598934Y-71946723D01*
X56598934Y-71946723D02*
X56560839Y-72041961D01*
X56560839Y-72041961D02*
X56484649Y-72137200D01*
X56484649Y-72137200D02*
X56370363Y-72184819D01*
X56370363Y-72184819D02*
X56179887Y-72184819D01*
X56941791Y-71280057D02*
X56979887Y-71232438D01*
X56979887Y-71232438D02*
X57056077Y-71184819D01*
X57056077Y-71184819D02*
X57246553Y-71184819D01*
X57246553Y-71184819D02*
X57322744Y-71232438D01*
X57322744Y-71232438D02*
X57360839Y-71280057D01*
X57360839Y-71280057D02*
X57398934Y-71375295D01*
X57398934Y-71375295D02*
X57398934Y-71470533D01*
X57398934Y-71470533D02*
X57360839Y-71613390D01*
X57360839Y-71613390D02*
X56903696Y-72184819D01*
X56903696Y-72184819D02*
X57398934Y-72184819D01*
X55722744Y-96632438D02*
X55646554Y-96584819D01*
X55646554Y-96584819D02*
X55532268Y-96584819D01*
X55532268Y-96584819D02*
X55417982Y-96632438D01*
X55417982Y-96632438D02*
X55341792Y-96727676D01*
X55341792Y-96727676D02*
X55303697Y-96822914D01*
X55303697Y-96822914D02*
X55265601Y-97013390D01*
X55265601Y-97013390D02*
X55265601Y-97156247D01*
X55265601Y-97156247D02*
X55303697Y-97346723D01*
X55303697Y-97346723D02*
X55341792Y-97441961D01*
X55341792Y-97441961D02*
X55417982Y-97537200D01*
X55417982Y-97537200D02*
X55532268Y-97584819D01*
X55532268Y-97584819D02*
X55608459Y-97584819D01*
X55608459Y-97584819D02*
X55722744Y-97537200D01*
X55722744Y-97537200D02*
X55760840Y-97489580D01*
X55760840Y-97489580D02*
X55760840Y-97156247D01*
X55760840Y-97156247D02*
X55608459Y-97156247D01*
X56103697Y-97584819D02*
X56103697Y-96584819D01*
X56103697Y-96584819D02*
X56560840Y-97584819D01*
X56560840Y-97584819D02*
X56560840Y-96584819D01*
X56941792Y-97584819D02*
X56941792Y-96584819D01*
X56941792Y-96584819D02*
X57132268Y-96584819D01*
X57132268Y-96584819D02*
X57246554Y-96632438D01*
X57246554Y-96632438D02*
X57322744Y-96727676D01*
X57322744Y-96727676D02*
X57360839Y-96822914D01*
X57360839Y-96822914D02*
X57398935Y-97013390D01*
X57398935Y-97013390D02*
X57398935Y-97156247D01*
X57398935Y-97156247D02*
X57360839Y-97346723D01*
X57360839Y-97346723D02*
X57322744Y-97441961D01*
X57322744Y-97441961D02*
X57246554Y-97537200D01*
X57246554Y-97537200D02*
X57132268Y-97584819D01*
X57132268Y-97584819D02*
X56941792Y-97584819D01*
X56256078Y-100029580D02*
X56217982Y-100077200D01*
X56217982Y-100077200D02*
X56103697Y-100124819D01*
X56103697Y-100124819D02*
X56027506Y-100124819D01*
X56027506Y-100124819D02*
X55913220Y-100077200D01*
X55913220Y-100077200D02*
X55837030Y-99981961D01*
X55837030Y-99981961D02*
X55798935Y-99886723D01*
X55798935Y-99886723D02*
X55760839Y-99696247D01*
X55760839Y-99696247D02*
X55760839Y-99553390D01*
X55760839Y-99553390D02*
X55798935Y-99362914D01*
X55798935Y-99362914D02*
X55837030Y-99267676D01*
X55837030Y-99267676D02*
X55913220Y-99172438D01*
X55913220Y-99172438D02*
X56027506Y-99124819D01*
X56027506Y-99124819D02*
X56103697Y-99124819D01*
X56103697Y-99124819D02*
X56217982Y-99172438D01*
X56217982Y-99172438D02*
X56256078Y-99220057D01*
X56598935Y-100124819D02*
X56598935Y-99124819D01*
X57398934Y-100124819D02*
X56941791Y-100124819D01*
X57170363Y-100124819D02*
X57170363Y-99124819D01*
X57170363Y-99124819D02*
X57094172Y-99267676D01*
X57094172Y-99267676D02*
X57017982Y-99362914D01*
X57017982Y-99362914D02*
X56941791Y-99410533D01*
X56256078Y-102569580D02*
X56217982Y-102617200D01*
X56217982Y-102617200D02*
X56103697Y-102664819D01*
X56103697Y-102664819D02*
X56027506Y-102664819D01*
X56027506Y-102664819D02*
X55913220Y-102617200D01*
X55913220Y-102617200D02*
X55837030Y-102521961D01*
X55837030Y-102521961D02*
X55798935Y-102426723D01*
X55798935Y-102426723D02*
X55760839Y-102236247D01*
X55760839Y-102236247D02*
X55760839Y-102093390D01*
X55760839Y-102093390D02*
X55798935Y-101902914D01*
X55798935Y-101902914D02*
X55837030Y-101807676D01*
X55837030Y-101807676D02*
X55913220Y-101712438D01*
X55913220Y-101712438D02*
X56027506Y-101664819D01*
X56027506Y-101664819D02*
X56103697Y-101664819D01*
X56103697Y-101664819D02*
X56217982Y-101712438D01*
X56217982Y-101712438D02*
X56256078Y-101760057D01*
X56598935Y-102664819D02*
X56598935Y-101664819D01*
X56941791Y-101760057D02*
X56979887Y-101712438D01*
X56979887Y-101712438D02*
X57056077Y-101664819D01*
X57056077Y-101664819D02*
X57246553Y-101664819D01*
X57246553Y-101664819D02*
X57322744Y-101712438D01*
X57322744Y-101712438D02*
X57360839Y-101760057D01*
X57360839Y-101760057D02*
X57398934Y-101855295D01*
X57398934Y-101855295D02*
X57398934Y-101950533D01*
X57398934Y-101950533D02*
X57360839Y-102093390D01*
X57360839Y-102093390D02*
X56903696Y-102664819D01*
X56903696Y-102664819D02*
X57398934Y-102664819D01*
X56256078Y-105109580D02*
X56217982Y-105157200D01*
X56217982Y-105157200D02*
X56103697Y-105204819D01*
X56103697Y-105204819D02*
X56027506Y-105204819D01*
X56027506Y-105204819D02*
X55913220Y-105157200D01*
X55913220Y-105157200D02*
X55837030Y-105061961D01*
X55837030Y-105061961D02*
X55798935Y-104966723D01*
X55798935Y-104966723D02*
X55760839Y-104776247D01*
X55760839Y-104776247D02*
X55760839Y-104633390D01*
X55760839Y-104633390D02*
X55798935Y-104442914D01*
X55798935Y-104442914D02*
X55837030Y-104347676D01*
X55837030Y-104347676D02*
X55913220Y-104252438D01*
X55913220Y-104252438D02*
X56027506Y-104204819D01*
X56027506Y-104204819D02*
X56103697Y-104204819D01*
X56103697Y-104204819D02*
X56217982Y-104252438D01*
X56217982Y-104252438D02*
X56256078Y-104300057D01*
X56598935Y-105204819D02*
X56598935Y-104204819D01*
X56903696Y-104204819D02*
X57398934Y-104204819D01*
X57398934Y-104204819D02*
X57132268Y-104585771D01*
X57132268Y-104585771D02*
X57246553Y-104585771D01*
X57246553Y-104585771D02*
X57322744Y-104633390D01*
X57322744Y-104633390D02*
X57360839Y-104681009D01*
X57360839Y-104681009D02*
X57398934Y-104776247D01*
X57398934Y-104776247D02*
X57398934Y-105014342D01*
X57398934Y-105014342D02*
X57360839Y-105109580D01*
X57360839Y-105109580D02*
X57322744Y-105157200D01*
X57322744Y-105157200D02*
X57246553Y-105204819D01*
X57246553Y-105204819D02*
X57017982Y-105204819D01*
X57017982Y-105204819D02*
X56941791Y-105157200D01*
X56941791Y-105157200D02*
X56903696Y-105109580D01*
X56256078Y-107649580D02*
X56217982Y-107697200D01*
X56217982Y-107697200D02*
X56103697Y-107744819D01*
X56103697Y-107744819D02*
X56027506Y-107744819D01*
X56027506Y-107744819D02*
X55913220Y-107697200D01*
X55913220Y-107697200D02*
X55837030Y-107601961D01*
X55837030Y-107601961D02*
X55798935Y-107506723D01*
X55798935Y-107506723D02*
X55760839Y-107316247D01*
X55760839Y-107316247D02*
X55760839Y-107173390D01*
X55760839Y-107173390D02*
X55798935Y-106982914D01*
X55798935Y-106982914D02*
X55837030Y-106887676D01*
X55837030Y-106887676D02*
X55913220Y-106792438D01*
X55913220Y-106792438D02*
X56027506Y-106744819D01*
X56027506Y-106744819D02*
X56103697Y-106744819D01*
X56103697Y-106744819D02*
X56217982Y-106792438D01*
X56217982Y-106792438D02*
X56256078Y-106840057D01*
X56598935Y-107744819D02*
X56598935Y-106744819D01*
X57322744Y-107078152D02*
X57322744Y-107744819D01*
X57132268Y-106697200D02*
X56941791Y-107411485D01*
X56941791Y-107411485D02*
X57437030Y-107411485D01*
X56256078Y-110189580D02*
X56217982Y-110237200D01*
X56217982Y-110237200D02*
X56103697Y-110284819D01*
X56103697Y-110284819D02*
X56027506Y-110284819D01*
X56027506Y-110284819D02*
X55913220Y-110237200D01*
X55913220Y-110237200D02*
X55837030Y-110141961D01*
X55837030Y-110141961D02*
X55798935Y-110046723D01*
X55798935Y-110046723D02*
X55760839Y-109856247D01*
X55760839Y-109856247D02*
X55760839Y-109713390D01*
X55760839Y-109713390D02*
X55798935Y-109522914D01*
X55798935Y-109522914D02*
X55837030Y-109427676D01*
X55837030Y-109427676D02*
X55913220Y-109332438D01*
X55913220Y-109332438D02*
X56027506Y-109284819D01*
X56027506Y-109284819D02*
X56103697Y-109284819D01*
X56103697Y-109284819D02*
X56217982Y-109332438D01*
X56217982Y-109332438D02*
X56256078Y-109380057D01*
X56598935Y-110284819D02*
X56598935Y-109284819D01*
X57360839Y-109284819D02*
X56979887Y-109284819D01*
X56979887Y-109284819D02*
X56941791Y-109761009D01*
X56941791Y-109761009D02*
X56979887Y-109713390D01*
X56979887Y-109713390D02*
X57056077Y-109665771D01*
X57056077Y-109665771D02*
X57246553Y-109665771D01*
X57246553Y-109665771D02*
X57322744Y-109713390D01*
X57322744Y-109713390D02*
X57360839Y-109761009D01*
X57360839Y-109761009D02*
X57398934Y-109856247D01*
X57398934Y-109856247D02*
X57398934Y-110094342D01*
X57398934Y-110094342D02*
X57360839Y-110189580D01*
X57360839Y-110189580D02*
X57322744Y-110237200D01*
X57322744Y-110237200D02*
X57246553Y-110284819D01*
X57246553Y-110284819D02*
X57056077Y-110284819D01*
X57056077Y-110284819D02*
X56979887Y-110237200D01*
X56979887Y-110237200D02*
X56941791Y-110189580D01*
X56256078Y-112729580D02*
X56217982Y-112777200D01*
X56217982Y-112777200D02*
X56103697Y-112824819D01*
X56103697Y-112824819D02*
X56027506Y-112824819D01*
X56027506Y-112824819D02*
X55913220Y-112777200D01*
X55913220Y-112777200D02*
X55837030Y-112681961D01*
X55837030Y-112681961D02*
X55798935Y-112586723D01*
X55798935Y-112586723D02*
X55760839Y-112396247D01*
X55760839Y-112396247D02*
X55760839Y-112253390D01*
X55760839Y-112253390D02*
X55798935Y-112062914D01*
X55798935Y-112062914D02*
X55837030Y-111967676D01*
X55837030Y-111967676D02*
X55913220Y-111872438D01*
X55913220Y-111872438D02*
X56027506Y-111824819D01*
X56027506Y-111824819D02*
X56103697Y-111824819D01*
X56103697Y-111824819D02*
X56217982Y-111872438D01*
X56217982Y-111872438D02*
X56256078Y-111920057D01*
X56598935Y-112824819D02*
X56598935Y-111824819D01*
X57322744Y-111824819D02*
X57170363Y-111824819D01*
X57170363Y-111824819D02*
X57094172Y-111872438D01*
X57094172Y-111872438D02*
X57056077Y-111920057D01*
X57056077Y-111920057D02*
X56979887Y-112062914D01*
X56979887Y-112062914D02*
X56941791Y-112253390D01*
X56941791Y-112253390D02*
X56941791Y-112634342D01*
X56941791Y-112634342D02*
X56979887Y-112729580D01*
X56979887Y-112729580D02*
X57017982Y-112777200D01*
X57017982Y-112777200D02*
X57094172Y-112824819D01*
X57094172Y-112824819D02*
X57246553Y-112824819D01*
X57246553Y-112824819D02*
X57322744Y-112777200D01*
X57322744Y-112777200D02*
X57360839Y-112729580D01*
X57360839Y-112729580D02*
X57398934Y-112634342D01*
X57398934Y-112634342D02*
X57398934Y-112396247D01*
X57398934Y-112396247D02*
X57360839Y-112301009D01*
X57360839Y-112301009D02*
X57322744Y-112253390D01*
X57322744Y-112253390D02*
X57246553Y-112205771D01*
X57246553Y-112205771D02*
X57094172Y-112205771D01*
X57094172Y-112205771D02*
X57017982Y-112253390D01*
X57017982Y-112253390D02*
X56979887Y-112301009D01*
X56979887Y-112301009D02*
X56941791Y-112396247D01*
X56256078Y-115269580D02*
X56217982Y-115317200D01*
X56217982Y-115317200D02*
X56103697Y-115364819D01*
X56103697Y-115364819D02*
X56027506Y-115364819D01*
X56027506Y-115364819D02*
X55913220Y-115317200D01*
X55913220Y-115317200D02*
X55837030Y-115221961D01*
X55837030Y-115221961D02*
X55798935Y-115126723D01*
X55798935Y-115126723D02*
X55760839Y-114936247D01*
X55760839Y-114936247D02*
X55760839Y-114793390D01*
X55760839Y-114793390D02*
X55798935Y-114602914D01*
X55798935Y-114602914D02*
X55837030Y-114507676D01*
X55837030Y-114507676D02*
X55913220Y-114412438D01*
X55913220Y-114412438D02*
X56027506Y-114364819D01*
X56027506Y-114364819D02*
X56103697Y-114364819D01*
X56103697Y-114364819D02*
X56217982Y-114412438D01*
X56217982Y-114412438D02*
X56256078Y-114460057D01*
X56598935Y-115364819D02*
X56598935Y-114364819D01*
X56903696Y-114364819D02*
X57437030Y-114364819D01*
X57437030Y-114364819D02*
X57094172Y-115364819D01*
X56256078Y-117809580D02*
X56217982Y-117857200D01*
X56217982Y-117857200D02*
X56103697Y-117904819D01*
X56103697Y-117904819D02*
X56027506Y-117904819D01*
X56027506Y-117904819D02*
X55913220Y-117857200D01*
X55913220Y-117857200D02*
X55837030Y-117761961D01*
X55837030Y-117761961D02*
X55798935Y-117666723D01*
X55798935Y-117666723D02*
X55760839Y-117476247D01*
X55760839Y-117476247D02*
X55760839Y-117333390D01*
X55760839Y-117333390D02*
X55798935Y-117142914D01*
X55798935Y-117142914D02*
X55837030Y-117047676D01*
X55837030Y-117047676D02*
X55913220Y-116952438D01*
X55913220Y-116952438D02*
X56027506Y-116904819D01*
X56027506Y-116904819D02*
X56103697Y-116904819D01*
X56103697Y-116904819D02*
X56217982Y-116952438D01*
X56217982Y-116952438D02*
X56256078Y-117000057D01*
X56598935Y-117904819D02*
X56598935Y-116904819D01*
X57094172Y-117333390D02*
X57017982Y-117285771D01*
X57017982Y-117285771D02*
X56979887Y-117238152D01*
X56979887Y-117238152D02*
X56941791Y-117142914D01*
X56941791Y-117142914D02*
X56941791Y-117095295D01*
X56941791Y-117095295D02*
X56979887Y-117000057D01*
X56979887Y-117000057D02*
X57017982Y-116952438D01*
X57017982Y-116952438D02*
X57094172Y-116904819D01*
X57094172Y-116904819D02*
X57246553Y-116904819D01*
X57246553Y-116904819D02*
X57322744Y-116952438D01*
X57322744Y-116952438D02*
X57360839Y-117000057D01*
X57360839Y-117000057D02*
X57398934Y-117095295D01*
X57398934Y-117095295D02*
X57398934Y-117142914D01*
X57398934Y-117142914D02*
X57360839Y-117238152D01*
X57360839Y-117238152D02*
X57322744Y-117285771D01*
X57322744Y-117285771D02*
X57246553Y-117333390D01*
X57246553Y-117333390D02*
X57094172Y-117333390D01*
X57094172Y-117333390D02*
X57017982Y-117381009D01*
X57017982Y-117381009D02*
X56979887Y-117428628D01*
X56979887Y-117428628D02*
X56941791Y-117523866D01*
X56941791Y-117523866D02*
X56941791Y-117714342D01*
X56941791Y-117714342D02*
X56979887Y-117809580D01*
X56979887Y-117809580D02*
X57017982Y-117857200D01*
X57017982Y-117857200D02*
X57094172Y-117904819D01*
X57094172Y-117904819D02*
X57246553Y-117904819D01*
X57246553Y-117904819D02*
X57322744Y-117857200D01*
X57322744Y-117857200D02*
X57360839Y-117809580D01*
X57360839Y-117809580D02*
X57398934Y-117714342D01*
X57398934Y-117714342D02*
X57398934Y-117523866D01*
X57398934Y-117523866D02*
X57360839Y-117428628D01*
X57360839Y-117428628D02*
X57322744Y-117381009D01*
X57322744Y-117381009D02*
X57246553Y-117333390D01*
X38703398Y-98616819D02*
X38789112Y-98616819D01*
X38789112Y-98616819D02*
X38874826Y-98664438D01*
X38874826Y-98664438D02*
X38917684Y-98712057D01*
X38917684Y-98712057D02*
X38960541Y-98807295D01*
X38960541Y-98807295D02*
X39003398Y-98997771D01*
X39003398Y-98997771D02*
X39003398Y-99235866D01*
X39003398Y-99235866D02*
X38960541Y-99426342D01*
X38960541Y-99426342D02*
X38917684Y-99521580D01*
X38917684Y-99521580D02*
X38874826Y-99569200D01*
X38874826Y-99569200D02*
X38789112Y-99616819D01*
X38789112Y-99616819D02*
X38703398Y-99616819D01*
X38703398Y-99616819D02*
X38617684Y-99569200D01*
X38617684Y-99569200D02*
X38574826Y-99521580D01*
X38574826Y-99521580D02*
X38531969Y-99426342D01*
X38531969Y-99426342D02*
X38489112Y-99235866D01*
X38489112Y-99235866D02*
X38489112Y-98997771D01*
X38489112Y-98997771D02*
X38531969Y-98807295D01*
X38531969Y-98807295D02*
X38574826Y-98712057D01*
X38574826Y-98712057D02*
X38617684Y-98664438D01*
X38617684Y-98664438D02*
X38703398Y-98616819D01*
X39389112Y-99521580D02*
X39431969Y-99569200D01*
X39431969Y-99569200D02*
X39389112Y-99616819D01*
X39389112Y-99616819D02*
X39346255Y-99569200D01*
X39346255Y-99569200D02*
X39389112Y-99521580D01*
X39389112Y-99521580D02*
X39389112Y-99616819D01*
X39817683Y-99521580D02*
X39860540Y-99569200D01*
X39860540Y-99569200D02*
X39817683Y-99616819D01*
X39817683Y-99616819D02*
X39774826Y-99569200D01*
X39774826Y-99569200D02*
X39817683Y-99521580D01*
X39817683Y-99521580D02*
X39817683Y-99616819D01*
X40717683Y-99616819D02*
X40203397Y-99616819D01*
X40460540Y-99616819D02*
X40460540Y-98616819D01*
X40460540Y-98616819D02*
X40374826Y-98759676D01*
X40374826Y-98759676D02*
X40289111Y-98854914D01*
X40289111Y-98854914D02*
X40203397Y-98902533D01*
X41274826Y-98616819D02*
X41360540Y-98616819D01*
X41360540Y-98616819D02*
X41446254Y-98664438D01*
X41446254Y-98664438D02*
X41489112Y-98712057D01*
X41489112Y-98712057D02*
X41531969Y-98807295D01*
X41531969Y-98807295D02*
X41574826Y-98997771D01*
X41574826Y-98997771D02*
X41574826Y-99235866D01*
X41574826Y-99235866D02*
X41531969Y-99426342D01*
X41531969Y-99426342D02*
X41489112Y-99521580D01*
X41489112Y-99521580D02*
X41446254Y-99569200D01*
X41446254Y-99569200D02*
X41360540Y-99616819D01*
X41360540Y-99616819D02*
X41274826Y-99616819D01*
X41274826Y-99616819D02*
X41189112Y-99569200D01*
X41189112Y-99569200D02*
X41146254Y-99521580D01*
X41146254Y-99521580D02*
X41103397Y-99426342D01*
X41103397Y-99426342D02*
X41060540Y-99235866D01*
X41060540Y-99235866D02*
X41060540Y-98997771D01*
X41060540Y-98997771D02*
X41103397Y-98807295D01*
X41103397Y-98807295D02*
X41146254Y-98712057D01*
X41146254Y-98712057D02*
X41189112Y-98664438D01*
X41189112Y-98664438D02*
X41274826Y-98616819D01*
X41831969Y-98616819D02*
X42131969Y-99616819D01*
X42131969Y-99616819D02*
X42431969Y-98616819D01*
X38555779Y-97521390D02*
X39317684Y-97521390D01*
X38936731Y-97902342D02*
X38936731Y-97140438D01*
X39317684Y-98092819D02*
X38555779Y-98092819D01*
X40270064Y-97092819D02*
X39793874Y-97092819D01*
X39793874Y-97092819D02*
X39746255Y-97569009D01*
X39746255Y-97569009D02*
X39793874Y-97521390D01*
X39793874Y-97521390D02*
X39889112Y-97473771D01*
X39889112Y-97473771D02*
X40127207Y-97473771D01*
X40127207Y-97473771D02*
X40222445Y-97521390D01*
X40222445Y-97521390D02*
X40270064Y-97569009D01*
X40270064Y-97569009D02*
X40317683Y-97664247D01*
X40317683Y-97664247D02*
X40317683Y-97902342D01*
X40317683Y-97902342D02*
X40270064Y-97997580D01*
X40270064Y-97997580D02*
X40222445Y-98045200D01*
X40222445Y-98045200D02*
X40127207Y-98092819D01*
X40127207Y-98092819D02*
X39889112Y-98092819D01*
X39889112Y-98092819D02*
X39793874Y-98045200D01*
X39793874Y-98045200D02*
X39746255Y-97997580D01*
X40603398Y-97092819D02*
X40936731Y-98092819D01*
X40936731Y-98092819D02*
X41270064Y-97092819D01*
X44502268Y-97489580D02*
X44454649Y-97537200D01*
X44454649Y-97537200D02*
X44311792Y-97584819D01*
X44311792Y-97584819D02*
X44216554Y-97584819D01*
X44216554Y-97584819D02*
X44073697Y-97537200D01*
X44073697Y-97537200D02*
X43978459Y-97441961D01*
X43978459Y-97441961D02*
X43930840Y-97346723D01*
X43930840Y-97346723D02*
X43883221Y-97156247D01*
X43883221Y-97156247D02*
X43883221Y-97013390D01*
X43883221Y-97013390D02*
X43930840Y-96822914D01*
X43930840Y-96822914D02*
X43978459Y-96727676D01*
X43978459Y-96727676D02*
X44073697Y-96632438D01*
X44073697Y-96632438D02*
X44216554Y-96584819D01*
X44216554Y-96584819D02*
X44311792Y-96584819D01*
X44311792Y-96584819D02*
X44454649Y-96632438D01*
X44454649Y-96632438D02*
X44502268Y-96680057D01*
X44930840Y-97584819D02*
X44930840Y-96584819D01*
X45930839Y-97584819D02*
X45359411Y-97584819D01*
X45645125Y-97584819D02*
X45645125Y-96584819D01*
X45645125Y-96584819D02*
X45549887Y-96727676D01*
X45549887Y-96727676D02*
X45454649Y-96822914D01*
X45454649Y-96822914D02*
X45359411Y-96870533D01*
X44502268Y-100029580D02*
X44454649Y-100077200D01*
X44454649Y-100077200D02*
X44311792Y-100124819D01*
X44311792Y-100124819D02*
X44216554Y-100124819D01*
X44216554Y-100124819D02*
X44073697Y-100077200D01*
X44073697Y-100077200D02*
X43978459Y-99981961D01*
X43978459Y-99981961D02*
X43930840Y-99886723D01*
X43930840Y-99886723D02*
X43883221Y-99696247D01*
X43883221Y-99696247D02*
X43883221Y-99553390D01*
X43883221Y-99553390D02*
X43930840Y-99362914D01*
X43930840Y-99362914D02*
X43978459Y-99267676D01*
X43978459Y-99267676D02*
X44073697Y-99172438D01*
X44073697Y-99172438D02*
X44216554Y-99124819D01*
X44216554Y-99124819D02*
X44311792Y-99124819D01*
X44311792Y-99124819D02*
X44454649Y-99172438D01*
X44454649Y-99172438D02*
X44502268Y-99220057D01*
X44930840Y-100124819D02*
X44930840Y-99124819D01*
X45359411Y-99220057D02*
X45407030Y-99172438D01*
X45407030Y-99172438D02*
X45502268Y-99124819D01*
X45502268Y-99124819D02*
X45740363Y-99124819D01*
X45740363Y-99124819D02*
X45835601Y-99172438D01*
X45835601Y-99172438D02*
X45883220Y-99220057D01*
X45883220Y-99220057D02*
X45930839Y-99315295D01*
X45930839Y-99315295D02*
X45930839Y-99410533D01*
X45930839Y-99410533D02*
X45883220Y-99553390D01*
X45883220Y-99553390D02*
X45311792Y-100124819D01*
X45311792Y-100124819D02*
X45930839Y-100124819D01*
X50448934Y-117954819D02*
X50448934Y-117288152D01*
X50448934Y-117478628D02*
X50496553Y-117383390D01*
X50496553Y-117383390D02*
X50544172Y-117335771D01*
X50544172Y-117335771D02*
X50639410Y-117288152D01*
X50639410Y-117288152D02*
X50734648Y-117288152D01*
X51448934Y-117907200D02*
X51353696Y-117954819D01*
X51353696Y-117954819D02*
X51163220Y-117954819D01*
X51163220Y-117954819D02*
X51067982Y-117907200D01*
X51067982Y-117907200D02*
X51020363Y-117811961D01*
X51020363Y-117811961D02*
X51020363Y-117431009D01*
X51020363Y-117431009D02*
X51067982Y-117335771D01*
X51067982Y-117335771D02*
X51163220Y-117288152D01*
X51163220Y-117288152D02*
X51353696Y-117288152D01*
X51353696Y-117288152D02*
X51448934Y-117335771D01*
X51448934Y-117335771D02*
X51496553Y-117431009D01*
X51496553Y-117431009D02*
X51496553Y-117526247D01*
X51496553Y-117526247D02*
X51020363Y-117621485D01*
X51829887Y-117288152D02*
X52067982Y-117954819D01*
X52067982Y-117954819D02*
X52306077Y-117288152D01*
X52591792Y-116954819D02*
X53258458Y-116954819D01*
X53258458Y-116954819D02*
X52829887Y-117954819D01*
%TO.C,C5*%
D11*
X12680000Y-25220580D02*
X12680000Y-24939420D01*
X13700000Y-25220580D02*
X13700000Y-24939420D01*
%TO.C,R6*%
X5337258Y-19987500D02*
X4862742Y-19987500D01*
X5337258Y-21032500D02*
X4862742Y-21032500D01*
%TO.C,R8*%
X5337258Y-26237500D02*
X4862742Y-26237500D01*
X5337258Y-27282500D02*
X4862742Y-27282500D01*
%TO.C,R14*%
X5337258Y-29365873D02*
X4862742Y-29365873D01*
X5337258Y-30410873D02*
X4862742Y-30410873D01*
%TO.C,U1*%
X46810000Y-27085000D02*
X43210000Y-27085000D01*
X46810000Y-27085000D02*
X49010000Y-27085000D01*
X46810000Y-32555000D02*
X44610000Y-32555000D01*
X46810000Y-32555000D02*
X49010000Y-32555000D01*
%TO.C,U3*%
X14275000Y-27325000D02*
X14275000Y-25125000D01*
X14275000Y-27325000D02*
X14275000Y-30925000D01*
X19745000Y-27325000D02*
X19745000Y-25125000D01*
X19745000Y-27325000D02*
X19745000Y-29525000D01*
%TO.C,U6*%
X25975000Y-21795000D02*
X26250000Y-21795000D01*
X25975000Y-24105000D02*
X25975000Y-21795000D01*
X25975000Y-24105000D02*
X25975000Y-26415000D01*
X25975000Y-26415000D02*
X26250000Y-26415000D01*
X35620000Y-21795000D02*
X35620000Y-20505000D01*
X35895000Y-21795000D02*
X35620000Y-21795000D01*
X35895000Y-24105000D02*
X35895000Y-21795000D01*
X35895000Y-24105000D02*
X35895000Y-26415000D01*
X35895000Y-26415000D02*
X35620000Y-26415000D01*
%TO.C,R50*%
X12796986Y-14342742D02*
X12796986Y-14817258D01*
X13841986Y-14342742D02*
X13841986Y-14817258D01*
%TO.C,R49*%
X14654636Y-14342742D02*
X14654636Y-14817258D01*
X15699636Y-14342742D02*
X15699636Y-14817258D01*
%TO.C,R48*%
X16543819Y-14342742D02*
X16543819Y-14817258D01*
X17588819Y-14342742D02*
X17588819Y-14817258D01*
%TO.C,R47*%
X18425182Y-14342742D02*
X18425182Y-14817258D01*
X19470182Y-14342742D02*
X19470182Y-14817258D01*
%TO.C,R51*%
X10939336Y-14342742D02*
X10939336Y-14817258D01*
X11984336Y-14342742D02*
X11984336Y-14817258D01*
%TO.C,R7*%
X5337258Y-23097500D02*
X4862742Y-23097500D01*
X5337258Y-24142500D02*
X4862742Y-24142500D01*
%TO.C,R16*%
X5337258Y-35647500D02*
X4862742Y-35647500D01*
X5337258Y-36692500D02*
X4862742Y-36692500D01*
%TO.C,R15*%
X5337258Y-32498258D02*
X4862742Y-32498258D01*
X5337258Y-33543258D02*
X4862742Y-33543258D01*
%TO.C,C3*%
X49490580Y-25500000D02*
X49209420Y-25500000D01*
X49490580Y-26520000D02*
X49209420Y-26520000D01*
%TO.C,R4*%
X5337258Y-13763435D02*
X4862742Y-13763435D01*
X5337258Y-14808435D02*
X4862742Y-14808435D01*
%TO.C,R5*%
X5337258Y-16890281D02*
X4862742Y-16890281D01*
X5337258Y-17935281D02*
X4862742Y-17935281D01*
%TO.C,L2*%
X15230000Y-40251897D02*
X15230000Y-39926339D01*
X16250000Y-40251897D02*
X16250000Y-39926339D01*
%TO.C,L1*%
X15230000Y-53182660D02*
X15230000Y-53508218D01*
X16250000Y-53182660D02*
X16250000Y-53508218D01*
%TO.C,D24*%
X12200000Y-43609118D02*
X12200000Y-39709118D01*
X12200000Y-43609118D02*
X14200000Y-43609118D01*
X14200000Y-43609118D02*
X14200000Y-39709118D01*
%TO.C,D23*%
X12200000Y-54325439D02*
X12200000Y-50425439D01*
X12200000Y-54325439D02*
X14200000Y-54325439D01*
X14200000Y-54325439D02*
X14200000Y-50425439D01*
%TO.C,C2*%
X15005000Y-49796691D02*
X15005000Y-49274187D01*
X16475000Y-49796691D02*
X16475000Y-49274187D01*
%TO.C,C8*%
X38105580Y-26770000D02*
X37824420Y-26770000D01*
X38105580Y-27790000D02*
X37824420Y-27790000D01*
%TO.C,R79*%
X31092500Y-31962258D02*
X31092500Y-31487742D01*
X32137500Y-31962258D02*
X32137500Y-31487742D01*
%TO.C,R80*%
X32997500Y-31962258D02*
X32997500Y-31487742D01*
X34042500Y-31962258D02*
X34042500Y-31487742D01*
%TO.C,C1*%
X15005000Y-44160370D02*
X15005000Y-43637866D01*
X16475000Y-44160370D02*
X16475000Y-43637866D01*
%TO.C,D2*%
X7820000Y-19370416D02*
X9230000Y-19370416D01*
X9230000Y-17050416D02*
X7200000Y-17050416D01*
X9230000Y-17050416D02*
X9230000Y-17710416D01*
X9230000Y-18710416D02*
X9230000Y-19370416D01*
%TO.C,D3*%
X7820000Y-22500346D02*
X9230000Y-22500346D01*
X9230000Y-20180346D02*
X7200000Y-20180346D01*
X9230000Y-20180346D02*
X9230000Y-20840346D01*
X9230000Y-21840346D02*
X9230000Y-22500346D01*
%TO.C,D4*%
X7820000Y-25630276D02*
X9230000Y-25630276D01*
X9230000Y-23310276D02*
X7200000Y-23310276D01*
X9230000Y-23310276D02*
X9230000Y-23970276D01*
X9230000Y-24970276D02*
X9230000Y-25630276D01*
%TO.C,D5*%
X7820000Y-28760206D02*
X9230000Y-28760206D01*
X9230000Y-26440206D02*
X7200000Y-26440206D01*
X9230000Y-26440206D02*
X9230000Y-27100206D01*
X9230000Y-28100206D02*
X9230000Y-28760206D01*
%TO.C,D6*%
X7820000Y-31890136D02*
X9230000Y-31890136D01*
X9230000Y-29570136D02*
X7200000Y-29570136D01*
X9230000Y-29570136D02*
X9230000Y-30230136D01*
X9230000Y-31230136D02*
X9230000Y-31890136D01*
%TO.C,D7*%
X7820000Y-35020066D02*
X9230000Y-35020066D01*
X9230000Y-32700066D02*
X7200000Y-32700066D01*
X9230000Y-32700066D02*
X9230000Y-33360066D01*
X9230000Y-34360066D02*
X9230000Y-35020066D01*
%TO.C,D8*%
X7820000Y-38150000D02*
X9230000Y-38150000D01*
X9230000Y-35830000D02*
X7200000Y-35830000D01*
X9230000Y-35830000D02*
X9230000Y-36490000D01*
X9230000Y-37490000D02*
X9230000Y-38150000D01*
%TO.C,D1*%
X7820000Y-16240486D02*
X9230000Y-16240486D01*
X9230000Y-13920486D02*
X7200000Y-13920486D01*
X9230000Y-13920486D02*
X9230000Y-14580486D01*
X9230000Y-15580486D02*
X9230000Y-16240486D01*
%TO.C,R88*%
X4862742Y-27807500D02*
X5337258Y-27807500D01*
X4862742Y-28852500D02*
X5337258Y-28852500D01*
%TO.C,R1*%
X17477500Y-21866258D02*
X17477500Y-21391742D01*
X18522500Y-21866258D02*
X18522500Y-21391742D01*
%TO.C,R87*%
X4862742Y-24667500D02*
X5337258Y-24667500D01*
X4862742Y-25712500D02*
X5337258Y-25712500D01*
%TO.C,D30*%
X7190000Y-94090000D02*
X7190000Y-93430000D01*
X7190000Y-95750000D02*
X7190000Y-95090000D01*
X7190000Y-95750000D02*
X9220000Y-95750000D01*
X8600000Y-93430000D02*
X7190000Y-93430000D01*
%TO.C,R85*%
X4862742Y-18427500D02*
X5337258Y-18427500D01*
X4862742Y-19472500D02*
X5337258Y-19472500D01*
%TO.C,R89*%
X4862742Y-30947500D02*
X5337258Y-30947500D01*
X4862742Y-31992500D02*
X5337258Y-31992500D01*
%TO.C,R90*%
X4862742Y-34077500D02*
X5337258Y-34077500D01*
X4862742Y-35122500D02*
X5337258Y-35122500D01*
%TO.C,R86*%
X4862742Y-21547500D02*
X5337258Y-21547500D01*
X4862742Y-22592500D02*
X5337258Y-22592500D01*
%TO.C,R84*%
X4862742Y-15327500D02*
X5337258Y-15327500D01*
X4862742Y-16372500D02*
X5337258Y-16372500D01*
%TO.C,R91*%
X4862742Y-37237500D02*
X5337258Y-37237500D01*
X4862742Y-38282500D02*
X5337258Y-38282500D01*
%TD*%
M02*
