M48
; DRILL file KiCad 10.0.4 date 2026-08-22T17:40:41
; FORMAT={-:-/ absolute / metric / decimal}
; #@! TF.CreationDate,2026-08-22T17:40:41+02:00
; #@! TF.GenerationSoftware,Kicad,Pcbnew,10.0.4
; #@! TF.FileFunction,MixedPlating,1,2
FMAT,2
METRIC
; #@! TA.AperFunction,Plated,PTH,ViaDrill
T1C0.305
; #@! TA.AperFunction,Plated,PTH,ViaDrill
T2C0.400
; #@! TA.AperFunction,Plated,PTH,ComponentDrill
T3C1.000
; #@! TA.AperFunction,Plated,PTH,ComponentDrill
T4C1.016
; #@! TA.AperFunction,NonPlated,NPTH,ComponentDrill
T5C1.152
%
G90
G05
T1
X1.71Y-38.29
X2.67Y-38.53
X4.16Y-83.29
X5.09Y-16.64
X5.09Y-22.84
X5.09Y-25.97
X5.09Y-58.84
X5.09Y-65.1
X5.1Y-19.73
X5.1Y-29.1
X5.1Y-32.23
X5.1Y-35.39
X5.1Y-61.98
X5.1Y-68.2
X5.1Y-71.31
X5.1Y-74.42
X5.1Y-77.54
X5.7Y-39.96
X5.74Y-82.25
X6.68Y-39.96
X7.02Y-97.24
X7.47Y-22.89
X7.47Y-29.16
X7.48Y-26.01
X7.48Y-65.09
X7.48Y-68.18
X7.48Y-71.29
X7.49Y-13.49
X7.49Y-16.62
X7.49Y-19.75
X7.49Y-32.32
X7.49Y-35.41
X7.49Y-61.97
X7.49Y-74.42
X7.49Y-77.53
X7.51Y-58.86
X7.68Y-39.96
X8.51Y-98.44
X8.7Y-16.63
X8.7Y-19.78
X8.7Y-22.91
X8.7Y-26.04
X8.7Y-29.17
X8.7Y-32.3
X8.7Y-35.43
X8.89Y-80.55
X10.67Y-86.16
X10.88Y-97.14
X11.77Y-25.57
X12.8Y-57.88
X13.25Y-80.15
X13.33Y-66.89
X13.36Y-65.56
X13.53Y-27.28
X13.72Y-57.2
X13.73Y-28.48
X14.47Y-57.84
X14.85Y-65.4
X16.0Y-32.01
X17.25Y-94.62
X18.37Y-34.99
X18.878Y-60.748
X19.17Y-36.11
X19.19Y-33.69
X19.99Y-22.86
X21.03Y-22.13
X22.38Y-21.71
X22.86Y-65.69
X22.86Y-66.58
X22.86Y-67.57
X23.19Y-30.1
X24.19Y-26.31
X27.65Y-29.63
X30.16Y-31.25
X31.18Y-52.34
X31.2Y-41.1
X31.82Y-15.35
X32.33Y-91.17
X32.63Y-81.47
X33.06Y-96.36
X34.48Y-17.49
X34.5Y-42.2
X34.83Y-31.38
X35.8Y-52.9
X36.23Y-14.45
X36.5Y-55.9
X36.97Y-77.67
X37.53Y-38.49
X38.15Y-90.13
X38.9Y-54.1
X39.13Y-32.09
X39.58Y-98.59
X40.33Y-29.74
X40.5Y-48.5
X40.87Y-39.83
X40.97Y-93.51
X41.14Y-31.46
X41.18Y-37.19
X42.41Y-28.86
X43.6Y-101.36
X43.9Y-55.2
X43.95Y-86.79
X45.966Y-86.97
X46.12Y-35.34
X48.49Y-77.55
X49.71Y-33.78
X50.03Y-97.13
X50.03Y-99.67
X50.97Y-94.84
X51.395Y-32.17
X51.88Y-26.24
X52.235Y-31.57
X52.415Y-41.1
X52.57Y-99.67
X52.824Y-94.59
X53.21Y-30.844
X53.79Y-26.83
X54.44Y-36.43
X54.67Y-35.07
X54.85Y-94.44
X54.99Y-52.68
X55.0Y-77.67
X55.24Y-50.22
X55.65Y-26.12
X55.87Y-83.67
T2
X2.925Y-53.925
X2.925Y-83.925
X26.925Y-11.925
X26.925Y-29.925
X32.925Y-17.925
X32.925Y-35.925
X32.925Y-41.925
X32.925Y-47.925
X32.925Y-65.925
X32.925Y-71.925
X32.925Y-77.925
X32.925Y-89.925
X38.925Y-29.925
X38.925Y-35.925
X38.925Y-41.925
X38.925Y-47.925
X38.925Y-77.925
X44.925Y-77.925
X44.925Y-101.925
X50.925Y-77.925
X56.925Y-53.925
X56.925Y-77.925
X56.925Y-83.925
T3
X1.77Y-18.39
X1.77Y-20.93
X1.77Y-23.47
X1.77Y-26.01
X1.77Y-28.55
X1.77Y-31.09
X1.77Y-33.63
X1.77Y-36.17
X1.77Y-41.25
X1.77Y-43.79
X1.77Y-46.33
X1.77Y-48.87
X1.77Y-56.49
X1.77Y-59.03
X1.77Y-61.57
X1.77Y-64.11
X1.77Y-66.65
X1.77Y-69.19
X1.77Y-71.73
X1.77Y-74.27
X1.77Y-94.59
X1.77Y-97.13
X1.77Y-99.67
X1.77Y-102.21
X1.77Y-104.75
X1.77Y-107.29
X1.77Y-109.83
X1.77Y-112.37
X1.77Y-114.91
X1.77Y-117.45
X4.31Y-10.77
X6.85Y-10.77
X6.85Y-41.631
X6.85Y-44.171
X6.85Y-46.711
X6.85Y-49.251
X6.85Y-51.791
X9.39Y-10.77
X9.39Y-41.631
X9.39Y-44.171
X9.39Y-46.711
X9.39Y-49.251
X9.39Y-51.791
X11.93Y-10.77
X14.47Y-10.77
X17.01Y-10.77
X19.55Y-10.77
X22.09Y-10.77
X29.71Y-10.77
X32.25Y-10.77
X38.6Y-10.77
X41.14Y-10.77
X43.68Y-10.77
X46.22Y-10.77
X48.76Y-10.77
X51.3Y-10.77
X53.84Y-10.77
X56.38Y-10.77
X58.92Y-18.39
X58.92Y-20.93
X58.92Y-23.47
X58.92Y-26.01
X58.92Y-28.55
X58.92Y-31.09
X58.92Y-33.63
X58.92Y-36.17
X58.92Y-38.71
X58.92Y-41.25
X58.92Y-43.79
X58.92Y-46.33
X58.92Y-51.41
X58.92Y-53.95
X58.92Y-97.13
X58.92Y-99.67
X58.92Y-102.21
X58.92Y-104.75
X58.92Y-107.29
X58.92Y-109.83
X58.92Y-112.37
X58.92Y-114.91
X58.92Y-117.45
T4
X17.98Y-105.953
X17.98Y-108.493
X20.52Y-106.207
X20.52Y-108.747
X20.663Y-47.27
X20.663Y-52.35
X20.663Y-57.43
X20.917Y-49.81
X20.917Y-54.89
X23.06Y-105.953
X23.06Y-108.493
X23.203Y-47.27
X23.203Y-52.35
X23.203Y-57.43
X23.457Y-49.81
X23.457Y-54.89
X25.6Y-106.207
X25.6Y-108.747
X28.14Y-105.953
X28.14Y-108.493
X43.98Y-105.953
X43.98Y-108.493
X46.52Y-106.207
X46.52Y-108.747
X48.663Y-47.27
X48.663Y-52.35
X48.663Y-57.43
X48.917Y-49.81
X48.917Y-54.89
X49.06Y-105.953
X49.06Y-108.493
X51.203Y-47.27
X51.203Y-52.35
X51.203Y-57.43
X51.457Y-49.81
X51.457Y-54.89
X51.6Y-106.207
X51.6Y-108.747
X54.14Y-105.953
X54.14Y-108.493
T5
X2.1Y-12.6
X2.1Y-89.47
X58.43Y-12.6
M30
