%TF.GenerationSoftware,KiCad,Pcbnew,10.0.4*%
%TF.CreationDate,2026-08-22T17:40:40+02:00*%
%TF.ProjectId,KoloredVerb.core,4b6f6c6f-7265-4645-9665-72622e636f72,rev?*%
%TF.SameCoordinates,Original*%
%TF.FileFunction,Paste,Top*%
%TF.FilePolarity,Positive*%
%FSLAX46Y46*%
G04 Gerber Fmt 4.6, Leading zero omitted, Abs format (unit mm)*
G04 Created by KiCad (PCBNEW 10.0.4) date 2026-08-22 17:40:40*
%MOMM*%
%LPD*%
G01*
G04 APERTURE LIST*
G04 Aperture macros list*
%AMRoundRect*
0 Rectangle with rounded corners*
0 $1 Rounding radius*
0 $2 $3 $4 $5 $6 $7 $8 $9 X,Y pos of 4 corners*
0 Add a 4 corners polygon primitive as box body*
4,1,4,$2,$3,$4,$5,$6,$7,$8,$9,$2,$3,0*
0 Add four circle primitives for the rounded corners*
1,1,$1+$1,$2,$3*
1,1,$1+$1,$4,$5*
1,1,$1+$1,$6,$7*
1,1,$1+$1,$8,$9*
0 Add four rect primitives between the rounded corners*
20,1,$1+$1,$2,$3,$4,$5,0*
20,1,$1+$1,$4,$5,$6,$7,0*
20,1,$1+$1,$6,$7,$8,$9,0*
20,1,$1+$1,$8,$9,$2,$3,0*%
G04 Aperture macros list end*
%ADD10RoundRect,0.225000X0.250000X-0.225000X0.250000X0.225000X-0.250000X0.225000X-0.250000X-0.225000X0*%
%ADD11RoundRect,0.200000X0.200000X0.275000X-0.200000X0.275000X-0.200000X-0.275000X0.200000X-0.275000X0*%
%ADD12RoundRect,0.100000X-0.637500X-0.100000X0.637500X-0.100000X0.637500X0.100000X-0.637500X0.100000X0*%
%ADD13RoundRect,0.100000X0.100000X-0.637500X0.100000X0.637500X-0.100000X0.637500X-0.100000X-0.637500X0*%
%ADD14RoundRect,0.100000X-0.100000X0.637500X-0.100000X-0.637500X0.100000X-0.637500X0.100000X0.637500X0*%
%ADD15RoundRect,0.200000X-0.275000X0.200000X-0.275000X-0.200000X0.275000X-0.200000X0.275000X0.200000X0*%
%ADD16RoundRect,0.225000X0.225000X0.250000X-0.225000X0.250000X-0.225000X-0.250000X0.225000X-0.250000X0*%
%ADD17RoundRect,0.218750X0.256250X-0.218750X0.256250X0.218750X-0.256250X0.218750X-0.256250X-0.218750X0*%
%ADD18RoundRect,0.218750X-0.256250X0.218750X-0.256250X-0.218750X0.256250X-0.218750X0.256250X0.218750X0*%
%ADD19R,1.200000X0.900000*%
%ADD20RoundRect,0.250000X0.475000X-0.250000X0.475000X0.250000X-0.475000X0.250000X-0.475000X-0.250000X0*%
%ADD21RoundRect,0.200000X0.275000X-0.200000X0.275000X0.200000X-0.275000X0.200000X-0.275000X-0.200000X0*%
%ADD22R,0.700000X0.450000*%
%ADD23RoundRect,0.200000X-0.200000X-0.275000X0.200000X-0.275000X0.200000X0.275000X-0.200000X0.275000X0*%
G04 APERTURE END LIST*
D10*
%TO.C,C5*%
X13190000Y-25855000D03*
X13190000Y-24305000D03*
%TD*%
D11*
%TO.C,R6*%
X5925000Y-20510000D03*
X4275000Y-20510000D03*
%TD*%
%TO.C,R8*%
X5925000Y-26760000D03*
X4275000Y-26760000D03*
%TD*%
%TO.C,R14*%
X5925000Y-29888373D03*
X4275000Y-29888373D03*
%TD*%
D12*
%TO.C,U1*%
X43947500Y-27545000D03*
X43947500Y-28195000D03*
X43947500Y-28845000D03*
X43947500Y-29495000D03*
X43947500Y-30145000D03*
X43947500Y-30795000D03*
X43947500Y-31445000D03*
X43947500Y-32095000D03*
X49672500Y-32095000D03*
X49672500Y-31445000D03*
X49672500Y-30795000D03*
X49672500Y-30145000D03*
X49672500Y-29495000D03*
X49672500Y-28845000D03*
X49672500Y-28195000D03*
X49672500Y-27545000D03*
%TD*%
D13*
%TO.C,U3*%
X14735000Y-30187500D03*
X15385000Y-30187500D03*
X16035000Y-30187500D03*
X16685000Y-30187500D03*
X17335000Y-30187500D03*
X17985000Y-30187500D03*
X18635000Y-30187500D03*
X19285000Y-30187500D03*
X19285000Y-24462500D03*
X18635000Y-24462500D03*
X17985000Y-24462500D03*
X17335000Y-24462500D03*
X16685000Y-24462500D03*
X16035000Y-24462500D03*
X15385000Y-24462500D03*
X14735000Y-24462500D03*
%TD*%
D14*
%TO.C,U6*%
X35160000Y-21242500D03*
X34510000Y-21242500D03*
X33860000Y-21242500D03*
X33210000Y-21242500D03*
X32560000Y-21242500D03*
X31910000Y-21242500D03*
X31260000Y-21242500D03*
X30610000Y-21242500D03*
X29960000Y-21242500D03*
X29310000Y-21242500D03*
X28660000Y-21242500D03*
X28010000Y-21242500D03*
X27360000Y-21242500D03*
X26710000Y-21242500D03*
X26710000Y-26967500D03*
X27360000Y-26967500D03*
X28010000Y-26967500D03*
X28660000Y-26967500D03*
X29310000Y-26967500D03*
X29960000Y-26967500D03*
X30610000Y-26967500D03*
X31260000Y-26967500D03*
X31910000Y-26967500D03*
X32560000Y-26967500D03*
X33210000Y-26967500D03*
X33860000Y-26967500D03*
X34510000Y-26967500D03*
X35160000Y-26967500D03*
%TD*%
D15*
%TO.C,R50*%
X13319486Y-13755000D03*
X13319486Y-15405000D03*
%TD*%
%TO.C,R49*%
X15177136Y-13755000D03*
X15177136Y-15405000D03*
%TD*%
%TO.C,R48*%
X17066319Y-13755000D03*
X17066319Y-15405000D03*
%TD*%
%TO.C,R47*%
X18947682Y-13755000D03*
X18947682Y-15405000D03*
%TD*%
%TO.C,R51*%
X11461836Y-13755000D03*
X11461836Y-15405000D03*
%TD*%
D11*
%TO.C,R7*%
X5925000Y-23620000D03*
X4275000Y-23620000D03*
%TD*%
%TO.C,R16*%
X5925000Y-36170000D03*
X4275000Y-36170000D03*
%TD*%
%TO.C,R15*%
X5925000Y-33020758D03*
X4275000Y-33020758D03*
%TD*%
D16*
%TO.C,C3*%
X50125000Y-26010000D03*
X48575000Y-26010000D03*
%TD*%
D11*
%TO.C,R4*%
X5925000Y-14285935D03*
X4275000Y-14285935D03*
%TD*%
%TO.C,R5*%
X5925000Y-17412781D03*
X4275000Y-17412781D03*
%TD*%
D17*
%TO.C,L2*%
X15740000Y-40876618D03*
X15740000Y-39301618D03*
%TD*%
D18*
%TO.C,L1*%
X15740000Y-52557939D03*
X15740000Y-54132939D03*
%TD*%
D19*
%TO.C,D24*%
X13200000Y-43009118D03*
X13200000Y-39709118D03*
%TD*%
%TO.C,D23*%
X13200000Y-53725439D03*
X13200000Y-50425439D03*
%TD*%
D20*
%TO.C,C2*%
X15740000Y-50485439D03*
X15740000Y-48585439D03*
%TD*%
D16*
%TO.C,C8*%
X38740000Y-27280000D03*
X37190000Y-27280000D03*
%TD*%
D21*
%TO.C,R79*%
X31615000Y-32550000D03*
X31615000Y-30900000D03*
%TD*%
%TO.C,R80*%
X33520000Y-32550000D03*
X33520000Y-30900000D03*
%TD*%
D20*
%TO.C,C1*%
X15740000Y-44849118D03*
X15740000Y-42949118D03*
%TD*%
D22*
%TO.C,D2*%
X7500000Y-17560416D03*
X7500000Y-18860416D03*
X9500000Y-18210416D03*
%TD*%
%TO.C,D3*%
X7500000Y-20690346D03*
X7500000Y-21990346D03*
X9500000Y-21340346D03*
%TD*%
%TO.C,D4*%
X7500000Y-23820276D03*
X7500000Y-25120276D03*
X9500000Y-24470276D03*
%TD*%
%TO.C,D5*%
X7500000Y-26950206D03*
X7500000Y-28250206D03*
X9500000Y-27600206D03*
%TD*%
%TO.C,D6*%
X7500000Y-30080136D03*
X7500000Y-31380136D03*
X9500000Y-30730136D03*
%TD*%
%TO.C,D7*%
X7500000Y-33210066D03*
X7500000Y-34510066D03*
X9500000Y-33860066D03*
%TD*%
%TO.C,D8*%
X7500000Y-36340000D03*
X7500000Y-37640000D03*
X9500000Y-36990000D03*
%TD*%
%TO.C,D1*%
X7500000Y-14430486D03*
X7500000Y-15730486D03*
X9500000Y-15080486D03*
%TD*%
D23*
%TO.C,R88*%
X4275000Y-28330000D03*
X5925000Y-28330000D03*
%TD*%
D21*
%TO.C,R1*%
X18000000Y-22454000D03*
X18000000Y-20804000D03*
%TD*%
D23*
%TO.C,R87*%
X4275000Y-25190000D03*
X5925000Y-25190000D03*
%TD*%
D22*
%TO.C,D30*%
X8920000Y-95240000D03*
X8920000Y-93940000D03*
X6920000Y-94590000D03*
%TD*%
D23*
%TO.C,R85*%
X4275000Y-18950000D03*
X5925000Y-18950000D03*
%TD*%
%TO.C,R89*%
X4275000Y-31470000D03*
X5925000Y-31470000D03*
%TD*%
%TO.C,R90*%
X4275000Y-34600000D03*
X5925000Y-34600000D03*
%TD*%
%TO.C,R86*%
X4275000Y-22070000D03*
X5925000Y-22070000D03*
%TD*%
%TO.C,R84*%
X4275000Y-15850000D03*
X5925000Y-15850000D03*
%TD*%
%TO.C,R91*%
X4275000Y-37760000D03*
X5925000Y-37760000D03*
%TD*%
M02*
