%TF.GenerationSoftware,KiCad,Pcbnew,10.0.4*%
%TF.CreationDate,2026-08-22T17:40:40+02:00*%
%TF.ProjectId,KoloredVerb.core,4b6f6c6f-7265-4645-9665-72622e636f72,rev?*%
%TF.SameCoordinates,Original*%
%TF.FileFunction,Soldermask,Bot*%
%TF.FilePolarity,Negative*%
%FSLAX46Y46*%
G04 Gerber Fmt 4.6, Leading zero omitted, Abs format (unit mm)*
G04 Created by KiCad (PCBNEW 10.0.4) date 2026-08-22 17:40:40*
%MOMM*%
%LPD*%
G01*
G04 APERTURE LIST*
G04 APERTURE END LIST*
G36*
X2025451Y-116607893D02*
G01*
X2184829Y-116673909D01*
X2328266Y-116769751D01*
X2450249Y-116891734D01*
X2546091Y-117035171D01*
X2612107Y-117194549D01*
X2645763Y-117363745D01*
X2645763Y-117536255D01*
X2612107Y-117705451D01*
X2546091Y-117864829D01*
X2450249Y-118008266D01*
X2328266Y-118130249D01*
X2184829Y-118226091D01*
X2025451Y-118292107D01*
X1856255Y-118325763D01*
X1683745Y-118325763D01*
X1514549Y-118292107D01*
X1355171Y-118226091D01*
X1211734Y-118130249D01*
X1089751Y-118008266D01*
X993909Y-117864829D01*
X927893Y-117705451D01*
X894237Y-117536255D01*
X894237Y-117363745D01*
X927893Y-117194549D01*
X993909Y-117035171D01*
X1089751Y-116891734D01*
X1211734Y-116769751D01*
X1355171Y-116673909D01*
X1514549Y-116607893D01*
X1683745Y-116574237D01*
X1856255Y-116574237D01*
X2025451Y-116607893D01*
G37*
G36*
X59175451Y-116607893D02*
G01*
X59334829Y-116673909D01*
X59478266Y-116769751D01*
X59600249Y-116891734D01*
X59696091Y-117035171D01*
X59762107Y-117194549D01*
X59795763Y-117363745D01*
X59795763Y-117536255D01*
X59762107Y-117705451D01*
X59696091Y-117864829D01*
X59600249Y-118008266D01*
X59478266Y-118130249D01*
X59334829Y-118226091D01*
X59175451Y-118292107D01*
X59006255Y-118325763D01*
X58833745Y-118325763D01*
X58664549Y-118292107D01*
X58505171Y-118226091D01*
X58361734Y-118130249D01*
X58239751Y-118008266D01*
X58143909Y-117864829D01*
X58077893Y-117705451D01*
X58044237Y-117536255D01*
X58044237Y-117363745D01*
X58077893Y-117194549D01*
X58143909Y-117035171D01*
X58239751Y-116891734D01*
X58361734Y-116769751D01*
X58505171Y-116673909D01*
X58664549Y-116607893D01*
X58833745Y-116574237D01*
X59006255Y-116574237D01*
X59175451Y-116607893D01*
G37*
G36*
X2025451Y-114067893D02*
G01*
X2184829Y-114133909D01*
X2328266Y-114229751D01*
X2450249Y-114351734D01*
X2546091Y-114495171D01*
X2612107Y-114654549D01*
X2645763Y-114823745D01*
X2645763Y-114996255D01*
X2612107Y-115165451D01*
X2546091Y-115324829D01*
X2450249Y-115468266D01*
X2328266Y-115590249D01*
X2184829Y-115686091D01*
X2025451Y-115752107D01*
X1856255Y-115785763D01*
X1683745Y-115785763D01*
X1514549Y-115752107D01*
X1355171Y-115686091D01*
X1211734Y-115590249D01*
X1089751Y-115468266D01*
X993909Y-115324829D01*
X927893Y-115165451D01*
X894237Y-114996255D01*
X894237Y-114823745D01*
X927893Y-114654549D01*
X993909Y-114495171D01*
X1089751Y-114351734D01*
X1211734Y-114229751D01*
X1355171Y-114133909D01*
X1514549Y-114067893D01*
X1683745Y-114034237D01*
X1856255Y-114034237D01*
X2025451Y-114067893D01*
G37*
G36*
X59175451Y-114067893D02*
G01*
X59334829Y-114133909D01*
X59478266Y-114229751D01*
X59600249Y-114351734D01*
X59696091Y-114495171D01*
X59762107Y-114654549D01*
X59795763Y-114823745D01*
X59795763Y-114996255D01*
X59762107Y-115165451D01*
X59696091Y-115324829D01*
X59600249Y-115468266D01*
X59478266Y-115590249D01*
X59334829Y-115686091D01*
X59175451Y-115752107D01*
X59006255Y-115785763D01*
X58833745Y-115785763D01*
X58664549Y-115752107D01*
X58505171Y-115686091D01*
X58361734Y-115590249D01*
X58239751Y-115468266D01*
X58143909Y-115324829D01*
X58077893Y-115165451D01*
X58044237Y-114996255D01*
X58044237Y-114823745D01*
X58077893Y-114654549D01*
X58143909Y-114495171D01*
X58239751Y-114351734D01*
X58361734Y-114229751D01*
X58505171Y-114133909D01*
X58664549Y-114067893D01*
X58833745Y-114034237D01*
X59006255Y-114034237D01*
X59175451Y-114067893D01*
G37*
G36*
X2025451Y-111527893D02*
G01*
X2184829Y-111593909D01*
X2328266Y-111689751D01*
X2450249Y-111811734D01*
X2546091Y-111955171D01*
X2612107Y-112114549D01*
X2645763Y-112283745D01*
X2645763Y-112456255D01*
X2612107Y-112625451D01*
X2546091Y-112784829D01*
X2450249Y-112928266D01*
X2328266Y-113050249D01*
X2184829Y-113146091D01*
X2025451Y-113212107D01*
X1856255Y-113245763D01*
X1683745Y-113245763D01*
X1514549Y-113212107D01*
X1355171Y-113146091D01*
X1211734Y-113050249D01*
X1089751Y-112928266D01*
X993909Y-112784829D01*
X927893Y-112625451D01*
X894237Y-112456255D01*
X894237Y-112283745D01*
X927893Y-112114549D01*
X993909Y-111955171D01*
X1089751Y-111811734D01*
X1211734Y-111689751D01*
X1355171Y-111593909D01*
X1514549Y-111527893D01*
X1683745Y-111494237D01*
X1856255Y-111494237D01*
X2025451Y-111527893D01*
G37*
G36*
X59175451Y-111527893D02*
G01*
X59334829Y-111593909D01*
X59478266Y-111689751D01*
X59600249Y-111811734D01*
X59696091Y-111955171D01*
X59762107Y-112114549D01*
X59795763Y-112283745D01*
X59795763Y-112456255D01*
X59762107Y-112625451D01*
X59696091Y-112784829D01*
X59600249Y-112928266D01*
X59478266Y-113050249D01*
X59334829Y-113146091D01*
X59175451Y-113212107D01*
X59006255Y-113245763D01*
X58833745Y-113245763D01*
X58664549Y-113212107D01*
X58505171Y-113146091D01*
X58361734Y-113050249D01*
X58239751Y-112928266D01*
X58143909Y-112784829D01*
X58077893Y-112625451D01*
X58044237Y-112456255D01*
X58044237Y-112283745D01*
X58077893Y-112114549D01*
X58143909Y-111955171D01*
X58239751Y-111811734D01*
X58361734Y-111689751D01*
X58505171Y-111593909D01*
X58664549Y-111527893D01*
X58833745Y-111494237D01*
X59006255Y-111494237D01*
X59175451Y-111527893D01*
G37*
G36*
X2025451Y-108987893D02*
G01*
X2184829Y-109053909D01*
X2328266Y-109149751D01*
X2450249Y-109271734D01*
X2546091Y-109415171D01*
X2612107Y-109574549D01*
X2645763Y-109743745D01*
X2645763Y-109916255D01*
X2612107Y-110085451D01*
X2546091Y-110244829D01*
X2450249Y-110388266D01*
X2328266Y-110510249D01*
X2184829Y-110606091D01*
X2025451Y-110672107D01*
X1856255Y-110705763D01*
X1683745Y-110705763D01*
X1514549Y-110672107D01*
X1355171Y-110606091D01*
X1211734Y-110510249D01*
X1089751Y-110388266D01*
X993909Y-110244829D01*
X927893Y-110085451D01*
X894237Y-109916255D01*
X894237Y-109743745D01*
X927893Y-109574549D01*
X993909Y-109415171D01*
X1089751Y-109271734D01*
X1211734Y-109149751D01*
X1355171Y-109053909D01*
X1514549Y-108987893D01*
X1683745Y-108954237D01*
X1856255Y-108954237D01*
X2025451Y-108987893D01*
G37*
G36*
X59175451Y-108987893D02*
G01*
X59334829Y-109053909D01*
X59478266Y-109149751D01*
X59600249Y-109271734D01*
X59696091Y-109415171D01*
X59762107Y-109574549D01*
X59795763Y-109743745D01*
X59795763Y-109916255D01*
X59762107Y-110085451D01*
X59696091Y-110244829D01*
X59600249Y-110388266D01*
X59478266Y-110510249D01*
X59334829Y-110606091D01*
X59175451Y-110672107D01*
X59006255Y-110705763D01*
X58833745Y-110705763D01*
X58664549Y-110672107D01*
X58505171Y-110606091D01*
X58361734Y-110510249D01*
X58239751Y-110388266D01*
X58143909Y-110244829D01*
X58077893Y-110085451D01*
X58044237Y-109916255D01*
X58044237Y-109743745D01*
X58077893Y-109574549D01*
X58143909Y-109415171D01*
X58239751Y-109271734D01*
X58361734Y-109149751D01*
X58505171Y-109053909D01*
X58664549Y-108987893D01*
X58833745Y-108954237D01*
X59006255Y-108954237D01*
X59175451Y-108987893D01*
G37*
G36*
X20814929Y-107774749D02*
G01*
X20998939Y-107850968D01*
X21164544Y-107961621D01*
X21305379Y-108102456D01*
X21416032Y-108268061D01*
X21492251Y-108452071D01*
X21531108Y-108647415D01*
X21531108Y-108846585D01*
X21492251Y-109041929D01*
X21416032Y-109225939D01*
X21305379Y-109391544D01*
X21164544Y-109532379D01*
X20998939Y-109643032D01*
X20814929Y-109719251D01*
X20619585Y-109758108D01*
X20420415Y-109758108D01*
X20225071Y-109719251D01*
X20041061Y-109643032D01*
X19875456Y-109532379D01*
X19734621Y-109391544D01*
X19623968Y-109225939D01*
X19547749Y-109041929D01*
X19508892Y-108846585D01*
X19508892Y-108647415D01*
X19547749Y-108452071D01*
X19623968Y-108268061D01*
X19734621Y-108102456D01*
X19875456Y-107961621D01*
X20041061Y-107850968D01*
X20225071Y-107774749D01*
X20420415Y-107735892D01*
X20619585Y-107735892D01*
X20814929Y-107774749D01*
G37*
G36*
X25894929Y-107774749D02*
G01*
X26078939Y-107850968D01*
X26244544Y-107961621D01*
X26385379Y-108102456D01*
X26496032Y-108268061D01*
X26572251Y-108452071D01*
X26611108Y-108647415D01*
X26611108Y-108846585D01*
X26572251Y-109041929D01*
X26496032Y-109225939D01*
X26385379Y-109391544D01*
X26244544Y-109532379D01*
X26078939Y-109643032D01*
X25894929Y-109719251D01*
X25699585Y-109758108D01*
X25500415Y-109758108D01*
X25305071Y-109719251D01*
X25121061Y-109643032D01*
X24955456Y-109532379D01*
X24814621Y-109391544D01*
X24703968Y-109225939D01*
X24627749Y-109041929D01*
X24588892Y-108846585D01*
X24588892Y-108647415D01*
X24627749Y-108452071D01*
X24703968Y-108268061D01*
X24814621Y-108102456D01*
X24955456Y-107961621D01*
X25121061Y-107850968D01*
X25305071Y-107774749D01*
X25500415Y-107735892D01*
X25699585Y-107735892D01*
X25894929Y-107774749D01*
G37*
G36*
X46814929Y-107774749D02*
G01*
X46998939Y-107850968D01*
X47164544Y-107961621D01*
X47305379Y-108102456D01*
X47416032Y-108268061D01*
X47492251Y-108452071D01*
X47531108Y-108647415D01*
X47531108Y-108846585D01*
X47492251Y-109041929D01*
X47416032Y-109225939D01*
X47305379Y-109391544D01*
X47164544Y-109532379D01*
X46998939Y-109643032D01*
X46814929Y-109719251D01*
X46619585Y-109758108D01*
X46420415Y-109758108D01*
X46225071Y-109719251D01*
X46041061Y-109643032D01*
X45875456Y-109532379D01*
X45734621Y-109391544D01*
X45623968Y-109225939D01*
X45547749Y-109041929D01*
X45508892Y-108846585D01*
X45508892Y-108647415D01*
X45547749Y-108452071D01*
X45623968Y-108268061D01*
X45734621Y-108102456D01*
X45875456Y-107961621D01*
X46041061Y-107850968D01*
X46225071Y-107774749D01*
X46420415Y-107735892D01*
X46619585Y-107735892D01*
X46814929Y-107774749D01*
G37*
G36*
X51894929Y-107774749D02*
G01*
X52078939Y-107850968D01*
X52244544Y-107961621D01*
X52385379Y-108102456D01*
X52496032Y-108268061D01*
X52572251Y-108452071D01*
X52611108Y-108647415D01*
X52611108Y-108846585D01*
X52572251Y-109041929D01*
X52496032Y-109225939D01*
X52385379Y-109391544D01*
X52244544Y-109532379D01*
X52078939Y-109643032D01*
X51894929Y-109719251D01*
X51699585Y-109758108D01*
X51500415Y-109758108D01*
X51305071Y-109719251D01*
X51121061Y-109643032D01*
X50955456Y-109532379D01*
X50814621Y-109391544D01*
X50703968Y-109225939D01*
X50627749Y-109041929D01*
X50588892Y-108846585D01*
X50588892Y-108647415D01*
X50627749Y-108452071D01*
X50703968Y-108268061D01*
X50814621Y-108102456D01*
X50955456Y-107961621D01*
X51121061Y-107850968D01*
X51305071Y-107774749D01*
X51500415Y-107735892D01*
X51699585Y-107735892D01*
X51894929Y-107774749D01*
G37*
G36*
X18274929Y-107520749D02*
G01*
X18458939Y-107596968D01*
X18624544Y-107707621D01*
X18765379Y-107848456D01*
X18876032Y-108014061D01*
X18952251Y-108198071D01*
X18991108Y-108393415D01*
X18991108Y-108592585D01*
X18952251Y-108787929D01*
X18876032Y-108971939D01*
X18765379Y-109137544D01*
X18624544Y-109278379D01*
X18458939Y-109389032D01*
X18274929Y-109465251D01*
X18079585Y-109504108D01*
X17880415Y-109504108D01*
X17685071Y-109465251D01*
X17501061Y-109389032D01*
X17335456Y-109278379D01*
X17194621Y-109137544D01*
X17083968Y-108971939D01*
X17007749Y-108787929D01*
X16968892Y-108592585D01*
X16968892Y-108393415D01*
X17007749Y-108198071D01*
X17083968Y-108014061D01*
X17194621Y-107848456D01*
X17335456Y-107707621D01*
X17501061Y-107596968D01*
X17685071Y-107520749D01*
X17880415Y-107481892D01*
X18079585Y-107481892D01*
X18274929Y-107520749D01*
G37*
G36*
X23354929Y-107520749D02*
G01*
X23538939Y-107596968D01*
X23704544Y-107707621D01*
X23845379Y-107848456D01*
X23956032Y-108014061D01*
X24032251Y-108198071D01*
X24071108Y-108393415D01*
X24071108Y-108592585D01*
X24032251Y-108787929D01*
X23956032Y-108971939D01*
X23845379Y-109137544D01*
X23704544Y-109278379D01*
X23538939Y-109389032D01*
X23354929Y-109465251D01*
X23159585Y-109504108D01*
X22960415Y-109504108D01*
X22765071Y-109465251D01*
X22581061Y-109389032D01*
X22415456Y-109278379D01*
X22274621Y-109137544D01*
X22163968Y-108971939D01*
X22087749Y-108787929D01*
X22048892Y-108592585D01*
X22048892Y-108393415D01*
X22087749Y-108198071D01*
X22163968Y-108014061D01*
X22274621Y-107848456D01*
X22415456Y-107707621D01*
X22581061Y-107596968D01*
X22765071Y-107520749D01*
X22960415Y-107481892D01*
X23159585Y-107481892D01*
X23354929Y-107520749D01*
G37*
G36*
X28434929Y-107520749D02*
G01*
X28618939Y-107596968D01*
X28784544Y-107707621D01*
X28925379Y-107848456D01*
X29036032Y-108014061D01*
X29112251Y-108198071D01*
X29151108Y-108393415D01*
X29151108Y-108592585D01*
X29112251Y-108787929D01*
X29036032Y-108971939D01*
X28925379Y-109137544D01*
X28784544Y-109278379D01*
X28618939Y-109389032D01*
X28434929Y-109465251D01*
X28239585Y-109504108D01*
X28040415Y-109504108D01*
X27845071Y-109465251D01*
X27661061Y-109389032D01*
X27495456Y-109278379D01*
X27354621Y-109137544D01*
X27243968Y-108971939D01*
X27167749Y-108787929D01*
X27128892Y-108592585D01*
X27128892Y-108393415D01*
X27167749Y-108198071D01*
X27243968Y-108014061D01*
X27354621Y-107848456D01*
X27495456Y-107707621D01*
X27661061Y-107596968D01*
X27845071Y-107520749D01*
X28040415Y-107481892D01*
X28239585Y-107481892D01*
X28434929Y-107520749D01*
G37*
G36*
X44274929Y-107520749D02*
G01*
X44458939Y-107596968D01*
X44624544Y-107707621D01*
X44765379Y-107848456D01*
X44876032Y-108014061D01*
X44952251Y-108198071D01*
X44991108Y-108393415D01*
X44991108Y-108592585D01*
X44952251Y-108787929D01*
X44876032Y-108971939D01*
X44765379Y-109137544D01*
X44624544Y-109278379D01*
X44458939Y-109389032D01*
X44274929Y-109465251D01*
X44079585Y-109504108D01*
X43880415Y-109504108D01*
X43685071Y-109465251D01*
X43501061Y-109389032D01*
X43335456Y-109278379D01*
X43194621Y-109137544D01*
X43083968Y-108971939D01*
X43007749Y-108787929D01*
X42968892Y-108592585D01*
X42968892Y-108393415D01*
X43007749Y-108198071D01*
X43083968Y-108014061D01*
X43194621Y-107848456D01*
X43335456Y-107707621D01*
X43501061Y-107596968D01*
X43685071Y-107520749D01*
X43880415Y-107481892D01*
X44079585Y-107481892D01*
X44274929Y-107520749D01*
G37*
G36*
X49354929Y-107520749D02*
G01*
X49538939Y-107596968D01*
X49704544Y-107707621D01*
X49845379Y-107848456D01*
X49956032Y-108014061D01*
X50032251Y-108198071D01*
X50071108Y-108393415D01*
X50071108Y-108592585D01*
X50032251Y-108787929D01*
X49956032Y-108971939D01*
X49845379Y-109137544D01*
X49704544Y-109278379D01*
X49538939Y-109389032D01*
X49354929Y-109465251D01*
X49159585Y-109504108D01*
X48960415Y-109504108D01*
X48765071Y-109465251D01*
X48581061Y-109389032D01*
X48415456Y-109278379D01*
X48274621Y-109137544D01*
X48163968Y-108971939D01*
X48087749Y-108787929D01*
X48048892Y-108592585D01*
X48048892Y-108393415D01*
X48087749Y-108198071D01*
X48163968Y-108014061D01*
X48274621Y-107848456D01*
X48415456Y-107707621D01*
X48581061Y-107596968D01*
X48765071Y-107520749D01*
X48960415Y-107481892D01*
X49159585Y-107481892D01*
X49354929Y-107520749D01*
G37*
G36*
X54434929Y-107520749D02*
G01*
X54618939Y-107596968D01*
X54784544Y-107707621D01*
X54925379Y-107848456D01*
X55036032Y-108014061D01*
X55112251Y-108198071D01*
X55151108Y-108393415D01*
X55151108Y-108592585D01*
X55112251Y-108787929D01*
X55036032Y-108971939D01*
X54925379Y-109137544D01*
X54784544Y-109278379D01*
X54618939Y-109389032D01*
X54434929Y-109465251D01*
X54239585Y-109504108D01*
X54040415Y-109504108D01*
X53845071Y-109465251D01*
X53661061Y-109389032D01*
X53495456Y-109278379D01*
X53354621Y-109137544D01*
X53243968Y-108971939D01*
X53167749Y-108787929D01*
X53128892Y-108592585D01*
X53128892Y-108393415D01*
X53167749Y-108198071D01*
X53243968Y-108014061D01*
X53354621Y-107848456D01*
X53495456Y-107707621D01*
X53661061Y-107596968D01*
X53845071Y-107520749D01*
X54040415Y-107481892D01*
X54239585Y-107481892D01*
X54434929Y-107520749D01*
G37*
G36*
X2025451Y-106447893D02*
G01*
X2184829Y-106513909D01*
X2328266Y-106609751D01*
X2450249Y-106731734D01*
X2546091Y-106875171D01*
X2612107Y-107034549D01*
X2645763Y-107203745D01*
X2645763Y-107376255D01*
X2612107Y-107545451D01*
X2546091Y-107704829D01*
X2450249Y-107848266D01*
X2328266Y-107970249D01*
X2184829Y-108066091D01*
X2025451Y-108132107D01*
X1856255Y-108165763D01*
X1683745Y-108165763D01*
X1514549Y-108132107D01*
X1355171Y-108066091D01*
X1211734Y-107970249D01*
X1089751Y-107848266D01*
X993909Y-107704829D01*
X927893Y-107545451D01*
X894237Y-107376255D01*
X894237Y-107203745D01*
X927893Y-107034549D01*
X993909Y-106875171D01*
X1089751Y-106731734D01*
X1211734Y-106609751D01*
X1355171Y-106513909D01*
X1514549Y-106447893D01*
X1683745Y-106414237D01*
X1856255Y-106414237D01*
X2025451Y-106447893D01*
G37*
G36*
X59175451Y-106447893D02*
G01*
X59334829Y-106513909D01*
X59478266Y-106609751D01*
X59600249Y-106731734D01*
X59696091Y-106875171D01*
X59762107Y-107034549D01*
X59795763Y-107203745D01*
X59795763Y-107376255D01*
X59762107Y-107545451D01*
X59696091Y-107704829D01*
X59600249Y-107848266D01*
X59478266Y-107970249D01*
X59334829Y-108066091D01*
X59175451Y-108132107D01*
X59006255Y-108165763D01*
X58833745Y-108165763D01*
X58664549Y-108132107D01*
X58505171Y-108066091D01*
X58361734Y-107970249D01*
X58239751Y-107848266D01*
X58143909Y-107704829D01*
X58077893Y-107545451D01*
X58044237Y-107376255D01*
X58044237Y-107203745D01*
X58077893Y-107034549D01*
X58143909Y-106875171D01*
X58239751Y-106731734D01*
X58361734Y-106609751D01*
X58505171Y-106513909D01*
X58664549Y-106447893D01*
X58833745Y-106414237D01*
X59006255Y-106414237D01*
X59175451Y-106447893D01*
G37*
G36*
X20814929Y-105234749D02*
G01*
X20998939Y-105310968D01*
X21164544Y-105421621D01*
X21305379Y-105562456D01*
X21416032Y-105728061D01*
X21492251Y-105912071D01*
X21531108Y-106107415D01*
X21531108Y-106306585D01*
X21492251Y-106501929D01*
X21416032Y-106685939D01*
X21305379Y-106851544D01*
X21164544Y-106992379D01*
X20998939Y-107103032D01*
X20814929Y-107179251D01*
X20619585Y-107218108D01*
X20420415Y-107218108D01*
X20225071Y-107179251D01*
X20041061Y-107103032D01*
X19875456Y-106992379D01*
X19734621Y-106851544D01*
X19623968Y-106685939D01*
X19547749Y-106501929D01*
X19508892Y-106306585D01*
X19508892Y-106107415D01*
X19547749Y-105912071D01*
X19623968Y-105728061D01*
X19734621Y-105562456D01*
X19875456Y-105421621D01*
X20041061Y-105310968D01*
X20225071Y-105234749D01*
X20420415Y-105195892D01*
X20619585Y-105195892D01*
X20814929Y-105234749D01*
G37*
G36*
X25894929Y-105234749D02*
G01*
X26078939Y-105310968D01*
X26244544Y-105421621D01*
X26385379Y-105562456D01*
X26496032Y-105728061D01*
X26572251Y-105912071D01*
X26611108Y-106107415D01*
X26611108Y-106306585D01*
X26572251Y-106501929D01*
X26496032Y-106685939D01*
X26385379Y-106851544D01*
X26244544Y-106992379D01*
X26078939Y-107103032D01*
X25894929Y-107179251D01*
X25699585Y-107218108D01*
X25500415Y-107218108D01*
X25305071Y-107179251D01*
X25121061Y-107103032D01*
X24955456Y-106992379D01*
X24814621Y-106851544D01*
X24703968Y-106685939D01*
X24627749Y-106501929D01*
X24588892Y-106306585D01*
X24588892Y-106107415D01*
X24627749Y-105912071D01*
X24703968Y-105728061D01*
X24814621Y-105562456D01*
X24955456Y-105421621D01*
X25121061Y-105310968D01*
X25305071Y-105234749D01*
X25500415Y-105195892D01*
X25699585Y-105195892D01*
X25894929Y-105234749D01*
G37*
G36*
X46814929Y-105234749D02*
G01*
X46998939Y-105310968D01*
X47164544Y-105421621D01*
X47305379Y-105562456D01*
X47416032Y-105728061D01*
X47492251Y-105912071D01*
X47531108Y-106107415D01*
X47531108Y-106306585D01*
X47492251Y-106501929D01*
X47416032Y-106685939D01*
X47305379Y-106851544D01*
X47164544Y-106992379D01*
X46998939Y-107103032D01*
X46814929Y-107179251D01*
X46619585Y-107218108D01*
X46420415Y-107218108D01*
X46225071Y-107179251D01*
X46041061Y-107103032D01*
X45875456Y-106992379D01*
X45734621Y-106851544D01*
X45623968Y-106685939D01*
X45547749Y-106501929D01*
X45508892Y-106306585D01*
X45508892Y-106107415D01*
X45547749Y-105912071D01*
X45623968Y-105728061D01*
X45734621Y-105562456D01*
X45875456Y-105421621D01*
X46041061Y-105310968D01*
X46225071Y-105234749D01*
X46420415Y-105195892D01*
X46619585Y-105195892D01*
X46814929Y-105234749D01*
G37*
G36*
X51894929Y-105234749D02*
G01*
X52078939Y-105310968D01*
X52244544Y-105421621D01*
X52385379Y-105562456D01*
X52496032Y-105728061D01*
X52572251Y-105912071D01*
X52611108Y-106107415D01*
X52611108Y-106306585D01*
X52572251Y-106501929D01*
X52496032Y-106685939D01*
X52385379Y-106851544D01*
X52244544Y-106992379D01*
X52078939Y-107103032D01*
X51894929Y-107179251D01*
X51699585Y-107218108D01*
X51500415Y-107218108D01*
X51305071Y-107179251D01*
X51121061Y-107103032D01*
X50955456Y-106992379D01*
X50814621Y-106851544D01*
X50703968Y-106685939D01*
X50627749Y-106501929D01*
X50588892Y-106306585D01*
X50588892Y-106107415D01*
X50627749Y-105912071D01*
X50703968Y-105728061D01*
X50814621Y-105562456D01*
X50955456Y-105421621D01*
X51121061Y-105310968D01*
X51305071Y-105234749D01*
X51500415Y-105195892D01*
X51699585Y-105195892D01*
X51894929Y-105234749D01*
G37*
G36*
X18274929Y-104980749D02*
G01*
X18458939Y-105056968D01*
X18624544Y-105167621D01*
X18765379Y-105308456D01*
X18876032Y-105474061D01*
X18952251Y-105658071D01*
X18991108Y-105853415D01*
X18991108Y-106052585D01*
X18952251Y-106247929D01*
X18876032Y-106431939D01*
X18765379Y-106597544D01*
X18624544Y-106738379D01*
X18458939Y-106849032D01*
X18274929Y-106925251D01*
X18079585Y-106964108D01*
X17880415Y-106964108D01*
X17685071Y-106925251D01*
X17501061Y-106849032D01*
X17335456Y-106738379D01*
X17194621Y-106597544D01*
X17083968Y-106431939D01*
X17007749Y-106247929D01*
X16968892Y-106052585D01*
X16968892Y-105853415D01*
X17007749Y-105658071D01*
X17083968Y-105474061D01*
X17194621Y-105308456D01*
X17335456Y-105167621D01*
X17501061Y-105056968D01*
X17685071Y-104980749D01*
X17880415Y-104941892D01*
X18079585Y-104941892D01*
X18274929Y-104980749D01*
G37*
G36*
X23354929Y-104980749D02*
G01*
X23538939Y-105056968D01*
X23704544Y-105167621D01*
X23845379Y-105308456D01*
X23956032Y-105474061D01*
X24032251Y-105658071D01*
X24071108Y-105853415D01*
X24071108Y-106052585D01*
X24032251Y-106247929D01*
X23956032Y-106431939D01*
X23845379Y-106597544D01*
X23704544Y-106738379D01*
X23538939Y-106849032D01*
X23354929Y-106925251D01*
X23159585Y-106964108D01*
X22960415Y-106964108D01*
X22765071Y-106925251D01*
X22581061Y-106849032D01*
X22415456Y-106738379D01*
X22274621Y-106597544D01*
X22163968Y-106431939D01*
X22087749Y-106247929D01*
X22048892Y-106052585D01*
X22048892Y-105853415D01*
X22087749Y-105658071D01*
X22163968Y-105474061D01*
X22274621Y-105308456D01*
X22415456Y-105167621D01*
X22581061Y-105056968D01*
X22765071Y-104980749D01*
X22960415Y-104941892D01*
X23159585Y-104941892D01*
X23354929Y-104980749D01*
G37*
G36*
X28434929Y-104980749D02*
G01*
X28618939Y-105056968D01*
X28784544Y-105167621D01*
X28925379Y-105308456D01*
X29036032Y-105474061D01*
X29112251Y-105658071D01*
X29151108Y-105853415D01*
X29151108Y-106052585D01*
X29112251Y-106247929D01*
X29036032Y-106431939D01*
X28925379Y-106597544D01*
X28784544Y-106738379D01*
X28618939Y-106849032D01*
X28434929Y-106925251D01*
X28239585Y-106964108D01*
X28040415Y-106964108D01*
X27845071Y-106925251D01*
X27661061Y-106849032D01*
X27495456Y-106738379D01*
X27354621Y-106597544D01*
X27243968Y-106431939D01*
X27167749Y-106247929D01*
X27128892Y-106052585D01*
X27128892Y-105853415D01*
X27167749Y-105658071D01*
X27243968Y-105474061D01*
X27354621Y-105308456D01*
X27495456Y-105167621D01*
X27661061Y-105056968D01*
X27845071Y-104980749D01*
X28040415Y-104941892D01*
X28239585Y-104941892D01*
X28434929Y-104980749D01*
G37*
G36*
X44274929Y-104980749D02*
G01*
X44458939Y-105056968D01*
X44624544Y-105167621D01*
X44765379Y-105308456D01*
X44876032Y-105474061D01*
X44952251Y-105658071D01*
X44991108Y-105853415D01*
X44991108Y-106052585D01*
X44952251Y-106247929D01*
X44876032Y-106431939D01*
X44765379Y-106597544D01*
X44624544Y-106738379D01*
X44458939Y-106849032D01*
X44274929Y-106925251D01*
X44079585Y-106964108D01*
X43880415Y-106964108D01*
X43685071Y-106925251D01*
X43501061Y-106849032D01*
X43335456Y-106738379D01*
X43194621Y-106597544D01*
X43083968Y-106431939D01*
X43007749Y-106247929D01*
X42968892Y-106052585D01*
X42968892Y-105853415D01*
X43007749Y-105658071D01*
X43083968Y-105474061D01*
X43194621Y-105308456D01*
X43335456Y-105167621D01*
X43501061Y-105056968D01*
X43685071Y-104980749D01*
X43880415Y-104941892D01*
X44079585Y-104941892D01*
X44274929Y-104980749D01*
G37*
G36*
X49354929Y-104980749D02*
G01*
X49538939Y-105056968D01*
X49704544Y-105167621D01*
X49845379Y-105308456D01*
X49956032Y-105474061D01*
X50032251Y-105658071D01*
X50071108Y-105853415D01*
X50071108Y-106052585D01*
X50032251Y-106247929D01*
X49956032Y-106431939D01*
X49845379Y-106597544D01*
X49704544Y-106738379D01*
X49538939Y-106849032D01*
X49354929Y-106925251D01*
X49159585Y-106964108D01*
X48960415Y-106964108D01*
X48765071Y-106925251D01*
X48581061Y-106849032D01*
X48415456Y-106738379D01*
X48274621Y-106597544D01*
X48163968Y-106431939D01*
X48087749Y-106247929D01*
X48048892Y-106052585D01*
X48048892Y-105853415D01*
X48087749Y-105658071D01*
X48163968Y-105474061D01*
X48274621Y-105308456D01*
X48415456Y-105167621D01*
X48581061Y-105056968D01*
X48765071Y-104980749D01*
X48960415Y-104941892D01*
X49159585Y-104941892D01*
X49354929Y-104980749D01*
G37*
G36*
X54434929Y-104980749D02*
G01*
X54618939Y-105056968D01*
X54784544Y-105167621D01*
X54925379Y-105308456D01*
X55036032Y-105474061D01*
X55112251Y-105658071D01*
X55151108Y-105853415D01*
X55151108Y-106052585D01*
X55112251Y-106247929D01*
X55036032Y-106431939D01*
X54925379Y-106597544D01*
X54784544Y-106738379D01*
X54618939Y-106849032D01*
X54434929Y-106925251D01*
X54239585Y-106964108D01*
X54040415Y-106964108D01*
X53845071Y-106925251D01*
X53661061Y-106849032D01*
X53495456Y-106738379D01*
X53354621Y-106597544D01*
X53243968Y-106431939D01*
X53167749Y-106247929D01*
X53128892Y-106052585D01*
X53128892Y-105853415D01*
X53167749Y-105658071D01*
X53243968Y-105474061D01*
X53354621Y-105308456D01*
X53495456Y-105167621D01*
X53661061Y-105056968D01*
X53845071Y-104980749D01*
X54040415Y-104941892D01*
X54239585Y-104941892D01*
X54434929Y-104980749D01*
G37*
G36*
X2025451Y-103907893D02*
G01*
X2184829Y-103973909D01*
X2328266Y-104069751D01*
X2450249Y-104191734D01*
X2546091Y-104335171D01*
X2612107Y-104494549D01*
X2645763Y-104663745D01*
X2645763Y-104836255D01*
X2612107Y-105005451D01*
X2546091Y-105164829D01*
X2450249Y-105308266D01*
X2328266Y-105430249D01*
X2184829Y-105526091D01*
X2025451Y-105592107D01*
X1856255Y-105625763D01*
X1683745Y-105625763D01*
X1514549Y-105592107D01*
X1355171Y-105526091D01*
X1211734Y-105430249D01*
X1089751Y-105308266D01*
X993909Y-105164829D01*
X927893Y-105005451D01*
X894237Y-104836255D01*
X894237Y-104663745D01*
X927893Y-104494549D01*
X993909Y-104335171D01*
X1089751Y-104191734D01*
X1211734Y-104069751D01*
X1355171Y-103973909D01*
X1514549Y-103907893D01*
X1683745Y-103874237D01*
X1856255Y-103874237D01*
X2025451Y-103907893D01*
G37*
G36*
X59175451Y-103907893D02*
G01*
X59334829Y-103973909D01*
X59478266Y-104069751D01*
X59600249Y-104191734D01*
X59696091Y-104335171D01*
X59762107Y-104494549D01*
X59795763Y-104663745D01*
X59795763Y-104836255D01*
X59762107Y-105005451D01*
X59696091Y-105164829D01*
X59600249Y-105308266D01*
X59478266Y-105430249D01*
X59334829Y-105526091D01*
X59175451Y-105592107D01*
X59006255Y-105625763D01*
X58833745Y-105625763D01*
X58664549Y-105592107D01*
X58505171Y-105526091D01*
X58361734Y-105430249D01*
X58239751Y-105308266D01*
X58143909Y-105164829D01*
X58077893Y-105005451D01*
X58044237Y-104836255D01*
X58044237Y-104663745D01*
X58077893Y-104494549D01*
X58143909Y-104335171D01*
X58239751Y-104191734D01*
X58361734Y-104069751D01*
X58505171Y-103973909D01*
X58664549Y-103907893D01*
X58833745Y-103874237D01*
X59006255Y-103874237D01*
X59175451Y-103907893D01*
G37*
G36*
X2025451Y-101367893D02*
G01*
X2184829Y-101433909D01*
X2328266Y-101529751D01*
X2450249Y-101651734D01*
X2546091Y-101795171D01*
X2612107Y-101954549D01*
X2645763Y-102123745D01*
X2645763Y-102296255D01*
X2612107Y-102465451D01*
X2546091Y-102624829D01*
X2450249Y-102768266D01*
X2328266Y-102890249D01*
X2184829Y-102986091D01*
X2025451Y-103052107D01*
X1856255Y-103085763D01*
X1683745Y-103085763D01*
X1514549Y-103052107D01*
X1355171Y-102986091D01*
X1211734Y-102890249D01*
X1089751Y-102768266D01*
X993909Y-102624829D01*
X927893Y-102465451D01*
X894237Y-102296255D01*
X894237Y-102123745D01*
X927893Y-101954549D01*
X993909Y-101795171D01*
X1089751Y-101651734D01*
X1211734Y-101529751D01*
X1355171Y-101433909D01*
X1514549Y-101367893D01*
X1683745Y-101334237D01*
X1856255Y-101334237D01*
X2025451Y-101367893D01*
G37*
G36*
X59175451Y-101367893D02*
G01*
X59334829Y-101433909D01*
X59478266Y-101529751D01*
X59600249Y-101651734D01*
X59696091Y-101795171D01*
X59762107Y-101954549D01*
X59795763Y-102123745D01*
X59795763Y-102296255D01*
X59762107Y-102465451D01*
X59696091Y-102624829D01*
X59600249Y-102768266D01*
X59478266Y-102890249D01*
X59334829Y-102986091D01*
X59175451Y-103052107D01*
X59006255Y-103085763D01*
X58833745Y-103085763D01*
X58664549Y-103052107D01*
X58505171Y-102986091D01*
X58361734Y-102890249D01*
X58239751Y-102768266D01*
X58143909Y-102624829D01*
X58077893Y-102465451D01*
X58044237Y-102296255D01*
X58044237Y-102123745D01*
X58077893Y-101954549D01*
X58143909Y-101795171D01*
X58239751Y-101651734D01*
X58361734Y-101529751D01*
X58505171Y-101433909D01*
X58664549Y-101367893D01*
X58833745Y-101334237D01*
X59006255Y-101334237D01*
X59175451Y-101367893D01*
G37*
G36*
X2025451Y-98827893D02*
G01*
X2184829Y-98893909D01*
X2328266Y-98989751D01*
X2450249Y-99111734D01*
X2546091Y-99255171D01*
X2612107Y-99414549D01*
X2645763Y-99583745D01*
X2645763Y-99756255D01*
X2612107Y-99925451D01*
X2546091Y-100084829D01*
X2450249Y-100228266D01*
X2328266Y-100350249D01*
X2184829Y-100446091D01*
X2025451Y-100512107D01*
X1856255Y-100545763D01*
X1683745Y-100545763D01*
X1514549Y-100512107D01*
X1355171Y-100446091D01*
X1211734Y-100350249D01*
X1089751Y-100228266D01*
X993909Y-100084829D01*
X927893Y-99925451D01*
X894237Y-99756255D01*
X894237Y-99583745D01*
X927893Y-99414549D01*
X993909Y-99255171D01*
X1089751Y-99111734D01*
X1211734Y-98989751D01*
X1355171Y-98893909D01*
X1514549Y-98827893D01*
X1683745Y-98794237D01*
X1856255Y-98794237D01*
X2025451Y-98827893D01*
G37*
G36*
X59175451Y-98827893D02*
G01*
X59334829Y-98893909D01*
X59478266Y-98989751D01*
X59600249Y-99111734D01*
X59696091Y-99255171D01*
X59762107Y-99414549D01*
X59795763Y-99583745D01*
X59795763Y-99756255D01*
X59762107Y-99925451D01*
X59696091Y-100084829D01*
X59600249Y-100228266D01*
X59478266Y-100350249D01*
X59334829Y-100446091D01*
X59175451Y-100512107D01*
X59006255Y-100545763D01*
X58833745Y-100545763D01*
X58664549Y-100512107D01*
X58505171Y-100446091D01*
X58361734Y-100350249D01*
X58239751Y-100228266D01*
X58143909Y-100084829D01*
X58077893Y-99925451D01*
X58044237Y-99756255D01*
X58044237Y-99583745D01*
X58077893Y-99414549D01*
X58143909Y-99255171D01*
X58239751Y-99111734D01*
X58361734Y-98989751D01*
X58505171Y-98893909D01*
X58664549Y-98827893D01*
X58833745Y-98794237D01*
X59006255Y-98794237D01*
X59175451Y-98827893D01*
G37*
G36*
X2025451Y-96287893D02*
G01*
X2184829Y-96353909D01*
X2328266Y-96449751D01*
X2450249Y-96571734D01*
X2546091Y-96715171D01*
X2612107Y-96874549D01*
X2645763Y-97043745D01*
X2645763Y-97216255D01*
X2612107Y-97385451D01*
X2546091Y-97544829D01*
X2450249Y-97688266D01*
X2328266Y-97810249D01*
X2184829Y-97906091D01*
X2025451Y-97972107D01*
X1856255Y-98005763D01*
X1683745Y-98005763D01*
X1514549Y-97972107D01*
X1355171Y-97906091D01*
X1211734Y-97810249D01*
X1089751Y-97688266D01*
X993909Y-97544829D01*
X927893Y-97385451D01*
X894237Y-97216255D01*
X894237Y-97043745D01*
X927893Y-96874549D01*
X993909Y-96715171D01*
X1089751Y-96571734D01*
X1211734Y-96449751D01*
X1355171Y-96353909D01*
X1514549Y-96287893D01*
X1683745Y-96254237D01*
X1856255Y-96254237D01*
X2025451Y-96287893D01*
G37*
G36*
X59175451Y-96287893D02*
G01*
X59334829Y-96353909D01*
X59478266Y-96449751D01*
X59600249Y-96571734D01*
X59696091Y-96715171D01*
X59762107Y-96874549D01*
X59795763Y-97043745D01*
X59795763Y-97216255D01*
X59762107Y-97385451D01*
X59696091Y-97544829D01*
X59600249Y-97688266D01*
X59478266Y-97810249D01*
X59334829Y-97906091D01*
X59175451Y-97972107D01*
X59006255Y-98005763D01*
X58833745Y-98005763D01*
X58664549Y-97972107D01*
X58505171Y-97906091D01*
X58361734Y-97810249D01*
X58239751Y-97688266D01*
X58143909Y-97544829D01*
X58077893Y-97385451D01*
X58044237Y-97216255D01*
X58044237Y-97043745D01*
X58077893Y-96874549D01*
X58143909Y-96715171D01*
X58239751Y-96571734D01*
X58361734Y-96449751D01*
X58505171Y-96353909D01*
X58664549Y-96287893D01*
X58833745Y-96254237D01*
X59006255Y-96254237D01*
X59175451Y-96287893D01*
G37*
G36*
X2025451Y-93747893D02*
G01*
X2184829Y-93813909D01*
X2328266Y-93909751D01*
X2450249Y-94031734D01*
X2546091Y-94175171D01*
X2612107Y-94334549D01*
X2645763Y-94503745D01*
X2645763Y-94676255D01*
X2612107Y-94845451D01*
X2546091Y-95004829D01*
X2450249Y-95148266D01*
X2328266Y-95270249D01*
X2184829Y-95366091D01*
X2025451Y-95432107D01*
X1856255Y-95465763D01*
X1683745Y-95465763D01*
X1514549Y-95432107D01*
X1355171Y-95366091D01*
X1211734Y-95270249D01*
X1089751Y-95148266D01*
X993909Y-95004829D01*
X927893Y-94845451D01*
X894237Y-94676255D01*
X894237Y-94503745D01*
X927893Y-94334549D01*
X993909Y-94175171D01*
X1089751Y-94031734D01*
X1211734Y-93909751D01*
X1355171Y-93813909D01*
X1514549Y-93747893D01*
X1683745Y-93714237D01*
X1856255Y-93714237D01*
X2025451Y-93747893D01*
G37*
G36*
X2297394Y-88819281D02*
G01*
X2420550Y-88870294D01*
X2531387Y-88944353D01*
X2625647Y-89038613D01*
X2699706Y-89149450D01*
X2750719Y-89272606D01*
X2776726Y-89403348D01*
X2776726Y-89536652D01*
X2750719Y-89667394D01*
X2699706Y-89790550D01*
X2625647Y-89901387D01*
X2531387Y-89995647D01*
X2420550Y-90069706D01*
X2297394Y-90120719D01*
X2166652Y-90146726D01*
X2033348Y-90146726D01*
X1902606Y-90120719D01*
X1779450Y-90069706D01*
X1668613Y-89995647D01*
X1574353Y-89901387D01*
X1500294Y-89790550D01*
X1449281Y-89667394D01*
X1423274Y-89536652D01*
X1423274Y-89403348D01*
X1449281Y-89272606D01*
X1500294Y-89149450D01*
X1574353Y-89038613D01*
X1668613Y-88944353D01*
X1779450Y-88870294D01*
X1902606Y-88819281D01*
X2033348Y-88793274D01*
X2166652Y-88793274D01*
X2297394Y-88819281D01*
G37*
G36*
X2025451Y-73427893D02*
G01*
X2184829Y-73493909D01*
X2328266Y-73589751D01*
X2450249Y-73711734D01*
X2546091Y-73855171D01*
X2612107Y-74014549D01*
X2645763Y-74183745D01*
X2645763Y-74356255D01*
X2612107Y-74525451D01*
X2546091Y-74684829D01*
X2450249Y-74828266D01*
X2328266Y-74950249D01*
X2184829Y-75046091D01*
X2025451Y-75112107D01*
X1856255Y-75145763D01*
X1683745Y-75145763D01*
X1514549Y-75112107D01*
X1355171Y-75046091D01*
X1211734Y-74950249D01*
X1089751Y-74828266D01*
X993909Y-74684829D01*
X927893Y-74525451D01*
X894237Y-74356255D01*
X894237Y-74183745D01*
X927893Y-74014549D01*
X993909Y-73855171D01*
X1089751Y-73711734D01*
X1211734Y-73589751D01*
X1355171Y-73493909D01*
X1514549Y-73427893D01*
X1683745Y-73394237D01*
X1856255Y-73394237D01*
X2025451Y-73427893D01*
G37*
G36*
X2025451Y-70887893D02*
G01*
X2184829Y-70953909D01*
X2328266Y-71049751D01*
X2450249Y-71171734D01*
X2546091Y-71315171D01*
X2612107Y-71474549D01*
X2645763Y-71643745D01*
X2645763Y-71816255D01*
X2612107Y-71985451D01*
X2546091Y-72144829D01*
X2450249Y-72288266D01*
X2328266Y-72410249D01*
X2184829Y-72506091D01*
X2025451Y-72572107D01*
X1856255Y-72605763D01*
X1683745Y-72605763D01*
X1514549Y-72572107D01*
X1355171Y-72506091D01*
X1211734Y-72410249D01*
X1089751Y-72288266D01*
X993909Y-72144829D01*
X927893Y-71985451D01*
X894237Y-71816255D01*
X894237Y-71643745D01*
X927893Y-71474549D01*
X993909Y-71315171D01*
X1089751Y-71171734D01*
X1211734Y-71049751D01*
X1355171Y-70953909D01*
X1514549Y-70887893D01*
X1683745Y-70854237D01*
X1856255Y-70854237D01*
X2025451Y-70887893D01*
G37*
G36*
X2025451Y-68347893D02*
G01*
X2184829Y-68413909D01*
X2328266Y-68509751D01*
X2450249Y-68631734D01*
X2546091Y-68775171D01*
X2612107Y-68934549D01*
X2645763Y-69103745D01*
X2645763Y-69276255D01*
X2612107Y-69445451D01*
X2546091Y-69604829D01*
X2450249Y-69748266D01*
X2328266Y-69870249D01*
X2184829Y-69966091D01*
X2025451Y-70032107D01*
X1856255Y-70065763D01*
X1683745Y-70065763D01*
X1514549Y-70032107D01*
X1355171Y-69966091D01*
X1211734Y-69870249D01*
X1089751Y-69748266D01*
X993909Y-69604829D01*
X927893Y-69445451D01*
X894237Y-69276255D01*
X894237Y-69103745D01*
X927893Y-68934549D01*
X993909Y-68775171D01*
X1089751Y-68631734D01*
X1211734Y-68509751D01*
X1355171Y-68413909D01*
X1514549Y-68347893D01*
X1683745Y-68314237D01*
X1856255Y-68314237D01*
X2025451Y-68347893D01*
G37*
G36*
X2025451Y-65807893D02*
G01*
X2184829Y-65873909D01*
X2328266Y-65969751D01*
X2450249Y-66091734D01*
X2546091Y-66235171D01*
X2612107Y-66394549D01*
X2645763Y-66563745D01*
X2645763Y-66736255D01*
X2612107Y-66905451D01*
X2546091Y-67064829D01*
X2450249Y-67208266D01*
X2328266Y-67330249D01*
X2184829Y-67426091D01*
X2025451Y-67492107D01*
X1856255Y-67525763D01*
X1683745Y-67525763D01*
X1514549Y-67492107D01*
X1355171Y-67426091D01*
X1211734Y-67330249D01*
X1089751Y-67208266D01*
X993909Y-67064829D01*
X927893Y-66905451D01*
X894237Y-66736255D01*
X894237Y-66563745D01*
X927893Y-66394549D01*
X993909Y-66235171D01*
X1089751Y-66091734D01*
X1211734Y-65969751D01*
X1355171Y-65873909D01*
X1514549Y-65807893D01*
X1683745Y-65774237D01*
X1856255Y-65774237D01*
X2025451Y-65807893D01*
G37*
G36*
X2025451Y-63267893D02*
G01*
X2184829Y-63333909D01*
X2328266Y-63429751D01*
X2450249Y-63551734D01*
X2546091Y-63695171D01*
X2612107Y-63854549D01*
X2645763Y-64023745D01*
X2645763Y-64196255D01*
X2612107Y-64365451D01*
X2546091Y-64524829D01*
X2450249Y-64668266D01*
X2328266Y-64790249D01*
X2184829Y-64886091D01*
X2025451Y-64952107D01*
X1856255Y-64985763D01*
X1683745Y-64985763D01*
X1514549Y-64952107D01*
X1355171Y-64886091D01*
X1211734Y-64790249D01*
X1089751Y-64668266D01*
X993909Y-64524829D01*
X927893Y-64365451D01*
X894237Y-64196255D01*
X894237Y-64023745D01*
X927893Y-63854549D01*
X993909Y-63695171D01*
X1089751Y-63551734D01*
X1211734Y-63429751D01*
X1355171Y-63333909D01*
X1514549Y-63267893D01*
X1683745Y-63234237D01*
X1856255Y-63234237D01*
X2025451Y-63267893D01*
G37*
G36*
X2025451Y-60727893D02*
G01*
X2184829Y-60793909D01*
X2328266Y-60889751D01*
X2450249Y-61011734D01*
X2546091Y-61155171D01*
X2612107Y-61314549D01*
X2645763Y-61483745D01*
X2645763Y-61656255D01*
X2612107Y-61825451D01*
X2546091Y-61984829D01*
X2450249Y-62128266D01*
X2328266Y-62250249D01*
X2184829Y-62346091D01*
X2025451Y-62412107D01*
X1856255Y-62445763D01*
X1683745Y-62445763D01*
X1514549Y-62412107D01*
X1355171Y-62346091D01*
X1211734Y-62250249D01*
X1089751Y-62128266D01*
X993909Y-61984829D01*
X927893Y-61825451D01*
X894237Y-61656255D01*
X894237Y-61483745D01*
X927893Y-61314549D01*
X993909Y-61155171D01*
X1089751Y-61011734D01*
X1211734Y-60889751D01*
X1355171Y-60793909D01*
X1514549Y-60727893D01*
X1683745Y-60694237D01*
X1856255Y-60694237D01*
X2025451Y-60727893D01*
G37*
G36*
X2025451Y-58187893D02*
G01*
X2184829Y-58253909D01*
X2328266Y-58349751D01*
X2450249Y-58471734D01*
X2546091Y-58615171D01*
X2612107Y-58774549D01*
X2645763Y-58943745D01*
X2645763Y-59116255D01*
X2612107Y-59285451D01*
X2546091Y-59444829D01*
X2450249Y-59588266D01*
X2328266Y-59710249D01*
X2184829Y-59806091D01*
X2025451Y-59872107D01*
X1856255Y-59905763D01*
X1683745Y-59905763D01*
X1514549Y-59872107D01*
X1355171Y-59806091D01*
X1211734Y-59710249D01*
X1089751Y-59588266D01*
X993909Y-59444829D01*
X927893Y-59285451D01*
X894237Y-59116255D01*
X894237Y-58943745D01*
X927893Y-58774549D01*
X993909Y-58615171D01*
X1089751Y-58471734D01*
X1211734Y-58349751D01*
X1355171Y-58253909D01*
X1514549Y-58187893D01*
X1683745Y-58154237D01*
X1856255Y-58154237D01*
X2025451Y-58187893D01*
G37*
G36*
X20957929Y-56457749D02*
G01*
X21141939Y-56533968D01*
X21307544Y-56644621D01*
X21448379Y-56785456D01*
X21559032Y-56951061D01*
X21635251Y-57135071D01*
X21674108Y-57330415D01*
X21674108Y-57529585D01*
X21635251Y-57724929D01*
X21559032Y-57908939D01*
X21448379Y-58074544D01*
X21307544Y-58215379D01*
X21141939Y-58326032D01*
X20957929Y-58402251D01*
X20762585Y-58441108D01*
X20563415Y-58441108D01*
X20368071Y-58402251D01*
X20184061Y-58326032D01*
X20018456Y-58215379D01*
X19877621Y-58074544D01*
X19766968Y-57908939D01*
X19690749Y-57724929D01*
X19651892Y-57529585D01*
X19651892Y-57330415D01*
X19690749Y-57135071D01*
X19766968Y-56951061D01*
X19877621Y-56785456D01*
X20018456Y-56644621D01*
X20184061Y-56533968D01*
X20368071Y-56457749D01*
X20563415Y-56418892D01*
X20762585Y-56418892D01*
X20957929Y-56457749D01*
G37*
G36*
X23497929Y-56457749D02*
G01*
X23681939Y-56533968D01*
X23847544Y-56644621D01*
X23988379Y-56785456D01*
X24099032Y-56951061D01*
X24175251Y-57135071D01*
X24214108Y-57330415D01*
X24214108Y-57529585D01*
X24175251Y-57724929D01*
X24099032Y-57908939D01*
X23988379Y-58074544D01*
X23847544Y-58215379D01*
X23681939Y-58326032D01*
X23497929Y-58402251D01*
X23302585Y-58441108D01*
X23103415Y-58441108D01*
X22908071Y-58402251D01*
X22724061Y-58326032D01*
X22558456Y-58215379D01*
X22417621Y-58074544D01*
X22306968Y-57908939D01*
X22230749Y-57724929D01*
X22191892Y-57529585D01*
X22191892Y-57330415D01*
X22230749Y-57135071D01*
X22306968Y-56951061D01*
X22417621Y-56785456D01*
X22558456Y-56644621D01*
X22724061Y-56533968D01*
X22908071Y-56457749D01*
X23103415Y-56418892D01*
X23302585Y-56418892D01*
X23497929Y-56457749D01*
G37*
G36*
X48957929Y-56457749D02*
G01*
X49141939Y-56533968D01*
X49307544Y-56644621D01*
X49448379Y-56785456D01*
X49559032Y-56951061D01*
X49635251Y-57135071D01*
X49674108Y-57330415D01*
X49674108Y-57529585D01*
X49635251Y-57724929D01*
X49559032Y-57908939D01*
X49448379Y-58074544D01*
X49307544Y-58215379D01*
X49141939Y-58326032D01*
X48957929Y-58402251D01*
X48762585Y-58441108D01*
X48563415Y-58441108D01*
X48368071Y-58402251D01*
X48184061Y-58326032D01*
X48018456Y-58215379D01*
X47877621Y-58074544D01*
X47766968Y-57908939D01*
X47690749Y-57724929D01*
X47651892Y-57529585D01*
X47651892Y-57330415D01*
X47690749Y-57135071D01*
X47766968Y-56951061D01*
X47877621Y-56785456D01*
X48018456Y-56644621D01*
X48184061Y-56533968D01*
X48368071Y-56457749D01*
X48563415Y-56418892D01*
X48762585Y-56418892D01*
X48957929Y-56457749D01*
G37*
G36*
X51497929Y-56457749D02*
G01*
X51681939Y-56533968D01*
X51847544Y-56644621D01*
X51988379Y-56785456D01*
X52099032Y-56951061D01*
X52175251Y-57135071D01*
X52214108Y-57330415D01*
X52214108Y-57529585D01*
X52175251Y-57724929D01*
X52099032Y-57908939D01*
X51988379Y-58074544D01*
X51847544Y-58215379D01*
X51681939Y-58326032D01*
X51497929Y-58402251D01*
X51302585Y-58441108D01*
X51103415Y-58441108D01*
X50908071Y-58402251D01*
X50724061Y-58326032D01*
X50558456Y-58215379D01*
X50417621Y-58074544D01*
X50306968Y-57908939D01*
X50230749Y-57724929D01*
X50191892Y-57529585D01*
X50191892Y-57330415D01*
X50230749Y-57135071D01*
X50306968Y-56951061D01*
X50417621Y-56785456D01*
X50558456Y-56644621D01*
X50724061Y-56533968D01*
X50908071Y-56457749D01*
X51103415Y-56418892D01*
X51302585Y-56418892D01*
X51497929Y-56457749D01*
G37*
G36*
X2025451Y-55647893D02*
G01*
X2184829Y-55713909D01*
X2328266Y-55809751D01*
X2450249Y-55931734D01*
X2546091Y-56075171D01*
X2612107Y-56234549D01*
X2645763Y-56403745D01*
X2645763Y-56576255D01*
X2612107Y-56745451D01*
X2546091Y-56904829D01*
X2450249Y-57048266D01*
X2328266Y-57170249D01*
X2184829Y-57266091D01*
X2025451Y-57332107D01*
X1856255Y-57365763D01*
X1683745Y-57365763D01*
X1514549Y-57332107D01*
X1355171Y-57266091D01*
X1211734Y-57170249D01*
X1089751Y-57048266D01*
X993909Y-56904829D01*
X927893Y-56745451D01*
X894237Y-56576255D01*
X894237Y-56403745D01*
X927893Y-56234549D01*
X993909Y-56075171D01*
X1089751Y-55931734D01*
X1211734Y-55809751D01*
X1355171Y-55713909D01*
X1514549Y-55647893D01*
X1683745Y-55614237D01*
X1856255Y-55614237D01*
X2025451Y-55647893D01*
G37*
G36*
X21211929Y-53917749D02*
G01*
X21395939Y-53993968D01*
X21561544Y-54104621D01*
X21702379Y-54245456D01*
X21813032Y-54411061D01*
X21889251Y-54595071D01*
X21928108Y-54790415D01*
X21928108Y-54989585D01*
X21889251Y-55184929D01*
X21813032Y-55368939D01*
X21702379Y-55534544D01*
X21561544Y-55675379D01*
X21395939Y-55786032D01*
X21211929Y-55862251D01*
X21016585Y-55901108D01*
X20817415Y-55901108D01*
X20622071Y-55862251D01*
X20438061Y-55786032D01*
X20272456Y-55675379D01*
X20131621Y-55534544D01*
X20020968Y-55368939D01*
X19944749Y-55184929D01*
X19905892Y-54989585D01*
X19905892Y-54790415D01*
X19944749Y-54595071D01*
X20020968Y-54411061D01*
X20131621Y-54245456D01*
X20272456Y-54104621D01*
X20438061Y-53993968D01*
X20622071Y-53917749D01*
X20817415Y-53878892D01*
X21016585Y-53878892D01*
X21211929Y-53917749D01*
G37*
G36*
X23751929Y-53917749D02*
G01*
X23935939Y-53993968D01*
X24101544Y-54104621D01*
X24242379Y-54245456D01*
X24353032Y-54411061D01*
X24429251Y-54595071D01*
X24468108Y-54790415D01*
X24468108Y-54989585D01*
X24429251Y-55184929D01*
X24353032Y-55368939D01*
X24242379Y-55534544D01*
X24101544Y-55675379D01*
X23935939Y-55786032D01*
X23751929Y-55862251D01*
X23556585Y-55901108D01*
X23357415Y-55901108D01*
X23162071Y-55862251D01*
X22978061Y-55786032D01*
X22812456Y-55675379D01*
X22671621Y-55534544D01*
X22560968Y-55368939D01*
X22484749Y-55184929D01*
X22445892Y-54989585D01*
X22445892Y-54790415D01*
X22484749Y-54595071D01*
X22560968Y-54411061D01*
X22671621Y-54245456D01*
X22812456Y-54104621D01*
X22978061Y-53993968D01*
X23162071Y-53917749D01*
X23357415Y-53878892D01*
X23556585Y-53878892D01*
X23751929Y-53917749D01*
G37*
G36*
X49211929Y-53917749D02*
G01*
X49395939Y-53993968D01*
X49561544Y-54104621D01*
X49702379Y-54245456D01*
X49813032Y-54411061D01*
X49889251Y-54595071D01*
X49928108Y-54790415D01*
X49928108Y-54989585D01*
X49889251Y-55184929D01*
X49813032Y-55368939D01*
X49702379Y-55534544D01*
X49561544Y-55675379D01*
X49395939Y-55786032D01*
X49211929Y-55862251D01*
X49016585Y-55901108D01*
X48817415Y-55901108D01*
X48622071Y-55862251D01*
X48438061Y-55786032D01*
X48272456Y-55675379D01*
X48131621Y-55534544D01*
X48020968Y-55368939D01*
X47944749Y-55184929D01*
X47905892Y-54989585D01*
X47905892Y-54790415D01*
X47944749Y-54595071D01*
X48020968Y-54411061D01*
X48131621Y-54245456D01*
X48272456Y-54104621D01*
X48438061Y-53993968D01*
X48622071Y-53917749D01*
X48817415Y-53878892D01*
X49016585Y-53878892D01*
X49211929Y-53917749D01*
G37*
G36*
X51751929Y-53917749D02*
G01*
X51935939Y-53993968D01*
X52101544Y-54104621D01*
X52242379Y-54245456D01*
X52353032Y-54411061D01*
X52429251Y-54595071D01*
X52468108Y-54790415D01*
X52468108Y-54989585D01*
X52429251Y-55184929D01*
X52353032Y-55368939D01*
X52242379Y-55534544D01*
X52101544Y-55675379D01*
X51935939Y-55786032D01*
X51751929Y-55862251D01*
X51556585Y-55901108D01*
X51357415Y-55901108D01*
X51162071Y-55862251D01*
X50978061Y-55786032D01*
X50812456Y-55675379D01*
X50671621Y-55534544D01*
X50560968Y-55368939D01*
X50484749Y-55184929D01*
X50445892Y-54989585D01*
X50445892Y-54790415D01*
X50484749Y-54595071D01*
X50560968Y-54411061D01*
X50671621Y-54245456D01*
X50812456Y-54104621D01*
X50978061Y-53993968D01*
X51162071Y-53917749D01*
X51357415Y-53878892D01*
X51556585Y-53878892D01*
X51751929Y-53917749D01*
G37*
G36*
X59175451Y-53107893D02*
G01*
X59334829Y-53173909D01*
X59478266Y-53269751D01*
X59600249Y-53391734D01*
X59696091Y-53535171D01*
X59762107Y-53694549D01*
X59795763Y-53863745D01*
X59795763Y-54036255D01*
X59762107Y-54205451D01*
X59696091Y-54364829D01*
X59600249Y-54508266D01*
X59478266Y-54630249D01*
X59334829Y-54726091D01*
X59175451Y-54792107D01*
X59006255Y-54825763D01*
X58833745Y-54825763D01*
X58664549Y-54792107D01*
X58505171Y-54726091D01*
X58361734Y-54630249D01*
X58239751Y-54508266D01*
X58143909Y-54364829D01*
X58077893Y-54205451D01*
X58044237Y-54036255D01*
X58044237Y-53863745D01*
X58077893Y-53694549D01*
X58143909Y-53535171D01*
X58239751Y-53391734D01*
X58361734Y-53269751D01*
X58505171Y-53173909D01*
X58664549Y-53107893D01*
X58833745Y-53074237D01*
X59006255Y-53074237D01*
X59175451Y-53107893D01*
G37*
G36*
X20957929Y-51377749D02*
G01*
X21141939Y-51453968D01*
X21307544Y-51564621D01*
X21448379Y-51705456D01*
X21559032Y-51871061D01*
X21635251Y-52055071D01*
X21674108Y-52250415D01*
X21674108Y-52449585D01*
X21635251Y-52644929D01*
X21559032Y-52828939D01*
X21448379Y-52994544D01*
X21307544Y-53135379D01*
X21141939Y-53246032D01*
X20957929Y-53322251D01*
X20762585Y-53361108D01*
X20563415Y-53361108D01*
X20368071Y-53322251D01*
X20184061Y-53246032D01*
X20018456Y-53135379D01*
X19877621Y-52994544D01*
X19766968Y-52828939D01*
X19690749Y-52644929D01*
X19651892Y-52449585D01*
X19651892Y-52250415D01*
X19690749Y-52055071D01*
X19766968Y-51871061D01*
X19877621Y-51705456D01*
X20018456Y-51564621D01*
X20184061Y-51453968D01*
X20368071Y-51377749D01*
X20563415Y-51338892D01*
X20762585Y-51338892D01*
X20957929Y-51377749D01*
G37*
G36*
X23497929Y-51377749D02*
G01*
X23681939Y-51453968D01*
X23847544Y-51564621D01*
X23988379Y-51705456D01*
X24099032Y-51871061D01*
X24175251Y-52055071D01*
X24214108Y-52250415D01*
X24214108Y-52449585D01*
X24175251Y-52644929D01*
X24099032Y-52828939D01*
X23988379Y-52994544D01*
X23847544Y-53135379D01*
X23681939Y-53246032D01*
X23497929Y-53322251D01*
X23302585Y-53361108D01*
X23103415Y-53361108D01*
X22908071Y-53322251D01*
X22724061Y-53246032D01*
X22558456Y-53135379D01*
X22417621Y-52994544D01*
X22306968Y-52828939D01*
X22230749Y-52644929D01*
X22191892Y-52449585D01*
X22191892Y-52250415D01*
X22230749Y-52055071D01*
X22306968Y-51871061D01*
X22417621Y-51705456D01*
X22558456Y-51564621D01*
X22724061Y-51453968D01*
X22908071Y-51377749D01*
X23103415Y-51338892D01*
X23302585Y-51338892D01*
X23497929Y-51377749D01*
G37*
G36*
X48957929Y-51377749D02*
G01*
X49141939Y-51453968D01*
X49307544Y-51564621D01*
X49448379Y-51705456D01*
X49559032Y-51871061D01*
X49635251Y-52055071D01*
X49674108Y-52250415D01*
X49674108Y-52449585D01*
X49635251Y-52644929D01*
X49559032Y-52828939D01*
X49448379Y-52994544D01*
X49307544Y-53135379D01*
X49141939Y-53246032D01*
X48957929Y-53322251D01*
X48762585Y-53361108D01*
X48563415Y-53361108D01*
X48368071Y-53322251D01*
X48184061Y-53246032D01*
X48018456Y-53135379D01*
X47877621Y-52994544D01*
X47766968Y-52828939D01*
X47690749Y-52644929D01*
X47651892Y-52449585D01*
X47651892Y-52250415D01*
X47690749Y-52055071D01*
X47766968Y-51871061D01*
X47877621Y-51705456D01*
X48018456Y-51564621D01*
X48184061Y-51453968D01*
X48368071Y-51377749D01*
X48563415Y-51338892D01*
X48762585Y-51338892D01*
X48957929Y-51377749D01*
G37*
G36*
X51497929Y-51377749D02*
G01*
X51681939Y-51453968D01*
X51847544Y-51564621D01*
X51988379Y-51705456D01*
X52099032Y-51871061D01*
X52175251Y-52055071D01*
X52214108Y-52250415D01*
X52214108Y-52449585D01*
X52175251Y-52644929D01*
X52099032Y-52828939D01*
X51988379Y-52994544D01*
X51847544Y-53135379D01*
X51681939Y-53246032D01*
X51497929Y-53322251D01*
X51302585Y-53361108D01*
X51103415Y-53361108D01*
X50908071Y-53322251D01*
X50724061Y-53246032D01*
X50558456Y-53135379D01*
X50417621Y-52994544D01*
X50306968Y-52828939D01*
X50230749Y-52644929D01*
X50191892Y-52449585D01*
X50191892Y-52250415D01*
X50230749Y-52055071D01*
X50306968Y-51871061D01*
X50417621Y-51705456D01*
X50558456Y-51564621D01*
X50724061Y-51453968D01*
X50908071Y-51377749D01*
X51103415Y-51338892D01*
X51302585Y-51338892D01*
X51497929Y-51377749D01*
G37*
G36*
X7105451Y-50948893D02*
G01*
X7264829Y-51014909D01*
X7408266Y-51110751D01*
X7530249Y-51232734D01*
X7626091Y-51376171D01*
X7692107Y-51535549D01*
X7725763Y-51704745D01*
X7725763Y-51877255D01*
X7692107Y-52046451D01*
X7626091Y-52205829D01*
X7530249Y-52349266D01*
X7408266Y-52471249D01*
X7264829Y-52567091D01*
X7105451Y-52633107D01*
X6936255Y-52666763D01*
X6763745Y-52666763D01*
X6594549Y-52633107D01*
X6435171Y-52567091D01*
X6291734Y-52471249D01*
X6169751Y-52349266D01*
X6073909Y-52205829D01*
X6007893Y-52046451D01*
X5974237Y-51877255D01*
X5974237Y-51704745D01*
X6007893Y-51535549D01*
X6073909Y-51376171D01*
X6169751Y-51232734D01*
X6291734Y-51110751D01*
X6435171Y-51014909D01*
X6594549Y-50948893D01*
X6763745Y-50915237D01*
X6936255Y-50915237D01*
X7105451Y-50948893D01*
G37*
G36*
X9645451Y-50948893D02*
G01*
X9804829Y-51014909D01*
X9948266Y-51110751D01*
X10070249Y-51232734D01*
X10166091Y-51376171D01*
X10232107Y-51535549D01*
X10265763Y-51704745D01*
X10265763Y-51877255D01*
X10232107Y-52046451D01*
X10166091Y-52205829D01*
X10070249Y-52349266D01*
X9948266Y-52471249D01*
X9804829Y-52567091D01*
X9645451Y-52633107D01*
X9476255Y-52666763D01*
X9303745Y-52666763D01*
X9134549Y-52633107D01*
X8975171Y-52567091D01*
X8831734Y-52471249D01*
X8709751Y-52349266D01*
X8613909Y-52205829D01*
X8547893Y-52046451D01*
X8514237Y-51877255D01*
X8514237Y-51704745D01*
X8547893Y-51535549D01*
X8613909Y-51376171D01*
X8709751Y-51232734D01*
X8831734Y-51110751D01*
X8975171Y-51014909D01*
X9134549Y-50948893D01*
X9303745Y-50915237D01*
X9476255Y-50915237D01*
X9645451Y-50948893D01*
G37*
G36*
X59175451Y-50567893D02*
G01*
X59334829Y-50633909D01*
X59478266Y-50729751D01*
X59600249Y-50851734D01*
X59696091Y-50995171D01*
X59762107Y-51154549D01*
X59795763Y-51323745D01*
X59795763Y-51496255D01*
X59762107Y-51665451D01*
X59696091Y-51824829D01*
X59600249Y-51968266D01*
X59478266Y-52090249D01*
X59334829Y-52186091D01*
X59175451Y-52252107D01*
X59006255Y-52285763D01*
X58833745Y-52285763D01*
X58664549Y-52252107D01*
X58505171Y-52186091D01*
X58361734Y-52090249D01*
X58239751Y-51968266D01*
X58143909Y-51824829D01*
X58077893Y-51665451D01*
X58044237Y-51496255D01*
X58044237Y-51323745D01*
X58077893Y-51154549D01*
X58143909Y-50995171D01*
X58239751Y-50851734D01*
X58361734Y-50729751D01*
X58505171Y-50633909D01*
X58664549Y-50567893D01*
X58833745Y-50534237D01*
X59006255Y-50534237D01*
X59175451Y-50567893D01*
G37*
G36*
X21211929Y-48837749D02*
G01*
X21395939Y-48913968D01*
X21561544Y-49024621D01*
X21702379Y-49165456D01*
X21813032Y-49331061D01*
X21889251Y-49515071D01*
X21928108Y-49710415D01*
X21928108Y-49909585D01*
X21889251Y-50104929D01*
X21813032Y-50288939D01*
X21702379Y-50454544D01*
X21561544Y-50595379D01*
X21395939Y-50706032D01*
X21211929Y-50782251D01*
X21016585Y-50821108D01*
X20817415Y-50821108D01*
X20622071Y-50782251D01*
X20438061Y-50706032D01*
X20272456Y-50595379D01*
X20131621Y-50454544D01*
X20020968Y-50288939D01*
X19944749Y-50104929D01*
X19905892Y-49909585D01*
X19905892Y-49710415D01*
X19944749Y-49515071D01*
X20020968Y-49331061D01*
X20131621Y-49165456D01*
X20272456Y-49024621D01*
X20438061Y-48913968D01*
X20622071Y-48837749D01*
X20817415Y-48798892D01*
X21016585Y-48798892D01*
X21211929Y-48837749D01*
G37*
G36*
X23751929Y-48837749D02*
G01*
X23935939Y-48913968D01*
X24101544Y-49024621D01*
X24242379Y-49165456D01*
X24353032Y-49331061D01*
X24429251Y-49515071D01*
X24468108Y-49710415D01*
X24468108Y-49909585D01*
X24429251Y-50104929D01*
X24353032Y-50288939D01*
X24242379Y-50454544D01*
X24101544Y-50595379D01*
X23935939Y-50706032D01*
X23751929Y-50782251D01*
X23556585Y-50821108D01*
X23357415Y-50821108D01*
X23162071Y-50782251D01*
X22978061Y-50706032D01*
X22812456Y-50595379D01*
X22671621Y-50454544D01*
X22560968Y-50288939D01*
X22484749Y-50104929D01*
X22445892Y-49909585D01*
X22445892Y-49710415D01*
X22484749Y-49515071D01*
X22560968Y-49331061D01*
X22671621Y-49165456D01*
X22812456Y-49024621D01*
X22978061Y-48913968D01*
X23162071Y-48837749D01*
X23357415Y-48798892D01*
X23556585Y-48798892D01*
X23751929Y-48837749D01*
G37*
G36*
X49211929Y-48837749D02*
G01*
X49395939Y-48913968D01*
X49561544Y-49024621D01*
X49702379Y-49165456D01*
X49813032Y-49331061D01*
X49889251Y-49515071D01*
X49928108Y-49710415D01*
X49928108Y-49909585D01*
X49889251Y-50104929D01*
X49813032Y-50288939D01*
X49702379Y-50454544D01*
X49561544Y-50595379D01*
X49395939Y-50706032D01*
X49211929Y-50782251D01*
X49016585Y-50821108D01*
X48817415Y-50821108D01*
X48622071Y-50782251D01*
X48438061Y-50706032D01*
X48272456Y-50595379D01*
X48131621Y-50454544D01*
X48020968Y-50288939D01*
X47944749Y-50104929D01*
X47905892Y-49909585D01*
X47905892Y-49710415D01*
X47944749Y-49515071D01*
X48020968Y-49331061D01*
X48131621Y-49165456D01*
X48272456Y-49024621D01*
X48438061Y-48913968D01*
X48622071Y-48837749D01*
X48817415Y-48798892D01*
X49016585Y-48798892D01*
X49211929Y-48837749D01*
G37*
G36*
X51751929Y-48837749D02*
G01*
X51935939Y-48913968D01*
X52101544Y-49024621D01*
X52242379Y-49165456D01*
X52353032Y-49331061D01*
X52429251Y-49515071D01*
X52468108Y-49710415D01*
X52468108Y-49909585D01*
X52429251Y-50104929D01*
X52353032Y-50288939D01*
X52242379Y-50454544D01*
X52101544Y-50595379D01*
X51935939Y-50706032D01*
X51751929Y-50782251D01*
X51556585Y-50821108D01*
X51357415Y-50821108D01*
X51162071Y-50782251D01*
X50978061Y-50706032D01*
X50812456Y-50595379D01*
X50671621Y-50454544D01*
X50560968Y-50288939D01*
X50484749Y-50104929D01*
X50445892Y-49909585D01*
X50445892Y-49710415D01*
X50484749Y-49515071D01*
X50560968Y-49331061D01*
X50671621Y-49165456D01*
X50812456Y-49024621D01*
X50978061Y-48913968D01*
X51162071Y-48837749D01*
X51357415Y-48798892D01*
X51556585Y-48798892D01*
X51751929Y-48837749D01*
G37*
G36*
X7105451Y-48408893D02*
G01*
X7264829Y-48474909D01*
X7408266Y-48570751D01*
X7530249Y-48692734D01*
X7626091Y-48836171D01*
X7692107Y-48995549D01*
X7725763Y-49164745D01*
X7725763Y-49337255D01*
X7692107Y-49506451D01*
X7626091Y-49665829D01*
X7530249Y-49809266D01*
X7408266Y-49931249D01*
X7264829Y-50027091D01*
X7105451Y-50093107D01*
X6936255Y-50126763D01*
X6763745Y-50126763D01*
X6594549Y-50093107D01*
X6435171Y-50027091D01*
X6291734Y-49931249D01*
X6169751Y-49809266D01*
X6073909Y-49665829D01*
X6007893Y-49506451D01*
X5974237Y-49337255D01*
X5974237Y-49164745D01*
X6007893Y-48995549D01*
X6073909Y-48836171D01*
X6169751Y-48692734D01*
X6291734Y-48570751D01*
X6435171Y-48474909D01*
X6594549Y-48408893D01*
X6763745Y-48375237D01*
X6936255Y-48375237D01*
X7105451Y-48408893D01*
G37*
G36*
X9645451Y-48408893D02*
G01*
X9804829Y-48474909D01*
X9948266Y-48570751D01*
X10070249Y-48692734D01*
X10166091Y-48836171D01*
X10232107Y-48995549D01*
X10265763Y-49164745D01*
X10265763Y-49337255D01*
X10232107Y-49506451D01*
X10166091Y-49665829D01*
X10070249Y-49809266D01*
X9948266Y-49931249D01*
X9804829Y-50027091D01*
X9645451Y-50093107D01*
X9476255Y-50126763D01*
X9303745Y-50126763D01*
X9134549Y-50093107D01*
X8975171Y-50027091D01*
X8831734Y-49931249D01*
X8709751Y-49809266D01*
X8613909Y-49665829D01*
X8547893Y-49506451D01*
X8514237Y-49337255D01*
X8514237Y-49164745D01*
X8547893Y-48995549D01*
X8613909Y-48836171D01*
X8709751Y-48692734D01*
X8831734Y-48570751D01*
X8975171Y-48474909D01*
X9134549Y-48408893D01*
X9303745Y-48375237D01*
X9476255Y-48375237D01*
X9645451Y-48408893D01*
G37*
G36*
X2025451Y-48027893D02*
G01*
X2184829Y-48093909D01*
X2328266Y-48189751D01*
X2450249Y-48311734D01*
X2546091Y-48455171D01*
X2612107Y-48614549D01*
X2645763Y-48783745D01*
X2645763Y-48956255D01*
X2612107Y-49125451D01*
X2546091Y-49284829D01*
X2450249Y-49428266D01*
X2328266Y-49550249D01*
X2184829Y-49646091D01*
X2025451Y-49712107D01*
X1856255Y-49745763D01*
X1683745Y-49745763D01*
X1514549Y-49712107D01*
X1355171Y-49646091D01*
X1211734Y-49550249D01*
X1089751Y-49428266D01*
X993909Y-49284829D01*
X927893Y-49125451D01*
X894237Y-48956255D01*
X894237Y-48783745D01*
X927893Y-48614549D01*
X993909Y-48455171D01*
X1089751Y-48311734D01*
X1211734Y-48189751D01*
X1355171Y-48093909D01*
X1514549Y-48027893D01*
X1683745Y-47994237D01*
X1856255Y-47994237D01*
X2025451Y-48027893D01*
G37*
G36*
X20957929Y-46297749D02*
G01*
X21141939Y-46373968D01*
X21307544Y-46484621D01*
X21448379Y-46625456D01*
X21559032Y-46791061D01*
X21635251Y-46975071D01*
X21674108Y-47170415D01*
X21674108Y-47369585D01*
X21635251Y-47564929D01*
X21559032Y-47748939D01*
X21448379Y-47914544D01*
X21307544Y-48055379D01*
X21141939Y-48166032D01*
X20957929Y-48242251D01*
X20762585Y-48281108D01*
X20563415Y-48281108D01*
X20368071Y-48242251D01*
X20184061Y-48166032D01*
X20018456Y-48055379D01*
X19877621Y-47914544D01*
X19766968Y-47748939D01*
X19690749Y-47564929D01*
X19651892Y-47369585D01*
X19651892Y-47170415D01*
X19690749Y-46975071D01*
X19766968Y-46791061D01*
X19877621Y-46625456D01*
X20018456Y-46484621D01*
X20184061Y-46373968D01*
X20368071Y-46297749D01*
X20563415Y-46258892D01*
X20762585Y-46258892D01*
X20957929Y-46297749D01*
G37*
G36*
X23497929Y-46297749D02*
G01*
X23681939Y-46373968D01*
X23847544Y-46484621D01*
X23988379Y-46625456D01*
X24099032Y-46791061D01*
X24175251Y-46975071D01*
X24214108Y-47170415D01*
X24214108Y-47369585D01*
X24175251Y-47564929D01*
X24099032Y-47748939D01*
X23988379Y-47914544D01*
X23847544Y-48055379D01*
X23681939Y-48166032D01*
X23497929Y-48242251D01*
X23302585Y-48281108D01*
X23103415Y-48281108D01*
X22908071Y-48242251D01*
X22724061Y-48166032D01*
X22558456Y-48055379D01*
X22417621Y-47914544D01*
X22306968Y-47748939D01*
X22230749Y-47564929D01*
X22191892Y-47369585D01*
X22191892Y-47170415D01*
X22230749Y-46975071D01*
X22306968Y-46791061D01*
X22417621Y-46625456D01*
X22558456Y-46484621D01*
X22724061Y-46373968D01*
X22908071Y-46297749D01*
X23103415Y-46258892D01*
X23302585Y-46258892D01*
X23497929Y-46297749D01*
G37*
G36*
X48957929Y-46297749D02*
G01*
X49141939Y-46373968D01*
X49307544Y-46484621D01*
X49448379Y-46625456D01*
X49559032Y-46791061D01*
X49635251Y-46975071D01*
X49674108Y-47170415D01*
X49674108Y-47369585D01*
X49635251Y-47564929D01*
X49559032Y-47748939D01*
X49448379Y-47914544D01*
X49307544Y-48055379D01*
X49141939Y-48166032D01*
X48957929Y-48242251D01*
X48762585Y-48281108D01*
X48563415Y-48281108D01*
X48368071Y-48242251D01*
X48184061Y-48166032D01*
X48018456Y-48055379D01*
X47877621Y-47914544D01*
X47766968Y-47748939D01*
X47690749Y-47564929D01*
X47651892Y-47369585D01*
X47651892Y-47170415D01*
X47690749Y-46975071D01*
X47766968Y-46791061D01*
X47877621Y-46625456D01*
X48018456Y-46484621D01*
X48184061Y-46373968D01*
X48368071Y-46297749D01*
X48563415Y-46258892D01*
X48762585Y-46258892D01*
X48957929Y-46297749D01*
G37*
G36*
X51497929Y-46297749D02*
G01*
X51681939Y-46373968D01*
X51847544Y-46484621D01*
X51988379Y-46625456D01*
X52099032Y-46791061D01*
X52175251Y-46975071D01*
X52214108Y-47170415D01*
X52214108Y-47369585D01*
X52175251Y-47564929D01*
X52099032Y-47748939D01*
X51988379Y-47914544D01*
X51847544Y-48055379D01*
X51681939Y-48166032D01*
X51497929Y-48242251D01*
X51302585Y-48281108D01*
X51103415Y-48281108D01*
X50908071Y-48242251D01*
X50724061Y-48166032D01*
X50558456Y-48055379D01*
X50417621Y-47914544D01*
X50306968Y-47748939D01*
X50230749Y-47564929D01*
X50191892Y-47369585D01*
X50191892Y-47170415D01*
X50230749Y-46975071D01*
X50306968Y-46791061D01*
X50417621Y-46625456D01*
X50558456Y-46484621D01*
X50724061Y-46373968D01*
X50908071Y-46297749D01*
X51103415Y-46258892D01*
X51302585Y-46258892D01*
X51497929Y-46297749D01*
G37*
G36*
X7105451Y-45868893D02*
G01*
X7264829Y-45934909D01*
X7408266Y-46030751D01*
X7530249Y-46152734D01*
X7626091Y-46296171D01*
X7692107Y-46455549D01*
X7725763Y-46624745D01*
X7725763Y-46797255D01*
X7692107Y-46966451D01*
X7626091Y-47125829D01*
X7530249Y-47269266D01*
X7408266Y-47391249D01*
X7264829Y-47487091D01*
X7105451Y-47553107D01*
X6936255Y-47586763D01*
X6763745Y-47586763D01*
X6594549Y-47553107D01*
X6435171Y-47487091D01*
X6291734Y-47391249D01*
X6169751Y-47269266D01*
X6073909Y-47125829D01*
X6007893Y-46966451D01*
X5974237Y-46797255D01*
X5974237Y-46624745D01*
X6007893Y-46455549D01*
X6073909Y-46296171D01*
X6169751Y-46152734D01*
X6291734Y-46030751D01*
X6435171Y-45934909D01*
X6594549Y-45868893D01*
X6763745Y-45835237D01*
X6936255Y-45835237D01*
X7105451Y-45868893D01*
G37*
G36*
X9645451Y-45868893D02*
G01*
X9804829Y-45934909D01*
X9948266Y-46030751D01*
X10070249Y-46152734D01*
X10166091Y-46296171D01*
X10232107Y-46455549D01*
X10265763Y-46624745D01*
X10265763Y-46797255D01*
X10232107Y-46966451D01*
X10166091Y-47125829D01*
X10070249Y-47269266D01*
X9948266Y-47391249D01*
X9804829Y-47487091D01*
X9645451Y-47553107D01*
X9476255Y-47586763D01*
X9303745Y-47586763D01*
X9134549Y-47553107D01*
X8975171Y-47487091D01*
X8831734Y-47391249D01*
X8709751Y-47269266D01*
X8613909Y-47125829D01*
X8547893Y-46966451D01*
X8514237Y-46797255D01*
X8514237Y-46624745D01*
X8547893Y-46455549D01*
X8613909Y-46296171D01*
X8709751Y-46152734D01*
X8831734Y-46030751D01*
X8975171Y-45934909D01*
X9134549Y-45868893D01*
X9303745Y-45835237D01*
X9476255Y-45835237D01*
X9645451Y-45868893D01*
G37*
G36*
X2025451Y-45487893D02*
G01*
X2184829Y-45553909D01*
X2328266Y-45649751D01*
X2450249Y-45771734D01*
X2546091Y-45915171D01*
X2612107Y-46074549D01*
X2645763Y-46243745D01*
X2645763Y-46416255D01*
X2612107Y-46585451D01*
X2546091Y-46744829D01*
X2450249Y-46888266D01*
X2328266Y-47010249D01*
X2184829Y-47106091D01*
X2025451Y-47172107D01*
X1856255Y-47205763D01*
X1683745Y-47205763D01*
X1514549Y-47172107D01*
X1355171Y-47106091D01*
X1211734Y-47010249D01*
X1089751Y-46888266D01*
X993909Y-46744829D01*
X927893Y-46585451D01*
X894237Y-46416255D01*
X894237Y-46243745D01*
X927893Y-46074549D01*
X993909Y-45915171D01*
X1089751Y-45771734D01*
X1211734Y-45649751D01*
X1355171Y-45553909D01*
X1514549Y-45487893D01*
X1683745Y-45454237D01*
X1856255Y-45454237D01*
X2025451Y-45487893D01*
G37*
G36*
X59175451Y-45487893D02*
G01*
X59334829Y-45553909D01*
X59478266Y-45649751D01*
X59600249Y-45771734D01*
X59696091Y-45915171D01*
X59762107Y-46074549D01*
X59795763Y-46243745D01*
X59795763Y-46416255D01*
X59762107Y-46585451D01*
X59696091Y-46744829D01*
X59600249Y-46888266D01*
X59478266Y-47010249D01*
X59334829Y-47106091D01*
X59175451Y-47172107D01*
X59006255Y-47205763D01*
X58833745Y-47205763D01*
X58664549Y-47172107D01*
X58505171Y-47106091D01*
X58361734Y-47010249D01*
X58239751Y-46888266D01*
X58143909Y-46744829D01*
X58077893Y-46585451D01*
X58044237Y-46416255D01*
X58044237Y-46243745D01*
X58077893Y-46074549D01*
X58143909Y-45915171D01*
X58239751Y-45771734D01*
X58361734Y-45649751D01*
X58505171Y-45553909D01*
X58664549Y-45487893D01*
X58833745Y-45454237D01*
X59006255Y-45454237D01*
X59175451Y-45487893D01*
G37*
G36*
X7105451Y-43328893D02*
G01*
X7264829Y-43394909D01*
X7408266Y-43490751D01*
X7530249Y-43612734D01*
X7626091Y-43756171D01*
X7692107Y-43915549D01*
X7725763Y-44084745D01*
X7725763Y-44257255D01*
X7692107Y-44426451D01*
X7626091Y-44585829D01*
X7530249Y-44729266D01*
X7408266Y-44851249D01*
X7264829Y-44947091D01*
X7105451Y-45013107D01*
X6936255Y-45046763D01*
X6763745Y-45046763D01*
X6594549Y-45013107D01*
X6435171Y-44947091D01*
X6291734Y-44851249D01*
X6169751Y-44729266D01*
X6073909Y-44585829D01*
X6007893Y-44426451D01*
X5974237Y-44257255D01*
X5974237Y-44084745D01*
X6007893Y-43915549D01*
X6073909Y-43756171D01*
X6169751Y-43612734D01*
X6291734Y-43490751D01*
X6435171Y-43394909D01*
X6594549Y-43328893D01*
X6763745Y-43295237D01*
X6936255Y-43295237D01*
X7105451Y-43328893D01*
G37*
G36*
X9645451Y-43328893D02*
G01*
X9804829Y-43394909D01*
X9948266Y-43490751D01*
X10070249Y-43612734D01*
X10166091Y-43756171D01*
X10232107Y-43915549D01*
X10265763Y-44084745D01*
X10265763Y-44257255D01*
X10232107Y-44426451D01*
X10166091Y-44585829D01*
X10070249Y-44729266D01*
X9948266Y-44851249D01*
X9804829Y-44947091D01*
X9645451Y-45013107D01*
X9476255Y-45046763D01*
X9303745Y-45046763D01*
X9134549Y-45013107D01*
X8975171Y-44947091D01*
X8831734Y-44851249D01*
X8709751Y-44729266D01*
X8613909Y-44585829D01*
X8547893Y-44426451D01*
X8514237Y-44257255D01*
X8514237Y-44084745D01*
X8547893Y-43915549D01*
X8613909Y-43756171D01*
X8709751Y-43612734D01*
X8831734Y-43490751D01*
X8975171Y-43394909D01*
X9134549Y-43328893D01*
X9303745Y-43295237D01*
X9476255Y-43295237D01*
X9645451Y-43328893D01*
G37*
G36*
X2025451Y-42947893D02*
G01*
X2184829Y-43013909D01*
X2328266Y-43109751D01*
X2450249Y-43231734D01*
X2546091Y-43375171D01*
X2612107Y-43534549D01*
X2645763Y-43703745D01*
X2645763Y-43876255D01*
X2612107Y-44045451D01*
X2546091Y-44204829D01*
X2450249Y-44348266D01*
X2328266Y-44470249D01*
X2184829Y-44566091D01*
X2025451Y-44632107D01*
X1856255Y-44665763D01*
X1683745Y-44665763D01*
X1514549Y-44632107D01*
X1355171Y-44566091D01*
X1211734Y-44470249D01*
X1089751Y-44348266D01*
X993909Y-44204829D01*
X927893Y-44045451D01*
X894237Y-43876255D01*
X894237Y-43703745D01*
X927893Y-43534549D01*
X993909Y-43375171D01*
X1089751Y-43231734D01*
X1211734Y-43109751D01*
X1355171Y-43013909D01*
X1514549Y-42947893D01*
X1683745Y-42914237D01*
X1856255Y-42914237D01*
X2025451Y-42947893D01*
G37*
G36*
X59175451Y-42947893D02*
G01*
X59334829Y-43013909D01*
X59478266Y-43109751D01*
X59600249Y-43231734D01*
X59696091Y-43375171D01*
X59762107Y-43534549D01*
X59795763Y-43703745D01*
X59795763Y-43876255D01*
X59762107Y-44045451D01*
X59696091Y-44204829D01*
X59600249Y-44348266D01*
X59478266Y-44470249D01*
X59334829Y-44566091D01*
X59175451Y-44632107D01*
X59006255Y-44665763D01*
X58833745Y-44665763D01*
X58664549Y-44632107D01*
X58505171Y-44566091D01*
X58361734Y-44470249D01*
X58239751Y-44348266D01*
X58143909Y-44204829D01*
X58077893Y-44045451D01*
X58044237Y-43876255D01*
X58044237Y-43703745D01*
X58077893Y-43534549D01*
X58143909Y-43375171D01*
X58239751Y-43231734D01*
X58361734Y-43109751D01*
X58505171Y-43013909D01*
X58664549Y-42947893D01*
X58833745Y-42914237D01*
X59006255Y-42914237D01*
X59175451Y-42947893D01*
G37*
G36*
X7105451Y-40788893D02*
G01*
X7264829Y-40854909D01*
X7408266Y-40950751D01*
X7530249Y-41072734D01*
X7626091Y-41216171D01*
X7692107Y-41375549D01*
X7725763Y-41544745D01*
X7725763Y-41717255D01*
X7692107Y-41886451D01*
X7626091Y-42045829D01*
X7530249Y-42189266D01*
X7408266Y-42311249D01*
X7264829Y-42407091D01*
X7105451Y-42473107D01*
X6936255Y-42506763D01*
X6763745Y-42506763D01*
X6594549Y-42473107D01*
X6435171Y-42407091D01*
X6291734Y-42311249D01*
X6169751Y-42189266D01*
X6073909Y-42045829D01*
X6007893Y-41886451D01*
X5974237Y-41717255D01*
X5974237Y-41544745D01*
X6007893Y-41375549D01*
X6073909Y-41216171D01*
X6169751Y-41072734D01*
X6291734Y-40950751D01*
X6435171Y-40854909D01*
X6594549Y-40788893D01*
X6763745Y-40755237D01*
X6936255Y-40755237D01*
X7105451Y-40788893D01*
G37*
G36*
X9645451Y-40788893D02*
G01*
X9804829Y-40854909D01*
X9948266Y-40950751D01*
X10070249Y-41072734D01*
X10166091Y-41216171D01*
X10232107Y-41375549D01*
X10265763Y-41544745D01*
X10265763Y-41717255D01*
X10232107Y-41886451D01*
X10166091Y-42045829D01*
X10070249Y-42189266D01*
X9948266Y-42311249D01*
X9804829Y-42407091D01*
X9645451Y-42473107D01*
X9476255Y-42506763D01*
X9303745Y-42506763D01*
X9134549Y-42473107D01*
X8975171Y-42407091D01*
X8831734Y-42311249D01*
X8709751Y-42189266D01*
X8613909Y-42045829D01*
X8547893Y-41886451D01*
X8514237Y-41717255D01*
X8514237Y-41544745D01*
X8547893Y-41375549D01*
X8613909Y-41216171D01*
X8709751Y-41072734D01*
X8831734Y-40950751D01*
X8975171Y-40854909D01*
X9134549Y-40788893D01*
X9303745Y-40755237D01*
X9476255Y-40755237D01*
X9645451Y-40788893D01*
G37*
G36*
X2025451Y-40407893D02*
G01*
X2184829Y-40473909D01*
X2328266Y-40569751D01*
X2450249Y-40691734D01*
X2546091Y-40835171D01*
X2612107Y-40994549D01*
X2645763Y-41163745D01*
X2645763Y-41336255D01*
X2612107Y-41505451D01*
X2546091Y-41664829D01*
X2450249Y-41808266D01*
X2328266Y-41930249D01*
X2184829Y-42026091D01*
X2025451Y-42092107D01*
X1856255Y-42125763D01*
X1683745Y-42125763D01*
X1514549Y-42092107D01*
X1355171Y-42026091D01*
X1211734Y-41930249D01*
X1089751Y-41808266D01*
X993909Y-41664829D01*
X927893Y-41505451D01*
X894237Y-41336255D01*
X894237Y-41163745D01*
X927893Y-40994549D01*
X993909Y-40835171D01*
X1089751Y-40691734D01*
X1211734Y-40569751D01*
X1355171Y-40473909D01*
X1514549Y-40407893D01*
X1683745Y-40374237D01*
X1856255Y-40374237D01*
X2025451Y-40407893D01*
G37*
G36*
X59175451Y-40407893D02*
G01*
X59334829Y-40473909D01*
X59478266Y-40569751D01*
X59600249Y-40691734D01*
X59696091Y-40835171D01*
X59762107Y-40994549D01*
X59795763Y-41163745D01*
X59795763Y-41336255D01*
X59762107Y-41505451D01*
X59696091Y-41664829D01*
X59600249Y-41808266D01*
X59478266Y-41930249D01*
X59334829Y-42026091D01*
X59175451Y-42092107D01*
X59006255Y-42125763D01*
X58833745Y-42125763D01*
X58664549Y-42092107D01*
X58505171Y-42026091D01*
X58361734Y-41930249D01*
X58239751Y-41808266D01*
X58143909Y-41664829D01*
X58077893Y-41505451D01*
X58044237Y-41336255D01*
X58044237Y-41163745D01*
X58077893Y-40994549D01*
X58143909Y-40835171D01*
X58239751Y-40691734D01*
X58361734Y-40569751D01*
X58505171Y-40473909D01*
X58664549Y-40407893D01*
X58833745Y-40374237D01*
X59006255Y-40374237D01*
X59175451Y-40407893D01*
G37*
G36*
X59175451Y-37867893D02*
G01*
X59334829Y-37933909D01*
X59478266Y-38029751D01*
X59600249Y-38151734D01*
X59696091Y-38295171D01*
X59762107Y-38454549D01*
X59795763Y-38623745D01*
X59795763Y-38796255D01*
X59762107Y-38965451D01*
X59696091Y-39124829D01*
X59600249Y-39268266D01*
X59478266Y-39390249D01*
X59334829Y-39486091D01*
X59175451Y-39552107D01*
X59006255Y-39585763D01*
X58833745Y-39585763D01*
X58664549Y-39552107D01*
X58505171Y-39486091D01*
X58361734Y-39390249D01*
X58239751Y-39268266D01*
X58143909Y-39124829D01*
X58077893Y-38965451D01*
X58044237Y-38796255D01*
X58044237Y-38623745D01*
X58077893Y-38454549D01*
X58143909Y-38295171D01*
X58239751Y-38151734D01*
X58361734Y-38029751D01*
X58505171Y-37933909D01*
X58664549Y-37867893D01*
X58833745Y-37834237D01*
X59006255Y-37834237D01*
X59175451Y-37867893D01*
G37*
G36*
X2025451Y-35327893D02*
G01*
X2184829Y-35393909D01*
X2328266Y-35489751D01*
X2450249Y-35611734D01*
X2546091Y-35755171D01*
X2612107Y-35914549D01*
X2645763Y-36083745D01*
X2645763Y-36256255D01*
X2612107Y-36425451D01*
X2546091Y-36584829D01*
X2450249Y-36728266D01*
X2328266Y-36850249D01*
X2184829Y-36946091D01*
X2025451Y-37012107D01*
X1856255Y-37045763D01*
X1683745Y-37045763D01*
X1514549Y-37012107D01*
X1355171Y-36946091D01*
X1211734Y-36850249D01*
X1089751Y-36728266D01*
X993909Y-36584829D01*
X927893Y-36425451D01*
X894237Y-36256255D01*
X894237Y-36083745D01*
X927893Y-35914549D01*
X993909Y-35755171D01*
X1089751Y-35611734D01*
X1211734Y-35489751D01*
X1355171Y-35393909D01*
X1514549Y-35327893D01*
X1683745Y-35294237D01*
X1856255Y-35294237D01*
X2025451Y-35327893D01*
G37*
G36*
X59175451Y-35327893D02*
G01*
X59334829Y-35393909D01*
X59478266Y-35489751D01*
X59600249Y-35611734D01*
X59696091Y-35755171D01*
X59762107Y-35914549D01*
X59795763Y-36083745D01*
X59795763Y-36256255D01*
X59762107Y-36425451D01*
X59696091Y-36584829D01*
X59600249Y-36728266D01*
X59478266Y-36850249D01*
X59334829Y-36946091D01*
X59175451Y-37012107D01*
X59006255Y-37045763D01*
X58833745Y-37045763D01*
X58664549Y-37012107D01*
X58505171Y-36946091D01*
X58361734Y-36850249D01*
X58239751Y-36728266D01*
X58143909Y-36584829D01*
X58077893Y-36425451D01*
X58044237Y-36256255D01*
X58044237Y-36083745D01*
X58077893Y-35914549D01*
X58143909Y-35755171D01*
X58239751Y-35611734D01*
X58361734Y-35489751D01*
X58505171Y-35393909D01*
X58664549Y-35327893D01*
X58833745Y-35294237D01*
X59006255Y-35294237D01*
X59175451Y-35327893D01*
G37*
G36*
X2025451Y-32787893D02*
G01*
X2184829Y-32853909D01*
X2328266Y-32949751D01*
X2450249Y-33071734D01*
X2546091Y-33215171D01*
X2612107Y-33374549D01*
X2645763Y-33543745D01*
X2645763Y-33716255D01*
X2612107Y-33885451D01*
X2546091Y-34044829D01*
X2450249Y-34188266D01*
X2328266Y-34310249D01*
X2184829Y-34406091D01*
X2025451Y-34472107D01*
X1856255Y-34505763D01*
X1683745Y-34505763D01*
X1514549Y-34472107D01*
X1355171Y-34406091D01*
X1211734Y-34310249D01*
X1089751Y-34188266D01*
X993909Y-34044829D01*
X927893Y-33885451D01*
X894237Y-33716255D01*
X894237Y-33543745D01*
X927893Y-33374549D01*
X993909Y-33215171D01*
X1089751Y-33071734D01*
X1211734Y-32949751D01*
X1355171Y-32853909D01*
X1514549Y-32787893D01*
X1683745Y-32754237D01*
X1856255Y-32754237D01*
X2025451Y-32787893D01*
G37*
G36*
X59175451Y-32787893D02*
G01*
X59334829Y-32853909D01*
X59478266Y-32949751D01*
X59600249Y-33071734D01*
X59696091Y-33215171D01*
X59762107Y-33374549D01*
X59795763Y-33543745D01*
X59795763Y-33716255D01*
X59762107Y-33885451D01*
X59696091Y-34044829D01*
X59600249Y-34188266D01*
X59478266Y-34310249D01*
X59334829Y-34406091D01*
X59175451Y-34472107D01*
X59006255Y-34505763D01*
X58833745Y-34505763D01*
X58664549Y-34472107D01*
X58505171Y-34406091D01*
X58361734Y-34310249D01*
X58239751Y-34188266D01*
X58143909Y-34044829D01*
X58077893Y-33885451D01*
X58044237Y-33716255D01*
X58044237Y-33543745D01*
X58077893Y-33374549D01*
X58143909Y-33215171D01*
X58239751Y-33071734D01*
X58361734Y-32949751D01*
X58505171Y-32853909D01*
X58664549Y-32787893D01*
X58833745Y-32754237D01*
X59006255Y-32754237D01*
X59175451Y-32787893D01*
G37*
G36*
X2025451Y-30247893D02*
G01*
X2184829Y-30313909D01*
X2328266Y-30409751D01*
X2450249Y-30531734D01*
X2546091Y-30675171D01*
X2612107Y-30834549D01*
X2645763Y-31003745D01*
X2645763Y-31176255D01*
X2612107Y-31345451D01*
X2546091Y-31504829D01*
X2450249Y-31648266D01*
X2328266Y-31770249D01*
X2184829Y-31866091D01*
X2025451Y-31932107D01*
X1856255Y-31965763D01*
X1683745Y-31965763D01*
X1514549Y-31932107D01*
X1355171Y-31866091D01*
X1211734Y-31770249D01*
X1089751Y-31648266D01*
X993909Y-31504829D01*
X927893Y-31345451D01*
X894237Y-31176255D01*
X894237Y-31003745D01*
X927893Y-30834549D01*
X993909Y-30675171D01*
X1089751Y-30531734D01*
X1211734Y-30409751D01*
X1355171Y-30313909D01*
X1514549Y-30247893D01*
X1683745Y-30214237D01*
X1856255Y-30214237D01*
X2025451Y-30247893D01*
G37*
G36*
X59175451Y-30247893D02*
G01*
X59334829Y-30313909D01*
X59478266Y-30409751D01*
X59600249Y-30531734D01*
X59696091Y-30675171D01*
X59762107Y-30834549D01*
X59795763Y-31003745D01*
X59795763Y-31176255D01*
X59762107Y-31345451D01*
X59696091Y-31504829D01*
X59600249Y-31648266D01*
X59478266Y-31770249D01*
X59334829Y-31866091D01*
X59175451Y-31932107D01*
X59006255Y-31965763D01*
X58833745Y-31965763D01*
X58664549Y-31932107D01*
X58505171Y-31866091D01*
X58361734Y-31770249D01*
X58239751Y-31648266D01*
X58143909Y-31504829D01*
X58077893Y-31345451D01*
X58044237Y-31176255D01*
X58044237Y-31003745D01*
X58077893Y-30834549D01*
X58143909Y-30675171D01*
X58239751Y-30531734D01*
X58361734Y-30409751D01*
X58505171Y-30313909D01*
X58664549Y-30247893D01*
X58833745Y-30214237D01*
X59006255Y-30214237D01*
X59175451Y-30247893D01*
G37*
G36*
X2025451Y-27707893D02*
G01*
X2184829Y-27773909D01*
X2328266Y-27869751D01*
X2450249Y-27991734D01*
X2546091Y-28135171D01*
X2612107Y-28294549D01*
X2645763Y-28463745D01*
X2645763Y-28636255D01*
X2612107Y-28805451D01*
X2546091Y-28964829D01*
X2450249Y-29108266D01*
X2328266Y-29230249D01*
X2184829Y-29326091D01*
X2025451Y-29392107D01*
X1856255Y-29425763D01*
X1683745Y-29425763D01*
X1514549Y-29392107D01*
X1355171Y-29326091D01*
X1211734Y-29230249D01*
X1089751Y-29108266D01*
X993909Y-28964829D01*
X927893Y-28805451D01*
X894237Y-28636255D01*
X894237Y-28463745D01*
X927893Y-28294549D01*
X993909Y-28135171D01*
X1089751Y-27991734D01*
X1211734Y-27869751D01*
X1355171Y-27773909D01*
X1514549Y-27707893D01*
X1683745Y-27674237D01*
X1856255Y-27674237D01*
X2025451Y-27707893D01*
G37*
G36*
X59175451Y-27707893D02*
G01*
X59334829Y-27773909D01*
X59478266Y-27869751D01*
X59600249Y-27991734D01*
X59696091Y-28135171D01*
X59762107Y-28294549D01*
X59795763Y-28463745D01*
X59795763Y-28636255D01*
X59762107Y-28805451D01*
X59696091Y-28964829D01*
X59600249Y-29108266D01*
X59478266Y-29230249D01*
X59334829Y-29326091D01*
X59175451Y-29392107D01*
X59006255Y-29425763D01*
X58833745Y-29425763D01*
X58664549Y-29392107D01*
X58505171Y-29326091D01*
X58361734Y-29230249D01*
X58239751Y-29108266D01*
X58143909Y-28964829D01*
X58077893Y-28805451D01*
X58044237Y-28636255D01*
X58044237Y-28463745D01*
X58077893Y-28294549D01*
X58143909Y-28135171D01*
X58239751Y-27991734D01*
X58361734Y-27869751D01*
X58505171Y-27773909D01*
X58664549Y-27707893D01*
X58833745Y-27674237D01*
X59006255Y-27674237D01*
X59175451Y-27707893D01*
G37*
G36*
X2025451Y-25167893D02*
G01*
X2184829Y-25233909D01*
X2328266Y-25329751D01*
X2450249Y-25451734D01*
X2546091Y-25595171D01*
X2612107Y-25754549D01*
X2645763Y-25923745D01*
X2645763Y-26096255D01*
X2612107Y-26265451D01*
X2546091Y-26424829D01*
X2450249Y-26568266D01*
X2328266Y-26690249D01*
X2184829Y-26786091D01*
X2025451Y-26852107D01*
X1856255Y-26885763D01*
X1683745Y-26885763D01*
X1514549Y-26852107D01*
X1355171Y-26786091D01*
X1211734Y-26690249D01*
X1089751Y-26568266D01*
X993909Y-26424829D01*
X927893Y-26265451D01*
X894237Y-26096255D01*
X894237Y-25923745D01*
X927893Y-25754549D01*
X993909Y-25595171D01*
X1089751Y-25451734D01*
X1211734Y-25329751D01*
X1355171Y-25233909D01*
X1514549Y-25167893D01*
X1683745Y-25134237D01*
X1856255Y-25134237D01*
X2025451Y-25167893D01*
G37*
G36*
X59175451Y-25167893D02*
G01*
X59334829Y-25233909D01*
X59478266Y-25329751D01*
X59600249Y-25451734D01*
X59696091Y-25595171D01*
X59762107Y-25754549D01*
X59795763Y-25923745D01*
X59795763Y-26096255D01*
X59762107Y-26265451D01*
X59696091Y-26424829D01*
X59600249Y-26568266D01*
X59478266Y-26690249D01*
X59334829Y-26786091D01*
X59175451Y-26852107D01*
X59006255Y-26885763D01*
X58833745Y-26885763D01*
X58664549Y-26852107D01*
X58505171Y-26786091D01*
X58361734Y-26690249D01*
X58239751Y-26568266D01*
X58143909Y-26424829D01*
X58077893Y-26265451D01*
X58044237Y-26096255D01*
X58044237Y-25923745D01*
X58077893Y-25754549D01*
X58143909Y-25595171D01*
X58239751Y-25451734D01*
X58361734Y-25329751D01*
X58505171Y-25233909D01*
X58664549Y-25167893D01*
X58833745Y-25134237D01*
X59006255Y-25134237D01*
X59175451Y-25167893D01*
G37*
G36*
X2025451Y-22627893D02*
G01*
X2184829Y-22693909D01*
X2328266Y-22789751D01*
X2450249Y-22911734D01*
X2546091Y-23055171D01*
X2612107Y-23214549D01*
X2645763Y-23383745D01*
X2645763Y-23556255D01*
X2612107Y-23725451D01*
X2546091Y-23884829D01*
X2450249Y-24028266D01*
X2328266Y-24150249D01*
X2184829Y-24246091D01*
X2025451Y-24312107D01*
X1856255Y-24345763D01*
X1683745Y-24345763D01*
X1514549Y-24312107D01*
X1355171Y-24246091D01*
X1211734Y-24150249D01*
X1089751Y-24028266D01*
X993909Y-23884829D01*
X927893Y-23725451D01*
X894237Y-23556255D01*
X894237Y-23383745D01*
X927893Y-23214549D01*
X993909Y-23055171D01*
X1089751Y-22911734D01*
X1211734Y-22789751D01*
X1355171Y-22693909D01*
X1514549Y-22627893D01*
X1683745Y-22594237D01*
X1856255Y-22594237D01*
X2025451Y-22627893D01*
G37*
G36*
X59175451Y-22627893D02*
G01*
X59334829Y-22693909D01*
X59478266Y-22789751D01*
X59600249Y-22911734D01*
X59696091Y-23055171D01*
X59762107Y-23214549D01*
X59795763Y-23383745D01*
X59795763Y-23556255D01*
X59762107Y-23725451D01*
X59696091Y-23884829D01*
X59600249Y-24028266D01*
X59478266Y-24150249D01*
X59334829Y-24246091D01*
X59175451Y-24312107D01*
X59006255Y-24345763D01*
X58833745Y-24345763D01*
X58664549Y-24312107D01*
X58505171Y-24246091D01*
X58361734Y-24150249D01*
X58239751Y-24028266D01*
X58143909Y-23884829D01*
X58077893Y-23725451D01*
X58044237Y-23556255D01*
X58044237Y-23383745D01*
X58077893Y-23214549D01*
X58143909Y-23055171D01*
X58239751Y-22911734D01*
X58361734Y-22789751D01*
X58505171Y-22693909D01*
X58664549Y-22627893D01*
X58833745Y-22594237D01*
X59006255Y-22594237D01*
X59175451Y-22627893D01*
G37*
G36*
X2025451Y-20087893D02*
G01*
X2184829Y-20153909D01*
X2328266Y-20249751D01*
X2450249Y-20371734D01*
X2546091Y-20515171D01*
X2612107Y-20674549D01*
X2645763Y-20843745D01*
X2645763Y-21016255D01*
X2612107Y-21185451D01*
X2546091Y-21344829D01*
X2450249Y-21488266D01*
X2328266Y-21610249D01*
X2184829Y-21706091D01*
X2025451Y-21772107D01*
X1856255Y-21805763D01*
X1683745Y-21805763D01*
X1514549Y-21772107D01*
X1355171Y-21706091D01*
X1211734Y-21610249D01*
X1089751Y-21488266D01*
X993909Y-21344829D01*
X927893Y-21185451D01*
X894237Y-21016255D01*
X894237Y-20843745D01*
X927893Y-20674549D01*
X993909Y-20515171D01*
X1089751Y-20371734D01*
X1211734Y-20249751D01*
X1355171Y-20153909D01*
X1514549Y-20087893D01*
X1683745Y-20054237D01*
X1856255Y-20054237D01*
X2025451Y-20087893D01*
G37*
G36*
X59175451Y-20087893D02*
G01*
X59334829Y-20153909D01*
X59478266Y-20249751D01*
X59600249Y-20371734D01*
X59696091Y-20515171D01*
X59762107Y-20674549D01*
X59795763Y-20843745D01*
X59795763Y-21016255D01*
X59762107Y-21185451D01*
X59696091Y-21344829D01*
X59600249Y-21488266D01*
X59478266Y-21610249D01*
X59334829Y-21706091D01*
X59175451Y-21772107D01*
X59006255Y-21805763D01*
X58833745Y-21805763D01*
X58664549Y-21772107D01*
X58505171Y-21706091D01*
X58361734Y-21610249D01*
X58239751Y-21488266D01*
X58143909Y-21344829D01*
X58077893Y-21185451D01*
X58044237Y-21016255D01*
X58044237Y-20843745D01*
X58077893Y-20674549D01*
X58143909Y-20515171D01*
X58239751Y-20371734D01*
X58361734Y-20249751D01*
X58505171Y-20153909D01*
X58664549Y-20087893D01*
X58833745Y-20054237D01*
X59006255Y-20054237D01*
X59175451Y-20087893D01*
G37*
G36*
X2025451Y-17547893D02*
G01*
X2184829Y-17613909D01*
X2328266Y-17709751D01*
X2450249Y-17831734D01*
X2546091Y-17975171D01*
X2612107Y-18134549D01*
X2645763Y-18303745D01*
X2645763Y-18476255D01*
X2612107Y-18645451D01*
X2546091Y-18804829D01*
X2450249Y-18948266D01*
X2328266Y-19070249D01*
X2184829Y-19166091D01*
X2025451Y-19232107D01*
X1856255Y-19265763D01*
X1683745Y-19265763D01*
X1514549Y-19232107D01*
X1355171Y-19166091D01*
X1211734Y-19070249D01*
X1089751Y-18948266D01*
X993909Y-18804829D01*
X927893Y-18645451D01*
X894237Y-18476255D01*
X894237Y-18303745D01*
X927893Y-18134549D01*
X993909Y-17975171D01*
X1089751Y-17831734D01*
X1211734Y-17709751D01*
X1355171Y-17613909D01*
X1514549Y-17547893D01*
X1683745Y-17514237D01*
X1856255Y-17514237D01*
X2025451Y-17547893D01*
G37*
G36*
X59175451Y-17547893D02*
G01*
X59334829Y-17613909D01*
X59478266Y-17709751D01*
X59600249Y-17831734D01*
X59696091Y-17975171D01*
X59762107Y-18134549D01*
X59795763Y-18303745D01*
X59795763Y-18476255D01*
X59762107Y-18645451D01*
X59696091Y-18804829D01*
X59600249Y-18948266D01*
X59478266Y-19070249D01*
X59334829Y-19166091D01*
X59175451Y-19232107D01*
X59006255Y-19265763D01*
X58833745Y-19265763D01*
X58664549Y-19232107D01*
X58505171Y-19166091D01*
X58361734Y-19070249D01*
X58239751Y-18948266D01*
X58143909Y-18804829D01*
X58077893Y-18645451D01*
X58044237Y-18476255D01*
X58044237Y-18303745D01*
X58077893Y-18134549D01*
X58143909Y-17975171D01*
X58239751Y-17831734D01*
X58361734Y-17709751D01*
X58505171Y-17613909D01*
X58664549Y-17547893D01*
X58833745Y-17514237D01*
X59006255Y-17514237D01*
X59175451Y-17547893D01*
G37*
G36*
X2297394Y-11949281D02*
G01*
X2420550Y-12000294D01*
X2531387Y-12074353D01*
X2625647Y-12168613D01*
X2699706Y-12279450D01*
X2750719Y-12402606D01*
X2776726Y-12533348D01*
X2776726Y-12666652D01*
X2750719Y-12797394D01*
X2699706Y-12920550D01*
X2625647Y-13031387D01*
X2531387Y-13125647D01*
X2420550Y-13199706D01*
X2297394Y-13250719D01*
X2166652Y-13276726D01*
X2033348Y-13276726D01*
X1902606Y-13250719D01*
X1779450Y-13199706D01*
X1668613Y-13125647D01*
X1574353Y-13031387D01*
X1500294Y-12920550D01*
X1449281Y-12797394D01*
X1423274Y-12666652D01*
X1423274Y-12533348D01*
X1449281Y-12402606D01*
X1500294Y-12279450D01*
X1574353Y-12168613D01*
X1668613Y-12074353D01*
X1779450Y-12000294D01*
X1902606Y-11949281D01*
X2033348Y-11923274D01*
X2166652Y-11923274D01*
X2297394Y-11949281D01*
G37*
G36*
X58627394Y-11949281D02*
G01*
X58750550Y-12000294D01*
X58861387Y-12074353D01*
X58955647Y-12168613D01*
X59029706Y-12279450D01*
X59080719Y-12402606D01*
X59106726Y-12533348D01*
X59106726Y-12666652D01*
X59080719Y-12797394D01*
X59029706Y-12920550D01*
X58955647Y-13031387D01*
X58861387Y-13125647D01*
X58750550Y-13199706D01*
X58627394Y-13250719D01*
X58496652Y-13276726D01*
X58363348Y-13276726D01*
X58232606Y-13250719D01*
X58109450Y-13199706D01*
X57998613Y-13125647D01*
X57904353Y-13031387D01*
X57830294Y-12920550D01*
X57779281Y-12797394D01*
X57753274Y-12666652D01*
X57753274Y-12533348D01*
X57779281Y-12402606D01*
X57830294Y-12279450D01*
X57904353Y-12168613D01*
X57998613Y-12074353D01*
X58109450Y-12000294D01*
X58232606Y-11949281D01*
X58363348Y-11923274D01*
X58496652Y-11923274D01*
X58627394Y-11949281D01*
G37*
G36*
X4565451Y-9927893D02*
G01*
X4724829Y-9993909D01*
X4868266Y-10089751D01*
X4990249Y-10211734D01*
X5086091Y-10355171D01*
X5152107Y-10514549D01*
X5185763Y-10683745D01*
X5185763Y-10856255D01*
X5152107Y-11025451D01*
X5086091Y-11184829D01*
X4990249Y-11328266D01*
X4868266Y-11450249D01*
X4724829Y-11546091D01*
X4565451Y-11612107D01*
X4396255Y-11645763D01*
X4223745Y-11645763D01*
X4054549Y-11612107D01*
X3895171Y-11546091D01*
X3751734Y-11450249D01*
X3629751Y-11328266D01*
X3533909Y-11184829D01*
X3467893Y-11025451D01*
X3434237Y-10856255D01*
X3434237Y-10683745D01*
X3467893Y-10514549D01*
X3533909Y-10355171D01*
X3629751Y-10211734D01*
X3751734Y-10089751D01*
X3895171Y-9993909D01*
X4054549Y-9927893D01*
X4223745Y-9894237D01*
X4396255Y-9894237D01*
X4565451Y-9927893D01*
G37*
G36*
X7105451Y-9927893D02*
G01*
X7264829Y-9993909D01*
X7408266Y-10089751D01*
X7530249Y-10211734D01*
X7626091Y-10355171D01*
X7692107Y-10514549D01*
X7725763Y-10683745D01*
X7725763Y-10856255D01*
X7692107Y-11025451D01*
X7626091Y-11184829D01*
X7530249Y-11328266D01*
X7408266Y-11450249D01*
X7264829Y-11546091D01*
X7105451Y-11612107D01*
X6936255Y-11645763D01*
X6763745Y-11645763D01*
X6594549Y-11612107D01*
X6435171Y-11546091D01*
X6291734Y-11450249D01*
X6169751Y-11328266D01*
X6073909Y-11184829D01*
X6007893Y-11025451D01*
X5974237Y-10856255D01*
X5974237Y-10683745D01*
X6007893Y-10514549D01*
X6073909Y-10355171D01*
X6169751Y-10211734D01*
X6291734Y-10089751D01*
X6435171Y-9993909D01*
X6594549Y-9927893D01*
X6763745Y-9894237D01*
X6936255Y-9894237D01*
X7105451Y-9927893D01*
G37*
G36*
X9645451Y-9927893D02*
G01*
X9804829Y-9993909D01*
X9948266Y-10089751D01*
X10070249Y-10211734D01*
X10166091Y-10355171D01*
X10232107Y-10514549D01*
X10265763Y-10683745D01*
X10265763Y-10856255D01*
X10232107Y-11025451D01*
X10166091Y-11184829D01*
X10070249Y-11328266D01*
X9948266Y-11450249D01*
X9804829Y-11546091D01*
X9645451Y-11612107D01*
X9476255Y-11645763D01*
X9303745Y-11645763D01*
X9134549Y-11612107D01*
X8975171Y-11546091D01*
X8831734Y-11450249D01*
X8709751Y-11328266D01*
X8613909Y-11184829D01*
X8547893Y-11025451D01*
X8514237Y-10856255D01*
X8514237Y-10683745D01*
X8547893Y-10514549D01*
X8613909Y-10355171D01*
X8709751Y-10211734D01*
X8831734Y-10089751D01*
X8975171Y-9993909D01*
X9134549Y-9927893D01*
X9303745Y-9894237D01*
X9476255Y-9894237D01*
X9645451Y-9927893D01*
G37*
G36*
X12185451Y-9927893D02*
G01*
X12344829Y-9993909D01*
X12488266Y-10089751D01*
X12610249Y-10211734D01*
X12706091Y-10355171D01*
X12772107Y-10514549D01*
X12805763Y-10683745D01*
X12805763Y-10856255D01*
X12772107Y-11025451D01*
X12706091Y-11184829D01*
X12610249Y-11328266D01*
X12488266Y-11450249D01*
X12344829Y-11546091D01*
X12185451Y-11612107D01*
X12016255Y-11645763D01*
X11843745Y-11645763D01*
X11674549Y-11612107D01*
X11515171Y-11546091D01*
X11371734Y-11450249D01*
X11249751Y-11328266D01*
X11153909Y-11184829D01*
X11087893Y-11025451D01*
X11054237Y-10856255D01*
X11054237Y-10683745D01*
X11087893Y-10514549D01*
X11153909Y-10355171D01*
X11249751Y-10211734D01*
X11371734Y-10089751D01*
X11515171Y-9993909D01*
X11674549Y-9927893D01*
X11843745Y-9894237D01*
X12016255Y-9894237D01*
X12185451Y-9927893D01*
G37*
G36*
X14725451Y-9927893D02*
G01*
X14884829Y-9993909D01*
X15028266Y-10089751D01*
X15150249Y-10211734D01*
X15246091Y-10355171D01*
X15312107Y-10514549D01*
X15345763Y-10683745D01*
X15345763Y-10856255D01*
X15312107Y-11025451D01*
X15246091Y-11184829D01*
X15150249Y-11328266D01*
X15028266Y-11450249D01*
X14884829Y-11546091D01*
X14725451Y-11612107D01*
X14556255Y-11645763D01*
X14383745Y-11645763D01*
X14214549Y-11612107D01*
X14055171Y-11546091D01*
X13911734Y-11450249D01*
X13789751Y-11328266D01*
X13693909Y-11184829D01*
X13627893Y-11025451D01*
X13594237Y-10856255D01*
X13594237Y-10683745D01*
X13627893Y-10514549D01*
X13693909Y-10355171D01*
X13789751Y-10211734D01*
X13911734Y-10089751D01*
X14055171Y-9993909D01*
X14214549Y-9927893D01*
X14383745Y-9894237D01*
X14556255Y-9894237D01*
X14725451Y-9927893D01*
G37*
G36*
X17265451Y-9927893D02*
G01*
X17424829Y-9993909D01*
X17568266Y-10089751D01*
X17690249Y-10211734D01*
X17786091Y-10355171D01*
X17852107Y-10514549D01*
X17885763Y-10683745D01*
X17885763Y-10856255D01*
X17852107Y-11025451D01*
X17786091Y-11184829D01*
X17690249Y-11328266D01*
X17568266Y-11450249D01*
X17424829Y-11546091D01*
X17265451Y-11612107D01*
X17096255Y-11645763D01*
X16923745Y-11645763D01*
X16754549Y-11612107D01*
X16595171Y-11546091D01*
X16451734Y-11450249D01*
X16329751Y-11328266D01*
X16233909Y-11184829D01*
X16167893Y-11025451D01*
X16134237Y-10856255D01*
X16134237Y-10683745D01*
X16167893Y-10514549D01*
X16233909Y-10355171D01*
X16329751Y-10211734D01*
X16451734Y-10089751D01*
X16595171Y-9993909D01*
X16754549Y-9927893D01*
X16923745Y-9894237D01*
X17096255Y-9894237D01*
X17265451Y-9927893D01*
G37*
G36*
X19805451Y-9927893D02*
G01*
X19964829Y-9993909D01*
X20108266Y-10089751D01*
X20230249Y-10211734D01*
X20326091Y-10355171D01*
X20392107Y-10514549D01*
X20425763Y-10683745D01*
X20425763Y-10856255D01*
X20392107Y-11025451D01*
X20326091Y-11184829D01*
X20230249Y-11328266D01*
X20108266Y-11450249D01*
X19964829Y-11546091D01*
X19805451Y-11612107D01*
X19636255Y-11645763D01*
X19463745Y-11645763D01*
X19294549Y-11612107D01*
X19135171Y-11546091D01*
X18991734Y-11450249D01*
X18869751Y-11328266D01*
X18773909Y-11184829D01*
X18707893Y-11025451D01*
X18674237Y-10856255D01*
X18674237Y-10683745D01*
X18707893Y-10514549D01*
X18773909Y-10355171D01*
X18869751Y-10211734D01*
X18991734Y-10089751D01*
X19135171Y-9993909D01*
X19294549Y-9927893D01*
X19463745Y-9894237D01*
X19636255Y-9894237D01*
X19805451Y-9927893D01*
G37*
G36*
X22345451Y-9927893D02*
G01*
X22504829Y-9993909D01*
X22648266Y-10089751D01*
X22770249Y-10211734D01*
X22866091Y-10355171D01*
X22932107Y-10514549D01*
X22965763Y-10683745D01*
X22965763Y-10856255D01*
X22932107Y-11025451D01*
X22866091Y-11184829D01*
X22770249Y-11328266D01*
X22648266Y-11450249D01*
X22504829Y-11546091D01*
X22345451Y-11612107D01*
X22176255Y-11645763D01*
X22003745Y-11645763D01*
X21834549Y-11612107D01*
X21675171Y-11546091D01*
X21531734Y-11450249D01*
X21409751Y-11328266D01*
X21313909Y-11184829D01*
X21247893Y-11025451D01*
X21214237Y-10856255D01*
X21214237Y-10683745D01*
X21247893Y-10514549D01*
X21313909Y-10355171D01*
X21409751Y-10211734D01*
X21531734Y-10089751D01*
X21675171Y-9993909D01*
X21834549Y-9927893D01*
X22003745Y-9894237D01*
X22176255Y-9894237D01*
X22345451Y-9927893D01*
G37*
G36*
X29965451Y-9927893D02*
G01*
X30124829Y-9993909D01*
X30268266Y-10089751D01*
X30390249Y-10211734D01*
X30486091Y-10355171D01*
X30552107Y-10514549D01*
X30585763Y-10683745D01*
X30585763Y-10856255D01*
X30552107Y-11025451D01*
X30486091Y-11184829D01*
X30390249Y-11328266D01*
X30268266Y-11450249D01*
X30124829Y-11546091D01*
X29965451Y-11612107D01*
X29796255Y-11645763D01*
X29623745Y-11645763D01*
X29454549Y-11612107D01*
X29295171Y-11546091D01*
X29151734Y-11450249D01*
X29029751Y-11328266D01*
X28933909Y-11184829D01*
X28867893Y-11025451D01*
X28834237Y-10856255D01*
X28834237Y-10683745D01*
X28867893Y-10514549D01*
X28933909Y-10355171D01*
X29029751Y-10211734D01*
X29151734Y-10089751D01*
X29295171Y-9993909D01*
X29454549Y-9927893D01*
X29623745Y-9894237D01*
X29796255Y-9894237D01*
X29965451Y-9927893D01*
G37*
G36*
X32505451Y-9927893D02*
G01*
X32664829Y-9993909D01*
X32808266Y-10089751D01*
X32930249Y-10211734D01*
X33026091Y-10355171D01*
X33092107Y-10514549D01*
X33125763Y-10683745D01*
X33125763Y-10856255D01*
X33092107Y-11025451D01*
X33026091Y-11184829D01*
X32930249Y-11328266D01*
X32808266Y-11450249D01*
X32664829Y-11546091D01*
X32505451Y-11612107D01*
X32336255Y-11645763D01*
X32163745Y-11645763D01*
X31994549Y-11612107D01*
X31835171Y-11546091D01*
X31691734Y-11450249D01*
X31569751Y-11328266D01*
X31473909Y-11184829D01*
X31407893Y-11025451D01*
X31374237Y-10856255D01*
X31374237Y-10683745D01*
X31407893Y-10514549D01*
X31473909Y-10355171D01*
X31569751Y-10211734D01*
X31691734Y-10089751D01*
X31835171Y-9993909D01*
X31994549Y-9927893D01*
X32163745Y-9894237D01*
X32336255Y-9894237D01*
X32505451Y-9927893D01*
G37*
G36*
X38855451Y-9927893D02*
G01*
X39014829Y-9993909D01*
X39158266Y-10089751D01*
X39280249Y-10211734D01*
X39376091Y-10355171D01*
X39442107Y-10514549D01*
X39475763Y-10683745D01*
X39475763Y-10856255D01*
X39442107Y-11025451D01*
X39376091Y-11184829D01*
X39280249Y-11328266D01*
X39158266Y-11450249D01*
X39014829Y-11546091D01*
X38855451Y-11612107D01*
X38686255Y-11645763D01*
X38513745Y-11645763D01*
X38344549Y-11612107D01*
X38185171Y-11546091D01*
X38041734Y-11450249D01*
X37919751Y-11328266D01*
X37823909Y-11184829D01*
X37757893Y-11025451D01*
X37724237Y-10856255D01*
X37724237Y-10683745D01*
X37757893Y-10514549D01*
X37823909Y-10355171D01*
X37919751Y-10211734D01*
X38041734Y-10089751D01*
X38185171Y-9993909D01*
X38344549Y-9927893D01*
X38513745Y-9894237D01*
X38686255Y-9894237D01*
X38855451Y-9927893D01*
G37*
G36*
X41395451Y-9927893D02*
G01*
X41554829Y-9993909D01*
X41698266Y-10089751D01*
X41820249Y-10211734D01*
X41916091Y-10355171D01*
X41982107Y-10514549D01*
X42015763Y-10683745D01*
X42015763Y-10856255D01*
X41982107Y-11025451D01*
X41916091Y-11184829D01*
X41820249Y-11328266D01*
X41698266Y-11450249D01*
X41554829Y-11546091D01*
X41395451Y-11612107D01*
X41226255Y-11645763D01*
X41053745Y-11645763D01*
X40884549Y-11612107D01*
X40725171Y-11546091D01*
X40581734Y-11450249D01*
X40459751Y-11328266D01*
X40363909Y-11184829D01*
X40297893Y-11025451D01*
X40264237Y-10856255D01*
X40264237Y-10683745D01*
X40297893Y-10514549D01*
X40363909Y-10355171D01*
X40459751Y-10211734D01*
X40581734Y-10089751D01*
X40725171Y-9993909D01*
X40884549Y-9927893D01*
X41053745Y-9894237D01*
X41226255Y-9894237D01*
X41395451Y-9927893D01*
G37*
G36*
X43935451Y-9927893D02*
G01*
X44094829Y-9993909D01*
X44238266Y-10089751D01*
X44360249Y-10211734D01*
X44456091Y-10355171D01*
X44522107Y-10514549D01*
X44555763Y-10683745D01*
X44555763Y-10856255D01*
X44522107Y-11025451D01*
X44456091Y-11184829D01*
X44360249Y-11328266D01*
X44238266Y-11450249D01*
X44094829Y-11546091D01*
X43935451Y-11612107D01*
X43766255Y-11645763D01*
X43593745Y-11645763D01*
X43424549Y-11612107D01*
X43265171Y-11546091D01*
X43121734Y-11450249D01*
X42999751Y-11328266D01*
X42903909Y-11184829D01*
X42837893Y-11025451D01*
X42804237Y-10856255D01*
X42804237Y-10683745D01*
X42837893Y-10514549D01*
X42903909Y-10355171D01*
X42999751Y-10211734D01*
X43121734Y-10089751D01*
X43265171Y-9993909D01*
X43424549Y-9927893D01*
X43593745Y-9894237D01*
X43766255Y-9894237D01*
X43935451Y-9927893D01*
G37*
G36*
X46475451Y-9927893D02*
G01*
X46634829Y-9993909D01*
X46778266Y-10089751D01*
X46900249Y-10211734D01*
X46996091Y-10355171D01*
X47062107Y-10514549D01*
X47095763Y-10683745D01*
X47095763Y-10856255D01*
X47062107Y-11025451D01*
X46996091Y-11184829D01*
X46900249Y-11328266D01*
X46778266Y-11450249D01*
X46634829Y-11546091D01*
X46475451Y-11612107D01*
X46306255Y-11645763D01*
X46133745Y-11645763D01*
X45964549Y-11612107D01*
X45805171Y-11546091D01*
X45661734Y-11450249D01*
X45539751Y-11328266D01*
X45443909Y-11184829D01*
X45377893Y-11025451D01*
X45344237Y-10856255D01*
X45344237Y-10683745D01*
X45377893Y-10514549D01*
X45443909Y-10355171D01*
X45539751Y-10211734D01*
X45661734Y-10089751D01*
X45805171Y-9993909D01*
X45964549Y-9927893D01*
X46133745Y-9894237D01*
X46306255Y-9894237D01*
X46475451Y-9927893D01*
G37*
G36*
X49015451Y-9927893D02*
G01*
X49174829Y-9993909D01*
X49318266Y-10089751D01*
X49440249Y-10211734D01*
X49536091Y-10355171D01*
X49602107Y-10514549D01*
X49635763Y-10683745D01*
X49635763Y-10856255D01*
X49602107Y-11025451D01*
X49536091Y-11184829D01*
X49440249Y-11328266D01*
X49318266Y-11450249D01*
X49174829Y-11546091D01*
X49015451Y-11612107D01*
X48846255Y-11645763D01*
X48673745Y-11645763D01*
X48504549Y-11612107D01*
X48345171Y-11546091D01*
X48201734Y-11450249D01*
X48079751Y-11328266D01*
X47983909Y-11184829D01*
X47917893Y-11025451D01*
X47884237Y-10856255D01*
X47884237Y-10683745D01*
X47917893Y-10514549D01*
X47983909Y-10355171D01*
X48079751Y-10211734D01*
X48201734Y-10089751D01*
X48345171Y-9993909D01*
X48504549Y-9927893D01*
X48673745Y-9894237D01*
X48846255Y-9894237D01*
X49015451Y-9927893D01*
G37*
G36*
X51555451Y-9927893D02*
G01*
X51714829Y-9993909D01*
X51858266Y-10089751D01*
X51980249Y-10211734D01*
X52076091Y-10355171D01*
X52142107Y-10514549D01*
X52175763Y-10683745D01*
X52175763Y-10856255D01*
X52142107Y-11025451D01*
X52076091Y-11184829D01*
X51980249Y-11328266D01*
X51858266Y-11450249D01*
X51714829Y-11546091D01*
X51555451Y-11612107D01*
X51386255Y-11645763D01*
X51213745Y-11645763D01*
X51044549Y-11612107D01*
X50885171Y-11546091D01*
X50741734Y-11450249D01*
X50619751Y-11328266D01*
X50523909Y-11184829D01*
X50457893Y-11025451D01*
X50424237Y-10856255D01*
X50424237Y-10683745D01*
X50457893Y-10514549D01*
X50523909Y-10355171D01*
X50619751Y-10211734D01*
X50741734Y-10089751D01*
X50885171Y-9993909D01*
X51044549Y-9927893D01*
X51213745Y-9894237D01*
X51386255Y-9894237D01*
X51555451Y-9927893D01*
G37*
G36*
X54095451Y-9927893D02*
G01*
X54254829Y-9993909D01*
X54398266Y-10089751D01*
X54520249Y-10211734D01*
X54616091Y-10355171D01*
X54682107Y-10514549D01*
X54715763Y-10683745D01*
X54715763Y-10856255D01*
X54682107Y-11025451D01*
X54616091Y-11184829D01*
X54520249Y-11328266D01*
X54398266Y-11450249D01*
X54254829Y-11546091D01*
X54095451Y-11612107D01*
X53926255Y-11645763D01*
X53753745Y-11645763D01*
X53584549Y-11612107D01*
X53425171Y-11546091D01*
X53281734Y-11450249D01*
X53159751Y-11328266D01*
X53063909Y-11184829D01*
X52997893Y-11025451D01*
X52964237Y-10856255D01*
X52964237Y-10683745D01*
X52997893Y-10514549D01*
X53063909Y-10355171D01*
X53159751Y-10211734D01*
X53281734Y-10089751D01*
X53425171Y-9993909D01*
X53584549Y-9927893D01*
X53753745Y-9894237D01*
X53926255Y-9894237D01*
X54095451Y-9927893D01*
G37*
G36*
X56635451Y-9927893D02*
G01*
X56794829Y-9993909D01*
X56938266Y-10089751D01*
X57060249Y-10211734D01*
X57156091Y-10355171D01*
X57222107Y-10514549D01*
X57255763Y-10683745D01*
X57255763Y-10856255D01*
X57222107Y-11025451D01*
X57156091Y-11184829D01*
X57060249Y-11328266D01*
X56938266Y-11450249D01*
X56794829Y-11546091D01*
X56635451Y-11612107D01*
X56466255Y-11645763D01*
X56293745Y-11645763D01*
X56124549Y-11612107D01*
X55965171Y-11546091D01*
X55821734Y-11450249D01*
X55699751Y-11328266D01*
X55603909Y-11184829D01*
X55537893Y-11025451D01*
X55504237Y-10856255D01*
X55504237Y-10683745D01*
X55537893Y-10514549D01*
X55603909Y-10355171D01*
X55699751Y-10211734D01*
X55821734Y-10089751D01*
X55965171Y-9993909D01*
X56124549Y-9927893D01*
X56293745Y-9894237D01*
X56466255Y-9894237D01*
X56635451Y-9927893D01*
G37*
M02*
