%TF.GenerationSoftware,KiCad,Pcbnew,10.0.4*%
%TF.CreationDate,2026-08-22T16:44:21+02:00*%
%TF.ProjectId,KoloredVerb.core,4b6f6c6f-7265-4645-9665-72622e636f72,rev?*%
%TF.SameCoordinates,Original*%
%TF.FileFunction,Legend,Top*%
%TF.FilePolarity,Positive*%
%FSLAX46Y46*%
G04 Gerber Fmt 4.6, Leading zero omitted, Abs format (unit mm)*
G04 Created by KiCad (PCBNEW 10.0.4) date 2026-08-22 16:44:21*
%MOMM*%
%LPD*%
G01*
G04 APERTURE LIST*
%ADD10C,0.150000*%
%ADD11C,0.120000*%
%ADD12C,0.010000*%
G04 APERTURE END LIST*
D10*
X2786000Y-40234000D02*
X4056000Y-40234000D01*
X2786000Y-45314000D02*
X4056000Y-45314000D01*
X4056000Y-40234000D02*
X4056000Y-41504000D01*
X4056000Y-43536000D02*
X4056000Y-44806000D01*
X4056000Y-44806000D02*
X2786000Y-44806000D01*
X4056000Y-45314000D02*
X4056000Y-46584000D01*
X4056000Y-48362000D02*
X4056000Y-49886000D01*
X4056000Y-49886000D02*
X2786000Y-49886000D01*
X28694000Y-11913000D02*
X28694000Y-12675000D01*
X28694000Y-12675000D02*
X29583000Y-12675000D01*
X32377000Y-12675000D02*
X33139000Y-12675000D01*
X33139000Y-12675000D02*
X33139000Y-11913000D01*
X35933000Y-97130000D02*
X35933000Y-98146000D01*
X35933000Y-98146000D02*
X37965000Y-98146000D01*
X35933000Y-98654000D02*
X35933000Y-99670000D01*
X35933000Y-99670000D02*
X37965000Y-99670000D01*
X36187000Y-98908000D02*
X36187000Y-99416000D01*
X36187000Y-99416000D02*
X37203000Y-99416000D01*
X36695000Y-97384000D02*
X36695000Y-97892000D01*
X36695000Y-97892000D02*
X37711000Y-97892000D01*
X37203000Y-98908000D02*
X36187000Y-98908000D01*
X37203000Y-99416000D02*
X37203000Y-98908000D01*
X37711000Y-97384000D02*
X36695000Y-97384000D01*
X37711000Y-97892000D02*
X37711000Y-97384000D01*
X37965000Y-97130000D02*
X35933000Y-97130000D01*
X37965000Y-98146000D02*
X37965000Y-97130000D01*
X37965000Y-98654000D02*
X35933000Y-98654000D01*
X37965000Y-99670000D02*
X37965000Y-98654000D01*
X42791000Y-97130000D02*
X43045000Y-97130000D01*
X43045000Y-97130000D02*
X43045000Y-99670000D01*
X43045000Y-99670000D02*
X42791000Y-99670000D01*
X52189000Y-76302000D02*
X52189000Y-81128000D01*
X52189000Y-81128000D02*
X54221000Y-81128000D01*
X52443000Y-76556000D02*
X52443000Y-77064000D01*
X52443000Y-77064000D02*
X53459000Y-77064000D01*
X52443000Y-77318000D02*
X52443000Y-77826000D01*
X52443000Y-77826000D02*
X53459000Y-77826000D01*
X52443000Y-78080000D02*
X52443000Y-78588000D01*
X52443000Y-78588000D02*
X53459000Y-78588000D01*
X52443000Y-78842000D02*
X52443000Y-79350000D01*
X52443000Y-79350000D02*
X53459000Y-79350000D01*
X52443000Y-79604000D02*
X52443000Y-80112000D01*
X52443000Y-80112000D02*
X53459000Y-80112000D01*
X52443000Y-80366000D02*
X52443000Y-80874000D01*
X52443000Y-80874000D02*
X53459000Y-80874000D01*
X53459000Y-76556000D02*
X52443000Y-76556000D01*
X53459000Y-77064000D02*
X53459000Y-76556000D01*
X53459000Y-77318000D02*
X52443000Y-77318000D01*
X53459000Y-77826000D02*
X53459000Y-77318000D01*
X53459000Y-78080000D02*
X52443000Y-78080000D01*
X53459000Y-78588000D02*
X53459000Y-78080000D01*
X53459000Y-78842000D02*
X52443000Y-78842000D01*
X53459000Y-79350000D02*
X53459000Y-78842000D01*
X53459000Y-79604000D02*
X52443000Y-79604000D01*
X53459000Y-80112000D02*
X53459000Y-79604000D01*
X53459000Y-80366000D02*
X52443000Y-80366000D01*
X53459000Y-80874000D02*
X53459000Y-80366000D01*
X54221000Y-59792000D02*
X54221000Y-72238000D01*
X54221000Y-72238000D02*
X55872000Y-72238000D01*
X54221000Y-76302000D02*
X52189000Y-76302000D01*
X54221000Y-81128000D02*
X54221000Y-76302000D01*
X55110000Y-59030000D02*
X55872000Y-59030000D01*
X56253000Y-76302000D02*
X56253000Y-81128000D01*
X56253000Y-81128000D02*
X58285000Y-81128000D01*
X57015000Y-76556000D02*
X57015000Y-77064000D01*
X57015000Y-77064000D02*
X58031000Y-77064000D01*
X57015000Y-77318000D02*
X57015000Y-77826000D01*
X57015000Y-77826000D02*
X58031000Y-77826000D01*
X57015000Y-78080000D02*
X57015000Y-78588000D01*
X57015000Y-78588000D02*
X58031000Y-78588000D01*
X57015000Y-78842000D02*
X57015000Y-79350000D01*
X57015000Y-79350000D02*
X58031000Y-79350000D01*
X57015000Y-79604000D02*
X57015000Y-80112000D01*
X57015000Y-80112000D02*
X58031000Y-80112000D01*
X57015000Y-80366000D02*
X57015000Y-80874000D01*
X57015000Y-80874000D02*
X58031000Y-80874000D01*
X58031000Y-76556000D02*
X57015000Y-76556000D01*
X58031000Y-77064000D02*
X58031000Y-76556000D01*
X58031000Y-77318000D02*
X57015000Y-77318000D01*
X58031000Y-77826000D02*
X58031000Y-77318000D01*
X58031000Y-78080000D02*
X57015000Y-78080000D01*
X58031000Y-78588000D02*
X58031000Y-78080000D01*
X58031000Y-78842000D02*
X57015000Y-78842000D01*
X58031000Y-79350000D02*
X58031000Y-78842000D01*
X58031000Y-79604000D02*
X57015000Y-79604000D01*
X58031000Y-80112000D02*
X58031000Y-79604000D01*
X58031000Y-80366000D02*
X57015000Y-80366000D01*
X58031000Y-80874000D02*
X58031000Y-80366000D01*
X58285000Y-76302000D02*
X56253000Y-76302000D01*
X58285000Y-81128000D02*
X58285000Y-76302000D01*
X3252969Y-41974819D02*
X3748207Y-41974819D01*
X3748207Y-41974819D02*
X3481541Y-42355771D01*
X3481541Y-42355771D02*
X3595826Y-42355771D01*
X3595826Y-42355771D02*
X3672017Y-42403390D01*
X3672017Y-42403390D02*
X3710112Y-42451009D01*
X3710112Y-42451009D02*
X3748207Y-42546247D01*
X3748207Y-42546247D02*
X3748207Y-42784342D01*
X3748207Y-42784342D02*
X3710112Y-42879580D01*
X3710112Y-42879580D02*
X3672017Y-42927200D01*
X3672017Y-42927200D02*
X3595826Y-42974819D01*
X3595826Y-42974819D02*
X3367255Y-42974819D01*
X3367255Y-42974819D02*
X3291064Y-42927200D01*
X3291064Y-42927200D02*
X3252969Y-42879580D01*
X3976779Y-41974819D02*
X4243446Y-42974819D01*
X4243446Y-42974819D02*
X4510112Y-41974819D01*
X4700588Y-41974819D02*
X5195826Y-41974819D01*
X5195826Y-41974819D02*
X4929160Y-42355771D01*
X4929160Y-42355771D02*
X5043445Y-42355771D01*
X5043445Y-42355771D02*
X5119636Y-42403390D01*
X5119636Y-42403390D02*
X5157731Y-42451009D01*
X5157731Y-42451009D02*
X5195826Y-42546247D01*
X5195826Y-42546247D02*
X5195826Y-42784342D01*
X5195826Y-42784342D02*
X5157731Y-42879580D01*
X5157731Y-42879580D02*
X5119636Y-42927200D01*
X5119636Y-42927200D02*
X5043445Y-42974819D01*
X5043445Y-42974819D02*
X4814874Y-42974819D01*
X4814874Y-42974819D02*
X4738683Y-42927200D01*
X4738683Y-42927200D02*
X4700588Y-42879580D01*
X3748207Y-47102438D02*
X3672017Y-47054819D01*
X3672017Y-47054819D02*
X3557731Y-47054819D01*
X3557731Y-47054819D02*
X3443445Y-47102438D01*
X3443445Y-47102438D02*
X3367255Y-47197676D01*
X3367255Y-47197676D02*
X3329160Y-47292914D01*
X3329160Y-47292914D02*
X3291064Y-47483390D01*
X3291064Y-47483390D02*
X3291064Y-47626247D01*
X3291064Y-47626247D02*
X3329160Y-47816723D01*
X3329160Y-47816723D02*
X3367255Y-47911961D01*
X3367255Y-47911961D02*
X3443445Y-48007200D01*
X3443445Y-48007200D02*
X3557731Y-48054819D01*
X3557731Y-48054819D02*
X3633922Y-48054819D01*
X3633922Y-48054819D02*
X3748207Y-48007200D01*
X3748207Y-48007200D02*
X3786303Y-47959580D01*
X3786303Y-47959580D02*
X3786303Y-47626247D01*
X3786303Y-47626247D02*
X3633922Y-47626247D01*
X4129160Y-48054819D02*
X4129160Y-47054819D01*
X4129160Y-47054819D02*
X4586303Y-48054819D01*
X4586303Y-48054819D02*
X4586303Y-47054819D01*
X4967255Y-48054819D02*
X4967255Y-47054819D01*
X4967255Y-47054819D02*
X5157731Y-47054819D01*
X5157731Y-47054819D02*
X5272017Y-47102438D01*
X5272017Y-47102438D02*
X5348207Y-47197676D01*
X5348207Y-47197676D02*
X5386302Y-47292914D01*
X5386302Y-47292914D02*
X5424398Y-47483390D01*
X5424398Y-47483390D02*
X5424398Y-47626247D01*
X5424398Y-47626247D02*
X5386302Y-47816723D01*
X5386302Y-47816723D02*
X5348207Y-47911961D01*
X5348207Y-47911961D02*
X5272017Y-48007200D01*
X5272017Y-48007200D02*
X5157731Y-48054819D01*
X5157731Y-48054819D02*
X4967255Y-48054819D01*
X3389160Y-95044819D02*
X3389160Y-94044819D01*
X3389160Y-94044819D02*
X3846303Y-95044819D01*
X3846303Y-95044819D02*
X3846303Y-94044819D01*
X4227255Y-95044819D02*
X4227255Y-94044819D01*
X4227255Y-94044819D02*
X4532017Y-94044819D01*
X4532017Y-94044819D02*
X4608207Y-94092438D01*
X4608207Y-94092438D02*
X4646302Y-94140057D01*
X4646302Y-94140057D02*
X4684398Y-94235295D01*
X4684398Y-94235295D02*
X4684398Y-94378152D01*
X4684398Y-94378152D02*
X4646302Y-94473390D01*
X4646302Y-94473390D02*
X4608207Y-94521009D01*
X4608207Y-94521009D02*
X4532017Y-94568628D01*
X4532017Y-94568628D02*
X4227255Y-94568628D01*
X5484398Y-95044819D02*
X5217731Y-94568628D01*
X5027255Y-95044819D02*
X5027255Y-94044819D01*
X5027255Y-94044819D02*
X5332017Y-94044819D01*
X5332017Y-94044819D02*
X5408207Y-94092438D01*
X5408207Y-94092438D02*
X5446302Y-94140057D01*
X5446302Y-94140057D02*
X5484398Y-94235295D01*
X5484398Y-94235295D02*
X5484398Y-94378152D01*
X5484398Y-94378152D02*
X5446302Y-94473390D01*
X5446302Y-94473390D02*
X5408207Y-94521009D01*
X5408207Y-94521009D02*
X5332017Y-94568628D01*
X5332017Y-94568628D02*
X5027255Y-94568628D01*
X3808207Y-96632438D02*
X3732017Y-96584819D01*
X3732017Y-96584819D02*
X3617731Y-96584819D01*
X3617731Y-96584819D02*
X3503445Y-96632438D01*
X3503445Y-96632438D02*
X3427255Y-96727676D01*
X3427255Y-96727676D02*
X3389160Y-96822914D01*
X3389160Y-96822914D02*
X3351064Y-97013390D01*
X3351064Y-97013390D02*
X3351064Y-97156247D01*
X3351064Y-97156247D02*
X3389160Y-97346723D01*
X3389160Y-97346723D02*
X3427255Y-97441961D01*
X3427255Y-97441961D02*
X3503445Y-97537200D01*
X3503445Y-97537200D02*
X3617731Y-97584819D01*
X3617731Y-97584819D02*
X3693922Y-97584819D01*
X3693922Y-97584819D02*
X3808207Y-97537200D01*
X3808207Y-97537200D02*
X3846303Y-97489580D01*
X3846303Y-97489580D02*
X3846303Y-97156247D01*
X3846303Y-97156247D02*
X3693922Y-97156247D01*
X4189160Y-97584819D02*
X4189160Y-96584819D01*
X4189160Y-96584819D02*
X4646303Y-97584819D01*
X4646303Y-97584819D02*
X4646303Y-96584819D01*
X5027255Y-97584819D02*
X5027255Y-96584819D01*
X5027255Y-96584819D02*
X5217731Y-96584819D01*
X5217731Y-96584819D02*
X5332017Y-96632438D01*
X5332017Y-96632438D02*
X5408207Y-96727676D01*
X5408207Y-96727676D02*
X5446302Y-96822914D01*
X5446302Y-96822914D02*
X5484398Y-97013390D01*
X5484398Y-97013390D02*
X5484398Y-97156247D01*
X5484398Y-97156247D02*
X5446302Y-97346723D01*
X5446302Y-97346723D02*
X5408207Y-97441961D01*
X5408207Y-97441961D02*
X5332017Y-97537200D01*
X5332017Y-97537200D02*
X5217731Y-97584819D01*
X5217731Y-97584819D02*
X5027255Y-97584819D01*
X3846303Y-100029580D02*
X3808207Y-100077200D01*
X3808207Y-100077200D02*
X3693922Y-100124819D01*
X3693922Y-100124819D02*
X3617731Y-100124819D01*
X3617731Y-100124819D02*
X3503445Y-100077200D01*
X3503445Y-100077200D02*
X3427255Y-99981961D01*
X3427255Y-99981961D02*
X3389160Y-99886723D01*
X3389160Y-99886723D02*
X3351064Y-99696247D01*
X3351064Y-99696247D02*
X3351064Y-99553390D01*
X3351064Y-99553390D02*
X3389160Y-99362914D01*
X3389160Y-99362914D02*
X3427255Y-99267676D01*
X3427255Y-99267676D02*
X3503445Y-99172438D01*
X3503445Y-99172438D02*
X3617731Y-99124819D01*
X3617731Y-99124819D02*
X3693922Y-99124819D01*
X3693922Y-99124819D02*
X3808207Y-99172438D01*
X3808207Y-99172438D02*
X3846303Y-99220057D01*
X4341541Y-99124819D02*
X4493922Y-99124819D01*
X4493922Y-99124819D02*
X4570112Y-99172438D01*
X4570112Y-99172438D02*
X4646303Y-99267676D01*
X4646303Y-99267676D02*
X4684398Y-99458152D01*
X4684398Y-99458152D02*
X4684398Y-99791485D01*
X4684398Y-99791485D02*
X4646303Y-99981961D01*
X4646303Y-99981961D02*
X4570112Y-100077200D01*
X4570112Y-100077200D02*
X4493922Y-100124819D01*
X4493922Y-100124819D02*
X4341541Y-100124819D01*
X4341541Y-100124819D02*
X4265350Y-100077200D01*
X4265350Y-100077200D02*
X4189160Y-99981961D01*
X4189160Y-99981961D02*
X4151064Y-99791485D01*
X4151064Y-99791485D02*
X4151064Y-99458152D01*
X4151064Y-99458152D02*
X4189160Y-99267676D01*
X4189160Y-99267676D02*
X4265350Y-99172438D01*
X4265350Y-99172438D02*
X4341541Y-99124819D01*
X5446302Y-100124819D02*
X4989159Y-100124819D01*
X5217731Y-100124819D02*
X5217731Y-99124819D01*
X5217731Y-99124819D02*
X5141540Y-99267676D01*
X5141540Y-99267676D02*
X5065350Y-99362914D01*
X5065350Y-99362914D02*
X4989159Y-99410533D01*
X3846303Y-102569580D02*
X3808207Y-102617200D01*
X3808207Y-102617200D02*
X3693922Y-102664819D01*
X3693922Y-102664819D02*
X3617731Y-102664819D01*
X3617731Y-102664819D02*
X3503445Y-102617200D01*
X3503445Y-102617200D02*
X3427255Y-102521961D01*
X3427255Y-102521961D02*
X3389160Y-102426723D01*
X3389160Y-102426723D02*
X3351064Y-102236247D01*
X3351064Y-102236247D02*
X3351064Y-102093390D01*
X3351064Y-102093390D02*
X3389160Y-101902914D01*
X3389160Y-101902914D02*
X3427255Y-101807676D01*
X3427255Y-101807676D02*
X3503445Y-101712438D01*
X3503445Y-101712438D02*
X3617731Y-101664819D01*
X3617731Y-101664819D02*
X3693922Y-101664819D01*
X3693922Y-101664819D02*
X3808207Y-101712438D01*
X3808207Y-101712438D02*
X3846303Y-101760057D01*
X4341541Y-101664819D02*
X4493922Y-101664819D01*
X4493922Y-101664819D02*
X4570112Y-101712438D01*
X4570112Y-101712438D02*
X4646303Y-101807676D01*
X4646303Y-101807676D02*
X4684398Y-101998152D01*
X4684398Y-101998152D02*
X4684398Y-102331485D01*
X4684398Y-102331485D02*
X4646303Y-102521961D01*
X4646303Y-102521961D02*
X4570112Y-102617200D01*
X4570112Y-102617200D02*
X4493922Y-102664819D01*
X4493922Y-102664819D02*
X4341541Y-102664819D01*
X4341541Y-102664819D02*
X4265350Y-102617200D01*
X4265350Y-102617200D02*
X4189160Y-102521961D01*
X4189160Y-102521961D02*
X4151064Y-102331485D01*
X4151064Y-102331485D02*
X4151064Y-101998152D01*
X4151064Y-101998152D02*
X4189160Y-101807676D01*
X4189160Y-101807676D02*
X4265350Y-101712438D01*
X4265350Y-101712438D02*
X4341541Y-101664819D01*
X4989159Y-101760057D02*
X5027255Y-101712438D01*
X5027255Y-101712438D02*
X5103445Y-101664819D01*
X5103445Y-101664819D02*
X5293921Y-101664819D01*
X5293921Y-101664819D02*
X5370112Y-101712438D01*
X5370112Y-101712438D02*
X5408207Y-101760057D01*
X5408207Y-101760057D02*
X5446302Y-101855295D01*
X5446302Y-101855295D02*
X5446302Y-101950533D01*
X5446302Y-101950533D02*
X5408207Y-102093390D01*
X5408207Y-102093390D02*
X4951064Y-102664819D01*
X4951064Y-102664819D02*
X5446302Y-102664819D01*
X3351064Y-104919104D02*
X3732017Y-104919104D01*
X3274874Y-105204819D02*
X3541541Y-104204819D01*
X3541541Y-104204819D02*
X3808207Y-105204819D01*
X4227255Y-104204819D02*
X4379636Y-104204819D01*
X4379636Y-104204819D02*
X4455826Y-104252438D01*
X4455826Y-104252438D02*
X4532017Y-104347676D01*
X4532017Y-104347676D02*
X4570112Y-104538152D01*
X4570112Y-104538152D02*
X4570112Y-104871485D01*
X4570112Y-104871485D02*
X4532017Y-105061961D01*
X4532017Y-105061961D02*
X4455826Y-105157200D01*
X4455826Y-105157200D02*
X4379636Y-105204819D01*
X4379636Y-105204819D02*
X4227255Y-105204819D01*
X4227255Y-105204819D02*
X4151064Y-105157200D01*
X4151064Y-105157200D02*
X4074874Y-105061961D01*
X4074874Y-105061961D02*
X4036778Y-104871485D01*
X4036778Y-104871485D02*
X4036778Y-104538152D01*
X4036778Y-104538152D02*
X4074874Y-104347676D01*
X4074874Y-104347676D02*
X4151064Y-104252438D01*
X4151064Y-104252438D02*
X4227255Y-104204819D01*
X4874873Y-104300057D02*
X4912969Y-104252438D01*
X4912969Y-104252438D02*
X4989159Y-104204819D01*
X4989159Y-104204819D02*
X5179635Y-104204819D01*
X5179635Y-104204819D02*
X5255826Y-104252438D01*
X5255826Y-104252438D02*
X5293921Y-104300057D01*
X5293921Y-104300057D02*
X5332016Y-104395295D01*
X5332016Y-104395295D02*
X5332016Y-104490533D01*
X5332016Y-104490533D02*
X5293921Y-104633390D01*
X5293921Y-104633390D02*
X4836778Y-105204819D01*
X4836778Y-105204819D02*
X5332016Y-105204819D01*
X3351064Y-107459104D02*
X3732017Y-107459104D01*
X3274874Y-107744819D02*
X3541541Y-106744819D01*
X3541541Y-106744819D02*
X3808207Y-107744819D01*
X4227255Y-106744819D02*
X4379636Y-106744819D01*
X4379636Y-106744819D02*
X4455826Y-106792438D01*
X4455826Y-106792438D02*
X4532017Y-106887676D01*
X4532017Y-106887676D02*
X4570112Y-107078152D01*
X4570112Y-107078152D02*
X4570112Y-107411485D01*
X4570112Y-107411485D02*
X4532017Y-107601961D01*
X4532017Y-107601961D02*
X4455826Y-107697200D01*
X4455826Y-107697200D02*
X4379636Y-107744819D01*
X4379636Y-107744819D02*
X4227255Y-107744819D01*
X4227255Y-107744819D02*
X4151064Y-107697200D01*
X4151064Y-107697200D02*
X4074874Y-107601961D01*
X4074874Y-107601961D02*
X4036778Y-107411485D01*
X4036778Y-107411485D02*
X4036778Y-107078152D01*
X4036778Y-107078152D02*
X4074874Y-106887676D01*
X4074874Y-106887676D02*
X4151064Y-106792438D01*
X4151064Y-106792438D02*
X4227255Y-106744819D01*
X5332016Y-107744819D02*
X4874873Y-107744819D01*
X5103445Y-107744819D02*
X5103445Y-106744819D01*
X5103445Y-106744819D02*
X5027254Y-106887676D01*
X5027254Y-106887676D02*
X4951064Y-106982914D01*
X4951064Y-106982914D02*
X4874873Y-107030533D01*
X3351064Y-109999104D02*
X3732017Y-109999104D01*
X3274874Y-110284819D02*
X3541541Y-109284819D01*
X3541541Y-109284819D02*
X3808207Y-110284819D01*
X4074874Y-110284819D02*
X4074874Y-109284819D01*
X4417730Y-109380057D02*
X4455826Y-109332438D01*
X4455826Y-109332438D02*
X4532016Y-109284819D01*
X4532016Y-109284819D02*
X4722492Y-109284819D01*
X4722492Y-109284819D02*
X4798683Y-109332438D01*
X4798683Y-109332438D02*
X4836778Y-109380057D01*
X4836778Y-109380057D02*
X4874873Y-109475295D01*
X4874873Y-109475295D02*
X4874873Y-109570533D01*
X4874873Y-109570533D02*
X4836778Y-109713390D01*
X4836778Y-109713390D02*
X4379635Y-110284819D01*
X4379635Y-110284819D02*
X4874873Y-110284819D01*
X3351064Y-112539104D02*
X3732017Y-112539104D01*
X3274874Y-112824819D02*
X3541541Y-111824819D01*
X3541541Y-111824819D02*
X3808207Y-112824819D01*
X4074874Y-112824819D02*
X4074874Y-111824819D01*
X4874873Y-112824819D02*
X4417730Y-112824819D01*
X4646302Y-112824819D02*
X4646302Y-111824819D01*
X4646302Y-111824819D02*
X4570111Y-111967676D01*
X4570111Y-111967676D02*
X4493921Y-112062914D01*
X4493921Y-112062914D02*
X4417730Y-112110533D01*
X3808207Y-114412438D02*
X3732017Y-114364819D01*
X3732017Y-114364819D02*
X3617731Y-114364819D01*
X3617731Y-114364819D02*
X3503445Y-114412438D01*
X3503445Y-114412438D02*
X3427255Y-114507676D01*
X3427255Y-114507676D02*
X3389160Y-114602914D01*
X3389160Y-114602914D02*
X3351064Y-114793390D01*
X3351064Y-114793390D02*
X3351064Y-114936247D01*
X3351064Y-114936247D02*
X3389160Y-115126723D01*
X3389160Y-115126723D02*
X3427255Y-115221961D01*
X3427255Y-115221961D02*
X3503445Y-115317200D01*
X3503445Y-115317200D02*
X3617731Y-115364819D01*
X3617731Y-115364819D02*
X3693922Y-115364819D01*
X3693922Y-115364819D02*
X3808207Y-115317200D01*
X3808207Y-115317200D02*
X3846303Y-115269580D01*
X3846303Y-115269580D02*
X3846303Y-114936247D01*
X3846303Y-114936247D02*
X3693922Y-114936247D01*
X4341541Y-114364819D02*
X4493922Y-114364819D01*
X4493922Y-114364819D02*
X4570112Y-114412438D01*
X4570112Y-114412438D02*
X4646303Y-114507676D01*
X4646303Y-114507676D02*
X4684398Y-114698152D01*
X4684398Y-114698152D02*
X4684398Y-115031485D01*
X4684398Y-115031485D02*
X4646303Y-115221961D01*
X4646303Y-115221961D02*
X4570112Y-115317200D01*
X4570112Y-115317200D02*
X4493922Y-115364819D01*
X4493922Y-115364819D02*
X4341541Y-115364819D01*
X4341541Y-115364819D02*
X4265350Y-115317200D01*
X4265350Y-115317200D02*
X4189160Y-115221961D01*
X4189160Y-115221961D02*
X4151064Y-115031485D01*
X4151064Y-115031485D02*
X4151064Y-114698152D01*
X4151064Y-114698152D02*
X4189160Y-114507676D01*
X4189160Y-114507676D02*
X4265350Y-114412438D01*
X4265350Y-114412438D02*
X4341541Y-114364819D01*
X5446302Y-115364819D02*
X4989159Y-115364819D01*
X5217731Y-115364819D02*
X5217731Y-114364819D01*
X5217731Y-114364819D02*
X5141540Y-114507676D01*
X5141540Y-114507676D02*
X5065350Y-114602914D01*
X5065350Y-114602914D02*
X4989159Y-114650533D01*
X3808207Y-116952438D02*
X3732017Y-116904819D01*
X3732017Y-116904819D02*
X3617731Y-116904819D01*
X3617731Y-116904819D02*
X3503445Y-116952438D01*
X3503445Y-116952438D02*
X3427255Y-117047676D01*
X3427255Y-117047676D02*
X3389160Y-117142914D01*
X3389160Y-117142914D02*
X3351064Y-117333390D01*
X3351064Y-117333390D02*
X3351064Y-117476247D01*
X3351064Y-117476247D02*
X3389160Y-117666723D01*
X3389160Y-117666723D02*
X3427255Y-117761961D01*
X3427255Y-117761961D02*
X3503445Y-117857200D01*
X3503445Y-117857200D02*
X3617731Y-117904819D01*
X3617731Y-117904819D02*
X3693922Y-117904819D01*
X3693922Y-117904819D02*
X3808207Y-117857200D01*
X3808207Y-117857200D02*
X3846303Y-117809580D01*
X3846303Y-117809580D02*
X3846303Y-117476247D01*
X3846303Y-117476247D02*
X3693922Y-117476247D01*
X4341541Y-116904819D02*
X4493922Y-116904819D01*
X4493922Y-116904819D02*
X4570112Y-116952438D01*
X4570112Y-116952438D02*
X4646303Y-117047676D01*
X4646303Y-117047676D02*
X4684398Y-117238152D01*
X4684398Y-117238152D02*
X4684398Y-117571485D01*
X4684398Y-117571485D02*
X4646303Y-117761961D01*
X4646303Y-117761961D02*
X4570112Y-117857200D01*
X4570112Y-117857200D02*
X4493922Y-117904819D01*
X4493922Y-117904819D02*
X4341541Y-117904819D01*
X4341541Y-117904819D02*
X4265350Y-117857200D01*
X4265350Y-117857200D02*
X4189160Y-117761961D01*
X4189160Y-117761961D02*
X4151064Y-117571485D01*
X4151064Y-117571485D02*
X4151064Y-117238152D01*
X4151064Y-117238152D02*
X4189160Y-117047676D01*
X4189160Y-117047676D02*
X4265350Y-116952438D01*
X4265350Y-116952438D02*
X4341541Y-116904819D01*
X4989159Y-117000057D02*
X5027255Y-116952438D01*
X5027255Y-116952438D02*
X5103445Y-116904819D01*
X5103445Y-116904819D02*
X5293921Y-116904819D01*
X5293921Y-116904819D02*
X5370112Y-116952438D01*
X5370112Y-116952438D02*
X5408207Y-117000057D01*
X5408207Y-117000057D02*
X5446302Y-117095295D01*
X5446302Y-117095295D02*
X5446302Y-117190533D01*
X5446302Y-117190533D02*
X5408207Y-117333390D01*
X5408207Y-117333390D02*
X4951064Y-117904819D01*
X4951064Y-117904819D02*
X5446302Y-117904819D01*
X1446190Y-16416009D02*
X1560476Y-16463628D01*
X1560476Y-16463628D02*
X1598571Y-16511247D01*
X1598571Y-16511247D02*
X1636667Y-16606485D01*
X1636667Y-16606485D02*
X1636667Y-16749342D01*
X1636667Y-16749342D02*
X1598571Y-16844580D01*
X1598571Y-16844580D02*
X1560476Y-16892200D01*
X1560476Y-16892200D02*
X1484286Y-16939819D01*
X1484286Y-16939819D02*
X1179524Y-16939819D01*
X1179524Y-16939819D02*
X1179524Y-15939819D01*
X1179524Y-15939819D02*
X1446190Y-15939819D01*
X1446190Y-15939819D02*
X1522381Y-15987438D01*
X1522381Y-15987438D02*
X1560476Y-16035057D01*
X1560476Y-16035057D02*
X1598571Y-16130295D01*
X1598571Y-16130295D02*
X1598571Y-16225533D01*
X1598571Y-16225533D02*
X1560476Y-16320771D01*
X1560476Y-16320771D02*
X1522381Y-16368390D01*
X1522381Y-16368390D02*
X1446190Y-16416009D01*
X1446190Y-16416009D02*
X1179524Y-16416009D01*
X2398571Y-16939819D02*
X1941428Y-16939819D01*
X2170000Y-16939819D02*
X2170000Y-15939819D01*
X2170000Y-15939819D02*
X2093809Y-16082676D01*
X2093809Y-16082676D02*
X2017619Y-16177914D01*
X2017619Y-16177914D02*
X1941428Y-16225533D01*
X1446190Y-38006009D02*
X1560476Y-38053628D01*
X1560476Y-38053628D02*
X1598571Y-38101247D01*
X1598571Y-38101247D02*
X1636667Y-38196485D01*
X1636667Y-38196485D02*
X1636667Y-38339342D01*
X1636667Y-38339342D02*
X1598571Y-38434580D01*
X1598571Y-38434580D02*
X1560476Y-38482200D01*
X1560476Y-38482200D02*
X1484286Y-38529819D01*
X1484286Y-38529819D02*
X1179524Y-38529819D01*
X1179524Y-38529819D02*
X1179524Y-37529819D01*
X1179524Y-37529819D02*
X1446190Y-37529819D01*
X1446190Y-37529819D02*
X1522381Y-37577438D01*
X1522381Y-37577438D02*
X1560476Y-37625057D01*
X1560476Y-37625057D02*
X1598571Y-37720295D01*
X1598571Y-37720295D02*
X1598571Y-37815533D01*
X1598571Y-37815533D02*
X1560476Y-37910771D01*
X1560476Y-37910771D02*
X1522381Y-37958390D01*
X1522381Y-37958390D02*
X1446190Y-38006009D01*
X1446190Y-38006009D02*
X1179524Y-38006009D01*
X2093809Y-37958390D02*
X2017619Y-37910771D01*
X2017619Y-37910771D02*
X1979524Y-37863152D01*
X1979524Y-37863152D02*
X1941428Y-37767914D01*
X1941428Y-37767914D02*
X1941428Y-37720295D01*
X1941428Y-37720295D02*
X1979524Y-37625057D01*
X1979524Y-37625057D02*
X2017619Y-37577438D01*
X2017619Y-37577438D02*
X2093809Y-37529819D01*
X2093809Y-37529819D02*
X2246190Y-37529819D01*
X2246190Y-37529819D02*
X2322381Y-37577438D01*
X2322381Y-37577438D02*
X2360476Y-37625057D01*
X2360476Y-37625057D02*
X2398571Y-37720295D01*
X2398571Y-37720295D02*
X2398571Y-37767914D01*
X2398571Y-37767914D02*
X2360476Y-37863152D01*
X2360476Y-37863152D02*
X2322381Y-37910771D01*
X2322381Y-37910771D02*
X2246190Y-37958390D01*
X2246190Y-37958390D02*
X2093809Y-37958390D01*
X2093809Y-37958390D02*
X2017619Y-38006009D01*
X2017619Y-38006009D02*
X1979524Y-38053628D01*
X1979524Y-38053628D02*
X1941428Y-38148866D01*
X1941428Y-38148866D02*
X1941428Y-38339342D01*
X1941428Y-38339342D02*
X1979524Y-38434580D01*
X1979524Y-38434580D02*
X2017619Y-38482200D01*
X2017619Y-38482200D02*
X2093809Y-38529819D01*
X2093809Y-38529819D02*
X2246190Y-38529819D01*
X2246190Y-38529819D02*
X2322381Y-38482200D01*
X2322381Y-38482200D02*
X2360476Y-38434580D01*
X2360476Y-38434580D02*
X2398571Y-38339342D01*
X2398571Y-38339342D02*
X2398571Y-38148866D01*
X2398571Y-38148866D02*
X2360476Y-38053628D01*
X2360476Y-38053628D02*
X2322381Y-38006009D01*
X2322381Y-38006009D02*
X2246190Y-37958390D01*
X1446190Y-54516009D02*
X1560476Y-54563628D01*
X1560476Y-54563628D02*
X1598571Y-54611247D01*
X1598571Y-54611247D02*
X1636667Y-54706485D01*
X1636667Y-54706485D02*
X1636667Y-54849342D01*
X1636667Y-54849342D02*
X1598571Y-54944580D01*
X1598571Y-54944580D02*
X1560476Y-54992200D01*
X1560476Y-54992200D02*
X1484286Y-55039819D01*
X1484286Y-55039819D02*
X1179524Y-55039819D01*
X1179524Y-55039819D02*
X1179524Y-54039819D01*
X1179524Y-54039819D02*
X1446190Y-54039819D01*
X1446190Y-54039819D02*
X1522381Y-54087438D01*
X1522381Y-54087438D02*
X1560476Y-54135057D01*
X1560476Y-54135057D02*
X1598571Y-54230295D01*
X1598571Y-54230295D02*
X1598571Y-54325533D01*
X1598571Y-54325533D02*
X1560476Y-54420771D01*
X1560476Y-54420771D02*
X1522381Y-54468390D01*
X1522381Y-54468390D02*
X1446190Y-54516009D01*
X1446190Y-54516009D02*
X1179524Y-54516009D01*
X2017619Y-55039819D02*
X2170000Y-55039819D01*
X2170000Y-55039819D02*
X2246190Y-54992200D01*
X2246190Y-54992200D02*
X2284286Y-54944580D01*
X2284286Y-54944580D02*
X2360476Y-54801723D01*
X2360476Y-54801723D02*
X2398571Y-54611247D01*
X2398571Y-54611247D02*
X2398571Y-54230295D01*
X2398571Y-54230295D02*
X2360476Y-54135057D01*
X2360476Y-54135057D02*
X2322381Y-54087438D01*
X2322381Y-54087438D02*
X2246190Y-54039819D01*
X2246190Y-54039819D02*
X2093809Y-54039819D01*
X2093809Y-54039819D02*
X2017619Y-54087438D01*
X2017619Y-54087438D02*
X1979524Y-54135057D01*
X1979524Y-54135057D02*
X1941428Y-54230295D01*
X1941428Y-54230295D02*
X1941428Y-54468390D01*
X1941428Y-54468390D02*
X1979524Y-54563628D01*
X1979524Y-54563628D02*
X2017619Y-54611247D01*
X2017619Y-54611247D02*
X2093809Y-54658866D01*
X2093809Y-54658866D02*
X2246190Y-54658866D01*
X2246190Y-54658866D02*
X2322381Y-54611247D01*
X2322381Y-54611247D02*
X2360476Y-54563628D01*
X2360476Y-54563628D02*
X2398571Y-54468390D01*
X1065237Y-76106009D02*
X1179523Y-76153628D01*
X1179523Y-76153628D02*
X1217618Y-76201247D01*
X1217618Y-76201247D02*
X1255714Y-76296485D01*
X1255714Y-76296485D02*
X1255714Y-76439342D01*
X1255714Y-76439342D02*
X1217618Y-76534580D01*
X1217618Y-76534580D02*
X1179523Y-76582200D01*
X1179523Y-76582200D02*
X1103333Y-76629819D01*
X1103333Y-76629819D02*
X798571Y-76629819D01*
X798571Y-76629819D02*
X798571Y-75629819D01*
X798571Y-75629819D02*
X1065237Y-75629819D01*
X1065237Y-75629819D02*
X1141428Y-75677438D01*
X1141428Y-75677438D02*
X1179523Y-75725057D01*
X1179523Y-75725057D02*
X1217618Y-75820295D01*
X1217618Y-75820295D02*
X1217618Y-75915533D01*
X1217618Y-75915533D02*
X1179523Y-76010771D01*
X1179523Y-76010771D02*
X1141428Y-76058390D01*
X1141428Y-76058390D02*
X1065237Y-76106009D01*
X1065237Y-76106009D02*
X798571Y-76106009D01*
X2017618Y-76629819D02*
X1560475Y-76629819D01*
X1789047Y-76629819D02*
X1789047Y-75629819D01*
X1789047Y-75629819D02*
X1712856Y-75772676D01*
X1712856Y-75772676D02*
X1636666Y-75867914D01*
X1636666Y-75867914D02*
X1560475Y-75915533D01*
X2703333Y-75629819D02*
X2550952Y-75629819D01*
X2550952Y-75629819D02*
X2474761Y-75677438D01*
X2474761Y-75677438D02*
X2436666Y-75725057D01*
X2436666Y-75725057D02*
X2360476Y-75867914D01*
X2360476Y-75867914D02*
X2322380Y-76058390D01*
X2322380Y-76058390D02*
X2322380Y-76439342D01*
X2322380Y-76439342D02*
X2360476Y-76534580D01*
X2360476Y-76534580D02*
X2398571Y-76582200D01*
X2398571Y-76582200D02*
X2474761Y-76629819D01*
X2474761Y-76629819D02*
X2627142Y-76629819D01*
X2627142Y-76629819D02*
X2703333Y-76582200D01*
X2703333Y-76582200D02*
X2741428Y-76534580D01*
X2741428Y-76534580D02*
X2779523Y-76439342D01*
X2779523Y-76439342D02*
X2779523Y-76201247D01*
X2779523Y-76201247D02*
X2741428Y-76106009D01*
X2741428Y-76106009D02*
X2703333Y-76058390D01*
X2703333Y-76058390D02*
X2627142Y-76010771D01*
X2627142Y-76010771D02*
X2474761Y-76010771D01*
X2474761Y-76010771D02*
X2398571Y-76058390D01*
X2398571Y-76058390D02*
X2360476Y-76106009D01*
X2360476Y-76106009D02*
X2322380Y-76201247D01*
X4176666Y-13129819D02*
X3795714Y-13129819D01*
X3795714Y-13129819D02*
X3795714Y-12129819D01*
X4862380Y-13129819D02*
X4405237Y-13129819D01*
X4633809Y-13129819D02*
X4633809Y-12129819D01*
X4633809Y-12129819D02*
X4557618Y-12272676D01*
X4557618Y-12272676D02*
X4481428Y-12367914D01*
X4481428Y-12367914D02*
X4405237Y-12415533D01*
X6716666Y-13129819D02*
X6335714Y-13129819D01*
X6335714Y-13129819D02*
X6335714Y-12129819D01*
X6945237Y-12225057D02*
X6983333Y-12177438D01*
X6983333Y-12177438D02*
X7059523Y-12129819D01*
X7059523Y-12129819D02*
X7249999Y-12129819D01*
X7249999Y-12129819D02*
X7326190Y-12177438D01*
X7326190Y-12177438D02*
X7364285Y-12225057D01*
X7364285Y-12225057D02*
X7402380Y-12320295D01*
X7402380Y-12320295D02*
X7402380Y-12415533D01*
X7402380Y-12415533D02*
X7364285Y-12558390D01*
X7364285Y-12558390D02*
X6907142Y-13129819D01*
X6907142Y-13129819D02*
X7402380Y-13129819D01*
X9256666Y-13129819D02*
X8875714Y-13129819D01*
X8875714Y-13129819D02*
X8875714Y-12129819D01*
X9447142Y-12129819D02*
X9942380Y-12129819D01*
X9942380Y-12129819D02*
X9675714Y-12510771D01*
X9675714Y-12510771D02*
X9789999Y-12510771D01*
X9789999Y-12510771D02*
X9866190Y-12558390D01*
X9866190Y-12558390D02*
X9904285Y-12606009D01*
X9904285Y-12606009D02*
X9942380Y-12701247D01*
X9942380Y-12701247D02*
X9942380Y-12939342D01*
X9942380Y-12939342D02*
X9904285Y-13034580D01*
X9904285Y-13034580D02*
X9866190Y-13082200D01*
X9866190Y-13082200D02*
X9789999Y-13129819D01*
X9789999Y-13129819D02*
X9561428Y-13129819D01*
X9561428Y-13129819D02*
X9485237Y-13082200D01*
X9485237Y-13082200D02*
X9447142Y-13034580D01*
X11796666Y-13129819D02*
X11415714Y-13129819D01*
X11415714Y-13129819D02*
X11415714Y-12129819D01*
X12406190Y-12463152D02*
X12406190Y-13129819D01*
X12215714Y-12082200D02*
X12025237Y-12796485D01*
X12025237Y-12796485D02*
X12520476Y-12796485D01*
X14336666Y-13129819D02*
X13955714Y-13129819D01*
X13955714Y-13129819D02*
X13955714Y-12129819D01*
X14984285Y-12129819D02*
X14603333Y-12129819D01*
X14603333Y-12129819D02*
X14565237Y-12606009D01*
X14565237Y-12606009D02*
X14603333Y-12558390D01*
X14603333Y-12558390D02*
X14679523Y-12510771D01*
X14679523Y-12510771D02*
X14869999Y-12510771D01*
X14869999Y-12510771D02*
X14946190Y-12558390D01*
X14946190Y-12558390D02*
X14984285Y-12606009D01*
X14984285Y-12606009D02*
X15022380Y-12701247D01*
X15022380Y-12701247D02*
X15022380Y-12939342D01*
X15022380Y-12939342D02*
X14984285Y-13034580D01*
X14984285Y-13034580D02*
X14946190Y-13082200D01*
X14946190Y-13082200D02*
X14869999Y-13129819D01*
X14869999Y-13129819D02*
X14679523Y-13129819D01*
X14679523Y-13129819D02*
X14603333Y-13082200D01*
X14603333Y-13082200D02*
X14565237Y-13034580D01*
X16876666Y-13129819D02*
X16495714Y-13129819D01*
X16495714Y-13129819D02*
X16495714Y-12129819D01*
X17486190Y-12129819D02*
X17333809Y-12129819D01*
X17333809Y-12129819D02*
X17257618Y-12177438D01*
X17257618Y-12177438D02*
X17219523Y-12225057D01*
X17219523Y-12225057D02*
X17143333Y-12367914D01*
X17143333Y-12367914D02*
X17105237Y-12558390D01*
X17105237Y-12558390D02*
X17105237Y-12939342D01*
X17105237Y-12939342D02*
X17143333Y-13034580D01*
X17143333Y-13034580D02*
X17181428Y-13082200D01*
X17181428Y-13082200D02*
X17257618Y-13129819D01*
X17257618Y-13129819D02*
X17409999Y-13129819D01*
X17409999Y-13129819D02*
X17486190Y-13082200D01*
X17486190Y-13082200D02*
X17524285Y-13034580D01*
X17524285Y-13034580D02*
X17562380Y-12939342D01*
X17562380Y-12939342D02*
X17562380Y-12701247D01*
X17562380Y-12701247D02*
X17524285Y-12606009D01*
X17524285Y-12606009D02*
X17486190Y-12558390D01*
X17486190Y-12558390D02*
X17409999Y-12510771D01*
X17409999Y-12510771D02*
X17257618Y-12510771D01*
X17257618Y-12510771D02*
X17181428Y-12558390D01*
X17181428Y-12558390D02*
X17143333Y-12606009D01*
X17143333Y-12606009D02*
X17105237Y-12701247D01*
X5841903Y-90060152D02*
X5841903Y-90869676D01*
X5841903Y-90869676D02*
X5803808Y-90964914D01*
X5803808Y-90964914D02*
X5765712Y-91012533D01*
X5765712Y-91012533D02*
X5689522Y-91060152D01*
X5689522Y-91060152D02*
X5575236Y-91060152D01*
X5575236Y-91060152D02*
X5499046Y-91012533D01*
X5841903Y-90679200D02*
X5765712Y-90726819D01*
X5765712Y-90726819D02*
X5613331Y-90726819D01*
X5613331Y-90726819D02*
X5537141Y-90679200D01*
X5537141Y-90679200D02*
X5499046Y-90631580D01*
X5499046Y-90631580D02*
X5460950Y-90536342D01*
X5460950Y-90536342D02*
X5460950Y-90250628D01*
X5460950Y-90250628D02*
X5499046Y-90155390D01*
X5499046Y-90155390D02*
X5537141Y-90107771D01*
X5537141Y-90107771D02*
X5613331Y-90060152D01*
X5613331Y-90060152D02*
X5765712Y-90060152D01*
X5765712Y-90060152D02*
X5841903Y-90107771D01*
X6222856Y-90726819D02*
X6222856Y-90060152D01*
X6222856Y-89726819D02*
X6184760Y-89774438D01*
X6184760Y-89774438D02*
X6222856Y-89822057D01*
X6222856Y-89822057D02*
X6260951Y-89774438D01*
X6260951Y-89774438D02*
X6222856Y-89726819D01*
X6222856Y-89726819D02*
X6222856Y-89822057D01*
X6489522Y-90060152D02*
X6794284Y-90060152D01*
X6603808Y-89726819D02*
X6603808Y-90583961D01*
X6603808Y-90583961D02*
X6641903Y-90679200D01*
X6641903Y-90679200D02*
X6718093Y-90726819D01*
X6718093Y-90726819D02*
X6794284Y-90726819D01*
X7060951Y-90726819D02*
X7060951Y-89726819D01*
X7403808Y-90726819D02*
X7403808Y-90203009D01*
X7403808Y-90203009D02*
X7365713Y-90107771D01*
X7365713Y-90107771D02*
X7289522Y-90060152D01*
X7289522Y-90060152D02*
X7175236Y-90060152D01*
X7175236Y-90060152D02*
X7099046Y-90107771D01*
X7099046Y-90107771D02*
X7060951Y-90155390D01*
X8127618Y-90060152D02*
X8127618Y-90726819D01*
X7784761Y-90060152D02*
X7784761Y-90583961D01*
X7784761Y-90583961D02*
X7822856Y-90679200D01*
X7822856Y-90679200D02*
X7899046Y-90726819D01*
X7899046Y-90726819D02*
X8013332Y-90726819D01*
X8013332Y-90726819D02*
X8089523Y-90679200D01*
X8089523Y-90679200D02*
X8127618Y-90631580D01*
X8508571Y-90726819D02*
X8508571Y-89726819D01*
X8508571Y-90107771D02*
X8584761Y-90060152D01*
X8584761Y-90060152D02*
X8737142Y-90060152D01*
X8737142Y-90060152D02*
X8813333Y-90107771D01*
X8813333Y-90107771D02*
X8851428Y-90155390D01*
X8851428Y-90155390D02*
X8889523Y-90250628D01*
X8889523Y-90250628D02*
X8889523Y-90536342D01*
X8889523Y-90536342D02*
X8851428Y-90631580D01*
X8851428Y-90631580D02*
X8813333Y-90679200D01*
X8813333Y-90679200D02*
X8737142Y-90726819D01*
X8737142Y-90726819D02*
X8584761Y-90726819D01*
X8584761Y-90726819D02*
X8508571Y-90679200D01*
X9232381Y-90631580D02*
X9270476Y-90679200D01*
X9270476Y-90679200D02*
X9232381Y-90726819D01*
X9232381Y-90726819D02*
X9194285Y-90679200D01*
X9194285Y-90679200D02*
X9232381Y-90631580D01*
X9232381Y-90631580D02*
X9232381Y-90726819D01*
X9956190Y-90679200D02*
X9879999Y-90726819D01*
X9879999Y-90726819D02*
X9727618Y-90726819D01*
X9727618Y-90726819D02*
X9651428Y-90679200D01*
X9651428Y-90679200D02*
X9613333Y-90631580D01*
X9613333Y-90631580D02*
X9575237Y-90536342D01*
X9575237Y-90536342D02*
X9575237Y-90250628D01*
X9575237Y-90250628D02*
X9613333Y-90155390D01*
X9613333Y-90155390D02*
X9651428Y-90107771D01*
X9651428Y-90107771D02*
X9727618Y-90060152D01*
X9727618Y-90060152D02*
X9879999Y-90060152D01*
X9879999Y-90060152D02*
X9956190Y-90107771D01*
X10413332Y-90726819D02*
X10337142Y-90679200D01*
X10337142Y-90679200D02*
X10299047Y-90631580D01*
X10299047Y-90631580D02*
X10260951Y-90536342D01*
X10260951Y-90536342D02*
X10260951Y-90250628D01*
X10260951Y-90250628D02*
X10299047Y-90155390D01*
X10299047Y-90155390D02*
X10337142Y-90107771D01*
X10337142Y-90107771D02*
X10413332Y-90060152D01*
X10413332Y-90060152D02*
X10527618Y-90060152D01*
X10527618Y-90060152D02*
X10603809Y-90107771D01*
X10603809Y-90107771D02*
X10641904Y-90155390D01*
X10641904Y-90155390D02*
X10679999Y-90250628D01*
X10679999Y-90250628D02*
X10679999Y-90536342D01*
X10679999Y-90536342D02*
X10641904Y-90631580D01*
X10641904Y-90631580D02*
X10603809Y-90679200D01*
X10603809Y-90679200D02*
X10527618Y-90726819D01*
X10527618Y-90726819D02*
X10413332Y-90726819D01*
X11022857Y-90726819D02*
X11022857Y-90060152D01*
X11022857Y-90155390D02*
X11060952Y-90107771D01*
X11060952Y-90107771D02*
X11137142Y-90060152D01*
X11137142Y-90060152D02*
X11251428Y-90060152D01*
X11251428Y-90060152D02*
X11327619Y-90107771D01*
X11327619Y-90107771D02*
X11365714Y-90203009D01*
X11365714Y-90203009D02*
X11365714Y-90726819D01*
X11365714Y-90203009D02*
X11403809Y-90107771D01*
X11403809Y-90107771D02*
X11480000Y-90060152D01*
X11480000Y-90060152D02*
X11594285Y-90060152D01*
X11594285Y-90060152D02*
X11670476Y-90107771D01*
X11670476Y-90107771D02*
X11708571Y-90203009D01*
X11708571Y-90203009D02*
X11708571Y-90726819D01*
X12660952Y-89679200D02*
X11975238Y-90964914D01*
X13041904Y-90726819D02*
X12965714Y-90679200D01*
X12965714Y-90679200D02*
X12927619Y-90631580D01*
X12927619Y-90631580D02*
X12889523Y-90536342D01*
X12889523Y-90536342D02*
X12889523Y-90250628D01*
X12889523Y-90250628D02*
X12927619Y-90155390D01*
X12927619Y-90155390D02*
X12965714Y-90107771D01*
X12965714Y-90107771D02*
X13041904Y-90060152D01*
X13041904Y-90060152D02*
X13156190Y-90060152D01*
X13156190Y-90060152D02*
X13232381Y-90107771D01*
X13232381Y-90107771D02*
X13270476Y-90155390D01*
X13270476Y-90155390D02*
X13308571Y-90250628D01*
X13308571Y-90250628D02*
X13308571Y-90536342D01*
X13308571Y-90536342D02*
X13270476Y-90631580D01*
X13270476Y-90631580D02*
X13232381Y-90679200D01*
X13232381Y-90679200D02*
X13156190Y-90726819D01*
X13156190Y-90726819D02*
X13041904Y-90726819D01*
X13651429Y-90726819D02*
X13651429Y-89726819D01*
X13994286Y-90726819D02*
X13994286Y-90203009D01*
X13994286Y-90203009D02*
X13956191Y-90107771D01*
X13956191Y-90107771D02*
X13880000Y-90060152D01*
X13880000Y-90060152D02*
X13765714Y-90060152D01*
X13765714Y-90060152D02*
X13689524Y-90107771D01*
X13689524Y-90107771D02*
X13651429Y-90155390D01*
X14375239Y-90726819D02*
X14375239Y-90060152D01*
X14375239Y-90155390D02*
X14413334Y-90107771D01*
X14413334Y-90107771D02*
X14489524Y-90060152D01*
X14489524Y-90060152D02*
X14603810Y-90060152D01*
X14603810Y-90060152D02*
X14680001Y-90107771D01*
X14680001Y-90107771D02*
X14718096Y-90203009D01*
X14718096Y-90203009D02*
X14718096Y-90726819D01*
X14718096Y-90203009D02*
X14756191Y-90107771D01*
X14756191Y-90107771D02*
X14832382Y-90060152D01*
X14832382Y-90060152D02*
X14946667Y-90060152D01*
X14946667Y-90060152D02*
X15022858Y-90107771D01*
X15022858Y-90107771D02*
X15060953Y-90203009D01*
X15060953Y-90203009D02*
X15060953Y-90726819D01*
X15327620Y-90060152D02*
X15632382Y-90060152D01*
X15441906Y-89726819D02*
X15441906Y-90583961D01*
X15441906Y-90583961D02*
X15480001Y-90679200D01*
X15480001Y-90679200D02*
X15556191Y-90726819D01*
X15556191Y-90726819D02*
X15632382Y-90726819D01*
X16203811Y-90679200D02*
X16127620Y-90726819D01*
X16127620Y-90726819D02*
X15975239Y-90726819D01*
X15975239Y-90726819D02*
X15899049Y-90679200D01*
X15899049Y-90679200D02*
X15860953Y-90583961D01*
X15860953Y-90583961D02*
X15860953Y-90203009D01*
X15860953Y-90203009D02*
X15899049Y-90107771D01*
X15899049Y-90107771D02*
X15975239Y-90060152D01*
X15975239Y-90060152D02*
X16127620Y-90060152D01*
X16127620Y-90060152D02*
X16203811Y-90107771D01*
X16203811Y-90107771D02*
X16241906Y-90203009D01*
X16241906Y-90203009D02*
X16241906Y-90298247D01*
X16241906Y-90298247D02*
X15860953Y-90393485D01*
X16927620Y-90679200D02*
X16851429Y-90726819D01*
X16851429Y-90726819D02*
X16699048Y-90726819D01*
X16699048Y-90726819D02*
X16622858Y-90679200D01*
X16622858Y-90679200D02*
X16584763Y-90631580D01*
X16584763Y-90631580D02*
X16546667Y-90536342D01*
X16546667Y-90536342D02*
X16546667Y-90250628D01*
X16546667Y-90250628D02*
X16584763Y-90155390D01*
X16584763Y-90155390D02*
X16622858Y-90107771D01*
X16622858Y-90107771D02*
X16699048Y-90060152D01*
X16699048Y-90060152D02*
X16851429Y-90060152D01*
X16851429Y-90060152D02*
X16927620Y-90107771D01*
X17270477Y-90726819D02*
X17270477Y-89726819D01*
X17613334Y-90726819D02*
X17613334Y-90203009D01*
X17613334Y-90203009D02*
X17575239Y-90107771D01*
X17575239Y-90107771D02*
X17499048Y-90060152D01*
X17499048Y-90060152D02*
X17384762Y-90060152D01*
X17384762Y-90060152D02*
X17308572Y-90107771D01*
X17308572Y-90107771D02*
X17270477Y-90155390D01*
X17994287Y-90345866D02*
X18603811Y-90345866D01*
X18984763Y-90726819D02*
X18984763Y-90060152D01*
X18984763Y-90250628D02*
X19022858Y-90155390D01*
X19022858Y-90155390D02*
X19060953Y-90107771D01*
X19060953Y-90107771D02*
X19137144Y-90060152D01*
X19137144Y-90060152D02*
X19213334Y-90060152D01*
X19822858Y-90726819D02*
X19822858Y-89726819D01*
X19822858Y-90679200D02*
X19746667Y-90726819D01*
X19746667Y-90726819D02*
X19594286Y-90726819D01*
X19594286Y-90726819D02*
X19518096Y-90679200D01*
X19518096Y-90679200D02*
X19480001Y-90631580D01*
X19480001Y-90631580D02*
X19441905Y-90536342D01*
X19441905Y-90536342D02*
X19441905Y-90250628D01*
X19441905Y-90250628D02*
X19480001Y-90155390D01*
X19480001Y-90155390D02*
X19518096Y-90107771D01*
X19518096Y-90107771D02*
X19594286Y-90060152D01*
X19594286Y-90060152D02*
X19746667Y-90060152D01*
X19746667Y-90060152D02*
X19822858Y-90107771D01*
X20203811Y-90726819D02*
X20203811Y-90060152D01*
X20203811Y-89726819D02*
X20165715Y-89774438D01*
X20165715Y-89774438D02*
X20203811Y-89822057D01*
X20203811Y-89822057D02*
X20241906Y-89774438D01*
X20241906Y-89774438D02*
X20203811Y-89726819D01*
X20203811Y-89726819D02*
X20203811Y-89822057D01*
X21156191Y-89679200D02*
X20470477Y-90964914D01*
X21727620Y-90679200D02*
X21651429Y-90726819D01*
X21651429Y-90726819D02*
X21499048Y-90726819D01*
X21499048Y-90726819D02*
X21422858Y-90679200D01*
X21422858Y-90679200D02*
X21384762Y-90583961D01*
X21384762Y-90583961D02*
X21384762Y-90203009D01*
X21384762Y-90203009D02*
X21422858Y-90107771D01*
X21422858Y-90107771D02*
X21499048Y-90060152D01*
X21499048Y-90060152D02*
X21651429Y-90060152D01*
X21651429Y-90060152D02*
X21727620Y-90107771D01*
X21727620Y-90107771D02*
X21765715Y-90203009D01*
X21765715Y-90203009D02*
X21765715Y-90298247D01*
X21765715Y-90298247D02*
X21384762Y-90393485D01*
X22451429Y-90060152D02*
X22451429Y-90726819D01*
X22108572Y-90060152D02*
X22108572Y-90583961D01*
X22108572Y-90583961D02*
X22146667Y-90679200D01*
X22146667Y-90679200D02*
X22222857Y-90726819D01*
X22222857Y-90726819D02*
X22337143Y-90726819D01*
X22337143Y-90726819D02*
X22413334Y-90679200D01*
X22413334Y-90679200D02*
X22451429Y-90631580D01*
X22832382Y-90726819D02*
X22832382Y-90060152D01*
X22832382Y-90250628D02*
X22870477Y-90155390D01*
X22870477Y-90155390D02*
X22908572Y-90107771D01*
X22908572Y-90107771D02*
X22984763Y-90060152D01*
X22984763Y-90060152D02*
X23060953Y-90060152D01*
X23441905Y-90726819D02*
X23365715Y-90679200D01*
X23365715Y-90679200D02*
X23327620Y-90631580D01*
X23327620Y-90631580D02*
X23289524Y-90536342D01*
X23289524Y-90536342D02*
X23289524Y-90250628D01*
X23289524Y-90250628D02*
X23327620Y-90155390D01*
X23327620Y-90155390D02*
X23365715Y-90107771D01*
X23365715Y-90107771D02*
X23441905Y-90060152D01*
X23441905Y-90060152D02*
X23556191Y-90060152D01*
X23556191Y-90060152D02*
X23632382Y-90107771D01*
X23632382Y-90107771D02*
X23670477Y-90155390D01*
X23670477Y-90155390D02*
X23708572Y-90250628D01*
X23708572Y-90250628D02*
X23708572Y-90536342D01*
X23708572Y-90536342D02*
X23670477Y-90631580D01*
X23670477Y-90631580D02*
X23632382Y-90679200D01*
X23632382Y-90679200D02*
X23556191Y-90726819D01*
X23556191Y-90726819D02*
X23441905Y-90726819D01*
X24051430Y-90726819D02*
X24051430Y-90060152D01*
X24051430Y-90250628D02*
X24089525Y-90155390D01*
X24089525Y-90155390D02*
X24127620Y-90107771D01*
X24127620Y-90107771D02*
X24203811Y-90060152D01*
X24203811Y-90060152D02*
X24280001Y-90060152D01*
X24889525Y-90726819D02*
X24889525Y-90203009D01*
X24889525Y-90203009D02*
X24851430Y-90107771D01*
X24851430Y-90107771D02*
X24775239Y-90060152D01*
X24775239Y-90060152D02*
X24622858Y-90060152D01*
X24622858Y-90060152D02*
X24546668Y-90107771D01*
X24889525Y-90679200D02*
X24813334Y-90726819D01*
X24813334Y-90726819D02*
X24622858Y-90726819D01*
X24622858Y-90726819D02*
X24546668Y-90679200D01*
X24546668Y-90679200D02*
X24508572Y-90583961D01*
X24508572Y-90583961D02*
X24508572Y-90488723D01*
X24508572Y-90488723D02*
X24546668Y-90393485D01*
X24546668Y-90393485D02*
X24622858Y-90345866D01*
X24622858Y-90345866D02*
X24813334Y-90345866D01*
X24813334Y-90345866D02*
X24889525Y-90298247D01*
X25613335Y-90679200D02*
X25537144Y-90726819D01*
X25537144Y-90726819D02*
X25384763Y-90726819D01*
X25384763Y-90726819D02*
X25308573Y-90679200D01*
X25308573Y-90679200D02*
X25270478Y-90631580D01*
X25270478Y-90631580D02*
X25232382Y-90536342D01*
X25232382Y-90536342D02*
X25232382Y-90250628D01*
X25232382Y-90250628D02*
X25270478Y-90155390D01*
X25270478Y-90155390D02*
X25308573Y-90107771D01*
X25308573Y-90107771D02*
X25384763Y-90060152D01*
X25384763Y-90060152D02*
X25537144Y-90060152D01*
X25537144Y-90060152D02*
X25613335Y-90107771D01*
X25956192Y-90726819D02*
X25956192Y-89726819D01*
X26032382Y-90345866D02*
X26260954Y-90726819D01*
X26260954Y-90060152D02*
X25956192Y-90441104D01*
X26603811Y-90345866D02*
X27213335Y-90345866D01*
X27594287Y-90726819D02*
X27594287Y-89726819D01*
X27594287Y-90107771D02*
X27670477Y-90060152D01*
X27670477Y-90060152D02*
X27822858Y-90060152D01*
X27822858Y-90060152D02*
X27899049Y-90107771D01*
X27899049Y-90107771D02*
X27937144Y-90155390D01*
X27937144Y-90155390D02*
X27975239Y-90250628D01*
X27975239Y-90250628D02*
X27975239Y-90536342D01*
X27975239Y-90536342D02*
X27937144Y-90631580D01*
X27937144Y-90631580D02*
X27899049Y-90679200D01*
X27899049Y-90679200D02*
X27822858Y-90726819D01*
X27822858Y-90726819D02*
X27670477Y-90726819D01*
X27670477Y-90726819D02*
X27594287Y-90679200D01*
X28432382Y-90726819D02*
X28356192Y-90679200D01*
X28356192Y-90679200D02*
X28318097Y-90583961D01*
X28318097Y-90583961D02*
X28318097Y-89726819D01*
X28851430Y-90726819D02*
X28775240Y-90679200D01*
X28775240Y-90679200D02*
X28737145Y-90631580D01*
X28737145Y-90631580D02*
X28699049Y-90536342D01*
X28699049Y-90536342D02*
X28699049Y-90250628D01*
X28699049Y-90250628D02*
X28737145Y-90155390D01*
X28737145Y-90155390D02*
X28775240Y-90107771D01*
X28775240Y-90107771D02*
X28851430Y-90060152D01*
X28851430Y-90060152D02*
X28965716Y-90060152D01*
X28965716Y-90060152D02*
X29041907Y-90107771D01*
X29041907Y-90107771D02*
X29080002Y-90155390D01*
X29080002Y-90155390D02*
X29118097Y-90250628D01*
X29118097Y-90250628D02*
X29118097Y-90536342D01*
X29118097Y-90536342D02*
X29080002Y-90631580D01*
X29080002Y-90631580D02*
X29041907Y-90679200D01*
X29041907Y-90679200D02*
X28965716Y-90726819D01*
X28965716Y-90726819D02*
X28851430Y-90726819D01*
X29803812Y-90679200D02*
X29727621Y-90726819D01*
X29727621Y-90726819D02*
X29575240Y-90726819D01*
X29575240Y-90726819D02*
X29499050Y-90679200D01*
X29499050Y-90679200D02*
X29460955Y-90631580D01*
X29460955Y-90631580D02*
X29422859Y-90536342D01*
X29422859Y-90536342D02*
X29422859Y-90250628D01*
X29422859Y-90250628D02*
X29460955Y-90155390D01*
X29460955Y-90155390D02*
X29499050Y-90107771D01*
X29499050Y-90107771D02*
X29575240Y-90060152D01*
X29575240Y-90060152D02*
X29727621Y-90060152D01*
X29727621Y-90060152D02*
X29803812Y-90107771D01*
X30146669Y-90726819D02*
X30146669Y-89726819D01*
X30222859Y-90345866D02*
X30451431Y-90726819D01*
X30451431Y-90060152D02*
X30146669Y-90441104D01*
X30756192Y-90679200D02*
X30832383Y-90726819D01*
X30832383Y-90726819D02*
X30984764Y-90726819D01*
X30984764Y-90726819D02*
X31060954Y-90679200D01*
X31060954Y-90679200D02*
X31099050Y-90583961D01*
X31099050Y-90583961D02*
X31099050Y-90536342D01*
X31099050Y-90536342D02*
X31060954Y-90441104D01*
X31060954Y-90441104D02*
X30984764Y-90393485D01*
X30984764Y-90393485D02*
X30870478Y-90393485D01*
X30870478Y-90393485D02*
X30794288Y-90345866D01*
X30794288Y-90345866D02*
X30756192Y-90250628D01*
X30756192Y-90250628D02*
X30756192Y-90203009D01*
X30756192Y-90203009D02*
X30794288Y-90107771D01*
X30794288Y-90107771D02*
X30870478Y-90060152D01*
X30870478Y-90060152D02*
X30984764Y-90060152D01*
X30984764Y-90060152D02*
X31060954Y-90107771D01*
X19416666Y-13129819D02*
X19035714Y-13129819D01*
X19035714Y-13129819D02*
X19035714Y-12129819D01*
X19607142Y-12129819D02*
X20140476Y-12129819D01*
X20140476Y-12129819D02*
X19797618Y-13129819D01*
X21956666Y-13129819D02*
X21575714Y-13129819D01*
X21575714Y-13129819D02*
X21575714Y-12129819D01*
X22337618Y-12558390D02*
X22261428Y-12510771D01*
X22261428Y-12510771D02*
X22223333Y-12463152D01*
X22223333Y-12463152D02*
X22185237Y-12367914D01*
X22185237Y-12367914D02*
X22185237Y-12320295D01*
X22185237Y-12320295D02*
X22223333Y-12225057D01*
X22223333Y-12225057D02*
X22261428Y-12177438D01*
X22261428Y-12177438D02*
X22337618Y-12129819D01*
X22337618Y-12129819D02*
X22489999Y-12129819D01*
X22489999Y-12129819D02*
X22566190Y-12177438D01*
X22566190Y-12177438D02*
X22604285Y-12225057D01*
X22604285Y-12225057D02*
X22642380Y-12320295D01*
X22642380Y-12320295D02*
X22642380Y-12367914D01*
X22642380Y-12367914D02*
X22604285Y-12463152D01*
X22604285Y-12463152D02*
X22566190Y-12510771D01*
X22566190Y-12510771D02*
X22489999Y-12558390D01*
X22489999Y-12558390D02*
X22337618Y-12558390D01*
X22337618Y-12558390D02*
X22261428Y-12606009D01*
X22261428Y-12606009D02*
X22223333Y-12653628D01*
X22223333Y-12653628D02*
X22185237Y-12748866D01*
X22185237Y-12748866D02*
X22185237Y-12939342D01*
X22185237Y-12939342D02*
X22223333Y-13034580D01*
X22223333Y-13034580D02*
X22261428Y-13082200D01*
X22261428Y-13082200D02*
X22337618Y-13129819D01*
X22337618Y-13129819D02*
X22489999Y-13129819D01*
X22489999Y-13129819D02*
X22566190Y-13082200D01*
X22566190Y-13082200D02*
X22604285Y-13034580D01*
X22604285Y-13034580D02*
X22642380Y-12939342D01*
X22642380Y-12939342D02*
X22642380Y-12748866D01*
X22642380Y-12748866D02*
X22604285Y-12653628D01*
X22604285Y-12653628D02*
X22566190Y-12606009D01*
X22566190Y-12606009D02*
X22489999Y-12558390D01*
X30370476Y-12177438D02*
X30294286Y-12129819D01*
X30294286Y-12129819D02*
X30180000Y-12129819D01*
X30180000Y-12129819D02*
X30065714Y-12177438D01*
X30065714Y-12177438D02*
X29989524Y-12272676D01*
X29989524Y-12272676D02*
X29951429Y-12367914D01*
X29951429Y-12367914D02*
X29913333Y-12558390D01*
X29913333Y-12558390D02*
X29913333Y-12701247D01*
X29913333Y-12701247D02*
X29951429Y-12891723D01*
X29951429Y-12891723D02*
X29989524Y-12986961D01*
X29989524Y-12986961D02*
X30065714Y-13082200D01*
X30065714Y-13082200D02*
X30180000Y-13129819D01*
X30180000Y-13129819D02*
X30256191Y-13129819D01*
X30256191Y-13129819D02*
X30370476Y-13082200D01*
X30370476Y-13082200D02*
X30408572Y-13034580D01*
X30408572Y-13034580D02*
X30408572Y-12701247D01*
X30408572Y-12701247D02*
X30256191Y-12701247D01*
X30751429Y-13129819D02*
X30751429Y-12129819D01*
X30751429Y-12129819D02*
X31208572Y-13129819D01*
X31208572Y-13129819D02*
X31208572Y-12129819D01*
X31589524Y-13129819D02*
X31589524Y-12129819D01*
X31589524Y-12129819D02*
X31780000Y-12129819D01*
X31780000Y-12129819D02*
X31894286Y-12177438D01*
X31894286Y-12177438D02*
X31970476Y-12272676D01*
X31970476Y-12272676D02*
X32008571Y-12367914D01*
X32008571Y-12367914D02*
X32046667Y-12558390D01*
X32046667Y-12558390D02*
X32046667Y-12701247D01*
X32046667Y-12701247D02*
X32008571Y-12891723D01*
X32008571Y-12891723D02*
X31970476Y-12986961D01*
X31970476Y-12986961D02*
X31894286Y-13082200D01*
X31894286Y-13082200D02*
X31780000Y-13129819D01*
X31780000Y-13129819D02*
X31589524Y-13129819D01*
X38466666Y-13129819D02*
X38085714Y-13129819D01*
X38085714Y-13129819D02*
X38085714Y-12129819D01*
X38771428Y-13129819D02*
X38923809Y-13129819D01*
X38923809Y-13129819D02*
X38999999Y-13082200D01*
X38999999Y-13082200D02*
X39038095Y-13034580D01*
X39038095Y-13034580D02*
X39114285Y-12891723D01*
X39114285Y-12891723D02*
X39152380Y-12701247D01*
X39152380Y-12701247D02*
X39152380Y-12320295D01*
X39152380Y-12320295D02*
X39114285Y-12225057D01*
X39114285Y-12225057D02*
X39076190Y-12177438D01*
X39076190Y-12177438D02*
X38999999Y-12129819D01*
X38999999Y-12129819D02*
X38847618Y-12129819D01*
X38847618Y-12129819D02*
X38771428Y-12177438D01*
X38771428Y-12177438D02*
X38733333Y-12225057D01*
X38733333Y-12225057D02*
X38695237Y-12320295D01*
X38695237Y-12320295D02*
X38695237Y-12558390D01*
X38695237Y-12558390D02*
X38733333Y-12653628D01*
X38733333Y-12653628D02*
X38771428Y-12701247D01*
X38771428Y-12701247D02*
X38847618Y-12748866D01*
X38847618Y-12748866D02*
X38999999Y-12748866D01*
X38999999Y-12748866D02*
X39076190Y-12701247D01*
X39076190Y-12701247D02*
X39114285Y-12653628D01*
X39114285Y-12653628D02*
X39152380Y-12558390D01*
X40625714Y-13129819D02*
X40244762Y-13129819D01*
X40244762Y-13129819D02*
X40244762Y-12129819D01*
X41311428Y-13129819D02*
X40854285Y-13129819D01*
X41082857Y-13129819D02*
X41082857Y-12129819D01*
X41082857Y-12129819D02*
X41006666Y-12272676D01*
X41006666Y-12272676D02*
X40930476Y-12367914D01*
X40930476Y-12367914D02*
X40854285Y-12415533D01*
X41806667Y-12129819D02*
X41882857Y-12129819D01*
X41882857Y-12129819D02*
X41959048Y-12177438D01*
X41959048Y-12177438D02*
X41997143Y-12225057D01*
X41997143Y-12225057D02*
X42035238Y-12320295D01*
X42035238Y-12320295D02*
X42073333Y-12510771D01*
X42073333Y-12510771D02*
X42073333Y-12748866D01*
X42073333Y-12748866D02*
X42035238Y-12939342D01*
X42035238Y-12939342D02*
X41997143Y-13034580D01*
X41997143Y-13034580D02*
X41959048Y-13082200D01*
X41959048Y-13082200D02*
X41882857Y-13129819D01*
X41882857Y-13129819D02*
X41806667Y-13129819D01*
X41806667Y-13129819D02*
X41730476Y-13082200D01*
X41730476Y-13082200D02*
X41692381Y-13034580D01*
X41692381Y-13034580D02*
X41654286Y-12939342D01*
X41654286Y-12939342D02*
X41616190Y-12748866D01*
X41616190Y-12748866D02*
X41616190Y-12510771D01*
X41616190Y-12510771D02*
X41654286Y-12320295D01*
X41654286Y-12320295D02*
X41692381Y-12225057D01*
X41692381Y-12225057D02*
X41730476Y-12177438D01*
X41730476Y-12177438D02*
X41806667Y-12129819D01*
X43165714Y-13129819D02*
X42784762Y-13129819D01*
X42784762Y-13129819D02*
X42784762Y-12129819D01*
X43851428Y-13129819D02*
X43394285Y-13129819D01*
X43622857Y-13129819D02*
X43622857Y-12129819D01*
X43622857Y-12129819D02*
X43546666Y-12272676D01*
X43546666Y-12272676D02*
X43470476Y-12367914D01*
X43470476Y-12367914D02*
X43394285Y-12415533D01*
X44613333Y-13129819D02*
X44156190Y-13129819D01*
X44384762Y-13129819D02*
X44384762Y-12129819D01*
X44384762Y-12129819D02*
X44308571Y-12272676D01*
X44308571Y-12272676D02*
X44232381Y-12367914D01*
X44232381Y-12367914D02*
X44156190Y-12415533D01*
X45705714Y-13129819D02*
X45324762Y-13129819D01*
X45324762Y-13129819D02*
X45324762Y-12129819D01*
X46391428Y-13129819D02*
X45934285Y-13129819D01*
X46162857Y-13129819D02*
X46162857Y-12129819D01*
X46162857Y-12129819D02*
X46086666Y-12272676D01*
X46086666Y-12272676D02*
X46010476Y-12367914D01*
X46010476Y-12367914D02*
X45934285Y-12415533D01*
X46696190Y-12225057D02*
X46734286Y-12177438D01*
X46734286Y-12177438D02*
X46810476Y-12129819D01*
X46810476Y-12129819D02*
X47000952Y-12129819D01*
X47000952Y-12129819D02*
X47077143Y-12177438D01*
X47077143Y-12177438D02*
X47115238Y-12225057D01*
X47115238Y-12225057D02*
X47153333Y-12320295D01*
X47153333Y-12320295D02*
X47153333Y-12415533D01*
X47153333Y-12415533D02*
X47115238Y-12558390D01*
X47115238Y-12558390D02*
X46658095Y-13129819D01*
X46658095Y-13129819D02*
X47153333Y-13129819D01*
X48245714Y-13129819D02*
X47864762Y-13129819D01*
X47864762Y-13129819D02*
X47864762Y-12129819D01*
X48931428Y-13129819D02*
X48474285Y-13129819D01*
X48702857Y-13129819D02*
X48702857Y-12129819D01*
X48702857Y-12129819D02*
X48626666Y-12272676D01*
X48626666Y-12272676D02*
X48550476Y-12367914D01*
X48550476Y-12367914D02*
X48474285Y-12415533D01*
X49198095Y-12129819D02*
X49693333Y-12129819D01*
X49693333Y-12129819D02*
X49426667Y-12510771D01*
X49426667Y-12510771D02*
X49540952Y-12510771D01*
X49540952Y-12510771D02*
X49617143Y-12558390D01*
X49617143Y-12558390D02*
X49655238Y-12606009D01*
X49655238Y-12606009D02*
X49693333Y-12701247D01*
X49693333Y-12701247D02*
X49693333Y-12939342D01*
X49693333Y-12939342D02*
X49655238Y-13034580D01*
X49655238Y-13034580D02*
X49617143Y-13082200D01*
X49617143Y-13082200D02*
X49540952Y-13129819D01*
X49540952Y-13129819D02*
X49312381Y-13129819D01*
X49312381Y-13129819D02*
X49236190Y-13082200D01*
X49236190Y-13082200D02*
X49198095Y-13034580D01*
X50785714Y-13129819D02*
X50404762Y-13129819D01*
X50404762Y-13129819D02*
X50404762Y-12129819D01*
X51471428Y-13129819D02*
X51014285Y-13129819D01*
X51242857Y-13129819D02*
X51242857Y-12129819D01*
X51242857Y-12129819D02*
X51166666Y-12272676D01*
X51166666Y-12272676D02*
X51090476Y-12367914D01*
X51090476Y-12367914D02*
X51014285Y-12415533D01*
X52157143Y-12463152D02*
X52157143Y-13129819D01*
X51966667Y-12082200D02*
X51776190Y-12796485D01*
X51776190Y-12796485D02*
X52271429Y-12796485D01*
X52233571Y-82032037D02*
X52347857Y-82079656D01*
X52347857Y-82079656D02*
X52385952Y-82127275D01*
X52385952Y-82127275D02*
X52424048Y-82222513D01*
X52424048Y-82222513D02*
X52424048Y-82365370D01*
X52424048Y-82365370D02*
X52385952Y-82460608D01*
X52385952Y-82460608D02*
X52347857Y-82508228D01*
X52347857Y-82508228D02*
X52271667Y-82555847D01*
X52271667Y-82555847D02*
X51966905Y-82555847D01*
X51966905Y-82555847D02*
X51966905Y-81555847D01*
X51966905Y-81555847D02*
X52233571Y-81555847D01*
X52233571Y-81555847D02*
X52309762Y-81603466D01*
X52309762Y-81603466D02*
X52347857Y-81651085D01*
X52347857Y-81651085D02*
X52385952Y-81746323D01*
X52385952Y-81746323D02*
X52385952Y-81841561D01*
X52385952Y-81841561D02*
X52347857Y-81936799D01*
X52347857Y-81936799D02*
X52309762Y-81984418D01*
X52309762Y-81984418D02*
X52233571Y-82032037D01*
X52233571Y-82032037D02*
X51966905Y-82032037D01*
X53109762Y-82555847D02*
X53109762Y-82032037D01*
X53109762Y-82032037D02*
X53071667Y-81936799D01*
X53071667Y-81936799D02*
X52995476Y-81889180D01*
X52995476Y-81889180D02*
X52843095Y-81889180D01*
X52843095Y-81889180D02*
X52766905Y-81936799D01*
X53109762Y-82508228D02*
X53033571Y-82555847D01*
X53033571Y-82555847D02*
X52843095Y-82555847D01*
X52843095Y-82555847D02*
X52766905Y-82508228D01*
X52766905Y-82508228D02*
X52728809Y-82412989D01*
X52728809Y-82412989D02*
X52728809Y-82317751D01*
X52728809Y-82317751D02*
X52766905Y-82222513D01*
X52766905Y-82222513D02*
X52843095Y-82174894D01*
X52843095Y-82174894D02*
X53033571Y-82174894D01*
X53033571Y-82174894D02*
X53109762Y-82127275D01*
X53833572Y-82508228D02*
X53757381Y-82555847D01*
X53757381Y-82555847D02*
X53605000Y-82555847D01*
X53605000Y-82555847D02*
X53528810Y-82508228D01*
X53528810Y-82508228D02*
X53490715Y-82460608D01*
X53490715Y-82460608D02*
X53452619Y-82365370D01*
X53452619Y-82365370D02*
X53452619Y-82079656D01*
X53452619Y-82079656D02*
X53490715Y-81984418D01*
X53490715Y-81984418D02*
X53528810Y-81936799D01*
X53528810Y-81936799D02*
X53605000Y-81889180D01*
X53605000Y-81889180D02*
X53757381Y-81889180D01*
X53757381Y-81889180D02*
X53833572Y-81936799D01*
X54176429Y-82555847D02*
X54176429Y-81555847D01*
X54252619Y-82174894D02*
X54481191Y-82555847D01*
X54481191Y-81889180D02*
X54176429Y-82270132D01*
X52043095Y-84118172D02*
X51966904Y-84165791D01*
X51966904Y-84165791D02*
X51814523Y-84165791D01*
X51814523Y-84165791D02*
X51738333Y-84118172D01*
X51738333Y-84118172D02*
X51700237Y-84022933D01*
X51700237Y-84022933D02*
X51700237Y-83641981D01*
X51700237Y-83641981D02*
X51738333Y-83546743D01*
X51738333Y-83546743D02*
X51814523Y-83499124D01*
X51814523Y-83499124D02*
X51966904Y-83499124D01*
X51966904Y-83499124D02*
X52043095Y-83546743D01*
X52043095Y-83546743D02*
X52081190Y-83641981D01*
X52081190Y-83641981D02*
X52081190Y-83737219D01*
X52081190Y-83737219D02*
X51700237Y-83832457D01*
X52424047Y-84165791D02*
X52424047Y-83165791D01*
X52424047Y-83165791D02*
X52690713Y-83880076D01*
X52690713Y-83880076D02*
X52957380Y-83165791D01*
X52957380Y-83165791D02*
X52957380Y-84165791D01*
X53338333Y-84165791D02*
X53338333Y-83165791D01*
X53338333Y-83165791D02*
X53604999Y-83880076D01*
X53604999Y-83880076D02*
X53871666Y-83165791D01*
X53871666Y-83165791D02*
X53871666Y-84165791D01*
X54709762Y-84070552D02*
X54671666Y-84118172D01*
X54671666Y-84118172D02*
X54557381Y-84165791D01*
X54557381Y-84165791D02*
X54481190Y-84165791D01*
X54481190Y-84165791D02*
X54366904Y-84118172D01*
X54366904Y-84118172D02*
X54290714Y-84022933D01*
X54290714Y-84022933D02*
X54252619Y-83927695D01*
X54252619Y-83927695D02*
X54214523Y-83737219D01*
X54214523Y-83737219D02*
X54214523Y-83594362D01*
X54214523Y-83594362D02*
X54252619Y-83403886D01*
X54252619Y-83403886D02*
X54290714Y-83308648D01*
X54290714Y-83308648D02*
X54366904Y-83213410D01*
X54366904Y-83213410D02*
X54481190Y-83165791D01*
X54481190Y-83165791D02*
X54557381Y-83165791D01*
X54557381Y-83165791D02*
X54671666Y-83213410D01*
X54671666Y-83213410D02*
X54709762Y-83261029D01*
X53325714Y-13129819D02*
X52944762Y-13129819D01*
X52944762Y-13129819D02*
X52944762Y-12129819D01*
X54011428Y-13129819D02*
X53554285Y-13129819D01*
X53782857Y-13129819D02*
X53782857Y-12129819D01*
X53782857Y-12129819D02*
X53706666Y-12272676D01*
X53706666Y-12272676D02*
X53630476Y-12367914D01*
X53630476Y-12367914D02*
X53554285Y-12415533D01*
X54735238Y-12129819D02*
X54354286Y-12129819D01*
X54354286Y-12129819D02*
X54316190Y-12606009D01*
X54316190Y-12606009D02*
X54354286Y-12558390D01*
X54354286Y-12558390D02*
X54430476Y-12510771D01*
X54430476Y-12510771D02*
X54620952Y-12510771D01*
X54620952Y-12510771D02*
X54697143Y-12558390D01*
X54697143Y-12558390D02*
X54735238Y-12606009D01*
X54735238Y-12606009D02*
X54773333Y-12701247D01*
X54773333Y-12701247D02*
X54773333Y-12939342D01*
X54773333Y-12939342D02*
X54735238Y-13034580D01*
X54735238Y-13034580D02*
X54697143Y-13082200D01*
X54697143Y-13082200D02*
X54620952Y-13129819D01*
X54620952Y-13129819D02*
X54430476Y-13129819D01*
X54430476Y-13129819D02*
X54354286Y-13082200D01*
X54354286Y-13082200D02*
X54316190Y-13034580D01*
X55865714Y-13129819D02*
X55484762Y-13129819D01*
X55484762Y-13129819D02*
X55484762Y-12129819D01*
X56551428Y-13129819D02*
X56094285Y-13129819D01*
X56322857Y-13129819D02*
X56322857Y-12129819D01*
X56322857Y-12129819D02*
X56246666Y-12272676D01*
X56246666Y-12272676D02*
X56170476Y-12367914D01*
X56170476Y-12367914D02*
X56094285Y-12415533D01*
X57237143Y-12129819D02*
X57084762Y-12129819D01*
X57084762Y-12129819D02*
X57008571Y-12177438D01*
X57008571Y-12177438D02*
X56970476Y-12225057D01*
X56970476Y-12225057D02*
X56894286Y-12367914D01*
X56894286Y-12367914D02*
X56856190Y-12558390D01*
X56856190Y-12558390D02*
X56856190Y-12939342D01*
X56856190Y-12939342D02*
X56894286Y-13034580D01*
X56894286Y-13034580D02*
X56932381Y-13082200D01*
X56932381Y-13082200D02*
X57008571Y-13129819D01*
X57008571Y-13129819D02*
X57160952Y-13129819D01*
X57160952Y-13129819D02*
X57237143Y-13082200D01*
X57237143Y-13082200D02*
X57275238Y-13034580D01*
X57275238Y-13034580D02*
X57313333Y-12939342D01*
X57313333Y-12939342D02*
X57313333Y-12701247D01*
X57313333Y-12701247D02*
X57275238Y-12606009D01*
X57275238Y-12606009D02*
X57237143Y-12558390D01*
X57237143Y-12558390D02*
X57160952Y-12510771D01*
X57160952Y-12510771D02*
X57008571Y-12510771D01*
X57008571Y-12510771D02*
X56932381Y-12558390D01*
X56932381Y-12558390D02*
X56894286Y-12606009D01*
X56894286Y-12606009D02*
X56856190Y-12701247D01*
X56183285Y-82032037D02*
X55916619Y-82032037D01*
X55916619Y-82555847D02*
X55916619Y-81555847D01*
X55916619Y-81555847D02*
X56297571Y-81555847D01*
X56602333Y-82555847D02*
X56602333Y-81889180D01*
X56602333Y-82079656D02*
X56640428Y-81984418D01*
X56640428Y-81984418D02*
X56678523Y-81936799D01*
X56678523Y-81936799D02*
X56754714Y-81889180D01*
X56754714Y-81889180D02*
X56830904Y-81889180D01*
X57211856Y-82555847D02*
X57135666Y-82508228D01*
X57135666Y-82508228D02*
X57097571Y-82460608D01*
X57097571Y-82460608D02*
X57059475Y-82365370D01*
X57059475Y-82365370D02*
X57059475Y-82079656D01*
X57059475Y-82079656D02*
X57097571Y-81984418D01*
X57097571Y-81984418D02*
X57135666Y-81936799D01*
X57135666Y-81936799D02*
X57211856Y-81889180D01*
X57211856Y-81889180D02*
X57326142Y-81889180D01*
X57326142Y-81889180D02*
X57402333Y-81936799D01*
X57402333Y-81936799D02*
X57440428Y-81984418D01*
X57440428Y-81984418D02*
X57478523Y-82079656D01*
X57478523Y-82079656D02*
X57478523Y-82365370D01*
X57478523Y-82365370D02*
X57440428Y-82460608D01*
X57440428Y-82460608D02*
X57402333Y-82508228D01*
X57402333Y-82508228D02*
X57326142Y-82555847D01*
X57326142Y-82555847D02*
X57211856Y-82555847D01*
X57821381Y-81889180D02*
X57821381Y-82555847D01*
X57821381Y-81984418D02*
X57859476Y-81936799D01*
X57859476Y-81936799D02*
X57935666Y-81889180D01*
X57935666Y-81889180D02*
X58049952Y-81889180D01*
X58049952Y-81889180D02*
X58126143Y-81936799D01*
X58126143Y-81936799D02*
X58164238Y-82032037D01*
X58164238Y-82032037D02*
X58164238Y-82555847D01*
X58430905Y-81889180D02*
X58735667Y-81889180D01*
X58545191Y-81555847D02*
X58545191Y-82412989D01*
X58545191Y-82412989D02*
X58583286Y-82508228D01*
X58583286Y-82508228D02*
X58659476Y-82555847D01*
X58659476Y-82555847D02*
X58735667Y-82555847D01*
X56640428Y-84118172D02*
X56754714Y-84165791D01*
X56754714Y-84165791D02*
X56945190Y-84165791D01*
X56945190Y-84165791D02*
X57021381Y-84118172D01*
X57021381Y-84118172D02*
X57059476Y-84070552D01*
X57059476Y-84070552D02*
X57097571Y-83975314D01*
X57097571Y-83975314D02*
X57097571Y-83880076D01*
X57097571Y-83880076D02*
X57059476Y-83784838D01*
X57059476Y-83784838D02*
X57021381Y-83737219D01*
X57021381Y-83737219D02*
X56945190Y-83689600D01*
X56945190Y-83689600D02*
X56792809Y-83641981D01*
X56792809Y-83641981D02*
X56716619Y-83594362D01*
X56716619Y-83594362D02*
X56678524Y-83546743D01*
X56678524Y-83546743D02*
X56640428Y-83451505D01*
X56640428Y-83451505D02*
X56640428Y-83356267D01*
X56640428Y-83356267D02*
X56678524Y-83261029D01*
X56678524Y-83261029D02*
X56716619Y-83213410D01*
X56716619Y-83213410D02*
X56792809Y-83165791D01*
X56792809Y-83165791D02*
X56983286Y-83165791D01*
X56983286Y-83165791D02*
X57097571Y-83213410D01*
X57440429Y-84165791D02*
X57440429Y-83165791D01*
X57440429Y-83165791D02*
X57630905Y-83165791D01*
X57630905Y-83165791D02*
X57745191Y-83213410D01*
X57745191Y-83213410D02*
X57821381Y-83308648D01*
X57821381Y-83308648D02*
X57859476Y-83403886D01*
X57859476Y-83403886D02*
X57897572Y-83594362D01*
X57897572Y-83594362D02*
X57897572Y-83737219D01*
X57897572Y-83737219D02*
X57859476Y-83927695D01*
X57859476Y-83927695D02*
X57821381Y-84022933D01*
X57821381Y-84022933D02*
X57745191Y-84118172D01*
X57745191Y-84118172D02*
X57630905Y-84165791D01*
X57630905Y-84165791D02*
X57440429Y-84165791D01*
X53601791Y-59437200D02*
X53716077Y-59484819D01*
X53716077Y-59484819D02*
X53906553Y-59484819D01*
X53906553Y-59484819D02*
X53982744Y-59437200D01*
X53982744Y-59437200D02*
X54020839Y-59389580D01*
X54020839Y-59389580D02*
X54058934Y-59294342D01*
X54058934Y-59294342D02*
X54058934Y-59199104D01*
X54058934Y-59199104D02*
X54020839Y-59103866D01*
X54020839Y-59103866D02*
X53982744Y-59056247D01*
X53982744Y-59056247D02*
X53906553Y-59008628D01*
X53906553Y-59008628D02*
X53754172Y-58961009D01*
X53754172Y-58961009D02*
X53677982Y-58913390D01*
X53677982Y-58913390D02*
X53639887Y-58865771D01*
X53639887Y-58865771D02*
X53601791Y-58770533D01*
X53601791Y-58770533D02*
X53601791Y-58675295D01*
X53601791Y-58675295D02*
X53639887Y-58580057D01*
X53639887Y-58580057D02*
X53677982Y-58532438D01*
X53677982Y-58532438D02*
X53754172Y-58484819D01*
X53754172Y-58484819D02*
X53944649Y-58484819D01*
X53944649Y-58484819D02*
X54058934Y-58532438D01*
X54401792Y-59484819D02*
X54401792Y-58484819D01*
X54401792Y-58484819D02*
X54592268Y-58484819D01*
X54592268Y-58484819D02*
X54706554Y-58532438D01*
X54706554Y-58532438D02*
X54782744Y-58627676D01*
X54782744Y-58627676D02*
X54820839Y-58722914D01*
X54820839Y-58722914D02*
X54858935Y-58913390D01*
X54858935Y-58913390D02*
X54858935Y-59056247D01*
X54858935Y-59056247D02*
X54820839Y-59246723D01*
X54820839Y-59246723D02*
X54782744Y-59341961D01*
X54782744Y-59341961D02*
X54706554Y-59437200D01*
X54706554Y-59437200D02*
X54592268Y-59484819D01*
X54592268Y-59484819D02*
X54401792Y-59484819D01*
X56179887Y-18844819D02*
X56179887Y-17844819D01*
X56179887Y-17844819D02*
X56484649Y-17844819D01*
X56484649Y-17844819D02*
X56560839Y-17892438D01*
X56560839Y-17892438D02*
X56598934Y-17940057D01*
X56598934Y-17940057D02*
X56637030Y-18035295D01*
X56637030Y-18035295D02*
X56637030Y-18178152D01*
X56637030Y-18178152D02*
X56598934Y-18273390D01*
X56598934Y-18273390D02*
X56560839Y-18321009D01*
X56560839Y-18321009D02*
X56484649Y-18368628D01*
X56484649Y-18368628D02*
X56179887Y-18368628D01*
X57398934Y-18844819D02*
X56941791Y-18844819D01*
X57170363Y-18844819D02*
X57170363Y-17844819D01*
X57170363Y-17844819D02*
X57094172Y-17987676D01*
X57094172Y-17987676D02*
X57017982Y-18082914D01*
X57017982Y-18082914D02*
X56941791Y-18130533D01*
X56179887Y-21384819D02*
X56179887Y-20384819D01*
X56179887Y-20384819D02*
X56484649Y-20384819D01*
X56484649Y-20384819D02*
X56560839Y-20432438D01*
X56560839Y-20432438D02*
X56598934Y-20480057D01*
X56598934Y-20480057D02*
X56637030Y-20575295D01*
X56637030Y-20575295D02*
X56637030Y-20718152D01*
X56637030Y-20718152D02*
X56598934Y-20813390D01*
X56598934Y-20813390D02*
X56560839Y-20861009D01*
X56560839Y-20861009D02*
X56484649Y-20908628D01*
X56484649Y-20908628D02*
X56179887Y-20908628D01*
X56941791Y-20480057D02*
X56979887Y-20432438D01*
X56979887Y-20432438D02*
X57056077Y-20384819D01*
X57056077Y-20384819D02*
X57246553Y-20384819D01*
X57246553Y-20384819D02*
X57322744Y-20432438D01*
X57322744Y-20432438D02*
X57360839Y-20480057D01*
X57360839Y-20480057D02*
X57398934Y-20575295D01*
X57398934Y-20575295D02*
X57398934Y-20670533D01*
X57398934Y-20670533D02*
X57360839Y-20813390D01*
X57360839Y-20813390D02*
X56903696Y-21384819D01*
X56903696Y-21384819D02*
X57398934Y-21384819D01*
X56179887Y-23924819D02*
X56179887Y-22924819D01*
X56179887Y-22924819D02*
X56484649Y-22924819D01*
X56484649Y-22924819D02*
X56560839Y-22972438D01*
X56560839Y-22972438D02*
X56598934Y-23020057D01*
X56598934Y-23020057D02*
X56637030Y-23115295D01*
X56637030Y-23115295D02*
X56637030Y-23258152D01*
X56637030Y-23258152D02*
X56598934Y-23353390D01*
X56598934Y-23353390D02*
X56560839Y-23401009D01*
X56560839Y-23401009D02*
X56484649Y-23448628D01*
X56484649Y-23448628D02*
X56179887Y-23448628D01*
X56903696Y-22924819D02*
X57398934Y-22924819D01*
X57398934Y-22924819D02*
X57132268Y-23305771D01*
X57132268Y-23305771D02*
X57246553Y-23305771D01*
X57246553Y-23305771D02*
X57322744Y-23353390D01*
X57322744Y-23353390D02*
X57360839Y-23401009D01*
X57360839Y-23401009D02*
X57398934Y-23496247D01*
X57398934Y-23496247D02*
X57398934Y-23734342D01*
X57398934Y-23734342D02*
X57360839Y-23829580D01*
X57360839Y-23829580D02*
X57322744Y-23877200D01*
X57322744Y-23877200D02*
X57246553Y-23924819D01*
X57246553Y-23924819D02*
X57017982Y-23924819D01*
X57017982Y-23924819D02*
X56941791Y-23877200D01*
X56941791Y-23877200D02*
X56903696Y-23829580D01*
X56179887Y-26464819D02*
X56179887Y-25464819D01*
X56179887Y-25464819D02*
X56484649Y-25464819D01*
X56484649Y-25464819D02*
X56560839Y-25512438D01*
X56560839Y-25512438D02*
X56598934Y-25560057D01*
X56598934Y-25560057D02*
X56637030Y-25655295D01*
X56637030Y-25655295D02*
X56637030Y-25798152D01*
X56637030Y-25798152D02*
X56598934Y-25893390D01*
X56598934Y-25893390D02*
X56560839Y-25941009D01*
X56560839Y-25941009D02*
X56484649Y-25988628D01*
X56484649Y-25988628D02*
X56179887Y-25988628D01*
X57322744Y-25798152D02*
X57322744Y-26464819D01*
X57132268Y-25417200D02*
X56941791Y-26131485D01*
X56941791Y-26131485D02*
X57437030Y-26131485D01*
X56179887Y-29004819D02*
X56179887Y-28004819D01*
X56179887Y-28004819D02*
X56484649Y-28004819D01*
X56484649Y-28004819D02*
X56560839Y-28052438D01*
X56560839Y-28052438D02*
X56598934Y-28100057D01*
X56598934Y-28100057D02*
X56637030Y-28195295D01*
X56637030Y-28195295D02*
X56637030Y-28338152D01*
X56637030Y-28338152D02*
X56598934Y-28433390D01*
X56598934Y-28433390D02*
X56560839Y-28481009D01*
X56560839Y-28481009D02*
X56484649Y-28528628D01*
X56484649Y-28528628D02*
X56179887Y-28528628D01*
X57360839Y-28004819D02*
X56979887Y-28004819D01*
X56979887Y-28004819D02*
X56941791Y-28481009D01*
X56941791Y-28481009D02*
X56979887Y-28433390D01*
X56979887Y-28433390D02*
X57056077Y-28385771D01*
X57056077Y-28385771D02*
X57246553Y-28385771D01*
X57246553Y-28385771D02*
X57322744Y-28433390D01*
X57322744Y-28433390D02*
X57360839Y-28481009D01*
X57360839Y-28481009D02*
X57398934Y-28576247D01*
X57398934Y-28576247D02*
X57398934Y-28814342D01*
X57398934Y-28814342D02*
X57360839Y-28909580D01*
X57360839Y-28909580D02*
X57322744Y-28957200D01*
X57322744Y-28957200D02*
X57246553Y-29004819D01*
X57246553Y-29004819D02*
X57056077Y-29004819D01*
X57056077Y-29004819D02*
X56979887Y-28957200D01*
X56979887Y-28957200D02*
X56941791Y-28909580D01*
X56179887Y-31544819D02*
X56179887Y-30544819D01*
X56179887Y-30544819D02*
X56484649Y-30544819D01*
X56484649Y-30544819D02*
X56560839Y-30592438D01*
X56560839Y-30592438D02*
X56598934Y-30640057D01*
X56598934Y-30640057D02*
X56637030Y-30735295D01*
X56637030Y-30735295D02*
X56637030Y-30878152D01*
X56637030Y-30878152D02*
X56598934Y-30973390D01*
X56598934Y-30973390D02*
X56560839Y-31021009D01*
X56560839Y-31021009D02*
X56484649Y-31068628D01*
X56484649Y-31068628D02*
X56179887Y-31068628D01*
X57322744Y-30544819D02*
X57170363Y-30544819D01*
X57170363Y-30544819D02*
X57094172Y-30592438D01*
X57094172Y-30592438D02*
X57056077Y-30640057D01*
X57056077Y-30640057D02*
X56979887Y-30782914D01*
X56979887Y-30782914D02*
X56941791Y-30973390D01*
X56941791Y-30973390D02*
X56941791Y-31354342D01*
X56941791Y-31354342D02*
X56979887Y-31449580D01*
X56979887Y-31449580D02*
X57017982Y-31497200D01*
X57017982Y-31497200D02*
X57094172Y-31544819D01*
X57094172Y-31544819D02*
X57246553Y-31544819D01*
X57246553Y-31544819D02*
X57322744Y-31497200D01*
X57322744Y-31497200D02*
X57360839Y-31449580D01*
X57360839Y-31449580D02*
X57398934Y-31354342D01*
X57398934Y-31354342D02*
X57398934Y-31116247D01*
X57398934Y-31116247D02*
X57360839Y-31021009D01*
X57360839Y-31021009D02*
X57322744Y-30973390D01*
X57322744Y-30973390D02*
X57246553Y-30925771D01*
X57246553Y-30925771D02*
X57094172Y-30925771D01*
X57094172Y-30925771D02*
X57017982Y-30973390D01*
X57017982Y-30973390D02*
X56979887Y-31021009D01*
X56979887Y-31021009D02*
X56941791Y-31116247D01*
X56179887Y-34084819D02*
X56179887Y-33084819D01*
X56179887Y-33084819D02*
X56484649Y-33084819D01*
X56484649Y-33084819D02*
X56560839Y-33132438D01*
X56560839Y-33132438D02*
X56598934Y-33180057D01*
X56598934Y-33180057D02*
X56637030Y-33275295D01*
X56637030Y-33275295D02*
X56637030Y-33418152D01*
X56637030Y-33418152D02*
X56598934Y-33513390D01*
X56598934Y-33513390D02*
X56560839Y-33561009D01*
X56560839Y-33561009D02*
X56484649Y-33608628D01*
X56484649Y-33608628D02*
X56179887Y-33608628D01*
X56903696Y-33084819D02*
X57437030Y-33084819D01*
X57437030Y-33084819D02*
X57094172Y-34084819D01*
X56179887Y-36624819D02*
X56179887Y-35624819D01*
X56179887Y-35624819D02*
X56484649Y-35624819D01*
X56484649Y-35624819D02*
X56560839Y-35672438D01*
X56560839Y-35672438D02*
X56598934Y-35720057D01*
X56598934Y-35720057D02*
X56637030Y-35815295D01*
X56637030Y-35815295D02*
X56637030Y-35958152D01*
X56637030Y-35958152D02*
X56598934Y-36053390D01*
X56598934Y-36053390D02*
X56560839Y-36101009D01*
X56560839Y-36101009D02*
X56484649Y-36148628D01*
X56484649Y-36148628D02*
X56179887Y-36148628D01*
X57094172Y-36053390D02*
X57017982Y-36005771D01*
X57017982Y-36005771D02*
X56979887Y-35958152D01*
X56979887Y-35958152D02*
X56941791Y-35862914D01*
X56941791Y-35862914D02*
X56941791Y-35815295D01*
X56941791Y-35815295D02*
X56979887Y-35720057D01*
X56979887Y-35720057D02*
X57017982Y-35672438D01*
X57017982Y-35672438D02*
X57094172Y-35624819D01*
X57094172Y-35624819D02*
X57246553Y-35624819D01*
X57246553Y-35624819D02*
X57322744Y-35672438D01*
X57322744Y-35672438D02*
X57360839Y-35720057D01*
X57360839Y-35720057D02*
X57398934Y-35815295D01*
X57398934Y-35815295D02*
X57398934Y-35862914D01*
X57398934Y-35862914D02*
X57360839Y-35958152D01*
X57360839Y-35958152D02*
X57322744Y-36005771D01*
X57322744Y-36005771D02*
X57246553Y-36053390D01*
X57246553Y-36053390D02*
X57094172Y-36053390D01*
X57094172Y-36053390D02*
X57017982Y-36101009D01*
X57017982Y-36101009D02*
X56979887Y-36148628D01*
X56979887Y-36148628D02*
X56941791Y-36243866D01*
X56941791Y-36243866D02*
X56941791Y-36434342D01*
X56941791Y-36434342D02*
X56979887Y-36529580D01*
X56979887Y-36529580D02*
X57017982Y-36577200D01*
X57017982Y-36577200D02*
X57094172Y-36624819D01*
X57094172Y-36624819D02*
X57246553Y-36624819D01*
X57246553Y-36624819D02*
X57322744Y-36577200D01*
X57322744Y-36577200D02*
X57360839Y-36529580D01*
X57360839Y-36529580D02*
X57398934Y-36434342D01*
X57398934Y-36434342D02*
X57398934Y-36243866D01*
X57398934Y-36243866D02*
X57360839Y-36148628D01*
X57360839Y-36148628D02*
X57322744Y-36101009D01*
X57322744Y-36101009D02*
X57246553Y-36053390D01*
X56179887Y-39164819D02*
X56179887Y-38164819D01*
X56179887Y-38164819D02*
X56484649Y-38164819D01*
X56484649Y-38164819D02*
X56560839Y-38212438D01*
X56560839Y-38212438D02*
X56598934Y-38260057D01*
X56598934Y-38260057D02*
X56637030Y-38355295D01*
X56637030Y-38355295D02*
X56637030Y-38498152D01*
X56637030Y-38498152D02*
X56598934Y-38593390D01*
X56598934Y-38593390D02*
X56560839Y-38641009D01*
X56560839Y-38641009D02*
X56484649Y-38688628D01*
X56484649Y-38688628D02*
X56179887Y-38688628D01*
X57017982Y-39164819D02*
X57170363Y-39164819D01*
X57170363Y-39164819D02*
X57246553Y-39117200D01*
X57246553Y-39117200D02*
X57284649Y-39069580D01*
X57284649Y-39069580D02*
X57360839Y-38926723D01*
X57360839Y-38926723D02*
X57398934Y-38736247D01*
X57398934Y-38736247D02*
X57398934Y-38355295D01*
X57398934Y-38355295D02*
X57360839Y-38260057D01*
X57360839Y-38260057D02*
X57322744Y-38212438D01*
X57322744Y-38212438D02*
X57246553Y-38164819D01*
X57246553Y-38164819D02*
X57094172Y-38164819D01*
X57094172Y-38164819D02*
X57017982Y-38212438D01*
X57017982Y-38212438D02*
X56979887Y-38260057D01*
X56979887Y-38260057D02*
X56941791Y-38355295D01*
X56941791Y-38355295D02*
X56941791Y-38593390D01*
X56941791Y-38593390D02*
X56979887Y-38688628D01*
X56979887Y-38688628D02*
X57017982Y-38736247D01*
X57017982Y-38736247D02*
X57094172Y-38783866D01*
X57094172Y-38783866D02*
X57246553Y-38783866D01*
X57246553Y-38783866D02*
X57322744Y-38736247D01*
X57322744Y-38736247D02*
X57360839Y-38688628D01*
X57360839Y-38688628D02*
X57398934Y-38593390D01*
X55417982Y-41704819D02*
X55417982Y-40704819D01*
X55417982Y-40704819D02*
X55722744Y-40704819D01*
X55722744Y-40704819D02*
X55798934Y-40752438D01*
X55798934Y-40752438D02*
X55837029Y-40800057D01*
X55837029Y-40800057D02*
X55875125Y-40895295D01*
X55875125Y-40895295D02*
X55875125Y-41038152D01*
X55875125Y-41038152D02*
X55837029Y-41133390D01*
X55837029Y-41133390D02*
X55798934Y-41181009D01*
X55798934Y-41181009D02*
X55722744Y-41228628D01*
X55722744Y-41228628D02*
X55417982Y-41228628D01*
X56637029Y-41704819D02*
X56179886Y-41704819D01*
X56408458Y-41704819D02*
X56408458Y-40704819D01*
X56408458Y-40704819D02*
X56332267Y-40847676D01*
X56332267Y-40847676D02*
X56256077Y-40942914D01*
X56256077Y-40942914D02*
X56179886Y-40990533D01*
X57132268Y-40704819D02*
X57208458Y-40704819D01*
X57208458Y-40704819D02*
X57284649Y-40752438D01*
X57284649Y-40752438D02*
X57322744Y-40800057D01*
X57322744Y-40800057D02*
X57360839Y-40895295D01*
X57360839Y-40895295D02*
X57398934Y-41085771D01*
X57398934Y-41085771D02*
X57398934Y-41323866D01*
X57398934Y-41323866D02*
X57360839Y-41514342D01*
X57360839Y-41514342D02*
X57322744Y-41609580D01*
X57322744Y-41609580D02*
X57284649Y-41657200D01*
X57284649Y-41657200D02*
X57208458Y-41704819D01*
X57208458Y-41704819D02*
X57132268Y-41704819D01*
X57132268Y-41704819D02*
X57056077Y-41657200D01*
X57056077Y-41657200D02*
X57017982Y-41609580D01*
X57017982Y-41609580D02*
X56979887Y-41514342D01*
X56979887Y-41514342D02*
X56941791Y-41323866D01*
X56941791Y-41323866D02*
X56941791Y-41085771D01*
X56941791Y-41085771D02*
X56979887Y-40895295D01*
X56979887Y-40895295D02*
X57017982Y-40800057D01*
X57017982Y-40800057D02*
X57056077Y-40752438D01*
X57056077Y-40752438D02*
X57132268Y-40704819D01*
X55417982Y-44244819D02*
X55417982Y-43244819D01*
X55417982Y-43244819D02*
X55722744Y-43244819D01*
X55722744Y-43244819D02*
X55798934Y-43292438D01*
X55798934Y-43292438D02*
X55837029Y-43340057D01*
X55837029Y-43340057D02*
X55875125Y-43435295D01*
X55875125Y-43435295D02*
X55875125Y-43578152D01*
X55875125Y-43578152D02*
X55837029Y-43673390D01*
X55837029Y-43673390D02*
X55798934Y-43721009D01*
X55798934Y-43721009D02*
X55722744Y-43768628D01*
X55722744Y-43768628D02*
X55417982Y-43768628D01*
X56637029Y-44244819D02*
X56179886Y-44244819D01*
X56408458Y-44244819D02*
X56408458Y-43244819D01*
X56408458Y-43244819D02*
X56332267Y-43387676D01*
X56332267Y-43387676D02*
X56256077Y-43482914D01*
X56256077Y-43482914D02*
X56179886Y-43530533D01*
X57398934Y-44244819D02*
X56941791Y-44244819D01*
X57170363Y-44244819D02*
X57170363Y-43244819D01*
X57170363Y-43244819D02*
X57094172Y-43387676D01*
X57094172Y-43387676D02*
X57017982Y-43482914D01*
X57017982Y-43482914D02*
X56941791Y-43530533D01*
X55417982Y-46784819D02*
X55417982Y-45784819D01*
X55417982Y-45784819D02*
X55722744Y-45784819D01*
X55722744Y-45784819D02*
X55798934Y-45832438D01*
X55798934Y-45832438D02*
X55837029Y-45880057D01*
X55837029Y-45880057D02*
X55875125Y-45975295D01*
X55875125Y-45975295D02*
X55875125Y-46118152D01*
X55875125Y-46118152D02*
X55837029Y-46213390D01*
X55837029Y-46213390D02*
X55798934Y-46261009D01*
X55798934Y-46261009D02*
X55722744Y-46308628D01*
X55722744Y-46308628D02*
X55417982Y-46308628D01*
X56637029Y-46784819D02*
X56179886Y-46784819D01*
X56408458Y-46784819D02*
X56408458Y-45784819D01*
X56408458Y-45784819D02*
X56332267Y-45927676D01*
X56332267Y-45927676D02*
X56256077Y-46022914D01*
X56256077Y-46022914D02*
X56179886Y-46070533D01*
X56941791Y-45880057D02*
X56979887Y-45832438D01*
X56979887Y-45832438D02*
X57056077Y-45784819D01*
X57056077Y-45784819D02*
X57246553Y-45784819D01*
X57246553Y-45784819D02*
X57322744Y-45832438D01*
X57322744Y-45832438D02*
X57360839Y-45880057D01*
X57360839Y-45880057D02*
X57398934Y-45975295D01*
X57398934Y-45975295D02*
X57398934Y-46070533D01*
X57398934Y-46070533D02*
X57360839Y-46213390D01*
X57360839Y-46213390D02*
X56903696Y-46784819D01*
X56903696Y-46784819D02*
X57398934Y-46784819D01*
X55456077Y-50864819D02*
X55951315Y-50864819D01*
X55951315Y-50864819D02*
X55684649Y-51245771D01*
X55684649Y-51245771D02*
X55798934Y-51245771D01*
X55798934Y-51245771D02*
X55875125Y-51293390D01*
X55875125Y-51293390D02*
X55913220Y-51341009D01*
X55913220Y-51341009D02*
X55951315Y-51436247D01*
X55951315Y-51436247D02*
X55951315Y-51674342D01*
X55951315Y-51674342D02*
X55913220Y-51769580D01*
X55913220Y-51769580D02*
X55875125Y-51817200D01*
X55875125Y-51817200D02*
X55798934Y-51864819D01*
X55798934Y-51864819D02*
X55570363Y-51864819D01*
X55570363Y-51864819D02*
X55494172Y-51817200D01*
X55494172Y-51817200D02*
X55456077Y-51769580D01*
X56179887Y-50864819D02*
X56446554Y-51864819D01*
X56446554Y-51864819D02*
X56713220Y-50864819D01*
X56903696Y-50864819D02*
X57398934Y-50864819D01*
X57398934Y-50864819D02*
X57132268Y-51245771D01*
X57132268Y-51245771D02*
X57246553Y-51245771D01*
X57246553Y-51245771D02*
X57322744Y-51293390D01*
X57322744Y-51293390D02*
X57360839Y-51341009D01*
X57360839Y-51341009D02*
X57398934Y-51436247D01*
X57398934Y-51436247D02*
X57398934Y-51674342D01*
X57398934Y-51674342D02*
X57360839Y-51769580D01*
X57360839Y-51769580D02*
X57322744Y-51817200D01*
X57322744Y-51817200D02*
X57246553Y-51864819D01*
X57246553Y-51864819D02*
X57017982Y-51864819D01*
X57017982Y-51864819D02*
X56941791Y-51817200D01*
X56941791Y-51817200D02*
X56903696Y-51769580D01*
X55722744Y-53452438D02*
X55646554Y-53404819D01*
X55646554Y-53404819D02*
X55532268Y-53404819D01*
X55532268Y-53404819D02*
X55417982Y-53452438D01*
X55417982Y-53452438D02*
X55341792Y-53547676D01*
X55341792Y-53547676D02*
X55303697Y-53642914D01*
X55303697Y-53642914D02*
X55265601Y-53833390D01*
X55265601Y-53833390D02*
X55265601Y-53976247D01*
X55265601Y-53976247D02*
X55303697Y-54166723D01*
X55303697Y-54166723D02*
X55341792Y-54261961D01*
X55341792Y-54261961D02*
X55417982Y-54357200D01*
X55417982Y-54357200D02*
X55532268Y-54404819D01*
X55532268Y-54404819D02*
X55608459Y-54404819D01*
X55608459Y-54404819D02*
X55722744Y-54357200D01*
X55722744Y-54357200D02*
X55760840Y-54309580D01*
X55760840Y-54309580D02*
X55760840Y-53976247D01*
X55760840Y-53976247D02*
X55608459Y-53976247D01*
X56103697Y-54404819D02*
X56103697Y-53404819D01*
X56103697Y-53404819D02*
X56560840Y-54404819D01*
X56560840Y-54404819D02*
X56560840Y-53404819D01*
X56941792Y-54404819D02*
X56941792Y-53404819D01*
X56941792Y-53404819D02*
X57132268Y-53404819D01*
X57132268Y-53404819D02*
X57246554Y-53452438D01*
X57246554Y-53452438D02*
X57322744Y-53547676D01*
X57322744Y-53547676D02*
X57360839Y-53642914D01*
X57360839Y-53642914D02*
X57398935Y-53833390D01*
X57398935Y-53833390D02*
X57398935Y-53976247D01*
X57398935Y-53976247D02*
X57360839Y-54166723D01*
X57360839Y-54166723D02*
X57322744Y-54261961D01*
X57322744Y-54261961D02*
X57246554Y-54357200D01*
X57246554Y-54357200D02*
X57132268Y-54404819D01*
X57132268Y-54404819D02*
X56941792Y-54404819D01*
X56179887Y-59484819D02*
X56179887Y-58484819D01*
X56179887Y-58484819D02*
X56370363Y-58484819D01*
X56370363Y-58484819D02*
X56484649Y-58532438D01*
X56484649Y-58532438D02*
X56560839Y-58627676D01*
X56560839Y-58627676D02*
X56598934Y-58722914D01*
X56598934Y-58722914D02*
X56637030Y-58913390D01*
X56637030Y-58913390D02*
X56637030Y-59056247D01*
X56637030Y-59056247D02*
X56598934Y-59246723D01*
X56598934Y-59246723D02*
X56560839Y-59341961D01*
X56560839Y-59341961D02*
X56484649Y-59437200D01*
X56484649Y-59437200D02*
X56370363Y-59484819D01*
X56370363Y-59484819D02*
X56179887Y-59484819D01*
X57398934Y-59484819D02*
X56941791Y-59484819D01*
X57170363Y-59484819D02*
X57170363Y-58484819D01*
X57170363Y-58484819D02*
X57094172Y-58627676D01*
X57094172Y-58627676D02*
X57017982Y-58722914D01*
X57017982Y-58722914D02*
X56941791Y-58770533D01*
X56179887Y-62024819D02*
X56179887Y-61024819D01*
X56179887Y-61024819D02*
X56370363Y-61024819D01*
X56370363Y-61024819D02*
X56484649Y-61072438D01*
X56484649Y-61072438D02*
X56560839Y-61167676D01*
X56560839Y-61167676D02*
X56598934Y-61262914D01*
X56598934Y-61262914D02*
X56637030Y-61453390D01*
X56637030Y-61453390D02*
X56637030Y-61596247D01*
X56637030Y-61596247D02*
X56598934Y-61786723D01*
X56598934Y-61786723D02*
X56560839Y-61881961D01*
X56560839Y-61881961D02*
X56484649Y-61977200D01*
X56484649Y-61977200D02*
X56370363Y-62024819D01*
X56370363Y-62024819D02*
X56179887Y-62024819D01*
X57132268Y-61024819D02*
X57208458Y-61024819D01*
X57208458Y-61024819D02*
X57284649Y-61072438D01*
X57284649Y-61072438D02*
X57322744Y-61120057D01*
X57322744Y-61120057D02*
X57360839Y-61215295D01*
X57360839Y-61215295D02*
X57398934Y-61405771D01*
X57398934Y-61405771D02*
X57398934Y-61643866D01*
X57398934Y-61643866D02*
X57360839Y-61834342D01*
X57360839Y-61834342D02*
X57322744Y-61929580D01*
X57322744Y-61929580D02*
X57284649Y-61977200D01*
X57284649Y-61977200D02*
X57208458Y-62024819D01*
X57208458Y-62024819D02*
X57132268Y-62024819D01*
X57132268Y-62024819D02*
X57056077Y-61977200D01*
X57056077Y-61977200D02*
X57017982Y-61929580D01*
X57017982Y-61929580D02*
X56979887Y-61834342D01*
X56979887Y-61834342D02*
X56941791Y-61643866D01*
X56941791Y-61643866D02*
X56941791Y-61405771D01*
X56941791Y-61405771D02*
X56979887Y-61215295D01*
X56979887Y-61215295D02*
X57017982Y-61120057D01*
X57017982Y-61120057D02*
X57056077Y-61072438D01*
X57056077Y-61072438D02*
X57132268Y-61024819D01*
X55951316Y-64469580D02*
X55913220Y-64517200D01*
X55913220Y-64517200D02*
X55798935Y-64564819D01*
X55798935Y-64564819D02*
X55722744Y-64564819D01*
X55722744Y-64564819D02*
X55608458Y-64517200D01*
X55608458Y-64517200D02*
X55532268Y-64421961D01*
X55532268Y-64421961D02*
X55494173Y-64326723D01*
X55494173Y-64326723D02*
X55456077Y-64136247D01*
X55456077Y-64136247D02*
X55456077Y-63993390D01*
X55456077Y-63993390D02*
X55494173Y-63802914D01*
X55494173Y-63802914D02*
X55532268Y-63707676D01*
X55532268Y-63707676D02*
X55608458Y-63612438D01*
X55608458Y-63612438D02*
X55722744Y-63564819D01*
X55722744Y-63564819D02*
X55798935Y-63564819D01*
X55798935Y-63564819D02*
X55913220Y-63612438D01*
X55913220Y-63612438D02*
X55951316Y-63660057D01*
X56675125Y-64564819D02*
X56294173Y-64564819D01*
X56294173Y-64564819D02*
X56294173Y-63564819D01*
X56941792Y-64564819D02*
X56941792Y-63564819D01*
X57398935Y-64564819D02*
X57056077Y-63993390D01*
X57398935Y-63564819D02*
X56941792Y-64136247D01*
X55684649Y-67009580D02*
X55646553Y-67057200D01*
X55646553Y-67057200D02*
X55532268Y-67104819D01*
X55532268Y-67104819D02*
X55456077Y-67104819D01*
X55456077Y-67104819D02*
X55341791Y-67057200D01*
X55341791Y-67057200D02*
X55265601Y-66961961D01*
X55265601Y-66961961D02*
X55227506Y-66866723D01*
X55227506Y-66866723D02*
X55189410Y-66676247D01*
X55189410Y-66676247D02*
X55189410Y-66533390D01*
X55189410Y-66533390D02*
X55227506Y-66342914D01*
X55227506Y-66342914D02*
X55265601Y-66247676D01*
X55265601Y-66247676D02*
X55341791Y-66152438D01*
X55341791Y-66152438D02*
X55456077Y-66104819D01*
X55456077Y-66104819D02*
X55532268Y-66104819D01*
X55532268Y-66104819D02*
X55646553Y-66152438D01*
X55646553Y-66152438D02*
X55684649Y-66200057D01*
X56027506Y-67104819D02*
X56027506Y-66104819D01*
X56027506Y-66104819D02*
X56294172Y-66819104D01*
X56294172Y-66819104D02*
X56560839Y-66104819D01*
X56560839Y-66104819D02*
X56560839Y-67104819D01*
X56941792Y-67104819D02*
X56941792Y-66104819D01*
X56941792Y-66104819D02*
X57132268Y-66104819D01*
X57132268Y-66104819D02*
X57246554Y-66152438D01*
X57246554Y-66152438D02*
X57322744Y-66247676D01*
X57322744Y-66247676D02*
X57360839Y-66342914D01*
X57360839Y-66342914D02*
X57398935Y-66533390D01*
X57398935Y-66533390D02*
X57398935Y-66676247D01*
X57398935Y-66676247D02*
X57360839Y-66866723D01*
X57360839Y-66866723D02*
X57322744Y-66961961D01*
X57322744Y-66961961D02*
X57246554Y-67057200D01*
X57246554Y-67057200D02*
X57132268Y-67104819D01*
X57132268Y-67104819D02*
X56941792Y-67104819D01*
X56179887Y-69644819D02*
X56179887Y-68644819D01*
X56179887Y-68644819D02*
X56370363Y-68644819D01*
X56370363Y-68644819D02*
X56484649Y-68692438D01*
X56484649Y-68692438D02*
X56560839Y-68787676D01*
X56560839Y-68787676D02*
X56598934Y-68882914D01*
X56598934Y-68882914D02*
X56637030Y-69073390D01*
X56637030Y-69073390D02*
X56637030Y-69216247D01*
X56637030Y-69216247D02*
X56598934Y-69406723D01*
X56598934Y-69406723D02*
X56560839Y-69501961D01*
X56560839Y-69501961D02*
X56484649Y-69597200D01*
X56484649Y-69597200D02*
X56370363Y-69644819D01*
X56370363Y-69644819D02*
X56179887Y-69644819D01*
X56903696Y-68644819D02*
X57398934Y-68644819D01*
X57398934Y-68644819D02*
X57132268Y-69025771D01*
X57132268Y-69025771D02*
X57246553Y-69025771D01*
X57246553Y-69025771D02*
X57322744Y-69073390D01*
X57322744Y-69073390D02*
X57360839Y-69121009D01*
X57360839Y-69121009D02*
X57398934Y-69216247D01*
X57398934Y-69216247D02*
X57398934Y-69454342D01*
X57398934Y-69454342D02*
X57360839Y-69549580D01*
X57360839Y-69549580D02*
X57322744Y-69597200D01*
X57322744Y-69597200D02*
X57246553Y-69644819D01*
X57246553Y-69644819D02*
X57017982Y-69644819D01*
X57017982Y-69644819D02*
X56941791Y-69597200D01*
X56941791Y-69597200D02*
X56903696Y-69549580D01*
X56179887Y-72184819D02*
X56179887Y-71184819D01*
X56179887Y-71184819D02*
X56370363Y-71184819D01*
X56370363Y-71184819D02*
X56484649Y-71232438D01*
X56484649Y-71232438D02*
X56560839Y-71327676D01*
X56560839Y-71327676D02*
X56598934Y-71422914D01*
X56598934Y-71422914D02*
X56637030Y-71613390D01*
X56637030Y-71613390D02*
X56637030Y-71756247D01*
X56637030Y-71756247D02*
X56598934Y-71946723D01*
X56598934Y-71946723D02*
X56560839Y-72041961D01*
X56560839Y-72041961D02*
X56484649Y-72137200D01*
X56484649Y-72137200D02*
X56370363Y-72184819D01*
X56370363Y-72184819D02*
X56179887Y-72184819D01*
X56941791Y-71280057D02*
X56979887Y-71232438D01*
X56979887Y-71232438D02*
X57056077Y-71184819D01*
X57056077Y-71184819D02*
X57246553Y-71184819D01*
X57246553Y-71184819D02*
X57322744Y-71232438D01*
X57322744Y-71232438D02*
X57360839Y-71280057D01*
X57360839Y-71280057D02*
X57398934Y-71375295D01*
X57398934Y-71375295D02*
X57398934Y-71470533D01*
X57398934Y-71470533D02*
X57360839Y-71613390D01*
X57360839Y-71613390D02*
X56903696Y-72184819D01*
X56903696Y-72184819D02*
X57398934Y-72184819D01*
X55722744Y-96632438D02*
X55646554Y-96584819D01*
X55646554Y-96584819D02*
X55532268Y-96584819D01*
X55532268Y-96584819D02*
X55417982Y-96632438D01*
X55417982Y-96632438D02*
X55341792Y-96727676D01*
X55341792Y-96727676D02*
X55303697Y-96822914D01*
X55303697Y-96822914D02*
X55265601Y-97013390D01*
X55265601Y-97013390D02*
X55265601Y-97156247D01*
X55265601Y-97156247D02*
X55303697Y-97346723D01*
X55303697Y-97346723D02*
X55341792Y-97441961D01*
X55341792Y-97441961D02*
X55417982Y-97537200D01*
X55417982Y-97537200D02*
X55532268Y-97584819D01*
X55532268Y-97584819D02*
X55608459Y-97584819D01*
X55608459Y-97584819D02*
X55722744Y-97537200D01*
X55722744Y-97537200D02*
X55760840Y-97489580D01*
X55760840Y-97489580D02*
X55760840Y-97156247D01*
X55760840Y-97156247D02*
X55608459Y-97156247D01*
X56103697Y-97584819D02*
X56103697Y-96584819D01*
X56103697Y-96584819D02*
X56560840Y-97584819D01*
X56560840Y-97584819D02*
X56560840Y-96584819D01*
X56941792Y-97584819D02*
X56941792Y-96584819D01*
X56941792Y-96584819D02*
X57132268Y-96584819D01*
X57132268Y-96584819D02*
X57246554Y-96632438D01*
X57246554Y-96632438D02*
X57322744Y-96727676D01*
X57322744Y-96727676D02*
X57360839Y-96822914D01*
X57360839Y-96822914D02*
X57398935Y-97013390D01*
X57398935Y-97013390D02*
X57398935Y-97156247D01*
X57398935Y-97156247D02*
X57360839Y-97346723D01*
X57360839Y-97346723D02*
X57322744Y-97441961D01*
X57322744Y-97441961D02*
X57246554Y-97537200D01*
X57246554Y-97537200D02*
X57132268Y-97584819D01*
X57132268Y-97584819D02*
X56941792Y-97584819D01*
X56256078Y-100029580D02*
X56217982Y-100077200D01*
X56217982Y-100077200D02*
X56103697Y-100124819D01*
X56103697Y-100124819D02*
X56027506Y-100124819D01*
X56027506Y-100124819D02*
X55913220Y-100077200D01*
X55913220Y-100077200D02*
X55837030Y-99981961D01*
X55837030Y-99981961D02*
X55798935Y-99886723D01*
X55798935Y-99886723D02*
X55760839Y-99696247D01*
X55760839Y-99696247D02*
X55760839Y-99553390D01*
X55760839Y-99553390D02*
X55798935Y-99362914D01*
X55798935Y-99362914D02*
X55837030Y-99267676D01*
X55837030Y-99267676D02*
X55913220Y-99172438D01*
X55913220Y-99172438D02*
X56027506Y-99124819D01*
X56027506Y-99124819D02*
X56103697Y-99124819D01*
X56103697Y-99124819D02*
X56217982Y-99172438D01*
X56217982Y-99172438D02*
X56256078Y-99220057D01*
X56598935Y-100124819D02*
X56598935Y-99124819D01*
X57398934Y-100124819D02*
X56941791Y-100124819D01*
X57170363Y-100124819D02*
X57170363Y-99124819D01*
X57170363Y-99124819D02*
X57094172Y-99267676D01*
X57094172Y-99267676D02*
X57017982Y-99362914D01*
X57017982Y-99362914D02*
X56941791Y-99410533D01*
X56256078Y-102569580D02*
X56217982Y-102617200D01*
X56217982Y-102617200D02*
X56103697Y-102664819D01*
X56103697Y-102664819D02*
X56027506Y-102664819D01*
X56027506Y-102664819D02*
X55913220Y-102617200D01*
X55913220Y-102617200D02*
X55837030Y-102521961D01*
X55837030Y-102521961D02*
X55798935Y-102426723D01*
X55798935Y-102426723D02*
X55760839Y-102236247D01*
X55760839Y-102236247D02*
X55760839Y-102093390D01*
X55760839Y-102093390D02*
X55798935Y-101902914D01*
X55798935Y-101902914D02*
X55837030Y-101807676D01*
X55837030Y-101807676D02*
X55913220Y-101712438D01*
X55913220Y-101712438D02*
X56027506Y-101664819D01*
X56027506Y-101664819D02*
X56103697Y-101664819D01*
X56103697Y-101664819D02*
X56217982Y-101712438D01*
X56217982Y-101712438D02*
X56256078Y-101760057D01*
X56598935Y-102664819D02*
X56598935Y-101664819D01*
X56941791Y-101760057D02*
X56979887Y-101712438D01*
X56979887Y-101712438D02*
X57056077Y-101664819D01*
X57056077Y-101664819D02*
X57246553Y-101664819D01*
X57246553Y-101664819D02*
X57322744Y-101712438D01*
X57322744Y-101712438D02*
X57360839Y-101760057D01*
X57360839Y-101760057D02*
X57398934Y-101855295D01*
X57398934Y-101855295D02*
X57398934Y-101950533D01*
X57398934Y-101950533D02*
X57360839Y-102093390D01*
X57360839Y-102093390D02*
X56903696Y-102664819D01*
X56903696Y-102664819D02*
X57398934Y-102664819D01*
X56256078Y-105109580D02*
X56217982Y-105157200D01*
X56217982Y-105157200D02*
X56103697Y-105204819D01*
X56103697Y-105204819D02*
X56027506Y-105204819D01*
X56027506Y-105204819D02*
X55913220Y-105157200D01*
X55913220Y-105157200D02*
X55837030Y-105061961D01*
X55837030Y-105061961D02*
X55798935Y-104966723D01*
X55798935Y-104966723D02*
X55760839Y-104776247D01*
X55760839Y-104776247D02*
X55760839Y-104633390D01*
X55760839Y-104633390D02*
X55798935Y-104442914D01*
X55798935Y-104442914D02*
X55837030Y-104347676D01*
X55837030Y-104347676D02*
X55913220Y-104252438D01*
X55913220Y-104252438D02*
X56027506Y-104204819D01*
X56027506Y-104204819D02*
X56103697Y-104204819D01*
X56103697Y-104204819D02*
X56217982Y-104252438D01*
X56217982Y-104252438D02*
X56256078Y-104300057D01*
X56598935Y-105204819D02*
X56598935Y-104204819D01*
X56903696Y-104204819D02*
X57398934Y-104204819D01*
X57398934Y-104204819D02*
X57132268Y-104585771D01*
X57132268Y-104585771D02*
X57246553Y-104585771D01*
X57246553Y-104585771D02*
X57322744Y-104633390D01*
X57322744Y-104633390D02*
X57360839Y-104681009D01*
X57360839Y-104681009D02*
X57398934Y-104776247D01*
X57398934Y-104776247D02*
X57398934Y-105014342D01*
X57398934Y-105014342D02*
X57360839Y-105109580D01*
X57360839Y-105109580D02*
X57322744Y-105157200D01*
X57322744Y-105157200D02*
X57246553Y-105204819D01*
X57246553Y-105204819D02*
X57017982Y-105204819D01*
X57017982Y-105204819D02*
X56941791Y-105157200D01*
X56941791Y-105157200D02*
X56903696Y-105109580D01*
X56256078Y-107649580D02*
X56217982Y-107697200D01*
X56217982Y-107697200D02*
X56103697Y-107744819D01*
X56103697Y-107744819D02*
X56027506Y-107744819D01*
X56027506Y-107744819D02*
X55913220Y-107697200D01*
X55913220Y-107697200D02*
X55837030Y-107601961D01*
X55837030Y-107601961D02*
X55798935Y-107506723D01*
X55798935Y-107506723D02*
X55760839Y-107316247D01*
X55760839Y-107316247D02*
X55760839Y-107173390D01*
X55760839Y-107173390D02*
X55798935Y-106982914D01*
X55798935Y-106982914D02*
X55837030Y-106887676D01*
X55837030Y-106887676D02*
X55913220Y-106792438D01*
X55913220Y-106792438D02*
X56027506Y-106744819D01*
X56027506Y-106744819D02*
X56103697Y-106744819D01*
X56103697Y-106744819D02*
X56217982Y-106792438D01*
X56217982Y-106792438D02*
X56256078Y-106840057D01*
X56598935Y-107744819D02*
X56598935Y-106744819D01*
X57322744Y-107078152D02*
X57322744Y-107744819D01*
X57132268Y-106697200D02*
X56941791Y-107411485D01*
X56941791Y-107411485D02*
X57437030Y-107411485D01*
X56256078Y-110189580D02*
X56217982Y-110237200D01*
X56217982Y-110237200D02*
X56103697Y-110284819D01*
X56103697Y-110284819D02*
X56027506Y-110284819D01*
X56027506Y-110284819D02*
X55913220Y-110237200D01*
X55913220Y-110237200D02*
X55837030Y-110141961D01*
X55837030Y-110141961D02*
X55798935Y-110046723D01*
X55798935Y-110046723D02*
X55760839Y-109856247D01*
X55760839Y-109856247D02*
X55760839Y-109713390D01*
X55760839Y-109713390D02*
X55798935Y-109522914D01*
X55798935Y-109522914D02*
X55837030Y-109427676D01*
X55837030Y-109427676D02*
X55913220Y-109332438D01*
X55913220Y-109332438D02*
X56027506Y-109284819D01*
X56027506Y-109284819D02*
X56103697Y-109284819D01*
X56103697Y-109284819D02*
X56217982Y-109332438D01*
X56217982Y-109332438D02*
X56256078Y-109380057D01*
X56598935Y-110284819D02*
X56598935Y-109284819D01*
X57360839Y-109284819D02*
X56979887Y-109284819D01*
X56979887Y-109284819D02*
X56941791Y-109761009D01*
X56941791Y-109761009D02*
X56979887Y-109713390D01*
X56979887Y-109713390D02*
X57056077Y-109665771D01*
X57056077Y-109665771D02*
X57246553Y-109665771D01*
X57246553Y-109665771D02*
X57322744Y-109713390D01*
X57322744Y-109713390D02*
X57360839Y-109761009D01*
X57360839Y-109761009D02*
X57398934Y-109856247D01*
X57398934Y-109856247D02*
X57398934Y-110094342D01*
X57398934Y-110094342D02*
X57360839Y-110189580D01*
X57360839Y-110189580D02*
X57322744Y-110237200D01*
X57322744Y-110237200D02*
X57246553Y-110284819D01*
X57246553Y-110284819D02*
X57056077Y-110284819D01*
X57056077Y-110284819D02*
X56979887Y-110237200D01*
X56979887Y-110237200D02*
X56941791Y-110189580D01*
X56256078Y-112729580D02*
X56217982Y-112777200D01*
X56217982Y-112777200D02*
X56103697Y-112824819D01*
X56103697Y-112824819D02*
X56027506Y-112824819D01*
X56027506Y-112824819D02*
X55913220Y-112777200D01*
X55913220Y-112777200D02*
X55837030Y-112681961D01*
X55837030Y-112681961D02*
X55798935Y-112586723D01*
X55798935Y-112586723D02*
X55760839Y-112396247D01*
X55760839Y-112396247D02*
X55760839Y-112253390D01*
X55760839Y-112253390D02*
X55798935Y-112062914D01*
X55798935Y-112062914D02*
X55837030Y-111967676D01*
X55837030Y-111967676D02*
X55913220Y-111872438D01*
X55913220Y-111872438D02*
X56027506Y-111824819D01*
X56027506Y-111824819D02*
X56103697Y-111824819D01*
X56103697Y-111824819D02*
X56217982Y-111872438D01*
X56217982Y-111872438D02*
X56256078Y-111920057D01*
X56598935Y-112824819D02*
X56598935Y-111824819D01*
X57322744Y-111824819D02*
X57170363Y-111824819D01*
X57170363Y-111824819D02*
X57094172Y-111872438D01*
X57094172Y-111872438D02*
X57056077Y-111920057D01*
X57056077Y-111920057D02*
X56979887Y-112062914D01*
X56979887Y-112062914D02*
X56941791Y-112253390D01*
X56941791Y-112253390D02*
X56941791Y-112634342D01*
X56941791Y-112634342D02*
X56979887Y-112729580D01*
X56979887Y-112729580D02*
X57017982Y-112777200D01*
X57017982Y-112777200D02*
X57094172Y-112824819D01*
X57094172Y-112824819D02*
X57246553Y-112824819D01*
X57246553Y-112824819D02*
X57322744Y-112777200D01*
X57322744Y-112777200D02*
X57360839Y-112729580D01*
X57360839Y-112729580D02*
X57398934Y-112634342D01*
X57398934Y-112634342D02*
X57398934Y-112396247D01*
X57398934Y-112396247D02*
X57360839Y-112301009D01*
X57360839Y-112301009D02*
X57322744Y-112253390D01*
X57322744Y-112253390D02*
X57246553Y-112205771D01*
X57246553Y-112205771D02*
X57094172Y-112205771D01*
X57094172Y-112205771D02*
X57017982Y-112253390D01*
X57017982Y-112253390D02*
X56979887Y-112301009D01*
X56979887Y-112301009D02*
X56941791Y-112396247D01*
X56256078Y-115269580D02*
X56217982Y-115317200D01*
X56217982Y-115317200D02*
X56103697Y-115364819D01*
X56103697Y-115364819D02*
X56027506Y-115364819D01*
X56027506Y-115364819D02*
X55913220Y-115317200D01*
X55913220Y-115317200D02*
X55837030Y-115221961D01*
X55837030Y-115221961D02*
X55798935Y-115126723D01*
X55798935Y-115126723D02*
X55760839Y-114936247D01*
X55760839Y-114936247D02*
X55760839Y-114793390D01*
X55760839Y-114793390D02*
X55798935Y-114602914D01*
X55798935Y-114602914D02*
X55837030Y-114507676D01*
X55837030Y-114507676D02*
X55913220Y-114412438D01*
X55913220Y-114412438D02*
X56027506Y-114364819D01*
X56027506Y-114364819D02*
X56103697Y-114364819D01*
X56103697Y-114364819D02*
X56217982Y-114412438D01*
X56217982Y-114412438D02*
X56256078Y-114460057D01*
X56598935Y-115364819D02*
X56598935Y-114364819D01*
X56903696Y-114364819D02*
X57437030Y-114364819D01*
X57437030Y-114364819D02*
X57094172Y-115364819D01*
X56256078Y-117809580D02*
X56217982Y-117857200D01*
X56217982Y-117857200D02*
X56103697Y-117904819D01*
X56103697Y-117904819D02*
X56027506Y-117904819D01*
X56027506Y-117904819D02*
X55913220Y-117857200D01*
X55913220Y-117857200D02*
X55837030Y-117761961D01*
X55837030Y-117761961D02*
X55798935Y-117666723D01*
X55798935Y-117666723D02*
X55760839Y-117476247D01*
X55760839Y-117476247D02*
X55760839Y-117333390D01*
X55760839Y-117333390D02*
X55798935Y-117142914D01*
X55798935Y-117142914D02*
X55837030Y-117047676D01*
X55837030Y-117047676D02*
X55913220Y-116952438D01*
X55913220Y-116952438D02*
X56027506Y-116904819D01*
X56027506Y-116904819D02*
X56103697Y-116904819D01*
X56103697Y-116904819D02*
X56217982Y-116952438D01*
X56217982Y-116952438D02*
X56256078Y-117000057D01*
X56598935Y-117904819D02*
X56598935Y-116904819D01*
X57094172Y-117333390D02*
X57017982Y-117285771D01*
X57017982Y-117285771D02*
X56979887Y-117238152D01*
X56979887Y-117238152D02*
X56941791Y-117142914D01*
X56941791Y-117142914D02*
X56941791Y-117095295D01*
X56941791Y-117095295D02*
X56979887Y-117000057D01*
X56979887Y-117000057D02*
X57017982Y-116952438D01*
X57017982Y-116952438D02*
X57094172Y-116904819D01*
X57094172Y-116904819D02*
X57246553Y-116904819D01*
X57246553Y-116904819D02*
X57322744Y-116952438D01*
X57322744Y-116952438D02*
X57360839Y-117000057D01*
X57360839Y-117000057D02*
X57398934Y-117095295D01*
X57398934Y-117095295D02*
X57398934Y-117142914D01*
X57398934Y-117142914D02*
X57360839Y-117238152D01*
X57360839Y-117238152D02*
X57322744Y-117285771D01*
X57322744Y-117285771D02*
X57246553Y-117333390D01*
X57246553Y-117333390D02*
X57094172Y-117333390D01*
X57094172Y-117333390D02*
X57017982Y-117381009D01*
X57017982Y-117381009D02*
X56979887Y-117428628D01*
X56979887Y-117428628D02*
X56941791Y-117523866D01*
X56941791Y-117523866D02*
X56941791Y-117714342D01*
X56941791Y-117714342D02*
X56979887Y-117809580D01*
X56979887Y-117809580D02*
X57017982Y-117857200D01*
X57017982Y-117857200D02*
X57094172Y-117904819D01*
X57094172Y-117904819D02*
X57246553Y-117904819D01*
X57246553Y-117904819D02*
X57322744Y-117857200D01*
X57322744Y-117857200D02*
X57360839Y-117809580D01*
X57360839Y-117809580D02*
X57398934Y-117714342D01*
X57398934Y-117714342D02*
X57398934Y-117523866D01*
X57398934Y-117523866D02*
X57360839Y-117428628D01*
X57360839Y-117428628D02*
X57322744Y-117381009D01*
X57322744Y-117381009D02*
X57246553Y-117333390D01*
X38703398Y-98616819D02*
X38789112Y-98616819D01*
X38789112Y-98616819D02*
X38874826Y-98664438D01*
X38874826Y-98664438D02*
X38917684Y-98712057D01*
X38917684Y-98712057D02*
X38960541Y-98807295D01*
X38960541Y-98807295D02*
X39003398Y-98997771D01*
X39003398Y-98997771D02*
X39003398Y-99235866D01*
X39003398Y-99235866D02*
X38960541Y-99426342D01*
X38960541Y-99426342D02*
X38917684Y-99521580D01*
X38917684Y-99521580D02*
X38874826Y-99569200D01*
X38874826Y-99569200D02*
X38789112Y-99616819D01*
X38789112Y-99616819D02*
X38703398Y-99616819D01*
X38703398Y-99616819D02*
X38617684Y-99569200D01*
X38617684Y-99569200D02*
X38574826Y-99521580D01*
X38574826Y-99521580D02*
X38531969Y-99426342D01*
X38531969Y-99426342D02*
X38489112Y-99235866D01*
X38489112Y-99235866D02*
X38489112Y-98997771D01*
X38489112Y-98997771D02*
X38531969Y-98807295D01*
X38531969Y-98807295D02*
X38574826Y-98712057D01*
X38574826Y-98712057D02*
X38617684Y-98664438D01*
X38617684Y-98664438D02*
X38703398Y-98616819D01*
X39389112Y-99521580D02*
X39431969Y-99569200D01*
X39431969Y-99569200D02*
X39389112Y-99616819D01*
X39389112Y-99616819D02*
X39346255Y-99569200D01*
X39346255Y-99569200D02*
X39389112Y-99521580D01*
X39389112Y-99521580D02*
X39389112Y-99616819D01*
X39817683Y-99521580D02*
X39860540Y-99569200D01*
X39860540Y-99569200D02*
X39817683Y-99616819D01*
X39817683Y-99616819D02*
X39774826Y-99569200D01*
X39774826Y-99569200D02*
X39817683Y-99521580D01*
X39817683Y-99521580D02*
X39817683Y-99616819D01*
X40717683Y-99616819D02*
X40203397Y-99616819D01*
X40460540Y-99616819D02*
X40460540Y-98616819D01*
X40460540Y-98616819D02*
X40374826Y-98759676D01*
X40374826Y-98759676D02*
X40289111Y-98854914D01*
X40289111Y-98854914D02*
X40203397Y-98902533D01*
X41274826Y-98616819D02*
X41360540Y-98616819D01*
X41360540Y-98616819D02*
X41446254Y-98664438D01*
X41446254Y-98664438D02*
X41489112Y-98712057D01*
X41489112Y-98712057D02*
X41531969Y-98807295D01*
X41531969Y-98807295D02*
X41574826Y-98997771D01*
X41574826Y-98997771D02*
X41574826Y-99235866D01*
X41574826Y-99235866D02*
X41531969Y-99426342D01*
X41531969Y-99426342D02*
X41489112Y-99521580D01*
X41489112Y-99521580D02*
X41446254Y-99569200D01*
X41446254Y-99569200D02*
X41360540Y-99616819D01*
X41360540Y-99616819D02*
X41274826Y-99616819D01*
X41274826Y-99616819D02*
X41189112Y-99569200D01*
X41189112Y-99569200D02*
X41146254Y-99521580D01*
X41146254Y-99521580D02*
X41103397Y-99426342D01*
X41103397Y-99426342D02*
X41060540Y-99235866D01*
X41060540Y-99235866D02*
X41060540Y-98997771D01*
X41060540Y-98997771D02*
X41103397Y-98807295D01*
X41103397Y-98807295D02*
X41146254Y-98712057D01*
X41146254Y-98712057D02*
X41189112Y-98664438D01*
X41189112Y-98664438D02*
X41274826Y-98616819D01*
X41831969Y-98616819D02*
X42131969Y-99616819D01*
X42131969Y-99616819D02*
X42431969Y-98616819D01*
X38555779Y-97521390D02*
X39317684Y-97521390D01*
X38936731Y-97902342D02*
X38936731Y-97140438D01*
X39317684Y-98092819D02*
X38555779Y-98092819D01*
X40270064Y-97092819D02*
X39793874Y-97092819D01*
X39793874Y-97092819D02*
X39746255Y-97569009D01*
X39746255Y-97569009D02*
X39793874Y-97521390D01*
X39793874Y-97521390D02*
X39889112Y-97473771D01*
X39889112Y-97473771D02*
X40127207Y-97473771D01*
X40127207Y-97473771D02*
X40222445Y-97521390D01*
X40222445Y-97521390D02*
X40270064Y-97569009D01*
X40270064Y-97569009D02*
X40317683Y-97664247D01*
X40317683Y-97664247D02*
X40317683Y-97902342D01*
X40317683Y-97902342D02*
X40270064Y-97997580D01*
X40270064Y-97997580D02*
X40222445Y-98045200D01*
X40222445Y-98045200D02*
X40127207Y-98092819D01*
X40127207Y-98092819D02*
X39889112Y-98092819D01*
X39889112Y-98092819D02*
X39793874Y-98045200D01*
X39793874Y-98045200D02*
X39746255Y-97997580D01*
X40603398Y-97092819D02*
X40936731Y-98092819D01*
X40936731Y-98092819D02*
X41270064Y-97092819D01*
X44502268Y-97489580D02*
X44454649Y-97537200D01*
X44454649Y-97537200D02*
X44311792Y-97584819D01*
X44311792Y-97584819D02*
X44216554Y-97584819D01*
X44216554Y-97584819D02*
X44073697Y-97537200D01*
X44073697Y-97537200D02*
X43978459Y-97441961D01*
X43978459Y-97441961D02*
X43930840Y-97346723D01*
X43930840Y-97346723D02*
X43883221Y-97156247D01*
X43883221Y-97156247D02*
X43883221Y-97013390D01*
X43883221Y-97013390D02*
X43930840Y-96822914D01*
X43930840Y-96822914D02*
X43978459Y-96727676D01*
X43978459Y-96727676D02*
X44073697Y-96632438D01*
X44073697Y-96632438D02*
X44216554Y-96584819D01*
X44216554Y-96584819D02*
X44311792Y-96584819D01*
X44311792Y-96584819D02*
X44454649Y-96632438D01*
X44454649Y-96632438D02*
X44502268Y-96680057D01*
X44930840Y-97584819D02*
X44930840Y-96584819D01*
X45930839Y-97584819D02*
X45359411Y-97584819D01*
X45645125Y-97584819D02*
X45645125Y-96584819D01*
X45645125Y-96584819D02*
X45549887Y-96727676D01*
X45549887Y-96727676D02*
X45454649Y-96822914D01*
X45454649Y-96822914D02*
X45359411Y-96870533D01*
X44502268Y-100029580D02*
X44454649Y-100077200D01*
X44454649Y-100077200D02*
X44311792Y-100124819D01*
X44311792Y-100124819D02*
X44216554Y-100124819D01*
X44216554Y-100124819D02*
X44073697Y-100077200D01*
X44073697Y-100077200D02*
X43978459Y-99981961D01*
X43978459Y-99981961D02*
X43930840Y-99886723D01*
X43930840Y-99886723D02*
X43883221Y-99696247D01*
X43883221Y-99696247D02*
X43883221Y-99553390D01*
X43883221Y-99553390D02*
X43930840Y-99362914D01*
X43930840Y-99362914D02*
X43978459Y-99267676D01*
X43978459Y-99267676D02*
X44073697Y-99172438D01*
X44073697Y-99172438D02*
X44216554Y-99124819D01*
X44216554Y-99124819D02*
X44311792Y-99124819D01*
X44311792Y-99124819D02*
X44454649Y-99172438D01*
X44454649Y-99172438D02*
X44502268Y-99220057D01*
X44930840Y-100124819D02*
X44930840Y-99124819D01*
X45359411Y-99220057D02*
X45407030Y-99172438D01*
X45407030Y-99172438D02*
X45502268Y-99124819D01*
X45502268Y-99124819D02*
X45740363Y-99124819D01*
X45740363Y-99124819D02*
X45835601Y-99172438D01*
X45835601Y-99172438D02*
X45883220Y-99220057D01*
X45883220Y-99220057D02*
X45930839Y-99315295D01*
X45930839Y-99315295D02*
X45930839Y-99410533D01*
X45930839Y-99410533D02*
X45883220Y-99553390D01*
X45883220Y-99553390D02*
X45311792Y-100124819D01*
X45311792Y-100124819D02*
X45930839Y-100124819D01*
X50448934Y-117954819D02*
X50448934Y-117288152D01*
X50448934Y-117478628D02*
X50496553Y-117383390D01*
X50496553Y-117383390D02*
X50544172Y-117335771D01*
X50544172Y-117335771D02*
X50639410Y-117288152D01*
X50639410Y-117288152D02*
X50734648Y-117288152D01*
X51448934Y-117907200D02*
X51353696Y-117954819D01*
X51353696Y-117954819D02*
X51163220Y-117954819D01*
X51163220Y-117954819D02*
X51067982Y-117907200D01*
X51067982Y-117907200D02*
X51020363Y-117811961D01*
X51020363Y-117811961D02*
X51020363Y-117431009D01*
X51020363Y-117431009D02*
X51067982Y-117335771D01*
X51067982Y-117335771D02*
X51163220Y-117288152D01*
X51163220Y-117288152D02*
X51353696Y-117288152D01*
X51353696Y-117288152D02*
X51448934Y-117335771D01*
X51448934Y-117335771D02*
X51496553Y-117431009D01*
X51496553Y-117431009D02*
X51496553Y-117526247D01*
X51496553Y-117526247D02*
X51020363Y-117621485D01*
X51829887Y-117288152D02*
X52067982Y-117954819D01*
X52067982Y-117954819D02*
X52306077Y-117288152D01*
X52591792Y-116954819D02*
X53258458Y-116954819D01*
X53258458Y-116954819D02*
X52829887Y-117954819D01*
%TO.C,C5*%
D11*
X12680000Y-25220580D02*
X12680000Y-24939420D01*
X13700000Y-25220580D02*
X13700000Y-24939420D01*
%TO.C,R6*%
X5337258Y-19987500D02*
X4862742Y-19987500D01*
X5337258Y-21032500D02*
X4862742Y-21032500D01*
%TO.C,R8*%
X5337258Y-26237500D02*
X4862742Y-26237500D01*
X5337258Y-27282500D02*
X4862742Y-27282500D01*
%TO.C,R14*%
X5337258Y-29365873D02*
X4862742Y-29365873D01*
X5337258Y-30410873D02*
X4862742Y-30410873D01*
%TO.C,U1*%
X46810000Y-27085000D02*
X43210000Y-27085000D01*
X46810000Y-27085000D02*
X49010000Y-27085000D01*
X46810000Y-32555000D02*
X44610000Y-32555000D01*
X46810000Y-32555000D02*
X49010000Y-32555000D01*
%TO.C,U3*%
X14275000Y-27325000D02*
X14275000Y-25125000D01*
X14275000Y-27325000D02*
X14275000Y-30925000D01*
X19745000Y-27325000D02*
X19745000Y-25125000D01*
X19745000Y-27325000D02*
X19745000Y-29525000D01*
%TO.C,U6*%
X25975000Y-21795000D02*
X26250000Y-21795000D01*
X25975000Y-24105000D02*
X25975000Y-21795000D01*
X25975000Y-24105000D02*
X25975000Y-26415000D01*
X25975000Y-26415000D02*
X26250000Y-26415000D01*
X35620000Y-21795000D02*
X35620000Y-20505000D01*
X35895000Y-21795000D02*
X35620000Y-21795000D01*
X35895000Y-24105000D02*
X35895000Y-21795000D01*
X35895000Y-24105000D02*
X35895000Y-26415000D01*
X35895000Y-26415000D02*
X35620000Y-26415000D01*
%TO.C,R50*%
X12796986Y-14342742D02*
X12796986Y-14817258D01*
X13841986Y-14342742D02*
X13841986Y-14817258D01*
%TO.C,R49*%
X14654636Y-14342742D02*
X14654636Y-14817258D01*
X15699636Y-14342742D02*
X15699636Y-14817258D01*
%TO.C,R48*%
X16543819Y-14342742D02*
X16543819Y-14817258D01*
X17588819Y-14342742D02*
X17588819Y-14817258D01*
%TO.C,R47*%
X18425182Y-14342742D02*
X18425182Y-14817258D01*
X19470182Y-14342742D02*
X19470182Y-14817258D01*
%TO.C,R51*%
X10939336Y-14342742D02*
X10939336Y-14817258D01*
X11984336Y-14342742D02*
X11984336Y-14817258D01*
%TO.C,R7*%
X5337258Y-23097500D02*
X4862742Y-23097500D01*
X5337258Y-24142500D02*
X4862742Y-24142500D01*
%TO.C,R16*%
X5337258Y-35647500D02*
X4862742Y-35647500D01*
X5337258Y-36692500D02*
X4862742Y-36692500D01*
%TO.C,R15*%
X5337258Y-32498258D02*
X4862742Y-32498258D01*
X5337258Y-33543258D02*
X4862742Y-33543258D01*
%TO.C,C3*%
X49490580Y-25500000D02*
X49209420Y-25500000D01*
X49490580Y-26520000D02*
X49209420Y-26520000D01*
%TO.C,R4*%
X5337258Y-13763435D02*
X4862742Y-13763435D01*
X5337258Y-14808435D02*
X4862742Y-14808435D01*
%TO.C,R5*%
X5337258Y-16890281D02*
X4862742Y-16890281D01*
X5337258Y-17935281D02*
X4862742Y-17935281D01*
%TO.C,L2*%
X15230000Y-40251897D02*
X15230000Y-39926339D01*
X16250000Y-40251897D02*
X16250000Y-39926339D01*
%TO.C,L1*%
X15230000Y-53182660D02*
X15230000Y-53508218D01*
X16250000Y-53182660D02*
X16250000Y-53508218D01*
%TO.C,D24*%
X12200000Y-43609118D02*
X12200000Y-39709118D01*
X12200000Y-43609118D02*
X14200000Y-43609118D01*
X14200000Y-43609118D02*
X14200000Y-39709118D01*
%TO.C,D23*%
X12200000Y-54325439D02*
X12200000Y-50425439D01*
X12200000Y-54325439D02*
X14200000Y-54325439D01*
X14200000Y-54325439D02*
X14200000Y-50425439D01*
%TO.C,C2*%
X15005000Y-49796691D02*
X15005000Y-49274187D01*
X16475000Y-49796691D02*
X16475000Y-49274187D01*
%TO.C,C8*%
X38105580Y-26770000D02*
X37824420Y-26770000D01*
X38105580Y-27790000D02*
X37824420Y-27790000D01*
%TO.C,R79*%
X31092500Y-31962258D02*
X31092500Y-31487742D01*
X32137500Y-31962258D02*
X32137500Y-31487742D01*
%TO.C,R80*%
X32997500Y-31962258D02*
X32997500Y-31487742D01*
X34042500Y-31962258D02*
X34042500Y-31487742D01*
%TO.C,C1*%
X15005000Y-44160370D02*
X15005000Y-43637866D01*
X16475000Y-44160370D02*
X16475000Y-43637866D01*
D12*
%TO.C,H1*%
X24907090Y-82355999D02*
X25000133Y-82360837D01*
X25064107Y-82375939D01*
X25104448Y-82407063D01*
X25126592Y-82459968D01*
X25135972Y-82540413D01*
X25138025Y-82654158D01*
X25138000Y-82735466D01*
X25137875Y-82863957D01*
X25133669Y-82957720D01*
X25119636Y-83022199D01*
X25090030Y-83062838D01*
X25039106Y-83085080D01*
X24961115Y-83094369D01*
X24850314Y-83096149D01*
X24757581Y-83095856D01*
X24648947Y-83094077D01*
X24553448Y-83089660D01*
X24480175Y-83083231D01*
X24438216Y-83075413D01*
X24434208Y-83073638D01*
X24419978Y-83061110D01*
X24409892Y-83038445D01*
X24403259Y-82999131D01*
X24399387Y-82936656D01*
X24397587Y-82844509D01*
X24397166Y-82724507D01*
X24397166Y-82396952D01*
X24451461Y-82376309D01*
X24492866Y-82368450D01*
X24566498Y-82361968D01*
X24662258Y-82357499D01*
X24770044Y-82355679D01*
X24779544Y-82355667D01*
X24907090Y-82355999D01*
G36*
X24907090Y-82355999D02*
G01*
X25000133Y-82360837D01*
X25064107Y-82375939D01*
X25104448Y-82407063D01*
X25126592Y-82459968D01*
X25135972Y-82540413D01*
X25138025Y-82654158D01*
X25138000Y-82735466D01*
X25137875Y-82863957D01*
X25133669Y-82957720D01*
X25119636Y-83022199D01*
X25090030Y-83062838D01*
X25039106Y-83085080D01*
X24961115Y-83094369D01*
X24850314Y-83096149D01*
X24757581Y-83095856D01*
X24648947Y-83094077D01*
X24553448Y-83089660D01*
X24480175Y-83083231D01*
X24438216Y-83075413D01*
X24434208Y-83073638D01*
X24419978Y-83061110D01*
X24409892Y-83038445D01*
X24403259Y-82999131D01*
X24399387Y-82936656D01*
X24397587Y-82844509D01*
X24397166Y-82724507D01*
X24397166Y-82396952D01*
X24451461Y-82376309D01*
X24492866Y-82368450D01*
X24566498Y-82361968D01*
X24662258Y-82357499D01*
X24770044Y-82355679D01*
X24779544Y-82355667D01*
X24907090Y-82355999D01*
G37*
X23618045Y-83392833D02*
X23752614Y-83393108D01*
X23850649Y-83397717D01*
X23917928Y-83412338D01*
X23960229Y-83442650D01*
X23983330Y-83494329D01*
X23993009Y-83573054D01*
X23995045Y-83684502D01*
X23995000Y-83763250D01*
X23994645Y-83896557D01*
X23989755Y-83993350D01*
X23974590Y-84059431D01*
X23943410Y-84100602D01*
X23890474Y-84122666D01*
X23810043Y-84131423D01*
X23696377Y-84132677D01*
X23629875Y-84132325D01*
X23521234Y-84130447D01*
X23424680Y-84126273D01*
X23349809Y-84120390D01*
X23306222Y-84113389D01*
X23302959Y-84112272D01*
X23274317Y-84092515D01*
X23254030Y-84056225D01*
X23241204Y-83997858D01*
X23234941Y-83911869D01*
X23234346Y-83792713D01*
X23236408Y-83700520D01*
X23239853Y-83590172D01*
X23246793Y-83509938D01*
X23263170Y-83455026D01*
X23294927Y-83420646D01*
X23348005Y-83402006D01*
X23428347Y-83394317D01*
X23541896Y-83392786D01*
X23618045Y-83392833D01*
G36*
X23618045Y-83392833D02*
G01*
X23752614Y-83393108D01*
X23850649Y-83397717D01*
X23917928Y-83412338D01*
X23960229Y-83442650D01*
X23983330Y-83494329D01*
X23993009Y-83573054D01*
X23995045Y-83684502D01*
X23995000Y-83763250D01*
X23994645Y-83896557D01*
X23989755Y-83993350D01*
X23974590Y-84059431D01*
X23943410Y-84100602D01*
X23890474Y-84122666D01*
X23810043Y-84131423D01*
X23696377Y-84132677D01*
X23629875Y-84132325D01*
X23521234Y-84130447D01*
X23424680Y-84126273D01*
X23349809Y-84120390D01*
X23306222Y-84113389D01*
X23302959Y-84112272D01*
X23274317Y-84092515D01*
X23254030Y-84056225D01*
X23241204Y-83997858D01*
X23234941Y-83911869D01*
X23234346Y-83792713D01*
X23236408Y-83700520D01*
X23239853Y-83590172D01*
X23246793Y-83509938D01*
X23263170Y-83455026D01*
X23294927Y-83420646D01*
X23348005Y-83402006D01*
X23428347Y-83394317D01*
X23541896Y-83392786D01*
X23618045Y-83392833D01*
G37*
X23618045Y-84430000D02*
X23753701Y-84430298D01*
X23852655Y-84435015D01*
X23920520Y-84449890D01*
X23962907Y-84480660D01*
X23985428Y-84533060D01*
X23993694Y-84612829D01*
X23993318Y-84725702D01*
X23991280Y-84811575D01*
X23986436Y-84948366D01*
X23979056Y-85045787D01*
X23968828Y-85106741D01*
X23956960Y-85132794D01*
X23925752Y-85143632D01*
X23861760Y-85152694D01*
X23774504Y-85159726D01*
X23673507Y-85164474D01*
X23568289Y-85166683D01*
X23468373Y-85166101D01*
X23383278Y-85162472D01*
X23322528Y-85155543D01*
X23302959Y-85150241D01*
X23274289Y-85129955D01*
X23253993Y-85093235D01*
X23241174Y-85034505D01*
X23234931Y-84948189D01*
X23234365Y-84828711D01*
X23236408Y-84737687D01*
X23239853Y-84627339D01*
X23246793Y-84547104D01*
X23263170Y-84492193D01*
X23294927Y-84457812D01*
X23348005Y-84439173D01*
X23428347Y-84431483D01*
X23541896Y-84429952D01*
X23618045Y-84430000D01*
G36*
X23618045Y-84430000D02*
G01*
X23753701Y-84430298D01*
X23852655Y-84435015D01*
X23920520Y-84449890D01*
X23962907Y-84480660D01*
X23985428Y-84533060D01*
X23993694Y-84612829D01*
X23993318Y-84725702D01*
X23991280Y-84811575D01*
X23986436Y-84948366D01*
X23979056Y-85045787D01*
X23968828Y-85106741D01*
X23956960Y-85132794D01*
X23925752Y-85143632D01*
X23861760Y-85152694D01*
X23774504Y-85159726D01*
X23673507Y-85164474D01*
X23568289Y-85166683D01*
X23468373Y-85166101D01*
X23383278Y-85162472D01*
X23322528Y-85155543D01*
X23302959Y-85150241D01*
X23274289Y-85129955D01*
X23253993Y-85093235D01*
X23241174Y-85034505D01*
X23234931Y-84948189D01*
X23234365Y-84828711D01*
X23236408Y-84737687D01*
X23239853Y-84627339D01*
X23246793Y-84547104D01*
X23263170Y-84492193D01*
X23294927Y-84457812D01*
X23348005Y-84439173D01*
X23428347Y-84431483D01*
X23541896Y-84429952D01*
X23618045Y-84430000D01*
G37*
X24908455Y-83393236D02*
X25002058Y-83398332D01*
X25065998Y-83413955D01*
X25105921Y-83445939D01*
X25127469Y-83500115D01*
X25136289Y-83582318D01*
X25138025Y-83698380D01*
X25138000Y-83763250D01*
X25137645Y-83896557D01*
X25132755Y-83993350D01*
X25117590Y-84059431D01*
X25086410Y-84100602D01*
X25033474Y-84122666D01*
X24953043Y-84131423D01*
X24839377Y-84132677D01*
X24772875Y-84132325D01*
X24664098Y-84130414D01*
X24567275Y-84126149D01*
X24492052Y-84120133D01*
X24448076Y-84112969D01*
X24444791Y-84111840D01*
X24426773Y-84103052D01*
X24413989Y-84089139D01*
X24405541Y-84063536D01*
X24400532Y-84019679D01*
X24398066Y-83951002D01*
X24397244Y-83850941D01*
X24397166Y-83763408D01*
X24397166Y-83434119D01*
X24451461Y-83413476D01*
X24492866Y-83405617D01*
X24566498Y-83399135D01*
X24662258Y-83394666D01*
X24770044Y-83392845D01*
X24779544Y-83392833D01*
X24908455Y-83393236D01*
G36*
X24908455Y-83393236D02*
G01*
X25002058Y-83398332D01*
X25065998Y-83413955D01*
X25105921Y-83445939D01*
X25127469Y-83500115D01*
X25136289Y-83582318D01*
X25138025Y-83698380D01*
X25138000Y-83763250D01*
X25137645Y-83896557D01*
X25132755Y-83993350D01*
X25117590Y-84059431D01*
X25086410Y-84100602D01*
X25033474Y-84122666D01*
X24953043Y-84131423D01*
X24839377Y-84132677D01*
X24772875Y-84132325D01*
X24664098Y-84130414D01*
X24567275Y-84126149D01*
X24492052Y-84120133D01*
X24448076Y-84112969D01*
X24444791Y-84111840D01*
X24426773Y-84103052D01*
X24413989Y-84089139D01*
X24405541Y-84063536D01*
X24400532Y-84019679D01*
X24398066Y-83951002D01*
X24397244Y-83850941D01*
X24397166Y-83763408D01*
X24397166Y-83434119D01*
X24451461Y-83413476D01*
X24492866Y-83405617D01*
X24566498Y-83399135D01*
X24662258Y-83394666D01*
X24770044Y-83392845D01*
X24779544Y-83392833D01*
X24908455Y-83393236D01*
G37*
X22461808Y-84430000D02*
X22571029Y-84431565D01*
X22667546Y-84435850D01*
X22742133Y-84442238D01*
X22785568Y-84450114D01*
X22789891Y-84451911D01*
X22805497Y-84463246D01*
X22816559Y-84482241D01*
X22823848Y-84515503D01*
X22828138Y-84569638D01*
X22830203Y-84651253D01*
X22830816Y-84766953D01*
X22830833Y-84801685D01*
X22830833Y-85129548D01*
X22776538Y-85150190D01*
X22735757Y-85157517D01*
X22663457Y-85163130D01*
X22570426Y-85166925D01*
X22467447Y-85168795D01*
X22365306Y-85168631D01*
X22274788Y-85166329D01*
X22206679Y-85161781D01*
X22174666Y-85156144D01*
X22141992Y-85139437D01*
X22118819Y-85112036D01*
X22103591Y-85067336D01*
X22094756Y-84998734D01*
X22090758Y-84899627D01*
X22090000Y-84796371D01*
X22090341Y-84664817D01*
X22095245Y-84569224D01*
X22110533Y-84503858D01*
X22142023Y-84462984D01*
X22195536Y-84440867D01*
X22276892Y-84431772D01*
X22391911Y-84429963D01*
X22461808Y-84430000D01*
G36*
X22461808Y-84430000D02*
G01*
X22571029Y-84431565D01*
X22667546Y-84435850D01*
X22742133Y-84442238D01*
X22785568Y-84450114D01*
X22789891Y-84451911D01*
X22805497Y-84463246D01*
X22816559Y-84482241D01*
X22823848Y-84515503D01*
X22828138Y-84569638D01*
X22830203Y-84651253D01*
X22830816Y-84766953D01*
X22830833Y-84801685D01*
X22830833Y-85129548D01*
X22776538Y-85150190D01*
X22735757Y-85157517D01*
X22663457Y-85163130D01*
X22570426Y-85166925D01*
X22467447Y-85168795D01*
X22365306Y-85168631D01*
X22274788Y-85166329D01*
X22206679Y-85161781D01*
X22174666Y-85156144D01*
X22141992Y-85139437D01*
X22118819Y-85112036D01*
X22103591Y-85067336D01*
X22094756Y-84998734D01*
X22090758Y-84899627D01*
X22090000Y-84796371D01*
X22090341Y-84664817D01*
X22095245Y-84569224D01*
X22110533Y-84503858D01*
X22142023Y-84462984D01*
X22195536Y-84440867D01*
X22276892Y-84431772D01*
X22391911Y-84429963D01*
X22461808Y-84430000D01*
G37*
X24905546Y-84430069D02*
X25001169Y-84434168D01*
X25066227Y-84448133D01*
X25106585Y-84477800D01*
X25128107Y-84529007D01*
X25136660Y-84607590D01*
X25138108Y-84719386D01*
X25138000Y-84792746D01*
X25136668Y-84921301D01*
X25132313Y-85013469D01*
X25124395Y-85075124D01*
X25112374Y-85112140D01*
X25108001Y-85119163D01*
X25091870Y-85135804D01*
X25067020Y-85147607D01*
X25026243Y-85155632D01*
X24962333Y-85160938D01*
X24868083Y-85164584D01*
X24785209Y-85166607D01*
X24662693Y-85168443D01*
X24575040Y-85167362D01*
X24514841Y-85162764D01*
X24474690Y-85154047D01*
X24447179Y-85140609D01*
X24444791Y-85138949D01*
X24426409Y-85123845D01*
X24413486Y-85104453D01*
X24405063Y-85073731D01*
X24400180Y-85024637D01*
X24397879Y-84950128D01*
X24397199Y-84843163D01*
X24397166Y-84789378D01*
X24397566Y-84666859D01*
X24399311Y-84579921D01*
X24403219Y-84521815D01*
X24410111Y-84485793D01*
X24420804Y-84465105D01*
X24436117Y-84453002D01*
X24438108Y-84451911D01*
X24473702Y-84443860D01*
X24542624Y-84437150D01*
X24635876Y-84432368D01*
X24744458Y-84430104D01*
X24773494Y-84430000D01*
X24905546Y-84430069D01*
G36*
X24905546Y-84430069D02*
G01*
X25001169Y-84434168D01*
X25066227Y-84448133D01*
X25106585Y-84477800D01*
X25128107Y-84529007D01*
X25136660Y-84607590D01*
X25138108Y-84719386D01*
X25138000Y-84792746D01*
X25136668Y-84921301D01*
X25132313Y-85013469D01*
X25124395Y-85075124D01*
X25112374Y-85112140D01*
X25108001Y-85119163D01*
X25091870Y-85135804D01*
X25067020Y-85147607D01*
X25026243Y-85155632D01*
X24962333Y-85160938D01*
X24868083Y-85164584D01*
X24785209Y-85166607D01*
X24662693Y-85168443D01*
X24575040Y-85167362D01*
X24514841Y-85162764D01*
X24474690Y-85154047D01*
X24447179Y-85140609D01*
X24444791Y-85138949D01*
X24426409Y-85123845D01*
X24413486Y-85104453D01*
X24405063Y-85073731D01*
X24400180Y-85024637D01*
X24397879Y-84950128D01*
X24397199Y-84843163D01*
X24397166Y-84789378D01*
X24397566Y-84666859D01*
X24399311Y-84579921D01*
X24403219Y-84521815D01*
X24410111Y-84485793D01*
X24420804Y-84465105D01*
X24436117Y-84453002D01*
X24438108Y-84451911D01*
X24473702Y-84443860D01*
X24542624Y-84437150D01*
X24635876Y-84432368D01*
X24744458Y-84430104D01*
X24773494Y-84430000D01*
X24905546Y-84430069D01*
G37*
X18197629Y-81338071D02*
X18295870Y-81342030D01*
X18375283Y-81349844D01*
X18425793Y-81361613D01*
X18434067Y-81366125D01*
X18441074Y-81374182D01*
X18447133Y-81389055D01*
X18452332Y-81413757D01*
X18456759Y-81451300D01*
X18460503Y-81504696D01*
X18463653Y-81576958D01*
X18466296Y-81671098D01*
X18468520Y-81790129D01*
X18470416Y-81937062D01*
X18472070Y-82114909D01*
X18473571Y-82326684D01*
X18475008Y-82575398D01*
X18476157Y-82800167D01*
X18477595Y-83089814D01*
X18479023Y-83340221D01*
X18480696Y-83554479D01*
X18482870Y-83735680D01*
X18485800Y-83886915D01*
X18489741Y-84011277D01*
X18494950Y-84111857D01*
X18501681Y-84191747D01*
X18510189Y-84254039D01*
X18520731Y-84301825D01*
X18533561Y-84338196D01*
X18548935Y-84366244D01*
X18567108Y-84389061D01*
X18588336Y-84409740D01*
X18610749Y-84429502D01*
X18643350Y-84455417D01*
X18679460Y-84476876D01*
X18723126Y-84494250D01*
X18778395Y-84507911D01*
X18849313Y-84518231D01*
X18939927Y-84525582D01*
X19054284Y-84530335D01*
X19196430Y-84532863D01*
X19370412Y-84533537D01*
X19580278Y-84532729D01*
X19722996Y-84531704D01*
X19930299Y-84529969D01*
X20099722Y-84528217D01*
X20235719Y-84526191D01*
X20342744Y-84523637D01*
X20425249Y-84520299D01*
X20487688Y-84515919D01*
X20534514Y-84510244D01*
X20570181Y-84503017D01*
X20599142Y-84493982D01*
X20625850Y-84482883D01*
X20633451Y-84479408D01*
X20713225Y-84430842D01*
X20768714Y-84364487D01*
X20781618Y-84341824D01*
X20797326Y-84310656D01*
X20809260Y-84279652D01*
X20817937Y-84242701D01*
X20823875Y-84193690D01*
X20827592Y-84126505D01*
X20829603Y-84035035D01*
X20830428Y-83913165D01*
X20830583Y-83763250D01*
X20830408Y-83606748D01*
X20829539Y-83486465D01*
X20827457Y-83396291D01*
X20823647Y-83330111D01*
X20817590Y-83281813D01*
X20808769Y-83245284D01*
X20796667Y-83214411D01*
X20781618Y-83184675D01*
X20729539Y-83110806D01*
X20657950Y-83059161D01*
X20633451Y-83047092D01*
X20606628Y-83035396D01*
X20578788Y-83025826D01*
X20545487Y-83018130D01*
X20502283Y-83012051D01*
X20444732Y-83007337D01*
X20368390Y-83003732D01*
X20268815Y-83000981D01*
X20141562Y-82998831D01*
X19982188Y-82997027D01*
X19786250Y-82995314D01*
X19720085Y-82994783D01*
X19479239Y-82992272D01*
X19278115Y-82988890D01*
X19117217Y-82984654D01*
X18997047Y-82979581D01*
X18918109Y-82973689D01*
X18880905Y-82966996D01*
X18878710Y-82965733D01*
X18866220Y-82940475D01*
X18857790Y-82886118D01*
X18853018Y-82798295D01*
X18851500Y-82672641D01*
X18851500Y-82671319D01*
X18851921Y-82559234D01*
X18853946Y-82482032D01*
X18858713Y-82432265D01*
X18867364Y-82402486D01*
X18881039Y-82385247D01*
X18896824Y-82375232D01*
X18931440Y-82368375D01*
X19002999Y-82363118D01*
X19106145Y-82359379D01*
X19235520Y-82357077D01*
X19385768Y-82356130D01*
X19551533Y-82356456D01*
X19727458Y-82357974D01*
X19908185Y-82360602D01*
X20088359Y-82364259D01*
X20262622Y-82368862D01*
X20425618Y-82374331D01*
X20571991Y-82380583D01*
X20696383Y-82387536D01*
X20793437Y-82395110D01*
X20857798Y-82403222D01*
X20867964Y-82405281D01*
X21064666Y-82464645D01*
X21225813Y-82545222D01*
X21353809Y-82649483D01*
X21451058Y-82779898D01*
X21519962Y-82938935D01*
X21561182Y-83117667D01*
X21570156Y-83201461D01*
X21576430Y-83315905D01*
X21580151Y-83453947D01*
X21581462Y-83608538D01*
X21580509Y-83772625D01*
X21577438Y-83939159D01*
X21572393Y-84101087D01*
X21565521Y-84251360D01*
X21556966Y-84382926D01*
X21546874Y-84488734D01*
X21535390Y-84561734D01*
X21531088Y-84578167D01*
X21458416Y-84745594D01*
X21354932Y-84884040D01*
X21220872Y-84993242D01*
X21102853Y-85054760D01*
X21047031Y-85077019D01*
X20990652Y-85095738D01*
X20929511Y-85111256D01*
X20859399Y-85123907D01*
X20776110Y-85134030D01*
X20675438Y-85141960D01*
X20553175Y-85148034D01*
X20405114Y-85152589D01*
X20227048Y-85155961D01*
X20014771Y-85158487D01*
X19782833Y-85160372D01*
X19579984Y-85161409D01*
X19384307Y-85161671D01*
X19201132Y-85161203D01*
X19035793Y-85160052D01*
X18893621Y-85158261D01*
X18779948Y-85155876D01*
X18700107Y-85152943D01*
X18670881Y-85150959D01*
X18444379Y-85118574D01*
X18253891Y-85066378D01*
X18097047Y-84992415D01*
X17971477Y-84894726D01*
X17874809Y-84771355D01*
X17804674Y-84620343D01*
X17758700Y-84439735D01*
X17750933Y-84391310D01*
X17747302Y-84345034D01*
X17743886Y-84260126D01*
X17740734Y-84140284D01*
X17737896Y-83989211D01*
X17735419Y-83810607D01*
X17733355Y-83608171D01*
X17731752Y-83385603D01*
X17730659Y-83146606D01*
X17730126Y-82894877D01*
X17730085Y-82827825D01*
X17729666Y-81405567D01*
X17776709Y-81372617D01*
X17817931Y-81358794D01*
X17890712Y-81348328D01*
X17984972Y-81341320D01*
X18090637Y-81337867D01*
X18197629Y-81338071D01*
G36*
X18197629Y-81338071D02*
G01*
X18295870Y-81342030D01*
X18375283Y-81349844D01*
X18425793Y-81361613D01*
X18434067Y-81366125D01*
X18441074Y-81374182D01*
X18447133Y-81389055D01*
X18452332Y-81413757D01*
X18456759Y-81451300D01*
X18460503Y-81504696D01*
X18463653Y-81576958D01*
X18466296Y-81671098D01*
X18468520Y-81790129D01*
X18470416Y-81937062D01*
X18472070Y-82114909D01*
X18473571Y-82326684D01*
X18475008Y-82575398D01*
X18476157Y-82800167D01*
X18477595Y-83089814D01*
X18479023Y-83340221D01*
X18480696Y-83554479D01*
X18482870Y-83735680D01*
X18485800Y-83886915D01*
X18489741Y-84011277D01*
X18494950Y-84111857D01*
X18501681Y-84191747D01*
X18510189Y-84254039D01*
X18520731Y-84301825D01*
X18533561Y-84338196D01*
X18548935Y-84366244D01*
X18567108Y-84389061D01*
X18588336Y-84409740D01*
X18610749Y-84429502D01*
X18643350Y-84455417D01*
X18679460Y-84476876D01*
X18723126Y-84494250D01*
X18778395Y-84507911D01*
X18849313Y-84518231D01*
X18939927Y-84525582D01*
X19054284Y-84530335D01*
X19196430Y-84532863D01*
X19370412Y-84533537D01*
X19580278Y-84532729D01*
X19722996Y-84531704D01*
X19930299Y-84529969D01*
X20099722Y-84528217D01*
X20235719Y-84526191D01*
X20342744Y-84523637D01*
X20425249Y-84520299D01*
X20487688Y-84515919D01*
X20534514Y-84510244D01*
X20570181Y-84503017D01*
X20599142Y-84493982D01*
X20625850Y-84482883D01*
X20633451Y-84479408D01*
X20713225Y-84430842D01*
X20768714Y-84364487D01*
X20781618Y-84341824D01*
X20797326Y-84310656D01*
X20809260Y-84279652D01*
X20817937Y-84242701D01*
X20823875Y-84193690D01*
X20827592Y-84126505D01*
X20829603Y-84035035D01*
X20830428Y-83913165D01*
X20830583Y-83763250D01*
X20830408Y-83606748D01*
X20829539Y-83486465D01*
X20827457Y-83396291D01*
X20823647Y-83330111D01*
X20817590Y-83281813D01*
X20808769Y-83245284D01*
X20796667Y-83214411D01*
X20781618Y-83184675D01*
X20729539Y-83110806D01*
X20657950Y-83059161D01*
X20633451Y-83047092D01*
X20606628Y-83035396D01*
X20578788Y-83025826D01*
X20545487Y-83018130D01*
X20502283Y-83012051D01*
X20444732Y-83007337D01*
X20368390Y-83003732D01*
X20268815Y-83000981D01*
X20141562Y-82998831D01*
X19982188Y-82997027D01*
X19786250Y-82995314D01*
X19720085Y-82994783D01*
X19479239Y-82992272D01*
X19278115Y-82988890D01*
X19117217Y-82984654D01*
X18997047Y-82979581D01*
X18918109Y-82973689D01*
X18880905Y-82966996D01*
X18878710Y-82965733D01*
X18866220Y-82940475D01*
X18857790Y-82886118D01*
X18853018Y-82798295D01*
X18851500Y-82672641D01*
X18851500Y-82671319D01*
X18851921Y-82559234D01*
X18853946Y-82482032D01*
X18858713Y-82432265D01*
X18867364Y-82402486D01*
X18881039Y-82385247D01*
X18896824Y-82375232D01*
X18931440Y-82368375D01*
X19002999Y-82363118D01*
X19106145Y-82359379D01*
X19235520Y-82357077D01*
X19385768Y-82356130D01*
X19551533Y-82356456D01*
X19727458Y-82357974D01*
X19908185Y-82360602D01*
X20088359Y-82364259D01*
X20262622Y-82368862D01*
X20425618Y-82374331D01*
X20571991Y-82380583D01*
X20696383Y-82387536D01*
X20793437Y-82395110D01*
X20857798Y-82403222D01*
X20867964Y-82405281D01*
X21064666Y-82464645D01*
X21225813Y-82545222D01*
X21353809Y-82649483D01*
X21451058Y-82779898D01*
X21519962Y-82938935D01*
X21561182Y-83117667D01*
X21570156Y-83201461D01*
X21576430Y-83315905D01*
X21580151Y-83453947D01*
X21581462Y-83608538D01*
X21580509Y-83772625D01*
X21577438Y-83939159D01*
X21572393Y-84101087D01*
X21565521Y-84251360D01*
X21556966Y-84382926D01*
X21546874Y-84488734D01*
X21535390Y-84561734D01*
X21531088Y-84578167D01*
X21458416Y-84745594D01*
X21354932Y-84884040D01*
X21220872Y-84993242D01*
X21102853Y-85054760D01*
X21047031Y-85077019D01*
X20990652Y-85095738D01*
X20929511Y-85111256D01*
X20859399Y-85123907D01*
X20776110Y-85134030D01*
X20675438Y-85141960D01*
X20553175Y-85148034D01*
X20405114Y-85152589D01*
X20227048Y-85155961D01*
X20014771Y-85158487D01*
X19782833Y-85160372D01*
X19579984Y-85161409D01*
X19384307Y-85161671D01*
X19201132Y-85161203D01*
X19035793Y-85160052D01*
X18893621Y-85158261D01*
X18779948Y-85155876D01*
X18700107Y-85152943D01*
X18670881Y-85150959D01*
X18444379Y-85118574D01*
X18253891Y-85066378D01*
X18097047Y-84992415D01*
X17971477Y-84894726D01*
X17874809Y-84771355D01*
X17804674Y-84620343D01*
X17758700Y-84439735D01*
X17750933Y-84391310D01*
X17747302Y-84345034D01*
X17743886Y-84260126D01*
X17740734Y-84140284D01*
X17737896Y-83989211D01*
X17735419Y-83810607D01*
X17733355Y-83608171D01*
X17731752Y-83385603D01*
X17730659Y-83146606D01*
X17730126Y-82894877D01*
X17730085Y-82827825D01*
X17729666Y-81405567D01*
X17776709Y-81372617D01*
X17817931Y-81358794D01*
X17890712Y-81348328D01*
X17984972Y-81341320D01*
X18090637Y-81337867D01*
X18197629Y-81338071D01*
G37*
X17084894Y-82356476D02*
X17182290Y-82361930D01*
X17255013Y-82372308D01*
X17306594Y-82388724D01*
X17340564Y-82412293D01*
X17360454Y-82444128D01*
X17369794Y-82485344D01*
X17372117Y-82537054D01*
X17370953Y-82600373D01*
X17369833Y-82674558D01*
X17367914Y-82773724D01*
X17362721Y-82860184D01*
X17355100Y-82923322D01*
X17347921Y-82949725D01*
X17340625Y-82960403D01*
X17328557Y-82969045D01*
X17307555Y-82975866D01*
X17273459Y-82981080D01*
X17222106Y-82984903D01*
X17149334Y-82987549D01*
X17050982Y-82989233D01*
X16922888Y-82990171D01*
X16760889Y-82990577D01*
X16560825Y-82990666D01*
X16555213Y-82990667D01*
X16336339Y-82991342D01*
X16142493Y-82993312D01*
X15977006Y-82996488D01*
X15843211Y-83000783D01*
X15744438Y-83006109D01*
X15684019Y-83012380D01*
X15677085Y-83013685D01*
X15566587Y-83055542D01*
X15477778Y-83125441D01*
X15418695Y-83216220D01*
X15405438Y-83255767D01*
X15398906Y-83300347D01*
X15392012Y-83380223D01*
X15385164Y-83488368D01*
X15378772Y-83617751D01*
X15373245Y-83761343D01*
X15370323Y-83858500D01*
X15363718Y-84062942D01*
X15355301Y-84230737D01*
X15344172Y-84367560D01*
X15329431Y-84479088D01*
X15310175Y-84570998D01*
X15285506Y-84648964D01*
X15254521Y-84718663D01*
X15225568Y-84770644D01*
X15129589Y-84894017D01*
X15003253Y-84993313D01*
X14844316Y-85069876D01*
X14650533Y-85125045D01*
X14623442Y-85130563D01*
X14579962Y-85134963D01*
X14498459Y-85139132D01*
X14383244Y-85143044D01*
X14238627Y-85146675D01*
X14068917Y-85149997D01*
X13878425Y-85152987D01*
X13671461Y-85155618D01*
X13452335Y-85157865D01*
X13225357Y-85159703D01*
X12994838Y-85161105D01*
X12765087Y-85162047D01*
X12540415Y-85162502D01*
X12325131Y-85162446D01*
X12123547Y-85161853D01*
X11939972Y-85160697D01*
X11778715Y-85158953D01*
X11644089Y-85156595D01*
X11540401Y-85153598D01*
X11471964Y-85149936D01*
X11464333Y-85149263D01*
X11258814Y-85121543D01*
X11088510Y-85080348D01*
X10947876Y-85023644D01*
X10831368Y-84949400D01*
X10769831Y-84894685D01*
X10708757Y-84826580D01*
X10658493Y-84752796D01*
X10618192Y-84668842D01*
X10587009Y-84570224D01*
X10564096Y-84452453D01*
X10548607Y-84311036D01*
X10539695Y-84141481D01*
X10536513Y-83939298D01*
X10538214Y-83699994D01*
X10538705Y-83668646D01*
X10542379Y-83476477D01*
X10546948Y-83320809D01*
X10553183Y-83195810D01*
X10561855Y-83095648D01*
X10573735Y-83014491D01*
X10589596Y-82946507D01*
X10610208Y-82885865D01*
X10636343Y-82826731D01*
X10654978Y-82789583D01*
X10744064Y-82663266D01*
X10869904Y-82557653D01*
X11032231Y-82472916D01*
X11230776Y-82409226D01*
X11256302Y-82403172D01*
X11297081Y-82394891D01*
X11343600Y-82387965D01*
X11399822Y-82382273D01*
X11469708Y-82377696D01*
X11557221Y-82374116D01*
X11666322Y-82371411D01*
X11800973Y-82369464D01*
X11965136Y-82368155D01*
X12162774Y-82367363D01*
X12397847Y-82366971D01*
X12459166Y-82366923D01*
X12712194Y-82367005D01*
X12926304Y-82367657D01*
X13104910Y-82368965D01*
X13251424Y-82371011D01*
X13369259Y-82373881D01*
X13461830Y-82377657D01*
X13532547Y-82382425D01*
X13584825Y-82388267D01*
X13622077Y-82395269D01*
X13623333Y-82395582D01*
X13770160Y-82443355D01*
X13883558Y-82506956D01*
X13971273Y-82592373D01*
X14041051Y-82705595D01*
X14050789Y-82726083D01*
X14066446Y-82762435D01*
X14078481Y-82798934D01*
X14087475Y-82841829D01*
X14094011Y-82897367D01*
X14098671Y-82971798D01*
X14102035Y-83071370D01*
X14104685Y-83202331D01*
X14106558Y-83325136D01*
X14108523Y-83485322D01*
X14109076Y-83608738D01*
X14107932Y-83700933D01*
X14104807Y-83767454D01*
X14099415Y-83813851D01*
X14091471Y-83845672D01*
X14080691Y-83868465D01*
X14078487Y-83871945D01*
X14061202Y-83896858D01*
X14042337Y-83917832D01*
X14018315Y-83935205D01*
X13985558Y-83949315D01*
X13940489Y-83960499D01*
X13879532Y-83969095D01*
X13799110Y-83975439D01*
X13695645Y-83979869D01*
X13565560Y-83982723D01*
X13405279Y-83984338D01*
X13211224Y-83985050D01*
X12979819Y-83985198D01*
X12877888Y-83985176D01*
X12651025Y-83984695D01*
X12444852Y-83983446D01*
X12262622Y-83981490D01*
X12107584Y-83978890D01*
X11982989Y-83975709D01*
X11892089Y-83972009D01*
X11838134Y-83967852D01*
X11824364Y-83964903D01*
X11805640Y-83936971D01*
X11793019Y-83877652D01*
X11785400Y-83781659D01*
X11785198Y-83777305D01*
X11781230Y-83711048D01*
X11778539Y-83657175D01*
X11781013Y-83614415D01*
X11792541Y-83581495D01*
X11817013Y-83557142D01*
X11858317Y-83540085D01*
X11920342Y-83529052D01*
X12006977Y-83522770D01*
X12122112Y-83519967D01*
X12269635Y-83519371D01*
X12453436Y-83519709D01*
X12572282Y-83519833D01*
X12780787Y-83519499D01*
X12950595Y-83518411D01*
X13085339Y-83516441D01*
X13188652Y-83513459D01*
X13264166Y-83509336D01*
X13315514Y-83503945D01*
X13346327Y-83497156D01*
X13356957Y-83492012D01*
X13375066Y-83473248D01*
X13385609Y-83443501D01*
X13389843Y-83393646D01*
X13389020Y-83314559D01*
X13387461Y-83270220D01*
X13382831Y-83176609D01*
X13375836Y-83114490D01*
X13363636Y-83073023D01*
X13343389Y-83041369D01*
X13321249Y-83017583D01*
X13262581Y-82958917D01*
X12474582Y-82952170D01*
X12245694Y-82950561D01*
X12054989Y-82950268D01*
X11898325Y-82951688D01*
X11771561Y-82955215D01*
X11670556Y-82961245D01*
X11591169Y-82970176D01*
X11529259Y-82982401D01*
X11480686Y-82998319D01*
X11441307Y-83018323D01*
X11406982Y-83042810D01*
X11391751Y-83055687D01*
X11355903Y-83091109D01*
X11327874Y-83130623D01*
X11306831Y-83179562D01*
X11291939Y-83243257D01*
X11282365Y-83327038D01*
X11277275Y-83436238D01*
X11275835Y-83576188D01*
X11277211Y-83752219D01*
X11277651Y-83785146D01*
X11280131Y-83943096D01*
X11282960Y-84064609D01*
X11286655Y-84155581D01*
X11291736Y-84221909D01*
X11298722Y-84269487D01*
X11308130Y-84304213D01*
X11320482Y-84331981D01*
X11326750Y-84343121D01*
X11388551Y-84423865D01*
X11467438Y-84477594D01*
X11574300Y-84511302D01*
X11594975Y-84515351D01*
X11645519Y-84520361D01*
X11737133Y-84524528D01*
X11868563Y-84527837D01*
X12038556Y-84530276D01*
X12245857Y-84531830D01*
X12489211Y-84532485D01*
X12767363Y-84532227D01*
X13023725Y-84531309D01*
X14332416Y-84525250D01*
X14426584Y-84472333D01*
X14476493Y-84442824D01*
X14516270Y-84413190D01*
X14547211Y-84378369D01*
X14570611Y-84333297D01*
X14587767Y-84272911D01*
X14599974Y-84192148D01*
X14608526Y-84085945D01*
X14614721Y-83949239D01*
X14619853Y-83776966D01*
X14621562Y-83710333D01*
X14627302Y-83510660D01*
X14633973Y-83347597D01*
X14642383Y-83215418D01*
X14653341Y-83108399D01*
X14667653Y-83020818D01*
X14686128Y-82946948D01*
X14709572Y-82881067D01*
X14738793Y-82817449D01*
X14750813Y-82794129D01*
X14838625Y-82662273D01*
X14949917Y-82560743D01*
X15075781Y-82489368D01*
X15136280Y-82462845D01*
X15194864Y-82440601D01*
X15255928Y-82422205D01*
X15323869Y-82407226D01*
X15403086Y-82395234D01*
X15497974Y-82385795D01*
X15612931Y-82378479D01*
X15752354Y-82372855D01*
X15920640Y-82368491D01*
X16122185Y-82364956D01*
X16361388Y-82361818D01*
X16377958Y-82361622D01*
X16609357Y-82358520D01*
X16801959Y-82355885D01*
X16959294Y-82354832D01*
X17084894Y-82356476D01*
G36*
X17084894Y-82356476D02*
G01*
X17182290Y-82361930D01*
X17255013Y-82372308D01*
X17306594Y-82388724D01*
X17340564Y-82412293D01*
X17360454Y-82444128D01*
X17369794Y-82485344D01*
X17372117Y-82537054D01*
X17370953Y-82600373D01*
X17369833Y-82674558D01*
X17367914Y-82773724D01*
X17362721Y-82860184D01*
X17355100Y-82923322D01*
X17347921Y-82949725D01*
X17340625Y-82960403D01*
X17328557Y-82969045D01*
X17307555Y-82975866D01*
X17273459Y-82981080D01*
X17222106Y-82984903D01*
X17149334Y-82987549D01*
X17050982Y-82989233D01*
X16922888Y-82990171D01*
X16760889Y-82990577D01*
X16560825Y-82990666D01*
X16555213Y-82990667D01*
X16336339Y-82991342D01*
X16142493Y-82993312D01*
X15977006Y-82996488D01*
X15843211Y-83000783D01*
X15744438Y-83006109D01*
X15684019Y-83012380D01*
X15677085Y-83013685D01*
X15566587Y-83055542D01*
X15477778Y-83125441D01*
X15418695Y-83216220D01*
X15405438Y-83255767D01*
X15398906Y-83300347D01*
X15392012Y-83380223D01*
X15385164Y-83488368D01*
X15378772Y-83617751D01*
X15373245Y-83761343D01*
X15370323Y-83858500D01*
X15363718Y-84062942D01*
X15355301Y-84230737D01*
X15344172Y-84367560D01*
X15329431Y-84479088D01*
X15310175Y-84570998D01*
X15285506Y-84648964D01*
X15254521Y-84718663D01*
X15225568Y-84770644D01*
X15129589Y-84894017D01*
X15003253Y-84993313D01*
X14844316Y-85069876D01*
X14650533Y-85125045D01*
X14623442Y-85130563D01*
X14579962Y-85134963D01*
X14498459Y-85139132D01*
X14383244Y-85143044D01*
X14238627Y-85146675D01*
X14068917Y-85149997D01*
X13878425Y-85152987D01*
X13671461Y-85155618D01*
X13452335Y-85157865D01*
X13225357Y-85159703D01*
X12994838Y-85161105D01*
X12765087Y-85162047D01*
X12540415Y-85162502D01*
X12325131Y-85162446D01*
X12123547Y-85161853D01*
X11939972Y-85160697D01*
X11778715Y-85158953D01*
X11644089Y-85156595D01*
X11540401Y-85153598D01*
X11471964Y-85149936D01*
X11464333Y-85149263D01*
X11258814Y-85121543D01*
X11088510Y-85080348D01*
X10947876Y-85023644D01*
X10831368Y-84949400D01*
X10769831Y-84894685D01*
X10708757Y-84826580D01*
X10658493Y-84752796D01*
X10618192Y-84668842D01*
X10587009Y-84570224D01*
X10564096Y-84452453D01*
X10548607Y-84311036D01*
X10539695Y-84141481D01*
X10536513Y-83939298D01*
X10538214Y-83699994D01*
X10538705Y-83668646D01*
X10542379Y-83476477D01*
X10546948Y-83320809D01*
X10553183Y-83195810D01*
X10561855Y-83095648D01*
X10573735Y-83014491D01*
X10589596Y-82946507D01*
X10610208Y-82885865D01*
X10636343Y-82826731D01*
X10654978Y-82789583D01*
X10744064Y-82663266D01*
X10869904Y-82557653D01*
X11032231Y-82472916D01*
X11230776Y-82409226D01*
X11256302Y-82403172D01*
X11297081Y-82394891D01*
X11343600Y-82387965D01*
X11399822Y-82382273D01*
X11469708Y-82377696D01*
X11557221Y-82374116D01*
X11666322Y-82371411D01*
X11800973Y-82369464D01*
X11965136Y-82368155D01*
X12162774Y-82367363D01*
X12397847Y-82366971D01*
X12459166Y-82366923D01*
X12712194Y-82367005D01*
X12926304Y-82367657D01*
X13104910Y-82368965D01*
X13251424Y-82371011D01*
X13369259Y-82373881D01*
X13461830Y-82377657D01*
X13532547Y-82382425D01*
X13584825Y-82388267D01*
X13622077Y-82395269D01*
X13623333Y-82395582D01*
X13770160Y-82443355D01*
X13883558Y-82506956D01*
X13971273Y-82592373D01*
X14041051Y-82705595D01*
X14050789Y-82726083D01*
X14066446Y-82762435D01*
X14078481Y-82798934D01*
X14087475Y-82841829D01*
X14094011Y-82897367D01*
X14098671Y-82971798D01*
X14102035Y-83071370D01*
X14104685Y-83202331D01*
X14106558Y-83325136D01*
X14108523Y-83485322D01*
X14109076Y-83608738D01*
X14107932Y-83700933D01*
X14104807Y-83767454D01*
X14099415Y-83813851D01*
X14091471Y-83845672D01*
X14080691Y-83868465D01*
X14078487Y-83871945D01*
X14061202Y-83896858D01*
X14042337Y-83917832D01*
X14018315Y-83935205D01*
X13985558Y-83949315D01*
X13940489Y-83960499D01*
X13879532Y-83969095D01*
X13799110Y-83975439D01*
X13695645Y-83979869D01*
X13565560Y-83982723D01*
X13405279Y-83984338D01*
X13211224Y-83985050D01*
X12979819Y-83985198D01*
X12877888Y-83985176D01*
X12651025Y-83984695D01*
X12444852Y-83983446D01*
X12262622Y-83981490D01*
X12107584Y-83978890D01*
X11982989Y-83975709D01*
X11892089Y-83972009D01*
X11838134Y-83967852D01*
X11824364Y-83964903D01*
X11805640Y-83936971D01*
X11793019Y-83877652D01*
X11785400Y-83781659D01*
X11785198Y-83777305D01*
X11781230Y-83711048D01*
X11778539Y-83657175D01*
X11781013Y-83614415D01*
X11792541Y-83581495D01*
X11817013Y-83557142D01*
X11858317Y-83540085D01*
X11920342Y-83529052D01*
X12006977Y-83522770D01*
X12122112Y-83519967D01*
X12269635Y-83519371D01*
X12453436Y-83519709D01*
X12572282Y-83519833D01*
X12780787Y-83519499D01*
X12950595Y-83518411D01*
X13085339Y-83516441D01*
X13188652Y-83513459D01*
X13264166Y-83509336D01*
X13315514Y-83503945D01*
X13346327Y-83497156D01*
X13356957Y-83492012D01*
X13375066Y-83473248D01*
X13385609Y-83443501D01*
X13389843Y-83393646D01*
X13389020Y-83314559D01*
X13387461Y-83270220D01*
X13382831Y-83176609D01*
X13375836Y-83114490D01*
X13363636Y-83073023D01*
X13343389Y-83041369D01*
X13321249Y-83017583D01*
X13262581Y-82958917D01*
X12474582Y-82952170D01*
X12245694Y-82950561D01*
X12054989Y-82950268D01*
X11898325Y-82951688D01*
X11771561Y-82955215D01*
X11670556Y-82961245D01*
X11591169Y-82970176D01*
X11529259Y-82982401D01*
X11480686Y-82998319D01*
X11441307Y-83018323D01*
X11406982Y-83042810D01*
X11391751Y-83055687D01*
X11355903Y-83091109D01*
X11327874Y-83130623D01*
X11306831Y-83179562D01*
X11291939Y-83243257D01*
X11282365Y-83327038D01*
X11277275Y-83436238D01*
X11275835Y-83576188D01*
X11277211Y-83752219D01*
X11277651Y-83785146D01*
X11280131Y-83943096D01*
X11282960Y-84064609D01*
X11286655Y-84155581D01*
X11291736Y-84221909D01*
X11298722Y-84269487D01*
X11308130Y-84304213D01*
X11320482Y-84331981D01*
X11326750Y-84343121D01*
X11388551Y-84423865D01*
X11467438Y-84477594D01*
X11574300Y-84511302D01*
X11594975Y-84515351D01*
X11645519Y-84520361D01*
X11737133Y-84524528D01*
X11868563Y-84527837D01*
X12038556Y-84530276D01*
X12245857Y-84531830D01*
X12489211Y-84532485D01*
X12767363Y-84532227D01*
X13023725Y-84531309D01*
X14332416Y-84525250D01*
X14426584Y-84472333D01*
X14476493Y-84442824D01*
X14516270Y-84413190D01*
X14547211Y-84378369D01*
X14570611Y-84333297D01*
X14587767Y-84272911D01*
X14599974Y-84192148D01*
X14608526Y-84085945D01*
X14614721Y-83949239D01*
X14619853Y-83776966D01*
X14621562Y-83710333D01*
X14627302Y-83510660D01*
X14633973Y-83347597D01*
X14642383Y-83215418D01*
X14653341Y-83108399D01*
X14667653Y-83020818D01*
X14686128Y-82946948D01*
X14709572Y-82881067D01*
X14738793Y-82817449D01*
X14750813Y-82794129D01*
X14838625Y-82662273D01*
X14949917Y-82560743D01*
X15075781Y-82489368D01*
X15136280Y-82462845D01*
X15194864Y-82440601D01*
X15255928Y-82422205D01*
X15323869Y-82407226D01*
X15403086Y-82395234D01*
X15497974Y-82385795D01*
X15612931Y-82378479D01*
X15752354Y-82372855D01*
X15920640Y-82368491D01*
X16122185Y-82364956D01*
X16361388Y-82361818D01*
X16377958Y-82361622D01*
X16609357Y-82358520D01*
X16801959Y-82355885D01*
X16959294Y-82354832D01*
X17084894Y-82356476D01*
G37*
%TO.C,D2*%
D11*
X7820000Y-19370416D02*
X9230000Y-19370416D01*
X9230000Y-17050416D02*
X7200000Y-17050416D01*
X9230000Y-17050416D02*
X9230000Y-17710416D01*
X9230000Y-18710416D02*
X9230000Y-19370416D01*
%TO.C,D3*%
X7820000Y-22500346D02*
X9230000Y-22500346D01*
X9230000Y-20180346D02*
X7200000Y-20180346D01*
X9230000Y-20180346D02*
X9230000Y-20840346D01*
X9230000Y-21840346D02*
X9230000Y-22500346D01*
%TO.C,D4*%
X7820000Y-25630276D02*
X9230000Y-25630276D01*
X9230000Y-23310276D02*
X7200000Y-23310276D01*
X9230000Y-23310276D02*
X9230000Y-23970276D01*
X9230000Y-24970276D02*
X9230000Y-25630276D01*
%TO.C,D5*%
X7820000Y-28760206D02*
X9230000Y-28760206D01*
X9230000Y-26440206D02*
X7200000Y-26440206D01*
X9230000Y-26440206D02*
X9230000Y-27100206D01*
X9230000Y-28100206D02*
X9230000Y-28760206D01*
%TO.C,D6*%
X7820000Y-31890136D02*
X9230000Y-31890136D01*
X9230000Y-29570136D02*
X7200000Y-29570136D01*
X9230000Y-29570136D02*
X9230000Y-30230136D01*
X9230000Y-31230136D02*
X9230000Y-31890136D01*
%TO.C,D7*%
X7820000Y-35020066D02*
X9230000Y-35020066D01*
X9230000Y-32700066D02*
X7200000Y-32700066D01*
X9230000Y-32700066D02*
X9230000Y-33360066D01*
X9230000Y-34360066D02*
X9230000Y-35020066D01*
%TO.C,D8*%
X7820000Y-38150000D02*
X9230000Y-38150000D01*
X9230000Y-35830000D02*
X7200000Y-35830000D01*
X9230000Y-35830000D02*
X9230000Y-36490000D01*
X9230000Y-37490000D02*
X9230000Y-38150000D01*
%TO.C,D1*%
X7820000Y-16240486D02*
X9230000Y-16240486D01*
X9230000Y-13920486D02*
X7200000Y-13920486D01*
X9230000Y-13920486D02*
X9230000Y-14580486D01*
X9230000Y-15580486D02*
X9230000Y-16240486D01*
%TO.C,R88*%
X4862742Y-27807500D02*
X5337258Y-27807500D01*
X4862742Y-28852500D02*
X5337258Y-28852500D01*
%TO.C,R1*%
X17477500Y-21866258D02*
X17477500Y-21391742D01*
X18522500Y-21866258D02*
X18522500Y-21391742D01*
%TO.C,R87*%
X4862742Y-24667500D02*
X5337258Y-24667500D01*
X4862742Y-25712500D02*
X5337258Y-25712500D01*
%TO.C,D30*%
X7190000Y-94090000D02*
X7190000Y-93430000D01*
X7190000Y-95750000D02*
X7190000Y-95090000D01*
X7190000Y-95750000D02*
X9220000Y-95750000D01*
X8600000Y-93430000D02*
X7190000Y-93430000D01*
%TO.C,R85*%
X4862742Y-18427500D02*
X5337258Y-18427500D01*
X4862742Y-19472500D02*
X5337258Y-19472500D01*
%TO.C,R89*%
X4862742Y-30947500D02*
X5337258Y-30947500D01*
X4862742Y-31992500D02*
X5337258Y-31992500D01*
%TO.C,R90*%
X4862742Y-34077500D02*
X5337258Y-34077500D01*
X4862742Y-35122500D02*
X5337258Y-35122500D01*
%TO.C,R86*%
X4862742Y-21547500D02*
X5337258Y-21547500D01*
X4862742Y-22592500D02*
X5337258Y-22592500D01*
%TO.C,R84*%
X4862742Y-15327500D02*
X5337258Y-15327500D01*
X4862742Y-16372500D02*
X5337258Y-16372500D01*
%TO.C,R91*%
X4862742Y-37237500D02*
X5337258Y-37237500D01*
X4862742Y-38282500D02*
X5337258Y-38282500D01*
%TD*%
M02*
