%TF.GenerationSoftware,KiCad,Pcbnew,10.0.4*%
%TF.CreationDate,2026-08-22T16:44:21+02:00*%
%TF.ProjectId,KoloredVerb.core,4b6f6c6f-7265-4645-9665-72622e636f72,rev?*%
%TF.SameCoordinates,Original*%
%TF.FileFunction,Copper,L2,Bot*%
%TF.FilePolarity,Positive*%
%FSLAX46Y46*%
G04 Gerber Fmt 4.6, Leading zero omitted, Abs format (unit mm)*
G04 Created by KiCad (PCBNEW 10.0.4) date 2026-08-22 16:44:21*
%MOMM*%
%LPD*%
G01*
G04 APERTURE LIST*
%TA.AperFunction,ComponentPad*%
%ADD10O,1.700000X1.700000*%
%TD*%
%TA.AperFunction,ComponentPad*%
%ADD11C,1.879600*%
%TD*%
%TA.AperFunction,WasherPad*%
%ADD12C,1.300000*%
%TD*%
%TA.AperFunction,ComponentPad*%
%ADD13C,1.700000*%
%TD*%
%TA.AperFunction,ViaPad*%
%ADD14C,0.685800*%
%TD*%
%TA.AperFunction,ViaPad*%
%ADD15C,0.800000*%
%TD*%
%TA.AperFunction,Conductor*%
%ADD16C,0.635000*%
%TD*%
%TA.AperFunction,Conductor*%
%ADD17C,0.304800*%
%TD*%
%TA.AperFunction,Conductor*%
%ADD18C,0.406400*%
%TD*%
G04 APERTURE END LIST*
D10*
%TO.P,J2,1,Pin_1*%
%TO.N,GND*%
X58920000Y-97130000D03*
%TO.P,J2,2,Pin_2*%
%TO.N,CI1*%
X58920000Y-99670000D03*
%TO.P,J2,3,Pin_3*%
%TO.N,CI2*%
X58920000Y-102210000D03*
%TO.P,J2,4,Pin_4*%
%TO.N,CI3*%
X58920000Y-104750000D03*
%TO.P,J2,5,Pin_5*%
%TO.N,CI4*%
X58920000Y-107290000D03*
%TO.P,J2,6,Pin_6*%
%TO.N,CI5*%
X58920000Y-109830000D03*
%TO.P,J2,7,Pin_7*%
%TO.N,CI6*%
X58920000Y-112370000D03*
%TO.P,J2,8,Pin_8*%
%TO.N,CI7*%
X58920000Y-114910000D03*
%TO.P,J2,9,Pin_9*%
%TO.N,CI8*%
X58920000Y-117450000D03*
%TD*%
%TO.P,J7,1,Pin_1*%
%TO.N,B9*%
X1770000Y-56490000D03*
%TO.P,J7,2,Pin_2*%
%TO.N,B10*%
X1770000Y-59030000D03*
%TO.P,J7,3,Pin_3*%
%TO.N,B11*%
X1770000Y-61570000D03*
%TO.P,J7,4,Pin_4*%
%TO.N,B12*%
X1770000Y-64110000D03*
%TO.P,J7,5,Pin_5*%
%TO.N,B13*%
X1770000Y-66650000D03*
%TO.P,J7,6,Pin_6*%
%TO.N,B14*%
X1770000Y-69190000D03*
%TO.P,J7,7,Pin_7*%
%TO.N,B15*%
X1770000Y-71730000D03*
%TO.P,J7,8,Pin_8*%
%TO.N,B16*%
X1770000Y-74270000D03*
%TD*%
%TO.P,J4,1,Pin_1*%
%TO.N,L1*%
X4310000Y-10770000D03*
%TO.P,J4,2,Pin_2*%
%TO.N,L2*%
X6850000Y-10770000D03*
%TO.P,J4,3,Pin_3*%
%TO.N,L3*%
X9390000Y-10770000D03*
%TO.P,J4,4,Pin_4*%
%TO.N,L4*%
X11930000Y-10770000D03*
%TO.P,J4,5,Pin_5*%
%TO.N,L5*%
X14470000Y-10770000D03*
%TO.P,J4,6,Pin_6*%
%TO.N,L6*%
X17010000Y-10770000D03*
%TO.P,J4,7,Pin_7*%
%TO.N,L7*%
X19550000Y-10770000D03*
%TO.P,J4,8,Pin_8*%
%TO.N,L8*%
X22090000Y-10770000D03*
%TD*%
%TO.P,J12,1,Pin_1*%
%TO.N,L9*%
X38600000Y-10770000D03*
%TO.P,J12,2,Pin_2*%
%TO.N,L10*%
X41140000Y-10770000D03*
%TO.P,J12,3,Pin_3*%
%TO.N,L11*%
X43680000Y-10770000D03*
%TO.P,J12,4,Pin_4*%
%TO.N,L12*%
X46220000Y-10770000D03*
%TO.P,J12,5,Pin_5*%
%TO.N,L13*%
X48760000Y-10770000D03*
%TO.P,J12,6,Pin_6*%
%TO.N,L14*%
X51300000Y-10770000D03*
%TO.P,J12,7,Pin_7*%
%TO.N,L15*%
X53840000Y-10770000D03*
%TO.P,J12,8,Pin_8*%
%TO.N,L16*%
X56380000Y-10770000D03*
%TD*%
D11*
%TO.P,DPSM1,A1,-12V*%
%TO.N,-12V*%
X20663000Y-47270000D03*
%TO.P,DPSM1,A2,UART_RX*%
%TO.N,/GATE_SR_CLOCK*%
X20917000Y-49810000D03*
%TO.P,DPSM1,A3,UART_TX*%
%TO.N,NPR*%
X20663000Y-52350000D03*
%TO.P,DPSM1,A4,GND*%
%TO.N,GND*%
X20917000Y-54890000D03*
%TO.P,DPSM1,A5,+12V*%
%TO.N,+12V*%
X20663000Y-57430000D03*
%TO.P,DPSM1,A6,+5V*%
%TO.N,unconnected-(DPSM1-+5V-PadA6)*%
X23203000Y-57430000D03*
%TO.P,DPSM1,A7,GND*%
%TO.N,GND*%
X23457000Y-54890000D03*
%TO.P,DPSM1,A8,USB_DM*%
%TO.N,/ADC_MUX_ADDR_C*%
X23203000Y-52350000D03*
%TO.P,DPSM1,A9,USB_DP*%
%TO.N,/GATE_SR_LATCH*%
X23457000Y-49810000D03*
%TO.P,DPSM1,A10,+3V3*%
%TO.N,+3V3*%
X23203000Y-47270000D03*
%TO.P,DPSM1,B1,AUDIO_OUT_R*%
%TO.N,AO2*%
X17980000Y-108493000D03*
%TO.P,DPSM1,B2,AUDIO_OUT_L*%
%TO.N,AO1*%
X20520000Y-108747000D03*
%TO.P,DPSM1,B3,AUDIO_IN_R*%
%TO.N,AI2*%
X23060000Y-108493000D03*
%TO.P,DPSM1,B4,AUDIO_IN_L*%
%TO.N,AI1*%
X25600000Y-108747000D03*
%TO.P,DPSM1,B5,GATE_OUT_1*%
%TO.N,GO1*%
X28140000Y-108493000D03*
%TO.P,DPSM1,B6,GATE_OUT_2*%
%TO.N,GO2*%
X28140000Y-105953000D03*
%TO.P,DPSM1,B7,I2C1_SCL*%
%TO.N,/I2C_SCL*%
X25600000Y-106207000D03*
%TO.P,DPSM1,B8,I2C1_SDA*%
%TO.N,/I2C_SDA*%
X23060000Y-105953000D03*
%TO.P,DPSM1,B9,GATE_IN_2*%
%TO.N,/GATEIN2_MUX*%
X20520000Y-106207000D03*
%TO.P,DPSM1,B10,GATE_IN_1*%
%TO.N,GND*%
X17980000Y-105953000D03*
%TO.P,DPSM1,C1,CV_OUT_2*%
%TO.N,CO2*%
X43980000Y-108493000D03*
%TO.P,DPSM1,C2,CV4*%
%TO.N,CI8*%
X46520000Y-108747000D03*
%TO.P,DPSM1,C3,CV3*%
%TO.N,CI7*%
X49060000Y-108493000D03*
%TO.P,DPSM1,C4,CV2*%
%TO.N,CI2*%
X51600000Y-108747000D03*
%TO.P,DPSM1,C5,CV1*%
%TO.N,CI1*%
X54140000Y-108493000D03*
%TO.P,DPSM1,C6,CV5*%
%TO.N,CI6*%
X54140000Y-105953000D03*
%TO.P,DPSM1,C7,CV6*%
%TO.N,CI5*%
X51600000Y-106207000D03*
%TO.P,DPSM1,C8,CV7*%
%TO.N,CI4*%
X49060000Y-105953000D03*
%TO.P,DPSM1,C9,CV8*%
%TO.N,CI3*%
X46520000Y-106207000D03*
%TO.P,DPSM1,C10,CV_OUT_1*%
%TO.N,CO1*%
X43980000Y-105953000D03*
%TO.P,DPSM1,D1,SPI_NSS*%
%TO.N,/ADC_MUX_ADDR_A*%
X48663000Y-47270000D03*
%TO.P,DPSM1,D2,SDMMC_D3*%
%TO.N,/SD_OR_MMC_D3*%
X48917000Y-49810000D03*
%TO.P,DPSM1,D3,SDMMC_D2*%
%TO.N,/SD_OR_MMC_D2*%
X48663000Y-52350000D03*
%TO.P,DPSM1,D4,SDMMC_D1*%
%TO.N,/SD_OR_MMC_D1*%
X48917000Y-54890000D03*
%TO.P,DPSM1,D5,SDMMC_D0*%
%TO.N,/SD_OR_MMC_D0*%
X48663000Y-57430000D03*
%TO.P,DPSM1,D6,SDMMC_CK*%
%TO.N,/SD_OR_MMC_CLK*%
X51203000Y-57430000D03*
%TO.P,DPSM1,D7,SDMMC_CMD*%
%TO.N,/SD_OR_MMC_CMD*%
X51457000Y-54890000D03*
%TO.P,DPSM1,D8,SPI_MISO*%
%TO.N,GND*%
X51203000Y-52350000D03*
%TO.P,DPSM1,D9,SPI_MOSI*%
%TO.N,/ADC1_MUX*%
X51457000Y-49810000D03*
%TO.P,DPSM1,D10,SPI_SCK*%
%TO.N,/ADC_MUX_ADDR_B*%
X51203000Y-47270000D03*
%TD*%
D10*
%TO.P,J3,1,Pin_1*%
%TO.N,B1*%
X1770000Y-18390000D03*
%TO.P,J3,2,Pin_2*%
%TO.N,B2*%
X1770000Y-20930000D03*
%TO.P,J3,3,Pin_3*%
%TO.N,B3*%
X1770000Y-23470000D03*
%TO.P,J3,4,Pin_4*%
%TO.N,B4*%
X1770000Y-26010000D03*
%TO.P,J3,5,Pin_5*%
%TO.N,B5*%
X1770000Y-28550000D03*
%TO.P,J3,6,Pin_6*%
%TO.N,B6*%
X1770000Y-31090000D03*
%TO.P,J3,7,Pin_7*%
%TO.N,B7*%
X1770000Y-33630000D03*
%TO.P,J3,8,Pin_8*%
%TO.N,B8*%
X1770000Y-36170000D03*
%TD*%
%TO.P,J6,1,Pin_1*%
%TO.N,+3V3*%
X1770000Y-41250000D03*
%TO.P,J6,2,Pin_2*%
X1770000Y-43790000D03*
%TO.P,J6,3,Pin_3*%
%TO.N,GND*%
X1770000Y-46330000D03*
%TO.P,J6,4,Pin_4*%
X1770000Y-48870000D03*
%TD*%
%TO.P,J11,1,Pin_1*%
%TO.N,GND*%
X29710000Y-10770000D03*
%TO.P,J11,2,Pin_2*%
X32250000Y-10770000D03*
%TD*%
%TO.P,J5,1,Pin_1*%
%TO.N,NPR*%
X1770000Y-94590000D03*
%TO.P,J5,2,Pin_2*%
%TO.N,GND*%
X1770000Y-97130000D03*
%TO.P,J5,3,Pin_3*%
%TO.N,CO1*%
X1770000Y-99670000D03*
%TO.P,J5,4,Pin_4*%
%TO.N,CO2*%
X1770000Y-102210000D03*
%TO.P,J5,5,Pin_5*%
%TO.N,AO2*%
X1770000Y-104750000D03*
%TO.P,J5,6,Pin_6*%
%TO.N,AO1*%
X1770000Y-107290000D03*
%TO.P,J5,7,Pin_7*%
%TO.N,AI2*%
X1770000Y-109830000D03*
%TO.P,J5,8,Pin_8*%
%TO.N,AI1*%
X1770000Y-112370000D03*
%TO.P,J5,9,Pin_9*%
%TO.N,GO1*%
X1770000Y-114910000D03*
%TO.P,J5,10,Pin_10*%
%TO.N,GO2*%
X1770000Y-117450000D03*
%TD*%
%TO.P,J9,1,Pin_1*%
%TO.N,+3V3*%
X58920000Y-51410000D03*
%TO.P,J9,2,Pin_2*%
%TO.N,GND*%
X58920000Y-53950000D03*
%TD*%
%TO.P,J1,1,Pin_1*%
%TO.N,P1*%
X58920000Y-18390000D03*
%TO.P,J1,2,Pin_2*%
%TO.N,P2*%
X58920000Y-20930000D03*
%TO.P,J1,3,Pin_3*%
%TO.N,P3*%
X58920000Y-23470000D03*
%TO.P,J1,4,Pin_4*%
%TO.N,P4*%
X58920000Y-26010000D03*
%TO.P,J1,5,Pin_5*%
%TO.N,P5*%
X58920000Y-28550000D03*
%TO.P,J1,6,Pin_6*%
%TO.N,P6*%
X58920000Y-31090000D03*
%TO.P,J1,7,Pin_7*%
%TO.N,P7*%
X58920000Y-33630000D03*
%TO.P,J1,8,Pin_8*%
%TO.N,P8*%
X58920000Y-36170000D03*
%TO.P,J1,9,Pin_9*%
%TO.N,P9*%
X58920000Y-38710000D03*
%TO.P,J1,10,Pin_10*%
%TO.N,P10*%
X58920000Y-41250000D03*
%TO.P,J1,11,Pin_11*%
%TO.N,P11*%
X58920000Y-43790000D03*
%TO.P,J1,12,Pin_12*%
%TO.N,P12*%
X58920000Y-46330000D03*
%TD*%
D12*
%TO.P,H3,*%
%TO.N,*%
X2100000Y-12600000D03*
%TD*%
%TO.P,H2,*%
%TO.N,*%
X58430000Y-12600000D03*
%TD*%
%TO.P,H4,*%
%TO.N,*%
X2100000Y-89470000D03*
%TD*%
D10*
%TO.P,J0,1,Pin_1*%
%TO.N,/kivu12.power/-12E*%
X9390000Y-41631000D03*
D13*
%TO.P,J0,2,Pin_2*%
X6850000Y-41631000D03*
%TO.P,J0,3,Pin_3*%
%TO.N,GND*%
X9390000Y-44171000D03*
%TO.P,J0,4,Pin_4*%
X6850000Y-44171000D03*
%TO.P,J0,5,Pin_5*%
X9390000Y-46711000D03*
%TO.P,J0,6,Pin_6*%
X6850000Y-46711000D03*
%TO.P,J0,7,Pin_7*%
X9390000Y-49251000D03*
%TO.P,J0,8,Pin_8*%
X6850000Y-49251000D03*
%TO.P,J0,9,Pin_9*%
%TO.N,/kivu12.power/+12E*%
X9390000Y-51791000D03*
%TO.P,J0,10,Pin_10*%
X6850000Y-51791000D03*
%TD*%
D14*
%TO.N,GND*%
X54440000Y-36430000D03*
X55870000Y-83670000D03*
X39580000Y-98590000D03*
X37530000Y-38490000D03*
X52824000Y-94590000D03*
D15*
X38925000Y-29925000D03*
D14*
X24190000Y-26310000D03*
X13720000Y-57200000D03*
X36230000Y-14450000D03*
X5100000Y-61980000D03*
X48490000Y-77550000D03*
D15*
X2925000Y-83925000D03*
D14*
X13360000Y-65560000D03*
X5100000Y-19730000D03*
X55240000Y-50220000D03*
X36970000Y-77670000D03*
X7490000Y-13490000D03*
X7480000Y-68180000D03*
D15*
X2925000Y-53925000D03*
D14*
X31200000Y-41100000D03*
X13730000Y-28480000D03*
X14850000Y-65400000D03*
X5100000Y-71310000D03*
D15*
X26925000Y-11925000D03*
D14*
X10880000Y-97140000D03*
X5100000Y-32230000D03*
D15*
X50925000Y-77925000D03*
D14*
X54990000Y-52680000D03*
X5090000Y-58840000D03*
X40330000Y-29740000D03*
X7490000Y-35410000D03*
X39130000Y-32090000D03*
D15*
X38925000Y-35925000D03*
X32924999Y-77925000D03*
X44925000Y-101925000D03*
D14*
X45966000Y-86970000D03*
X8510000Y-98440000D03*
X51880000Y-26240000D03*
X7020000Y-97240000D03*
X5090000Y-16640000D03*
D15*
X56925000Y-77925000D03*
D14*
X33060000Y-96360000D03*
D15*
X56925000Y-83925000D03*
D14*
X22380000Y-21710000D03*
X43900000Y-55200000D03*
X13530000Y-27280000D03*
X43600000Y-101360000D03*
D15*
X56925000Y-53925000D03*
D14*
X40970000Y-93510000D03*
D15*
X32924999Y-71925000D03*
D14*
X7490000Y-19750000D03*
X2670000Y-38530000D03*
X7510000Y-58860000D03*
X36500000Y-55900000D03*
X13330000Y-66890000D03*
X32630000Y-81470000D03*
X49710000Y-33780000D03*
X7490000Y-16620000D03*
X7490000Y-32320000D03*
X31820000Y-15350000D03*
X7470000Y-22890000D03*
X40500000Y-48500000D03*
X5090000Y-25970000D03*
X4160000Y-83290000D03*
X10670000Y-86160000D03*
X7480000Y-65090000D03*
X43950000Y-86790000D03*
D15*
X32924999Y-47925000D03*
D14*
X12800000Y-57880000D03*
X7490000Y-61970000D03*
X18370000Y-34990000D03*
X5090000Y-22840000D03*
X35800000Y-52900000D03*
D15*
X44925000Y-77925000D03*
D14*
X7490000Y-74420000D03*
X54850000Y-94440000D03*
X41180000Y-37190000D03*
X7470000Y-29160000D03*
X19190000Y-33690000D03*
X11770000Y-25570000D03*
X5100000Y-77540000D03*
X41140000Y-31460000D03*
X53790000Y-26830000D03*
X55000000Y-77670000D03*
D15*
X32924999Y-35925000D03*
D14*
X19170000Y-36110000D03*
X34480000Y-17490000D03*
D15*
X32924999Y-65925000D03*
D14*
X54670000Y-35070000D03*
X5100000Y-68200000D03*
D15*
X32924999Y-17925000D03*
D14*
X34500000Y-42200000D03*
X5100000Y-29100000D03*
X5100000Y-35390000D03*
X5090000Y-65100000D03*
D15*
X32924999Y-89925000D03*
D14*
X1710000Y-38290000D03*
X40870000Y-39830000D03*
D15*
X38925000Y-77925000D03*
D14*
X7490000Y-77530000D03*
X23190000Y-30100000D03*
X27650000Y-29630000D03*
D15*
X38925000Y-47925000D03*
X26925000Y-29925000D03*
D14*
X7480000Y-26010000D03*
X50970000Y-94840000D03*
D15*
X38925000Y-41925000D03*
D14*
X7480000Y-71290000D03*
X14470000Y-57840000D03*
X32330000Y-91170000D03*
X55650000Y-26120000D03*
X13250000Y-80150000D03*
X5740000Y-82250000D03*
D15*
X32924999Y-41925000D03*
D14*
X38900000Y-54100000D03*
X5100000Y-74420000D03*
%TO.N,+3V3*%
X8700000Y-22910000D03*
X5700000Y-39960000D03*
X6680000Y-39960000D03*
X8700000Y-16630000D03*
X8700000Y-26040000D03*
X8700000Y-19780000D03*
X8700000Y-35430000D03*
X8700000Y-32300000D03*
X8890000Y-80550000D03*
X8700000Y-29170000D03*
X7680000Y-39960000D03*
%TO.N,/ADC1_MUX*%
X42410000Y-28860000D03*
X46120000Y-35340000D03*
%TO.N,/ADC_MUX_ADDR_C*%
X31180000Y-52340000D03*
X51395000Y-32170000D03*
%TO.N,/ADC_MUX_ADDR_B*%
X52415000Y-41100000D03*
X52235000Y-31570000D03*
%TO.N,/ADC_MUX_ADDR_A*%
X53210000Y-30843510D03*
%TO.N,/GATEIN2_MUX*%
X16000000Y-32010000D03*
%TO.N,/GATE_SR_LATCH*%
X19990000Y-22860000D03*
%TO.N,/GATE_SR_CLOCK*%
X21030000Y-22130000D03*
X18877956Y-60748402D03*
%TO.N,/I2C_SCL*%
X30160000Y-31250000D03*
%TO.N,/I2C_SDA*%
X34830000Y-31380000D03*
%TO.N,CI1*%
X50030000Y-97130000D03*
%TO.N,CI2*%
X38150000Y-90130000D03*
X50030000Y-99670000D03*
X52570000Y-99670000D03*
%TO.N,-12V*%
X22860000Y-67570000D03*
X22860000Y-66580000D03*
X22860000Y-65690000D03*
%TO.N,NPR*%
X17250000Y-94620000D03*
%TD*%
%TO.N,+3V3*%
D16*
X8900000Y-65000000D02*
X8900000Y-65060000D01*
X8900000Y-77510000D02*
X8900000Y-80540000D01*
X7300000Y-54000000D02*
X8900000Y-55600000D01*
D17*
X8900000Y-80540000D02*
X8890000Y-80550000D01*
D16*
X8700000Y-32300000D02*
X8700000Y-35430000D01*
X8900000Y-74390000D02*
X8900000Y-77510000D01*
X8700000Y-22910000D02*
X8700000Y-26040000D01*
X8900000Y-57980000D02*
X8900000Y-58840000D01*
X8700000Y-39300000D02*
X8040000Y-39960000D01*
X4700000Y-53200000D02*
X5500000Y-54000000D01*
X8700000Y-21990659D02*
X8696887Y-21987546D01*
X4700000Y-40700000D02*
X4700000Y-53200000D01*
X8900000Y-64180000D02*
X8900000Y-61980000D01*
X6680000Y-39960000D02*
X5700000Y-39960000D01*
X8900000Y-64180000D02*
X8900000Y-65000000D01*
X5700000Y-39960000D02*
X5440000Y-39960000D01*
X8700000Y-26040000D02*
X8700000Y-32300000D01*
X8700000Y-16630000D02*
X8700000Y-19780000D01*
X8900000Y-58840000D02*
X8900000Y-61980000D01*
X5500000Y-54000000D02*
X7300000Y-54000000D01*
X8900000Y-71290000D02*
X8900000Y-74390000D01*
X7680000Y-39960000D02*
X6680000Y-39960000D01*
X5440000Y-39960000D02*
X4700000Y-40700000D01*
X8900000Y-55600000D02*
X8900000Y-57400000D01*
X8900000Y-65060000D02*
X8900000Y-71290000D01*
X8700000Y-21984433D02*
X8700000Y-19780000D01*
X8700000Y-37640000D02*
X8700000Y-39300000D01*
X8040000Y-39960000D02*
X7680000Y-39960000D01*
X8900000Y-57400000D02*
X8900000Y-57980000D01*
X8696887Y-21987546D02*
X8700000Y-21984433D01*
X8700000Y-22910000D02*
X8700000Y-21990659D01*
X8700000Y-37640000D02*
X8700000Y-35430000D01*
%TO.N,/ADC1_MUX*%
D17*
X42410000Y-32920000D02*
X42410000Y-28860000D01*
X44830000Y-35340000D02*
X42410000Y-32920000D01*
X46120000Y-35340000D02*
X44830000Y-35340000D01*
%TO.N,/ADC_MUX_ADDR_C*%
X50795000Y-43180000D02*
X51445000Y-42530000D01*
X51445000Y-32220000D02*
X51395000Y-32170000D01*
X31180000Y-52340000D02*
X40340000Y-43180000D01*
X51445000Y-41670000D02*
X51445000Y-32220000D01*
X40340000Y-43180000D02*
X50795000Y-43180000D01*
X51445000Y-42530000D02*
X51445000Y-41670000D01*
%TO.N,/ADC_MUX_ADDR_B*%
X52415000Y-31750000D02*
X52235000Y-31570000D01*
X51203000Y-47270000D02*
X51203000Y-44095000D01*
X52455000Y-42843000D02*
X52455000Y-41140000D01*
X52415000Y-41100000D02*
X52415000Y-31750000D01*
X52455000Y-41140000D02*
X52415000Y-41100000D01*
X51203000Y-44095000D02*
X52455000Y-42843000D01*
%TO.N,/ADC_MUX_ADDR_A*%
X53290000Y-40380000D02*
X53290000Y-30923510D01*
X48663000Y-47270000D02*
X49933000Y-48540000D01*
X53290000Y-47025010D02*
X53290000Y-40380000D01*
X49933000Y-48540000D02*
X51775010Y-48540000D01*
X51775010Y-48540000D02*
X53290000Y-47025010D01*
X53290000Y-30923510D02*
X53210000Y-30843510D01*
%TO.N,/GATEIN2_MUX*%
X16000000Y-32010000D02*
X16000000Y-101687000D01*
X16000000Y-101687000D02*
X20520000Y-106207000D01*
%TO.N,/GATE_SR_LATCH*%
X19220000Y-48980000D02*
X18630000Y-48390000D01*
X20285611Y-44274389D02*
X20285611Y-23155611D01*
X19220000Y-50220000D02*
X19220000Y-48980000D01*
X18630000Y-48390000D02*
X18630000Y-45930000D01*
X22187000Y-51080000D02*
X20080000Y-51080000D01*
X23457000Y-49810000D02*
X22187000Y-51080000D01*
X20080000Y-51080000D02*
X19220000Y-50220000D01*
X18630000Y-45930000D02*
X20285611Y-44274389D01*
X20285611Y-23155611D02*
X19990000Y-22860000D01*
%TO.N,/GATE_SR_CLOCK*%
X21030000Y-44540000D02*
X21030000Y-22130000D01*
X19250000Y-48094128D02*
X19250000Y-46320000D01*
X22177000Y-48550000D02*
X24580000Y-48550000D01*
X19250000Y-46320000D02*
X21030000Y-44540000D01*
X25500000Y-58160000D02*
X22568699Y-61091301D01*
X19220855Y-61091301D02*
X18877956Y-60748402D01*
X24580000Y-48550000D02*
X25500000Y-49470000D01*
X22568699Y-61091301D02*
X19220855Y-61091301D01*
X25500000Y-49470000D02*
X25500000Y-58160000D01*
X20917000Y-49810000D02*
X20917000Y-49761128D01*
X20917000Y-49761128D02*
X19250000Y-48094128D01*
X20917000Y-49810000D02*
X22177000Y-48550000D01*
%TO.N,/I2C_SCL*%
X27572791Y-102097209D02*
X25600000Y-104070000D01*
X27572791Y-33837209D02*
X27572791Y-102097209D01*
X25600000Y-104070000D02*
X25600000Y-106207000D01*
X30160000Y-31250000D02*
X27572791Y-33837209D01*
%TO.N,/I2C_SDA*%
X28410000Y-37800000D02*
X28410000Y-102820000D01*
X23060000Y-106060000D02*
X23060000Y-105953000D01*
X28410000Y-102820000D02*
X26860000Y-104370000D01*
X26540000Y-107480000D02*
X24480000Y-107480000D01*
X26860000Y-107160000D02*
X26540000Y-107480000D01*
X24480000Y-107480000D02*
X23060000Y-106060000D01*
X34830000Y-31380000D02*
X28410000Y-37800000D01*
X26860000Y-104370000D02*
X26860000Y-107160000D01*
%TO.N,CI1*%
X52870000Y-105380990D02*
X52870000Y-107223000D01*
X53830000Y-104420990D02*
X52870000Y-105380990D01*
X50030000Y-96440000D02*
X50620000Y-95850000D01*
X50620000Y-95850000D02*
X53400000Y-95850000D01*
X53400000Y-95850000D02*
X53830000Y-96280000D01*
X50030000Y-97130000D02*
X50030000Y-96440000D01*
X52870000Y-107223000D02*
X54140000Y-108493000D01*
X53830000Y-96280000D02*
X53830000Y-104420990D01*
%TO.N,CI2*%
D18*
X43970000Y-98400000D02*
X38150000Y-92580000D01*
D17*
X50030000Y-99670000D02*
X50330000Y-99970000D01*
X50330000Y-99970000D02*
X50330000Y-107477000D01*
D18*
X52570000Y-99670000D02*
X51300000Y-98400000D01*
D17*
X50330000Y-107477000D02*
X51600000Y-108747000D01*
D18*
X51300000Y-98400000D02*
X43970000Y-98400000D01*
X38150000Y-92580000D02*
X38150000Y-90130000D01*
%TO.N,-12V*%
D16*
X22860000Y-65690000D02*
X22860000Y-66580000D01*
X22860000Y-64390000D02*
X22860000Y-65690000D01*
X22463000Y-45470000D02*
X24830000Y-45470000D01*
X26430000Y-60820000D02*
X22860000Y-64390000D01*
X22860000Y-66580000D02*
X22860000Y-67570000D01*
X20663000Y-47270000D02*
X22463000Y-45470000D01*
X26430000Y-47070000D02*
X26430000Y-60820000D01*
X24830000Y-45470000D02*
X26430000Y-47070000D01*
%TO.N,NPR*%
D17*
X17250000Y-94620000D02*
X17250000Y-55763000D01*
X17250000Y-55763000D02*
X20663000Y-52350000D01*
%TD*%
%TA.AperFunction,Conductor*%
%TO.N,GND*%
G36*
X19193452Y-106807243D02*
G01*
X19216624Y-106839135D01*
X19281304Y-106966076D01*
X19285524Y-106971884D01*
X19415299Y-107150504D01*
X19415301Y-107150506D01*
X19415303Y-107150509D01*
X19576493Y-107311699D01*
X19663707Y-107375064D01*
X19707061Y-107431287D01*
X19713136Y-107502023D01*
X19680004Y-107564815D01*
X19663707Y-107578936D01*
X19576495Y-107642299D01*
X19431169Y-107787625D01*
X19368857Y-107821650D01*
X19298041Y-107816585D01*
X19241206Y-107774038D01*
X19229807Y-107755731D01*
X19218698Y-107733928D01*
X19218697Y-107733926D01*
X19084701Y-107549496D01*
X19084698Y-107549493D01*
X19084696Y-107549490D01*
X18923506Y-107388300D01*
X18835866Y-107324626D01*
X18792512Y-107268403D01*
X18786437Y-107197667D01*
X18807046Y-107158609D01*
X18808458Y-107140667D01*
X18111481Y-106443690D01*
X18176081Y-106426381D01*
X18291920Y-106359502D01*
X18386502Y-106264920D01*
X18453381Y-106149081D01*
X18470690Y-106084480D01*
X19193452Y-106807243D01*
G37*
%TD.AperFunction*%
%TA.AperFunction,Conductor*%
G36*
X19387232Y-54664587D02*
G01*
X19444068Y-54707134D01*
X19468879Y-54773654D01*
X19469200Y-54782643D01*
X19469200Y-55003940D01*
X19504851Y-55229032D01*
X19575269Y-55445757D01*
X19575272Y-55445763D01*
X19678732Y-55648817D01*
X19729330Y-55718457D01*
X19729332Y-55718457D01*
X20426309Y-55021480D01*
X20443619Y-55086081D01*
X20510498Y-55201920D01*
X20605080Y-55296502D01*
X20720919Y-55363381D01*
X20785519Y-55380690D01*
X20062755Y-56103453D01*
X20030864Y-56126623D01*
X19903925Y-56191303D01*
X19719493Y-56325301D01*
X19719490Y-56325303D01*
X19558303Y-56486490D01*
X19558301Y-56486493D01*
X19424305Y-56670922D01*
X19320809Y-56874044D01*
X19320806Y-56874050D01*
X19250363Y-57090850D01*
X19250362Y-57090855D01*
X19250362Y-57090856D01*
X19214700Y-57316016D01*
X19214700Y-57543984D01*
X19247167Y-57748972D01*
X19250363Y-57769149D01*
X19320806Y-57985949D01*
X19320808Y-57985954D01*
X19424303Y-58189074D01*
X19558299Y-58373504D01*
X19558301Y-58373506D01*
X19558303Y-58373509D01*
X19719490Y-58534696D01*
X19719493Y-58534698D01*
X19719496Y-58534701D01*
X19903926Y-58668697D01*
X20107046Y-58772192D01*
X20323856Y-58842638D01*
X20549016Y-58878300D01*
X20549019Y-58878300D01*
X20776981Y-58878300D01*
X20776984Y-58878300D01*
X21002144Y-58842638D01*
X21218954Y-58772192D01*
X21422074Y-58668697D01*
X21606504Y-58534701D01*
X21767701Y-58373504D01*
X21831064Y-58286291D01*
X21887286Y-58242938D01*
X21958022Y-58236863D01*
X22020814Y-58269994D01*
X22034935Y-58286291D01*
X22098299Y-58373504D01*
X22098301Y-58373506D01*
X22098303Y-58373509D01*
X22259490Y-58534696D01*
X22259493Y-58534698D01*
X22259496Y-58534701D01*
X22443926Y-58668697D01*
X22647046Y-58772192D01*
X22863856Y-58842638D01*
X23089016Y-58878300D01*
X23089019Y-58878300D01*
X23316981Y-58878300D01*
X23316984Y-58878300D01*
X23542144Y-58842638D01*
X23547477Y-58840904D01*
X23618445Y-58838874D01*
X23679244Y-58875534D01*
X23710573Y-58939244D01*
X23702483Y-59009778D01*
X23675514Y-59049831D01*
X22331850Y-60393496D01*
X22269538Y-60427521D01*
X22242755Y-60430401D01*
X19751975Y-60430401D01*
X19683854Y-60410399D01*
X19637361Y-60356743D01*
X19635566Y-60352619D01*
X19632457Y-60345113D01*
X19539282Y-60205666D01*
X19420692Y-60087076D01*
X19281245Y-59993901D01*
X19281246Y-59993901D01*
X19281244Y-59993900D01*
X19281240Y-59993898D01*
X19126306Y-59929721D01*
X18961817Y-59897002D01*
X18961812Y-59897002D01*
X18794100Y-59897002D01*
X18794094Y-59897002D01*
X18629605Y-59929721D01*
X18474671Y-59993898D01*
X18474667Y-59993900D01*
X18335221Y-60087075D01*
X18335215Y-60087080D01*
X18216634Y-60205661D01*
X18216629Y-60205667D01*
X18141665Y-60317859D01*
X18087188Y-60363387D01*
X18016745Y-60372235D01*
X17952701Y-60341593D01*
X17915389Y-60281191D01*
X17910900Y-60247857D01*
X17910900Y-56088943D01*
X17930902Y-56020822D01*
X17947800Y-55999853D01*
X19254105Y-54693547D01*
X19316417Y-54659522D01*
X19387232Y-54664587D01*
G37*
%TD.AperFunction*%
%TA.AperFunction,Conductor*%
G36*
X24644667Y-55718458D02*
G01*
X24702575Y-55713901D01*
X24702910Y-55718165D01*
X24738115Y-55715140D01*
X24800908Y-55748268D01*
X24835824Y-55810086D01*
X24839100Y-55838632D01*
X24839100Y-56983069D01*
X24819098Y-57051190D01*
X24765442Y-57097683D01*
X24695168Y-57107787D01*
X24630588Y-57078293D01*
X24593267Y-57022005D01*
X24545193Y-56874050D01*
X24545192Y-56874046D01*
X24441697Y-56670926D01*
X24307701Y-56486496D01*
X24307698Y-56486493D01*
X24307696Y-56486490D01*
X24162004Y-56340798D01*
X24127978Y-56278486D01*
X24133043Y-56207671D01*
X24175590Y-56150835D01*
X24193899Y-56139435D01*
X24215810Y-56128270D01*
X24215816Y-56128267D01*
X24285457Y-56077668D01*
X24285458Y-56077667D01*
X23588481Y-55380690D01*
X23653081Y-55363381D01*
X23768920Y-55296502D01*
X23863502Y-55201920D01*
X23930381Y-55086081D01*
X23947690Y-55021481D01*
X24644667Y-55718458D01*
G37*
%TD.AperFunction*%
%TA.AperFunction,Conductor*%
G36*
X22983619Y-55086081D02*
G01*
X23050498Y-55201920D01*
X23145080Y-55296502D01*
X23260919Y-55363381D01*
X23325519Y-55380690D01*
X22602755Y-56103453D01*
X22570864Y-56126623D01*
X22443925Y-56191303D01*
X22259493Y-56325301D01*
X22259490Y-56325303D01*
X22098300Y-56486493D01*
X22034936Y-56573707D01*
X21978713Y-56617061D01*
X21907977Y-56623136D01*
X21845185Y-56590004D01*
X21831064Y-56573707D01*
X21767699Y-56486493D01*
X21622004Y-56340798D01*
X21587978Y-56278486D01*
X21593043Y-56207671D01*
X21635590Y-56150835D01*
X21653899Y-56139435D01*
X21675810Y-56128270D01*
X21675816Y-56128267D01*
X21745457Y-56077668D01*
X21745458Y-56077667D01*
X21048481Y-55380690D01*
X21113081Y-55363381D01*
X21228920Y-55296502D01*
X21323502Y-55201920D01*
X21390381Y-55086081D01*
X21407690Y-55021481D01*
X22104667Y-55718458D01*
X22121801Y-55717109D01*
X22141283Y-55702087D01*
X22212019Y-55696010D01*
X22251973Y-55717091D01*
X22269331Y-55718457D01*
X22966309Y-55021479D01*
X22983619Y-55086081D01*
G37*
%TD.AperFunction*%
%TA.AperFunction,Conductor*%
G36*
X22020814Y-53189994D02*
G01*
X22034935Y-53206291D01*
X22098299Y-53293504D01*
X22098300Y-53293505D01*
X22098301Y-53293506D01*
X22098303Y-53293509D01*
X22259490Y-53454696D01*
X22259493Y-53454698D01*
X22259496Y-53454701D01*
X22443926Y-53588697D01*
X22570865Y-53653375D01*
X22602756Y-53676547D01*
X23325518Y-54399309D01*
X23260919Y-54416619D01*
X23145080Y-54483498D01*
X23050498Y-54578080D01*
X22983619Y-54693919D01*
X22966309Y-54758518D01*
X22269332Y-54061541D01*
X22252192Y-54062890D01*
X22232709Y-54077913D01*
X22161973Y-54083987D01*
X22122024Y-54062906D01*
X22104668Y-54061541D01*
X21407690Y-54758518D01*
X21390381Y-54693919D01*
X21323502Y-54578080D01*
X21228920Y-54483498D01*
X21113081Y-54416619D01*
X21048480Y-54399309D01*
X21745457Y-53702332D01*
X21745457Y-53702329D01*
X21675825Y-53651737D01*
X21675809Y-53651728D01*
X21653895Y-53640562D01*
X21602281Y-53591814D01*
X21585215Y-53522899D01*
X21608116Y-53455698D01*
X21621998Y-53439206D01*
X21767701Y-53293504D01*
X21831064Y-53206291D01*
X21887286Y-53162938D01*
X21958022Y-53156863D01*
X22020814Y-53189994D01*
G37*
%TD.AperFunction*%
%TA.AperFunction,Conductor*%
G36*
X24768694Y-52683858D02*
G01*
X24821000Y-52731864D01*
X24839100Y-52796930D01*
X24839100Y-53941366D01*
X24819098Y-54009487D01*
X24765442Y-54055980D01*
X24702660Y-54065006D01*
X24702575Y-54066098D01*
X24697725Y-54065716D01*
X24695168Y-54066084D01*
X24693663Y-54065396D01*
X24644668Y-54061541D01*
X23947690Y-54758518D01*
X23930381Y-54693919D01*
X23863502Y-54578080D01*
X23768920Y-54483498D01*
X23653081Y-54416619D01*
X23588480Y-54399309D01*
X24285457Y-53702331D01*
X24285457Y-53702329D01*
X24215825Y-53651737D01*
X24215809Y-53651728D01*
X24193895Y-53640562D01*
X24142281Y-53591814D01*
X24125215Y-53522899D01*
X24148116Y-53455698D01*
X24161998Y-53439206D01*
X24307701Y-53293504D01*
X24441697Y-53109074D01*
X24545192Y-52905954D01*
X24593267Y-52757993D01*
X24633341Y-52699388D01*
X24698737Y-52671751D01*
X24768694Y-52683858D01*
G37*
%TD.AperFunction*%
%TA.AperFunction,Conductor*%
G36*
X8924075Y-49443993D02*
G01*
X8989901Y-49558007D01*
X9082993Y-49651099D01*
X9197007Y-49716925D01*
X9265051Y-49735157D01*
X8625831Y-50374378D01*
X8678247Y-50412461D01*
X8679566Y-50413270D01*
X8679962Y-50413708D01*
X8682258Y-50415376D01*
X8681907Y-50415858D01*
X8727199Y-50465915D01*
X8738809Y-50535956D01*
X8710708Y-50601155D01*
X8681925Y-50626098D01*
X8681996Y-50626196D01*
X8680862Y-50627019D01*
X8679580Y-50628131D01*
X8677998Y-50629100D01*
X8504993Y-50754796D01*
X8504990Y-50754798D01*
X8353798Y-50905990D01*
X8353796Y-50905993D01*
X8228108Y-51078987D01*
X8227434Y-51080088D01*
X8227068Y-51080418D01*
X8225196Y-51082996D01*
X8224654Y-51082602D01*
X8174787Y-51127721D01*
X8104745Y-51139328D01*
X8039547Y-51111226D01*
X8014976Y-51082870D01*
X8014804Y-51082996D01*
X8013341Y-51080982D01*
X8012566Y-51080088D01*
X8011896Y-51078996D01*
X8011894Y-51078991D01*
X7886206Y-50905996D01*
X7886203Y-50905993D01*
X7886201Y-50905990D01*
X7735009Y-50754798D01*
X7735006Y-50754796D01*
X7735004Y-50754794D01*
X7656816Y-50697987D01*
X7562006Y-50629103D01*
X7560427Y-50628136D01*
X7559952Y-50627611D01*
X7558004Y-50626196D01*
X7558301Y-50625786D01*
X7512797Y-50575488D01*
X7501191Y-50505446D01*
X7529296Y-50440249D01*
X7557843Y-50415517D01*
X7557741Y-50415377D01*
X7559384Y-50414182D01*
X7560451Y-50413259D01*
X7561756Y-50412459D01*
X7614167Y-50374378D01*
X7614167Y-50374376D01*
X6974948Y-49735157D01*
X7042993Y-49716925D01*
X7157007Y-49651099D01*
X7250099Y-49558007D01*
X7315925Y-49443993D01*
X7334157Y-49375948D01*
X7973376Y-50015167D01*
X7973378Y-50015167D01*
X8011463Y-49962750D01*
X8012562Y-49960958D01*
X8013158Y-49960418D01*
X8014377Y-49958741D01*
X8014729Y-49958996D01*
X8065206Y-49913322D01*
X8135246Y-49901710D01*
X8200446Y-49929808D01*
X8225559Y-49958788D01*
X8225624Y-49958742D01*
X8226165Y-49959487D01*
X8227433Y-49960950D01*
X8228535Y-49962749D01*
X8266620Y-50015167D01*
X8266621Y-50015168D01*
X8905841Y-49375947D01*
X8924075Y-49443993D01*
G37*
%TD.AperFunction*%
%TA.AperFunction,Conductor*%
G36*
X6384075Y-49443993D02*
G01*
X6449901Y-49558007D01*
X6542993Y-49651099D01*
X6657007Y-49716925D01*
X6725051Y-49735157D01*
X6085831Y-50374378D01*
X6138247Y-50412461D01*
X6139566Y-50413270D01*
X6139962Y-50413708D01*
X6142258Y-50415376D01*
X6141907Y-50415858D01*
X6187199Y-50465915D01*
X6198809Y-50535956D01*
X6170708Y-50601155D01*
X6141925Y-50626098D01*
X6141996Y-50626196D01*
X6140862Y-50627019D01*
X6139580Y-50628131D01*
X6137998Y-50629100D01*
X5964993Y-50754796D01*
X5964990Y-50754798D01*
X5813795Y-50905993D01*
X5753936Y-50988383D01*
X5697713Y-51031737D01*
X5626977Y-51037812D01*
X5564185Y-51004680D01*
X5529274Y-50942860D01*
X5526000Y-50914322D01*
X5526000Y-50126823D01*
X5546002Y-50058702D01*
X5599658Y-50012209D01*
X5669932Y-50002105D01*
X5692687Y-50012497D01*
X5726621Y-50015168D01*
X6365841Y-49375947D01*
X6384075Y-49443993D01*
G37*
%TD.AperFunction*%
%TA.AperFunction,Conductor*%
G36*
X6384075Y-46903993D02*
G01*
X6449901Y-47018007D01*
X6542993Y-47111099D01*
X6657007Y-47176925D01*
X6725051Y-47195157D01*
X6085831Y-47834378D01*
X6138248Y-47872462D01*
X6140044Y-47873563D01*
X6140583Y-47874159D01*
X6142258Y-47875376D01*
X6142002Y-47875727D01*
X6187678Y-47926208D01*
X6199289Y-47996249D01*
X6171189Y-48061448D01*
X6142212Y-48086560D01*
X6142259Y-48086624D01*
X6141520Y-48087160D01*
X6140065Y-48088422D01*
X6138269Y-48089522D01*
X6085831Y-48127621D01*
X6085831Y-48127622D01*
X6725051Y-48766842D01*
X6657007Y-48785075D01*
X6542993Y-48850901D01*
X6449901Y-48943993D01*
X6384075Y-49058007D01*
X6365842Y-49126051D01*
X5726622Y-48486831D01*
X5702740Y-48488711D01*
X5697708Y-48492591D01*
X5626972Y-48498663D01*
X5564182Y-48465528D01*
X5529273Y-48403707D01*
X5526000Y-48375174D01*
X5526000Y-47586823D01*
X5546002Y-47518702D01*
X5599658Y-47472209D01*
X5669932Y-47462105D01*
X5692687Y-47472497D01*
X5726621Y-47475168D01*
X6365841Y-46835947D01*
X6384075Y-46903993D01*
G37*
%TD.AperFunction*%
%TA.AperFunction,Conductor*%
G36*
X8924075Y-46903993D02*
G01*
X8989901Y-47018007D01*
X9082993Y-47111099D01*
X9197007Y-47176925D01*
X9265051Y-47195157D01*
X8625831Y-47834378D01*
X8678248Y-47872462D01*
X8680044Y-47873563D01*
X8680583Y-47874159D01*
X8682258Y-47875376D01*
X8682002Y-47875727D01*
X8727678Y-47926208D01*
X8739289Y-47996249D01*
X8711189Y-48061448D01*
X8682212Y-48086560D01*
X8682259Y-48086624D01*
X8681520Y-48087160D01*
X8680065Y-48088422D01*
X8678269Y-48089522D01*
X8625831Y-48127621D01*
X8625831Y-48127622D01*
X9265051Y-48766842D01*
X9197007Y-48785075D01*
X9082993Y-48850901D01*
X8989901Y-48943993D01*
X8924075Y-49058007D01*
X8905842Y-49126051D01*
X8266622Y-48486831D01*
X8266621Y-48486831D01*
X8228522Y-48539269D01*
X8227422Y-48541065D01*
X8226827Y-48541603D01*
X8225624Y-48543259D01*
X8225275Y-48543006D01*
X8174768Y-48588689D01*
X8104725Y-48600286D01*
X8039531Y-48572174D01*
X8014440Y-48543211D01*
X8014376Y-48543258D01*
X8013830Y-48542506D01*
X8012563Y-48541044D01*
X8011462Y-48539248D01*
X7973378Y-48486831D01*
X7334157Y-49126051D01*
X7315925Y-49058007D01*
X7250099Y-48943993D01*
X7157007Y-48850901D01*
X7042993Y-48785075D01*
X6974947Y-48766841D01*
X7614168Y-48127621D01*
X7614167Y-48127620D01*
X7561749Y-48089535D01*
X7559950Y-48088433D01*
X7559409Y-48087835D01*
X7557742Y-48086624D01*
X7557996Y-48086273D01*
X7512318Y-48035786D01*
X7500711Y-47965745D01*
X7518173Y-47915457D01*
X7585200Y-47805409D01*
X6974948Y-47195157D01*
X7042993Y-47176925D01*
X7157007Y-47111099D01*
X7250099Y-47018007D01*
X7315925Y-46903993D01*
X7334157Y-46835948D01*
X7973376Y-47475167D01*
X7973378Y-47475167D01*
X8011463Y-47422750D01*
X8012562Y-47420958D01*
X8013158Y-47420418D01*
X8014377Y-47418741D01*
X8014729Y-47418996D01*
X8065206Y-47373322D01*
X8135246Y-47361710D01*
X8200446Y-47389808D01*
X8225559Y-47418788D01*
X8225624Y-47418742D01*
X8226165Y-47419487D01*
X8227433Y-47420950D01*
X8228535Y-47422749D01*
X8266620Y-47475167D01*
X8266621Y-47475168D01*
X8905841Y-46835947D01*
X8924075Y-46903993D01*
G37*
%TD.AperFunction*%
%TA.AperFunction,Conductor*%
G36*
X6384075Y-44363993D02*
G01*
X6449901Y-44478007D01*
X6542993Y-44571099D01*
X6657007Y-44636925D01*
X6725051Y-44655157D01*
X6085831Y-45294378D01*
X6138248Y-45332462D01*
X6140044Y-45333563D01*
X6140583Y-45334159D01*
X6142258Y-45335376D01*
X6142002Y-45335727D01*
X6187678Y-45386208D01*
X6199289Y-45456249D01*
X6171189Y-45521448D01*
X6142212Y-45546560D01*
X6142259Y-45546624D01*
X6141520Y-45547160D01*
X6140065Y-45548422D01*
X6138269Y-45549522D01*
X6085831Y-45587621D01*
X6085831Y-45587622D01*
X6725051Y-46226842D01*
X6657007Y-46245075D01*
X6542993Y-46310901D01*
X6449901Y-46403993D01*
X6384075Y-46518007D01*
X6365842Y-46586051D01*
X5726622Y-45946831D01*
X5702740Y-45948711D01*
X5697708Y-45952591D01*
X5626972Y-45958663D01*
X5564182Y-45925528D01*
X5529273Y-45863707D01*
X5526000Y-45835174D01*
X5526000Y-45046823D01*
X5546002Y-44978702D01*
X5599658Y-44932209D01*
X5669932Y-44922105D01*
X5692687Y-44932497D01*
X5726621Y-44935168D01*
X6365841Y-44295947D01*
X6384075Y-44363993D01*
G37*
%TD.AperFunction*%
%TA.AperFunction,Conductor*%
G36*
X8924075Y-44363993D02*
G01*
X8989901Y-44478007D01*
X9082993Y-44571099D01*
X9197007Y-44636925D01*
X9265051Y-44655157D01*
X8625831Y-45294378D01*
X8678248Y-45332462D01*
X8680044Y-45333563D01*
X8680583Y-45334159D01*
X8682258Y-45335376D01*
X8682002Y-45335727D01*
X8727678Y-45386208D01*
X8739289Y-45456249D01*
X8711189Y-45521448D01*
X8682212Y-45546560D01*
X8682259Y-45546624D01*
X8681520Y-45547160D01*
X8680065Y-45548422D01*
X8678269Y-45549522D01*
X8625831Y-45587621D01*
X8625831Y-45587622D01*
X9265051Y-46226842D01*
X9197007Y-46245075D01*
X9082993Y-46310901D01*
X8989901Y-46403993D01*
X8924075Y-46518007D01*
X8905842Y-46586051D01*
X8266622Y-45946831D01*
X8266621Y-45946831D01*
X8228522Y-45999269D01*
X8227422Y-46001065D01*
X8226827Y-46001603D01*
X8225624Y-46003259D01*
X8225275Y-46003006D01*
X8174768Y-46048689D01*
X8104725Y-46060286D01*
X8039531Y-46032174D01*
X8014440Y-46003211D01*
X8014376Y-46003258D01*
X8013830Y-46002506D01*
X8012563Y-46001044D01*
X8011462Y-45999248D01*
X7973378Y-45946831D01*
X7334157Y-46586051D01*
X7315925Y-46518007D01*
X7250099Y-46403993D01*
X7157007Y-46310901D01*
X7042993Y-46245075D01*
X6974947Y-46226841D01*
X7614168Y-45587621D01*
X7614167Y-45587620D01*
X7561749Y-45549535D01*
X7559950Y-45548433D01*
X7559409Y-45547835D01*
X7557742Y-45546624D01*
X7557996Y-45546273D01*
X7512318Y-45495786D01*
X7500711Y-45425745D01*
X7518173Y-45375457D01*
X7585200Y-45265409D01*
X6974948Y-44655157D01*
X7042993Y-44636925D01*
X7157007Y-44571099D01*
X7250099Y-44478007D01*
X7315925Y-44363993D01*
X7334157Y-44295948D01*
X7973376Y-44935167D01*
X7973378Y-44935167D01*
X8011463Y-44882750D01*
X8012562Y-44880958D01*
X8013158Y-44880418D01*
X8014377Y-44878741D01*
X8014729Y-44878996D01*
X8065206Y-44833322D01*
X8135246Y-44821710D01*
X8200446Y-44849808D01*
X8225559Y-44878788D01*
X8225624Y-44878742D01*
X8226165Y-44879487D01*
X8227433Y-44880950D01*
X8228535Y-44882749D01*
X8266620Y-44935167D01*
X8266621Y-44935168D01*
X8905841Y-44295947D01*
X8924075Y-44363993D01*
G37*
%TD.AperFunction*%
%TA.AperFunction,Conductor*%
G36*
X5734512Y-42412453D02*
G01*
X5753934Y-42433614D01*
X5813794Y-42516004D01*
X5813796Y-42516006D01*
X5813798Y-42516009D01*
X5964990Y-42667201D01*
X5964993Y-42667203D01*
X5964996Y-42667206D01*
X6137991Y-42792894D01*
X6138001Y-42792899D01*
X6139567Y-42793859D01*
X6140042Y-42794384D01*
X6141996Y-42795804D01*
X6141697Y-42796214D01*
X6187200Y-42846505D01*
X6198808Y-42916546D01*
X6170707Y-42981745D01*
X6142157Y-43006484D01*
X6142259Y-43006624D01*
X6140639Y-43007800D01*
X6139574Y-43008724D01*
X6138261Y-43009528D01*
X6085831Y-43047621D01*
X6085831Y-43047622D01*
X6725051Y-43686842D01*
X6657007Y-43705075D01*
X6542993Y-43770901D01*
X6449901Y-43863993D01*
X6384075Y-43978007D01*
X6365842Y-44046051D01*
X5726622Y-43406831D01*
X5702740Y-43408711D01*
X5697708Y-43412591D01*
X5626972Y-43418663D01*
X5564182Y-43385528D01*
X5529273Y-43323707D01*
X5526000Y-43295174D01*
X5526000Y-42507677D01*
X5546002Y-42439556D01*
X5599658Y-42393063D01*
X5669932Y-42382959D01*
X5734512Y-42412453D01*
G37*
%TD.AperFunction*%
%TA.AperFunction,Conductor*%
G36*
X8200445Y-42310766D02*
G01*
X8225021Y-42339130D01*
X8225196Y-42339004D01*
X8226668Y-42341030D01*
X8227439Y-42341920D01*
X8228105Y-42343007D01*
X8228106Y-42343009D01*
X8353794Y-42516004D01*
X8353796Y-42516006D01*
X8353798Y-42516009D01*
X8504990Y-42667201D01*
X8504993Y-42667203D01*
X8504996Y-42667206D01*
X8677991Y-42792894D01*
X8678001Y-42792899D01*
X8679567Y-42793859D01*
X8680042Y-42794384D01*
X8681996Y-42795804D01*
X8681697Y-42796214D01*
X8727200Y-42846505D01*
X8738808Y-42916546D01*
X8710707Y-42981745D01*
X8682157Y-43006484D01*
X8682259Y-43006624D01*
X8680639Y-43007800D01*
X8679574Y-43008724D01*
X8678261Y-43009528D01*
X8625831Y-43047621D01*
X8625831Y-43047622D01*
X9265051Y-43686842D01*
X9197007Y-43705075D01*
X9082993Y-43770901D01*
X8989901Y-43863993D01*
X8924075Y-43978007D01*
X8905842Y-44046051D01*
X8266622Y-43406831D01*
X8266621Y-43406831D01*
X8228522Y-43459269D01*
X8227422Y-43461065D01*
X8226827Y-43461603D01*
X8225624Y-43463259D01*
X8225275Y-43463006D01*
X8174768Y-43508689D01*
X8104725Y-43520286D01*
X8039531Y-43492174D01*
X8014440Y-43463211D01*
X8014376Y-43463258D01*
X8013830Y-43462506D01*
X8012563Y-43461044D01*
X8011462Y-43459248D01*
X7973378Y-43406831D01*
X7334157Y-44046051D01*
X7315925Y-43978007D01*
X7250099Y-43863993D01*
X7157007Y-43770901D01*
X7042993Y-43705075D01*
X6974947Y-43686841D01*
X7614168Y-43047621D01*
X7614167Y-43047620D01*
X7561750Y-43009536D01*
X7560428Y-43008726D01*
X7560030Y-43008286D01*
X7557742Y-43006624D01*
X7558091Y-43006143D01*
X7512797Y-42956078D01*
X7501191Y-42886036D01*
X7529295Y-42820839D01*
X7558075Y-42795903D01*
X7558004Y-42795804D01*
X7559158Y-42794965D01*
X7560441Y-42793854D01*
X7561992Y-42792902D01*
X7562009Y-42792894D01*
X7735004Y-42667206D01*
X7886206Y-42516004D01*
X8011894Y-42343009D01*
X8011899Y-42342997D01*
X8012561Y-42341920D01*
X8012924Y-42341591D01*
X8014804Y-42339004D01*
X8015347Y-42339398D01*
X8065204Y-42294283D01*
X8135244Y-42282670D01*
X8200445Y-42310766D01*
G37*
%TD.AperFunction*%
%TA.AperFunction,Conductor*%
G36*
X50729619Y-52546081D02*
G01*
X50796498Y-52661920D01*
X50891080Y-52756502D01*
X51006919Y-52823381D01*
X51071519Y-52840690D01*
X50374541Y-53537668D01*
X50444183Y-53588267D01*
X50444189Y-53588271D01*
X50466102Y-53599436D01*
X50517718Y-53648183D01*
X50534784Y-53717098D01*
X50511884Y-53784300D01*
X50497996Y-53800798D01*
X50352299Y-53946495D01*
X50288936Y-54033707D01*
X50232713Y-54077061D01*
X50161977Y-54083136D01*
X50099185Y-54050004D01*
X50085064Y-54033707D01*
X50021699Y-53946493D01*
X49860509Y-53785303D01*
X49860506Y-53785301D01*
X49860504Y-53785299D01*
X49676074Y-53651303D01*
X49654266Y-53640191D01*
X49602651Y-53591443D01*
X49585586Y-53522528D01*
X49608487Y-53455326D01*
X49622369Y-53438835D01*
X49767701Y-53293504D01*
X49831375Y-53205863D01*
X49887593Y-53162513D01*
X49958329Y-53156436D01*
X49997389Y-53177045D01*
X50015331Y-53178457D01*
X50712309Y-52481479D01*
X50729619Y-52546081D01*
G37*
%TD.AperFunction*%
%TA.AperFunction,Conductor*%
G36*
X50274814Y-50649994D02*
G01*
X50288935Y-50666291D01*
X50352299Y-50753504D01*
X50352301Y-50753506D01*
X50352303Y-50753509D01*
X50497995Y-50899201D01*
X50532021Y-50961513D01*
X50526956Y-51032328D01*
X50484409Y-51089164D01*
X50466105Y-51100562D01*
X50444184Y-51111731D01*
X50374541Y-51162330D01*
X50374541Y-51162332D01*
X51071518Y-51859309D01*
X51006919Y-51876619D01*
X50891080Y-51943498D01*
X50796498Y-52038080D01*
X50729619Y-52153919D01*
X50712309Y-52218518D01*
X50015332Y-51521541D01*
X49997920Y-51522911D01*
X49979016Y-51537488D01*
X49908280Y-51543560D01*
X49845490Y-51510426D01*
X49831372Y-51494132D01*
X49827353Y-51488600D01*
X49767701Y-51406496D01*
X49767698Y-51406493D01*
X49767696Y-51406490D01*
X49622375Y-51261169D01*
X49588349Y-51198857D01*
X49593414Y-51128042D01*
X49635961Y-51071206D01*
X49654263Y-51059809D01*
X49676074Y-51048697D01*
X49860504Y-50914701D01*
X50021701Y-50753504D01*
X50085064Y-50666291D01*
X50141286Y-50622938D01*
X50212022Y-50616863D01*
X50274814Y-50649994D01*
G37*
%TD.AperFunction*%
%TA.AperFunction,Conductor*%
G36*
X3347220Y-9595502D02*
G01*
X3393713Y-9649158D01*
X3403817Y-9719432D01*
X3374323Y-9784012D01*
X3368194Y-9790595D01*
X3273798Y-9884990D01*
X3273796Y-9884993D01*
X3148108Y-10057987D01*
X3051029Y-10248515D01*
X3051026Y-10248521D01*
X2984952Y-10451878D01*
X2984951Y-10451883D01*
X2984951Y-10451884D01*
X2951500Y-10663084D01*
X2951500Y-10876916D01*
X2984933Y-11088004D01*
X2984952Y-11088121D01*
X3050964Y-11291286D01*
X3051028Y-11291483D01*
X3148106Y-11482009D01*
X3273794Y-11655004D01*
X3273796Y-11655006D01*
X3273798Y-11655009D01*
X3424990Y-11806201D01*
X3424993Y-11806203D01*
X3424996Y-11806206D01*
X3597991Y-11931894D01*
X3788517Y-12028972D01*
X3991878Y-12095047D01*
X3991879Y-12095047D01*
X3991884Y-12095049D01*
X4203084Y-12128500D01*
X4203087Y-12128500D01*
X4416913Y-12128500D01*
X4416916Y-12128500D01*
X4628116Y-12095049D01*
X4831483Y-12028972D01*
X5022009Y-11931894D01*
X5195004Y-11806206D01*
X5346206Y-11655004D01*
X5471894Y-11482009D01*
X5471899Y-11481997D01*
X5472561Y-11480920D01*
X5472924Y-11480591D01*
X5474804Y-11478004D01*
X5475347Y-11478398D01*
X5525204Y-11433283D01*
X5595244Y-11421670D01*
X5660445Y-11449766D01*
X5685021Y-11478130D01*
X5685196Y-11478004D01*
X5686668Y-11480030D01*
X5687439Y-11480920D01*
X5688105Y-11482007D01*
X5688106Y-11482009D01*
X5813794Y-11655004D01*
X5813796Y-11655006D01*
X5813798Y-11655009D01*
X5964990Y-11806201D01*
X5964993Y-11806203D01*
X5964996Y-11806206D01*
X6137991Y-11931894D01*
X6328517Y-12028972D01*
X6531878Y-12095047D01*
X6531879Y-12095047D01*
X6531884Y-12095049D01*
X6743084Y-12128500D01*
X6743087Y-12128500D01*
X6956913Y-12128500D01*
X6956916Y-12128500D01*
X7168116Y-12095049D01*
X7371483Y-12028972D01*
X7562009Y-11931894D01*
X7735004Y-11806206D01*
X7886206Y-11655004D01*
X8011894Y-11482009D01*
X8011899Y-11481997D01*
X8012561Y-11480920D01*
X8012924Y-11480591D01*
X8014804Y-11478004D01*
X8015347Y-11478398D01*
X8065204Y-11433283D01*
X8135244Y-11421670D01*
X8200445Y-11449766D01*
X8225021Y-11478130D01*
X8225196Y-11478004D01*
X8226668Y-11480030D01*
X8227439Y-11480920D01*
X8228105Y-11482007D01*
X8228106Y-11482009D01*
X8353794Y-11655004D01*
X8353796Y-11655006D01*
X8353798Y-11655009D01*
X8504990Y-11806201D01*
X8504993Y-11806203D01*
X8504996Y-11806206D01*
X8677991Y-11931894D01*
X8868517Y-12028972D01*
X9071878Y-12095047D01*
X9071879Y-12095047D01*
X9071884Y-12095049D01*
X9283084Y-12128500D01*
X9283087Y-12128500D01*
X9496913Y-12128500D01*
X9496916Y-12128500D01*
X9708116Y-12095049D01*
X9911483Y-12028972D01*
X10102009Y-11931894D01*
X10275004Y-11806206D01*
X10426206Y-11655004D01*
X10551894Y-11482009D01*
X10551899Y-11481997D01*
X10552561Y-11480920D01*
X10552924Y-11480591D01*
X10554804Y-11478004D01*
X10555347Y-11478398D01*
X10605204Y-11433283D01*
X10675244Y-11421670D01*
X10740445Y-11449766D01*
X10765021Y-11478130D01*
X10765196Y-11478004D01*
X10766668Y-11480030D01*
X10767439Y-11480920D01*
X10768105Y-11482007D01*
X10768106Y-11482009D01*
X10893794Y-11655004D01*
X10893796Y-11655006D01*
X10893798Y-11655009D01*
X11044990Y-11806201D01*
X11044993Y-11806203D01*
X11044996Y-11806206D01*
X11217991Y-11931894D01*
X11408517Y-12028972D01*
X11611878Y-12095047D01*
X11611879Y-12095047D01*
X11611884Y-12095049D01*
X11823084Y-12128500D01*
X11823087Y-12128500D01*
X12036913Y-12128500D01*
X12036916Y-12128500D01*
X12248116Y-12095049D01*
X12451483Y-12028972D01*
X12642009Y-11931894D01*
X12815004Y-11806206D01*
X12966206Y-11655004D01*
X13091894Y-11482009D01*
X13091899Y-11481997D01*
X13092561Y-11480920D01*
X13092924Y-11480591D01*
X13094804Y-11478004D01*
X13095347Y-11478398D01*
X13145204Y-11433283D01*
X13215244Y-11421670D01*
X13280445Y-11449766D01*
X13305021Y-11478130D01*
X13305196Y-11478004D01*
X13306668Y-11480030D01*
X13307439Y-11480920D01*
X13308105Y-11482007D01*
X13308106Y-11482009D01*
X13433794Y-11655004D01*
X13433796Y-11655006D01*
X13433798Y-11655009D01*
X13584990Y-11806201D01*
X13584993Y-11806203D01*
X13584996Y-11806206D01*
X13757991Y-11931894D01*
X13948517Y-12028972D01*
X14151878Y-12095047D01*
X14151879Y-12095047D01*
X14151884Y-12095049D01*
X14363084Y-12128500D01*
X14363087Y-12128500D01*
X14576913Y-12128500D01*
X14576916Y-12128500D01*
X14788116Y-12095049D01*
X14991483Y-12028972D01*
X15182009Y-11931894D01*
X15355004Y-11806206D01*
X15506206Y-11655004D01*
X15631894Y-11482009D01*
X15631899Y-11481997D01*
X15632561Y-11480920D01*
X15632924Y-11480591D01*
X15634804Y-11478004D01*
X15635347Y-11478398D01*
X15685204Y-11433283D01*
X15755244Y-11421670D01*
X15820445Y-11449766D01*
X15845021Y-11478130D01*
X15845196Y-11478004D01*
X15846668Y-11480030D01*
X15847439Y-11480920D01*
X15848105Y-11482007D01*
X15848106Y-11482009D01*
X15973794Y-11655004D01*
X15973796Y-11655006D01*
X15973798Y-11655009D01*
X16124990Y-11806201D01*
X16124993Y-11806203D01*
X16124996Y-11806206D01*
X16297991Y-11931894D01*
X16488517Y-12028972D01*
X16691878Y-12095047D01*
X16691879Y-12095047D01*
X16691884Y-12095049D01*
X16903084Y-12128500D01*
X16903087Y-12128500D01*
X17116913Y-12128500D01*
X17116916Y-12128500D01*
X17328116Y-12095049D01*
X17531483Y-12028972D01*
X17722009Y-11931894D01*
X17895004Y-11806206D01*
X18046206Y-11655004D01*
X18171894Y-11482009D01*
X18171899Y-11481997D01*
X18172561Y-11480920D01*
X18172924Y-11480591D01*
X18174804Y-11478004D01*
X18175347Y-11478398D01*
X18225204Y-11433283D01*
X18295244Y-11421670D01*
X18360445Y-11449766D01*
X18385021Y-11478130D01*
X18385196Y-11478004D01*
X18386668Y-11480030D01*
X18387439Y-11480920D01*
X18388105Y-11482007D01*
X18388106Y-11482009D01*
X18513794Y-11655004D01*
X18513796Y-11655006D01*
X18513798Y-11655009D01*
X18664990Y-11806201D01*
X18664993Y-11806203D01*
X18664996Y-11806206D01*
X18837991Y-11931894D01*
X19028517Y-12028972D01*
X19231878Y-12095047D01*
X19231879Y-12095047D01*
X19231884Y-12095049D01*
X19443084Y-12128500D01*
X19443087Y-12128500D01*
X19656913Y-12128500D01*
X19656916Y-12128500D01*
X19868116Y-12095049D01*
X20071483Y-12028972D01*
X20262009Y-11931894D01*
X20435004Y-11806206D01*
X20586206Y-11655004D01*
X20711894Y-11482009D01*
X20711899Y-11481997D01*
X20712561Y-11480920D01*
X20712924Y-11480591D01*
X20714804Y-11478004D01*
X20715347Y-11478398D01*
X20765204Y-11433283D01*
X20835244Y-11421670D01*
X20900445Y-11449766D01*
X20925021Y-11478130D01*
X20925196Y-11478004D01*
X20926668Y-11480030D01*
X20927439Y-11480920D01*
X20928105Y-11482007D01*
X20928106Y-11482009D01*
X21053794Y-11655004D01*
X21053796Y-11655006D01*
X21053798Y-11655009D01*
X21204990Y-11806201D01*
X21204993Y-11806203D01*
X21204996Y-11806206D01*
X21377991Y-11931894D01*
X21568517Y-12028972D01*
X21771878Y-12095047D01*
X21771879Y-12095047D01*
X21771884Y-12095049D01*
X21983084Y-12128500D01*
X21983087Y-12128500D01*
X22196913Y-12128500D01*
X22196916Y-12128500D01*
X22408116Y-12095049D01*
X22611483Y-12028972D01*
X22802009Y-11931894D01*
X22975004Y-11806206D01*
X23126206Y-11655004D01*
X23251894Y-11482009D01*
X23348972Y-11291483D01*
X23415049Y-11088116D01*
X23448500Y-10876916D01*
X23448500Y-10663084D01*
X23415049Y-10451884D01*
X23348972Y-10248517D01*
X23251894Y-10057991D01*
X23126206Y-9884996D01*
X23126203Y-9884993D01*
X23126201Y-9884990D01*
X23031806Y-9790595D01*
X22997780Y-9728283D01*
X23002845Y-9657468D01*
X23045392Y-9600632D01*
X23111912Y-9575821D01*
X23120901Y-9575500D01*
X28679808Y-9575500D01*
X28747929Y-9595502D01*
X28794422Y-9649158D01*
X28804526Y-9719432D01*
X28775032Y-9784012D01*
X28768903Y-9790595D01*
X28674180Y-9885317D01*
X28674177Y-9885320D01*
X28548536Y-10058249D01*
X28451493Y-10248707D01*
X28451490Y-10248713D01*
X28385440Y-10451995D01*
X28375302Y-10516000D01*
X29279297Y-10516000D01*
X29244075Y-10577007D01*
X29210000Y-10704174D01*
X29210000Y-10835826D01*
X29244075Y-10962993D01*
X29279297Y-11024000D01*
X28375302Y-11024000D01*
X28385440Y-11088004D01*
X28451490Y-11291286D01*
X28451493Y-11291292D01*
X28548536Y-11481750D01*
X28674177Y-11654679D01*
X28825320Y-11805822D01*
X28998249Y-11931463D01*
X29188707Y-12028506D01*
X29188713Y-12028509D01*
X29391998Y-12094560D01*
X29456000Y-12104696D01*
X29456000Y-11200702D01*
X29517007Y-11235925D01*
X29644174Y-11270000D01*
X29775826Y-11270000D01*
X29902993Y-11235925D01*
X29964000Y-11200702D01*
X29964000Y-12104696D01*
X30028001Y-12094560D01*
X30231286Y-12028509D01*
X30231292Y-12028506D01*
X30421750Y-11931463D01*
X30594679Y-11805822D01*
X30745822Y-11654679D01*
X30871465Y-11481748D01*
X30872564Y-11479955D01*
X30873159Y-11479415D01*
X30874376Y-11477742D01*
X30874727Y-11477997D01*
X30925209Y-11432321D01*
X30995250Y-11420710D01*
X31060449Y-11448810D01*
X31085559Y-11477789D01*
X31085624Y-11477742D01*
X31086172Y-11478496D01*
X31087436Y-11479955D01*
X31088534Y-11481748D01*
X31214177Y-11654679D01*
X31365320Y-11805822D01*
X31538249Y-11931463D01*
X31728707Y-12028506D01*
X31728713Y-12028509D01*
X31931998Y-12094560D01*
X31996000Y-12104696D01*
X31996000Y-11200702D01*
X32057007Y-11235925D01*
X32184174Y-11270000D01*
X32315826Y-11270000D01*
X32442993Y-11235925D01*
X32504000Y-11200702D01*
X32504000Y-12104696D01*
X32568001Y-12094560D01*
X32771286Y-12028509D01*
X32771292Y-12028506D01*
X32961750Y-11931463D01*
X33134679Y-11805822D01*
X33285822Y-11654679D01*
X33411463Y-11481750D01*
X33508506Y-11291292D01*
X33508509Y-11291286D01*
X33574559Y-11088004D01*
X33584698Y-11024000D01*
X32680703Y-11024000D01*
X32715925Y-10962993D01*
X32750000Y-10835826D01*
X32750000Y-10704174D01*
X32715925Y-10577007D01*
X32680703Y-10516000D01*
X33584697Y-10516000D01*
X33574559Y-10451995D01*
X33508509Y-10248713D01*
X33508506Y-10248707D01*
X33411463Y-10058249D01*
X33285822Y-9885320D01*
X33191097Y-9790595D01*
X33157071Y-9728283D01*
X33162136Y-9657468D01*
X33204683Y-9600632D01*
X33271203Y-9575821D01*
X33280192Y-9575500D01*
X37569099Y-9575500D01*
X37637220Y-9595502D01*
X37683713Y-9649158D01*
X37693817Y-9719432D01*
X37664323Y-9784012D01*
X37658194Y-9790595D01*
X37563798Y-9884990D01*
X37563796Y-9884993D01*
X37438108Y-10057987D01*
X37341029Y-10248515D01*
X37341026Y-10248521D01*
X37274952Y-10451878D01*
X37274951Y-10451883D01*
X37274951Y-10451884D01*
X37241500Y-10663084D01*
X37241500Y-10876916D01*
X37274933Y-11088004D01*
X37274952Y-11088121D01*
X37340964Y-11291286D01*
X37341028Y-11291483D01*
X37438106Y-11482009D01*
X37563794Y-11655004D01*
X37563796Y-11655006D01*
X37563798Y-11655009D01*
X37714990Y-11806201D01*
X37714993Y-11806203D01*
X37714996Y-11806206D01*
X37887991Y-11931894D01*
X38078517Y-12028972D01*
X38281878Y-12095047D01*
X38281879Y-12095047D01*
X38281884Y-12095049D01*
X38493084Y-12128500D01*
X38493087Y-12128500D01*
X38706913Y-12128500D01*
X38706916Y-12128500D01*
X38918116Y-12095049D01*
X39121483Y-12028972D01*
X39312009Y-11931894D01*
X39485004Y-11806206D01*
X39636206Y-11655004D01*
X39761894Y-11482009D01*
X39761899Y-11481997D01*
X39762561Y-11480920D01*
X39762924Y-11480591D01*
X39764804Y-11478004D01*
X39765347Y-11478398D01*
X39815204Y-11433283D01*
X39885244Y-11421670D01*
X39950445Y-11449766D01*
X39975021Y-11478130D01*
X39975196Y-11478004D01*
X39976668Y-11480030D01*
X39977439Y-11480920D01*
X39978105Y-11482007D01*
X39978106Y-11482009D01*
X40103794Y-11655004D01*
X40103796Y-11655006D01*
X40103798Y-11655009D01*
X40254990Y-11806201D01*
X40254993Y-11806203D01*
X40254996Y-11806206D01*
X40427991Y-11931894D01*
X40618517Y-12028972D01*
X40821878Y-12095047D01*
X40821879Y-12095047D01*
X40821884Y-12095049D01*
X41033084Y-12128500D01*
X41033087Y-12128500D01*
X41246913Y-12128500D01*
X41246916Y-12128500D01*
X41458116Y-12095049D01*
X41661483Y-12028972D01*
X41852009Y-11931894D01*
X42025004Y-11806206D01*
X42176206Y-11655004D01*
X42301894Y-11482009D01*
X42301899Y-11481997D01*
X42302561Y-11480920D01*
X42302924Y-11480591D01*
X42304804Y-11478004D01*
X42305347Y-11478398D01*
X42355204Y-11433283D01*
X42425244Y-11421670D01*
X42490445Y-11449766D01*
X42515021Y-11478130D01*
X42515196Y-11478004D01*
X42516668Y-11480030D01*
X42517439Y-11480920D01*
X42518105Y-11482007D01*
X42518106Y-11482009D01*
X42643794Y-11655004D01*
X42643796Y-11655006D01*
X42643798Y-11655009D01*
X42794990Y-11806201D01*
X42794993Y-11806203D01*
X42794996Y-11806206D01*
X42967991Y-11931894D01*
X43158517Y-12028972D01*
X43361878Y-12095047D01*
X43361879Y-12095047D01*
X43361884Y-12095049D01*
X43573084Y-12128500D01*
X43573087Y-12128500D01*
X43786913Y-12128500D01*
X43786916Y-12128500D01*
X43998116Y-12095049D01*
X44201483Y-12028972D01*
X44392009Y-11931894D01*
X44565004Y-11806206D01*
X44716206Y-11655004D01*
X44841894Y-11482009D01*
X44841899Y-11481997D01*
X44842561Y-11480920D01*
X44842924Y-11480591D01*
X44844804Y-11478004D01*
X44845347Y-11478398D01*
X44895204Y-11433283D01*
X44965244Y-11421670D01*
X45030445Y-11449766D01*
X45055021Y-11478130D01*
X45055196Y-11478004D01*
X45056668Y-11480030D01*
X45057439Y-11480920D01*
X45058105Y-11482007D01*
X45058106Y-11482009D01*
X45183794Y-11655004D01*
X45183796Y-11655006D01*
X45183798Y-11655009D01*
X45334990Y-11806201D01*
X45334993Y-11806203D01*
X45334996Y-11806206D01*
X45507991Y-11931894D01*
X45698517Y-12028972D01*
X45901878Y-12095047D01*
X45901879Y-12095047D01*
X45901884Y-12095049D01*
X46113084Y-12128500D01*
X46113087Y-12128500D01*
X46326913Y-12128500D01*
X46326916Y-12128500D01*
X46538116Y-12095049D01*
X46741483Y-12028972D01*
X46932009Y-11931894D01*
X47105004Y-11806206D01*
X47256206Y-11655004D01*
X47381894Y-11482009D01*
X47381899Y-11481997D01*
X47382561Y-11480920D01*
X47382924Y-11480591D01*
X47384804Y-11478004D01*
X47385347Y-11478398D01*
X47435204Y-11433283D01*
X47505244Y-11421670D01*
X47570445Y-11449766D01*
X47595021Y-11478130D01*
X47595196Y-11478004D01*
X47596668Y-11480030D01*
X47597439Y-11480920D01*
X47598105Y-11482007D01*
X47598106Y-11482009D01*
X47723794Y-11655004D01*
X47723796Y-11655006D01*
X47723798Y-11655009D01*
X47874990Y-11806201D01*
X47874993Y-11806203D01*
X47874996Y-11806206D01*
X48047991Y-11931894D01*
X48238517Y-12028972D01*
X48441878Y-12095047D01*
X48441879Y-12095047D01*
X48441884Y-12095049D01*
X48653084Y-12128500D01*
X48653087Y-12128500D01*
X48866913Y-12128500D01*
X48866916Y-12128500D01*
X49078116Y-12095049D01*
X49281483Y-12028972D01*
X49472009Y-11931894D01*
X49645004Y-11806206D01*
X49796206Y-11655004D01*
X49921894Y-11482009D01*
X49921899Y-11481997D01*
X49922561Y-11480920D01*
X49922924Y-11480591D01*
X49924804Y-11478004D01*
X49925347Y-11478398D01*
X49975204Y-11433283D01*
X50045244Y-11421670D01*
X50110445Y-11449766D01*
X50135021Y-11478130D01*
X50135196Y-11478004D01*
X50136668Y-11480030D01*
X50137439Y-11480920D01*
X50138105Y-11482007D01*
X50138106Y-11482009D01*
X50263794Y-11655004D01*
X50263796Y-11655006D01*
X50263798Y-11655009D01*
X50414990Y-11806201D01*
X50414993Y-11806203D01*
X50414996Y-11806206D01*
X50587991Y-11931894D01*
X50778517Y-12028972D01*
X50981878Y-12095047D01*
X50981879Y-12095047D01*
X50981884Y-12095049D01*
X51193084Y-12128500D01*
X51193087Y-12128500D01*
X51406913Y-12128500D01*
X51406916Y-12128500D01*
X51618116Y-12095049D01*
X51821483Y-12028972D01*
X52012009Y-11931894D01*
X52185004Y-11806206D01*
X52336206Y-11655004D01*
X52461894Y-11482009D01*
X52461899Y-11481997D01*
X52462561Y-11480920D01*
X52462924Y-11480591D01*
X52464804Y-11478004D01*
X52465347Y-11478398D01*
X52515204Y-11433283D01*
X52585244Y-11421670D01*
X52650445Y-11449766D01*
X52675021Y-11478130D01*
X52675196Y-11478004D01*
X52676668Y-11480030D01*
X52677439Y-11480920D01*
X52678105Y-11482007D01*
X52678106Y-11482009D01*
X52803794Y-11655004D01*
X52803796Y-11655006D01*
X52803798Y-11655009D01*
X52954990Y-11806201D01*
X52954993Y-11806203D01*
X52954996Y-11806206D01*
X53127991Y-11931894D01*
X53318517Y-12028972D01*
X53521878Y-12095047D01*
X53521879Y-12095047D01*
X53521884Y-12095049D01*
X53733084Y-12128500D01*
X53733087Y-12128500D01*
X53946913Y-12128500D01*
X53946916Y-12128500D01*
X54158116Y-12095049D01*
X54361483Y-12028972D01*
X54552009Y-11931894D01*
X54725004Y-11806206D01*
X54876206Y-11655004D01*
X55001894Y-11482009D01*
X55001899Y-11481997D01*
X55002561Y-11480920D01*
X55002924Y-11480591D01*
X55004804Y-11478004D01*
X55005347Y-11478398D01*
X55055204Y-11433283D01*
X55125244Y-11421670D01*
X55190445Y-11449766D01*
X55215021Y-11478130D01*
X55215196Y-11478004D01*
X55216668Y-11480030D01*
X55217439Y-11480920D01*
X55218105Y-11482007D01*
X55218106Y-11482009D01*
X55343794Y-11655004D01*
X55343796Y-11655006D01*
X55343798Y-11655009D01*
X55494990Y-11806201D01*
X55494993Y-11806203D01*
X55494996Y-11806206D01*
X55667991Y-11931894D01*
X55858517Y-12028972D01*
X56061878Y-12095047D01*
X56061879Y-12095047D01*
X56061884Y-12095049D01*
X56273084Y-12128500D01*
X56273087Y-12128500D01*
X56486913Y-12128500D01*
X56486916Y-12128500D01*
X56698116Y-12095049D01*
X56901483Y-12028972D01*
X57092009Y-11931894D01*
X57265004Y-11806206D01*
X57265598Y-11805611D01*
X57265880Y-11805457D01*
X57268771Y-11802989D01*
X57269289Y-11803595D01*
X57327904Y-11771581D01*
X57398720Y-11776637D01*
X57455561Y-11819177D01*
X57480380Y-11885694D01*
X57465297Y-11955070D01*
X57456639Y-11968757D01*
X57439165Y-11992808D01*
X57356374Y-12155293D01*
X57300027Y-12328711D01*
X57300026Y-12328716D01*
X57300026Y-12328717D01*
X57271500Y-12508824D01*
X57271500Y-12691176D01*
X57300026Y-12871283D01*
X57300027Y-12871288D01*
X57356374Y-13044706D01*
X57356375Y-13044709D01*
X57356376Y-13044710D01*
X57439162Y-13207186D01*
X57546346Y-13354712D01*
X57546348Y-13354714D01*
X57546350Y-13354717D01*
X57675282Y-13483649D01*
X57675285Y-13483651D01*
X57675288Y-13483654D01*
X57822814Y-13590838D01*
X57985290Y-13673624D01*
X58158717Y-13729974D01*
X58338824Y-13758500D01*
X58338827Y-13758500D01*
X58521173Y-13758500D01*
X58521176Y-13758500D01*
X58701283Y-13729974D01*
X58874710Y-13673624D01*
X59037186Y-13590838D01*
X59184712Y-13483654D01*
X59313654Y-13354712D01*
X59420838Y-13207186D01*
X59503624Y-13044710D01*
X59559974Y-12871283D01*
X59588500Y-12691176D01*
X59588500Y-12508824D01*
X59559974Y-12328717D01*
X59503624Y-12155290D01*
X59420838Y-11992814D01*
X59313654Y-11845288D01*
X59313651Y-11845285D01*
X59313649Y-11845282D01*
X59184717Y-11716350D01*
X59184714Y-11716348D01*
X59184712Y-11716346D01*
X59037186Y-11609162D01*
X58874710Y-11526376D01*
X58874709Y-11526375D01*
X58874706Y-11526374D01*
X58701288Y-11470027D01*
X58701284Y-11470026D01*
X58701283Y-11470026D01*
X58521176Y-11441500D01*
X58338824Y-11441500D01*
X58158717Y-11470026D01*
X58158711Y-11470027D01*
X57985293Y-11526374D01*
X57822810Y-11609164D01*
X57675746Y-11716013D01*
X57608878Y-11739872D01*
X57539727Y-11723791D01*
X57490246Y-11672877D01*
X57476147Y-11603295D01*
X57499747Y-11540018D01*
X57541894Y-11482009D01*
X57638972Y-11291483D01*
X57705049Y-11088116D01*
X57738500Y-10876916D01*
X57738500Y-10663084D01*
X57705049Y-10451884D01*
X57638972Y-10248517D01*
X57541894Y-10057991D01*
X57416206Y-9884996D01*
X57416203Y-9884993D01*
X57416201Y-9884990D01*
X57321806Y-9790595D01*
X57287780Y-9728283D01*
X57292845Y-9657468D01*
X57335392Y-9600632D01*
X57401912Y-9575821D01*
X57410901Y-9575500D01*
X59898500Y-9575500D01*
X59966621Y-9595502D01*
X60013114Y-9649158D01*
X60024500Y-9701500D01*
X60024500Y-17269099D01*
X60004498Y-17337220D01*
X59950842Y-17383713D01*
X59880568Y-17393817D01*
X59815988Y-17364323D01*
X59809405Y-17358194D01*
X59805009Y-17353798D01*
X59805006Y-17353796D01*
X59805004Y-17353794D01*
X59632009Y-17228106D01*
X59441483Y-17131028D01*
X59441480Y-17131027D01*
X59441478Y-17131026D01*
X59238120Y-17064952D01*
X59238123Y-17064952D01*
X59198801Y-17058724D01*
X59026916Y-17031500D01*
X58813084Y-17031500D01*
X58601884Y-17064951D01*
X58601878Y-17064952D01*
X58398521Y-17131026D01*
X58398515Y-17131029D01*
X58207987Y-17228108D01*
X58034993Y-17353796D01*
X58034990Y-17353798D01*
X57883798Y-17504990D01*
X57883796Y-17504993D01*
X57758108Y-17677987D01*
X57661029Y-17868515D01*
X57661026Y-17868521D01*
X57594952Y-18071878D01*
X57594951Y-18071883D01*
X57594951Y-18071884D01*
X57561500Y-18283084D01*
X57561500Y-18496916D01*
X57574500Y-18578994D01*
X57594952Y-18708121D01*
X57661026Y-18911478D01*
X57661028Y-18911483D01*
X57758106Y-19102009D01*
X57883794Y-19275004D01*
X57883796Y-19275006D01*
X57883798Y-19275009D01*
X58034990Y-19426201D01*
X58034993Y-19426203D01*
X58034996Y-19426206D01*
X58207991Y-19551894D01*
X58207996Y-19551896D01*
X58209088Y-19552566D01*
X58209418Y-19552931D01*
X58211996Y-19554804D01*
X58211602Y-19555345D01*
X58256721Y-19605213D01*
X58268328Y-19675255D01*
X58240226Y-19740453D01*
X58211870Y-19765023D01*
X58211996Y-19765196D01*
X58209982Y-19766658D01*
X58209088Y-19767434D01*
X58207987Y-19768108D01*
X58034993Y-19893796D01*
X58034990Y-19893798D01*
X57883798Y-20044990D01*
X57883796Y-20044993D01*
X57758108Y-20217987D01*
X57661029Y-20408515D01*
X57661026Y-20408521D01*
X57594952Y-20611878D01*
X57594951Y-20611883D01*
X57594951Y-20611884D01*
X57561500Y-20823084D01*
X57561500Y-21036916D01*
X57574500Y-21118994D01*
X57594952Y-21248121D01*
X57661026Y-21451478D01*
X57661028Y-21451483D01*
X57758106Y-21642009D01*
X57883794Y-21815004D01*
X57883796Y-21815006D01*
X57883798Y-21815009D01*
X58034990Y-21966201D01*
X58034993Y-21966203D01*
X58034996Y-21966206D01*
X58207991Y-22091894D01*
X58207996Y-22091896D01*
X58209088Y-22092566D01*
X58209418Y-22092931D01*
X58211996Y-22094804D01*
X58211602Y-22095345D01*
X58256721Y-22145213D01*
X58268328Y-22215255D01*
X58240226Y-22280453D01*
X58211870Y-22305023D01*
X58211996Y-22305196D01*
X58209982Y-22306658D01*
X58209088Y-22307434D01*
X58207987Y-22308108D01*
X58034993Y-22433796D01*
X58034990Y-22433798D01*
X57883798Y-22584990D01*
X57883796Y-22584993D01*
X57758108Y-22757987D01*
X57661029Y-22948515D01*
X57661026Y-22948521D01*
X57594952Y-23151878D01*
X57594951Y-23151883D01*
X57594951Y-23151884D01*
X57561500Y-23363084D01*
X57561500Y-23576916D01*
X57594951Y-23788116D01*
X57594952Y-23788121D01*
X57661026Y-23991478D01*
X57661028Y-23991483D01*
X57758106Y-24182009D01*
X57883794Y-24355004D01*
X57883796Y-24355006D01*
X57883798Y-24355009D01*
X58034990Y-24506201D01*
X58034993Y-24506203D01*
X58034996Y-24506206D01*
X58207991Y-24631894D01*
X58207996Y-24631896D01*
X58209088Y-24632566D01*
X58209418Y-24632931D01*
X58211996Y-24634804D01*
X58211602Y-24635345D01*
X58256721Y-24685213D01*
X58268328Y-24755255D01*
X58240226Y-24820453D01*
X58211870Y-24845023D01*
X58211996Y-24845196D01*
X58209982Y-24846658D01*
X58209088Y-24847434D01*
X58207987Y-24848108D01*
X58034993Y-24973796D01*
X58034990Y-24973798D01*
X57883798Y-25124990D01*
X57883796Y-25124993D01*
X57758108Y-25297987D01*
X57661029Y-25488515D01*
X57661026Y-25488521D01*
X57594952Y-25691878D01*
X57594951Y-25691883D01*
X57594951Y-25691884D01*
X57561500Y-25903084D01*
X57561500Y-26116916D01*
X57574500Y-26198994D01*
X57594952Y-26328121D01*
X57661026Y-26531478D01*
X57661028Y-26531483D01*
X57758106Y-26722009D01*
X57883794Y-26895004D01*
X57883796Y-26895006D01*
X57883798Y-26895009D01*
X58034990Y-27046201D01*
X58034993Y-27046203D01*
X58034996Y-27046206D01*
X58207991Y-27171894D01*
X58207996Y-27171896D01*
X58209088Y-27172566D01*
X58209418Y-27172931D01*
X58211996Y-27174804D01*
X58211602Y-27175345D01*
X58256721Y-27225213D01*
X58268328Y-27295255D01*
X58240226Y-27360453D01*
X58211870Y-27385023D01*
X58211996Y-27385196D01*
X58209982Y-27386658D01*
X58209088Y-27387434D01*
X58207987Y-27388108D01*
X58034993Y-27513796D01*
X58034990Y-27513798D01*
X57883798Y-27664990D01*
X57883796Y-27664993D01*
X57758108Y-27837987D01*
X57661029Y-28028515D01*
X57661026Y-28028521D01*
X57594952Y-28231878D01*
X57594951Y-28231883D01*
X57594951Y-28231884D01*
X57561500Y-28443084D01*
X57561500Y-28656916D01*
X57594951Y-28868116D01*
X57594952Y-28868121D01*
X57628255Y-28970617D01*
X57661028Y-29071483D01*
X57758106Y-29262009D01*
X57883794Y-29435004D01*
X57883796Y-29435006D01*
X57883798Y-29435009D01*
X58034990Y-29586201D01*
X58034993Y-29586203D01*
X58034996Y-29586206D01*
X58207991Y-29711894D01*
X58207996Y-29711896D01*
X58209088Y-29712566D01*
X58209418Y-29712931D01*
X58211996Y-29714804D01*
X58211602Y-29715345D01*
X58256721Y-29765213D01*
X58268328Y-29835255D01*
X58240226Y-29900453D01*
X58211870Y-29925023D01*
X58211996Y-29925196D01*
X58209982Y-29926658D01*
X58209088Y-29927434D01*
X58207987Y-29928108D01*
X58034993Y-30053796D01*
X58034990Y-30053798D01*
X57883798Y-30204990D01*
X57883796Y-30204993D01*
X57758108Y-30377987D01*
X57661029Y-30568515D01*
X57661026Y-30568521D01*
X57594952Y-30771878D01*
X57594951Y-30771883D01*
X57594951Y-30771884D01*
X57561500Y-30983084D01*
X57561500Y-31196916D01*
X57594951Y-31408116D01*
X57594952Y-31408121D01*
X57661026Y-31611478D01*
X57661028Y-31611483D01*
X57758106Y-31802009D01*
X57883794Y-31975004D01*
X57883796Y-31975006D01*
X57883798Y-31975009D01*
X58034990Y-32126201D01*
X58034993Y-32126203D01*
X58034996Y-32126206D01*
X58207991Y-32251894D01*
X58207996Y-32251896D01*
X58209088Y-32252566D01*
X58209418Y-32252931D01*
X58211996Y-32254804D01*
X58211602Y-32255345D01*
X58256721Y-32305213D01*
X58268328Y-32375255D01*
X58240226Y-32440453D01*
X58211870Y-32465023D01*
X58211996Y-32465196D01*
X58209982Y-32466658D01*
X58209088Y-32467434D01*
X58207987Y-32468108D01*
X58034993Y-32593796D01*
X58034990Y-32593798D01*
X57883798Y-32744990D01*
X57883796Y-32744993D01*
X57758108Y-32917987D01*
X57661029Y-33108515D01*
X57661026Y-33108521D01*
X57594952Y-33311878D01*
X57594951Y-33311883D01*
X57594951Y-33311884D01*
X57561500Y-33523084D01*
X57561500Y-33736916D01*
X57574500Y-33818994D01*
X57594952Y-33948121D01*
X57635871Y-34074058D01*
X57661028Y-34151483D01*
X57758106Y-34342009D01*
X57883794Y-34515004D01*
X57883796Y-34515006D01*
X57883798Y-34515009D01*
X58034990Y-34666201D01*
X58034993Y-34666203D01*
X58034996Y-34666206D01*
X58207991Y-34791894D01*
X58207996Y-34791896D01*
X58209088Y-34792566D01*
X58209418Y-34792931D01*
X58211996Y-34794804D01*
X58211602Y-34795345D01*
X58256721Y-34845213D01*
X58268328Y-34915255D01*
X58240226Y-34980453D01*
X58211870Y-35005023D01*
X58211996Y-35005196D01*
X58209982Y-35006658D01*
X58209088Y-35007434D01*
X58207987Y-35008108D01*
X58034993Y-35133796D01*
X58034990Y-35133798D01*
X57883798Y-35284990D01*
X57883796Y-35284993D01*
X57758108Y-35457987D01*
X57661029Y-35648515D01*
X57661026Y-35648521D01*
X57594952Y-35851878D01*
X57594951Y-35851883D01*
X57594951Y-35851884D01*
X57561500Y-36063084D01*
X57561500Y-36276916D01*
X57574500Y-36358994D01*
X57594952Y-36488121D01*
X57661026Y-36691478D01*
X57661028Y-36691483D01*
X57758106Y-36882009D01*
X57883794Y-37055004D01*
X57883796Y-37055006D01*
X57883798Y-37055009D01*
X58034990Y-37206201D01*
X58034993Y-37206203D01*
X58034996Y-37206206D01*
X58207991Y-37331894D01*
X58207996Y-37331896D01*
X58209088Y-37332566D01*
X58209418Y-37332931D01*
X58211996Y-37334804D01*
X58211602Y-37335345D01*
X58256721Y-37385213D01*
X58268328Y-37455255D01*
X58240226Y-37520453D01*
X58211870Y-37545023D01*
X58211996Y-37545196D01*
X58209982Y-37546658D01*
X58209088Y-37547434D01*
X58207987Y-37548108D01*
X58034993Y-37673796D01*
X58034990Y-37673798D01*
X57883798Y-37824990D01*
X57883796Y-37824993D01*
X57758108Y-37997987D01*
X57661029Y-38188515D01*
X57661026Y-38188521D01*
X57594952Y-38391878D01*
X57594951Y-38391883D01*
X57594951Y-38391884D01*
X57561500Y-38603084D01*
X57561500Y-38816916D01*
X57586347Y-38973791D01*
X57594952Y-39028121D01*
X57639668Y-39165744D01*
X57661028Y-39231483D01*
X57758106Y-39422009D01*
X57883794Y-39595004D01*
X57883796Y-39595006D01*
X57883798Y-39595009D01*
X58034990Y-39746201D01*
X58034993Y-39746203D01*
X58034996Y-39746206D01*
X58207991Y-39871894D01*
X58207996Y-39871896D01*
X58209088Y-39872566D01*
X58209418Y-39872931D01*
X58211996Y-39874804D01*
X58211602Y-39875345D01*
X58256721Y-39925213D01*
X58268328Y-39995255D01*
X58240226Y-40060453D01*
X58211870Y-40085023D01*
X58211996Y-40085196D01*
X58209982Y-40086658D01*
X58209088Y-40087434D01*
X58207987Y-40088108D01*
X58034993Y-40213796D01*
X58034990Y-40213798D01*
X57883798Y-40364990D01*
X57883796Y-40364993D01*
X57758108Y-40537987D01*
X57661029Y-40728515D01*
X57661026Y-40728521D01*
X57594952Y-40931878D01*
X57594951Y-40931883D01*
X57594951Y-40931884D01*
X57561500Y-41143084D01*
X57561500Y-41356916D01*
X57594951Y-41568116D01*
X57594952Y-41568121D01*
X57661026Y-41771478D01*
X57661028Y-41771483D01*
X57758106Y-41962009D01*
X57883794Y-42135004D01*
X57883796Y-42135006D01*
X57883798Y-42135009D01*
X58034990Y-42286201D01*
X58034993Y-42286203D01*
X58034996Y-42286206D01*
X58207991Y-42411894D01*
X58207996Y-42411896D01*
X58209088Y-42412566D01*
X58209418Y-42412931D01*
X58211996Y-42414804D01*
X58211602Y-42415345D01*
X58256721Y-42465213D01*
X58268328Y-42535255D01*
X58240226Y-42600453D01*
X58211870Y-42625023D01*
X58211996Y-42625196D01*
X58209982Y-42626658D01*
X58209088Y-42627434D01*
X58207987Y-42628108D01*
X58034993Y-42753796D01*
X58034990Y-42753798D01*
X57883798Y-42904990D01*
X57883796Y-42904993D01*
X57758108Y-43077987D01*
X57661029Y-43268515D01*
X57661026Y-43268521D01*
X57594952Y-43471878D01*
X57594951Y-43471883D01*
X57594951Y-43471884D01*
X57561500Y-43683084D01*
X57561500Y-43896916D01*
X57574344Y-43978007D01*
X57594952Y-44108121D01*
X57661026Y-44311478D01*
X57661028Y-44311483D01*
X57758106Y-44502009D01*
X57883794Y-44675004D01*
X57883796Y-44675006D01*
X57883798Y-44675009D01*
X58034990Y-44826201D01*
X58034993Y-44826203D01*
X58034996Y-44826206D01*
X58207991Y-44951894D01*
X58207996Y-44951896D01*
X58209088Y-44952566D01*
X58209418Y-44952931D01*
X58211996Y-44954804D01*
X58211602Y-44955345D01*
X58256721Y-45005213D01*
X58268328Y-45075255D01*
X58240226Y-45140453D01*
X58211870Y-45165023D01*
X58211996Y-45165196D01*
X58209982Y-45166658D01*
X58209088Y-45167434D01*
X58207987Y-45168108D01*
X58034993Y-45293796D01*
X58034990Y-45293798D01*
X57883798Y-45444990D01*
X57883796Y-45444993D01*
X57758108Y-45617987D01*
X57661029Y-45808515D01*
X57661026Y-45808521D01*
X57594952Y-46011878D01*
X57594951Y-46011883D01*
X57594951Y-46011884D01*
X57561500Y-46223084D01*
X57561500Y-46436916D01*
X57594485Y-46645174D01*
X57594952Y-46648121D01*
X57660964Y-46851286D01*
X57661028Y-46851483D01*
X57758106Y-47042009D01*
X57883794Y-47215004D01*
X57883796Y-47215006D01*
X57883798Y-47215009D01*
X58034990Y-47366201D01*
X58034993Y-47366203D01*
X58034996Y-47366206D01*
X58207991Y-47491894D01*
X58398517Y-47588972D01*
X58601878Y-47655047D01*
X58601879Y-47655047D01*
X58601884Y-47655049D01*
X58813084Y-47688500D01*
X58813087Y-47688500D01*
X59026913Y-47688500D01*
X59026916Y-47688500D01*
X59238116Y-47655049D01*
X59441483Y-47588972D01*
X59632009Y-47491894D01*
X59805004Y-47366206D01*
X59805388Y-47365822D01*
X59809405Y-47361806D01*
X59871717Y-47327780D01*
X59942532Y-47332845D01*
X59999368Y-47375392D01*
X60024179Y-47441912D01*
X60024500Y-47450901D01*
X60024500Y-50289099D01*
X60004498Y-50357220D01*
X59950842Y-50403713D01*
X59880568Y-50413817D01*
X59815988Y-50384323D01*
X59809405Y-50378194D01*
X59805009Y-50373798D01*
X59805006Y-50373796D01*
X59805004Y-50373794D01*
X59632009Y-50248106D01*
X59441483Y-50151028D01*
X59441480Y-50151027D01*
X59441478Y-50151026D01*
X59238120Y-50084952D01*
X59238123Y-50084952D01*
X59198801Y-50078724D01*
X59026916Y-50051500D01*
X58813084Y-50051500D01*
X58601884Y-50084951D01*
X58601878Y-50084952D01*
X58398521Y-50151026D01*
X58398515Y-50151029D01*
X58207987Y-50248108D01*
X58034993Y-50373796D01*
X58034990Y-50373798D01*
X57883798Y-50524990D01*
X57883796Y-50524993D01*
X57758108Y-50697987D01*
X57661029Y-50888515D01*
X57661026Y-50888521D01*
X57594952Y-51091878D01*
X57594951Y-51091883D01*
X57594951Y-51091884D01*
X57561500Y-51303084D01*
X57561500Y-51516916D01*
X57594951Y-51728116D01*
X57594952Y-51728121D01*
X57661026Y-51931478D01*
X57661028Y-51931483D01*
X57758106Y-52122009D01*
X57883794Y-52295004D01*
X57883796Y-52295006D01*
X57883798Y-52295009D01*
X58034990Y-52446201D01*
X58034993Y-52446203D01*
X58034996Y-52446206D01*
X58207991Y-52571894D01*
X58208001Y-52571899D01*
X58209567Y-52572859D01*
X58210042Y-52573384D01*
X58211996Y-52574804D01*
X58211697Y-52575214D01*
X58257200Y-52625505D01*
X58268808Y-52695546D01*
X58240707Y-52760745D01*
X58212157Y-52785485D01*
X58212258Y-52785624D01*
X58210644Y-52786796D01*
X58209574Y-52787724D01*
X58208255Y-52788532D01*
X58035320Y-52914177D01*
X57884177Y-53065320D01*
X57758536Y-53238249D01*
X57661493Y-53428707D01*
X57661490Y-53428713D01*
X57595440Y-53631995D01*
X57585302Y-53696000D01*
X58489297Y-53696000D01*
X58454075Y-53757007D01*
X58420000Y-53884174D01*
X58420000Y-54015826D01*
X58454075Y-54142993D01*
X58489297Y-54204000D01*
X57585302Y-54204000D01*
X57595440Y-54268004D01*
X57661490Y-54471286D01*
X57661493Y-54471292D01*
X57758536Y-54661750D01*
X57884177Y-54834679D01*
X58035320Y-54985822D01*
X58208249Y-55111463D01*
X58398707Y-55208506D01*
X58398713Y-55208509D01*
X58601998Y-55274560D01*
X58666000Y-55284696D01*
X58666000Y-54380702D01*
X58727007Y-54415925D01*
X58854174Y-54450000D01*
X58985826Y-54450000D01*
X59112993Y-54415925D01*
X59174000Y-54380702D01*
X59174000Y-55284696D01*
X59238001Y-55274560D01*
X59441286Y-55208509D01*
X59441292Y-55208506D01*
X59631750Y-55111463D01*
X59804679Y-54985822D01*
X59804682Y-54985819D01*
X59809405Y-54981097D01*
X59871717Y-54947071D01*
X59942532Y-54952136D01*
X59999368Y-54994683D01*
X60024179Y-55061203D01*
X60024500Y-55070192D01*
X60024500Y-96009808D01*
X60004498Y-96077929D01*
X59950842Y-96124422D01*
X59880568Y-96134526D01*
X59815988Y-96105032D01*
X59809405Y-96098903D01*
X59804679Y-96094177D01*
X59631750Y-95968536D01*
X59441292Y-95871493D01*
X59441286Y-95871490D01*
X59238004Y-95805440D01*
X59174000Y-95795302D01*
X59174000Y-96699297D01*
X59112993Y-96664075D01*
X58985826Y-96630000D01*
X58854174Y-96630000D01*
X58727007Y-96664075D01*
X58666000Y-96699297D01*
X58666000Y-95795302D01*
X58601995Y-95805440D01*
X58398713Y-95871490D01*
X58398707Y-95871493D01*
X58208249Y-95968536D01*
X58035320Y-96094177D01*
X57884177Y-96245320D01*
X57758536Y-96418249D01*
X57661493Y-96608707D01*
X57661490Y-96608713D01*
X57595440Y-96811995D01*
X57585302Y-96876000D01*
X58489297Y-96876000D01*
X58454075Y-96937007D01*
X58420000Y-97064174D01*
X58420000Y-97195826D01*
X58454075Y-97322993D01*
X58489297Y-97384000D01*
X57585302Y-97384000D01*
X57595440Y-97448004D01*
X57661490Y-97651286D01*
X57661493Y-97651292D01*
X57758536Y-97841750D01*
X57884177Y-98014679D01*
X58035320Y-98165822D01*
X58208244Y-98291460D01*
X58209560Y-98292266D01*
X58209955Y-98292703D01*
X58212258Y-98294376D01*
X58211906Y-98294859D01*
X58257196Y-98344910D01*
X58268809Y-98414950D01*
X58240712Y-98480150D01*
X58211925Y-98505098D01*
X58211996Y-98505196D01*
X58210862Y-98506019D01*
X58209580Y-98507131D01*
X58207998Y-98508100D01*
X58034993Y-98633796D01*
X58034990Y-98633798D01*
X57883798Y-98784990D01*
X57883796Y-98784993D01*
X57758108Y-98957987D01*
X57661029Y-99148515D01*
X57661026Y-99148521D01*
X57594952Y-99351878D01*
X57594951Y-99351883D01*
X57594951Y-99351884D01*
X57561500Y-99563084D01*
X57561500Y-99776916D01*
X57581772Y-99904907D01*
X57594952Y-99988121D01*
X57661026Y-100191478D01*
X57661028Y-100191483D01*
X57758106Y-100382009D01*
X57883794Y-100555004D01*
X57883796Y-100555006D01*
X57883798Y-100555009D01*
X58034990Y-100706201D01*
X58034993Y-100706203D01*
X58034996Y-100706206D01*
X58207991Y-100831894D01*
X58207996Y-100831896D01*
X58209088Y-100832566D01*
X58209418Y-100832931D01*
X58211996Y-100834804D01*
X58211602Y-100835345D01*
X58256721Y-100885213D01*
X58268328Y-100955255D01*
X58240226Y-101020453D01*
X58211870Y-101045023D01*
X58211996Y-101045196D01*
X58209982Y-101046658D01*
X58209088Y-101047434D01*
X58207987Y-101048108D01*
X58034993Y-101173796D01*
X58034990Y-101173798D01*
X57883798Y-101324990D01*
X57883796Y-101324993D01*
X57758108Y-101497987D01*
X57661029Y-101688515D01*
X57661026Y-101688521D01*
X57594952Y-101891878D01*
X57594951Y-101891883D01*
X57594951Y-101891884D01*
X57561500Y-102103084D01*
X57561500Y-102316916D01*
X57574500Y-102398994D01*
X57594952Y-102528121D01*
X57661026Y-102731478D01*
X57661028Y-102731483D01*
X57758106Y-102922009D01*
X57883794Y-103095004D01*
X57883796Y-103095006D01*
X57883798Y-103095009D01*
X58034990Y-103246201D01*
X58034993Y-103246203D01*
X58034996Y-103246206D01*
X58207991Y-103371894D01*
X58207996Y-103371896D01*
X58209088Y-103372566D01*
X58209418Y-103372931D01*
X58211996Y-103374804D01*
X58211602Y-103375345D01*
X58256721Y-103425213D01*
X58268328Y-103495255D01*
X58240226Y-103560453D01*
X58211870Y-103585023D01*
X58211996Y-103585196D01*
X58209982Y-103586658D01*
X58209088Y-103587434D01*
X58207987Y-103588108D01*
X58034993Y-103713796D01*
X58034990Y-103713798D01*
X57883798Y-103864990D01*
X57883796Y-103864993D01*
X57758108Y-104037987D01*
X57661029Y-104228515D01*
X57661026Y-104228521D01*
X57594952Y-104431878D01*
X57594951Y-104431883D01*
X57594951Y-104431884D01*
X57561500Y-104643084D01*
X57561500Y-104856916D01*
X57594951Y-105068116D01*
X57594952Y-105068121D01*
X57661026Y-105271478D01*
X57661028Y-105271483D01*
X57758106Y-105462009D01*
X57883794Y-105635004D01*
X57883796Y-105635006D01*
X57883798Y-105635009D01*
X58034990Y-105786201D01*
X58034993Y-105786203D01*
X58034996Y-105786206D01*
X58207991Y-105911894D01*
X58207996Y-105911896D01*
X58209088Y-105912566D01*
X58209418Y-105912931D01*
X58211996Y-105914804D01*
X58211602Y-105915345D01*
X58256721Y-105965213D01*
X58268328Y-106035255D01*
X58240226Y-106100453D01*
X58211870Y-106125023D01*
X58211996Y-106125196D01*
X58209982Y-106126658D01*
X58209088Y-106127434D01*
X58207987Y-106128108D01*
X58034993Y-106253796D01*
X58034990Y-106253798D01*
X57883798Y-106404990D01*
X57883796Y-106404993D01*
X57758108Y-106577987D01*
X57661029Y-106768515D01*
X57661026Y-106768521D01*
X57594952Y-106971878D01*
X57594951Y-106971883D01*
X57594951Y-106971884D01*
X57561500Y-107183084D01*
X57561500Y-107396916D01*
X57594951Y-107608116D01*
X57594952Y-107608121D01*
X57661026Y-107811478D01*
X57661028Y-107811483D01*
X57758106Y-108002009D01*
X57883794Y-108175004D01*
X57883796Y-108175006D01*
X57883798Y-108175009D01*
X58034990Y-108326201D01*
X58034993Y-108326203D01*
X58034996Y-108326206D01*
X58207991Y-108451894D01*
X58207996Y-108451896D01*
X58209088Y-108452566D01*
X58209418Y-108452931D01*
X58211996Y-108454804D01*
X58211602Y-108455345D01*
X58256721Y-108505213D01*
X58268328Y-108575255D01*
X58240226Y-108640453D01*
X58211870Y-108665023D01*
X58211996Y-108665196D01*
X58209982Y-108666658D01*
X58209088Y-108667434D01*
X58207987Y-108668108D01*
X58034993Y-108793796D01*
X58034990Y-108793798D01*
X57883798Y-108944990D01*
X57883796Y-108944993D01*
X57758108Y-109117987D01*
X57661029Y-109308515D01*
X57661026Y-109308521D01*
X57594952Y-109511878D01*
X57594951Y-109511883D01*
X57594951Y-109511884D01*
X57561500Y-109723084D01*
X57561500Y-109936916D01*
X57594951Y-110148116D01*
X57594952Y-110148121D01*
X57661026Y-110351478D01*
X57661028Y-110351483D01*
X57758106Y-110542009D01*
X57883794Y-110715004D01*
X57883796Y-110715006D01*
X57883798Y-110715009D01*
X58034990Y-110866201D01*
X58034993Y-110866203D01*
X58034996Y-110866206D01*
X58207991Y-110991894D01*
X58207996Y-110991896D01*
X58209088Y-110992566D01*
X58209418Y-110992931D01*
X58211996Y-110994804D01*
X58211602Y-110995345D01*
X58256721Y-111045213D01*
X58268328Y-111115255D01*
X58240226Y-111180453D01*
X58211870Y-111205023D01*
X58211996Y-111205196D01*
X58209982Y-111206658D01*
X58209088Y-111207434D01*
X58207987Y-111208108D01*
X58034993Y-111333796D01*
X58034990Y-111333798D01*
X57883798Y-111484990D01*
X57883796Y-111484993D01*
X57758108Y-111657987D01*
X57661029Y-111848515D01*
X57661026Y-111848521D01*
X57594952Y-112051878D01*
X57594951Y-112051883D01*
X57594951Y-112051884D01*
X57561500Y-112263084D01*
X57561500Y-112476916D01*
X57574500Y-112558994D01*
X57594952Y-112688121D01*
X57661026Y-112891478D01*
X57661028Y-112891483D01*
X57758106Y-113082009D01*
X57883794Y-113255004D01*
X57883796Y-113255006D01*
X57883798Y-113255009D01*
X58034990Y-113406201D01*
X58034993Y-113406203D01*
X58034996Y-113406206D01*
X58207991Y-113531894D01*
X58207996Y-113531896D01*
X58209088Y-113532566D01*
X58209418Y-113532931D01*
X58211996Y-113534804D01*
X58211602Y-113535345D01*
X58256721Y-113585213D01*
X58268328Y-113655255D01*
X58240226Y-113720453D01*
X58211870Y-113745023D01*
X58211996Y-113745196D01*
X58209982Y-113746658D01*
X58209088Y-113747434D01*
X58207987Y-113748108D01*
X58034993Y-113873796D01*
X58034990Y-113873798D01*
X57883798Y-114024990D01*
X57883796Y-114024993D01*
X57758108Y-114197987D01*
X57661029Y-114388515D01*
X57661026Y-114388521D01*
X57594952Y-114591878D01*
X57594951Y-114591883D01*
X57594951Y-114591884D01*
X57561500Y-114803084D01*
X57561500Y-115016916D01*
X57574500Y-115098994D01*
X57594952Y-115228121D01*
X57661026Y-115431478D01*
X57661028Y-115431483D01*
X57758106Y-115622009D01*
X57883794Y-115795004D01*
X57883796Y-115795006D01*
X57883798Y-115795009D01*
X58034990Y-115946201D01*
X58034993Y-115946203D01*
X58034996Y-115946206D01*
X58207991Y-116071894D01*
X58207996Y-116071896D01*
X58209088Y-116072566D01*
X58209418Y-116072931D01*
X58211996Y-116074804D01*
X58211602Y-116075345D01*
X58256721Y-116125213D01*
X58268328Y-116195255D01*
X58240226Y-116260453D01*
X58211870Y-116285023D01*
X58211996Y-116285196D01*
X58209982Y-116286658D01*
X58209088Y-116287434D01*
X58207987Y-116288108D01*
X58034993Y-116413796D01*
X58034990Y-116413798D01*
X57883798Y-116564990D01*
X57883796Y-116564993D01*
X57758108Y-116737987D01*
X57661029Y-116928515D01*
X57661026Y-116928521D01*
X57594952Y-117131878D01*
X57594951Y-117131883D01*
X57594951Y-117131884D01*
X57561500Y-117343084D01*
X57561500Y-117556916D01*
X57574500Y-117638994D01*
X57594952Y-117768121D01*
X57661026Y-117971478D01*
X57661028Y-117971483D01*
X57758106Y-118162009D01*
X57883794Y-118335004D01*
X57883796Y-118335006D01*
X57883798Y-118335009D01*
X58034990Y-118486201D01*
X58034993Y-118486203D01*
X58034996Y-118486206D01*
X58207991Y-118611894D01*
X58353890Y-118686233D01*
X58405505Y-118734981D01*
X58422571Y-118803896D01*
X58399670Y-118871098D01*
X58344073Y-118915250D01*
X58296687Y-118924500D01*
X2393313Y-118924500D01*
X2325192Y-118904498D01*
X2278699Y-118850842D01*
X2268595Y-118780568D01*
X2298089Y-118715988D01*
X2336108Y-118686234D01*
X2482009Y-118611894D01*
X2655004Y-118486206D01*
X2806206Y-118335004D01*
X2931894Y-118162009D01*
X3028972Y-117971483D01*
X3095049Y-117768116D01*
X3128500Y-117556916D01*
X3128500Y-117343084D01*
X3095049Y-117131884D01*
X3028972Y-116928517D01*
X2931894Y-116737991D01*
X2806206Y-116564996D01*
X2806203Y-116564993D01*
X2806201Y-116564990D01*
X2655009Y-116413798D01*
X2655006Y-116413796D01*
X2655004Y-116413794D01*
X2482009Y-116288106D01*
X2482007Y-116288105D01*
X2480920Y-116287439D01*
X2480591Y-116287075D01*
X2478004Y-116285196D01*
X2478398Y-116284652D01*
X2433283Y-116234796D01*
X2421670Y-116164756D01*
X2449766Y-116099555D01*
X2478130Y-116074978D01*
X2478004Y-116074804D01*
X2480030Y-116073331D01*
X2480920Y-116072561D01*
X2481997Y-116071899D01*
X2482009Y-116071894D01*
X2655004Y-115946206D01*
X2806206Y-115795004D01*
X2931894Y-115622009D01*
X3028972Y-115431483D01*
X3095049Y-115228116D01*
X3128500Y-115016916D01*
X3128500Y-114803084D01*
X3095049Y-114591884D01*
X3028972Y-114388517D01*
X2931894Y-114197991D01*
X2806206Y-114024996D01*
X2806203Y-114024993D01*
X2806201Y-114024990D01*
X2655009Y-113873798D01*
X2655006Y-113873796D01*
X2655004Y-113873794D01*
X2482009Y-113748106D01*
X2482007Y-113748105D01*
X2480920Y-113747439D01*
X2480591Y-113747075D01*
X2478004Y-113745196D01*
X2478398Y-113744652D01*
X2433283Y-113694796D01*
X2421670Y-113624756D01*
X2449766Y-113559555D01*
X2478130Y-113534978D01*
X2478004Y-113534804D01*
X2480030Y-113533331D01*
X2480920Y-113532561D01*
X2481997Y-113531899D01*
X2482009Y-113531894D01*
X2655004Y-113406206D01*
X2806206Y-113255004D01*
X2931894Y-113082009D01*
X3028972Y-112891483D01*
X3095049Y-112688116D01*
X3128500Y-112476916D01*
X3128500Y-112263084D01*
X3095049Y-112051884D01*
X3028972Y-111848517D01*
X2931894Y-111657991D01*
X2806206Y-111484996D01*
X2806203Y-111484993D01*
X2806201Y-111484990D01*
X2655009Y-111333798D01*
X2655006Y-111333796D01*
X2655004Y-111333794D01*
X2482009Y-111208106D01*
X2482007Y-111208105D01*
X2480920Y-111207439D01*
X2480591Y-111207075D01*
X2478004Y-111205196D01*
X2478398Y-111204652D01*
X2433283Y-111154796D01*
X2421670Y-111084756D01*
X2449766Y-111019555D01*
X2478130Y-110994978D01*
X2478004Y-110994804D01*
X2480030Y-110993331D01*
X2480920Y-110992561D01*
X2481997Y-110991899D01*
X2482009Y-110991894D01*
X2655004Y-110866206D01*
X2806206Y-110715004D01*
X2931894Y-110542009D01*
X3028972Y-110351483D01*
X3095049Y-110148116D01*
X3128500Y-109936916D01*
X3128500Y-109723084D01*
X3095049Y-109511884D01*
X3028972Y-109308517D01*
X2931894Y-109117991D01*
X2806206Y-108944996D01*
X2806203Y-108944993D01*
X2806201Y-108944990D01*
X2655009Y-108793798D01*
X2655006Y-108793796D01*
X2655004Y-108793794D01*
X2482009Y-108668106D01*
X2482007Y-108668105D01*
X2480920Y-108667439D01*
X2480591Y-108667075D01*
X2478004Y-108665196D01*
X2478398Y-108664652D01*
X2433283Y-108614796D01*
X2421670Y-108544756D01*
X2449766Y-108479555D01*
X2478130Y-108454978D01*
X2478004Y-108454804D01*
X2480030Y-108453331D01*
X2480920Y-108452561D01*
X2481997Y-108451899D01*
X2482009Y-108451894D01*
X2655004Y-108326206D01*
X2806206Y-108175004D01*
X2931894Y-108002009D01*
X3028972Y-107811483D01*
X3095049Y-107608116D01*
X3128500Y-107396916D01*
X3128500Y-107183084D01*
X3095049Y-106971884D01*
X3028972Y-106768517D01*
X2931894Y-106577991D01*
X2806206Y-106404996D01*
X2806203Y-106404993D01*
X2806201Y-106404990D01*
X2655009Y-106253798D01*
X2655006Y-106253796D01*
X2655004Y-106253794D01*
X2482009Y-106128106D01*
X2482007Y-106128105D01*
X2480920Y-106127439D01*
X2480591Y-106127075D01*
X2478004Y-106125196D01*
X2478398Y-106124652D01*
X2433283Y-106074796D01*
X2421670Y-106004756D01*
X2449766Y-105939555D01*
X2478130Y-105914978D01*
X2478004Y-105914804D01*
X2480030Y-105913331D01*
X2480920Y-105912561D01*
X2481997Y-105911899D01*
X2482009Y-105911894D01*
X2655004Y-105786206D01*
X2667815Y-105773395D01*
X2696201Y-105745010D01*
X2806201Y-105635009D01*
X2806206Y-105635004D01*
X2931894Y-105462009D01*
X3028972Y-105271483D01*
X3095049Y-105068116D01*
X3128500Y-104856916D01*
X3128500Y-104643084D01*
X3095049Y-104431884D01*
X3028972Y-104228517D01*
X2931894Y-104037991D01*
X2806206Y-103864996D01*
X2806203Y-103864993D01*
X2806201Y-103864990D01*
X2655009Y-103713798D01*
X2655006Y-103713796D01*
X2655004Y-103713794D01*
X2482009Y-103588106D01*
X2482007Y-103588105D01*
X2480920Y-103587439D01*
X2480591Y-103587075D01*
X2478004Y-103585196D01*
X2478398Y-103584652D01*
X2433283Y-103534796D01*
X2421670Y-103464756D01*
X2449766Y-103399555D01*
X2478130Y-103374978D01*
X2478004Y-103374804D01*
X2480030Y-103373331D01*
X2480920Y-103372561D01*
X2481997Y-103371899D01*
X2482009Y-103371894D01*
X2655004Y-103246206D01*
X2806206Y-103095004D01*
X2931894Y-102922009D01*
X3028972Y-102731483D01*
X3095049Y-102528116D01*
X3128500Y-102316916D01*
X3128500Y-102103084D01*
X3095049Y-101891884D01*
X3028972Y-101688517D01*
X2931894Y-101497991D01*
X2806206Y-101324996D01*
X2806203Y-101324993D01*
X2806201Y-101324990D01*
X2655009Y-101173798D01*
X2655006Y-101173796D01*
X2655004Y-101173794D01*
X2482009Y-101048106D01*
X2482007Y-101048105D01*
X2480920Y-101047439D01*
X2480591Y-101047075D01*
X2478004Y-101045196D01*
X2478398Y-101044652D01*
X2433283Y-100994796D01*
X2421670Y-100924756D01*
X2449766Y-100859555D01*
X2478130Y-100834978D01*
X2478004Y-100834804D01*
X2480030Y-100833331D01*
X2480920Y-100832561D01*
X2481997Y-100831899D01*
X2482009Y-100831894D01*
X2655004Y-100706206D01*
X2806206Y-100555004D01*
X2931894Y-100382009D01*
X3028972Y-100191483D01*
X3095049Y-99988116D01*
X3128500Y-99776916D01*
X3128500Y-99563084D01*
X3095049Y-99351884D01*
X3028972Y-99148517D01*
X2931894Y-98957991D01*
X2806206Y-98784996D01*
X2806203Y-98784993D01*
X2806201Y-98784990D01*
X2655009Y-98633798D01*
X2655006Y-98633796D01*
X2655004Y-98633794D01*
X2482009Y-98508106D01*
X2291483Y-98411028D01*
X2291480Y-98411027D01*
X2291478Y-98411026D01*
X2088120Y-98344952D01*
X2088123Y-98344952D01*
X2048801Y-98338724D01*
X1876916Y-98311500D01*
X1663084Y-98311500D01*
X1452143Y-98344910D01*
X1451878Y-98344952D01*
X1248521Y-98411026D01*
X1248515Y-98411029D01*
X1057987Y-98508108D01*
X884993Y-98633796D01*
X884990Y-98633798D01*
X790595Y-98728194D01*
X728283Y-98762220D01*
X657468Y-98757155D01*
X600632Y-98714608D01*
X575821Y-98648088D01*
X575500Y-98639099D01*
X575500Y-95620901D01*
X595502Y-95552780D01*
X649158Y-95506287D01*
X719432Y-95496183D01*
X784012Y-95525677D01*
X790595Y-95531806D01*
X884990Y-95626201D01*
X884993Y-95626203D01*
X884996Y-95626206D01*
X1057991Y-95751894D01*
X1248517Y-95848972D01*
X1451878Y-95915047D01*
X1451879Y-95915047D01*
X1451884Y-95915049D01*
X1663084Y-95948500D01*
X1663087Y-95948500D01*
X1876913Y-95948500D01*
X1876916Y-95948500D01*
X2088116Y-95915049D01*
X2291483Y-95848972D01*
X2482009Y-95751894D01*
X2655004Y-95626206D01*
X2806206Y-95475004D01*
X2931894Y-95302009D01*
X3028972Y-95111483D01*
X3095049Y-94908116D01*
X3128500Y-94696916D01*
X3128500Y-94483084D01*
X3095049Y-94271884D01*
X3028972Y-94068517D01*
X2931894Y-93877991D01*
X2806206Y-93704996D01*
X2806203Y-93704993D01*
X2806201Y-93704990D01*
X2655009Y-93553798D01*
X2655006Y-93553796D01*
X2655004Y-93553794D01*
X2482009Y-93428106D01*
X2291483Y-93331028D01*
X2291480Y-93331027D01*
X2291478Y-93331026D01*
X2088120Y-93264952D01*
X2088123Y-93264952D01*
X2048801Y-93258724D01*
X1876916Y-93231500D01*
X1663084Y-93231500D01*
X1451884Y-93264951D01*
X1451878Y-93264952D01*
X1248521Y-93331026D01*
X1248515Y-93331029D01*
X1057987Y-93428108D01*
X884993Y-93553796D01*
X884990Y-93553798D01*
X790595Y-93648194D01*
X728283Y-93682220D01*
X657468Y-93677155D01*
X600632Y-93634608D01*
X575821Y-93568088D01*
X575500Y-93559099D01*
X575500Y-89378824D01*
X941500Y-89378824D01*
X941500Y-89561176D01*
X967718Y-89726711D01*
X970027Y-89741288D01*
X1026374Y-89914706D01*
X1026375Y-89914709D01*
X1026376Y-89914710D01*
X1109162Y-90077186D01*
X1216346Y-90224712D01*
X1216348Y-90224714D01*
X1216350Y-90224717D01*
X1345282Y-90353649D01*
X1345285Y-90353651D01*
X1345288Y-90353654D01*
X1492814Y-90460838D01*
X1655290Y-90543624D01*
X1828717Y-90599974D01*
X2008824Y-90628500D01*
X2008827Y-90628500D01*
X2191173Y-90628500D01*
X2191176Y-90628500D01*
X2371283Y-90599974D01*
X2544710Y-90543624D01*
X2707186Y-90460838D01*
X2854712Y-90353654D01*
X2983654Y-90224712D01*
X3090838Y-90077186D01*
X3173624Y-89914710D01*
X3229974Y-89741283D01*
X3258500Y-89561176D01*
X3258500Y-89378824D01*
X3229974Y-89198717D01*
X3173624Y-89025290D01*
X3090838Y-88862814D01*
X2983654Y-88715288D01*
X2983651Y-88715285D01*
X2983649Y-88715282D01*
X2854717Y-88586350D01*
X2854714Y-88586348D01*
X2854712Y-88586346D01*
X2707186Y-88479162D01*
X2544710Y-88396376D01*
X2544709Y-88396375D01*
X2544706Y-88396374D01*
X2371288Y-88340027D01*
X2371284Y-88340026D01*
X2371283Y-88340026D01*
X2191176Y-88311500D01*
X2008824Y-88311500D01*
X1828717Y-88340026D01*
X1828711Y-88340027D01*
X1655293Y-88396374D01*
X1492810Y-88479164D01*
X1345285Y-88586348D01*
X1345282Y-88586350D01*
X1216350Y-88715282D01*
X1216348Y-88715285D01*
X1109164Y-88862810D01*
X1026374Y-89025293D01*
X970027Y-89198711D01*
X970026Y-89198716D01*
X970026Y-89198717D01*
X941500Y-89378824D01*
X575500Y-89378824D01*
X575500Y-75300901D01*
X595502Y-75232780D01*
X649158Y-75186287D01*
X719432Y-75176183D01*
X784012Y-75205677D01*
X790595Y-75211806D01*
X884990Y-75306201D01*
X884993Y-75306203D01*
X884996Y-75306206D01*
X1057991Y-75431894D01*
X1248517Y-75528972D01*
X1451878Y-75595047D01*
X1451879Y-75595047D01*
X1451884Y-75595049D01*
X1663084Y-75628500D01*
X1663087Y-75628500D01*
X1876913Y-75628500D01*
X1876916Y-75628500D01*
X2088116Y-75595049D01*
X2291483Y-75528972D01*
X2482009Y-75431894D01*
X2655004Y-75306206D01*
X2806206Y-75155004D01*
X2931894Y-74982009D01*
X3028972Y-74791483D01*
X3095049Y-74588116D01*
X3128500Y-74376916D01*
X3128500Y-74163084D01*
X3095049Y-73951884D01*
X3028972Y-73748517D01*
X2931894Y-73557991D01*
X2806206Y-73384996D01*
X2806203Y-73384993D01*
X2806201Y-73384990D01*
X2655009Y-73233798D01*
X2655006Y-73233796D01*
X2655004Y-73233794D01*
X2482009Y-73108106D01*
X2482007Y-73108105D01*
X2480920Y-73107439D01*
X2480591Y-73107075D01*
X2478004Y-73105196D01*
X2478398Y-73104652D01*
X2433283Y-73054796D01*
X2421670Y-72984756D01*
X2449766Y-72919555D01*
X2478130Y-72894978D01*
X2478004Y-72894804D01*
X2480030Y-72893331D01*
X2480920Y-72892561D01*
X2481997Y-72891899D01*
X2482009Y-72891894D01*
X2655004Y-72766206D01*
X2806206Y-72615004D01*
X2931894Y-72442009D01*
X3028972Y-72251483D01*
X3095049Y-72048116D01*
X3128500Y-71836916D01*
X3128500Y-71623084D01*
X3095049Y-71411884D01*
X3028972Y-71208517D01*
X2931894Y-71017991D01*
X2806206Y-70844996D01*
X2806203Y-70844993D01*
X2806201Y-70844990D01*
X2655009Y-70693798D01*
X2655006Y-70693796D01*
X2655004Y-70693794D01*
X2482009Y-70568106D01*
X2482007Y-70568105D01*
X2480920Y-70567439D01*
X2480591Y-70567075D01*
X2478004Y-70565196D01*
X2478398Y-70564652D01*
X2433283Y-70514796D01*
X2421670Y-70444756D01*
X2449766Y-70379555D01*
X2478130Y-70354978D01*
X2478004Y-70354804D01*
X2480030Y-70353331D01*
X2480920Y-70352561D01*
X2481997Y-70351899D01*
X2482009Y-70351894D01*
X2655004Y-70226206D01*
X2806206Y-70075004D01*
X2931894Y-69902009D01*
X3028972Y-69711483D01*
X3095049Y-69508116D01*
X3128500Y-69296916D01*
X3128500Y-69083084D01*
X3095049Y-68871884D01*
X3028972Y-68668517D01*
X2931894Y-68477991D01*
X2806206Y-68304996D01*
X2806203Y-68304993D01*
X2806201Y-68304990D01*
X2655009Y-68153798D01*
X2655006Y-68153796D01*
X2655004Y-68153794D01*
X2482009Y-68028106D01*
X2482007Y-68028105D01*
X2480920Y-68027439D01*
X2480591Y-68027075D01*
X2478004Y-68025196D01*
X2478398Y-68024652D01*
X2433283Y-67974796D01*
X2421670Y-67904756D01*
X2449766Y-67839555D01*
X2478130Y-67814978D01*
X2478004Y-67814804D01*
X2480030Y-67813331D01*
X2480920Y-67812561D01*
X2481997Y-67811899D01*
X2482009Y-67811894D01*
X2655004Y-67686206D01*
X2806206Y-67535004D01*
X2931894Y-67362009D01*
X3028972Y-67171483D01*
X3095049Y-66968116D01*
X3128500Y-66756916D01*
X3128500Y-66543084D01*
X3095049Y-66331884D01*
X3028972Y-66128517D01*
X2931894Y-65937991D01*
X2806206Y-65764996D01*
X2806203Y-65764993D01*
X2806201Y-65764990D01*
X2655009Y-65613798D01*
X2655006Y-65613796D01*
X2655004Y-65613794D01*
X2482009Y-65488106D01*
X2482007Y-65488105D01*
X2480920Y-65487439D01*
X2480591Y-65487075D01*
X2478004Y-65485196D01*
X2478398Y-65484652D01*
X2433283Y-65434796D01*
X2421670Y-65364756D01*
X2449766Y-65299555D01*
X2478130Y-65274978D01*
X2478004Y-65274804D01*
X2480030Y-65273331D01*
X2480920Y-65272561D01*
X2481997Y-65271899D01*
X2482009Y-65271894D01*
X2655004Y-65146206D01*
X2806206Y-64995004D01*
X2931894Y-64822009D01*
X3028972Y-64631483D01*
X3095049Y-64428116D01*
X3128500Y-64216916D01*
X3128500Y-64003084D01*
X3095049Y-63791884D01*
X3028972Y-63588517D01*
X2931894Y-63397991D01*
X2806206Y-63224996D01*
X2806203Y-63224993D01*
X2806201Y-63224990D01*
X2655009Y-63073798D01*
X2655006Y-63073796D01*
X2655004Y-63073794D01*
X2482009Y-62948106D01*
X2482007Y-62948105D01*
X2480920Y-62947439D01*
X2480591Y-62947075D01*
X2478004Y-62945196D01*
X2478398Y-62944652D01*
X2433283Y-62894796D01*
X2421670Y-62824756D01*
X2449766Y-62759555D01*
X2478130Y-62734978D01*
X2478004Y-62734804D01*
X2480030Y-62733331D01*
X2480920Y-62732561D01*
X2481997Y-62731899D01*
X2482009Y-62731894D01*
X2655004Y-62606206D01*
X2806206Y-62455004D01*
X2931894Y-62282009D01*
X3028972Y-62091483D01*
X3095049Y-61888116D01*
X3128500Y-61676916D01*
X3128500Y-61463084D01*
X3095049Y-61251884D01*
X3028972Y-61048517D01*
X2931894Y-60857991D01*
X2806206Y-60684996D01*
X2806203Y-60684993D01*
X2806201Y-60684990D01*
X2655009Y-60533798D01*
X2655006Y-60533796D01*
X2655004Y-60533794D01*
X2524781Y-60439182D01*
X2482012Y-60408108D01*
X2480920Y-60407439D01*
X2480591Y-60407075D01*
X2478004Y-60405196D01*
X2478398Y-60404652D01*
X2433283Y-60354796D01*
X2421670Y-60284756D01*
X2449766Y-60219555D01*
X2478130Y-60194978D01*
X2478004Y-60194804D01*
X2480030Y-60193331D01*
X2480920Y-60192561D01*
X2481997Y-60191899D01*
X2482009Y-60191894D01*
X2655004Y-60066206D01*
X2806206Y-59915004D01*
X2931894Y-59742009D01*
X3028972Y-59551483D01*
X3095049Y-59348116D01*
X3128500Y-59136916D01*
X3128500Y-58923084D01*
X3095049Y-58711884D01*
X3028972Y-58508517D01*
X2931894Y-58317991D01*
X2806206Y-58144996D01*
X2806203Y-58144993D01*
X2806201Y-58144990D01*
X2655009Y-57993798D01*
X2655006Y-57993796D01*
X2655004Y-57993794D01*
X2482009Y-57868106D01*
X2482007Y-57868105D01*
X2480920Y-57867439D01*
X2480591Y-57867075D01*
X2478004Y-57865196D01*
X2478398Y-57864652D01*
X2433283Y-57814796D01*
X2421670Y-57744756D01*
X2449766Y-57679555D01*
X2478130Y-57654978D01*
X2478004Y-57654804D01*
X2480030Y-57653331D01*
X2480920Y-57652561D01*
X2481997Y-57651899D01*
X2482009Y-57651894D01*
X2655004Y-57526206D01*
X2806206Y-57375004D01*
X2931894Y-57202009D01*
X3028972Y-57011483D01*
X3095049Y-56808116D01*
X3128500Y-56596916D01*
X3128500Y-56383084D01*
X3095049Y-56171884D01*
X3028972Y-55968517D01*
X2931894Y-55777991D01*
X2806206Y-55604996D01*
X2806203Y-55604993D01*
X2806201Y-55604990D01*
X2655009Y-55453798D01*
X2655006Y-55453796D01*
X2655004Y-55453794D01*
X2482009Y-55328106D01*
X2291483Y-55231028D01*
X2291480Y-55231027D01*
X2291478Y-55231026D01*
X2088120Y-55164952D01*
X2088123Y-55164952D01*
X2048801Y-55158724D01*
X1876916Y-55131500D01*
X1663084Y-55131500D01*
X1451884Y-55164951D01*
X1451878Y-55164952D01*
X1248521Y-55231026D01*
X1248515Y-55231029D01*
X1057987Y-55328108D01*
X884993Y-55453796D01*
X884990Y-55453798D01*
X790595Y-55548194D01*
X728283Y-55582220D01*
X657468Y-55577155D01*
X600632Y-55534608D01*
X575821Y-55468088D01*
X575500Y-55459099D01*
X575500Y-49900192D01*
X595502Y-49832071D01*
X649158Y-49785578D01*
X719432Y-49775474D01*
X784012Y-49804968D01*
X790595Y-49811097D01*
X885320Y-49905822D01*
X1058249Y-50031463D01*
X1248707Y-50128506D01*
X1248713Y-50128509D01*
X1451998Y-50194560D01*
X1516000Y-50204696D01*
X1516000Y-49300702D01*
X1577007Y-49335925D01*
X1704174Y-49370000D01*
X1835826Y-49370000D01*
X1962993Y-49335925D01*
X2024000Y-49300702D01*
X2024000Y-50204696D01*
X2088001Y-50194560D01*
X2291286Y-50128509D01*
X2291292Y-50128506D01*
X2481750Y-50031463D01*
X2654679Y-49905822D01*
X2805822Y-49754679D01*
X2931463Y-49581750D01*
X3028506Y-49391292D01*
X3028509Y-49391286D01*
X3094559Y-49188004D01*
X3104698Y-49124000D01*
X2200703Y-49124000D01*
X2235925Y-49062993D01*
X2270000Y-48935826D01*
X2270000Y-48804174D01*
X2235925Y-48677007D01*
X2200703Y-48616000D01*
X3104697Y-48616000D01*
X3094559Y-48551995D01*
X3028509Y-48348713D01*
X3028506Y-48348707D01*
X2931463Y-48158249D01*
X2805822Y-47985320D01*
X2654679Y-47834177D01*
X2481748Y-47708534D01*
X2479955Y-47707436D01*
X2479415Y-47706840D01*
X2477742Y-47705624D01*
X2477997Y-47705272D01*
X2432321Y-47654791D01*
X2420710Y-47584750D01*
X2448810Y-47519551D01*
X2477789Y-47494440D01*
X2477742Y-47494376D01*
X2478496Y-47493827D01*
X2479955Y-47492564D01*
X2481748Y-47491465D01*
X2654679Y-47365822D01*
X2805822Y-47214679D01*
X2931463Y-47041750D01*
X3028506Y-46851292D01*
X3028509Y-46851286D01*
X3094559Y-46648004D01*
X3104698Y-46584000D01*
X2200703Y-46584000D01*
X2235925Y-46522993D01*
X2270000Y-46395826D01*
X2270000Y-46264174D01*
X2235925Y-46137007D01*
X2200703Y-46076000D01*
X3104697Y-46076000D01*
X3094559Y-46011995D01*
X3028509Y-45808713D01*
X3028506Y-45808707D01*
X2931463Y-45618249D01*
X2805822Y-45445320D01*
X2654679Y-45294177D01*
X2481749Y-45168535D01*
X2480433Y-45167729D01*
X2480037Y-45167291D01*
X2477742Y-45165624D01*
X2478092Y-45165141D01*
X2432800Y-45115084D01*
X2421190Y-45045043D01*
X2449291Y-44979844D01*
X2478076Y-44954903D01*
X2478004Y-44954804D01*
X2479158Y-44953965D01*
X2480441Y-44952854D01*
X2481992Y-44951902D01*
X2482009Y-44951894D01*
X2655004Y-44826206D01*
X2806206Y-44675004D01*
X2931894Y-44502009D01*
X3028972Y-44311483D01*
X3095049Y-44108116D01*
X3128500Y-43896916D01*
X3128500Y-43683084D01*
X3095049Y-43471884D01*
X3028972Y-43268517D01*
X2931894Y-43077991D01*
X2806206Y-42904996D01*
X2806203Y-42904993D01*
X2806201Y-42904990D01*
X2655009Y-42753798D01*
X2655006Y-42753796D01*
X2655004Y-42753794D01*
X2482009Y-42628106D01*
X2482007Y-42628105D01*
X2480920Y-42627439D01*
X2480591Y-42627075D01*
X2478004Y-42625196D01*
X2478398Y-42624652D01*
X2433283Y-42574796D01*
X2421670Y-42504756D01*
X2449766Y-42439555D01*
X2478130Y-42414978D01*
X2478004Y-42414804D01*
X2480030Y-42413331D01*
X2480920Y-42412561D01*
X2481997Y-42411899D01*
X2482009Y-42411894D01*
X2655004Y-42286206D01*
X2806206Y-42135004D01*
X2931894Y-41962009D01*
X3028972Y-41771483D01*
X3095049Y-41568116D01*
X3128500Y-41356916D01*
X3128500Y-41143084D01*
X3095049Y-40931884D01*
X3028972Y-40728517D01*
X2972987Y-40618640D01*
X3874000Y-40618640D01*
X3874000Y-53281359D01*
X3889325Y-53358401D01*
X3905742Y-53440935D01*
X3968008Y-53591258D01*
X4058404Y-53726545D01*
X4130159Y-53798300D01*
X4177855Y-53845996D01*
X4177866Y-53846006D01*
X4855228Y-54523368D01*
X4855242Y-54523383D01*
X4858403Y-54526544D01*
X4858404Y-54526545D01*
X4973455Y-54641596D01*
X5108742Y-54731992D01*
X5259065Y-54794258D01*
X5418647Y-54826001D01*
X5418648Y-54826001D01*
X5587566Y-54826001D01*
X5587586Y-54826000D01*
X6905670Y-54826000D01*
X6973791Y-54846002D01*
X6994765Y-54862905D01*
X8037095Y-55905235D01*
X8071121Y-55967547D01*
X8074000Y-55994330D01*
X8074000Y-80275764D01*
X8071579Y-80300345D01*
X8038600Y-80466138D01*
X8038600Y-80633861D01*
X8071319Y-80798350D01*
X8135496Y-80953284D01*
X8135498Y-80953288D01*
X8135499Y-80953289D01*
X8228674Y-81092736D01*
X8347264Y-81211326D01*
X8486711Y-81304501D01*
X8486715Y-81304503D01*
X8641649Y-81368680D01*
X8641653Y-81368680D01*
X8641656Y-81368682D01*
X8766416Y-81393497D01*
X8806138Y-81401399D01*
X8806141Y-81401399D01*
X8806144Y-81401400D01*
X8806145Y-81401400D01*
X8973855Y-81401400D01*
X8973856Y-81401400D01*
X9138344Y-81368682D01*
X9138347Y-81368680D01*
X9138350Y-81368680D01*
X9293284Y-81304503D01*
X9293283Y-81304503D01*
X9293289Y-81304501D01*
X9432736Y-81211326D01*
X9551326Y-81092736D01*
X9644501Y-80953289D01*
X9708682Y-80798344D01*
X9741400Y-80633856D01*
X9741400Y-80466144D01*
X9728421Y-80400892D01*
X9726000Y-80376311D01*
X9726000Y-55687587D01*
X9726001Y-55687566D01*
X9726001Y-55518648D01*
X9726000Y-55518644D01*
X9714156Y-55459099D01*
X9694258Y-55359065D01*
X9631992Y-55208742D01*
X9577706Y-55127498D01*
X9541596Y-55073455D01*
X9541591Y-55073450D01*
X9541589Y-55073447D01*
X9423399Y-54955257D01*
X9423368Y-54955228D01*
X7946006Y-53477866D01*
X7945997Y-53477856D01*
X7896848Y-53428707D01*
X7826545Y-53358404D01*
X7691258Y-53268008D01*
X7540935Y-53205742D01*
X7535216Y-53203373D01*
X7535839Y-53201866D01*
X7483077Y-53167286D01*
X7454164Y-53102443D01*
X7464897Y-53032262D01*
X7511869Y-52979026D01*
X7521815Y-52973373D01*
X7562009Y-52952894D01*
X7735004Y-52827206D01*
X7886206Y-52676004D01*
X8011894Y-52503009D01*
X8011899Y-52502997D01*
X8012561Y-52501920D01*
X8012924Y-52501591D01*
X8014804Y-52499004D01*
X8015347Y-52499398D01*
X8065204Y-52454283D01*
X8135244Y-52442670D01*
X8200445Y-52470766D01*
X8225021Y-52499130D01*
X8225196Y-52499004D01*
X8226668Y-52501030D01*
X8227439Y-52501920D01*
X8228105Y-52503007D01*
X8228106Y-52503009D01*
X8353794Y-52676004D01*
X8353796Y-52676006D01*
X8353798Y-52676009D01*
X8504990Y-52827201D01*
X8504993Y-52827203D01*
X8504996Y-52827206D01*
X8677991Y-52952894D01*
X8868517Y-53049972D01*
X9071878Y-53116047D01*
X9071879Y-53116047D01*
X9071884Y-53116049D01*
X9283084Y-53149500D01*
X9283087Y-53149500D01*
X9496913Y-53149500D01*
X9496916Y-53149500D01*
X9708116Y-53116049D01*
X9911483Y-53049972D01*
X10102009Y-52952894D01*
X10275004Y-52827206D01*
X10426206Y-52676004D01*
X10551894Y-52503009D01*
X10648972Y-52312483D01*
X10715049Y-52109116D01*
X10748500Y-51897916D01*
X10748500Y-51684084D01*
X10715049Y-51472884D01*
X10648972Y-51269517D01*
X10551894Y-51078991D01*
X10426206Y-50905996D01*
X10426203Y-50905993D01*
X10426201Y-50905990D01*
X10275009Y-50754798D01*
X10275006Y-50754796D01*
X10275004Y-50754794D01*
X10196816Y-50697987D01*
X10102006Y-50629103D01*
X10100427Y-50628136D01*
X10099952Y-50627611D01*
X10098004Y-50626196D01*
X10098301Y-50625786D01*
X10052797Y-50575488D01*
X10041191Y-50505446D01*
X10069296Y-50440249D01*
X10097843Y-50415517D01*
X10097741Y-50415377D01*
X10099384Y-50414182D01*
X10100451Y-50413259D01*
X10101756Y-50412459D01*
X10154167Y-50374378D01*
X10154167Y-50374376D01*
X9514948Y-49735157D01*
X9582993Y-49716925D01*
X9697007Y-49651099D01*
X9790099Y-49558007D01*
X9855925Y-49443993D01*
X9874157Y-49375948D01*
X10513376Y-50015167D01*
X10513378Y-50015167D01*
X10551463Y-49962750D01*
X10648506Y-49772292D01*
X10648509Y-49772286D01*
X10714559Y-49569003D01*
X10748000Y-49357873D01*
X10748000Y-49144126D01*
X10714559Y-48932996D01*
X10648509Y-48729713D01*
X10648506Y-48729707D01*
X10551464Y-48539251D01*
X10551463Y-48539249D01*
X10513378Y-48486831D01*
X9874157Y-49126051D01*
X9855925Y-49058007D01*
X9790099Y-48943993D01*
X9697007Y-48850901D01*
X9582993Y-48785075D01*
X9514947Y-48766841D01*
X10154168Y-48127621D01*
X10154167Y-48127620D01*
X10101749Y-48089535D01*
X10099950Y-48088433D01*
X10099409Y-48087835D01*
X10097742Y-48086624D01*
X10097996Y-48086273D01*
X10052318Y-48035786D01*
X10040711Y-47965745D01*
X10068814Y-47900547D01*
X10097788Y-47875442D01*
X10097741Y-47875377D01*
X10098498Y-47874826D01*
X10099958Y-47873562D01*
X10101750Y-47872463D01*
X10154167Y-47834378D01*
X10154167Y-47834376D01*
X9514948Y-47195157D01*
X9582993Y-47176925D01*
X9697007Y-47111099D01*
X9790099Y-47018007D01*
X9855925Y-46903993D01*
X9874157Y-46835948D01*
X10513376Y-47475167D01*
X10513378Y-47475167D01*
X10551463Y-47422750D01*
X10648506Y-47232292D01*
X10648509Y-47232286D01*
X10714559Y-47029003D01*
X10748000Y-46817873D01*
X10748000Y-46604126D01*
X10714559Y-46392996D01*
X10648509Y-46189713D01*
X10648506Y-46189707D01*
X10551464Y-45999251D01*
X10551463Y-45999249D01*
X10513378Y-45946831D01*
X9874157Y-46586051D01*
X9855925Y-46518007D01*
X9790099Y-46403993D01*
X9697007Y-46310901D01*
X9582993Y-46245075D01*
X9514947Y-46226841D01*
X10154168Y-45587621D01*
X10154167Y-45587620D01*
X10101749Y-45549535D01*
X10099950Y-45548433D01*
X10099409Y-45547835D01*
X10097742Y-45546624D01*
X10097996Y-45546273D01*
X10052318Y-45495786D01*
X10040711Y-45425745D01*
X10068814Y-45360547D01*
X10097788Y-45335442D01*
X10097741Y-45335377D01*
X10098498Y-45334826D01*
X10099958Y-45333562D01*
X10101750Y-45332463D01*
X10154167Y-45294378D01*
X10154167Y-45294376D01*
X9514948Y-44655157D01*
X9582993Y-44636925D01*
X9697007Y-44571099D01*
X9790099Y-44478007D01*
X9855925Y-44363993D01*
X9874157Y-44295948D01*
X10513376Y-44935167D01*
X10513378Y-44935167D01*
X10551463Y-44882750D01*
X10648506Y-44692292D01*
X10648509Y-44692286D01*
X10714559Y-44489003D01*
X10748000Y-44277873D01*
X10748000Y-44064126D01*
X10714559Y-43852996D01*
X10648509Y-43649713D01*
X10648506Y-43649707D01*
X10551464Y-43459251D01*
X10551463Y-43459249D01*
X10513378Y-43406831D01*
X9874157Y-44046051D01*
X9855925Y-43978007D01*
X9790099Y-43863993D01*
X9697007Y-43770901D01*
X9582993Y-43705075D01*
X9514947Y-43686841D01*
X10154168Y-43047621D01*
X10154167Y-43047620D01*
X10101750Y-43009536D01*
X10100428Y-43008726D01*
X10100030Y-43008286D01*
X10097742Y-43006624D01*
X10098091Y-43006143D01*
X10052797Y-42956078D01*
X10041191Y-42886036D01*
X10069295Y-42820839D01*
X10098075Y-42795903D01*
X10098004Y-42795804D01*
X10099158Y-42794965D01*
X10100441Y-42793854D01*
X10101992Y-42792902D01*
X10102009Y-42792894D01*
X10275004Y-42667206D01*
X10426206Y-42516004D01*
X10551894Y-42343009D01*
X10648972Y-42152483D01*
X10715049Y-41949116D01*
X10748500Y-41737916D01*
X10748500Y-41524084D01*
X10715049Y-41312884D01*
X10648972Y-41109517D01*
X10551894Y-40918991D01*
X10426206Y-40745996D01*
X10426203Y-40745993D01*
X10426201Y-40745990D01*
X10275009Y-40594798D01*
X10275006Y-40594796D01*
X10275004Y-40594794D01*
X10102009Y-40469106D01*
X9911483Y-40372028D01*
X9911480Y-40372027D01*
X9911478Y-40372026D01*
X9708120Y-40305952D01*
X9708123Y-40305952D01*
X9668801Y-40299724D01*
X9496916Y-40272500D01*
X9283084Y-40272500D01*
X9205735Y-40284750D01*
X9173964Y-40280644D01*
X9141994Y-40278358D01*
X9139014Y-40276127D01*
X9135326Y-40275651D01*
X9110817Y-40255019D01*
X9085158Y-40235811D01*
X9083857Y-40232324D01*
X9081012Y-40229929D01*
X9071547Y-40199320D01*
X9060347Y-40169291D01*
X9061137Y-40165655D01*
X9060039Y-40162101D01*
X9068625Y-40131232D01*
X9075438Y-40099917D01*
X9078460Y-40095880D01*
X9079066Y-40093702D01*
X9096927Y-40071211D01*
X9219359Y-39948779D01*
X9219367Y-39948773D01*
X9226542Y-39941597D01*
X9226545Y-39941596D01*
X9341596Y-39826545D01*
X9431992Y-39691258D01*
X9494258Y-39540935D01*
X9526000Y-39381354D01*
X9526000Y-37558646D01*
X9526000Y-35653962D01*
X9528421Y-35629381D01*
X9536583Y-35588350D01*
X9551400Y-35513856D01*
X9551400Y-35346144D01*
X9533699Y-35257155D01*
X9528421Y-35230617D01*
X9526000Y-35206036D01*
X9526000Y-32523962D01*
X9528421Y-32499381D01*
X9534642Y-32468108D01*
X9551400Y-32383856D01*
X9551400Y-32216144D01*
X9528421Y-32100617D01*
X9526000Y-32076036D01*
X9526000Y-31926138D01*
X15148600Y-31926138D01*
X15148600Y-32093861D01*
X15181319Y-32258350D01*
X15245496Y-32413284D01*
X15245498Y-32413288D01*
X15261493Y-32437226D01*
X15317865Y-32521593D01*
X15339080Y-32589345D01*
X15339100Y-32591594D01*
X15339100Y-101752095D01*
X15353295Y-101823455D01*
X15364498Y-101879777D01*
X15414318Y-102000054D01*
X15486645Y-102108299D01*
X15486647Y-102108301D01*
X17706295Y-104327949D01*
X17740321Y-104390261D01*
X17735256Y-104461076D01*
X17692709Y-104517912D01*
X17645362Y-104537954D01*
X17645781Y-104539696D01*
X17640969Y-104540851D01*
X17424242Y-104611269D01*
X17424236Y-104611272D01*
X17221183Y-104714732D01*
X17151541Y-104765330D01*
X17151541Y-104765332D01*
X17848519Y-105462309D01*
X17783919Y-105479619D01*
X17668080Y-105546498D01*
X17573498Y-105641080D01*
X17506619Y-105756919D01*
X17489309Y-105821518D01*
X16792332Y-105124541D01*
X16792330Y-105124541D01*
X16741732Y-105194183D01*
X16638272Y-105397236D01*
X16638269Y-105397242D01*
X16567851Y-105613967D01*
X16532200Y-105839059D01*
X16532200Y-106066940D01*
X16567851Y-106292032D01*
X16638269Y-106508757D01*
X16638272Y-106508763D01*
X16741732Y-106711817D01*
X16792330Y-106781457D01*
X16792331Y-106781457D01*
X17489309Y-106084479D01*
X17506619Y-106149081D01*
X17573498Y-106264920D01*
X17668080Y-106359502D01*
X17783919Y-106426381D01*
X17848519Y-106443690D01*
X17151541Y-107140668D01*
X17152910Y-107158073D01*
X17167487Y-107176976D01*
X17173562Y-107247712D01*
X17140431Y-107310504D01*
X17124134Y-107324626D01*
X17036489Y-107388304D01*
X16875303Y-107549490D01*
X16875301Y-107549493D01*
X16741305Y-107733922D01*
X16637809Y-107937044D01*
X16637806Y-107937050D01*
X16567363Y-108153850D01*
X16567362Y-108153855D01*
X16567362Y-108153856D01*
X16531700Y-108379016D01*
X16531700Y-108606984D01*
X16561289Y-108793798D01*
X16567363Y-108832149D01*
X16637806Y-109048949D01*
X16637808Y-109048954D01*
X16741303Y-109252074D01*
X16875299Y-109436504D01*
X16875301Y-109436506D01*
X16875303Y-109436509D01*
X17036490Y-109597696D01*
X17036493Y-109597698D01*
X17036496Y-109597701D01*
X17220926Y-109731697D01*
X17424046Y-109835192D01*
X17640856Y-109905638D01*
X17866016Y-109941300D01*
X17866019Y-109941300D01*
X18093981Y-109941300D01*
X18093984Y-109941300D01*
X18319144Y-109905638D01*
X18535954Y-109835192D01*
X18739074Y-109731697D01*
X18923504Y-109597701D01*
X19068831Y-109452373D01*
X19131141Y-109418350D01*
X19201957Y-109423414D01*
X19258793Y-109465961D01*
X19270191Y-109484266D01*
X19281303Y-109506074D01*
X19415299Y-109690504D01*
X19415301Y-109690506D01*
X19415303Y-109690509D01*
X19576490Y-109851696D01*
X19576493Y-109851698D01*
X19576496Y-109851701D01*
X19760926Y-109985697D01*
X19964046Y-110089192D01*
X20180856Y-110159638D01*
X20406016Y-110195300D01*
X20406019Y-110195300D01*
X20633981Y-110195300D01*
X20633984Y-110195300D01*
X20859144Y-110159638D01*
X21075954Y-110089192D01*
X21279074Y-109985697D01*
X21463504Y-109851701D01*
X21624701Y-109690504D01*
X21758697Y-109506074D01*
X21769807Y-109484268D01*
X21818553Y-109432653D01*
X21887467Y-109415585D01*
X21954669Y-109438485D01*
X21971169Y-109452375D01*
X22116490Y-109597696D01*
X22116493Y-109597698D01*
X22116496Y-109597701D01*
X22300926Y-109731697D01*
X22504046Y-109835192D01*
X22720856Y-109905638D01*
X22946016Y-109941300D01*
X22946019Y-109941300D01*
X23173981Y-109941300D01*
X23173984Y-109941300D01*
X23399144Y-109905638D01*
X23615954Y-109835192D01*
X23819074Y-109731697D01*
X24003504Y-109597701D01*
X24148831Y-109452373D01*
X24211141Y-109418350D01*
X24281957Y-109423414D01*
X24338793Y-109465961D01*
X24350191Y-109484266D01*
X24361303Y-109506074D01*
X24495299Y-109690504D01*
X24495301Y-109690506D01*
X24495303Y-109690509D01*
X24656490Y-109851696D01*
X24656493Y-109851698D01*
X24656496Y-109851701D01*
X24840926Y-109985697D01*
X25044046Y-110089192D01*
X25260856Y-110159638D01*
X25486016Y-110195300D01*
X25486019Y-110195300D01*
X25713981Y-110195300D01*
X25713984Y-110195300D01*
X25939144Y-110159638D01*
X26155954Y-110089192D01*
X26359074Y-109985697D01*
X26543504Y-109851701D01*
X26704701Y-109690504D01*
X26838697Y-109506074D01*
X26849807Y-109484268D01*
X26898553Y-109432653D01*
X26967467Y-109415585D01*
X27034669Y-109438485D01*
X27051169Y-109452375D01*
X27196490Y-109597696D01*
X27196493Y-109597698D01*
X27196496Y-109597701D01*
X27380926Y-109731697D01*
X27584046Y-109835192D01*
X27800856Y-109905638D01*
X28026016Y-109941300D01*
X28026019Y-109941300D01*
X28253981Y-109941300D01*
X28253984Y-109941300D01*
X28479144Y-109905638D01*
X28695954Y-109835192D01*
X28899074Y-109731697D01*
X29083504Y-109597701D01*
X29244701Y-109436504D01*
X29378697Y-109252074D01*
X29482192Y-109048954D01*
X29552638Y-108832144D01*
X29588300Y-108606984D01*
X29588300Y-108379016D01*
X29552638Y-108153856D01*
X29482192Y-107937046D01*
X29378697Y-107733926D01*
X29244701Y-107549496D01*
X29244698Y-107549493D01*
X29244696Y-107549490D01*
X29083509Y-107388303D01*
X29083506Y-107388301D01*
X29083505Y-107388300D01*
X29083504Y-107388299D01*
X28996291Y-107324935D01*
X28952938Y-107268714D01*
X28946863Y-107197978D01*
X28979994Y-107135186D01*
X28996292Y-107121064D01*
X29083504Y-107057701D01*
X29244701Y-106896504D01*
X29378697Y-106712074D01*
X29482192Y-106508954D01*
X29552638Y-106292144D01*
X29588300Y-106066984D01*
X29588300Y-105839016D01*
X29552638Y-105613856D01*
X29482192Y-105397046D01*
X29378697Y-105193926D01*
X29244701Y-105009496D01*
X29244698Y-105009493D01*
X29244696Y-105009490D01*
X29083509Y-104848303D01*
X29083506Y-104848301D01*
X29083504Y-104848299D01*
X28920869Y-104730138D01*
X28899077Y-104714305D01*
X28899076Y-104714304D01*
X28899074Y-104714303D01*
X28695954Y-104610808D01*
X28695951Y-104610807D01*
X28695949Y-104610806D01*
X28479149Y-104540363D01*
X28479145Y-104540362D01*
X28479144Y-104540362D01*
X28253984Y-104504700D01*
X28026016Y-104504700D01*
X28017788Y-104506003D01*
X27974074Y-104512926D01*
X27903663Y-104503826D01*
X27849349Y-104458103D01*
X27828378Y-104390274D01*
X27847406Y-104321875D01*
X27865261Y-104299391D01*
X28923355Y-103241299D01*
X28995682Y-103133054D01*
X29045502Y-103012777D01*
X29070900Y-102885093D01*
X29070900Y-102754907D01*
X29070900Y-90046138D01*
X37298600Y-90046138D01*
X37298600Y-90213861D01*
X37331319Y-90378350D01*
X37395496Y-90533283D01*
X37395497Y-90533285D01*
X37395499Y-90533289D01*
X37417065Y-90565566D01*
X37438280Y-90633316D01*
X37438300Y-90635566D01*
X37438300Y-92504686D01*
X37438299Y-92504712D01*
X37438299Y-92509904D01*
X37438299Y-92650096D01*
X37465649Y-92787595D01*
X37492474Y-92852356D01*
X37519299Y-92917117D01*
X37597186Y-93033683D01*
X37696317Y-93132814D01*
X37700717Y-93137214D01*
X37700728Y-93137224D01*
X43412771Y-98849266D01*
X43412790Y-98849287D01*
X43417185Y-98853682D01*
X43417186Y-98853683D01*
X43516317Y-98952814D01*
X43632883Y-99030701D01*
X43697644Y-99057525D01*
X43762405Y-99084351D01*
X43899904Y-99111701D01*
X43899905Y-99111701D01*
X44046309Y-99111701D01*
X44046329Y-99111700D01*
X49151134Y-99111700D01*
X49219255Y-99131702D01*
X49265748Y-99185358D01*
X49275852Y-99255632D01*
X49267543Y-99285919D01*
X49211318Y-99421653D01*
X49178600Y-99586138D01*
X49178600Y-99753861D01*
X49211319Y-99918350D01*
X49275496Y-100073284D01*
X49275498Y-100073288D01*
X49275499Y-100073289D01*
X49368674Y-100212736D01*
X49487264Y-100331326D01*
X49487266Y-100331327D01*
X49487269Y-100331330D01*
X49613101Y-100415407D01*
X49658629Y-100469883D01*
X49669100Y-100520172D01*
X49669100Y-104454652D01*
X49649098Y-104522773D01*
X49595442Y-104569266D01*
X49525168Y-104579370D01*
X49504164Y-104574485D01*
X49399149Y-104540363D01*
X49399145Y-104540362D01*
X49399144Y-104540362D01*
X49173984Y-104504700D01*
X48946016Y-104504700D01*
X48725061Y-104539696D01*
X48720850Y-104540363D01*
X48504050Y-104610806D01*
X48504044Y-104610809D01*
X48300922Y-104714305D01*
X48116493Y-104848301D01*
X48116490Y-104848303D01*
X47955303Y-105009490D01*
X47955301Y-105009493D01*
X47821301Y-105193927D01*
X47821300Y-105193928D01*
X47810190Y-105215734D01*
X47761441Y-105267349D01*
X47692526Y-105284413D01*
X47625325Y-105261511D01*
X47608830Y-105247624D01*
X47463509Y-105102303D01*
X47463506Y-105102301D01*
X47463504Y-105102299D01*
X47279074Y-104968303D01*
X47075954Y-104864808D01*
X47075951Y-104864807D01*
X47075949Y-104864806D01*
X46859149Y-104794363D01*
X46859145Y-104794362D01*
X46859144Y-104794362D01*
X46633984Y-104758700D01*
X46406016Y-104758700D01*
X46184089Y-104793850D01*
X46180850Y-104794363D01*
X45964050Y-104864806D01*
X45964044Y-104864809D01*
X45760922Y-104968305D01*
X45576495Y-105102299D01*
X45431169Y-105247625D01*
X45368857Y-105281650D01*
X45298041Y-105276585D01*
X45241206Y-105234038D01*
X45229807Y-105215731D01*
X45218697Y-105193926D01*
X45084701Y-105009496D01*
X45084698Y-105009493D01*
X45084696Y-105009490D01*
X44923509Y-104848303D01*
X44923506Y-104848301D01*
X44923504Y-104848299D01*
X44760869Y-104730138D01*
X44739077Y-104714305D01*
X44739076Y-104714304D01*
X44739074Y-104714303D01*
X44535954Y-104610808D01*
X44535951Y-104610807D01*
X44535949Y-104610806D01*
X44319149Y-104540363D01*
X44319145Y-104540362D01*
X44319144Y-104540362D01*
X44093984Y-104504700D01*
X43866016Y-104504700D01*
X43645061Y-104539696D01*
X43640850Y-104540363D01*
X43424050Y-104610806D01*
X43424044Y-104610809D01*
X43220922Y-104714305D01*
X43036493Y-104848301D01*
X43036490Y-104848303D01*
X42875303Y-105009490D01*
X42875301Y-105009493D01*
X42741305Y-105193922D01*
X42637809Y-105397044D01*
X42637806Y-105397050D01*
X42567363Y-105613850D01*
X42567362Y-105613855D01*
X42567362Y-105613856D01*
X42531700Y-105839016D01*
X42531700Y-106066984D01*
X42567362Y-106292144D01*
X42567363Y-106292149D01*
X42637744Y-106508757D01*
X42637808Y-106508954D01*
X42741303Y-106712074D01*
X42875299Y-106896504D01*
X42875301Y-106896506D01*
X42875303Y-106896509D01*
X43036493Y-107057699D01*
X43123707Y-107121064D01*
X43167061Y-107177287D01*
X43173136Y-107248023D01*
X43140004Y-107310815D01*
X43123707Y-107324936D01*
X43036493Y-107388300D01*
X42875303Y-107549490D01*
X42875301Y-107549493D01*
X42741305Y-107733922D01*
X42637809Y-107937044D01*
X42637806Y-107937050D01*
X42567363Y-108153850D01*
X42567362Y-108153855D01*
X42567362Y-108153856D01*
X42531700Y-108379016D01*
X42531700Y-108606984D01*
X42561289Y-108793798D01*
X42567363Y-108832149D01*
X42637806Y-109048949D01*
X42637808Y-109048954D01*
X42741303Y-109252074D01*
X42875299Y-109436504D01*
X42875301Y-109436506D01*
X42875303Y-109436509D01*
X43036490Y-109597696D01*
X43036493Y-109597698D01*
X43036496Y-109597701D01*
X43220926Y-109731697D01*
X43424046Y-109835192D01*
X43640856Y-109905638D01*
X43866016Y-109941300D01*
X43866019Y-109941300D01*
X44093981Y-109941300D01*
X44093984Y-109941300D01*
X44319144Y-109905638D01*
X44535954Y-109835192D01*
X44739074Y-109731697D01*
X44923504Y-109597701D01*
X45068831Y-109452373D01*
X45131141Y-109418350D01*
X45201957Y-109423414D01*
X45258793Y-109465961D01*
X45270191Y-109484266D01*
X45281303Y-109506074D01*
X45415299Y-109690504D01*
X45415301Y-109690506D01*
X45415303Y-109690509D01*
X45576490Y-109851696D01*
X45576493Y-109851698D01*
X45576496Y-109851701D01*
X45760926Y-109985697D01*
X45964046Y-110089192D01*
X46180856Y-110159638D01*
X46406016Y-110195300D01*
X46406019Y-110195300D01*
X46633981Y-110195300D01*
X46633984Y-110195300D01*
X46859144Y-110159638D01*
X47075954Y-110089192D01*
X47279074Y-109985697D01*
X47463504Y-109851701D01*
X47624701Y-109690504D01*
X47758697Y-109506074D01*
X47769807Y-109484268D01*
X47818553Y-109432653D01*
X47887467Y-109415585D01*
X47954669Y-109438485D01*
X47971169Y-109452375D01*
X48116490Y-109597696D01*
X48116493Y-109597698D01*
X48116496Y-109597701D01*
X48300926Y-109731697D01*
X48504046Y-109835192D01*
X48720856Y-109905638D01*
X48946016Y-109941300D01*
X48946019Y-109941300D01*
X49173981Y-109941300D01*
X49173984Y-109941300D01*
X49399144Y-109905638D01*
X49615954Y-109835192D01*
X49819074Y-109731697D01*
X50003504Y-109597701D01*
X50148831Y-109452373D01*
X50211141Y-109418350D01*
X50281957Y-109423414D01*
X50338793Y-109465961D01*
X50350191Y-109484266D01*
X50361303Y-109506074D01*
X50495299Y-109690504D01*
X50495301Y-109690506D01*
X50495303Y-109690509D01*
X50656490Y-109851696D01*
X50656493Y-109851698D01*
X50656496Y-109851701D01*
X50840926Y-109985697D01*
X51044046Y-110089192D01*
X51260856Y-110159638D01*
X51486016Y-110195300D01*
X51486019Y-110195300D01*
X51713981Y-110195300D01*
X51713984Y-110195300D01*
X51939144Y-110159638D01*
X52155954Y-110089192D01*
X52359074Y-109985697D01*
X52543504Y-109851701D01*
X52704701Y-109690504D01*
X52838697Y-109506074D01*
X52849807Y-109484268D01*
X52898553Y-109432653D01*
X52967467Y-109415585D01*
X53034669Y-109438485D01*
X53051169Y-109452375D01*
X53196490Y-109597696D01*
X53196493Y-109597698D01*
X53196496Y-109597701D01*
X53380926Y-109731697D01*
X53584046Y-109835192D01*
X53800856Y-109905638D01*
X54026016Y-109941300D01*
X54026019Y-109941300D01*
X54253981Y-109941300D01*
X54253984Y-109941300D01*
X54479144Y-109905638D01*
X54695954Y-109835192D01*
X54899074Y-109731697D01*
X55083504Y-109597701D01*
X55244701Y-109436504D01*
X55378697Y-109252074D01*
X55482192Y-109048954D01*
X55552638Y-108832144D01*
X55588300Y-108606984D01*
X55588300Y-108379016D01*
X55552638Y-108153856D01*
X55482192Y-107937046D01*
X55378697Y-107733926D01*
X55244701Y-107549496D01*
X55244698Y-107549493D01*
X55244696Y-107549490D01*
X55083509Y-107388303D01*
X55083506Y-107388301D01*
X55083505Y-107388300D01*
X55083504Y-107388299D01*
X54996291Y-107324935D01*
X54952938Y-107268714D01*
X54946863Y-107197978D01*
X54979994Y-107135186D01*
X54996292Y-107121064D01*
X55083504Y-107057701D01*
X55244701Y-106896504D01*
X55378697Y-106712074D01*
X55482192Y-106508954D01*
X55552638Y-106292144D01*
X55588300Y-106066984D01*
X55588300Y-105839016D01*
X55552638Y-105613856D01*
X55482192Y-105397046D01*
X55378697Y-105193926D01*
X55244701Y-105009496D01*
X55244698Y-105009493D01*
X55244696Y-105009490D01*
X55083509Y-104848303D01*
X55083506Y-104848301D01*
X55083504Y-104848299D01*
X54920869Y-104730138D01*
X54899077Y-104714305D01*
X54899076Y-104714304D01*
X54899074Y-104714303D01*
X54695954Y-104610808D01*
X54695953Y-104610807D01*
X54695952Y-104610807D01*
X54577963Y-104572470D01*
X54519358Y-104532396D01*
X54491721Y-104466999D01*
X54490900Y-104452637D01*
X54490900Y-96214908D01*
X54490899Y-96214904D01*
X54467825Y-96098903D01*
X54465502Y-96087223D01*
X54415682Y-95966946D01*
X54343355Y-95858701D01*
X54251299Y-95766645D01*
X53821299Y-95336645D01*
X53713054Y-95264318D01*
X53592777Y-95214498D01*
X53465095Y-95189100D01*
X53465093Y-95189100D01*
X50685093Y-95189100D01*
X50554907Y-95189100D01*
X50554904Y-95189100D01*
X50427222Y-95214498D01*
X50427217Y-95214500D01*
X50306945Y-95264318D01*
X50198705Y-95336642D01*
X50198698Y-95336647D01*
X49516647Y-96018698D01*
X49516642Y-96018705D01*
X49444318Y-96126945D01*
X49394500Y-96247217D01*
X49394498Y-96247222D01*
X49369100Y-96374904D01*
X49369100Y-96548405D01*
X49349098Y-96616526D01*
X49347865Y-96618407D01*
X49275498Y-96726711D01*
X49275496Y-96726715D01*
X49211319Y-96881649D01*
X49178600Y-97046138D01*
X49178600Y-97213861D01*
X49211318Y-97378346D01*
X49267543Y-97514081D01*
X49275132Y-97584671D01*
X49243353Y-97648158D01*
X49182295Y-97684386D01*
X49151134Y-97688300D01*
X44316985Y-97688300D01*
X44248864Y-97668298D01*
X44227890Y-97651395D01*
X38898605Y-92322109D01*
X38864579Y-92259797D01*
X38861700Y-92233014D01*
X38861700Y-90635566D01*
X38881702Y-90567445D01*
X38882878Y-90565649D01*
X38904501Y-90533289D01*
X38968682Y-90378344D01*
X39001400Y-90213856D01*
X39001400Y-90046144D01*
X38968682Y-89881656D01*
X38968680Y-89881653D01*
X38968680Y-89881649D01*
X38904503Y-89726715D01*
X38904501Y-89726711D01*
X38811326Y-89587264D01*
X38692736Y-89468674D01*
X38558270Y-89378827D01*
X38553288Y-89375498D01*
X38553284Y-89375496D01*
X38398350Y-89311319D01*
X38233861Y-89278600D01*
X38233856Y-89278600D01*
X38066144Y-89278600D01*
X38066138Y-89278600D01*
X37901649Y-89311319D01*
X37746715Y-89375496D01*
X37746711Y-89375498D01*
X37607265Y-89468673D01*
X37607259Y-89468678D01*
X37488678Y-89587259D01*
X37488673Y-89587265D01*
X37395498Y-89726711D01*
X37395496Y-89726715D01*
X37331319Y-89881649D01*
X37298600Y-90046138D01*
X29070900Y-90046138D01*
X29070900Y-52256138D01*
X30328600Y-52256138D01*
X30328600Y-52423861D01*
X30361319Y-52588350D01*
X30425496Y-52743284D01*
X30425498Y-52743288D01*
X30438908Y-52763357D01*
X30518674Y-52882736D01*
X30637264Y-53001326D01*
X30744565Y-53073022D01*
X30776711Y-53094501D01*
X30776715Y-53094503D01*
X30931649Y-53158680D01*
X30931653Y-53158680D01*
X30931656Y-53158682D01*
X31031074Y-53178457D01*
X31096138Y-53191399D01*
X31096141Y-53191399D01*
X31096144Y-53191400D01*
X31096145Y-53191400D01*
X31263855Y-53191400D01*
X31263856Y-53191400D01*
X31428344Y-53158682D01*
X31428347Y-53158680D01*
X31428350Y-53158680D01*
X31583284Y-53094503D01*
X31583283Y-53094503D01*
X31583289Y-53094501D01*
X31722736Y-53001326D01*
X31841326Y-52882736D01*
X31934501Y-52743289D01*
X31956927Y-52689149D01*
X31998680Y-52588350D01*
X31998680Y-52588347D01*
X31998682Y-52588344D01*
X32024093Y-52460587D01*
X32057000Y-52397679D01*
X32058518Y-52396134D01*
X40576848Y-43877805D01*
X40639160Y-43843779D01*
X40665943Y-43840900D01*
X50426164Y-43840900D01*
X50494285Y-43860902D01*
X50540778Y-43914558D01*
X50550882Y-43984832D01*
X50549743Y-43991481D01*
X50542100Y-44029901D01*
X50542100Y-45904067D01*
X50522098Y-45972188D01*
X50473306Y-46016332D01*
X50443925Y-46031302D01*
X50259493Y-46165301D01*
X50259490Y-46165303D01*
X50098300Y-46326493D01*
X50034936Y-46413707D01*
X49978713Y-46457061D01*
X49907977Y-46463136D01*
X49845185Y-46430004D01*
X49831064Y-46413707D01*
X49767699Y-46326493D01*
X49606509Y-46165303D01*
X49606506Y-46165301D01*
X49606504Y-46165299D01*
X49422074Y-46031303D01*
X49218954Y-45927808D01*
X49218951Y-45927807D01*
X49218949Y-45927806D01*
X49002149Y-45857363D01*
X49002145Y-45857362D01*
X49002144Y-45857362D01*
X48776984Y-45821700D01*
X48549016Y-45821700D01*
X48323856Y-45857362D01*
X48323850Y-45857363D01*
X48107050Y-45927806D01*
X48107044Y-45927809D01*
X47903922Y-46031305D01*
X47719493Y-46165301D01*
X47719490Y-46165303D01*
X47558303Y-46326490D01*
X47558301Y-46326493D01*
X47424305Y-46510922D01*
X47320809Y-46714044D01*
X47320806Y-46714050D01*
X47250363Y-46930850D01*
X47250362Y-46930855D01*
X47250362Y-46930856D01*
X47214700Y-47156016D01*
X47214700Y-47383984D01*
X47246827Y-47586823D01*
X47250363Y-47609149D01*
X47320806Y-47825949D01*
X47320808Y-47825954D01*
X47407578Y-47996249D01*
X47424305Y-48029077D01*
X47429805Y-48036647D01*
X47558299Y-48213504D01*
X47558301Y-48213506D01*
X47558303Y-48213509D01*
X47719490Y-48374696D01*
X47719493Y-48374698D01*
X47719496Y-48374701D01*
X47903926Y-48508697D01*
X47925731Y-48519807D01*
X47977347Y-48568555D01*
X47994413Y-48637469D01*
X47971513Y-48704671D01*
X47957625Y-48721169D01*
X47812299Y-48866495D01*
X47678305Y-49050922D01*
X47574809Y-49254044D01*
X47574806Y-49254050D01*
X47504363Y-49470850D01*
X47504362Y-49470855D01*
X47504362Y-49470856D01*
X47468700Y-49696016D01*
X47468700Y-49923984D01*
X47494195Y-50084951D01*
X47504363Y-50149149D01*
X47548535Y-50285095D01*
X47574808Y-50365954D01*
X47678303Y-50569074D01*
X47812299Y-50753504D01*
X47812301Y-50753506D01*
X47812303Y-50753509D01*
X47957624Y-50898830D01*
X47991650Y-50961142D01*
X47986585Y-51031957D01*
X47944038Y-51088793D01*
X47925734Y-51100190D01*
X47903928Y-51111300D01*
X47903927Y-51111301D01*
X47719493Y-51245301D01*
X47719490Y-51245303D01*
X47558303Y-51406490D01*
X47558301Y-51406493D01*
X47424305Y-51590922D01*
X47320809Y-51794044D01*
X47320806Y-51794050D01*
X47250363Y-52010850D01*
X47250362Y-52010855D01*
X47250362Y-52010856D01*
X47214700Y-52236016D01*
X47214700Y-52463984D01*
X47246050Y-52661920D01*
X47250363Y-52689149D01*
X47320744Y-52905757D01*
X47320808Y-52905954D01*
X47424171Y-53108814D01*
X47424305Y-53109077D01*
X47441339Y-53132522D01*
X47558299Y-53293504D01*
X47558300Y-53293505D01*
X47558301Y-53293506D01*
X47558303Y-53293509D01*
X47719490Y-53454696D01*
X47719493Y-53454698D01*
X47719496Y-53454701D01*
X47903926Y-53588697D01*
X47925731Y-53599807D01*
X47977347Y-53648555D01*
X47994413Y-53717469D01*
X47971513Y-53784671D01*
X47957625Y-53801169D01*
X47812299Y-53946495D01*
X47678305Y-54130922D01*
X47574809Y-54334044D01*
X47574806Y-54334050D01*
X47504363Y-54550850D01*
X47504362Y-54550855D01*
X47504362Y-54550856D01*
X47468700Y-54776016D01*
X47468700Y-55003984D01*
X47500050Y-55201920D01*
X47504363Y-55229149D01*
X47574744Y-55445757D01*
X47574808Y-55445954D01*
X47678303Y-55649074D01*
X47812299Y-55833504D01*
X47812301Y-55833506D01*
X47812303Y-55833509D01*
X47957624Y-55978830D01*
X47991650Y-56041142D01*
X47986585Y-56111957D01*
X47944038Y-56168793D01*
X47925734Y-56180190D01*
X47903928Y-56191300D01*
X47903927Y-56191301D01*
X47719493Y-56325301D01*
X47719490Y-56325303D01*
X47558303Y-56486490D01*
X47558301Y-56486493D01*
X47424305Y-56670922D01*
X47320809Y-56874044D01*
X47320806Y-56874050D01*
X47250363Y-57090850D01*
X47250362Y-57090855D01*
X47250362Y-57090856D01*
X47214700Y-57316016D01*
X47214700Y-57543984D01*
X47247167Y-57748972D01*
X47250363Y-57769149D01*
X47320806Y-57985949D01*
X47320808Y-57985954D01*
X47424303Y-58189074D01*
X47558299Y-58373504D01*
X47558301Y-58373506D01*
X47558303Y-58373509D01*
X47719490Y-58534696D01*
X47719493Y-58534698D01*
X47719496Y-58534701D01*
X47903926Y-58668697D01*
X48107046Y-58772192D01*
X48323856Y-58842638D01*
X48549016Y-58878300D01*
X48549019Y-58878300D01*
X48776981Y-58878300D01*
X48776984Y-58878300D01*
X49002144Y-58842638D01*
X49218954Y-58772192D01*
X49422074Y-58668697D01*
X49606504Y-58534701D01*
X49767701Y-58373504D01*
X49831064Y-58286291D01*
X49887286Y-58242938D01*
X49958022Y-58236863D01*
X50020814Y-58269994D01*
X50034935Y-58286291D01*
X50098299Y-58373504D01*
X50098301Y-58373506D01*
X50098303Y-58373509D01*
X50259490Y-58534696D01*
X50259493Y-58534698D01*
X50259496Y-58534701D01*
X50443926Y-58668697D01*
X50647046Y-58772192D01*
X50863856Y-58842638D01*
X51089016Y-58878300D01*
X51089019Y-58878300D01*
X51316981Y-58878300D01*
X51316984Y-58878300D01*
X51542144Y-58842638D01*
X51758954Y-58772192D01*
X51962074Y-58668697D01*
X52146504Y-58534701D01*
X52307701Y-58373504D01*
X52441697Y-58189074D01*
X52545192Y-57985954D01*
X52615638Y-57769144D01*
X52651300Y-57543984D01*
X52651300Y-57316016D01*
X52615638Y-57090856D01*
X52545192Y-56874046D01*
X52441697Y-56670926D01*
X52307701Y-56486496D01*
X52307698Y-56486493D01*
X52307696Y-56486490D01*
X52162375Y-56341169D01*
X52128349Y-56278857D01*
X52133414Y-56208042D01*
X52175961Y-56151206D01*
X52194263Y-56139809D01*
X52216074Y-56128697D01*
X52400504Y-55994701D01*
X52561701Y-55833504D01*
X52695697Y-55649074D01*
X52799192Y-55445954D01*
X52869638Y-55229144D01*
X52905300Y-55003984D01*
X52905300Y-54776016D01*
X52869638Y-54550856D01*
X52799192Y-54334046D01*
X52695697Y-54130926D01*
X52561701Y-53946496D01*
X52561698Y-53946493D01*
X52561696Y-53946490D01*
X52400509Y-53785303D01*
X52400506Y-53785301D01*
X52400504Y-53785299D01*
X52272353Y-53692192D01*
X52216076Y-53651304D01*
X52089135Y-53586624D01*
X52057243Y-53563452D01*
X51334481Y-52840690D01*
X51399081Y-52823381D01*
X51514920Y-52756502D01*
X51609502Y-52661920D01*
X51676381Y-52546081D01*
X51693690Y-52481481D01*
X52390667Y-53178458D01*
X52390668Y-53178457D01*
X52441267Y-53108816D01*
X52441268Y-53108814D01*
X52544727Y-52905763D01*
X52544730Y-52905757D01*
X52615148Y-52689032D01*
X52650800Y-52463940D01*
X52650800Y-52236059D01*
X52615148Y-52010967D01*
X52544730Y-51794242D01*
X52544727Y-51794236D01*
X52441268Y-51591185D01*
X52441267Y-51591183D01*
X52390668Y-51521541D01*
X51693690Y-52218518D01*
X51676381Y-52153919D01*
X51609502Y-52038080D01*
X51514920Y-51943498D01*
X51399081Y-51876619D01*
X51334480Y-51859309D01*
X52057241Y-51136547D01*
X52089131Y-51113377D01*
X52216074Y-51048697D01*
X52400504Y-50914701D01*
X52561701Y-50753504D01*
X52695697Y-50569074D01*
X52799192Y-50365954D01*
X52869638Y-50149144D01*
X52905300Y-49923984D01*
X52905300Y-49696016D01*
X52869638Y-49470856D01*
X52799192Y-49254046D01*
X52695697Y-49050926D01*
X52561701Y-48866496D01*
X52561698Y-48866493D01*
X52561696Y-48866490D01*
X52561529Y-48866323D01*
X52561485Y-48866243D01*
X52558484Y-48862729D01*
X52559222Y-48862098D01*
X52527503Y-48804011D01*
X52532568Y-48733196D01*
X52561527Y-48688135D01*
X53700923Y-47548738D01*
X53700928Y-47548735D01*
X53711297Y-47538365D01*
X53711299Y-47538365D01*
X53803355Y-47446309D01*
X53875682Y-47338064D01*
X53925502Y-47217787D01*
X53950900Y-47090103D01*
X53950900Y-40314907D01*
X53950900Y-31303806D01*
X53963596Y-31253123D01*
X53962133Y-31252517D01*
X54028680Y-31091860D01*
X54028680Y-31091857D01*
X54028682Y-31091854D01*
X54061400Y-30927366D01*
X54061400Y-30759654D01*
X54028682Y-30595166D01*
X54028680Y-30595163D01*
X54028680Y-30595159D01*
X53964503Y-30440225D01*
X53964501Y-30440221D01*
X53922920Y-30377991D01*
X53871326Y-30300774D01*
X53752736Y-30182184D01*
X53620485Y-30093817D01*
X53613288Y-30089008D01*
X53613284Y-30089006D01*
X53458350Y-30024829D01*
X53293861Y-29992110D01*
X53293856Y-29992110D01*
X53126144Y-29992110D01*
X53126138Y-29992110D01*
X52961649Y-30024829D01*
X52806715Y-30089006D01*
X52806711Y-30089008D01*
X52667265Y-30182183D01*
X52667259Y-30182188D01*
X52548678Y-30300769D01*
X52548673Y-30300775D01*
X52455499Y-30440221D01*
X52391318Y-30595166D01*
X52386939Y-30617182D01*
X52354031Y-30680091D01*
X52292336Y-30715223D01*
X52263360Y-30718600D01*
X52151138Y-30718600D01*
X51986649Y-30751319D01*
X51831715Y-30815496D01*
X51831711Y-30815498D01*
X51692265Y-30908673D01*
X51692259Y-30908678D01*
X51573678Y-31027259D01*
X51573673Y-31027265D01*
X51480499Y-31166710D01*
X51449803Y-31240818D01*
X51405255Y-31296099D01*
X51337891Y-31318520D01*
X51333394Y-31318600D01*
X51311138Y-31318600D01*
X51146649Y-31351319D01*
X50991715Y-31415496D01*
X50991711Y-31415498D01*
X50852265Y-31508673D01*
X50852259Y-31508678D01*
X50733678Y-31627259D01*
X50733673Y-31627265D01*
X50640498Y-31766711D01*
X50640496Y-31766715D01*
X50576319Y-31921649D01*
X50543600Y-32086138D01*
X50543600Y-32253861D01*
X50576319Y-32418350D01*
X50640496Y-32573284D01*
X50640498Y-32573288D01*
X50663751Y-32608088D01*
X50733674Y-32712736D01*
X50733678Y-32712740D01*
X50747195Y-32726257D01*
X50781221Y-32788569D01*
X50784100Y-32815352D01*
X50784100Y-42204056D01*
X50764098Y-42272177D01*
X50747195Y-42293151D01*
X50558151Y-42482195D01*
X50495839Y-42516221D01*
X50469056Y-42519100D01*
X40274904Y-42519100D01*
X40234929Y-42527052D01*
X40214941Y-42531028D01*
X40147222Y-42544498D01*
X40147217Y-42544500D01*
X40026945Y-42594318D01*
X39918705Y-42666642D01*
X39918698Y-42666647D01*
X39826643Y-42758703D01*
X31123923Y-51461422D01*
X31061611Y-51495448D01*
X31059410Y-51495906D01*
X30986415Y-51510426D01*
X30931656Y-51521318D01*
X30931654Y-51521318D01*
X30931648Y-51521320D01*
X30776715Y-51585496D01*
X30776711Y-51585498D01*
X30637265Y-51678673D01*
X30637259Y-51678678D01*
X30518678Y-51797259D01*
X30518673Y-51797265D01*
X30425498Y-51936711D01*
X30425496Y-51936715D01*
X30361319Y-52091649D01*
X30328600Y-52256138D01*
X29070900Y-52256138D01*
X29070900Y-38125944D01*
X29090902Y-38057823D01*
X29107805Y-38036849D01*
X31996566Y-35148088D01*
X34886078Y-32258575D01*
X34948388Y-32224551D01*
X34950556Y-32224100D01*
X35078344Y-32198682D01*
X35078347Y-32198680D01*
X35078350Y-32198680D01*
X35233284Y-32134503D01*
X35233283Y-32134503D01*
X35233289Y-32134501D01*
X35372736Y-32041326D01*
X35491326Y-31922736D01*
X35584501Y-31783289D01*
X35603254Y-31738016D01*
X35648680Y-31628350D01*
X35648680Y-31628347D01*
X35648682Y-31628344D01*
X35681400Y-31463856D01*
X35681400Y-31296144D01*
X35648682Y-31131656D01*
X35648680Y-31131653D01*
X35648680Y-31131649D01*
X35584503Y-30976715D01*
X35584501Y-30976711D01*
X35551530Y-30927366D01*
X35491326Y-30837264D01*
X35372736Y-30718674D01*
X35233289Y-30625499D01*
X35233290Y-30625499D01*
X35233288Y-30625498D01*
X35233284Y-30625496D01*
X35078350Y-30561319D01*
X34913861Y-30528600D01*
X34913856Y-30528600D01*
X34746144Y-30528600D01*
X34746138Y-30528600D01*
X34581649Y-30561319D01*
X34426715Y-30625496D01*
X34426711Y-30625498D01*
X34287265Y-30718673D01*
X34287259Y-30718678D01*
X34168678Y-30837259D01*
X34168673Y-30837265D01*
X34075498Y-30976711D01*
X34075496Y-30976715D01*
X34011320Y-31131648D01*
X34011318Y-31131654D01*
X34011318Y-31131656D01*
X34004345Y-31166711D01*
X33985906Y-31259410D01*
X33952998Y-31322319D01*
X33951422Y-31323923D01*
X28448786Y-36826560D01*
X28386474Y-36860586D01*
X28315659Y-36855521D01*
X28258823Y-36812974D01*
X28234012Y-36746454D01*
X28233691Y-36737465D01*
X28233691Y-34163153D01*
X28253693Y-34095032D01*
X28270596Y-34074058D01*
X29242952Y-33101702D01*
X30216078Y-32128575D01*
X30278388Y-32094552D01*
X30280557Y-32094099D01*
X30408344Y-32068682D01*
X30408347Y-32068680D01*
X30408350Y-32068680D01*
X30563284Y-32004503D01*
X30563283Y-32004503D01*
X30563289Y-32004501D01*
X30702736Y-31911326D01*
X30821326Y-31792736D01*
X30914501Y-31653289D01*
X30933793Y-31606715D01*
X30978680Y-31498350D01*
X30978680Y-31498347D01*
X30978682Y-31498344D01*
X31011400Y-31333856D01*
X31011400Y-31166144D01*
X31009899Y-31158600D01*
X30996623Y-31091854D01*
X30978682Y-31001656D01*
X30978680Y-31001653D01*
X30978680Y-31001649D01*
X30914503Y-30846715D01*
X30914501Y-30846711D01*
X30856332Y-30759655D01*
X30821326Y-30707264D01*
X30702736Y-30588674D01*
X30632538Y-30541770D01*
X30563288Y-30495498D01*
X30563284Y-30495496D01*
X30408350Y-30431319D01*
X30243861Y-30398600D01*
X30243856Y-30398600D01*
X30076144Y-30398600D01*
X30076138Y-30398600D01*
X29911649Y-30431319D01*
X29756715Y-30495496D01*
X29756711Y-30495498D01*
X29617265Y-30588673D01*
X29617259Y-30588678D01*
X29498678Y-30707259D01*
X29498673Y-30707265D01*
X29405498Y-30846711D01*
X29405496Y-30846715D01*
X29341320Y-31001648D01*
X29341318Y-31001654D01*
X29341318Y-31001656D01*
X29336224Y-31027265D01*
X29315906Y-31129410D01*
X29282998Y-31192319D01*
X29281422Y-31193923D01*
X27151492Y-33323854D01*
X27059438Y-33415907D01*
X27059433Y-33415914D01*
X26987109Y-33524154D01*
X26937291Y-33644426D01*
X26937289Y-33644431D01*
X26911891Y-33772113D01*
X26911891Y-46079561D01*
X26891889Y-46147682D01*
X26838233Y-46194175D01*
X26767959Y-46204279D01*
X26703379Y-46174785D01*
X26696796Y-46168656D01*
X25476006Y-44947866D01*
X25475997Y-44947856D01*
X25425208Y-44897067D01*
X25356545Y-44828404D01*
X25221258Y-44738008D01*
X25070935Y-44675742D01*
X25025340Y-44666672D01*
X24911359Y-44644000D01*
X24911354Y-44644000D01*
X22381646Y-44644000D01*
X22381640Y-44644000D01*
X22245905Y-44671000D01*
X22222065Y-44675742D01*
X22222063Y-44675742D01*
X22222058Y-44675744D01*
X22134007Y-44712215D01*
X22134007Y-44712216D01*
X22115136Y-44720033D01*
X22071738Y-44738009D01*
X21936456Y-44828403D01*
X21936454Y-44828404D01*
X21854203Y-44910655D01*
X21791891Y-44944680D01*
X21721075Y-44939614D01*
X21664239Y-44897067D01*
X21639429Y-44830547D01*
X21648700Y-44773340D01*
X21651777Y-44765912D01*
X21665502Y-44732777D01*
X21665955Y-44730502D01*
X21690900Y-44605094D01*
X21690900Y-44474907D01*
X21690900Y-28776138D01*
X41558600Y-28776138D01*
X41558600Y-28943861D01*
X41591319Y-29108350D01*
X41655496Y-29263284D01*
X41655498Y-29263288D01*
X41655499Y-29263289D01*
X41727865Y-29371593D01*
X41749080Y-29439345D01*
X41749100Y-29441594D01*
X41749100Y-32854907D01*
X41749100Y-32985093D01*
X41774498Y-33112777D01*
X41824318Y-33233054D01*
X41896645Y-33341299D01*
X44316645Y-35761299D01*
X44408701Y-35853355D01*
X44516946Y-35925682D01*
X44637223Y-35975502D01*
X44764907Y-36000900D01*
X45538406Y-36000900D01*
X45606527Y-36020902D01*
X45608357Y-36022101D01*
X45716711Y-36094501D01*
X45716715Y-36094503D01*
X45871649Y-36158680D01*
X45871653Y-36158680D01*
X45871656Y-36158682D01*
X45996416Y-36183497D01*
X46036138Y-36191399D01*
X46036141Y-36191399D01*
X46036144Y-36191400D01*
X46036145Y-36191400D01*
X46203855Y-36191400D01*
X46203856Y-36191400D01*
X46368344Y-36158682D01*
X46368347Y-36158680D01*
X46368350Y-36158680D01*
X46523284Y-36094503D01*
X46523283Y-36094503D01*
X46523289Y-36094501D01*
X46662736Y-36001326D01*
X46781326Y-35882736D01*
X46874501Y-35743289D01*
X46913756Y-35648521D01*
X46938680Y-35588350D01*
X46938680Y-35588347D01*
X46938682Y-35588344D01*
X46971400Y-35423856D01*
X46971400Y-35256144D01*
X46966322Y-35230617D01*
X46954673Y-35172052D01*
X46938682Y-35091656D01*
X46938680Y-35091653D01*
X46938680Y-35091649D01*
X46874503Y-34936715D01*
X46874501Y-34936711D01*
X46857340Y-34911028D01*
X46781326Y-34797264D01*
X46662736Y-34678674D01*
X46523289Y-34585499D01*
X46523290Y-34585499D01*
X46523288Y-34585498D01*
X46523284Y-34585496D01*
X46368350Y-34521319D01*
X46203861Y-34488600D01*
X46203856Y-34488600D01*
X46036144Y-34488600D01*
X46036138Y-34488600D01*
X45871649Y-34521319D01*
X45716715Y-34585496D01*
X45716711Y-34585498D01*
X45653433Y-34627780D01*
X45608406Y-34657865D01*
X45540655Y-34679080D01*
X45538406Y-34679100D01*
X45155944Y-34679100D01*
X45087823Y-34659098D01*
X45066849Y-34642195D01*
X43107805Y-32683151D01*
X43073779Y-32620839D01*
X43070900Y-32594056D01*
X43070900Y-29441594D01*
X43090902Y-29373473D01*
X43092101Y-29371642D01*
X43164501Y-29263289D01*
X43228682Y-29108344D01*
X43261400Y-28943856D01*
X43261400Y-28776144D01*
X43228682Y-28611656D01*
X43228680Y-28611653D01*
X43228680Y-28611649D01*
X43164503Y-28456715D01*
X43164501Y-28456711D01*
X43155396Y-28443084D01*
X43071326Y-28317264D01*
X42952736Y-28198674D01*
X42813289Y-28105499D01*
X42813290Y-28105499D01*
X42813288Y-28105498D01*
X42813284Y-28105496D01*
X42658350Y-28041319D01*
X42493861Y-28008600D01*
X42493856Y-28008600D01*
X42326144Y-28008600D01*
X42326138Y-28008600D01*
X42161649Y-28041319D01*
X42006715Y-28105496D01*
X42006711Y-28105498D01*
X41867265Y-28198673D01*
X41867259Y-28198678D01*
X41748678Y-28317259D01*
X41748673Y-28317265D01*
X41655498Y-28456711D01*
X41655496Y-28456715D01*
X41591319Y-28611649D01*
X41558600Y-28776138D01*
X21690900Y-28776138D01*
X21690900Y-22711594D01*
X21710902Y-22643473D01*
X21712101Y-22641642D01*
X21784501Y-22533289D01*
X21792702Y-22513488D01*
X21848680Y-22378350D01*
X21848680Y-22378347D01*
X21848682Y-22378344D01*
X21881400Y-22213856D01*
X21881400Y-22046144D01*
X21848682Y-21881656D01*
X21848680Y-21881651D01*
X21848680Y-21881649D01*
X21784503Y-21726715D01*
X21784501Y-21726711D01*
X21727905Y-21642009D01*
X21691326Y-21587264D01*
X21572736Y-21468674D01*
X21433289Y-21375499D01*
X21433290Y-21375499D01*
X21433288Y-21375498D01*
X21433284Y-21375496D01*
X21278350Y-21311319D01*
X21113861Y-21278600D01*
X21113856Y-21278600D01*
X20946144Y-21278600D01*
X20946138Y-21278600D01*
X20781649Y-21311319D01*
X20626715Y-21375496D01*
X20626711Y-21375498D01*
X20487265Y-21468673D01*
X20487259Y-21468678D01*
X20368678Y-21587259D01*
X20368673Y-21587265D01*
X20275498Y-21726711D01*
X20275496Y-21726715D01*
X20211318Y-21881651D01*
X20206189Y-21907437D01*
X20173280Y-21970346D01*
X20111584Y-22005476D01*
X20080046Y-22007593D01*
X20080046Y-22008600D01*
X19906138Y-22008600D01*
X19741649Y-22041319D01*
X19586715Y-22105496D01*
X19586711Y-22105498D01*
X19447265Y-22198673D01*
X19447259Y-22198678D01*
X19328678Y-22317259D01*
X19328673Y-22317265D01*
X19235498Y-22456711D01*
X19235496Y-22456715D01*
X19171319Y-22611649D01*
X19138600Y-22776138D01*
X19138600Y-22943861D01*
X19171319Y-23108350D01*
X19235496Y-23263284D01*
X19235498Y-23263288D01*
X19235499Y-23263289D01*
X19328674Y-23402736D01*
X19447264Y-23521326D01*
X19530455Y-23576912D01*
X19568713Y-23602475D01*
X19614241Y-23656952D01*
X19624711Y-23707240D01*
X19624711Y-43948445D01*
X19604709Y-44016566D01*
X19587806Y-44037540D01*
X18116647Y-45508698D01*
X18116642Y-45508705D01*
X18044318Y-45616945D01*
X17994500Y-45737217D01*
X17994498Y-45737222D01*
X17969100Y-45864904D01*
X17969100Y-48455095D01*
X17986587Y-48543006D01*
X17994498Y-48582777D01*
X18044318Y-48703054D01*
X18116645Y-48811299D01*
X18116647Y-48811301D01*
X18522195Y-49216849D01*
X18556221Y-49279161D01*
X18559100Y-49305944D01*
X18559100Y-50285095D01*
X18584498Y-50412777D01*
X18584500Y-50412782D01*
X18585575Y-50415377D01*
X18634318Y-50533054D01*
X18706645Y-50641299D01*
X18706647Y-50641301D01*
X19445822Y-51380476D01*
X19479848Y-51442788D01*
X19474783Y-51513603D01*
X19458664Y-51543631D01*
X19424304Y-51590923D01*
X19320809Y-51794044D01*
X19320806Y-51794050D01*
X19250363Y-52010850D01*
X19250362Y-52010855D01*
X19250362Y-52010856D01*
X19214700Y-52236016D01*
X19214700Y-52463984D01*
X19240283Y-52625505D01*
X19250362Y-52689145D01*
X19260551Y-52720503D01*
X19262577Y-52791470D01*
X19229812Y-52848532D01*
X16875995Y-55202350D01*
X16813683Y-55236375D01*
X16742868Y-55231311D01*
X16686032Y-55188764D01*
X16661221Y-55122244D01*
X16660900Y-55113255D01*
X16660900Y-32591594D01*
X16680902Y-32523473D01*
X16682101Y-32521642D01*
X16754501Y-32413289D01*
X16785030Y-32339587D01*
X16818680Y-32258350D01*
X16818680Y-32258347D01*
X16818682Y-32258344D01*
X16851400Y-32093856D01*
X16851400Y-31926144D01*
X16818682Y-31761656D01*
X16818680Y-31761653D01*
X16818680Y-31761649D01*
X16754503Y-31606715D01*
X16754501Y-31606711D01*
X16661326Y-31467264D01*
X16542736Y-31348674D01*
X16420732Y-31267154D01*
X16403288Y-31255498D01*
X16403284Y-31255496D01*
X16248350Y-31191319D01*
X16083861Y-31158600D01*
X16083856Y-31158600D01*
X15916144Y-31158600D01*
X15916138Y-31158600D01*
X15751649Y-31191319D01*
X15596715Y-31255496D01*
X15596711Y-31255498D01*
X15457265Y-31348673D01*
X15457259Y-31348678D01*
X15338678Y-31467259D01*
X15338673Y-31467265D01*
X15245498Y-31606711D01*
X15245496Y-31606715D01*
X15181319Y-31761649D01*
X15148600Y-31926138D01*
X9526000Y-31926138D01*
X9526000Y-29393962D01*
X9528421Y-29369381D01*
X9551399Y-29253861D01*
X9551400Y-29253854D01*
X9551400Y-29086145D01*
X9551399Y-29086138D01*
X9528421Y-28970617D01*
X9526000Y-28946036D01*
X9526000Y-26263962D01*
X9528421Y-26239381D01*
X9551399Y-26123861D01*
X9551400Y-26123854D01*
X9551400Y-25956145D01*
X9551399Y-25956138D01*
X9528421Y-25840617D01*
X9526000Y-25816036D01*
X9526000Y-23133962D01*
X9528421Y-23109381D01*
X9551399Y-22993861D01*
X9551400Y-22993854D01*
X9551400Y-22826145D01*
X9551399Y-22826138D01*
X9528421Y-22710617D01*
X9526000Y-22686036D01*
X9526000Y-20003962D01*
X9528421Y-19979381D01*
X9529371Y-19974608D01*
X9551400Y-19863856D01*
X9551400Y-19696144D01*
X9528421Y-19580617D01*
X9526000Y-19556036D01*
X9526000Y-16853962D01*
X9528421Y-16829381D01*
X9551399Y-16713861D01*
X9551400Y-16713854D01*
X9551400Y-16546145D01*
X9551399Y-16546138D01*
X9543497Y-16506416D01*
X9518682Y-16381656D01*
X9518680Y-16381653D01*
X9518680Y-16381649D01*
X9454503Y-16226715D01*
X9454501Y-16226711D01*
X9361326Y-16087264D01*
X9242736Y-15968674D01*
X9103289Y-15875499D01*
X9103290Y-15875499D01*
X9103288Y-15875498D01*
X9103284Y-15875496D01*
X8948350Y-15811319D01*
X8783861Y-15778600D01*
X8783856Y-15778600D01*
X8616144Y-15778600D01*
X8616138Y-15778600D01*
X8451649Y-15811319D01*
X8296715Y-15875496D01*
X8296711Y-15875498D01*
X8157265Y-15968673D01*
X8157259Y-15968678D01*
X8038678Y-16087259D01*
X8038673Y-16087265D01*
X7945498Y-16226711D01*
X7945496Y-16226715D01*
X7881319Y-16381649D01*
X7848600Y-16546138D01*
X7848600Y-16713861D01*
X7871579Y-16829381D01*
X7874000Y-16853962D01*
X7874000Y-19556036D01*
X7871579Y-19580617D01*
X7848600Y-19696138D01*
X7848600Y-19863861D01*
X7856649Y-19904323D01*
X7870629Y-19974608D01*
X7871579Y-19979381D01*
X7874000Y-20003962D01*
X7874000Y-21890542D01*
X7870887Y-21906193D01*
X7870887Y-22068899D01*
X7874000Y-22084549D01*
X7874000Y-22686036D01*
X7871579Y-22710617D01*
X7848600Y-22826138D01*
X7848600Y-22993861D01*
X7871579Y-23109381D01*
X7874000Y-23133962D01*
X7874000Y-25816036D01*
X7871579Y-25840617D01*
X7848600Y-25956138D01*
X7848600Y-26123861D01*
X7871579Y-26239381D01*
X7874000Y-26263962D01*
X7874000Y-28946036D01*
X7871579Y-28970617D01*
X7848600Y-29086138D01*
X7848600Y-29253861D01*
X7871579Y-29369381D01*
X7874000Y-29393962D01*
X7874000Y-32076036D01*
X7871579Y-32100617D01*
X7848600Y-32216138D01*
X7848600Y-32383861D01*
X7871579Y-32499381D01*
X7874000Y-32523962D01*
X7874000Y-35206036D01*
X7871579Y-35230617D01*
X7848600Y-35346138D01*
X7848600Y-35513861D01*
X7871579Y-35629381D01*
X7874000Y-35653962D01*
X7874000Y-38905670D01*
X7865216Y-38935585D01*
X7858588Y-38966055D01*
X7854773Y-38971150D01*
X7853998Y-38973791D01*
X7837095Y-38994765D01*
X7760165Y-39071695D01*
X7697853Y-39105721D01*
X7671070Y-39108600D01*
X7596138Y-39108600D01*
X7480618Y-39131579D01*
X7456037Y-39134000D01*
X6903963Y-39134000D01*
X6879382Y-39131579D01*
X6763861Y-39108600D01*
X6763856Y-39108600D01*
X6596144Y-39108600D01*
X6596138Y-39108600D01*
X6480618Y-39131579D01*
X6456037Y-39134000D01*
X5923963Y-39134000D01*
X5899382Y-39131579D01*
X5783861Y-39108600D01*
X5783856Y-39108600D01*
X5616144Y-39108600D01*
X5616138Y-39108600D01*
X5500618Y-39131579D01*
X5476037Y-39134000D01*
X5358640Y-39134000D01*
X5221862Y-39161207D01*
X5199065Y-39165742D01*
X5199062Y-39165742D01*
X5199059Y-39165744D01*
X5048742Y-39228008D01*
X4913459Y-39318401D01*
X4913452Y-39318406D01*
X4058406Y-40173452D01*
X4058401Y-40173459D01*
X3968008Y-40308742D01*
X3905744Y-40459059D01*
X3905742Y-40459066D01*
X3874000Y-40618640D01*
X2972987Y-40618640D01*
X2931894Y-40537991D01*
X2806206Y-40364996D01*
X2806203Y-40364993D01*
X2806201Y-40364990D01*
X2655009Y-40213798D01*
X2655006Y-40213796D01*
X2655004Y-40213794D01*
X2524781Y-40119182D01*
X2482012Y-40088108D01*
X2482011Y-40088107D01*
X2482009Y-40088106D01*
X2291483Y-39991028D01*
X2291480Y-39991027D01*
X2291478Y-39991026D01*
X2088120Y-39924952D01*
X2088123Y-39924952D01*
X2048801Y-39918724D01*
X1876916Y-39891500D01*
X1663084Y-39891500D01*
X1451884Y-39924951D01*
X1451878Y-39924952D01*
X1248521Y-39991026D01*
X1248515Y-39991029D01*
X1057987Y-40088108D01*
X884993Y-40213796D01*
X884990Y-40213798D01*
X790595Y-40308194D01*
X728283Y-40342220D01*
X657468Y-40337155D01*
X600632Y-40294608D01*
X575821Y-40228088D01*
X575500Y-40219099D01*
X575500Y-37200901D01*
X595502Y-37132780D01*
X649158Y-37086287D01*
X719432Y-37076183D01*
X784012Y-37105677D01*
X790595Y-37111806D01*
X884990Y-37206201D01*
X884993Y-37206203D01*
X884996Y-37206206D01*
X1057991Y-37331894D01*
X1248517Y-37428972D01*
X1451878Y-37495047D01*
X1451879Y-37495047D01*
X1451884Y-37495049D01*
X1663084Y-37528500D01*
X1663087Y-37528500D01*
X1876913Y-37528500D01*
X1876916Y-37528500D01*
X2088116Y-37495049D01*
X2291483Y-37428972D01*
X2482009Y-37331894D01*
X2655004Y-37206206D01*
X2806206Y-37055004D01*
X2931894Y-36882009D01*
X3028972Y-36691483D01*
X3095049Y-36488116D01*
X3128500Y-36276916D01*
X3128500Y-36063084D01*
X3095049Y-35851884D01*
X3028972Y-35648517D01*
X2931894Y-35457991D01*
X2806206Y-35284996D01*
X2806203Y-35284993D01*
X2806201Y-35284990D01*
X2655009Y-35133798D01*
X2655006Y-35133796D01*
X2655004Y-35133794D01*
X2482009Y-35008106D01*
X2482007Y-35008105D01*
X2480920Y-35007439D01*
X2480591Y-35007075D01*
X2478004Y-35005196D01*
X2478398Y-35004652D01*
X2433283Y-34954796D01*
X2421670Y-34884756D01*
X2449766Y-34819555D01*
X2478130Y-34794978D01*
X2478004Y-34794804D01*
X2480030Y-34793331D01*
X2480920Y-34792561D01*
X2481997Y-34791899D01*
X2482009Y-34791894D01*
X2655004Y-34666206D01*
X2806206Y-34515004D01*
X2931894Y-34342009D01*
X3028972Y-34151483D01*
X3095049Y-33948116D01*
X3128500Y-33736916D01*
X3128500Y-33523084D01*
X3095049Y-33311884D01*
X3028972Y-33108517D01*
X2931894Y-32917991D01*
X2806206Y-32744996D01*
X2806203Y-32744993D01*
X2806201Y-32744990D01*
X2655009Y-32593798D01*
X2655006Y-32593796D01*
X2655004Y-32593794D01*
X2482009Y-32468106D01*
X2482007Y-32468105D01*
X2480920Y-32467439D01*
X2480591Y-32467075D01*
X2478004Y-32465196D01*
X2478398Y-32464652D01*
X2433283Y-32414796D01*
X2421670Y-32344756D01*
X2449766Y-32279555D01*
X2478130Y-32254978D01*
X2478004Y-32254804D01*
X2480030Y-32253331D01*
X2480920Y-32252561D01*
X2481997Y-32251899D01*
X2482009Y-32251894D01*
X2655004Y-32126206D01*
X2806206Y-31975004D01*
X2931894Y-31802009D01*
X3028972Y-31611483D01*
X3095049Y-31408116D01*
X3128500Y-31196916D01*
X3128500Y-30983084D01*
X3095049Y-30771884D01*
X3028972Y-30568517D01*
X2931894Y-30377991D01*
X2806206Y-30204996D01*
X2806203Y-30204993D01*
X2806201Y-30204990D01*
X2655009Y-30053798D01*
X2655006Y-30053796D01*
X2655004Y-30053794D01*
X2482009Y-29928106D01*
X2482007Y-29928105D01*
X2480920Y-29927439D01*
X2480591Y-29927075D01*
X2478004Y-29925196D01*
X2478398Y-29924652D01*
X2433283Y-29874796D01*
X2421670Y-29804756D01*
X2449766Y-29739555D01*
X2478130Y-29714978D01*
X2478004Y-29714804D01*
X2480030Y-29713331D01*
X2480920Y-29712561D01*
X2481997Y-29711899D01*
X2482009Y-29711894D01*
X2655004Y-29586206D01*
X2806206Y-29435004D01*
X2931894Y-29262009D01*
X3028972Y-29071483D01*
X3095049Y-28868116D01*
X3128500Y-28656916D01*
X3128500Y-28443084D01*
X3095049Y-28231884D01*
X3028972Y-28028517D01*
X2931894Y-27837991D01*
X2806206Y-27664996D01*
X2806203Y-27664993D01*
X2806201Y-27664990D01*
X2655009Y-27513798D01*
X2655006Y-27513796D01*
X2655004Y-27513794D01*
X2482009Y-27388106D01*
X2482007Y-27388105D01*
X2480920Y-27387439D01*
X2480591Y-27387075D01*
X2478004Y-27385196D01*
X2478398Y-27384652D01*
X2433283Y-27334796D01*
X2421670Y-27264756D01*
X2449766Y-27199555D01*
X2478130Y-27174978D01*
X2478004Y-27174804D01*
X2480030Y-27173331D01*
X2480920Y-27172561D01*
X2481997Y-27171899D01*
X2482009Y-27171894D01*
X2655004Y-27046206D01*
X2806206Y-26895004D01*
X2931894Y-26722009D01*
X3028972Y-26531483D01*
X3095049Y-26328116D01*
X3128500Y-26116916D01*
X3128500Y-25903084D01*
X3095049Y-25691884D01*
X3028972Y-25488517D01*
X2931894Y-25297991D01*
X2806206Y-25124996D01*
X2806203Y-25124993D01*
X2806201Y-25124990D01*
X2655009Y-24973798D01*
X2655006Y-24973796D01*
X2655004Y-24973794D01*
X2482009Y-24848106D01*
X2482007Y-24848105D01*
X2480920Y-24847439D01*
X2480591Y-24847075D01*
X2478004Y-24845196D01*
X2478398Y-24844652D01*
X2433283Y-24794796D01*
X2421670Y-24724756D01*
X2449766Y-24659555D01*
X2478130Y-24634978D01*
X2478004Y-24634804D01*
X2480030Y-24633331D01*
X2480920Y-24632561D01*
X2481997Y-24631899D01*
X2482009Y-24631894D01*
X2655004Y-24506206D01*
X2806206Y-24355004D01*
X2931894Y-24182009D01*
X3028972Y-23991483D01*
X3095049Y-23788116D01*
X3128500Y-23576916D01*
X3128500Y-23363084D01*
X3095049Y-23151884D01*
X3028972Y-22948517D01*
X2931894Y-22757991D01*
X2806206Y-22584996D01*
X2806203Y-22584993D01*
X2806201Y-22584990D01*
X2655009Y-22433798D01*
X2655006Y-22433796D01*
X2655004Y-22433794D01*
X2482009Y-22308106D01*
X2482007Y-22308105D01*
X2480920Y-22307439D01*
X2480591Y-22307075D01*
X2478004Y-22305196D01*
X2478398Y-22304652D01*
X2433283Y-22254796D01*
X2421670Y-22184756D01*
X2449766Y-22119555D01*
X2478130Y-22094978D01*
X2478004Y-22094804D01*
X2480030Y-22093331D01*
X2480920Y-22092561D01*
X2481997Y-22091899D01*
X2482009Y-22091894D01*
X2655004Y-21966206D01*
X2806206Y-21815004D01*
X2931894Y-21642009D01*
X3028972Y-21451483D01*
X3095049Y-21248116D01*
X3128500Y-21036916D01*
X3128500Y-20823084D01*
X3095049Y-20611884D01*
X3028972Y-20408517D01*
X2931894Y-20217991D01*
X2806206Y-20044996D01*
X2806203Y-20044993D01*
X2806201Y-20044990D01*
X2655009Y-19893798D01*
X2655006Y-19893796D01*
X2655004Y-19893794D01*
X2482009Y-19768106D01*
X2482007Y-19768105D01*
X2480920Y-19767439D01*
X2480591Y-19767075D01*
X2478004Y-19765196D01*
X2478398Y-19764652D01*
X2433283Y-19714796D01*
X2421670Y-19644756D01*
X2449766Y-19579555D01*
X2478130Y-19554978D01*
X2478004Y-19554804D01*
X2480030Y-19553331D01*
X2480920Y-19552561D01*
X2481997Y-19551899D01*
X2482009Y-19551894D01*
X2655004Y-19426206D01*
X2806206Y-19275004D01*
X2931894Y-19102009D01*
X3028972Y-18911483D01*
X3095049Y-18708116D01*
X3128500Y-18496916D01*
X3128500Y-18283084D01*
X3095049Y-18071884D01*
X3028972Y-17868517D01*
X2931894Y-17677991D01*
X2806206Y-17504996D01*
X2806203Y-17504993D01*
X2806201Y-17504990D01*
X2655009Y-17353798D01*
X2655006Y-17353796D01*
X2655004Y-17353794D01*
X2482009Y-17228106D01*
X2291483Y-17131028D01*
X2291480Y-17131027D01*
X2291478Y-17131026D01*
X2088120Y-17064952D01*
X2088123Y-17064952D01*
X2048801Y-17058724D01*
X1876916Y-17031500D01*
X1663084Y-17031500D01*
X1451884Y-17064951D01*
X1451878Y-17064952D01*
X1248521Y-17131026D01*
X1248515Y-17131029D01*
X1057987Y-17228108D01*
X884993Y-17353796D01*
X884990Y-17353798D01*
X790595Y-17448194D01*
X728283Y-17482220D01*
X657468Y-17477155D01*
X600632Y-17434608D01*
X575821Y-17368088D01*
X575500Y-17359099D01*
X575500Y-12508824D01*
X941500Y-12508824D01*
X941500Y-12691176D01*
X970026Y-12871283D01*
X970027Y-12871288D01*
X1026374Y-13044706D01*
X1026375Y-13044709D01*
X1026376Y-13044710D01*
X1109162Y-13207186D01*
X1216346Y-13354712D01*
X1216348Y-13354714D01*
X1216350Y-13354717D01*
X1345282Y-13483649D01*
X1345285Y-13483651D01*
X1345288Y-13483654D01*
X1492814Y-13590838D01*
X1655290Y-13673624D01*
X1828717Y-13729974D01*
X2008824Y-13758500D01*
X2008827Y-13758500D01*
X2191173Y-13758500D01*
X2191176Y-13758500D01*
X2371283Y-13729974D01*
X2544710Y-13673624D01*
X2707186Y-13590838D01*
X2854712Y-13483654D01*
X2983654Y-13354712D01*
X3090838Y-13207186D01*
X3173624Y-13044710D01*
X3229974Y-12871283D01*
X3258500Y-12691176D01*
X3258500Y-12508824D01*
X3229974Y-12328717D01*
X3173624Y-12155290D01*
X3090838Y-11992814D01*
X2983654Y-11845288D01*
X2983651Y-11845285D01*
X2983649Y-11845282D01*
X2854717Y-11716350D01*
X2854714Y-11716348D01*
X2854712Y-11716346D01*
X2707186Y-11609162D01*
X2544710Y-11526376D01*
X2544709Y-11526375D01*
X2544706Y-11526374D01*
X2371288Y-11470027D01*
X2371284Y-11470026D01*
X2371283Y-11470026D01*
X2191176Y-11441500D01*
X2008824Y-11441500D01*
X1828717Y-11470026D01*
X1828711Y-11470027D01*
X1655293Y-11526374D01*
X1492810Y-11609164D01*
X1345285Y-11716348D01*
X1345282Y-11716350D01*
X1216350Y-11845282D01*
X1216348Y-11845285D01*
X1109164Y-11992810D01*
X1026374Y-12155293D01*
X970027Y-12328711D01*
X970026Y-12328716D01*
X970026Y-12328717D01*
X941500Y-12508824D01*
X575500Y-12508824D01*
X575500Y-9701500D01*
X595502Y-9633379D01*
X649158Y-9586886D01*
X701500Y-9575500D01*
X3279099Y-9575500D01*
X3347220Y-9595502D01*
G37*
%TD.AperFunction*%
%TA.AperFunction,Conductor*%
G36*
X2024000Y-48439297D02*
G01*
X1962993Y-48404075D01*
X1835826Y-48370000D01*
X1704174Y-48370000D01*
X1577007Y-48404075D01*
X1516000Y-48439297D01*
X1516000Y-46760702D01*
X1577007Y-46795925D01*
X1704174Y-46830000D01*
X1835826Y-46830000D01*
X1962993Y-46795925D01*
X2024000Y-46760702D01*
X2024000Y-48439297D01*
G37*
%TD.AperFunction*%
%TA.AperFunction,Conductor*%
G36*
X31784075Y-10577007D02*
G01*
X31750000Y-10704174D01*
X31750000Y-10835826D01*
X31784075Y-10962993D01*
X31819297Y-11024000D01*
X30140703Y-11024000D01*
X30175925Y-10962993D01*
X30210000Y-10835826D01*
X30210000Y-10704174D01*
X30175925Y-10577007D01*
X30140703Y-10516000D01*
X31819297Y-10516000D01*
X31784075Y-10577007D01*
G37*
%TD.AperFunction*%
%TD*%
M02*
