%TF.GenerationSoftware,KiCad,Pcbnew,(6.0.11)*%
%TF.CreationDate,2026-07-14T19:49:54+02:00*%
%TF.ProjectId,GlacialReverb.panel,476c6163-6961-46c5-9265-766572622e70,rev?*%
%TF.SameCoordinates,Original*%
%TF.FileFunction,Profile,NP*%
%FSLAX46Y46*%
G04 Gerber Fmt 4.6, Leading zero omitted, Abs format (unit mm)*
G04 Created by KiCad (PCBNEW (6.0.11)) date 2026-07-14 19:49:54*
%MOMM*%
%LPD*%
G01*
G04 APERTURE LIST*
%TA.AperFunction,Profile*%
%ADD10C,0.150000*%
%TD*%
G04 APERTURE END LIST*
D10*
X60600000Y0D02*
X60600000Y-128500000D01*
X60600000Y-128500000D02*
X0Y-128500000D01*
X0Y-128500000D02*
X0Y0D01*
X15180000Y-17500000D02*
G75*
G03*
X15180000Y-17500000I-3750000J0D01*
G01*
X0Y0D02*
X60600000Y0D01*
X41350000Y-97500000D02*
G75*
G03*
X41350000Y-97500000I-3250000J0D01*
G01*
X28650000Y-111500000D02*
G75*
G03*
X28650000Y-111500000I-3250000J0D01*
G01*
X41350000Y-111500000D02*
G75*
G03*
X41350000Y-111500000I-3250000J0D01*
G01*
X34230000Y-35500000D02*
G75*
G03*
X34230000Y-35500000I-3750000J0D01*
G01*
X14680000Y-82500000D02*
G75*
G03*
X14680000Y-82500000I-3250000J0D01*
G01*
X15180000Y-35500000D02*
G75*
G03*
X15180000Y-35500000I-3750000J0D01*
G01*
X15180000Y-58500000D02*
G75*
G03*
X15180000Y-58500000I-3750000J0D01*
G01*
X53280000Y-17500000D02*
G75*
G03*
X53280000Y-17500000I-3750000J0D01*
G01*
X32030000Y-85500000D02*
G75*
G03*
X32030000Y-85500000I-1550000J0D01*
G01*
X14680000Y-97500000D02*
G75*
G03*
X14680000Y-97500000I-3250000J0D01*
G01*
X34230000Y-58500000D02*
G75*
G03*
X34230000Y-58500000I-3750000J0D01*
G01*
X54330000Y-58500000D02*
G75*
G03*
X54330000Y-58500000I-4800000J0D01*
G01*
X34230000Y-17500000D02*
G75*
G03*
X34230000Y-17500000I-3750000J0D01*
G01*
X14680000Y-111500000D02*
G75*
G03*
X14680000Y-111500000I-3250000J0D01*
G01*
X49810000Y-85500000D02*
G75*
G03*
X49810000Y-85500000I-1550000J0D01*
G01*
X53060000Y-75500000D02*
G75*
G03*
X53060000Y-75500000I-4800000J0D01*
G01*
X52780000Y-97500000D02*
G75*
G03*
X52780000Y-97500000I-3250000J0D01*
G01*
X51080000Y-49500000D02*
G75*
G03*
X51080000Y-49500000I-1550000J0D01*
G01*
X35280000Y-75500000D02*
G75*
G03*
X35280000Y-75500000I-4800000J0D01*
G01*
X28650000Y-97500000D02*
G75*
G03*
X28650000Y-97500000I-3250000J0D01*
G01*
X52780000Y-111500000D02*
G75*
G03*
X52780000Y-111500000I-3250000J0D01*
G01*
M02*
