%TF.GenerationSoftware,KiCad,Pcbnew,10.0.4*%
%TF.CreationDate,2026-08-22T16:50:02+02:00*%
%TF.ProjectId,KoloredVerb,4b6f6c6f-7265-4645-9665-72622e6b6963,rev?*%
%TF.SameCoordinates,Original*%
%TF.FileFunction,Legend,Bot*%
%TF.FilePolarity,Positive*%
%FSLAX46Y46*%
G04 Gerber Fmt 4.6, Leading zero omitted, Abs format (unit mm)*
G04 Created by KiCad (PCBNEW 10.0.4) date 2026-08-22 16:50:02*
%MOMM*%
%LPD*%
G01*
G04 APERTURE LIST*
%ADD10C,0.150000*%
G04 APERTURE END LIST*
D10*
X2786000Y-40234000D02*
X4564000Y-40234000D01*
X2786000Y-45314000D02*
X4564000Y-45314000D01*
X4564000Y-40234000D02*
X4564000Y-41504000D01*
X4564000Y-43536000D02*
X4564000Y-44806000D01*
X4564000Y-44806000D02*
X2786000Y-44806000D01*
X4564000Y-45314000D02*
X4564000Y-46584000D01*
X4564000Y-48362000D02*
X4564000Y-49886000D01*
X4564000Y-49886000D02*
X2786000Y-49886000D01*
X28694000Y-12294000D02*
X28694000Y-13310000D01*
X28694000Y-13310000D02*
X29456000Y-13310000D01*
X32504000Y-13310000D02*
X33266000Y-13310000D01*
X33266000Y-13310000D02*
X33266000Y-12294000D01*
X54683696Y-64469580D02*
X54721792Y-64517200D01*
X54721792Y-64517200D02*
X54836077Y-64564819D01*
X54836077Y-64564819D02*
X54912268Y-64564819D01*
X54912268Y-64564819D02*
X55026554Y-64517200D01*
X55026554Y-64517200D02*
X55102744Y-64421961D01*
X55102744Y-64421961D02*
X55140839Y-64326723D01*
X55140839Y-64326723D02*
X55178935Y-64136247D01*
X55178935Y-64136247D02*
X55178935Y-63993390D01*
X55178935Y-63993390D02*
X55140839Y-63802914D01*
X55140839Y-63802914D02*
X55102744Y-63707676D01*
X55102744Y-63707676D02*
X55026554Y-63612438D01*
X55026554Y-63612438D02*
X54912268Y-63564819D01*
X54912268Y-63564819D02*
X54836077Y-63564819D01*
X54836077Y-63564819D02*
X54721792Y-63612438D01*
X54721792Y-63612438D02*
X54683696Y-63660057D01*
X53959887Y-64564819D02*
X54340839Y-64564819D01*
X54340839Y-64564819D02*
X54340839Y-63564819D01*
X53693220Y-64564819D02*
X53693220Y-63564819D01*
X53236077Y-64564819D02*
X53578935Y-63993390D01*
X53236077Y-63564819D02*
X53693220Y-64136247D01*
X54683696Y-67009580D02*
X54721792Y-67057200D01*
X54721792Y-67057200D02*
X54836077Y-67104819D01*
X54836077Y-67104819D02*
X54912268Y-67104819D01*
X54912268Y-67104819D02*
X55026554Y-67057200D01*
X55026554Y-67057200D02*
X55102744Y-66961961D01*
X55102744Y-66961961D02*
X55140839Y-66866723D01*
X55140839Y-66866723D02*
X55178935Y-66676247D01*
X55178935Y-66676247D02*
X55178935Y-66533390D01*
X55178935Y-66533390D02*
X55140839Y-66342914D01*
X55140839Y-66342914D02*
X55102744Y-66247676D01*
X55102744Y-66247676D02*
X55026554Y-66152438D01*
X55026554Y-66152438D02*
X54912268Y-66104819D01*
X54912268Y-66104819D02*
X54836077Y-66104819D01*
X54836077Y-66104819D02*
X54721792Y-66152438D01*
X54721792Y-66152438D02*
X54683696Y-66200057D01*
X54340839Y-67104819D02*
X54340839Y-66104819D01*
X54340839Y-66104819D02*
X54074173Y-66819104D01*
X54074173Y-66819104D02*
X53807506Y-66104819D01*
X53807506Y-66104819D02*
X53807506Y-67104819D01*
X53426553Y-67104819D02*
X53426553Y-66104819D01*
X53426553Y-66104819D02*
X53236077Y-66104819D01*
X53236077Y-66104819D02*
X53121791Y-66152438D01*
X53121791Y-66152438D02*
X53045601Y-66247676D01*
X53045601Y-66247676D02*
X53007506Y-66342914D01*
X53007506Y-66342914D02*
X52969410Y-66533390D01*
X52969410Y-66533390D02*
X52969410Y-66676247D01*
X52969410Y-66676247D02*
X53007506Y-66866723D01*
X53007506Y-66866723D02*
X53045601Y-66961961D01*
X53045601Y-66961961D02*
X53121791Y-67057200D01*
X53121791Y-67057200D02*
X53236077Y-67104819D01*
X53236077Y-67104819D02*
X53426553Y-67104819D01*
X55093220Y-59484819D02*
X55093220Y-58484819D01*
X55093220Y-58484819D02*
X54855125Y-58484819D01*
X54855125Y-58484819D02*
X54712268Y-58532438D01*
X54712268Y-58532438D02*
X54617030Y-58627676D01*
X54617030Y-58627676D02*
X54569411Y-58722914D01*
X54569411Y-58722914D02*
X54521792Y-58913390D01*
X54521792Y-58913390D02*
X54521792Y-59056247D01*
X54521792Y-59056247D02*
X54569411Y-59246723D01*
X54569411Y-59246723D02*
X54617030Y-59341961D01*
X54617030Y-59341961D02*
X54712268Y-59437200D01*
X54712268Y-59437200D02*
X54855125Y-59484819D01*
X54855125Y-59484819D02*
X55093220Y-59484819D01*
X53569411Y-59484819D02*
X54140839Y-59484819D01*
X53855125Y-59484819D02*
X53855125Y-58484819D01*
X53855125Y-58484819D02*
X53950363Y-58627676D01*
X53950363Y-58627676D02*
X54045601Y-58722914D01*
X54045601Y-58722914D02*
X54140839Y-58770533D01*
X55093220Y-62024819D02*
X55093220Y-61024819D01*
X55093220Y-61024819D02*
X54855125Y-61024819D01*
X54855125Y-61024819D02*
X54712268Y-61072438D01*
X54712268Y-61072438D02*
X54617030Y-61167676D01*
X54617030Y-61167676D02*
X54569411Y-61262914D01*
X54569411Y-61262914D02*
X54521792Y-61453390D01*
X54521792Y-61453390D02*
X54521792Y-61596247D01*
X54521792Y-61596247D02*
X54569411Y-61786723D01*
X54569411Y-61786723D02*
X54617030Y-61881961D01*
X54617030Y-61881961D02*
X54712268Y-61977200D01*
X54712268Y-61977200D02*
X54855125Y-62024819D01*
X54855125Y-62024819D02*
X55093220Y-62024819D01*
X53902744Y-61024819D02*
X53807506Y-61024819D01*
X53807506Y-61024819D02*
X53712268Y-61072438D01*
X53712268Y-61072438D02*
X53664649Y-61120057D01*
X53664649Y-61120057D02*
X53617030Y-61215295D01*
X53617030Y-61215295D02*
X53569411Y-61405771D01*
X53569411Y-61405771D02*
X53569411Y-61643866D01*
X53569411Y-61643866D02*
X53617030Y-61834342D01*
X53617030Y-61834342D02*
X53664649Y-61929580D01*
X53664649Y-61929580D02*
X53712268Y-61977200D01*
X53712268Y-61977200D02*
X53807506Y-62024819D01*
X53807506Y-62024819D02*
X53902744Y-62024819D01*
X53902744Y-62024819D02*
X53997982Y-61977200D01*
X53997982Y-61977200D02*
X54045601Y-61929580D01*
X54045601Y-61929580D02*
X54093220Y-61834342D01*
X54093220Y-61834342D02*
X54140839Y-61643866D01*
X54140839Y-61643866D02*
X54140839Y-61405771D01*
X54140839Y-61405771D02*
X54093220Y-61215295D01*
X54093220Y-61215295D02*
X54045601Y-61120057D01*
X54045601Y-61120057D02*
X53997982Y-61072438D01*
X53997982Y-61072438D02*
X53902744Y-61024819D01*
X55093220Y-69644819D02*
X55093220Y-68644819D01*
X55093220Y-68644819D02*
X54855125Y-68644819D01*
X54855125Y-68644819D02*
X54712268Y-68692438D01*
X54712268Y-68692438D02*
X54617030Y-68787676D01*
X54617030Y-68787676D02*
X54569411Y-68882914D01*
X54569411Y-68882914D02*
X54521792Y-69073390D01*
X54521792Y-69073390D02*
X54521792Y-69216247D01*
X54521792Y-69216247D02*
X54569411Y-69406723D01*
X54569411Y-69406723D02*
X54617030Y-69501961D01*
X54617030Y-69501961D02*
X54712268Y-69597200D01*
X54712268Y-69597200D02*
X54855125Y-69644819D01*
X54855125Y-69644819D02*
X55093220Y-69644819D01*
X54188458Y-68644819D02*
X53569411Y-68644819D01*
X53569411Y-68644819D02*
X53902744Y-69025771D01*
X53902744Y-69025771D02*
X53759887Y-69025771D01*
X53759887Y-69025771D02*
X53664649Y-69073390D01*
X53664649Y-69073390D02*
X53617030Y-69121009D01*
X53617030Y-69121009D02*
X53569411Y-69216247D01*
X53569411Y-69216247D02*
X53569411Y-69454342D01*
X53569411Y-69454342D02*
X53617030Y-69549580D01*
X53617030Y-69549580D02*
X53664649Y-69597200D01*
X53664649Y-69597200D02*
X53759887Y-69644819D01*
X53759887Y-69644819D02*
X54045601Y-69644819D01*
X54045601Y-69644819D02*
X54140839Y-69597200D01*
X54140839Y-69597200D02*
X54188458Y-69549580D01*
X55093220Y-72184819D02*
X55093220Y-71184819D01*
X55093220Y-71184819D02*
X54855125Y-71184819D01*
X54855125Y-71184819D02*
X54712268Y-71232438D01*
X54712268Y-71232438D02*
X54617030Y-71327676D01*
X54617030Y-71327676D02*
X54569411Y-71422914D01*
X54569411Y-71422914D02*
X54521792Y-71613390D01*
X54521792Y-71613390D02*
X54521792Y-71756247D01*
X54521792Y-71756247D02*
X54569411Y-71946723D01*
X54569411Y-71946723D02*
X54617030Y-72041961D01*
X54617030Y-72041961D02*
X54712268Y-72137200D01*
X54712268Y-72137200D02*
X54855125Y-72184819D01*
X54855125Y-72184819D02*
X55093220Y-72184819D01*
X54140839Y-71280057D02*
X54093220Y-71232438D01*
X54093220Y-71232438D02*
X53997982Y-71184819D01*
X53997982Y-71184819D02*
X53759887Y-71184819D01*
X53759887Y-71184819D02*
X53664649Y-71232438D01*
X53664649Y-71232438D02*
X53617030Y-71280057D01*
X53617030Y-71280057D02*
X53569411Y-71375295D01*
X53569411Y-71375295D02*
X53569411Y-71470533D01*
X53569411Y-71470533D02*
X53617030Y-71613390D01*
X53617030Y-71613390D02*
X54188458Y-72184819D01*
X54188458Y-72184819D02*
X53569411Y-72184819D01*
X57154458Y-50864819D02*
X56535411Y-50864819D01*
X56535411Y-50864819D02*
X56868744Y-51245771D01*
X56868744Y-51245771D02*
X56725887Y-51245771D01*
X56725887Y-51245771D02*
X56630649Y-51293390D01*
X56630649Y-51293390D02*
X56583030Y-51341009D01*
X56583030Y-51341009D02*
X56535411Y-51436247D01*
X56535411Y-51436247D02*
X56535411Y-51674342D01*
X56535411Y-51674342D02*
X56583030Y-51769580D01*
X56583030Y-51769580D02*
X56630649Y-51817200D01*
X56630649Y-51817200D02*
X56725887Y-51864819D01*
X56725887Y-51864819D02*
X57011601Y-51864819D01*
X57011601Y-51864819D02*
X57106839Y-51817200D01*
X57106839Y-51817200D02*
X57154458Y-51769580D01*
X56249696Y-50864819D02*
X55916363Y-51864819D01*
X55916363Y-51864819D02*
X55583030Y-50864819D01*
X55344934Y-50864819D02*
X54725887Y-50864819D01*
X54725887Y-50864819D02*
X55059220Y-51245771D01*
X55059220Y-51245771D02*
X54916363Y-51245771D01*
X54916363Y-51245771D02*
X54821125Y-51293390D01*
X54821125Y-51293390D02*
X54773506Y-51341009D01*
X54773506Y-51341009D02*
X54725887Y-51436247D01*
X54725887Y-51436247D02*
X54725887Y-51674342D01*
X54725887Y-51674342D02*
X54773506Y-51769580D01*
X54773506Y-51769580D02*
X54821125Y-51817200D01*
X54821125Y-51817200D02*
X54916363Y-51864819D01*
X54916363Y-51864819D02*
X55202077Y-51864819D01*
X55202077Y-51864819D02*
X55297315Y-51817200D01*
X55297315Y-51817200D02*
X55344934Y-51769580D01*
X56535411Y-53452438D02*
X56630649Y-53404819D01*
X56630649Y-53404819D02*
X56773506Y-53404819D01*
X56773506Y-53404819D02*
X56916363Y-53452438D01*
X56916363Y-53452438D02*
X57011601Y-53547676D01*
X57011601Y-53547676D02*
X57059220Y-53642914D01*
X57059220Y-53642914D02*
X57106839Y-53833390D01*
X57106839Y-53833390D02*
X57106839Y-53976247D01*
X57106839Y-53976247D02*
X57059220Y-54166723D01*
X57059220Y-54166723D02*
X57011601Y-54261961D01*
X57011601Y-54261961D02*
X56916363Y-54357200D01*
X56916363Y-54357200D02*
X56773506Y-54404819D01*
X56773506Y-54404819D02*
X56678268Y-54404819D01*
X56678268Y-54404819D02*
X56535411Y-54357200D01*
X56535411Y-54357200D02*
X56487792Y-54309580D01*
X56487792Y-54309580D02*
X56487792Y-53976247D01*
X56487792Y-53976247D02*
X56678268Y-53976247D01*
X56059220Y-54404819D02*
X56059220Y-53404819D01*
X56059220Y-53404819D02*
X55487792Y-54404819D01*
X55487792Y-54404819D02*
X55487792Y-53404819D01*
X55011601Y-54404819D02*
X55011601Y-53404819D01*
X55011601Y-53404819D02*
X54773506Y-53404819D01*
X54773506Y-53404819D02*
X54630649Y-53452438D01*
X54630649Y-53452438D02*
X54535411Y-53547676D01*
X54535411Y-53547676D02*
X54487792Y-53642914D01*
X54487792Y-53642914D02*
X54440173Y-53833390D01*
X54440173Y-53833390D02*
X54440173Y-53976247D01*
X54440173Y-53976247D02*
X54487792Y-54166723D01*
X54487792Y-54166723D02*
X54535411Y-54261961D01*
X54535411Y-54261961D02*
X54630649Y-54357200D01*
X54630649Y-54357200D02*
X54773506Y-54404819D01*
X54773506Y-54404819D02*
X55011601Y-54404819D01*
X31741904Y-12812438D02*
X31837142Y-12764819D01*
X31837142Y-12764819D02*
X31979999Y-12764819D01*
X31979999Y-12764819D02*
X32122856Y-12812438D01*
X32122856Y-12812438D02*
X32218094Y-12907676D01*
X32218094Y-12907676D02*
X32265713Y-13002914D01*
X32265713Y-13002914D02*
X32313332Y-13193390D01*
X32313332Y-13193390D02*
X32313332Y-13336247D01*
X32313332Y-13336247D02*
X32265713Y-13526723D01*
X32265713Y-13526723D02*
X32218094Y-13621961D01*
X32218094Y-13621961D02*
X32122856Y-13717200D01*
X32122856Y-13717200D02*
X31979999Y-13764819D01*
X31979999Y-13764819D02*
X31884761Y-13764819D01*
X31884761Y-13764819D02*
X31741904Y-13717200D01*
X31741904Y-13717200D02*
X31694285Y-13669580D01*
X31694285Y-13669580D02*
X31694285Y-13336247D01*
X31694285Y-13336247D02*
X31884761Y-13336247D01*
X31265713Y-13764819D02*
X31265713Y-12764819D01*
X31265713Y-12764819D02*
X30694285Y-13764819D01*
X30694285Y-13764819D02*
X30694285Y-12764819D01*
X30218094Y-13764819D02*
X30218094Y-12764819D01*
X30218094Y-12764819D02*
X29979999Y-12764819D01*
X29979999Y-12764819D02*
X29837142Y-12812438D01*
X29837142Y-12812438D02*
X29741904Y-12907676D01*
X29741904Y-12907676D02*
X29694285Y-13002914D01*
X29694285Y-13002914D02*
X29646666Y-13193390D01*
X29646666Y-13193390D02*
X29646666Y-13336247D01*
X29646666Y-13336247D02*
X29694285Y-13526723D01*
X29694285Y-13526723D02*
X29741904Y-13621961D01*
X29741904Y-13621961D02*
X29837142Y-13717200D01*
X29837142Y-13717200D02*
X29979999Y-13764819D01*
X29979999Y-13764819D02*
X30218094Y-13764819D01*
X5757731Y-41974819D02*
X5138684Y-41974819D01*
X5138684Y-41974819D02*
X5472017Y-42355771D01*
X5472017Y-42355771D02*
X5329160Y-42355771D01*
X5329160Y-42355771D02*
X5233922Y-42403390D01*
X5233922Y-42403390D02*
X5186303Y-42451009D01*
X5186303Y-42451009D02*
X5138684Y-42546247D01*
X5138684Y-42546247D02*
X5138684Y-42784342D01*
X5138684Y-42784342D02*
X5186303Y-42879580D01*
X5186303Y-42879580D02*
X5233922Y-42927200D01*
X5233922Y-42927200D02*
X5329160Y-42974819D01*
X5329160Y-42974819D02*
X5614874Y-42974819D01*
X5614874Y-42974819D02*
X5710112Y-42927200D01*
X5710112Y-42927200D02*
X5757731Y-42879580D01*
X4852969Y-41974819D02*
X4519636Y-42974819D01*
X4519636Y-42974819D02*
X4186303Y-41974819D01*
X3948207Y-41974819D02*
X3329160Y-41974819D01*
X3329160Y-41974819D02*
X3662493Y-42355771D01*
X3662493Y-42355771D02*
X3519636Y-42355771D01*
X3519636Y-42355771D02*
X3424398Y-42403390D01*
X3424398Y-42403390D02*
X3376779Y-42451009D01*
X3376779Y-42451009D02*
X3329160Y-42546247D01*
X3329160Y-42546247D02*
X3329160Y-42784342D01*
X3329160Y-42784342D02*
X3376779Y-42879580D01*
X3376779Y-42879580D02*
X3424398Y-42927200D01*
X3424398Y-42927200D02*
X3519636Y-42974819D01*
X3519636Y-42974819D02*
X3805350Y-42974819D01*
X3805350Y-42974819D02*
X3900588Y-42927200D01*
X3900588Y-42927200D02*
X3948207Y-42879580D01*
X5424398Y-47102438D02*
X5519636Y-47054819D01*
X5519636Y-47054819D02*
X5662493Y-47054819D01*
X5662493Y-47054819D02*
X5805350Y-47102438D01*
X5805350Y-47102438D02*
X5900588Y-47197676D01*
X5900588Y-47197676D02*
X5948207Y-47292914D01*
X5948207Y-47292914D02*
X5995826Y-47483390D01*
X5995826Y-47483390D02*
X5995826Y-47626247D01*
X5995826Y-47626247D02*
X5948207Y-47816723D01*
X5948207Y-47816723D02*
X5900588Y-47911961D01*
X5900588Y-47911961D02*
X5805350Y-48007200D01*
X5805350Y-48007200D02*
X5662493Y-48054819D01*
X5662493Y-48054819D02*
X5567255Y-48054819D01*
X5567255Y-48054819D02*
X5424398Y-48007200D01*
X5424398Y-48007200D02*
X5376779Y-47959580D01*
X5376779Y-47959580D02*
X5376779Y-47626247D01*
X5376779Y-47626247D02*
X5567255Y-47626247D01*
X4948207Y-48054819D02*
X4948207Y-47054819D01*
X4948207Y-47054819D02*
X4376779Y-48054819D01*
X4376779Y-48054819D02*
X4376779Y-47054819D01*
X3900588Y-48054819D02*
X3900588Y-47054819D01*
X3900588Y-47054819D02*
X3662493Y-47054819D01*
X3662493Y-47054819D02*
X3519636Y-47102438D01*
X3519636Y-47102438D02*
X3424398Y-47197676D01*
X3424398Y-47197676D02*
X3376779Y-47292914D01*
X3376779Y-47292914D02*
X3329160Y-47483390D01*
X3329160Y-47483390D02*
X3329160Y-47626247D01*
X3329160Y-47626247D02*
X3376779Y-47816723D01*
X3376779Y-47816723D02*
X3424398Y-47911961D01*
X3424398Y-47911961D02*
X3519636Y-48007200D01*
X3519636Y-48007200D02*
X3662493Y-48054819D01*
X3662493Y-48054819D02*
X3900588Y-48054819D01*
X8188207Y-94914819D02*
X8188207Y-93914819D01*
X8188207Y-93914819D02*
X7616779Y-94914819D01*
X7616779Y-94914819D02*
X7616779Y-93914819D01*
X7140588Y-94914819D02*
X7140588Y-93914819D01*
X7140588Y-93914819D02*
X6759636Y-93914819D01*
X6759636Y-93914819D02*
X6664398Y-93962438D01*
X6664398Y-93962438D02*
X6616779Y-94010057D01*
X6616779Y-94010057D02*
X6569160Y-94105295D01*
X6569160Y-94105295D02*
X6569160Y-94248152D01*
X6569160Y-94248152D02*
X6616779Y-94343390D01*
X6616779Y-94343390D02*
X6664398Y-94391009D01*
X6664398Y-94391009D02*
X6759636Y-94438628D01*
X6759636Y-94438628D02*
X7140588Y-94438628D01*
X5569160Y-94914819D02*
X5902493Y-94438628D01*
X6140588Y-94914819D02*
X6140588Y-93914819D01*
X6140588Y-93914819D02*
X5759636Y-93914819D01*
X5759636Y-93914819D02*
X5664398Y-93962438D01*
X5664398Y-93962438D02*
X5616779Y-94010057D01*
X5616779Y-94010057D02*
X5569160Y-94105295D01*
X5569160Y-94105295D02*
X5569160Y-94248152D01*
X5569160Y-94248152D02*
X5616779Y-94343390D01*
X5616779Y-94343390D02*
X5664398Y-94391009D01*
X5664398Y-94391009D02*
X5759636Y-94438628D01*
X5759636Y-94438628D02*
X6140588Y-94438628D01*
M02*
