%TF.GenerationSoftware,KiCad,Pcbnew,10.0.4*%
%TF.CreationDate,2026-08-22T16:50:02+02:00*%
%TF.ProjectId,KoloredVerb,4b6f6c6f-7265-4645-9665-72622e6b6963,rev?*%
%TF.SameCoordinates,Original*%
%TF.FileFunction,Copper,L2,Bot*%
%TF.FilePolarity,Positive*%
%FSLAX46Y46*%
G04 Gerber Fmt 4.6, Leading zero omitted, Abs format (unit mm)*
G04 Created by KiCad (PCBNEW 10.0.4) date 2026-08-22 16:50:02*
%MOMM*%
%LPD*%
G01*
G04 APERTURE LIST*
%TA.AperFunction,ComponentPad*%
%ADD10O,2.500000X1.800000*%
%TD*%
%TA.AperFunction,ComponentPad*%
%ADD11O,1.700000X1.700000*%
%TD*%
%TA.AperFunction,ComponentPad*%
%ADD12O,2.000000X1.300000*%
%TD*%
%TA.AperFunction,ComponentPad*%
%ADD13O,2.200000X1.200000*%
%TD*%
%TA.AperFunction,ComponentPad*%
%ADD14O,2.200000X1.300000*%
%TD*%
%TA.AperFunction,ComponentPad*%
%ADD15R,1.800000X1.800000*%
%TD*%
%TA.AperFunction,ComponentPad*%
%ADD16C,1.800000*%
%TD*%
%TA.AperFunction,ComponentPad*%
%ADD17C,2.200000*%
%TD*%
%TA.AperFunction,ViaPad*%
%ADD18C,0.800000*%
%TD*%
%TA.AperFunction,ViaPad*%
%ADD19C,0.685800*%
%TD*%
%TA.AperFunction,Conductor*%
%ADD20C,0.152400*%
%TD*%
G04 APERTURE END LIST*
D10*
%TO.P,RV2,*%
%TO.N,*%
X24780000Y-17500000D03*
X36180000Y-17500000D03*
D11*
%TO.P,RV2,1*%
%TO.N,GND*%
X27980000Y-25000000D03*
%TO.P,RV2,2*%
%TO.N,P2*%
X30480000Y-25000000D03*
%TO.P,RV2,3*%
%TO.N,+3V3*%
X32980000Y-25000000D03*
%TD*%
D10*
%TO.P,RV7,*%
%TO.N,*%
X24780000Y-58500000D03*
X36180000Y-58500000D03*
D11*
%TO.P,RV7,1*%
%TO.N,GND*%
X27980000Y-66000000D03*
%TO.P,RV7,2*%
%TO.N,P7*%
X30480000Y-66000000D03*
%TO.P,RV7,3*%
%TO.N,+3V3*%
X32980000Y-66000000D03*
%TD*%
D10*
%TO.P,RV5,*%
%TO.N,*%
X24780000Y-35500000D03*
X36180000Y-35500000D03*
D11*
%TO.P,RV5,1*%
%TO.N,GND*%
X27980000Y-43000000D03*
%TO.P,RV5,2*%
%TO.N,P5*%
X30480000Y-43000000D03*
%TO.P,RV5,3*%
%TO.N,+3V3*%
X32980000Y-43000000D03*
%TD*%
D10*
%TO.P,RV1,*%
%TO.N,*%
X5730000Y-17500000D03*
X17130000Y-17500000D03*
D11*
%TO.P,RV1,1*%
%TO.N,GND*%
X8930000Y-25000000D03*
%TO.P,RV1,2*%
%TO.N,P1*%
X11430000Y-25000000D03*
%TO.P,RV1,3*%
%TO.N,+3V3*%
X13930000Y-25000000D03*
%TD*%
D10*
%TO.P,RV3,*%
%TO.N,*%
X43830000Y-17500000D03*
X55230000Y-17500000D03*
D11*
%TO.P,RV3,1*%
%TO.N,GND*%
X47030000Y-25000000D03*
%TO.P,RV3,2*%
%TO.N,P3*%
X49530000Y-25000000D03*
%TO.P,RV3,3*%
%TO.N,+3V3*%
X52030000Y-25000000D03*
%TD*%
D10*
%TO.P,RV4,*%
%TO.N,*%
X5730000Y-35500000D03*
X17130000Y-35500000D03*
D11*
%TO.P,RV4,1*%
%TO.N,GND*%
X8930000Y-43000000D03*
%TO.P,RV4,2*%
%TO.N,P4*%
X11430000Y-43000000D03*
%TO.P,RV4,3*%
%TO.N,+3V3*%
X13930000Y-43000000D03*
%TD*%
D10*
%TO.P,RV6,*%
%TO.N,*%
X5730000Y-58500000D03*
X17130000Y-58500000D03*
D11*
%TO.P,RV6,1*%
%TO.N,GND*%
X8930000Y-66000000D03*
%TO.P,RV6,2*%
%TO.N,P6*%
X11430000Y-66000000D03*
%TO.P,RV6,3*%
%TO.N,+3V3*%
X13930000Y-66000000D03*
%TD*%
D12*
%TO.P,J12,S*%
%TO.N,GND*%
X49530000Y-117980000D03*
D13*
%TO.P,J12,T*%
%TO.N,AO2*%
X49530000Y-106580000D03*
D14*
%TO.P,J12,TN*%
%TO.N,GND*%
X49530000Y-114880000D03*
%TD*%
D12*
%TO.P,J7,S*%
%TO.N,GND*%
X11430000Y-117980000D03*
D13*
%TO.P,J7,T*%
%TO.N,AI1*%
X11430000Y-106580000D03*
D14*
%TO.P,J7,TN*%
%TO.N,GND*%
X11430000Y-114880000D03*
%TD*%
D12*
%TO.P,J4,S*%
%TO.N,GND*%
X38100000Y-103980000D03*
D13*
%TO.P,J4,T*%
%TO.N,CI3*%
X38100000Y-92580000D03*
D14*
%TO.P,J4,TN*%
%TO.N,GND*%
X38100000Y-100880000D03*
%TD*%
D12*
%TO.P,J8,S*%
%TO.N,GND*%
X25400000Y-117980000D03*
D13*
%TO.P,J8,T*%
%TO.N,AI2*%
X25400000Y-106580000D03*
D14*
%TO.P,J8,TN*%
%TO.N,AI1*%
X25400000Y-114880000D03*
%TD*%
D12*
%TO.P,J5,S*%
%TO.N,GND*%
X49530000Y-103980000D03*
D13*
%TO.P,J5,T*%
%TO.N,B5*%
X49530000Y-92580000D03*
D14*
%TO.P,J5,TN*%
%TO.N,GND*%
X49530000Y-100880000D03*
%TD*%
D12*
%TO.P,J3,S*%
%TO.N,GND*%
X25400000Y-103980000D03*
D13*
%TO.P,J3,T*%
%TO.N,CI2*%
X25400000Y-92580000D03*
D14*
%TO.P,J3,TN*%
%TO.N,GND*%
X25400000Y-100880000D03*
%TD*%
D12*
%TO.P,J1,S*%
%TO.N,GND*%
X11430000Y-88980000D03*
D13*
%TO.P,J1,T*%
%TO.N,B1*%
X11430000Y-77580000D03*
D14*
%TO.P,J1,TN*%
%TO.N,GND*%
X11430000Y-85880000D03*
%TD*%
D12*
%TO.P,J2,S*%
%TO.N,GND*%
X11430000Y-103980000D03*
D13*
%TO.P,J2,T*%
%TO.N,CI1*%
X11430000Y-92580000D03*
D14*
%TO.P,J2,TN*%
%TO.N,GND*%
X11430000Y-100880000D03*
%TD*%
D12*
%TO.P,J10,S*%
%TO.N,GND*%
X38100000Y-117980000D03*
D13*
%TO.P,J10,T*%
%TO.N,AO1*%
X38100000Y-106580000D03*
D14*
%TO.P,J10,TN*%
%TO.N,GND*%
X38100000Y-114880000D03*
%TD*%
D15*
%TO.P,D1,1*%
%TO.N,GND*%
X29210000Y-85500000D03*
D16*
%TO.P,D1,2*%
%TO.N,L1*%
X31750000Y-85500000D03*
%TD*%
D15*
%TO.P,D3,1*%
%TO.N,GND*%
X46990000Y-85500000D03*
D16*
%TO.P,D3,2*%
%TO.N,L5*%
X49530000Y-85500000D03*
%TD*%
D17*
%TO.P,SW1,1*%
%TO.N,+3V3*%
X27980000Y-73000000D03*
X32980000Y-73000000D03*
%TO.P,SW1,2*%
%TO.N,B2*%
X27980000Y-78000000D03*
X32980000Y-78000000D03*
%TD*%
%TO.P,SW2,1*%
%TO.N,+3V3*%
X47030000Y-56000000D03*
X52030000Y-56000000D03*
%TO.P,SW2,2*%
%TO.N,B3*%
X47030000Y-61000000D03*
X52030000Y-61000000D03*
%TD*%
%TO.P,SW3,1*%
%TO.N,+3V3*%
X45760000Y-73000000D03*
X50760000Y-73000000D03*
%TO.P,SW3,2*%
%TO.N,B4*%
X45760000Y-78000000D03*
X50760000Y-78000000D03*
%TD*%
D11*
%TO.P,ZZ2,1*%
%TO.N,GND*%
X58920000Y-97130000D03*
%TO.P,ZZ2,2*%
%TO.N,CI1*%
X58920000Y-99670000D03*
%TO.P,ZZ2,3*%
%TO.N,CI2*%
X58920000Y-102210000D03*
%TO.P,ZZ2,4*%
%TO.N,CI3*%
X58920000Y-104750000D03*
%TO.P,ZZ2,5*%
%TO.N,CI4*%
X58920000Y-107290000D03*
%TO.P,ZZ2,6*%
%TO.N,CI5*%
X58920000Y-109830000D03*
%TO.P,ZZ2,7*%
%TO.N,CI6*%
X58920000Y-112370000D03*
%TO.P,ZZ2,8*%
%TO.N,CI7*%
X58920000Y-114910000D03*
%TO.P,ZZ2,9*%
%TO.N,CI8*%
X58920000Y-117450000D03*
%TD*%
%TO.P,ZZ3,1*%
%TO.N,B1*%
X1770000Y-18390000D03*
%TO.P,ZZ3,2*%
%TO.N,B2*%
X1770000Y-20930000D03*
%TO.P,ZZ3,3*%
%TO.N,B3*%
X1770000Y-23470000D03*
%TO.P,ZZ3,4*%
%TO.N,B4*%
X1770000Y-26010000D03*
%TO.P,ZZ3,5*%
%TO.N,B5*%
X1770000Y-28550000D03*
%TO.P,ZZ3,6*%
%TO.N,B6*%
X1770000Y-31090000D03*
%TO.P,ZZ3,7*%
%TO.N,B7*%
X1770000Y-33630000D03*
%TO.P,ZZ3,8*%
%TO.N,B8*%
X1770000Y-36170000D03*
%TD*%
%TO.P,ZZ4,1*%
%TO.N,L1*%
X4310000Y-10770000D03*
%TO.P,ZZ4,2*%
%TO.N,L2*%
X6850000Y-10770000D03*
%TO.P,ZZ4,3*%
%TO.N,L3*%
X9390000Y-10770000D03*
%TO.P,ZZ4,4*%
%TO.N,L4*%
X11930000Y-10770000D03*
%TO.P,ZZ4,5*%
%TO.N,L5*%
X14470000Y-10770000D03*
%TO.P,ZZ4,6*%
%TO.N,L6*%
X17010000Y-10770000D03*
%TO.P,ZZ4,7*%
%TO.N,L7*%
X19550000Y-10770000D03*
%TO.P,ZZ4,8*%
%TO.N,L8*%
X22090000Y-10770000D03*
%TD*%
%TO.P,ZZ5,1*%
%TO.N,NPR0*%
X1770000Y-94590000D03*
%TO.P,ZZ5,2*%
%TO.N,GND*%
X1770000Y-97130000D03*
%TO.P,ZZ5,3*%
%TO.N,CO1*%
X1770000Y-99670000D03*
%TO.P,ZZ5,4*%
%TO.N,CO2*%
X1770000Y-102210000D03*
%TO.P,ZZ5,5*%
%TO.N,AO2*%
X1770000Y-104750000D03*
%TO.P,ZZ5,6*%
%TO.N,AO1*%
X1770000Y-107290000D03*
%TO.P,ZZ5,7*%
%TO.N,AI2*%
X1770000Y-109830000D03*
%TO.P,ZZ5,8*%
%TO.N,AI1*%
X1770000Y-112370000D03*
%TO.P,ZZ5,9*%
%TO.N,GO1*%
X1770000Y-114910000D03*
%TO.P,ZZ5,10*%
%TO.N,GO2*%
X1770000Y-117450000D03*
%TD*%
%TO.P,J6,1*%
%TO.N,+3V3*%
X1770000Y-41250000D03*
%TO.P,J6,2*%
X1770000Y-43790000D03*
%TO.P,J6,3*%
%TO.N,GND*%
X1770000Y-46330000D03*
%TO.P,J6,4*%
X1770000Y-48870000D03*
%TD*%
%TO.P,ZZ7,1*%
%TO.N,B9*%
X1770000Y-56490000D03*
%TO.P,ZZ7,2*%
%TO.N,B10*%
X1770000Y-59030000D03*
%TO.P,ZZ7,3*%
%TO.N,B11*%
X1770000Y-61570000D03*
%TO.P,ZZ7,4*%
%TO.N,B12*%
X1770000Y-64110000D03*
%TO.P,ZZ7,5*%
%TO.N,B13*%
X1770000Y-66650000D03*
%TO.P,ZZ7,6*%
%TO.N,B14*%
X1770000Y-69190000D03*
%TO.P,ZZ7,7*%
%TO.N,B15*%
X1770000Y-71730000D03*
%TO.P,ZZ7,8*%
%TO.N,B16*%
X1770000Y-74270000D03*
%TD*%
%TO.P,ZZ10,1*%
%TO.N,Net-(SDD1-Pad1)*%
X58920000Y-59030000D03*
%TO.P,ZZ10,2*%
%TO.N,Net-(SDD0-Pad1)*%
X58920000Y-61570000D03*
%TO.P,ZZ10,3*%
%TO.N,Net-(SDCLK1-Pad1)*%
X58920000Y-64110000D03*
%TO.P,ZZ10,4*%
%TO.N,Net-(SDCMD1-Pad1)*%
X58920000Y-66650000D03*
%TO.P,ZZ10,5*%
%TO.N,Net-(SDD3-Pad1)*%
X58920000Y-69190000D03*
%TO.P,ZZ10,6*%
%TO.N,Net-(SDD2-Pad1)*%
X58920000Y-71730000D03*
%TD*%
%TO.P,J11,1*%
%TO.N,GND*%
X29710000Y-10770000D03*
%TO.P,J11,2*%
X32250000Y-10770000D03*
%TD*%
%TO.P,ZZ12,1*%
%TO.N,L9*%
X38600000Y-10770000D03*
%TO.P,ZZ12,2*%
%TO.N,L10*%
X41140000Y-10770000D03*
%TO.P,ZZ12,3*%
%TO.N,L11*%
X43680000Y-10770000D03*
%TO.P,ZZ12,4*%
%TO.N,L12*%
X46220000Y-10770000D03*
%TO.P,ZZ12,5*%
%TO.N,L13*%
X48760000Y-10770000D03*
%TO.P,ZZ12,6*%
%TO.N,L14*%
X51300000Y-10770000D03*
%TO.P,ZZ12,7*%
%TO.N,L15*%
X53840000Y-10770000D03*
%TO.P,ZZ12,8*%
%TO.N,L16*%
X56380000Y-10770000D03*
%TD*%
%TO.P,J9,1*%
%TO.N,+3V3*%
X58920000Y-51410000D03*
%TO.P,J9,2*%
%TO.N,GND*%
X58920000Y-53950000D03*
%TD*%
%TO.P,ZZ1,1*%
%TO.N,P1*%
X58920000Y-18390000D03*
%TO.P,ZZ1,2*%
%TO.N,P2*%
X58920000Y-20930000D03*
%TO.P,ZZ1,3*%
%TO.N,P3*%
X58920000Y-23470000D03*
%TO.P,ZZ1,4*%
%TO.N,P4*%
X58920000Y-26010000D03*
%TO.P,ZZ1,5*%
%TO.N,P5*%
X58920000Y-28550000D03*
%TO.P,ZZ1,6*%
%TO.N,P6*%
X58920000Y-31090000D03*
%TO.P,ZZ1,7*%
%TO.N,P7*%
X58920000Y-33630000D03*
%TO.P,ZZ1,8*%
%TO.N,P8*%
X58920000Y-36170000D03*
%TO.P,ZZ1,9*%
%TO.N,P9*%
X58920000Y-38710000D03*
%TO.P,ZZ1,10*%
%TO.N,P10*%
X58920000Y-41250000D03*
%TO.P,ZZ1,11*%
%TO.N,P11*%
X58920000Y-43790000D03*
%TO.P,ZZ1,12*%
%TO.N,P12*%
X58920000Y-46330000D03*
%TD*%
D18*
%TO.N,GND*%
X52425000Y-116425000D03*
X2425000Y-11425000D03*
X57425000Y-91425000D03*
X52425000Y-91425000D03*
X7425000Y-81425000D03*
X32424999Y-111425000D03*
X27425000Y-101425000D03*
X57425000Y-116425000D03*
X42425000Y-106425000D03*
X2425000Y-16425000D03*
X42425000Y-46425000D03*
X17425000Y-111425000D03*
X52425000Y-81425000D03*
X22425000Y-81425000D03*
X52425000Y-86425000D03*
X32424999Y-96425000D03*
X27425000Y-61425000D03*
X7425000Y-111425000D03*
X22425000Y-111425000D03*
X42425000Y-21425000D03*
X7425000Y-51425000D03*
X22425000Y-86425000D03*
X37425000Y-21425000D03*
X12425000Y-46425000D03*
X7425000Y-21425000D03*
X22425000Y-116425000D03*
X42425000Y-111425000D03*
X27425000Y-111425000D03*
X57425000Y-56425000D03*
X7425000Y-76425000D03*
X37425000Y-51425000D03*
X37425000Y-71425000D03*
X27425000Y-41425000D03*
X37425000Y-81425000D03*
X37425000Y-31425000D03*
X7425000Y-96425000D03*
X57425000Y-81425000D03*
X32424999Y-51425000D03*
X32424999Y-21425000D03*
X47425000Y-71425000D03*
X57425000Y-76425000D03*
X47425000Y-81425000D03*
X42425000Y-86425000D03*
X22425000Y-101425000D03*
X12425000Y-116425000D03*
X52425000Y-106425000D03*
X2425000Y-81425000D03*
X42425000Y-101425000D03*
X17425000Y-71425000D03*
X52425000Y-101425000D03*
X17425000Y-76425000D03*
X57425000Y-96425000D03*
X7425000Y-61425000D03*
X22425000Y-61425000D03*
X47425000Y-101425000D03*
X52425000Y-76425000D03*
X52425000Y-111425000D03*
X47425000Y-91425000D03*
X2425000Y-76425000D03*
X27425000Y-31425000D03*
X7425000Y-46425000D03*
X37425000Y-116425000D03*
X42425000Y-81425000D03*
X22425000Y-41425000D03*
X7425000Y-86425000D03*
X17425000Y-116425000D03*
X17425000Y-81425000D03*
X22425000Y-31425000D03*
X42425000Y-56425000D03*
X37425000Y-76425000D03*
X37425000Y-61425000D03*
X52425000Y-66425000D03*
X47425000Y-76425000D03*
X57425000Y-86425000D03*
X27425000Y-36425000D03*
X2425000Y-91425000D03*
X37425000Y-86425000D03*
X22425000Y-96425000D03*
X7425000Y-101425000D03*
X7425000Y-116425000D03*
X17425000Y-96425000D03*
X47425000Y-116425000D03*
X32424999Y-116425000D03*
X7425000Y-91425000D03*
X27425000Y-81425000D03*
X27425000Y-116425000D03*
X22425000Y-21425000D03*
X32424999Y-101425000D03*
X2425000Y-86425000D03*
X47425000Y-111425000D03*
X47425000Y-66425000D03*
X52425000Y-71425000D03*
X22425000Y-36425000D03*
X17425000Y-86425000D03*
X47425000Y-106425000D03*
X7425000Y-26425000D03*
X42425000Y-76425000D03*
X27425000Y-86425000D03*
X42425000Y-116425000D03*
X7425000Y-66425000D03*
X17425000Y-101425000D03*
X22425000Y-66425000D03*
X27425000Y-96425000D03*
X12425000Y-71425000D03*
X42425000Y-61425000D03*
X32424999Y-56425000D03*
X27425000Y-21425000D03*
X42425000Y-66425000D03*
D19*
%TO.N,P4*%
X13771500Y-33798000D03*
%TO.N,L2*%
X40825500Y-17757400D03*
%TO.N,L3*%
X38606500Y-14075100D03*
%TO.N,L4*%
X46390100Y-12222900D03*
%TO.N,B3*%
X46367200Y-27506200D03*
%TO.N,B2*%
X3324400Y-21801000D03*
%TO.N,B4*%
X33991200Y-44051200D03*
%TD*%
%TO.N,P2*%
D20*
X48280000Y-25311300D02*
X48280000Y-24721100D01*
X52071100Y-20930000D02*
X58920000Y-20930000D01*
X30480000Y-25000000D02*
X31560300Y-25000000D01*
X31560300Y-25111900D02*
X32538700Y-26090300D01*
X48280000Y-24721100D02*
X52071100Y-20930000D01*
X47501000Y-26090300D02*
X48280000Y-25311300D01*
X32538700Y-26090300D02*
X47501000Y-26090300D01*
X31560300Y-25000000D02*
X31560300Y-25111900D01*
%TO.N,+3V3*%
X1770000Y-41250000D02*
X11211600Y-41250000D01*
X12849700Y-42888100D02*
X12849700Y-43000000D01*
X29369700Y-25167900D02*
X29369700Y-24527300D01*
X52030000Y-56000000D02*
X47030000Y-56000000D01*
X22010300Y-73000000D02*
X15010300Y-66000000D01*
X50760000Y-73000000D02*
X45760000Y-73000000D01*
X27980000Y-73000000D02*
X22010300Y-73000000D01*
X53249700Y-56000000D02*
X57839700Y-51410000D01*
X13930000Y-25000000D02*
X15010300Y-25000000D01*
X52030000Y-56000000D02*
X53249700Y-56000000D01*
X30916800Y-23905200D02*
X31899700Y-24888100D01*
X58920000Y-51410000D02*
X57839700Y-51410000D01*
X31899700Y-24888100D02*
X31899700Y-25000000D01*
X32980000Y-25000000D02*
X31899700Y-25000000D01*
X15010300Y-25000000D02*
X16131300Y-26121000D01*
X13930000Y-43000000D02*
X12849700Y-43000000D01*
X28416600Y-26121000D02*
X29369700Y-25167900D01*
X13930000Y-66000000D02*
X15010300Y-66000000D01*
X32980000Y-73000000D02*
X27980000Y-73000000D01*
X45760000Y-73000000D02*
X32980000Y-73000000D01*
X16131300Y-26121000D02*
X28416600Y-26121000D01*
X29991800Y-23905200D02*
X30916800Y-23905200D01*
X11211600Y-41250000D02*
X12849700Y-42888100D01*
X29369700Y-24527300D02*
X29991800Y-23905200D01*
%TO.N,P7*%
X30480000Y-62228200D02*
X57997900Y-34710300D01*
X30480000Y-66000000D02*
X30480000Y-62228200D01*
X57997900Y-34710300D02*
X58920000Y-34710300D01*
X58920000Y-33630000D02*
X58920000Y-34710300D01*
%TO.N,P5*%
X45898400Y-28550000D02*
X31560300Y-42888100D01*
X31560300Y-42888100D02*
X31560300Y-43000000D01*
X30480000Y-43000000D02*
X31560300Y-43000000D01*
X58920000Y-28550000D02*
X45898400Y-28550000D01*
%TO.N,P1*%
X12510300Y-24888100D02*
X18632400Y-18766000D01*
X57463700Y-18766000D02*
X57839700Y-18390000D01*
X58920000Y-18390000D02*
X57839700Y-18390000D01*
X12510300Y-25000000D02*
X12510300Y-24888100D01*
X11430000Y-25000000D02*
X12510300Y-25000000D01*
X18632400Y-18766000D02*
X57463700Y-18766000D01*
%TO.N,P3*%
X52028400Y-23470000D02*
X50610300Y-24888100D01*
X49530000Y-25000000D02*
X50610300Y-25000000D01*
X50610300Y-24888100D02*
X50610300Y-25000000D01*
X58920000Y-23470000D02*
X52028400Y-23470000D01*
%TO.N,P4*%
X57392100Y-26457600D02*
X57839700Y-26010000D01*
X13771500Y-33798000D02*
X21111900Y-26457600D01*
X58920000Y-26010000D02*
X57839700Y-26010000D01*
X21111900Y-26457600D02*
X57392100Y-26457600D01*
%TO.N,P6*%
X12510300Y-65888100D02*
X33774000Y-44624400D01*
X44305300Y-44624400D02*
X57839700Y-31090000D01*
X12510300Y-66000000D02*
X12510300Y-65888100D01*
X33774000Y-44624400D02*
X44305300Y-44624400D01*
X11430000Y-66000000D02*
X12510300Y-66000000D01*
X58920000Y-31090000D02*
X57839700Y-31090000D01*
%TO.N,AO2*%
X2965600Y-104865300D02*
X48645600Y-104865300D01*
X2850300Y-104750000D02*
X2965600Y-104865300D01*
X49530000Y-106580000D02*
X49530000Y-105749700D01*
X48645600Y-104865300D02*
X49530000Y-105749700D01*
X1770000Y-104750000D02*
X2850300Y-104750000D01*
%TO.N,AI1*%
X25400000Y-114880000D02*
X25400000Y-113999700D01*
X11430000Y-106580000D02*
X11430000Y-107410300D01*
X18019400Y-113999700D02*
X11430000Y-107410300D01*
X8640300Y-106580000D02*
X11430000Y-106580000D01*
X1770000Y-112370000D02*
X2850300Y-112370000D01*
X2850300Y-112370000D02*
X8640300Y-106580000D01*
X25400000Y-113999700D02*
X18019400Y-113999700D01*
%TO.N,CI3*%
X58920000Y-104750000D02*
X57839700Y-104750000D01*
X44255700Y-99566000D02*
X38100000Y-93410300D01*
X52655700Y-99566000D02*
X44255700Y-99566000D01*
X57839700Y-104750000D02*
X52655700Y-99566000D01*
X38100000Y-92580000D02*
X38100000Y-93410300D01*
%TO.N,AI2*%
X25400000Y-106580000D02*
X25400000Y-105749700D01*
X1770000Y-109830000D02*
X2850300Y-109830000D01*
X6930600Y-105749700D02*
X25400000Y-105749700D01*
X2850300Y-109830000D02*
X6930600Y-105749700D01*
%TO.N,B5*%
X10321400Y-66455900D02*
X10321400Y-50434900D01*
X15011200Y-42535700D02*
X2105800Y-29630300D01*
X2105800Y-29630300D02*
X1770000Y-29630300D01*
X33856400Y-76076100D02*
X19941600Y-76076100D01*
X1770000Y-28550000D02*
X1770000Y-29630300D01*
X19941600Y-76076100D02*
X10321400Y-66455900D01*
X15011200Y-45745100D02*
X15011200Y-42535700D01*
X49530000Y-92580000D02*
X49530000Y-91749700D01*
X10321400Y-50434900D02*
X15011200Y-45745100D01*
X49530000Y-91749700D02*
X33856400Y-76076100D01*
%TO.N,CI1*%
X58920000Y-99670000D02*
X57839700Y-99670000D01*
X44816000Y-95259700D02*
X40945800Y-91389500D01*
X57839700Y-99670000D02*
X53429400Y-95259700D01*
X53429400Y-95259700D02*
X44816000Y-95259700D01*
X11430000Y-92580000D02*
X11430000Y-91749700D01*
X11790200Y-91389500D02*
X11430000Y-91749700D01*
X40945800Y-91389500D02*
X11790200Y-91389500D01*
%TO.N,AO1*%
X1770000Y-107290000D02*
X2850300Y-107290000D01*
X2850300Y-107290000D02*
X4747600Y-105392700D01*
X37743000Y-105392700D02*
X38100000Y-105749700D01*
X38100000Y-106580000D02*
X38100000Y-105749700D01*
X4747600Y-105392700D02*
X37743000Y-105392700D01*
%TO.N,CI2*%
X51399400Y-95769700D02*
X43365200Y-95769700D01*
X58920000Y-102210000D02*
X57839700Y-102210000D01*
X57839700Y-102210000D02*
X51399400Y-95769700D01*
X43365200Y-95769700D02*
X39345200Y-91749700D01*
X39345200Y-91749700D02*
X25400000Y-91749700D01*
X25400000Y-92580000D02*
X25400000Y-91749700D01*
%TO.N,L2*%
X6850000Y-10770000D02*
X7930300Y-10770000D01*
X38468800Y-15400700D02*
X12449100Y-15400700D01*
X40825500Y-17757400D02*
X38468800Y-15400700D01*
X12449100Y-15400700D02*
X7930300Y-10881900D01*
X7930300Y-10881900D02*
X7930300Y-10770000D01*
%TO.N,L3*%
X9390000Y-10770000D02*
X10470300Y-10770000D01*
X10470300Y-10905000D02*
X13640400Y-14075100D01*
X10470300Y-10770000D02*
X10470300Y-10905000D01*
X13640400Y-14075100D02*
X38606500Y-14075100D01*
%TO.N,L4*%
X13010300Y-10905000D02*
X13010300Y-10770000D01*
X14328200Y-12222900D02*
X13010300Y-10905000D01*
X11930000Y-10770000D02*
X13010300Y-10770000D01*
X46390100Y-12222900D02*
X14328200Y-12222900D01*
%TO.N,B3*%
X13491200Y-34381000D02*
X14343200Y-34381000D01*
X2850300Y-23740100D02*
X13491200Y-34381000D01*
X14343200Y-34381000D02*
X21218000Y-27506200D01*
X52030000Y-61000000D02*
X47030000Y-61000000D01*
X21218000Y-27506200D02*
X46367200Y-27506200D01*
X2850300Y-23470000D02*
X2850300Y-23740100D01*
X1770000Y-23470000D02*
X2850300Y-23470000D01*
%TO.N,B2*%
X2850300Y-20930000D02*
X2850300Y-21326900D01*
X2850300Y-21326900D02*
X3324400Y-21801000D01*
X32980000Y-78000000D02*
X27980000Y-78000000D01*
X1770000Y-20930000D02*
X2850300Y-20930000D01*
%TO.N,B4*%
X50760000Y-78000000D02*
X45760000Y-78000000D01*
X20920600Y-44080300D02*
X33962100Y-44080300D01*
X1770000Y-26010000D02*
X2850300Y-26010000D01*
X2850300Y-26010000D02*
X20920600Y-44080300D01*
X33962100Y-44080300D02*
X33991200Y-44051200D01*
%TD*%
%TA.AperFunction,Conductor*%
%TO.N,GND*%
G36*
X57849936Y-31982118D02*
G01*
X57876721Y-31984034D01*
X57885919Y-31989945D01*
X57893074Y-31991502D01*
X57921784Y-32012995D01*
X58034990Y-32126201D01*
X58034993Y-32126203D01*
X58034996Y-32126206D01*
X58207991Y-32251894D01*
X58207996Y-32251896D01*
X58209088Y-32252566D01*
X58209418Y-32252931D01*
X58211996Y-32254804D01*
X58211602Y-32255345D01*
X58256721Y-32305213D01*
X58268328Y-32375255D01*
X58240226Y-32440453D01*
X58211870Y-32465023D01*
X58211996Y-32465196D01*
X58209982Y-32466658D01*
X58209088Y-32467434D01*
X58207987Y-32468108D01*
X58034993Y-32593796D01*
X58034990Y-32593798D01*
X57883798Y-32744990D01*
X57883796Y-32744993D01*
X57758108Y-32917987D01*
X57661029Y-33108515D01*
X57661026Y-33108521D01*
X57594952Y-33311878D01*
X57594951Y-33311883D01*
X57594951Y-33311884D01*
X57561500Y-33523084D01*
X57561500Y-33736916D01*
X57574500Y-33818994D01*
X57594952Y-33948123D01*
X57594953Y-33948124D01*
X57654039Y-34129976D01*
X57656066Y-34200943D01*
X57623301Y-34258006D01*
X34686620Y-57194690D01*
X30120986Y-61760324D01*
X30066555Y-61814754D01*
X30012125Y-61869184D01*
X30012121Y-61869189D01*
X29935147Y-62002513D01*
X29895300Y-62151224D01*
X29895300Y-64696025D01*
X29875298Y-64764146D01*
X29826504Y-64808291D01*
X29767990Y-64838106D01*
X29594993Y-64963796D01*
X29594990Y-64963798D01*
X29443798Y-65114990D01*
X29443796Y-65114993D01*
X29318108Y-65287987D01*
X29247765Y-65426043D01*
X29221028Y-65478517D01*
X29217912Y-65488108D01*
X29209046Y-65515395D01*
X29168971Y-65574000D01*
X29103574Y-65601636D01*
X29033618Y-65589529D01*
X28981312Y-65541522D01*
X28976946Y-65533660D01*
X28920802Y-65423473D01*
X28819032Y-65283396D01*
X28696603Y-65160967D01*
X28556527Y-65059197D01*
X28402254Y-64980591D01*
X28402248Y-64980588D01*
X28237589Y-64927087D01*
X28180000Y-64917965D01*
X28180000Y-65538120D01*
X28172993Y-65534075D01*
X28045826Y-65500000D01*
X27914174Y-65500000D01*
X27787007Y-65534075D01*
X27780000Y-65538120D01*
X27780000Y-64917965D01*
X27722410Y-64927087D01*
X27557751Y-64980588D01*
X27557745Y-64980591D01*
X27403472Y-65059197D01*
X27263396Y-65160967D01*
X27140967Y-65283396D01*
X27039197Y-65423472D01*
X26960591Y-65577745D01*
X26960588Y-65577751D01*
X26907087Y-65742410D01*
X26897966Y-65800000D01*
X27518120Y-65800000D01*
X27514075Y-65807007D01*
X27480000Y-65934174D01*
X27480000Y-66065826D01*
X27514075Y-66192993D01*
X27518120Y-66200000D01*
X26897966Y-66200000D01*
X26907087Y-66257589D01*
X26960588Y-66422248D01*
X26960591Y-66422254D01*
X27039197Y-66576527D01*
X27140967Y-66716603D01*
X27263396Y-66839032D01*
X27403472Y-66940802D01*
X27557745Y-67019408D01*
X27557751Y-67019411D01*
X27722411Y-67072912D01*
X27780000Y-67082033D01*
X27780000Y-66461879D01*
X27787007Y-66465925D01*
X27914174Y-66500000D01*
X28045826Y-66500000D01*
X28172993Y-66465925D01*
X28180000Y-66461879D01*
X28180000Y-67082033D01*
X28237588Y-67072912D01*
X28402248Y-67019411D01*
X28402254Y-67019408D01*
X28556527Y-66940802D01*
X28696603Y-66839032D01*
X28819032Y-66716603D01*
X28920802Y-66576527D01*
X28976946Y-66466339D01*
X29025694Y-66414724D01*
X29094609Y-66397658D01*
X29161811Y-66420559D01*
X29205963Y-66476156D01*
X29209044Y-66484599D01*
X29221028Y-66521483D01*
X29305715Y-66687690D01*
X29318108Y-66712012D01*
X29321444Y-66716603D01*
X29443794Y-66885004D01*
X29443796Y-66885006D01*
X29443798Y-66885009D01*
X29594990Y-67036201D01*
X29594993Y-67036203D01*
X29594996Y-67036206D01*
X29767991Y-67161894D01*
X29958517Y-67258972D01*
X30161878Y-67325047D01*
X30161879Y-67325047D01*
X30161884Y-67325049D01*
X30373084Y-67358500D01*
X30373087Y-67358500D01*
X30586913Y-67358500D01*
X30586916Y-67358500D01*
X30798116Y-67325049D01*
X31001483Y-67258972D01*
X31192009Y-67161894D01*
X31365004Y-67036206D01*
X31516206Y-66885004D01*
X31628064Y-66731043D01*
X31684286Y-66687690D01*
X31755022Y-66681615D01*
X31817814Y-66714746D01*
X31831934Y-66731041D01*
X31943794Y-66885004D01*
X31943796Y-66885006D01*
X31943798Y-66885009D01*
X32094990Y-67036201D01*
X32094993Y-67036203D01*
X32094996Y-67036206D01*
X32267991Y-67161894D01*
X32458517Y-67258972D01*
X32661878Y-67325047D01*
X32661879Y-67325047D01*
X32661884Y-67325049D01*
X32873084Y-67358500D01*
X32873087Y-67358500D01*
X33086913Y-67358500D01*
X33086916Y-67358500D01*
X33298116Y-67325049D01*
X33501483Y-67258972D01*
X33692009Y-67161894D01*
X33865004Y-67036206D01*
X34016206Y-66885004D01*
X34141894Y-66712009D01*
X34238972Y-66521483D01*
X34305049Y-66318116D01*
X34338500Y-66106916D01*
X34338500Y-65893084D01*
X34305049Y-65681884D01*
X34238972Y-65478517D01*
X34141894Y-65287991D01*
X34016206Y-65114996D01*
X34016203Y-65114993D01*
X34016201Y-65114990D01*
X33865009Y-64963798D01*
X33865006Y-64963796D01*
X33865004Y-64963794D01*
X33692009Y-64838106D01*
X33501483Y-64741028D01*
X33501480Y-64741027D01*
X33501478Y-64741026D01*
X33298120Y-64674952D01*
X33298123Y-64674952D01*
X33258801Y-64668724D01*
X33086916Y-64641500D01*
X32873084Y-64641500D01*
X32661884Y-64674951D01*
X32661878Y-64674952D01*
X32458521Y-64741026D01*
X32458515Y-64741029D01*
X32267987Y-64838108D01*
X32094993Y-64963796D01*
X32094990Y-64963798D01*
X31943798Y-65114990D01*
X31943796Y-65114993D01*
X31831936Y-65268955D01*
X31775714Y-65312309D01*
X31704977Y-65318384D01*
X31642186Y-65285252D01*
X31628064Y-65268955D01*
X31572894Y-65193021D01*
X31516206Y-65114996D01*
X31516203Y-65114993D01*
X31516201Y-65114990D01*
X31365009Y-64963798D01*
X31365006Y-64963796D01*
X31365004Y-64963794D01*
X31192009Y-64838106D01*
X31177714Y-64830822D01*
X31133496Y-64808291D01*
X31081881Y-64759542D01*
X31064700Y-64696025D01*
X31064700Y-62522579D01*
X31084702Y-62454458D01*
X31101600Y-62433489D01*
X32661681Y-60873408D01*
X45421500Y-60873408D01*
X45421500Y-61126592D01*
X45441343Y-61251878D01*
X45461107Y-61376663D01*
X45535202Y-61604702D01*
X45539344Y-61617450D01*
X45654287Y-61843038D01*
X45803105Y-62047868D01*
X45803107Y-62047870D01*
X45803109Y-62047873D01*
X45982126Y-62226890D01*
X45982129Y-62226892D01*
X45982132Y-62226895D01*
X46186962Y-62375713D01*
X46412550Y-62490656D01*
X46653342Y-62568894D01*
X46903408Y-62608500D01*
X46903411Y-62608500D01*
X47156589Y-62608500D01*
X47156592Y-62608500D01*
X47406658Y-62568894D01*
X47647450Y-62490656D01*
X47873038Y-62375713D01*
X48077868Y-62226895D01*
X48256895Y-62047868D01*
X48405713Y-61843038D01*
X48502289Y-61653496D01*
X48551038Y-61601882D01*
X48614556Y-61584700D01*
X50445444Y-61584700D01*
X50513565Y-61604702D01*
X50557710Y-61653496D01*
X50654287Y-61843038D01*
X50803105Y-62047868D01*
X50803107Y-62047870D01*
X50803109Y-62047873D01*
X50982126Y-62226890D01*
X50982129Y-62226892D01*
X50982132Y-62226895D01*
X51186962Y-62375713D01*
X51412550Y-62490656D01*
X51653342Y-62568894D01*
X51903408Y-62608500D01*
X51903411Y-62608500D01*
X52156589Y-62608500D01*
X52156592Y-62608500D01*
X52406658Y-62568894D01*
X52647450Y-62490656D01*
X52873038Y-62375713D01*
X53077868Y-62226895D01*
X53256895Y-62047868D01*
X53405713Y-61843038D01*
X53520656Y-61617450D01*
X53598894Y-61376658D01*
X53638500Y-61126592D01*
X53638500Y-60873408D01*
X53598894Y-60623342D01*
X53520656Y-60382550D01*
X53405713Y-60156962D01*
X53256895Y-59952132D01*
X53256892Y-59952129D01*
X53256890Y-59952126D01*
X53077873Y-59773109D01*
X53077870Y-59773107D01*
X53077868Y-59773105D01*
X52873038Y-59624287D01*
X52647450Y-59509344D01*
X52647447Y-59509343D01*
X52647445Y-59509342D01*
X52406663Y-59431107D01*
X52406659Y-59431106D01*
X52406658Y-59431106D01*
X52156592Y-59391500D01*
X51903408Y-59391500D01*
X51653342Y-59431106D01*
X51653336Y-59431107D01*
X51412554Y-59509342D01*
X51412548Y-59509345D01*
X51186958Y-59624289D01*
X50982129Y-59773107D01*
X50982126Y-59773109D01*
X50803109Y-59952126D01*
X50803107Y-59952129D01*
X50654289Y-60156958D01*
X50654287Y-60156962D01*
X50587025Y-60288972D01*
X50557711Y-60346503D01*
X50508962Y-60398118D01*
X50445444Y-60415300D01*
X48614556Y-60415300D01*
X48546435Y-60395298D01*
X48502289Y-60346503D01*
X48486348Y-60315217D01*
X48405713Y-60156962D01*
X48256895Y-59952132D01*
X48256892Y-59952129D01*
X48256890Y-59952126D01*
X48077873Y-59773109D01*
X48077870Y-59773107D01*
X48077868Y-59773105D01*
X47873038Y-59624287D01*
X47647450Y-59509344D01*
X47647447Y-59509343D01*
X47647445Y-59509342D01*
X47406663Y-59431107D01*
X47406659Y-59431106D01*
X47406658Y-59431106D01*
X47156592Y-59391500D01*
X46903408Y-59391500D01*
X46653342Y-59431106D01*
X46653336Y-59431107D01*
X46412554Y-59509342D01*
X46412548Y-59509345D01*
X46186958Y-59624289D01*
X45982129Y-59773107D01*
X45982126Y-59773109D01*
X45803109Y-59952126D01*
X45803107Y-59952129D01*
X45654289Y-60156958D01*
X45539345Y-60382548D01*
X45539342Y-60382554D01*
X45461107Y-60623336D01*
X45461106Y-60623341D01*
X45461106Y-60623342D01*
X45421500Y-60873408D01*
X32661681Y-60873408D01*
X34391844Y-59143244D01*
X34454154Y-59109220D01*
X34524969Y-59114285D01*
X34581805Y-59156832D01*
X34593202Y-59175135D01*
X34623360Y-59234323D01*
X34625344Y-59238217D01*
X34755658Y-59417578D01*
X34912421Y-59574341D01*
X34912424Y-59574343D01*
X35091785Y-59704657D01*
X35289324Y-59805308D01*
X35500176Y-59873818D01*
X35719149Y-59908500D01*
X35719152Y-59908500D01*
X36640848Y-59908500D01*
X36640851Y-59908500D01*
X36859824Y-59873818D01*
X37070676Y-59805308D01*
X37268215Y-59704657D01*
X37447576Y-59574343D01*
X37604343Y-59417576D01*
X37734657Y-59238215D01*
X37835308Y-59040676D01*
X37903818Y-58829824D01*
X37938500Y-58610851D01*
X37938500Y-58389149D01*
X37903818Y-58170176D01*
X37835308Y-57959324D01*
X37734657Y-57761785D01*
X37669061Y-57671500D01*
X37604341Y-57582421D01*
X37447578Y-57425658D01*
X37268218Y-57295345D01*
X37268217Y-57295344D01*
X37268215Y-57295343D01*
X37070676Y-57194692D01*
X37070673Y-57194691D01*
X37070671Y-57194690D01*
X36859829Y-57126183D01*
X36859825Y-57126182D01*
X36859824Y-57126182D01*
X36714804Y-57103213D01*
X36650651Y-57072800D01*
X36613124Y-57012532D01*
X36614138Y-56941542D01*
X36645418Y-56889671D01*
X57346405Y-36188685D01*
X57408717Y-36154659D01*
X57479532Y-36159724D01*
X57536368Y-36202271D01*
X57561179Y-36268791D01*
X57561443Y-36276204D01*
X57561498Y-36276906D01*
X57594952Y-36488121D01*
X57622967Y-36574343D01*
X57661028Y-36691483D01*
X57758106Y-36882009D01*
X57883794Y-37055004D01*
X57883796Y-37055006D01*
X57883798Y-37055009D01*
X58034990Y-37206201D01*
X58034993Y-37206203D01*
X58034996Y-37206206D01*
X58207991Y-37331894D01*
X58207996Y-37331896D01*
X58209088Y-37332566D01*
X58209418Y-37332931D01*
X58211996Y-37334804D01*
X58211602Y-37335345D01*
X58256721Y-37385213D01*
X58268328Y-37455255D01*
X58240226Y-37520453D01*
X58211870Y-37545023D01*
X58211996Y-37545196D01*
X58209982Y-37546658D01*
X58209088Y-37547434D01*
X58207987Y-37548108D01*
X58034993Y-37673796D01*
X58034990Y-37673798D01*
X57883798Y-37824990D01*
X57883796Y-37824993D01*
X57758108Y-37997987D01*
X57661029Y-38188515D01*
X57661026Y-38188521D01*
X57594952Y-38391878D01*
X57594951Y-38391883D01*
X57594951Y-38391884D01*
X57561500Y-38603084D01*
X57561500Y-38816916D01*
X57594951Y-39028116D01*
X57594952Y-39028121D01*
X57661026Y-39231478D01*
X57661028Y-39231483D01*
X57758106Y-39422009D01*
X57883794Y-39595004D01*
X57883796Y-39595006D01*
X57883798Y-39595009D01*
X58034990Y-39746201D01*
X58034993Y-39746203D01*
X58034996Y-39746206D01*
X58207991Y-39871894D01*
X58207996Y-39871896D01*
X58209088Y-39872566D01*
X58209418Y-39872931D01*
X58211996Y-39874804D01*
X58211602Y-39875345D01*
X58256721Y-39925213D01*
X58268328Y-39995255D01*
X58240226Y-40060453D01*
X58211870Y-40085023D01*
X58211996Y-40085196D01*
X58209982Y-40086658D01*
X58209088Y-40087434D01*
X58207987Y-40088108D01*
X58034993Y-40213796D01*
X58034990Y-40213798D01*
X57883798Y-40364990D01*
X57883796Y-40364993D01*
X57758108Y-40537987D01*
X57661029Y-40728515D01*
X57661026Y-40728521D01*
X57594952Y-40931878D01*
X57594951Y-40931883D01*
X57594951Y-40931884D01*
X57561500Y-41143084D01*
X57561500Y-41356916D01*
X57574500Y-41438994D01*
X57594952Y-41568121D01*
X57656614Y-41757898D01*
X57661028Y-41771483D01*
X57744690Y-41935678D01*
X57758108Y-41962012D01*
X57789182Y-42004781D01*
X57883794Y-42135004D01*
X57883796Y-42135006D01*
X57883798Y-42135009D01*
X58034990Y-42286201D01*
X58034993Y-42286203D01*
X58034996Y-42286206D01*
X58207991Y-42411894D01*
X58207996Y-42411896D01*
X58209088Y-42412566D01*
X58209418Y-42412931D01*
X58211996Y-42414804D01*
X58211602Y-42415345D01*
X58256721Y-42465213D01*
X58268328Y-42535255D01*
X58240226Y-42600453D01*
X58211870Y-42625023D01*
X58211996Y-42625196D01*
X58209982Y-42626658D01*
X58209088Y-42627434D01*
X58207987Y-42628108D01*
X58034993Y-42753796D01*
X58034990Y-42753798D01*
X57883798Y-42904990D01*
X57883796Y-42904993D01*
X57758108Y-43077987D01*
X57661029Y-43268515D01*
X57661026Y-43268521D01*
X57594952Y-43471878D01*
X57594951Y-43471883D01*
X57594951Y-43471884D01*
X57561500Y-43683084D01*
X57561500Y-43896916D01*
X57580947Y-44019698D01*
X57594952Y-44108121D01*
X57661026Y-44311478D01*
X57661028Y-44311483D01*
X57758106Y-44502009D01*
X57883794Y-44675004D01*
X57883796Y-44675006D01*
X57883798Y-44675009D01*
X58034990Y-44826201D01*
X58034993Y-44826203D01*
X58034996Y-44826206D01*
X58207991Y-44951894D01*
X58207996Y-44951896D01*
X58209088Y-44952566D01*
X58209418Y-44952931D01*
X58211996Y-44954804D01*
X58211602Y-44955345D01*
X58256721Y-45005213D01*
X58268328Y-45075255D01*
X58240226Y-45140453D01*
X58211870Y-45165023D01*
X58211996Y-45165196D01*
X58209982Y-45166658D01*
X58209088Y-45167434D01*
X58207987Y-45168108D01*
X58034993Y-45293796D01*
X58034990Y-45293798D01*
X57883798Y-45444990D01*
X57883796Y-45444993D01*
X57758108Y-45617987D01*
X57661029Y-45808515D01*
X57661026Y-45808521D01*
X57594952Y-46011878D01*
X57594951Y-46011883D01*
X57594951Y-46011884D01*
X57561500Y-46223084D01*
X57561500Y-46436916D01*
X57594951Y-46648116D01*
X57594952Y-46648121D01*
X57661026Y-46851478D01*
X57661028Y-46851483D01*
X57758106Y-47042009D01*
X57883794Y-47215004D01*
X57883796Y-47215006D01*
X57883798Y-47215009D01*
X58034990Y-47366201D01*
X58034993Y-47366203D01*
X58034996Y-47366206D01*
X58207991Y-47491894D01*
X58398517Y-47588972D01*
X58601878Y-47655047D01*
X58601879Y-47655047D01*
X58601884Y-47655049D01*
X58813084Y-47688500D01*
X58813087Y-47688500D01*
X59026913Y-47688500D01*
X59026916Y-47688500D01*
X59238116Y-47655049D01*
X59441483Y-47588972D01*
X59632009Y-47491894D01*
X59799941Y-47369884D01*
X59866806Y-47346027D01*
X59935958Y-47362107D01*
X59985438Y-47413021D01*
X60000000Y-47471821D01*
X60000000Y-50268178D01*
X59979998Y-50336299D01*
X59926342Y-50382792D01*
X59856068Y-50392896D01*
X59799939Y-50370114D01*
X59632012Y-50248108D01*
X59632011Y-50248107D01*
X59632009Y-50248106D01*
X59441483Y-50151028D01*
X59441480Y-50151027D01*
X59441478Y-50151026D01*
X59238120Y-50084952D01*
X59238123Y-50084952D01*
X59180882Y-50075886D01*
X59026916Y-50051500D01*
X58813084Y-50051500D01*
X58601884Y-50084951D01*
X58601878Y-50084952D01*
X58398521Y-50151026D01*
X58398515Y-50151029D01*
X58207987Y-50248108D01*
X58034993Y-50373796D01*
X58034990Y-50373798D01*
X57883798Y-50524990D01*
X57883796Y-50524993D01*
X57758106Y-50697990D01*
X57707719Y-50796879D01*
X57658971Y-50848494D01*
X57648841Y-50853805D01*
X57638783Y-50858509D01*
X57614014Y-50865147D01*
X57573536Y-50888517D01*
X57568842Y-50891226D01*
X57568842Y-50891227D01*
X57480686Y-50942123D01*
X57480678Y-50942129D01*
X53451173Y-54971635D01*
X53388861Y-55005661D01*
X53318046Y-55000596D01*
X53261210Y-54958049D01*
X53260143Y-54956603D01*
X53256895Y-54952132D01*
X53256892Y-54952129D01*
X53256890Y-54952126D01*
X53077873Y-54773109D01*
X53077870Y-54773107D01*
X53077868Y-54773105D01*
X52873038Y-54624287D01*
X52647450Y-54509344D01*
X52647447Y-54509343D01*
X52647445Y-54509342D01*
X52406663Y-54431107D01*
X52406659Y-54431106D01*
X52406658Y-54431106D01*
X52156592Y-54391500D01*
X51903408Y-54391500D01*
X51653342Y-54431106D01*
X51653336Y-54431107D01*
X51412554Y-54509342D01*
X51412548Y-54509345D01*
X51186958Y-54624289D01*
X50982129Y-54773107D01*
X50982126Y-54773109D01*
X50803109Y-54952126D01*
X50803107Y-54952129D01*
X50654289Y-55156958D01*
X50557711Y-55346503D01*
X50508962Y-55398118D01*
X50445444Y-55415300D01*
X48614556Y-55415300D01*
X48546435Y-55395298D01*
X48502289Y-55346503D01*
X48492915Y-55328106D01*
X48405713Y-55156962D01*
X48256895Y-54952132D01*
X48256892Y-54952129D01*
X48256890Y-54952126D01*
X48077873Y-54773109D01*
X48077870Y-54773107D01*
X48077868Y-54773105D01*
X47873038Y-54624287D01*
X47647450Y-54509344D01*
X47647447Y-54509343D01*
X47647445Y-54509342D01*
X47406663Y-54431107D01*
X47406659Y-54431106D01*
X47406658Y-54431106D01*
X47156592Y-54391500D01*
X46903408Y-54391500D01*
X46653342Y-54431106D01*
X46653336Y-54431107D01*
X46412554Y-54509342D01*
X46412548Y-54509345D01*
X46186958Y-54624289D01*
X45982129Y-54773107D01*
X45982126Y-54773109D01*
X45803109Y-54952126D01*
X45803107Y-54952129D01*
X45654289Y-55156958D01*
X45539345Y-55382548D01*
X45539342Y-55382554D01*
X45461107Y-55623336D01*
X45461106Y-55623341D01*
X45461106Y-55623342D01*
X45421500Y-55873408D01*
X45421500Y-56126592D01*
X45448883Y-56299481D01*
X45461107Y-56376663D01*
X45535202Y-56604702D01*
X45539344Y-56617450D01*
X45654287Y-56843038D01*
X45803105Y-57047868D01*
X45803107Y-57047870D01*
X45803109Y-57047873D01*
X45982126Y-57226890D01*
X45982129Y-57226892D01*
X45982132Y-57226895D01*
X46186962Y-57375713D01*
X46412550Y-57490656D01*
X46653342Y-57568894D01*
X46903408Y-57608500D01*
X46903411Y-57608500D01*
X47156589Y-57608500D01*
X47156592Y-57608500D01*
X47406658Y-57568894D01*
X47647450Y-57490656D01*
X47873038Y-57375713D01*
X48077868Y-57226895D01*
X48256895Y-57047868D01*
X48405713Y-56843038D01*
X48502289Y-56653496D01*
X48551038Y-56601882D01*
X48614556Y-56584700D01*
X50445444Y-56584700D01*
X50513565Y-56604702D01*
X50557710Y-56653496D01*
X50654287Y-56843038D01*
X50803105Y-57047868D01*
X50803107Y-57047870D01*
X50803109Y-57047873D01*
X50982126Y-57226890D01*
X50982129Y-57226892D01*
X50982132Y-57226895D01*
X51186962Y-57375713D01*
X51412550Y-57490656D01*
X51653342Y-57568894D01*
X51903408Y-57608500D01*
X51903411Y-57608500D01*
X52156589Y-57608500D01*
X52156592Y-57608500D01*
X52406658Y-57568894D01*
X52647450Y-57490656D01*
X52873038Y-57375713D01*
X53077868Y-57226895D01*
X53256895Y-57047868D01*
X53405713Y-56843038D01*
X53520656Y-56617450D01*
X53545198Y-56541913D01*
X53585269Y-56483312D01*
X53602030Y-56471734D01*
X53608714Y-56467876D01*
X53717576Y-56359014D01*
X53777080Y-56299510D01*
X53777093Y-56299495D01*
X57743596Y-52332993D01*
X57805906Y-52298969D01*
X57876721Y-52304034D01*
X57921784Y-52332995D01*
X58034990Y-52446201D01*
X58034993Y-52446203D01*
X58034996Y-52446206D01*
X58207991Y-52571894D01*
X58398517Y-52668972D01*
X58483329Y-52696528D01*
X58541934Y-52736601D01*
X58569572Y-52801997D01*
X58557466Y-52871954D01*
X58509460Y-52924260D01*
X58501597Y-52928627D01*
X58343475Y-53009195D01*
X58203396Y-53110967D01*
X58080967Y-53233396D01*
X57979197Y-53373472D01*
X57900591Y-53527745D01*
X57900588Y-53527751D01*
X57847087Y-53692410D01*
X57837966Y-53750000D01*
X58458120Y-53750000D01*
X58454075Y-53757007D01*
X58420000Y-53884174D01*
X58420000Y-54015826D01*
X58454075Y-54142993D01*
X58458120Y-54150000D01*
X57837966Y-54150000D01*
X57847087Y-54207589D01*
X57900588Y-54372248D01*
X57900591Y-54372254D01*
X57979197Y-54526527D01*
X58080967Y-54666603D01*
X58203396Y-54789032D01*
X58343472Y-54890802D01*
X58497745Y-54969408D01*
X58497751Y-54969411D01*
X58662411Y-55022912D01*
X58720000Y-55032033D01*
X58720000Y-54411879D01*
X58727007Y-54415925D01*
X58854174Y-54450000D01*
X58985826Y-54450000D01*
X59112993Y-54415925D01*
X59120000Y-54411879D01*
X59120000Y-55032033D01*
X59177588Y-55022912D01*
X59342248Y-54969411D01*
X59342254Y-54969408D01*
X59496527Y-54890802D01*
X59636603Y-54789032D01*
X59759032Y-54666603D01*
X59772063Y-54648668D01*
X59828285Y-54605314D01*
X59899021Y-54599237D01*
X59961813Y-54632368D01*
X59996725Y-54694188D01*
X60000000Y-54722728D01*
X60000000Y-57888178D01*
X59979998Y-57956299D01*
X59926342Y-58002792D01*
X59856068Y-58012896D01*
X59799939Y-57990114D01*
X59632012Y-57868108D01*
X59632011Y-57868107D01*
X59632009Y-57868106D01*
X59441483Y-57771028D01*
X59441480Y-57771027D01*
X59441478Y-57771026D01*
X59238120Y-57704952D01*
X59238123Y-57704952D01*
X59198801Y-57698724D01*
X59026916Y-57671500D01*
X58813084Y-57671500D01*
X58601884Y-57704951D01*
X58601878Y-57704952D01*
X58398521Y-57771026D01*
X58398515Y-57771029D01*
X58207987Y-57868108D01*
X58034993Y-57993796D01*
X58034990Y-57993798D01*
X57883798Y-58144990D01*
X57883796Y-58144993D01*
X57758108Y-58317987D01*
X57661029Y-58508515D01*
X57661026Y-58508521D01*
X57594952Y-58711878D01*
X57594951Y-58711883D01*
X57594951Y-58711884D01*
X57561500Y-58923084D01*
X57561500Y-59136916D01*
X57577545Y-59238217D01*
X57594952Y-59348121D01*
X57661026Y-59551478D01*
X57661028Y-59551483D01*
X57758106Y-59742009D01*
X57758108Y-59742012D01*
X57780700Y-59773107D01*
X57883794Y-59915004D01*
X57883796Y-59915006D01*
X57883798Y-59915009D01*
X58034990Y-60066201D01*
X58034993Y-60066203D01*
X58034996Y-60066206D01*
X58207991Y-60191894D01*
X58207996Y-60191896D01*
X58209088Y-60192566D01*
X58209418Y-60192931D01*
X58211996Y-60194804D01*
X58211602Y-60195345D01*
X58256721Y-60245213D01*
X58268328Y-60315255D01*
X58240226Y-60380453D01*
X58211870Y-60405023D01*
X58211996Y-60405196D01*
X58209982Y-60406658D01*
X58209088Y-60407434D01*
X58207987Y-60408108D01*
X58034993Y-60533796D01*
X58034990Y-60533798D01*
X57883798Y-60684990D01*
X57883796Y-60684993D01*
X57758108Y-60857987D01*
X57661029Y-61048515D01*
X57661026Y-61048521D01*
X57594952Y-61251878D01*
X57594951Y-61251883D01*
X57594951Y-61251884D01*
X57561500Y-61463084D01*
X57561500Y-61676916D01*
X57591953Y-61869186D01*
X57594952Y-61888121D01*
X57646857Y-62047870D01*
X57661028Y-62091483D01*
X57758106Y-62282009D01*
X57883794Y-62455004D01*
X57883796Y-62455006D01*
X57883798Y-62455009D01*
X58034990Y-62606201D01*
X58034993Y-62606203D01*
X58034996Y-62606206D01*
X58207991Y-62731894D01*
X58207996Y-62731896D01*
X58209088Y-62732566D01*
X58209418Y-62732931D01*
X58211996Y-62734804D01*
X58211602Y-62735345D01*
X58256721Y-62785213D01*
X58268328Y-62855255D01*
X58240226Y-62920453D01*
X58211870Y-62945023D01*
X58211996Y-62945196D01*
X58209982Y-62946658D01*
X58209088Y-62947434D01*
X58207987Y-62948108D01*
X58034993Y-63073796D01*
X58034990Y-63073798D01*
X57883798Y-63224990D01*
X57883796Y-63224993D01*
X57758108Y-63397987D01*
X57661029Y-63588515D01*
X57661026Y-63588521D01*
X57594952Y-63791878D01*
X57594951Y-63791883D01*
X57594951Y-63791884D01*
X57561500Y-64003084D01*
X57561500Y-64216916D01*
X57574500Y-64298994D01*
X57594952Y-64428121D01*
X57647508Y-64589872D01*
X57661028Y-64631483D01*
X57758106Y-64822009D01*
X57758108Y-64822012D01*
X57789182Y-64864781D01*
X57883794Y-64995004D01*
X57883796Y-64995006D01*
X57883798Y-64995009D01*
X58034990Y-65146201D01*
X58034993Y-65146203D01*
X58034996Y-65146206D01*
X58207991Y-65271894D01*
X58207996Y-65271896D01*
X58209088Y-65272566D01*
X58209418Y-65272931D01*
X58211996Y-65274804D01*
X58211602Y-65275345D01*
X58256721Y-65325213D01*
X58268328Y-65395255D01*
X58240226Y-65460453D01*
X58211870Y-65485023D01*
X58211996Y-65485196D01*
X58209982Y-65486658D01*
X58209088Y-65487434D01*
X58207987Y-65488108D01*
X58034993Y-65613796D01*
X58034990Y-65613798D01*
X57883798Y-65764990D01*
X57883796Y-65764993D01*
X57758108Y-65937987D01*
X57661029Y-66128515D01*
X57661026Y-66128521D01*
X57594952Y-66331878D01*
X57594951Y-66331883D01*
X57594951Y-66331884D01*
X57561500Y-66543084D01*
X57561500Y-66756916D01*
X57590625Y-66940802D01*
X57594952Y-66968121D01*
X57631964Y-67082033D01*
X57661028Y-67171483D01*
X57758106Y-67362009D01*
X57883794Y-67535004D01*
X57883796Y-67535006D01*
X57883798Y-67535009D01*
X58034990Y-67686201D01*
X58034993Y-67686203D01*
X58034996Y-67686206D01*
X58207991Y-67811894D01*
X58207996Y-67811896D01*
X58209088Y-67812566D01*
X58209418Y-67812931D01*
X58211996Y-67814804D01*
X58211602Y-67815345D01*
X58256721Y-67865213D01*
X58268328Y-67935255D01*
X58240226Y-68000453D01*
X58211870Y-68025023D01*
X58211996Y-68025196D01*
X58209982Y-68026658D01*
X58209088Y-68027434D01*
X58207987Y-68028108D01*
X58034993Y-68153796D01*
X58034990Y-68153798D01*
X57883798Y-68304990D01*
X57883796Y-68304993D01*
X57758108Y-68477987D01*
X57661029Y-68668515D01*
X57661026Y-68668521D01*
X57594952Y-68871878D01*
X57594951Y-68871883D01*
X57594951Y-68871884D01*
X57561500Y-69083084D01*
X57561500Y-69296916D01*
X57574500Y-69378994D01*
X57594952Y-69508121D01*
X57661026Y-69711478D01*
X57661028Y-69711483D01*
X57758106Y-69902009D01*
X57883794Y-70075004D01*
X57883796Y-70075006D01*
X57883798Y-70075009D01*
X58034990Y-70226201D01*
X58034993Y-70226203D01*
X58034996Y-70226206D01*
X58207991Y-70351894D01*
X58207996Y-70351896D01*
X58209088Y-70352566D01*
X58209418Y-70352931D01*
X58211996Y-70354804D01*
X58211602Y-70355345D01*
X58256721Y-70405213D01*
X58268328Y-70475255D01*
X58240226Y-70540453D01*
X58211870Y-70565023D01*
X58211996Y-70565196D01*
X58209982Y-70566658D01*
X58209088Y-70567434D01*
X58207987Y-70568108D01*
X58034993Y-70693796D01*
X58034990Y-70693798D01*
X57883798Y-70844990D01*
X57883796Y-70844993D01*
X57758108Y-71017987D01*
X57661029Y-71208515D01*
X57661026Y-71208521D01*
X57594952Y-71411878D01*
X57594951Y-71411883D01*
X57594951Y-71411884D01*
X57561500Y-71623084D01*
X57561500Y-71836916D01*
X57574500Y-71918994D01*
X57594952Y-72048121D01*
X57661026Y-72251478D01*
X57661028Y-72251483D01*
X57758106Y-72442009D01*
X57883794Y-72615004D01*
X57883796Y-72615006D01*
X57883798Y-72615009D01*
X58034990Y-72766201D01*
X58034993Y-72766203D01*
X58034996Y-72766206D01*
X58207991Y-72891894D01*
X58398517Y-72988972D01*
X58601878Y-73055047D01*
X58601879Y-73055047D01*
X58601884Y-73055049D01*
X58813084Y-73088500D01*
X58813087Y-73088500D01*
X59026913Y-73088500D01*
X59026916Y-73088500D01*
X59238116Y-73055049D01*
X59441483Y-72988972D01*
X59632009Y-72891894D01*
X59799941Y-72769884D01*
X59866806Y-72746027D01*
X59935958Y-72762107D01*
X59985438Y-72813021D01*
X60000000Y-72871821D01*
X60000000Y-96357271D01*
X59979998Y-96425392D01*
X59926342Y-96471885D01*
X59856068Y-96481989D01*
X59791488Y-96452495D01*
X59772065Y-96431333D01*
X59759036Y-96413401D01*
X59759031Y-96413395D01*
X59636603Y-96290967D01*
X59496527Y-96189197D01*
X59342254Y-96110591D01*
X59342248Y-96110588D01*
X59177589Y-96057087D01*
X59120000Y-96047965D01*
X59120000Y-96668120D01*
X59112993Y-96664075D01*
X58985826Y-96630000D01*
X58854174Y-96630000D01*
X58727007Y-96664075D01*
X58720000Y-96668120D01*
X58720000Y-96047965D01*
X58662410Y-96057087D01*
X58497751Y-96110588D01*
X58497745Y-96110591D01*
X58343472Y-96189197D01*
X58203396Y-96290967D01*
X58080967Y-96413396D01*
X57979197Y-96553472D01*
X57900591Y-96707745D01*
X57900588Y-96707751D01*
X57847087Y-96872410D01*
X57837966Y-96930000D01*
X58458120Y-96930000D01*
X58454075Y-96937007D01*
X58420000Y-97064174D01*
X58420000Y-97195826D01*
X58454075Y-97322993D01*
X58458120Y-97330000D01*
X57837966Y-97330000D01*
X57847087Y-97387589D01*
X57900588Y-97552248D01*
X57900591Y-97552254D01*
X57979197Y-97706527D01*
X58080967Y-97846603D01*
X58203396Y-97969032D01*
X58343473Y-98070802D01*
X58501596Y-98151371D01*
X58553211Y-98200120D01*
X58570277Y-98269035D01*
X58547376Y-98336236D01*
X58491778Y-98380388D01*
X58483329Y-98383471D01*
X58398521Y-98411026D01*
X58398515Y-98411029D01*
X58207987Y-98508108D01*
X58034995Y-98633794D01*
X57921784Y-98747005D01*
X57859472Y-98781030D01*
X57788656Y-98775964D01*
X57743594Y-98747004D01*
X56053345Y-97056755D01*
X53788420Y-94791829D01*
X53788410Y-94791821D01*
X53655086Y-94714847D01*
X53506377Y-94675000D01*
X53506375Y-94675000D01*
X45110381Y-94675000D01*
X45042260Y-94654998D01*
X45021286Y-94638095D01*
X41304820Y-90921629D01*
X41304810Y-90921621D01*
X41171486Y-90844647D01*
X41171479Y-90844645D01*
X41022777Y-90804800D01*
X11867177Y-90804800D01*
X11713223Y-90804800D01*
X11633533Y-90826152D01*
X11564517Y-90844645D01*
X11564510Y-90844648D01*
X11431189Y-90921621D01*
X11431183Y-90921626D01*
X11073061Y-91279749D01*
X11070986Y-91281824D01*
X10962124Y-91390686D01*
X10945032Y-91420289D01*
X10935865Y-91430353D01*
X10916694Y-91442010D01*
X10900457Y-91457493D01*
X10885112Y-91461215D01*
X10875204Y-91467241D01*
X10861662Y-91466904D01*
X10847633Y-91470307D01*
X10847697Y-91471111D01*
X10842768Y-91471498D01*
X10737540Y-91488165D01*
X10670426Y-91498795D01*
X10670423Y-91498795D01*
X10670422Y-91498796D01*
X10504488Y-91552710D01*
X10504482Y-91552713D01*
X10349015Y-91631928D01*
X10207858Y-91734485D01*
X10207855Y-91734487D01*
X10084487Y-91857855D01*
X10084485Y-91857858D01*
X9981928Y-91999015D01*
X9902713Y-92154482D01*
X9902710Y-92154488D01*
X9848796Y-92320422D01*
X9848795Y-92320426D01*
X9821500Y-92492759D01*
X9821500Y-92667241D01*
X9848795Y-92839574D01*
X9848796Y-92839577D01*
X9898996Y-92994081D01*
X9902712Y-93005516D01*
X9981926Y-93160981D01*
X10084483Y-93302139D01*
X10084485Y-93302141D01*
X10084487Y-93302144D01*
X10207855Y-93425512D01*
X10207858Y-93425514D01*
X10207861Y-93425517D01*
X10349019Y-93528074D01*
X10504484Y-93607288D01*
X10670426Y-93661205D01*
X10842759Y-93688500D01*
X10842762Y-93688500D01*
X12017238Y-93688500D01*
X12017241Y-93688500D01*
X12189574Y-93661205D01*
X12355516Y-93607288D01*
X12510981Y-93528074D01*
X12652139Y-93425517D01*
X12775517Y-93302139D01*
X12878074Y-93160981D01*
X12957288Y-93005516D01*
X13011205Y-92839574D01*
X13038500Y-92667241D01*
X13038500Y-92492759D01*
X13011205Y-92320426D01*
X12957288Y-92154484D01*
X12957284Y-92154477D01*
X12955392Y-92149908D01*
X12957222Y-92149149D01*
X12945672Y-92087612D01*
X12972380Y-92021830D01*
X13030412Y-91980931D01*
X13071042Y-91974200D01*
X23758958Y-91974200D01*
X23827079Y-91994202D01*
X23873572Y-92047858D01*
X23883676Y-92118132D01*
X23873719Y-92149539D01*
X23874608Y-92149908D01*
X23872710Y-92154488D01*
X23818796Y-92320422D01*
X23818795Y-92320426D01*
X23791500Y-92492759D01*
X23791500Y-92667241D01*
X23818795Y-92839574D01*
X23818796Y-92839577D01*
X23868996Y-92994081D01*
X23872712Y-93005516D01*
X23951926Y-93160981D01*
X24054483Y-93302139D01*
X24054485Y-93302141D01*
X24054487Y-93302144D01*
X24177855Y-93425512D01*
X24177858Y-93425514D01*
X24177861Y-93425517D01*
X24319019Y-93528074D01*
X24474484Y-93607288D01*
X24640426Y-93661205D01*
X24812759Y-93688500D01*
X24812762Y-93688500D01*
X25987238Y-93688500D01*
X25987241Y-93688500D01*
X26159574Y-93661205D01*
X26325516Y-93607288D01*
X26480981Y-93528074D01*
X26622139Y-93425517D01*
X26745517Y-93302139D01*
X26848074Y-93160981D01*
X26927288Y-93005516D01*
X26981205Y-92839574D01*
X27008500Y-92667241D01*
X27008500Y-92492759D01*
X27006497Y-92480112D01*
X27015595Y-92409701D01*
X27061316Y-92355387D01*
X27129144Y-92334413D01*
X27130945Y-92334400D01*
X36369055Y-92334400D01*
X36437176Y-92354402D01*
X36483669Y-92408058D01*
X36493773Y-92478332D01*
X36493503Y-92480112D01*
X36491500Y-92492759D01*
X36491500Y-92667241D01*
X36518795Y-92839574D01*
X36518796Y-92839577D01*
X36568996Y-92994081D01*
X36572712Y-93005516D01*
X36651926Y-93160981D01*
X36754483Y-93302139D01*
X36754485Y-93302141D01*
X36754487Y-93302144D01*
X36877855Y-93425512D01*
X36877858Y-93425514D01*
X36877861Y-93425517D01*
X37019019Y-93528074D01*
X37174484Y-93607288D01*
X37340426Y-93661205D01*
X37512759Y-93688500D01*
X37512762Y-93688500D01*
X37512768Y-93688501D01*
X37517697Y-93688889D01*
X37517614Y-93689937D01*
X37580841Y-93708502D01*
X37621839Y-93751500D01*
X37632121Y-93769310D01*
X37632129Y-93769320D01*
X43896680Y-100033872D01*
X43896683Y-100033874D01*
X43896685Y-100033876D01*
X43963348Y-100072363D01*
X43963350Y-100072365D01*
X44030008Y-100110850D01*
X44030011Y-100110851D01*
X44030014Y-100110853D01*
X44178723Y-100150700D01*
X48249152Y-100150700D01*
X48317273Y-100170702D01*
X48363766Y-100224358D01*
X48373870Y-100294632D01*
X48353917Y-100346702D01*
X48282430Y-100453689D01*
X48214588Y-100617474D01*
X48214586Y-100617479D01*
X48202150Y-100680000D01*
X48855735Y-100680000D01*
X48839940Y-100695795D01*
X48800444Y-100764204D01*
X48780000Y-100840504D01*
X48780000Y-100919496D01*
X48800444Y-100995796D01*
X48839940Y-101064205D01*
X48855735Y-101080000D01*
X48202150Y-101080000D01*
X48214586Y-101142520D01*
X48214588Y-101142525D01*
X48282430Y-101306310D01*
X48380921Y-101453712D01*
X48380926Y-101453719D01*
X48506280Y-101579073D01*
X48506287Y-101579078D01*
X48653689Y-101677569D01*
X48817474Y-101745411D01*
X48817479Y-101745413D01*
X48991355Y-101779999D01*
X48991359Y-101780000D01*
X49330000Y-101780000D01*
X49330000Y-101180000D01*
X49730000Y-101180000D01*
X49730000Y-101780000D01*
X50068641Y-101780000D01*
X50068644Y-101779999D01*
X50242520Y-101745413D01*
X50242525Y-101745411D01*
X50406310Y-101677569D01*
X50553712Y-101579078D01*
X50553719Y-101579073D01*
X50679073Y-101453719D01*
X50679078Y-101453712D01*
X50777569Y-101306310D01*
X50845411Y-101142525D01*
X50845413Y-101142520D01*
X50857850Y-101080000D01*
X50204265Y-101080000D01*
X50220060Y-101064205D01*
X50259556Y-100995796D01*
X50280000Y-100919496D01*
X50280000Y-100840504D01*
X50259556Y-100764204D01*
X50220060Y-100695795D01*
X50204265Y-100680000D01*
X50857849Y-100680000D01*
X50845413Y-100617479D01*
X50845411Y-100617474D01*
X50777569Y-100453689D01*
X50706083Y-100346702D01*
X50684868Y-100278949D01*
X50703651Y-100210482D01*
X50756468Y-100163039D01*
X50810848Y-100150700D01*
X52361320Y-100150700D01*
X52429441Y-100170702D01*
X52450415Y-100187605D01*
X57371824Y-105109014D01*
X57480686Y-105217876D01*
X57614014Y-105294853D01*
X57628065Y-105298618D01*
X57688686Y-105335568D01*
X57707720Y-105363121D01*
X57758107Y-105462012D01*
X57822745Y-105550977D01*
X57883794Y-105635004D01*
X57883796Y-105635006D01*
X57883798Y-105635009D01*
X58034990Y-105786201D01*
X58034993Y-105786203D01*
X58034996Y-105786206D01*
X58207991Y-105911894D01*
X58207996Y-105911896D01*
X58209088Y-105912566D01*
X58209418Y-105912931D01*
X58211996Y-105914804D01*
X58211602Y-105915345D01*
X58256721Y-105965213D01*
X58268328Y-106035255D01*
X58240226Y-106100453D01*
X58211870Y-106125023D01*
X58211996Y-106125196D01*
X58209982Y-106126658D01*
X58209088Y-106127434D01*
X58207987Y-106128108D01*
X58034993Y-106253796D01*
X58034990Y-106253798D01*
X57883798Y-106404990D01*
X57883796Y-106404993D01*
X57758108Y-106577987D01*
X57661029Y-106768515D01*
X57661026Y-106768521D01*
X57594952Y-106971878D01*
X57594951Y-106971883D01*
X57594951Y-106971884D01*
X57561500Y-107183084D01*
X57561500Y-107396916D01*
X57592001Y-107589489D01*
X57594952Y-107608121D01*
X57661026Y-107811478D01*
X57661028Y-107811483D01*
X57758106Y-108002009D01*
X57883794Y-108175004D01*
X57883796Y-108175006D01*
X57883798Y-108175009D01*
X58034990Y-108326201D01*
X58034993Y-108326203D01*
X58034996Y-108326206D01*
X58207991Y-108451894D01*
X58207996Y-108451896D01*
X58209088Y-108452566D01*
X58209418Y-108452931D01*
X58211996Y-108454804D01*
X58211602Y-108455345D01*
X58256721Y-108505213D01*
X58268328Y-108575255D01*
X58240226Y-108640453D01*
X58211870Y-108665023D01*
X58211996Y-108665196D01*
X58209982Y-108666658D01*
X58209088Y-108667434D01*
X58207987Y-108668108D01*
X58034993Y-108793796D01*
X58034990Y-108793798D01*
X57883798Y-108944990D01*
X57883796Y-108944993D01*
X57758108Y-109117987D01*
X57661029Y-109308515D01*
X57661026Y-109308521D01*
X57594952Y-109511878D01*
X57594951Y-109511883D01*
X57594951Y-109511884D01*
X57561500Y-109723084D01*
X57561500Y-109936916D01*
X57592004Y-110129510D01*
X57594952Y-110148121D01*
X57661026Y-110351478D01*
X57661028Y-110351483D01*
X57758106Y-110542009D01*
X57883794Y-110715004D01*
X57883796Y-110715006D01*
X57883798Y-110715009D01*
X58034990Y-110866201D01*
X58034993Y-110866203D01*
X58034996Y-110866206D01*
X58207991Y-110991894D01*
X58207996Y-110991896D01*
X58209088Y-110992566D01*
X58209418Y-110992931D01*
X58211996Y-110994804D01*
X58211602Y-110995345D01*
X58256721Y-111045213D01*
X58268328Y-111115255D01*
X58240226Y-111180453D01*
X58211870Y-111205023D01*
X58211996Y-111205196D01*
X58209982Y-111206658D01*
X58209088Y-111207434D01*
X58207987Y-111208108D01*
X58034993Y-111333796D01*
X58034990Y-111333798D01*
X57883798Y-111484990D01*
X57883796Y-111484993D01*
X57758108Y-111657987D01*
X57661029Y-111848515D01*
X57661026Y-111848521D01*
X57594952Y-112051878D01*
X57594951Y-112051883D01*
X57594951Y-112051884D01*
X57561500Y-112263084D01*
X57561500Y-112476916D01*
X57592004Y-112669510D01*
X57594952Y-112688121D01*
X57661026Y-112891478D01*
X57661028Y-112891483D01*
X57758106Y-113082009D01*
X57883794Y-113255004D01*
X57883796Y-113255006D01*
X57883798Y-113255009D01*
X58034990Y-113406201D01*
X58034993Y-113406203D01*
X58034996Y-113406206D01*
X58207991Y-113531894D01*
X58207996Y-113531896D01*
X58209088Y-113532566D01*
X58209418Y-113532931D01*
X58211996Y-113534804D01*
X58211602Y-113535345D01*
X58256721Y-113585213D01*
X58268328Y-113655255D01*
X58240226Y-113720453D01*
X58211870Y-113745023D01*
X58211996Y-113745196D01*
X58209982Y-113746658D01*
X58209088Y-113747434D01*
X58207987Y-113748108D01*
X58034993Y-113873796D01*
X58034990Y-113873798D01*
X57883798Y-114024990D01*
X57883796Y-114024993D01*
X57758108Y-114197987D01*
X57661029Y-114388515D01*
X57661026Y-114388521D01*
X57594952Y-114591878D01*
X57594951Y-114591883D01*
X57594951Y-114591884D01*
X57561500Y-114803084D01*
X57561500Y-115016916D01*
X57582783Y-115151288D01*
X57594952Y-115228121D01*
X57661026Y-115431478D01*
X57661028Y-115431483D01*
X57758106Y-115622009D01*
X57883794Y-115795004D01*
X57883796Y-115795006D01*
X57883798Y-115795009D01*
X58034990Y-115946201D01*
X58034993Y-115946203D01*
X58034996Y-115946206D01*
X58207991Y-116071894D01*
X58207996Y-116071896D01*
X58209088Y-116072566D01*
X58209418Y-116072931D01*
X58211996Y-116074804D01*
X58211602Y-116075345D01*
X58256721Y-116125213D01*
X58268328Y-116195255D01*
X58240226Y-116260453D01*
X58211870Y-116285023D01*
X58211996Y-116285196D01*
X58209982Y-116286658D01*
X58209088Y-116287434D01*
X58207987Y-116288108D01*
X58034993Y-116413796D01*
X58034990Y-116413798D01*
X57883798Y-116564990D01*
X57883796Y-116564993D01*
X57758108Y-116737987D01*
X57661029Y-116928515D01*
X57661026Y-116928521D01*
X57594952Y-117131878D01*
X57594951Y-117131883D01*
X57594951Y-117131884D01*
X57561500Y-117343084D01*
X57561500Y-117556916D01*
X57594951Y-117768116D01*
X57594952Y-117768121D01*
X57597165Y-117774931D01*
X57661028Y-117971483D01*
X57758106Y-118162009D01*
X57883794Y-118335004D01*
X57883796Y-118335006D01*
X57883798Y-118335009D01*
X58034990Y-118486201D01*
X58034993Y-118486203D01*
X58034996Y-118486206D01*
X58207991Y-118611894D01*
X58353890Y-118686233D01*
X58405505Y-118734981D01*
X58422571Y-118803896D01*
X58399670Y-118871098D01*
X58344073Y-118915250D01*
X58296687Y-118924500D01*
X50501780Y-118924500D01*
X50433659Y-118904498D01*
X50387166Y-118850842D01*
X50377062Y-118780568D01*
X50406556Y-118715988D01*
X50431779Y-118693734D01*
X50453715Y-118679076D01*
X50453719Y-118679073D01*
X50579073Y-118553719D01*
X50579078Y-118553712D01*
X50677569Y-118406310D01*
X50745411Y-118242525D01*
X50745413Y-118242520D01*
X50757850Y-118180000D01*
X50104265Y-118180000D01*
X50120060Y-118164205D01*
X50159556Y-118095796D01*
X50180000Y-118019496D01*
X50180000Y-117940504D01*
X50159556Y-117864204D01*
X50120060Y-117795795D01*
X50104265Y-117780000D01*
X50757849Y-117780000D01*
X50745413Y-117717479D01*
X50745411Y-117717474D01*
X50677569Y-117553689D01*
X50579078Y-117406287D01*
X50579073Y-117406280D01*
X50453719Y-117280926D01*
X50453712Y-117280921D01*
X50306310Y-117182430D01*
X50142525Y-117114588D01*
X50142520Y-117114586D01*
X49968644Y-117080000D01*
X49730000Y-117080000D01*
X49730000Y-117680000D01*
X49330000Y-117680000D01*
X49330000Y-117080000D01*
X49091355Y-117080000D01*
X48917479Y-117114586D01*
X48917474Y-117114588D01*
X48753689Y-117182430D01*
X48606287Y-117280921D01*
X48606280Y-117280926D01*
X48480926Y-117406280D01*
X48480921Y-117406287D01*
X48382430Y-117553689D01*
X48314588Y-117717474D01*
X48314586Y-117717479D01*
X48302150Y-117780000D01*
X48955735Y-117780000D01*
X48939940Y-117795795D01*
X48900444Y-117864204D01*
X48880000Y-117940504D01*
X48880000Y-118019496D01*
X48900444Y-118095796D01*
X48939940Y-118164205D01*
X48955735Y-118180000D01*
X48302150Y-118180000D01*
X48314586Y-118242520D01*
X48314588Y-118242525D01*
X48382430Y-118406310D01*
X48480921Y-118553712D01*
X48480926Y-118553719D01*
X48606280Y-118679073D01*
X48606284Y-118679076D01*
X48628221Y-118693734D01*
X48673749Y-118748211D01*
X48682598Y-118818654D01*
X48651957Y-118882698D01*
X48591556Y-118920010D01*
X48558220Y-118924500D01*
X39071780Y-118924500D01*
X39003659Y-118904498D01*
X38957166Y-118850842D01*
X38947062Y-118780568D01*
X38976556Y-118715988D01*
X39001779Y-118693734D01*
X39023715Y-118679076D01*
X39023719Y-118679073D01*
X39149073Y-118553719D01*
X39149078Y-118553712D01*
X39247569Y-118406310D01*
X39315411Y-118242525D01*
X39315413Y-118242520D01*
X39327850Y-118180000D01*
X38674265Y-118180000D01*
X38690060Y-118164205D01*
X38729556Y-118095796D01*
X38750000Y-118019496D01*
X38750000Y-117940504D01*
X38729556Y-117864204D01*
X38690060Y-117795795D01*
X38674265Y-117780000D01*
X39327849Y-117780000D01*
X39315413Y-117717479D01*
X39315411Y-117717474D01*
X39247569Y-117553689D01*
X39149078Y-117406287D01*
X39149073Y-117406280D01*
X39023719Y-117280926D01*
X39023712Y-117280921D01*
X38876310Y-117182430D01*
X38712525Y-117114588D01*
X38712520Y-117114586D01*
X38538644Y-117080000D01*
X38300000Y-117080000D01*
X38300000Y-117680000D01*
X37900000Y-117680000D01*
X37900000Y-117080000D01*
X37661355Y-117080000D01*
X37487479Y-117114586D01*
X37487474Y-117114588D01*
X37323689Y-117182430D01*
X37176287Y-117280921D01*
X37176280Y-117280926D01*
X37050926Y-117406280D01*
X37050921Y-117406287D01*
X36952430Y-117553689D01*
X36884588Y-117717474D01*
X36884586Y-117717479D01*
X36872150Y-117780000D01*
X37525735Y-117780000D01*
X37509940Y-117795795D01*
X37470444Y-117864204D01*
X37450000Y-117940504D01*
X37450000Y-118019496D01*
X37470444Y-118095796D01*
X37509940Y-118164205D01*
X37525735Y-118180000D01*
X36872150Y-118180000D01*
X36884586Y-118242520D01*
X36884588Y-118242525D01*
X36952430Y-118406310D01*
X37050921Y-118553712D01*
X37050926Y-118553719D01*
X37176280Y-118679073D01*
X37176284Y-118679076D01*
X37198221Y-118693734D01*
X37243749Y-118748211D01*
X37252598Y-118818654D01*
X37221957Y-118882698D01*
X37161556Y-118920010D01*
X37128220Y-118924500D01*
X26371780Y-118924500D01*
X26303659Y-118904498D01*
X26257166Y-118850842D01*
X26247062Y-118780568D01*
X26276556Y-118715988D01*
X26301779Y-118693734D01*
X26323715Y-118679076D01*
X26323719Y-118679073D01*
X26449073Y-118553719D01*
X26449078Y-118553712D01*
X26547569Y-118406310D01*
X26615411Y-118242525D01*
X26615413Y-118242520D01*
X26627850Y-118180000D01*
X25974265Y-118180000D01*
X25990060Y-118164205D01*
X26029556Y-118095796D01*
X26050000Y-118019496D01*
X26050000Y-117940504D01*
X26029556Y-117864204D01*
X25990060Y-117795795D01*
X25974265Y-117780000D01*
X26627849Y-117780000D01*
X26615413Y-117717479D01*
X26615411Y-117717474D01*
X26547569Y-117553689D01*
X26449078Y-117406287D01*
X26449073Y-117406280D01*
X26323719Y-117280926D01*
X26323712Y-117280921D01*
X26176310Y-117182430D01*
X26012525Y-117114588D01*
X26012520Y-117114586D01*
X25838644Y-117080000D01*
X25600000Y-117080000D01*
X25600000Y-117680000D01*
X25200000Y-117680000D01*
X25200000Y-117080000D01*
X24961355Y-117080000D01*
X24787479Y-117114586D01*
X24787474Y-117114588D01*
X24623689Y-117182430D01*
X24476287Y-117280921D01*
X24476280Y-117280926D01*
X24350926Y-117406280D01*
X24350921Y-117406287D01*
X24252430Y-117553689D01*
X24184588Y-117717474D01*
X24184586Y-117717479D01*
X24172150Y-117780000D01*
X24825735Y-117780000D01*
X24809940Y-117795795D01*
X24770444Y-117864204D01*
X24750000Y-117940504D01*
X24750000Y-118019496D01*
X24770444Y-118095796D01*
X24809940Y-118164205D01*
X24825735Y-118180000D01*
X24172150Y-118180000D01*
X24184586Y-118242520D01*
X24184588Y-118242525D01*
X24252430Y-118406310D01*
X24350921Y-118553712D01*
X24350926Y-118553719D01*
X24476280Y-118679073D01*
X24476284Y-118679076D01*
X24498221Y-118693734D01*
X24543749Y-118748211D01*
X24552598Y-118818654D01*
X24521957Y-118882698D01*
X24461556Y-118920010D01*
X24428220Y-118924500D01*
X12401780Y-118924500D01*
X12333659Y-118904498D01*
X12287166Y-118850842D01*
X12277062Y-118780568D01*
X12306556Y-118715988D01*
X12331779Y-118693734D01*
X12353715Y-118679076D01*
X12353719Y-118679073D01*
X12479073Y-118553719D01*
X12479078Y-118553712D01*
X12577569Y-118406310D01*
X12645411Y-118242525D01*
X12645413Y-118242520D01*
X12657850Y-118180000D01*
X12004265Y-118180000D01*
X12020060Y-118164205D01*
X12059556Y-118095796D01*
X12080000Y-118019496D01*
X12080000Y-117940504D01*
X12059556Y-117864204D01*
X12020060Y-117795795D01*
X12004265Y-117780000D01*
X12657849Y-117780000D01*
X12645413Y-117717479D01*
X12645411Y-117717474D01*
X12577569Y-117553689D01*
X12479078Y-117406287D01*
X12479073Y-117406280D01*
X12353719Y-117280926D01*
X12353712Y-117280921D01*
X12206310Y-117182430D01*
X12042525Y-117114588D01*
X12042520Y-117114586D01*
X11868644Y-117080000D01*
X11630000Y-117080000D01*
X11630000Y-117680000D01*
X11230000Y-117680000D01*
X11230000Y-117080000D01*
X10991355Y-117080000D01*
X10817479Y-117114586D01*
X10817474Y-117114588D01*
X10653689Y-117182430D01*
X10506287Y-117280921D01*
X10506280Y-117280926D01*
X10380926Y-117406280D01*
X10380921Y-117406287D01*
X10282430Y-117553689D01*
X10214588Y-117717474D01*
X10214586Y-117717479D01*
X10202150Y-117780000D01*
X10855735Y-117780000D01*
X10839940Y-117795795D01*
X10800444Y-117864204D01*
X10780000Y-117940504D01*
X10780000Y-118019496D01*
X10800444Y-118095796D01*
X10839940Y-118164205D01*
X10855735Y-118180000D01*
X10202150Y-118180000D01*
X10214586Y-118242520D01*
X10214588Y-118242525D01*
X10282430Y-118406310D01*
X10380921Y-118553712D01*
X10380926Y-118553719D01*
X10506280Y-118679073D01*
X10506284Y-118679076D01*
X10528221Y-118693734D01*
X10573749Y-118748211D01*
X10582598Y-118818654D01*
X10551957Y-118882698D01*
X10491556Y-118920010D01*
X10458220Y-118924500D01*
X2393313Y-118924500D01*
X2325192Y-118904498D01*
X2278699Y-118850842D01*
X2268595Y-118780568D01*
X2298089Y-118715988D01*
X2336108Y-118686234D01*
X2482009Y-118611894D01*
X2655004Y-118486206D01*
X2806206Y-118335004D01*
X2931894Y-118162009D01*
X3028972Y-117971483D01*
X3095049Y-117768116D01*
X3128500Y-117556916D01*
X3128500Y-117343084D01*
X3095049Y-117131884D01*
X3028972Y-116928517D01*
X2931894Y-116737991D01*
X2806206Y-116564996D01*
X2806203Y-116564993D01*
X2806201Y-116564990D01*
X2655009Y-116413798D01*
X2655006Y-116413796D01*
X2655004Y-116413794D01*
X2482009Y-116288106D01*
X2482007Y-116288105D01*
X2480920Y-116287439D01*
X2480591Y-116287075D01*
X2478004Y-116285196D01*
X2478398Y-116284652D01*
X2433283Y-116234796D01*
X2421670Y-116164756D01*
X2449766Y-116099555D01*
X2478130Y-116074978D01*
X2478004Y-116074804D01*
X2480030Y-116073331D01*
X2480920Y-116072561D01*
X2481997Y-116071899D01*
X2482009Y-116071894D01*
X2655004Y-115946206D01*
X2806206Y-115795004D01*
X2931894Y-115622009D01*
X3028972Y-115431483D01*
X3095049Y-115228116D01*
X3128500Y-115016916D01*
X3128500Y-114803084D01*
X3109005Y-114680000D01*
X10102150Y-114680000D01*
X10755735Y-114680000D01*
X10739940Y-114695795D01*
X10700444Y-114764204D01*
X10680000Y-114840504D01*
X10680000Y-114919496D01*
X10700444Y-114995796D01*
X10739940Y-115064205D01*
X10755735Y-115080000D01*
X10102150Y-115080000D01*
X10114586Y-115142520D01*
X10114588Y-115142525D01*
X10182430Y-115306310D01*
X10280921Y-115453712D01*
X10280926Y-115453719D01*
X10406280Y-115579073D01*
X10406287Y-115579078D01*
X10553689Y-115677569D01*
X10717474Y-115745411D01*
X10717479Y-115745413D01*
X10891355Y-115779999D01*
X10891359Y-115780000D01*
X11230000Y-115780000D01*
X11230000Y-115180000D01*
X11630000Y-115180000D01*
X11630000Y-115780000D01*
X11968641Y-115780000D01*
X11968644Y-115779999D01*
X12142520Y-115745413D01*
X12142525Y-115745411D01*
X12306310Y-115677569D01*
X12453712Y-115579078D01*
X12453719Y-115579073D01*
X12579073Y-115453719D01*
X12579078Y-115453712D01*
X12677569Y-115306310D01*
X12745411Y-115142525D01*
X12745413Y-115142520D01*
X12757850Y-115080000D01*
X12104265Y-115080000D01*
X12120060Y-115064205D01*
X12159556Y-114995796D01*
X12180000Y-114919496D01*
X12180000Y-114840504D01*
X12159556Y-114764204D01*
X12120060Y-114695795D01*
X12104265Y-114680000D01*
X12757849Y-114680000D01*
X12745413Y-114617479D01*
X12745411Y-114617474D01*
X12677569Y-114453689D01*
X12579078Y-114306287D01*
X12579073Y-114306280D01*
X12453719Y-114180926D01*
X12453712Y-114180921D01*
X12306310Y-114082430D01*
X12142525Y-114014588D01*
X12142520Y-114014586D01*
X11968644Y-113980000D01*
X11630000Y-113980000D01*
X11630000Y-114580000D01*
X11230000Y-114580000D01*
X11230000Y-113980000D01*
X10891355Y-113980000D01*
X10717479Y-114014586D01*
X10717474Y-114014588D01*
X10553689Y-114082430D01*
X10406287Y-114180921D01*
X10406280Y-114180926D01*
X10280926Y-114306280D01*
X10280921Y-114306287D01*
X10182430Y-114453689D01*
X10114588Y-114617474D01*
X10114586Y-114617479D01*
X10102150Y-114680000D01*
X3109005Y-114680000D01*
X3095049Y-114591884D01*
X3028972Y-114388517D01*
X2931894Y-114197991D01*
X2806206Y-114024996D01*
X2806203Y-114024993D01*
X2806201Y-114024990D01*
X2655009Y-113873798D01*
X2655006Y-113873796D01*
X2655004Y-113873794D01*
X2482009Y-113748106D01*
X2482007Y-113748105D01*
X2480920Y-113747439D01*
X2480591Y-113747075D01*
X2478004Y-113745196D01*
X2478398Y-113744652D01*
X2433283Y-113694796D01*
X2421670Y-113624756D01*
X2449766Y-113559555D01*
X2478130Y-113534978D01*
X2478004Y-113534804D01*
X2480030Y-113533331D01*
X2480920Y-113532561D01*
X2481997Y-113531899D01*
X2482009Y-113531894D01*
X2655004Y-113406206D01*
X2806206Y-113255004D01*
X2931894Y-113082009D01*
X2982279Y-112983120D01*
X3031025Y-112931507D01*
X3061928Y-112918619D01*
X3075986Y-112914853D01*
X3209314Y-112837876D01*
X3318176Y-112729014D01*
X3377680Y-112669510D01*
X3377693Y-112669495D01*
X4665281Y-111381908D01*
X9929500Y-111381908D01*
X9929500Y-111618092D01*
X9966447Y-111851368D01*
X10039432Y-112075992D01*
X10134762Y-112263087D01*
X10146659Y-112286436D01*
X10285484Y-112477512D01*
X10452487Y-112644515D01*
X10568790Y-112729014D01*
X10643567Y-112783343D01*
X10854008Y-112890568D01*
X11078632Y-112963553D01*
X11311908Y-113000500D01*
X11311911Y-113000500D01*
X11548089Y-113000500D01*
X11548092Y-113000500D01*
X11781368Y-112963553D01*
X12005992Y-112890568D01*
X12216433Y-112783343D01*
X12407510Y-112644517D01*
X12574517Y-112477510D01*
X12713343Y-112286433D01*
X12820568Y-112075992D01*
X12893553Y-111851368D01*
X12930500Y-111618092D01*
X12930500Y-111381908D01*
X12893553Y-111148632D01*
X12820568Y-110924008D01*
X12713343Y-110713567D01*
X12588699Y-110542010D01*
X12574515Y-110522487D01*
X12407512Y-110355484D01*
X12216436Y-110216659D01*
X12216435Y-110216658D01*
X12216433Y-110216657D01*
X12005992Y-110109432D01*
X11781368Y-110036447D01*
X11548092Y-109999500D01*
X11311908Y-109999500D01*
X11078632Y-110036447D01*
X11078629Y-110036447D01*
X11078628Y-110036448D01*
X10854008Y-110109432D01*
X10854006Y-110109433D01*
X10643563Y-110216659D01*
X10452487Y-110355484D01*
X10285484Y-110522487D01*
X10146659Y-110713563D01*
X10039433Y-110924006D01*
X10039432Y-110924008D01*
X9967310Y-111145977D01*
X9966447Y-111148632D01*
X9929500Y-111381908D01*
X4665281Y-111381908D01*
X8845586Y-107201605D01*
X8907898Y-107167579D01*
X8934681Y-107164700D01*
X9920428Y-107164700D01*
X9988549Y-107184702D01*
X10022363Y-107216638D01*
X10084483Y-107302139D01*
X10084485Y-107302141D01*
X10084487Y-107302144D01*
X10207855Y-107425512D01*
X10207858Y-107425514D01*
X10207861Y-107425517D01*
X10349019Y-107528074D01*
X10504484Y-107607288D01*
X10670426Y-107661205D01*
X10842759Y-107688500D01*
X10842762Y-107688500D01*
X10842768Y-107688501D01*
X10847697Y-107688889D01*
X10847614Y-107689937D01*
X10910841Y-107708502D01*
X10951839Y-107751500D01*
X10962121Y-107769310D01*
X10962129Y-107769320D01*
X17551524Y-114358714D01*
X17660386Y-114467576D01*
X17793714Y-114544553D01*
X17942423Y-114584400D01*
X23676351Y-114584400D01*
X23744472Y-114604402D01*
X23790965Y-114658058D01*
X23801069Y-114728332D01*
X23800817Y-114729996D01*
X23791500Y-114788824D01*
X23791500Y-114971176D01*
X23815081Y-115120060D01*
X23820027Y-115151288D01*
X23876374Y-115324706D01*
X23876375Y-115324709D01*
X23876376Y-115324710D01*
X23959162Y-115487186D01*
X24066346Y-115634712D01*
X24066348Y-115634714D01*
X24066350Y-115634717D01*
X24195282Y-115763649D01*
X24195285Y-115763651D01*
X24195288Y-115763654D01*
X24342814Y-115870838D01*
X24505290Y-115953624D01*
X24678717Y-116009974D01*
X24858824Y-116038500D01*
X24858827Y-116038500D01*
X25941173Y-116038500D01*
X25941176Y-116038500D01*
X26121283Y-116009974D01*
X26294710Y-115953624D01*
X26457186Y-115870838D01*
X26604712Y-115763654D01*
X26733654Y-115634712D01*
X26840838Y-115487186D01*
X26923624Y-115324710D01*
X26979974Y-115151283D01*
X27008500Y-114971176D01*
X27008500Y-114788824D01*
X26991264Y-114680000D01*
X36772150Y-114680000D01*
X37425735Y-114680000D01*
X37409940Y-114695795D01*
X37370444Y-114764204D01*
X37350000Y-114840504D01*
X37350000Y-114919496D01*
X37370444Y-114995796D01*
X37409940Y-115064205D01*
X37425735Y-115080000D01*
X36772150Y-115080000D01*
X36784586Y-115142520D01*
X36784588Y-115142525D01*
X36852430Y-115306310D01*
X36950921Y-115453712D01*
X36950926Y-115453719D01*
X37076280Y-115579073D01*
X37076287Y-115579078D01*
X37223689Y-115677569D01*
X37387474Y-115745411D01*
X37387479Y-115745413D01*
X37561355Y-115779999D01*
X37561359Y-115780000D01*
X37900000Y-115780000D01*
X37900000Y-115180000D01*
X38300000Y-115180000D01*
X38300000Y-115780000D01*
X38638641Y-115780000D01*
X38638644Y-115779999D01*
X38812520Y-115745413D01*
X38812525Y-115745411D01*
X38976310Y-115677569D01*
X39123712Y-115579078D01*
X39123719Y-115579073D01*
X39249073Y-115453719D01*
X39249078Y-115453712D01*
X39347569Y-115306310D01*
X39415411Y-115142525D01*
X39415413Y-115142520D01*
X39427850Y-115080000D01*
X38774265Y-115080000D01*
X38790060Y-115064205D01*
X38829556Y-114995796D01*
X38850000Y-114919496D01*
X38850000Y-114840504D01*
X38829556Y-114764204D01*
X38790060Y-114695795D01*
X38774265Y-114680000D01*
X39427849Y-114680000D01*
X48202150Y-114680000D01*
X48855735Y-114680000D01*
X48839940Y-114695795D01*
X48800444Y-114764204D01*
X48780000Y-114840504D01*
X48780000Y-114919496D01*
X48800444Y-114995796D01*
X48839940Y-115064205D01*
X48855735Y-115080000D01*
X48202150Y-115080000D01*
X48214586Y-115142520D01*
X48214588Y-115142525D01*
X48282430Y-115306310D01*
X48380921Y-115453712D01*
X48380926Y-115453719D01*
X48506280Y-115579073D01*
X48506287Y-115579078D01*
X48653689Y-115677569D01*
X48817474Y-115745411D01*
X48817479Y-115745413D01*
X48991355Y-115779999D01*
X48991359Y-115780000D01*
X49330000Y-115780000D01*
X49330000Y-115180000D01*
X49730000Y-115180000D01*
X49730000Y-115780000D01*
X50068641Y-115780000D01*
X50068644Y-115779999D01*
X50242520Y-115745413D01*
X50242525Y-115745411D01*
X50406310Y-115677569D01*
X50553712Y-115579078D01*
X50553719Y-115579073D01*
X50679073Y-115453719D01*
X50679078Y-115453712D01*
X50777569Y-115306310D01*
X50845411Y-115142525D01*
X50845413Y-115142520D01*
X50857850Y-115080000D01*
X50204265Y-115080000D01*
X50220060Y-115064205D01*
X50259556Y-114995796D01*
X50280000Y-114919496D01*
X50280000Y-114840504D01*
X50259556Y-114764204D01*
X50220060Y-114695795D01*
X50204265Y-114680000D01*
X50857849Y-114680000D01*
X50845413Y-114617479D01*
X50845411Y-114617474D01*
X50777569Y-114453689D01*
X50679078Y-114306287D01*
X50679073Y-114306280D01*
X50553719Y-114180926D01*
X50553712Y-114180921D01*
X50406310Y-114082430D01*
X50242525Y-114014588D01*
X50242520Y-114014586D01*
X50068644Y-113980000D01*
X49730000Y-113980000D01*
X49730000Y-114580000D01*
X49330000Y-114580000D01*
X49330000Y-113980000D01*
X48991355Y-113980000D01*
X48817479Y-114014586D01*
X48817474Y-114014588D01*
X48653689Y-114082430D01*
X48506287Y-114180921D01*
X48506280Y-114180926D01*
X48380926Y-114306280D01*
X48380921Y-114306287D01*
X48282430Y-114453689D01*
X48214588Y-114617474D01*
X48214586Y-114617479D01*
X48202150Y-114680000D01*
X39427849Y-114680000D01*
X39415413Y-114617479D01*
X39415411Y-114617474D01*
X39347569Y-114453689D01*
X39249078Y-114306287D01*
X39249073Y-114306280D01*
X39123719Y-114180926D01*
X39123712Y-114180921D01*
X38976310Y-114082430D01*
X38812525Y-114014588D01*
X38812520Y-114014586D01*
X38638644Y-113980000D01*
X38300000Y-113980000D01*
X38300000Y-114580000D01*
X37900000Y-114580000D01*
X37900000Y-113980000D01*
X37561355Y-113980000D01*
X37387479Y-114014586D01*
X37387474Y-114014588D01*
X37223689Y-114082430D01*
X37076287Y-114180921D01*
X37076280Y-114180926D01*
X36950926Y-114306280D01*
X36950921Y-114306287D01*
X36852430Y-114453689D01*
X36784588Y-114617474D01*
X36784586Y-114617479D01*
X36772150Y-114680000D01*
X26991264Y-114680000D01*
X26979974Y-114608717D01*
X26923624Y-114435290D01*
X26840838Y-114272814D01*
X26733654Y-114125288D01*
X26733651Y-114125285D01*
X26733649Y-114125282D01*
X26604717Y-113996350D01*
X26604714Y-113996348D01*
X26604712Y-113996346D01*
X26493662Y-113915664D01*
X26457189Y-113889164D01*
X26457188Y-113889163D01*
X26457186Y-113889162D01*
X26294710Y-113806376D01*
X26294709Y-113806375D01*
X26294706Y-113806374D01*
X26121288Y-113750027D01*
X26121284Y-113750026D01*
X26121283Y-113750026D01*
X25971211Y-113726257D01*
X25907058Y-113695844D01*
X25881803Y-113664808D01*
X25867878Y-113640689D01*
X25867870Y-113640679D01*
X25759020Y-113531829D01*
X25759010Y-113531821D01*
X25625686Y-113454847D01*
X25618871Y-113453021D01*
X25476977Y-113415000D01*
X25476975Y-113415000D01*
X18313780Y-113415000D01*
X18245659Y-113394998D01*
X18224685Y-113378095D01*
X16228498Y-111381908D01*
X23899500Y-111381908D01*
X23899500Y-111618092D01*
X23936447Y-111851368D01*
X24009432Y-112075992D01*
X24104762Y-112263087D01*
X24116659Y-112286436D01*
X24255484Y-112477512D01*
X24422487Y-112644515D01*
X24538790Y-112729014D01*
X24613567Y-112783343D01*
X24824008Y-112890568D01*
X25048632Y-112963553D01*
X25281908Y-113000500D01*
X25281911Y-113000500D01*
X25518089Y-113000500D01*
X25518092Y-113000500D01*
X25751368Y-112963553D01*
X25975992Y-112890568D01*
X26186433Y-112783343D01*
X26377510Y-112644517D01*
X26544517Y-112477510D01*
X26683343Y-112286433D01*
X26790568Y-112075992D01*
X26863553Y-111851368D01*
X26900500Y-111618092D01*
X26900500Y-111381908D01*
X36599500Y-111381908D01*
X36599500Y-111618092D01*
X36636447Y-111851368D01*
X36709432Y-112075992D01*
X36804762Y-112263087D01*
X36816659Y-112286436D01*
X36955484Y-112477512D01*
X37122487Y-112644515D01*
X37238790Y-112729014D01*
X37313567Y-112783343D01*
X37524008Y-112890568D01*
X37748632Y-112963553D01*
X37981908Y-113000500D01*
X37981911Y-113000500D01*
X38218089Y-113000500D01*
X38218092Y-113000500D01*
X38451368Y-112963553D01*
X38675992Y-112890568D01*
X38886433Y-112783343D01*
X39077510Y-112644517D01*
X39244517Y-112477510D01*
X39383343Y-112286433D01*
X39490568Y-112075992D01*
X39563553Y-111851368D01*
X39600500Y-111618092D01*
X39600500Y-111381908D01*
X48029500Y-111381908D01*
X48029500Y-111618092D01*
X48066447Y-111851368D01*
X48139432Y-112075992D01*
X48234762Y-112263087D01*
X48246659Y-112286436D01*
X48385484Y-112477512D01*
X48552487Y-112644515D01*
X48668790Y-112729014D01*
X48743567Y-112783343D01*
X48954008Y-112890568D01*
X49178632Y-112963553D01*
X49411908Y-113000500D01*
X49411911Y-113000500D01*
X49648089Y-113000500D01*
X49648092Y-113000500D01*
X49881368Y-112963553D01*
X50105992Y-112890568D01*
X50316433Y-112783343D01*
X50507510Y-112644517D01*
X50674517Y-112477510D01*
X50813343Y-112286433D01*
X50920568Y-112075992D01*
X50993553Y-111851368D01*
X51030500Y-111618092D01*
X51030500Y-111381908D01*
X50993553Y-111148632D01*
X50920568Y-110924008D01*
X50813343Y-110713567D01*
X50688699Y-110542010D01*
X50674515Y-110522487D01*
X50507512Y-110355484D01*
X50316436Y-110216659D01*
X50316435Y-110216658D01*
X50316433Y-110216657D01*
X50105992Y-110109432D01*
X49881368Y-110036447D01*
X49648092Y-109999500D01*
X49411908Y-109999500D01*
X49178632Y-110036447D01*
X49178629Y-110036447D01*
X49178628Y-110036448D01*
X48954008Y-110109432D01*
X48954006Y-110109433D01*
X48743563Y-110216659D01*
X48552487Y-110355484D01*
X48385484Y-110522487D01*
X48246659Y-110713563D01*
X48139433Y-110924006D01*
X48139432Y-110924008D01*
X48067310Y-111145977D01*
X48066447Y-111148632D01*
X48029500Y-111381908D01*
X39600500Y-111381908D01*
X39563553Y-111148632D01*
X39490568Y-110924008D01*
X39383343Y-110713567D01*
X39258699Y-110542010D01*
X39244515Y-110522487D01*
X39077512Y-110355484D01*
X38886436Y-110216659D01*
X38886435Y-110216658D01*
X38886433Y-110216657D01*
X38675992Y-110109432D01*
X38451368Y-110036447D01*
X38218092Y-109999500D01*
X37981908Y-109999500D01*
X37748632Y-110036447D01*
X37748629Y-110036447D01*
X37748628Y-110036448D01*
X37524008Y-110109432D01*
X37524006Y-110109433D01*
X37313563Y-110216659D01*
X37122487Y-110355484D01*
X36955484Y-110522487D01*
X36816659Y-110713563D01*
X36709433Y-110924006D01*
X36709432Y-110924008D01*
X36637310Y-111145977D01*
X36636447Y-111148632D01*
X36599500Y-111381908D01*
X26900500Y-111381908D01*
X26863553Y-111148632D01*
X26790568Y-110924008D01*
X26683343Y-110713567D01*
X26558699Y-110542010D01*
X26544515Y-110522487D01*
X26377512Y-110355484D01*
X26186436Y-110216659D01*
X26186435Y-110216658D01*
X26186433Y-110216657D01*
X25975992Y-110109432D01*
X25751368Y-110036447D01*
X25518092Y-109999500D01*
X25281908Y-109999500D01*
X25048632Y-110036447D01*
X25048629Y-110036447D01*
X25048628Y-110036448D01*
X24824008Y-110109432D01*
X24824006Y-110109433D01*
X24613563Y-110216659D01*
X24422487Y-110355484D01*
X24255484Y-110522487D01*
X24116659Y-110713563D01*
X24009433Y-110924006D01*
X24009432Y-110924008D01*
X23937310Y-111145977D01*
X23936447Y-111148632D01*
X23899500Y-111381908D01*
X16228498Y-111381908D01*
X12536344Y-107689754D01*
X12502318Y-107627442D01*
X12507383Y-107556627D01*
X12549930Y-107499791D01*
X12551270Y-107498802D01*
X12652139Y-107425517D01*
X12775517Y-107302139D01*
X12878074Y-107160981D01*
X12957288Y-107005516D01*
X13011205Y-106839574D01*
X13038500Y-106667241D01*
X13038500Y-106492759D01*
X13036497Y-106480112D01*
X13045595Y-106409701D01*
X13091316Y-106355387D01*
X13159144Y-106334413D01*
X13160945Y-106334400D01*
X23669055Y-106334400D01*
X23737176Y-106354402D01*
X23783669Y-106408058D01*
X23793773Y-106478332D01*
X23793503Y-106480112D01*
X23791500Y-106492759D01*
X23791500Y-106667241D01*
X23818795Y-106839574D01*
X23818796Y-106839577D01*
X23861782Y-106971878D01*
X23872712Y-107005516D01*
X23951926Y-107160981D01*
X24054483Y-107302139D01*
X24054485Y-107302141D01*
X24054487Y-107302144D01*
X24177855Y-107425512D01*
X24177858Y-107425514D01*
X24177861Y-107425517D01*
X24319019Y-107528074D01*
X24474484Y-107607288D01*
X24640426Y-107661205D01*
X24812759Y-107688500D01*
X24812762Y-107688500D01*
X25987238Y-107688500D01*
X25987241Y-107688500D01*
X26159574Y-107661205D01*
X26325516Y-107607288D01*
X26480981Y-107528074D01*
X26622139Y-107425517D01*
X26745517Y-107302139D01*
X26848074Y-107160981D01*
X26927288Y-107005516D01*
X26981205Y-106839574D01*
X27008500Y-106667241D01*
X27008500Y-106492759D01*
X26981205Y-106320426D01*
X26927288Y-106154484D01*
X26927286Y-106154480D01*
X26926102Y-106151621D01*
X26925975Y-106150445D01*
X26925758Y-106149776D01*
X26925898Y-106149730D01*
X26918510Y-106081032D01*
X26950288Y-106017544D01*
X27011345Y-105981315D01*
X27042509Y-105977400D01*
X36457491Y-105977400D01*
X36525612Y-105997402D01*
X36572105Y-106051058D01*
X36582209Y-106121332D01*
X36573898Y-106151621D01*
X36572713Y-106154480D01*
X36534907Y-106270839D01*
X36518795Y-106320426D01*
X36491500Y-106492759D01*
X36491500Y-106667241D01*
X36518795Y-106839574D01*
X36518796Y-106839577D01*
X36561782Y-106971878D01*
X36572712Y-107005516D01*
X36651926Y-107160981D01*
X36754483Y-107302139D01*
X36754485Y-107302141D01*
X36754487Y-107302144D01*
X36877855Y-107425512D01*
X36877858Y-107425514D01*
X36877861Y-107425517D01*
X37019019Y-107528074D01*
X37174484Y-107607288D01*
X37340426Y-107661205D01*
X37512759Y-107688500D01*
X37512762Y-107688500D01*
X38687238Y-107688500D01*
X38687241Y-107688500D01*
X38859574Y-107661205D01*
X39025516Y-107607288D01*
X39180981Y-107528074D01*
X39322139Y-107425517D01*
X39445517Y-107302139D01*
X39548074Y-107160981D01*
X39627288Y-107005516D01*
X39681205Y-106839574D01*
X39708500Y-106667241D01*
X39708500Y-106492759D01*
X39681205Y-106320426D01*
X39627288Y-106154484D01*
X39548074Y-105999019D01*
X39445517Y-105857861D01*
X39445514Y-105857858D01*
X39445512Y-105857855D01*
X39322141Y-105734484D01*
X39244309Y-105677936D01*
X39200955Y-105621713D01*
X39194880Y-105550977D01*
X39228012Y-105488186D01*
X39289832Y-105453274D01*
X39318370Y-105450000D01*
X48311630Y-105450000D01*
X48379751Y-105470002D01*
X48426244Y-105523658D01*
X48436348Y-105593932D01*
X48406854Y-105658512D01*
X48385691Y-105677936D01*
X48307858Y-105734484D01*
X48184487Y-105857855D01*
X48184485Y-105857858D01*
X48081928Y-105999015D01*
X48002713Y-106154482D01*
X48002710Y-106154488D01*
X47964238Y-106272896D01*
X47948795Y-106320426D01*
X47921500Y-106492759D01*
X47921500Y-106667241D01*
X47948795Y-106839574D01*
X47948796Y-106839577D01*
X47991782Y-106971878D01*
X48002712Y-107005516D01*
X48081926Y-107160981D01*
X48184483Y-107302139D01*
X48184485Y-107302141D01*
X48184487Y-107302144D01*
X48307855Y-107425512D01*
X48307858Y-107425514D01*
X48307861Y-107425517D01*
X48449019Y-107528074D01*
X48604484Y-107607288D01*
X48770426Y-107661205D01*
X48942759Y-107688500D01*
X48942762Y-107688500D01*
X50117238Y-107688500D01*
X50117241Y-107688500D01*
X50289574Y-107661205D01*
X50455516Y-107607288D01*
X50610981Y-107528074D01*
X50752139Y-107425517D01*
X50875517Y-107302139D01*
X50978074Y-107160981D01*
X51057288Y-107005516D01*
X51111205Y-106839574D01*
X51138500Y-106667241D01*
X51138500Y-106492759D01*
X51111205Y-106320426D01*
X51057288Y-106154484D01*
X50978074Y-105999019D01*
X50875517Y-105857861D01*
X50875514Y-105857858D01*
X50875512Y-105857855D01*
X50752144Y-105734487D01*
X50752141Y-105734485D01*
X50752140Y-105734484D01*
X50752139Y-105734483D01*
X50644368Y-105656183D01*
X50610984Y-105631928D01*
X50610983Y-105631927D01*
X50610981Y-105631926D01*
X50455516Y-105552712D01*
X50455513Y-105552711D01*
X50455511Y-105552710D01*
X50289577Y-105498796D01*
X50289574Y-105498795D01*
X50193449Y-105483570D01*
X50117231Y-105471498D01*
X50112303Y-105471111D01*
X50112385Y-105470062D01*
X50049160Y-105451498D01*
X50008162Y-105408501D01*
X50002108Y-105398016D01*
X49997876Y-105390685D01*
X49702285Y-105095094D01*
X49668261Y-105032783D01*
X49673325Y-104961968D01*
X49715872Y-104905132D01*
X49782392Y-104880321D01*
X49791381Y-104880000D01*
X49968641Y-104880000D01*
X49968644Y-104879999D01*
X50142520Y-104845413D01*
X50142525Y-104845411D01*
X50306310Y-104777569D01*
X50453712Y-104679078D01*
X50453719Y-104679073D01*
X50579073Y-104553719D01*
X50579078Y-104553712D01*
X50677569Y-104406310D01*
X50745411Y-104242525D01*
X50745413Y-104242520D01*
X50757850Y-104180000D01*
X50104265Y-104180000D01*
X50120060Y-104164205D01*
X50159556Y-104095796D01*
X50180000Y-104019496D01*
X50180000Y-103940504D01*
X50159556Y-103864204D01*
X50120060Y-103795795D01*
X50104265Y-103780000D01*
X50757849Y-103780000D01*
X50745413Y-103717479D01*
X50745411Y-103717474D01*
X50677569Y-103553689D01*
X50579078Y-103406287D01*
X50579073Y-103406280D01*
X50453719Y-103280926D01*
X50453712Y-103280921D01*
X50306310Y-103182430D01*
X50142525Y-103114588D01*
X50142520Y-103114586D01*
X49968644Y-103080000D01*
X49730000Y-103080000D01*
X49730000Y-103680000D01*
X49330000Y-103680000D01*
X49330000Y-103080000D01*
X49091355Y-103080000D01*
X48917479Y-103114586D01*
X48917474Y-103114588D01*
X48753689Y-103182430D01*
X48606287Y-103280921D01*
X48606280Y-103280926D01*
X48480926Y-103406280D01*
X48480921Y-103406287D01*
X48382430Y-103553689D01*
X48314588Y-103717474D01*
X48314586Y-103717479D01*
X48302150Y-103780000D01*
X48955735Y-103780000D01*
X48939940Y-103795795D01*
X48900444Y-103864204D01*
X48880000Y-103940504D01*
X48880000Y-104019496D01*
X48900444Y-104095796D01*
X48939940Y-104164205D01*
X48955735Y-104180000D01*
X48302150Y-104180000D01*
X48285970Y-104199715D01*
X48285879Y-104200735D01*
X48242323Y-104256801D01*
X48175370Y-104280420D01*
X48168629Y-104280600D01*
X39461371Y-104280600D01*
X39393250Y-104260598D01*
X39346757Y-104206942D01*
X39346076Y-104202209D01*
X39327850Y-104180000D01*
X38674265Y-104180000D01*
X38690060Y-104164205D01*
X38729556Y-104095796D01*
X38750000Y-104019496D01*
X38750000Y-103940504D01*
X38729556Y-103864204D01*
X38690060Y-103795795D01*
X38674265Y-103780000D01*
X39327849Y-103780000D01*
X39315413Y-103717479D01*
X39315411Y-103717474D01*
X39247569Y-103553689D01*
X39149078Y-103406287D01*
X39149073Y-103406280D01*
X39023719Y-103280926D01*
X39023712Y-103280921D01*
X38876310Y-103182430D01*
X38712525Y-103114588D01*
X38712520Y-103114586D01*
X38538644Y-103080000D01*
X38300000Y-103080000D01*
X38300000Y-103680000D01*
X37900000Y-103680000D01*
X37900000Y-103080000D01*
X37661355Y-103080000D01*
X37487479Y-103114586D01*
X37487474Y-103114588D01*
X37323689Y-103182430D01*
X37176287Y-103280921D01*
X37176280Y-103280926D01*
X37050926Y-103406280D01*
X37050921Y-103406287D01*
X36952430Y-103553689D01*
X36884588Y-103717474D01*
X36884586Y-103717479D01*
X36872150Y-103780000D01*
X37525735Y-103780000D01*
X37509940Y-103795795D01*
X37470444Y-103864204D01*
X37450000Y-103940504D01*
X37450000Y-104019496D01*
X37470444Y-104095796D01*
X37509940Y-104164205D01*
X37525735Y-104180000D01*
X36872150Y-104180000D01*
X36855970Y-104199715D01*
X36855879Y-104200735D01*
X36812323Y-104256801D01*
X36745370Y-104280420D01*
X36738629Y-104280600D01*
X26761371Y-104280600D01*
X26693250Y-104260598D01*
X26646757Y-104206942D01*
X26646076Y-104202209D01*
X26627850Y-104180000D01*
X25974265Y-104180000D01*
X25990060Y-104164205D01*
X26029556Y-104095796D01*
X26050000Y-104019496D01*
X26050000Y-103940504D01*
X26029556Y-103864204D01*
X25990060Y-103795795D01*
X25974265Y-103780000D01*
X26627849Y-103780000D01*
X26615413Y-103717479D01*
X26615411Y-103717474D01*
X26547569Y-103553689D01*
X26449078Y-103406287D01*
X26449073Y-103406280D01*
X26323719Y-103280926D01*
X26323712Y-103280921D01*
X26176310Y-103182430D01*
X26012525Y-103114588D01*
X26012520Y-103114586D01*
X25838644Y-103080000D01*
X25600000Y-103080000D01*
X25600000Y-103680000D01*
X25200000Y-103680000D01*
X25200000Y-103080000D01*
X24961355Y-103080000D01*
X24787479Y-103114586D01*
X24787474Y-103114588D01*
X24623689Y-103182430D01*
X24476287Y-103280921D01*
X24476280Y-103280926D01*
X24350926Y-103406280D01*
X24350921Y-103406287D01*
X24252430Y-103553689D01*
X24184588Y-103717474D01*
X24184586Y-103717479D01*
X24172150Y-103780000D01*
X24825735Y-103780000D01*
X24809940Y-103795795D01*
X24770444Y-103864204D01*
X24750000Y-103940504D01*
X24750000Y-104019496D01*
X24770444Y-104095796D01*
X24809940Y-104164205D01*
X24825735Y-104180000D01*
X24172150Y-104180000D01*
X24155970Y-104199715D01*
X24155879Y-104200735D01*
X24112323Y-104256801D01*
X24045370Y-104280420D01*
X24038629Y-104280600D01*
X12791371Y-104280600D01*
X12723250Y-104260598D01*
X12676757Y-104206942D01*
X12676076Y-104202209D01*
X12657850Y-104180000D01*
X12004265Y-104180000D01*
X12020060Y-104164205D01*
X12059556Y-104095796D01*
X12080000Y-104019496D01*
X12080000Y-103940504D01*
X12059556Y-103864204D01*
X12020060Y-103795795D01*
X12004265Y-103780000D01*
X12657849Y-103780000D01*
X12645413Y-103717479D01*
X12645411Y-103717474D01*
X12577569Y-103553689D01*
X12479078Y-103406287D01*
X12479073Y-103406280D01*
X12353719Y-103280926D01*
X12353712Y-103280921D01*
X12206310Y-103182430D01*
X12042525Y-103114588D01*
X12042520Y-103114586D01*
X11868644Y-103080000D01*
X11630000Y-103080000D01*
X11630000Y-103680000D01*
X11230000Y-103680000D01*
X11230000Y-103080000D01*
X10991355Y-103080000D01*
X10817479Y-103114586D01*
X10817474Y-103114588D01*
X10653689Y-103182430D01*
X10506287Y-103280921D01*
X10506280Y-103280926D01*
X10380926Y-103406280D01*
X10380921Y-103406287D01*
X10282430Y-103553689D01*
X10214588Y-103717474D01*
X10214586Y-103717479D01*
X10202150Y-103780000D01*
X10855735Y-103780000D01*
X10839940Y-103795795D01*
X10800444Y-103864204D01*
X10780000Y-103940504D01*
X10780000Y-104019496D01*
X10800444Y-104095796D01*
X10839940Y-104164205D01*
X10855735Y-104180000D01*
X10202150Y-104180000D01*
X10185970Y-104199715D01*
X10185879Y-104200735D01*
X10142323Y-104256801D01*
X10075370Y-104280420D01*
X10068629Y-104280600D01*
X3240435Y-104280600D01*
X3227048Y-104277363D01*
X3216781Y-104278360D01*
X3190090Y-104268428D01*
X3182872Y-104266683D01*
X3180129Y-104265274D01*
X3075986Y-104205147D01*
X3048942Y-104197900D01*
X3036982Y-104191758D01*
X3020604Y-104176190D01*
X3001311Y-104164430D01*
X2988074Y-104145268D01*
X2985524Y-104142844D01*
X2985044Y-104140882D01*
X2982280Y-104136880D01*
X2931894Y-104037991D01*
X2806206Y-103864996D01*
X2806204Y-103864993D01*
X2655009Y-103713798D01*
X2655006Y-103713796D01*
X2655004Y-103713794D01*
X2482009Y-103588106D01*
X2482007Y-103588105D01*
X2480920Y-103587439D01*
X2480591Y-103587075D01*
X2478004Y-103585196D01*
X2478398Y-103584652D01*
X2433283Y-103534796D01*
X2421670Y-103464756D01*
X2449766Y-103399555D01*
X2478130Y-103374978D01*
X2478004Y-103374804D01*
X2480030Y-103373331D01*
X2480920Y-103372561D01*
X2481997Y-103371899D01*
X2482009Y-103371894D01*
X2655004Y-103246206D01*
X2806206Y-103095004D01*
X2931894Y-102922009D01*
X3028972Y-102731483D01*
X3095049Y-102528116D01*
X3128500Y-102316916D01*
X3128500Y-102103084D01*
X3095049Y-101891884D01*
X3028972Y-101688517D01*
X2931894Y-101497991D01*
X2806206Y-101324996D01*
X2806203Y-101324993D01*
X2806201Y-101324990D01*
X2655009Y-101173798D01*
X2655006Y-101173796D01*
X2655004Y-101173794D01*
X2482009Y-101048106D01*
X2479341Y-101046746D01*
X2472959Y-101042136D01*
X2454018Y-101017710D01*
X2433283Y-100994796D01*
X2432476Y-100989929D01*
X2429453Y-100986031D01*
X2426724Y-100955239D01*
X2421670Y-100924756D01*
X2423621Y-100920226D01*
X2423186Y-100915311D01*
X2437537Y-100887932D01*
X2449766Y-100859555D01*
X2454615Y-100855352D01*
X2456148Y-100852430D01*
X2461497Y-100849389D01*
X2478130Y-100834978D01*
X2478004Y-100834804D01*
X2480030Y-100833331D01*
X2480920Y-100832561D01*
X2481997Y-100831899D01*
X2482009Y-100831894D01*
X2655004Y-100706206D01*
X2681210Y-100680000D01*
X10102150Y-100680000D01*
X10755735Y-100680000D01*
X10739940Y-100695795D01*
X10700444Y-100764204D01*
X10680000Y-100840504D01*
X10680000Y-100919496D01*
X10700444Y-100995796D01*
X10739940Y-101064205D01*
X10755735Y-101080000D01*
X10102150Y-101080000D01*
X10114586Y-101142520D01*
X10114588Y-101142525D01*
X10182430Y-101306310D01*
X10280921Y-101453712D01*
X10280926Y-101453719D01*
X10406280Y-101579073D01*
X10406287Y-101579078D01*
X10553689Y-101677569D01*
X10717474Y-101745411D01*
X10717479Y-101745413D01*
X10891355Y-101779999D01*
X10891359Y-101780000D01*
X11230000Y-101780000D01*
X11230000Y-101180000D01*
X11630000Y-101180000D01*
X11630000Y-101780000D01*
X11968641Y-101780000D01*
X11968644Y-101779999D01*
X12142520Y-101745413D01*
X12142525Y-101745411D01*
X12306310Y-101677569D01*
X12453712Y-101579078D01*
X12453719Y-101579073D01*
X12579073Y-101453719D01*
X12579078Y-101453712D01*
X12677569Y-101306310D01*
X12745411Y-101142525D01*
X12745413Y-101142520D01*
X12757850Y-101080000D01*
X12104265Y-101080000D01*
X12120060Y-101064205D01*
X12159556Y-100995796D01*
X12180000Y-100919496D01*
X12180000Y-100840504D01*
X12159556Y-100764204D01*
X12120060Y-100695795D01*
X12104265Y-100680000D01*
X12757849Y-100680000D01*
X24072150Y-100680000D01*
X24725735Y-100680000D01*
X24709940Y-100695795D01*
X24670444Y-100764204D01*
X24650000Y-100840504D01*
X24650000Y-100919496D01*
X24670444Y-100995796D01*
X24709940Y-101064205D01*
X24725735Y-101080000D01*
X24072150Y-101080000D01*
X24084586Y-101142520D01*
X24084588Y-101142525D01*
X24152430Y-101306310D01*
X24250921Y-101453712D01*
X24250926Y-101453719D01*
X24376280Y-101579073D01*
X24376287Y-101579078D01*
X24523689Y-101677569D01*
X24687474Y-101745411D01*
X24687479Y-101745413D01*
X24861355Y-101779999D01*
X24861359Y-101780000D01*
X25200000Y-101780000D01*
X25200000Y-101180000D01*
X25600000Y-101180000D01*
X25600000Y-101780000D01*
X25938641Y-101780000D01*
X25938644Y-101779999D01*
X26112520Y-101745413D01*
X26112525Y-101745411D01*
X26276310Y-101677569D01*
X26423712Y-101579078D01*
X26423719Y-101579073D01*
X26549073Y-101453719D01*
X26549078Y-101453712D01*
X26647569Y-101306310D01*
X26715411Y-101142525D01*
X26715413Y-101142520D01*
X26727850Y-101080000D01*
X26074265Y-101080000D01*
X26090060Y-101064205D01*
X26129556Y-100995796D01*
X26150000Y-100919496D01*
X26150000Y-100840504D01*
X26129556Y-100764204D01*
X26090060Y-100695795D01*
X26074265Y-100680000D01*
X26727849Y-100680000D01*
X36772150Y-100680000D01*
X37425735Y-100680000D01*
X37409940Y-100695795D01*
X37370444Y-100764204D01*
X37350000Y-100840504D01*
X37350000Y-100919496D01*
X37370444Y-100995796D01*
X37409940Y-101064205D01*
X37425735Y-101080000D01*
X36772150Y-101080000D01*
X36784586Y-101142520D01*
X36784588Y-101142525D01*
X36852430Y-101306310D01*
X36950921Y-101453712D01*
X36950926Y-101453719D01*
X37076280Y-101579073D01*
X37076287Y-101579078D01*
X37223689Y-101677569D01*
X37387474Y-101745411D01*
X37387479Y-101745413D01*
X37561355Y-101779999D01*
X37561359Y-101780000D01*
X37900000Y-101780000D01*
X37900000Y-101180000D01*
X38300000Y-101180000D01*
X38300000Y-101780000D01*
X38638641Y-101780000D01*
X38638644Y-101779999D01*
X38812520Y-101745413D01*
X38812525Y-101745411D01*
X38976310Y-101677569D01*
X39123712Y-101579078D01*
X39123719Y-101579073D01*
X39249073Y-101453719D01*
X39249078Y-101453712D01*
X39347569Y-101306310D01*
X39415411Y-101142525D01*
X39415413Y-101142520D01*
X39427850Y-101080000D01*
X38774265Y-101080000D01*
X38790060Y-101064205D01*
X38829556Y-100995796D01*
X38850000Y-100919496D01*
X38850000Y-100840504D01*
X38829556Y-100764204D01*
X38790060Y-100695795D01*
X38774265Y-100680000D01*
X39427849Y-100680000D01*
X39415413Y-100617479D01*
X39415411Y-100617474D01*
X39347569Y-100453689D01*
X39249078Y-100306287D01*
X39249073Y-100306280D01*
X39123719Y-100180926D01*
X39123712Y-100180921D01*
X38976310Y-100082430D01*
X38812525Y-100014588D01*
X38812520Y-100014586D01*
X38638644Y-99980000D01*
X38300000Y-99980000D01*
X38300000Y-100580000D01*
X37900000Y-100580000D01*
X37900000Y-99980000D01*
X37561355Y-99980000D01*
X37387479Y-100014586D01*
X37387474Y-100014588D01*
X37223689Y-100082430D01*
X37076287Y-100180921D01*
X37076280Y-100180926D01*
X36950926Y-100306280D01*
X36950921Y-100306287D01*
X36852430Y-100453689D01*
X36784588Y-100617474D01*
X36784586Y-100617479D01*
X36772150Y-100680000D01*
X26727849Y-100680000D01*
X26715413Y-100617479D01*
X26715411Y-100617474D01*
X26647569Y-100453689D01*
X26549078Y-100306287D01*
X26549073Y-100306280D01*
X26423719Y-100180926D01*
X26423712Y-100180921D01*
X26276310Y-100082430D01*
X26112525Y-100014588D01*
X26112520Y-100014586D01*
X25938644Y-99980000D01*
X25600000Y-99980000D01*
X25600000Y-100580000D01*
X25200000Y-100580000D01*
X25200000Y-99980000D01*
X24861355Y-99980000D01*
X24687479Y-100014586D01*
X24687474Y-100014588D01*
X24523689Y-100082430D01*
X24376287Y-100180921D01*
X24376280Y-100180926D01*
X24250926Y-100306280D01*
X24250921Y-100306287D01*
X24152430Y-100453689D01*
X24084588Y-100617474D01*
X24084586Y-100617479D01*
X24072150Y-100680000D01*
X12757849Y-100680000D01*
X12745413Y-100617479D01*
X12745411Y-100617474D01*
X12677569Y-100453689D01*
X12579078Y-100306287D01*
X12579073Y-100306280D01*
X12453719Y-100180926D01*
X12453712Y-100180921D01*
X12306310Y-100082430D01*
X12142525Y-100014588D01*
X12142520Y-100014586D01*
X11968644Y-99980000D01*
X11630000Y-99980000D01*
X11630000Y-100580000D01*
X11230000Y-100580000D01*
X11230000Y-99980000D01*
X10891355Y-99980000D01*
X10717479Y-100014586D01*
X10717474Y-100014588D01*
X10553689Y-100082430D01*
X10406287Y-100180921D01*
X10406280Y-100180926D01*
X10280926Y-100306280D01*
X10280921Y-100306287D01*
X10182430Y-100453689D01*
X10114588Y-100617474D01*
X10114586Y-100617479D01*
X10102150Y-100680000D01*
X2681210Y-100680000D01*
X2736439Y-100624772D01*
X2806201Y-100555009D01*
X2806206Y-100555004D01*
X2931894Y-100382009D01*
X3028972Y-100191483D01*
X3095049Y-99988116D01*
X3128500Y-99776916D01*
X3128500Y-99563084D01*
X3095049Y-99351884D01*
X3028972Y-99148517D01*
X2931894Y-98957991D01*
X2806206Y-98784996D01*
X2806203Y-98784993D01*
X2806201Y-98784990D01*
X2655009Y-98633798D01*
X2655006Y-98633796D01*
X2655004Y-98633794D01*
X2482009Y-98508106D01*
X2291483Y-98411028D01*
X2291480Y-98411027D01*
X2291478Y-98411026D01*
X2088120Y-98344952D01*
X2088123Y-98344952D01*
X2033092Y-98336236D01*
X1876916Y-98311500D01*
X1663084Y-98311500D01*
X1451884Y-98344951D01*
X1451878Y-98344952D01*
X1248521Y-98411026D01*
X1248515Y-98411029D01*
X1057987Y-98508108D01*
X884993Y-98633796D01*
X884990Y-98633798D01*
X790595Y-98728194D01*
X728283Y-98762220D01*
X657468Y-98757155D01*
X600632Y-98714608D01*
X575821Y-98648088D01*
X575500Y-98639099D01*
X575500Y-97381908D01*
X9929500Y-97381908D01*
X9929500Y-97618092D01*
X9966447Y-97851368D01*
X10039432Y-98075992D01*
X10142361Y-98278001D01*
X10146659Y-98286436D01*
X10285484Y-98477512D01*
X10452487Y-98644515D01*
X10548962Y-98714608D01*
X10643567Y-98783343D01*
X10854008Y-98890568D01*
X11078632Y-98963553D01*
X11311908Y-99000500D01*
X11311911Y-99000500D01*
X11548089Y-99000500D01*
X11548092Y-99000500D01*
X11781368Y-98963553D01*
X12005992Y-98890568D01*
X12216433Y-98783343D01*
X12407510Y-98644517D01*
X12574517Y-98477510D01*
X12713343Y-98286433D01*
X12820568Y-98075992D01*
X12893553Y-97851368D01*
X12930500Y-97618092D01*
X12930500Y-97381908D01*
X23899500Y-97381908D01*
X23899500Y-97618092D01*
X23936447Y-97851368D01*
X24009432Y-98075992D01*
X24112361Y-98278001D01*
X24116659Y-98286436D01*
X24255484Y-98477512D01*
X24422487Y-98644515D01*
X24518962Y-98714608D01*
X24613567Y-98783343D01*
X24824008Y-98890568D01*
X25048632Y-98963553D01*
X25281908Y-99000500D01*
X25281911Y-99000500D01*
X25518089Y-99000500D01*
X25518092Y-99000500D01*
X25751368Y-98963553D01*
X25975992Y-98890568D01*
X26186433Y-98783343D01*
X26377510Y-98644517D01*
X26544517Y-98477510D01*
X26683343Y-98286433D01*
X26790568Y-98075992D01*
X26863553Y-97851368D01*
X26900500Y-97618092D01*
X26900500Y-97381908D01*
X36599500Y-97381908D01*
X36599500Y-97618092D01*
X36636447Y-97851368D01*
X36709432Y-98075992D01*
X36812361Y-98278001D01*
X36816659Y-98286436D01*
X36955484Y-98477512D01*
X37122487Y-98644515D01*
X37218962Y-98714608D01*
X37313567Y-98783343D01*
X37524008Y-98890568D01*
X37748632Y-98963553D01*
X37981908Y-99000500D01*
X37981911Y-99000500D01*
X38218089Y-99000500D01*
X38218092Y-99000500D01*
X38451368Y-98963553D01*
X38675992Y-98890568D01*
X38886433Y-98783343D01*
X39077510Y-98644517D01*
X39244517Y-98477510D01*
X39383343Y-98286433D01*
X39490568Y-98075992D01*
X39563553Y-97851368D01*
X39600500Y-97618092D01*
X39600500Y-97381908D01*
X39563553Y-97148632D01*
X39490568Y-96924008D01*
X39383343Y-96713567D01*
X39244517Y-96522490D01*
X39244515Y-96522487D01*
X39077512Y-96355484D01*
X38886436Y-96216659D01*
X38886435Y-96216658D01*
X38886433Y-96216657D01*
X38675992Y-96109432D01*
X38451368Y-96036447D01*
X38218092Y-95999500D01*
X37981908Y-95999500D01*
X37748632Y-96036447D01*
X37748629Y-96036447D01*
X37748628Y-96036448D01*
X37524008Y-96109432D01*
X37524006Y-96109433D01*
X37313563Y-96216659D01*
X37122487Y-96355484D01*
X36955484Y-96522487D01*
X36816659Y-96713563D01*
X36816657Y-96713567D01*
X36709432Y-96924008D01*
X36636447Y-97148632D01*
X36599500Y-97381908D01*
X26900500Y-97381908D01*
X26863553Y-97148632D01*
X26790568Y-96924008D01*
X26683343Y-96713567D01*
X26544517Y-96522490D01*
X26544515Y-96522487D01*
X26377512Y-96355484D01*
X26186436Y-96216659D01*
X26186435Y-96216658D01*
X26186433Y-96216657D01*
X25975992Y-96109432D01*
X25751368Y-96036447D01*
X25518092Y-95999500D01*
X25281908Y-95999500D01*
X25048632Y-96036447D01*
X25048629Y-96036447D01*
X25048628Y-96036448D01*
X24824008Y-96109432D01*
X24824006Y-96109433D01*
X24613563Y-96216659D01*
X24422487Y-96355484D01*
X24255484Y-96522487D01*
X24116659Y-96713563D01*
X24116657Y-96713567D01*
X24009432Y-96924008D01*
X23936447Y-97148632D01*
X23899500Y-97381908D01*
X12930500Y-97381908D01*
X12893553Y-97148632D01*
X12820568Y-96924008D01*
X12713343Y-96713567D01*
X12574517Y-96522490D01*
X12574515Y-96522487D01*
X12407512Y-96355484D01*
X12216436Y-96216659D01*
X12216435Y-96216658D01*
X12216433Y-96216657D01*
X12005992Y-96109432D01*
X11781368Y-96036447D01*
X11548092Y-95999500D01*
X11311908Y-95999500D01*
X11078632Y-96036447D01*
X11078629Y-96036447D01*
X11078628Y-96036448D01*
X10854008Y-96109432D01*
X10854006Y-96109433D01*
X10643563Y-96216659D01*
X10452487Y-96355484D01*
X10285484Y-96522487D01*
X10146659Y-96713563D01*
X10146657Y-96713567D01*
X10039432Y-96924008D01*
X9966447Y-97148632D01*
X9929500Y-97381908D01*
X575500Y-97381908D01*
X575500Y-95620901D01*
X595502Y-95552780D01*
X649158Y-95506287D01*
X719432Y-95496183D01*
X784012Y-95525677D01*
X790595Y-95531806D01*
X884990Y-95626201D01*
X884993Y-95626203D01*
X884996Y-95626206D01*
X1057991Y-95751894D01*
X1248517Y-95848972D01*
X1451878Y-95915047D01*
X1451879Y-95915047D01*
X1451884Y-95915049D01*
X1663084Y-95948500D01*
X1663087Y-95948500D01*
X1876913Y-95948500D01*
X1876916Y-95948500D01*
X2088116Y-95915049D01*
X2291483Y-95848972D01*
X2482009Y-95751894D01*
X2655004Y-95626206D01*
X2806206Y-95475004D01*
X2931894Y-95302009D01*
X3028972Y-95111483D01*
X3095049Y-94908116D01*
X3128500Y-94696916D01*
X3128500Y-94483084D01*
X3095049Y-94271884D01*
X3028972Y-94068517D01*
X2931894Y-93877991D01*
X2806206Y-93704996D01*
X2806203Y-93704993D01*
X2806201Y-93704990D01*
X2655009Y-93553798D01*
X2655006Y-93553796D01*
X2655004Y-93553794D01*
X2482009Y-93428106D01*
X2291483Y-93331028D01*
X2291480Y-93331027D01*
X2291478Y-93331026D01*
X2088120Y-93264952D01*
X2088123Y-93264952D01*
X2048801Y-93258724D01*
X1876916Y-93231500D01*
X1663084Y-93231500D01*
X1451884Y-93264951D01*
X1451878Y-93264952D01*
X1248521Y-93331026D01*
X1248515Y-93331029D01*
X1057987Y-93428108D01*
X884993Y-93553796D01*
X884990Y-93553798D01*
X790595Y-93648194D01*
X728283Y-93682220D01*
X657468Y-93677155D01*
X600632Y-93634608D01*
X575821Y-93568088D01*
X575500Y-93559099D01*
X575500Y-88780000D01*
X10202150Y-88780000D01*
X10855735Y-88780000D01*
X10839940Y-88795795D01*
X10800444Y-88864204D01*
X10780000Y-88940504D01*
X10780000Y-89019496D01*
X10800444Y-89095796D01*
X10839940Y-89164205D01*
X10855735Y-89180000D01*
X10202150Y-89180000D01*
X10214586Y-89242520D01*
X10214588Y-89242525D01*
X10282430Y-89406310D01*
X10380921Y-89553712D01*
X10380926Y-89553719D01*
X10506280Y-89679073D01*
X10506287Y-89679078D01*
X10653689Y-89777569D01*
X10817474Y-89845411D01*
X10817479Y-89845413D01*
X10991355Y-89879999D01*
X10991359Y-89880000D01*
X11230000Y-89880000D01*
X11230000Y-89280000D01*
X11630000Y-89280000D01*
X11630000Y-89880000D01*
X11868641Y-89880000D01*
X11868644Y-89879999D01*
X12042520Y-89845413D01*
X12042525Y-89845411D01*
X12206310Y-89777569D01*
X12353712Y-89679078D01*
X12353719Y-89679073D01*
X12479073Y-89553719D01*
X12479078Y-89553712D01*
X12577569Y-89406310D01*
X12645411Y-89242525D01*
X12645413Y-89242520D01*
X12657850Y-89180000D01*
X12004265Y-89180000D01*
X12020060Y-89164205D01*
X12059556Y-89095796D01*
X12080000Y-89019496D01*
X12080000Y-88940504D01*
X12059556Y-88864204D01*
X12020060Y-88795795D01*
X12004265Y-88780000D01*
X12657849Y-88780000D01*
X12645413Y-88717479D01*
X12645411Y-88717474D01*
X12577569Y-88553689D01*
X12479078Y-88406287D01*
X12479073Y-88406280D01*
X12353719Y-88280926D01*
X12353712Y-88280921D01*
X12206310Y-88182430D01*
X12042525Y-88114588D01*
X12042520Y-88114586D01*
X11868644Y-88080000D01*
X11630000Y-88080000D01*
X11630000Y-88680000D01*
X11230000Y-88680000D01*
X11230000Y-88080000D01*
X10991355Y-88080000D01*
X10817479Y-88114586D01*
X10817474Y-88114588D01*
X10653689Y-88182430D01*
X10506287Y-88280921D01*
X10506280Y-88280926D01*
X10380926Y-88406280D01*
X10380921Y-88406287D01*
X10282430Y-88553689D01*
X10214588Y-88717474D01*
X10214586Y-88717479D01*
X10202150Y-88780000D01*
X575500Y-88780000D01*
X575500Y-85680000D01*
X10102150Y-85680000D01*
X10755735Y-85680000D01*
X10739940Y-85695795D01*
X10700444Y-85764204D01*
X10680000Y-85840504D01*
X10680000Y-85919496D01*
X10700444Y-85995796D01*
X10739940Y-86064205D01*
X10755735Y-86080000D01*
X10102150Y-86080000D01*
X10114586Y-86142520D01*
X10114588Y-86142525D01*
X10182430Y-86306310D01*
X10280921Y-86453712D01*
X10280926Y-86453719D01*
X10406280Y-86579073D01*
X10406287Y-86579078D01*
X10553689Y-86677569D01*
X10717474Y-86745411D01*
X10717479Y-86745413D01*
X10891355Y-86779999D01*
X10891359Y-86780000D01*
X11230000Y-86780000D01*
X11230000Y-86180000D01*
X11630000Y-86180000D01*
X11630000Y-86780000D01*
X11968641Y-86780000D01*
X11968644Y-86779999D01*
X12142520Y-86745413D01*
X12142525Y-86745411D01*
X12306310Y-86677569D01*
X12453712Y-86579078D01*
X12453719Y-86579073D01*
X12579073Y-86453719D01*
X12579078Y-86453712D01*
X12677569Y-86306310D01*
X12745411Y-86142525D01*
X12745413Y-86142520D01*
X12757850Y-86080000D01*
X12104265Y-86080000D01*
X12120060Y-86064205D01*
X12159556Y-85995796D01*
X12180000Y-85919496D01*
X12180000Y-85840504D01*
X12159556Y-85764204D01*
X12120060Y-85695795D01*
X12104265Y-85680000D01*
X12757849Y-85680000D01*
X12756336Y-85672391D01*
X12745413Y-85617479D01*
X12745411Y-85617474D01*
X12677569Y-85453689D01*
X12579078Y-85306287D01*
X12579073Y-85306280D01*
X12453719Y-85180926D01*
X12453712Y-85180921D01*
X12306310Y-85082430D01*
X12142525Y-85014588D01*
X12142520Y-85014586D01*
X11968644Y-84980000D01*
X11630000Y-84980000D01*
X11630000Y-85580000D01*
X11230000Y-85580000D01*
X11230000Y-84980000D01*
X10891355Y-84980000D01*
X10717479Y-85014586D01*
X10717474Y-85014588D01*
X10553689Y-85082430D01*
X10406287Y-85180921D01*
X10406280Y-85180926D01*
X10280926Y-85306280D01*
X10280921Y-85306287D01*
X10182430Y-85453689D01*
X10114588Y-85617474D01*
X10114586Y-85617479D01*
X10102150Y-85680000D01*
X575500Y-85680000D01*
X575500Y-84575373D01*
X28060000Y-84575373D01*
X28060000Y-85300000D01*
X28805855Y-85300000D01*
X28790667Y-85326306D01*
X28760000Y-85440756D01*
X28760000Y-85559244D01*
X28790667Y-85673694D01*
X28805855Y-85700000D01*
X28060000Y-85700000D01*
X28060000Y-86424626D01*
X28074504Y-86497544D01*
X28074505Y-86497545D01*
X28129759Y-86580240D01*
X28212454Y-86635494D01*
X28212455Y-86635495D01*
X28285373Y-86649999D01*
X28285377Y-86650000D01*
X29010000Y-86650000D01*
X29010000Y-85904145D01*
X29036306Y-85919333D01*
X29150756Y-85950000D01*
X29269244Y-85950000D01*
X29383694Y-85919333D01*
X29410000Y-85904145D01*
X29410000Y-86650000D01*
X30134623Y-86650000D01*
X30134626Y-86649999D01*
X30207544Y-86635495D01*
X30207545Y-86635494D01*
X30290240Y-86580240D01*
X30345494Y-86497545D01*
X30345495Y-86497544D01*
X30359999Y-86424626D01*
X30360000Y-86424622D01*
X30360000Y-86370900D01*
X30380002Y-86302779D01*
X30433658Y-86256286D01*
X30503932Y-86246182D01*
X30568512Y-86275676D01*
X30587936Y-86296839D01*
X30675658Y-86417578D01*
X30832421Y-86574341D01*
X30832424Y-86574343D01*
X31011785Y-86704657D01*
X31209324Y-86805308D01*
X31420176Y-86873818D01*
X31639149Y-86908500D01*
X31639152Y-86908500D01*
X31860848Y-86908500D01*
X31860851Y-86908500D01*
X32079824Y-86873818D01*
X32290676Y-86805308D01*
X32488215Y-86704657D01*
X32667576Y-86574343D01*
X32824343Y-86417576D01*
X32954657Y-86238215D01*
X33055308Y-86040676D01*
X33123818Y-85829824D01*
X33158500Y-85610851D01*
X33158500Y-85389149D01*
X33123818Y-85170176D01*
X33055308Y-84959324D01*
X32954657Y-84761785D01*
X32824343Y-84582424D01*
X32824341Y-84582421D01*
X32667578Y-84425658D01*
X32488218Y-84295345D01*
X32488217Y-84295344D01*
X32488215Y-84295343D01*
X32290676Y-84194692D01*
X32290673Y-84194691D01*
X32290671Y-84194690D01*
X32079829Y-84126183D01*
X32079825Y-84126182D01*
X32079824Y-84126182D01*
X31860851Y-84091500D01*
X31639149Y-84091500D01*
X31420176Y-84126182D01*
X31420170Y-84126183D01*
X31209328Y-84194690D01*
X31209322Y-84194693D01*
X31011781Y-84295345D01*
X30832421Y-84425658D01*
X30675662Y-84582417D01*
X30587936Y-84703161D01*
X30531713Y-84746514D01*
X30460977Y-84752589D01*
X30398185Y-84719457D01*
X30363274Y-84657637D01*
X30360000Y-84629099D01*
X30360000Y-84575377D01*
X30359999Y-84575373D01*
X30345495Y-84502455D01*
X30345494Y-84502454D01*
X30290240Y-84419759D01*
X30207545Y-84364505D01*
X30207544Y-84364504D01*
X30134626Y-84350000D01*
X29410000Y-84350000D01*
X29410000Y-85095854D01*
X29383694Y-85080667D01*
X29269244Y-85050000D01*
X29150756Y-85050000D01*
X29036306Y-85080667D01*
X29010000Y-85095854D01*
X29010000Y-84350000D01*
X28285373Y-84350000D01*
X28212455Y-84364504D01*
X28212454Y-84364505D01*
X28129759Y-84419759D01*
X28074505Y-84502454D01*
X28074504Y-84502455D01*
X28060000Y-84575373D01*
X575500Y-84575373D01*
X575500Y-82381908D01*
X9929500Y-82381908D01*
X9929500Y-82618092D01*
X9966447Y-82851368D01*
X10039432Y-83075992D01*
X10039433Y-83075993D01*
X10146659Y-83286436D01*
X10285484Y-83477512D01*
X10452487Y-83644515D01*
X10452490Y-83644517D01*
X10643567Y-83783343D01*
X10854008Y-83890568D01*
X11078632Y-83963553D01*
X11311908Y-84000500D01*
X11311911Y-84000500D01*
X11548089Y-84000500D01*
X11548092Y-84000500D01*
X11781368Y-83963553D01*
X12005992Y-83890568D01*
X12216433Y-83783343D01*
X12407510Y-83644517D01*
X12574517Y-83477510D01*
X12713343Y-83286433D01*
X12820568Y-83075992D01*
X12893553Y-82851368D01*
X12930500Y-82618092D01*
X12930500Y-82381908D01*
X12893553Y-82148632D01*
X12820568Y-81924008D01*
X12713343Y-81713567D01*
X12574517Y-81522490D01*
X12574515Y-81522487D01*
X12407512Y-81355484D01*
X12216436Y-81216659D01*
X12216435Y-81216658D01*
X12216433Y-81216657D01*
X12005992Y-81109432D01*
X11781368Y-81036447D01*
X11548092Y-80999500D01*
X11311908Y-80999500D01*
X11078632Y-81036447D01*
X11078629Y-81036447D01*
X11078628Y-81036448D01*
X10854008Y-81109432D01*
X10854006Y-81109433D01*
X10643563Y-81216659D01*
X10452487Y-81355484D01*
X10285484Y-81522487D01*
X10146659Y-81713563D01*
X10146657Y-81713567D01*
X10039432Y-81924008D01*
X9966447Y-82148632D01*
X9929500Y-82381908D01*
X575500Y-82381908D01*
X575500Y-77492759D01*
X9821500Y-77492759D01*
X9821500Y-77667241D01*
X9848795Y-77839574D01*
X9902712Y-78005516D01*
X9981926Y-78160981D01*
X10084483Y-78302139D01*
X10084485Y-78302141D01*
X10084487Y-78302144D01*
X10207855Y-78425512D01*
X10207858Y-78425514D01*
X10207861Y-78425517D01*
X10349019Y-78528074D01*
X10504484Y-78607288D01*
X10670426Y-78661205D01*
X10842759Y-78688500D01*
X10842762Y-78688500D01*
X12017238Y-78688500D01*
X12017241Y-78688500D01*
X12189574Y-78661205D01*
X12355516Y-78607288D01*
X12510981Y-78528074D01*
X12652139Y-78425517D01*
X12775517Y-78302139D01*
X12878074Y-78160981D01*
X12957288Y-78005516D01*
X13011205Y-77839574D01*
X13038500Y-77667241D01*
X13038500Y-77492759D01*
X13011205Y-77320426D01*
X12957288Y-77154484D01*
X12878074Y-76999019D01*
X12775517Y-76857861D01*
X12775514Y-76857858D01*
X12775512Y-76857855D01*
X12652144Y-76734487D01*
X12652141Y-76734485D01*
X12652139Y-76734483D01*
X12510981Y-76631926D01*
X12355516Y-76552712D01*
X12355513Y-76552711D01*
X12355511Y-76552710D01*
X12189577Y-76498796D01*
X12189574Y-76498795D01*
X12017241Y-76471500D01*
X10842759Y-76471500D01*
X10670426Y-76498795D01*
X10670423Y-76498795D01*
X10670422Y-76498796D01*
X10504488Y-76552710D01*
X10504482Y-76552713D01*
X10349015Y-76631928D01*
X10207858Y-76734485D01*
X10207855Y-76734487D01*
X10084487Y-76857855D01*
X10084485Y-76857858D01*
X9981928Y-76999015D01*
X9902713Y-77154482D01*
X9902710Y-77154488D01*
X9848796Y-77320422D01*
X9848795Y-77320426D01*
X9821500Y-77492759D01*
X575500Y-77492759D01*
X575500Y-75300901D01*
X595502Y-75232780D01*
X649158Y-75186287D01*
X719432Y-75176183D01*
X784012Y-75205677D01*
X790595Y-75211806D01*
X884990Y-75306201D01*
X884993Y-75306203D01*
X884996Y-75306206D01*
X1057991Y-75431894D01*
X1248517Y-75528972D01*
X1451878Y-75595047D01*
X1451879Y-75595047D01*
X1451884Y-75595049D01*
X1663084Y-75628500D01*
X1663087Y-75628500D01*
X1876913Y-75628500D01*
X1876916Y-75628500D01*
X2088116Y-75595049D01*
X2291483Y-75528972D01*
X2482009Y-75431894D01*
X2655004Y-75306206D01*
X2806206Y-75155004D01*
X2931894Y-74982009D01*
X3028972Y-74791483D01*
X3095049Y-74588116D01*
X3128500Y-74376916D01*
X3128500Y-74163084D01*
X3095049Y-73951884D01*
X3028972Y-73748517D01*
X2931894Y-73557991D01*
X2806206Y-73384996D01*
X2806203Y-73384993D01*
X2806201Y-73384990D01*
X2655009Y-73233798D01*
X2655006Y-73233796D01*
X2655004Y-73233794D01*
X2482009Y-73108106D01*
X2482007Y-73108105D01*
X2480920Y-73107439D01*
X2480591Y-73107075D01*
X2478004Y-73105196D01*
X2478398Y-73104652D01*
X2433283Y-73054796D01*
X2421670Y-72984756D01*
X2449766Y-72919555D01*
X2478130Y-72894978D01*
X2478004Y-72894804D01*
X2480030Y-72893331D01*
X2480920Y-72892561D01*
X2481997Y-72891899D01*
X2482009Y-72891894D01*
X2655004Y-72766206D01*
X2806206Y-72615004D01*
X2931894Y-72442009D01*
X3028972Y-72251483D01*
X3095049Y-72048116D01*
X3128500Y-71836916D01*
X3128500Y-71623084D01*
X3095049Y-71411884D01*
X3028972Y-71208517D01*
X2931894Y-71017991D01*
X2806206Y-70844996D01*
X2806203Y-70844993D01*
X2806201Y-70844990D01*
X2655009Y-70693798D01*
X2655006Y-70693796D01*
X2655004Y-70693794D01*
X2482009Y-70568106D01*
X2482007Y-70568105D01*
X2480920Y-70567439D01*
X2480591Y-70567075D01*
X2478004Y-70565196D01*
X2478398Y-70564652D01*
X2433283Y-70514796D01*
X2421670Y-70444756D01*
X2449766Y-70379555D01*
X2478130Y-70354978D01*
X2478004Y-70354804D01*
X2480030Y-70353331D01*
X2480920Y-70352561D01*
X2481997Y-70351899D01*
X2482009Y-70351894D01*
X2655004Y-70226206D01*
X2806206Y-70075004D01*
X2931894Y-69902009D01*
X3028972Y-69711483D01*
X3095049Y-69508116D01*
X3128500Y-69296916D01*
X3128500Y-69083084D01*
X3095049Y-68871884D01*
X3028972Y-68668517D01*
X2931894Y-68477991D01*
X2806206Y-68304996D01*
X2806203Y-68304993D01*
X2806201Y-68304990D01*
X2655009Y-68153798D01*
X2655006Y-68153796D01*
X2655004Y-68153794D01*
X2482009Y-68028106D01*
X2482007Y-68028105D01*
X2480920Y-68027439D01*
X2480591Y-68027075D01*
X2478004Y-68025196D01*
X2478398Y-68024652D01*
X2433283Y-67974796D01*
X2421670Y-67904756D01*
X2449766Y-67839555D01*
X2478130Y-67814978D01*
X2478004Y-67814804D01*
X2480030Y-67813331D01*
X2480920Y-67812561D01*
X2481997Y-67811899D01*
X2482009Y-67811894D01*
X2655004Y-67686206D01*
X2806206Y-67535004D01*
X2931894Y-67362009D01*
X3028972Y-67171483D01*
X3095049Y-66968116D01*
X3128500Y-66756916D01*
X3128500Y-66543084D01*
X3095049Y-66331884D01*
X3028972Y-66128517D01*
X2931894Y-65937991D01*
X2806206Y-65764996D01*
X2806203Y-65764993D01*
X2806201Y-65764990D01*
X2655009Y-65613798D01*
X2655006Y-65613796D01*
X2655004Y-65613794D01*
X2482009Y-65488106D01*
X2482007Y-65488105D01*
X2480920Y-65487439D01*
X2480591Y-65487075D01*
X2478004Y-65485196D01*
X2478398Y-65484652D01*
X2433283Y-65434796D01*
X2421670Y-65364756D01*
X2449766Y-65299555D01*
X2478130Y-65274978D01*
X2478004Y-65274804D01*
X2480030Y-65273331D01*
X2480920Y-65272561D01*
X2481997Y-65271899D01*
X2482009Y-65271894D01*
X2655004Y-65146206D01*
X2806206Y-64995004D01*
X2931894Y-64822009D01*
X3028972Y-64631483D01*
X3095049Y-64428116D01*
X3128500Y-64216916D01*
X3128500Y-64003084D01*
X3095049Y-63791884D01*
X3028972Y-63588517D01*
X2931894Y-63397991D01*
X2806206Y-63224996D01*
X2806203Y-63224993D01*
X2806201Y-63224990D01*
X2655009Y-63073798D01*
X2655006Y-63073796D01*
X2655004Y-63073794D01*
X2482009Y-62948106D01*
X2482007Y-62948105D01*
X2480920Y-62947439D01*
X2480591Y-62947075D01*
X2478004Y-62945196D01*
X2478398Y-62944652D01*
X2433283Y-62894796D01*
X2421670Y-62824756D01*
X2449766Y-62759555D01*
X2478130Y-62734978D01*
X2478004Y-62734804D01*
X2480030Y-62733331D01*
X2480920Y-62732561D01*
X2481997Y-62731899D01*
X2482009Y-62731894D01*
X2655004Y-62606206D01*
X2806206Y-62455004D01*
X2931894Y-62282009D01*
X3028972Y-62091483D01*
X3095049Y-61888116D01*
X3128500Y-61676916D01*
X3128500Y-61463084D01*
X3095049Y-61251884D01*
X3028972Y-61048517D01*
X2931894Y-60857991D01*
X2806206Y-60684996D01*
X2806203Y-60684993D01*
X2806201Y-60684990D01*
X2655009Y-60533798D01*
X2655006Y-60533796D01*
X2655004Y-60533794D01*
X2482009Y-60408106D01*
X2482007Y-60408105D01*
X2480920Y-60407439D01*
X2480591Y-60407075D01*
X2478004Y-60405196D01*
X2478398Y-60404652D01*
X2433283Y-60354796D01*
X2421670Y-60284756D01*
X2449766Y-60219555D01*
X2478130Y-60194978D01*
X2478004Y-60194804D01*
X2480030Y-60193331D01*
X2480920Y-60192561D01*
X2481997Y-60191899D01*
X2482009Y-60191894D01*
X2655004Y-60066206D01*
X2806206Y-59915004D01*
X2931894Y-59742009D01*
X3028972Y-59551483D01*
X3095049Y-59348116D01*
X3128500Y-59136916D01*
X3128500Y-58923084D01*
X3095049Y-58711884D01*
X3028972Y-58508517D01*
X2968151Y-58389149D01*
X3971500Y-58389149D01*
X3971500Y-58610851D01*
X4006182Y-58829824D01*
X4006183Y-58829829D01*
X4074690Y-59040671D01*
X4074692Y-59040676D01*
X4175343Y-59238215D01*
X4175345Y-59238218D01*
X4305658Y-59417578D01*
X4462421Y-59574341D01*
X4462424Y-59574343D01*
X4641785Y-59704657D01*
X4839324Y-59805308D01*
X5050176Y-59873818D01*
X5269149Y-59908500D01*
X5269152Y-59908500D01*
X6190848Y-59908500D01*
X6190851Y-59908500D01*
X6409824Y-59873818D01*
X6620676Y-59805308D01*
X6818215Y-59704657D01*
X6997576Y-59574343D01*
X7154343Y-59417576D01*
X7284657Y-59238215D01*
X7385308Y-59040676D01*
X7453818Y-58829824D01*
X7488500Y-58610851D01*
X7488500Y-58389149D01*
X7453818Y-58170176D01*
X7385308Y-57959324D01*
X7284657Y-57761785D01*
X7219061Y-57671500D01*
X7154341Y-57582421D01*
X6997578Y-57425658D01*
X6818218Y-57295345D01*
X6818217Y-57295344D01*
X6818215Y-57295343D01*
X6620676Y-57194692D01*
X6620673Y-57194691D01*
X6620671Y-57194690D01*
X6409829Y-57126183D01*
X6409825Y-57126182D01*
X6409824Y-57126182D01*
X6190851Y-57091500D01*
X5269149Y-57091500D01*
X5050176Y-57126182D01*
X5050170Y-57126183D01*
X4839328Y-57194690D01*
X4839322Y-57194693D01*
X4641781Y-57295345D01*
X4462421Y-57425658D01*
X4305658Y-57582421D01*
X4175345Y-57761781D01*
X4074693Y-57959322D01*
X4074690Y-57959328D01*
X4006183Y-58170170D01*
X4006182Y-58170175D01*
X4006182Y-58170176D01*
X3971500Y-58389149D01*
X2968151Y-58389149D01*
X2931894Y-58317991D01*
X2806206Y-58144996D01*
X2806203Y-58144993D01*
X2806201Y-58144990D01*
X2655009Y-57993798D01*
X2655006Y-57993796D01*
X2655004Y-57993794D01*
X2482009Y-57868106D01*
X2482007Y-57868105D01*
X2480920Y-57867439D01*
X2480591Y-57867075D01*
X2478004Y-57865196D01*
X2478398Y-57864652D01*
X2433283Y-57814796D01*
X2421670Y-57744756D01*
X2449766Y-57679555D01*
X2478130Y-57654978D01*
X2478004Y-57654804D01*
X2480030Y-57653331D01*
X2480920Y-57652561D01*
X2481997Y-57651899D01*
X2482009Y-57651894D01*
X2655004Y-57526206D01*
X2806206Y-57375004D01*
X2931894Y-57202009D01*
X3028972Y-57011483D01*
X3095049Y-56808116D01*
X3128500Y-56596916D01*
X3128500Y-56383084D01*
X3095049Y-56171884D01*
X3028972Y-55968517D01*
X2931894Y-55777991D01*
X2806206Y-55604996D01*
X2806203Y-55604993D01*
X2806201Y-55604990D01*
X2655009Y-55453798D01*
X2655006Y-55453796D01*
X2655004Y-55453794D01*
X2482009Y-55328106D01*
X2291483Y-55231028D01*
X2291480Y-55231027D01*
X2291478Y-55231026D01*
X2088120Y-55164952D01*
X2088123Y-55164952D01*
X2037650Y-55156958D01*
X1876916Y-55131500D01*
X1663084Y-55131500D01*
X1451884Y-55164951D01*
X1451878Y-55164952D01*
X1248521Y-55231026D01*
X1248515Y-55231029D01*
X1057987Y-55328108D01*
X884993Y-55453796D01*
X884990Y-55453798D01*
X790595Y-55548194D01*
X728283Y-55582220D01*
X657468Y-55577155D01*
X600632Y-55534608D01*
X575821Y-55468088D01*
X575500Y-55459099D01*
X575500Y-44820901D01*
X595502Y-44752780D01*
X649158Y-44706287D01*
X719432Y-44696183D01*
X784012Y-44725677D01*
X790595Y-44731806D01*
X884990Y-44826201D01*
X884993Y-44826203D01*
X884996Y-44826206D01*
X1057991Y-44951894D01*
X1248517Y-45048972D01*
X1451878Y-45115047D01*
X1451879Y-45115047D01*
X1451884Y-45115049D01*
X1663084Y-45148500D01*
X1663087Y-45148500D01*
X1876913Y-45148500D01*
X1876916Y-45148500D01*
X2088116Y-45115049D01*
X2291483Y-45048972D01*
X2482009Y-44951894D01*
X2655004Y-44826206D01*
X2806206Y-44675004D01*
X2931894Y-44502009D01*
X3028972Y-44311483D01*
X3095049Y-44108116D01*
X3128500Y-43896916D01*
X3128500Y-43683084D01*
X3095049Y-43471884D01*
X3028972Y-43268517D01*
X2931894Y-43077991D01*
X2806206Y-42904996D01*
X2806203Y-42904993D01*
X2806201Y-42904990D01*
X2655009Y-42753798D01*
X2655006Y-42753796D01*
X2655004Y-42753794D01*
X2482009Y-42628106D01*
X2482007Y-42628105D01*
X2480920Y-42627439D01*
X2480591Y-42627075D01*
X2478004Y-42625196D01*
X2478398Y-42624652D01*
X2433283Y-42574796D01*
X2421670Y-42504756D01*
X2449766Y-42439555D01*
X2478130Y-42414978D01*
X2478004Y-42414804D01*
X2480030Y-42413331D01*
X2480920Y-42412561D01*
X2481997Y-42411899D01*
X2482009Y-42411894D01*
X2655004Y-42286206D01*
X2806206Y-42135004D01*
X2931894Y-41962009D01*
X2961707Y-41903496D01*
X3010455Y-41851882D01*
X3073974Y-41834700D01*
X8274679Y-41834700D01*
X8342800Y-41854702D01*
X8389293Y-41908358D01*
X8399397Y-41978632D01*
X8369903Y-42043212D01*
X8348739Y-42062637D01*
X8213396Y-42160967D01*
X8090967Y-42283396D01*
X7989197Y-42423472D01*
X7910591Y-42577745D01*
X7910588Y-42577751D01*
X7857087Y-42742410D01*
X7847966Y-42800000D01*
X8468120Y-42800000D01*
X8464075Y-42807007D01*
X8430000Y-42934174D01*
X8430000Y-43065826D01*
X8464075Y-43192993D01*
X8468120Y-43200000D01*
X7847966Y-43200000D01*
X7857087Y-43257589D01*
X7910588Y-43422248D01*
X7910591Y-43422254D01*
X7989197Y-43576527D01*
X8090967Y-43716603D01*
X8213396Y-43839032D01*
X8353472Y-43940802D01*
X8507745Y-44019408D01*
X8507751Y-44019411D01*
X8672411Y-44072912D01*
X8730000Y-44082033D01*
X8730000Y-43461879D01*
X8737007Y-43465925D01*
X8864174Y-43500000D01*
X8995826Y-43500000D01*
X9122993Y-43465925D01*
X9130000Y-43461879D01*
X9130000Y-44082033D01*
X9187588Y-44072912D01*
X9352248Y-44019411D01*
X9352254Y-44019408D01*
X9506527Y-43940802D01*
X9646603Y-43839032D01*
X9769032Y-43716603D01*
X9870802Y-43576527D01*
X9926946Y-43466339D01*
X9975694Y-43414724D01*
X10044609Y-43397658D01*
X10111811Y-43420559D01*
X10155963Y-43476156D01*
X10159044Y-43484599D01*
X10171028Y-43521483D01*
X10255715Y-43687690D01*
X10268108Y-43712012D01*
X10271444Y-43716603D01*
X10393794Y-43885004D01*
X10393796Y-43885006D01*
X10393798Y-43885009D01*
X10544990Y-44036201D01*
X10544993Y-44036203D01*
X10544996Y-44036206D01*
X10717991Y-44161894D01*
X10908517Y-44258972D01*
X11111878Y-44325047D01*
X11111879Y-44325047D01*
X11111884Y-44325049D01*
X11323084Y-44358500D01*
X11323087Y-44358500D01*
X11536913Y-44358500D01*
X11536916Y-44358500D01*
X11748116Y-44325049D01*
X11951483Y-44258972D01*
X12142009Y-44161894D01*
X12315004Y-44036206D01*
X12466206Y-43885004D01*
X12578064Y-43731043D01*
X12634286Y-43687690D01*
X12705022Y-43681615D01*
X12767814Y-43714746D01*
X12781934Y-43731041D01*
X12893794Y-43885004D01*
X12893796Y-43885006D01*
X12893798Y-43885009D01*
X13044990Y-44036201D01*
X13044993Y-44036203D01*
X13044996Y-44036206D01*
X13217991Y-44161894D01*
X13408517Y-44258972D01*
X13611878Y-44325047D01*
X13611879Y-44325047D01*
X13611884Y-44325049D01*
X13823084Y-44358500D01*
X13823087Y-44358500D01*
X14036913Y-44358500D01*
X14036916Y-44358500D01*
X14248116Y-44325049D01*
X14261562Y-44320679D01*
X14332527Y-44318650D01*
X14393326Y-44355310D01*
X14424654Y-44419022D01*
X14426500Y-44440512D01*
X14426500Y-45450720D01*
X14406498Y-45518841D01*
X14389595Y-45539815D01*
X9962386Y-49967024D01*
X9907955Y-50021454D01*
X9853525Y-50075884D01*
X9853521Y-50075889D01*
X9776547Y-50209213D01*
X9736700Y-50357924D01*
X9736700Y-64979138D01*
X9716698Y-65047259D01*
X9663042Y-65093752D01*
X9592768Y-65103856D01*
X9536641Y-65081075D01*
X9506530Y-65059199D01*
X9352254Y-64980591D01*
X9352248Y-64980588D01*
X9187589Y-64927087D01*
X9130000Y-64917965D01*
X9130000Y-65538120D01*
X9122993Y-65534075D01*
X8995826Y-65500000D01*
X8864174Y-65500000D01*
X8737007Y-65534075D01*
X8730000Y-65538120D01*
X8730000Y-64917965D01*
X8672410Y-64927087D01*
X8507751Y-64980588D01*
X8507745Y-64980591D01*
X8353472Y-65059197D01*
X8213396Y-65160967D01*
X8090967Y-65283396D01*
X7989197Y-65423472D01*
X7910591Y-65577745D01*
X7910588Y-65577751D01*
X7857087Y-65742410D01*
X7847966Y-65800000D01*
X8468120Y-65800000D01*
X8464075Y-65807007D01*
X8430000Y-65934174D01*
X8430000Y-66065826D01*
X8464075Y-66192993D01*
X8468120Y-66200000D01*
X7847966Y-66200000D01*
X7857087Y-66257589D01*
X7910588Y-66422248D01*
X7910591Y-66422254D01*
X7989197Y-66576527D01*
X8090967Y-66716603D01*
X8213396Y-66839032D01*
X8353472Y-66940802D01*
X8507745Y-67019408D01*
X8507751Y-67019411D01*
X8672411Y-67072912D01*
X8730000Y-67082033D01*
X8730000Y-66461879D01*
X8737007Y-66465925D01*
X8864174Y-66500000D01*
X8995826Y-66500000D01*
X9122993Y-66465925D01*
X9130000Y-66461879D01*
X9130000Y-67082033D01*
X9187588Y-67072912D01*
X9352248Y-67019411D01*
X9352254Y-67019408D01*
X9506527Y-66940802D01*
X9646599Y-66839035D01*
X9673025Y-66812609D01*
X9735337Y-66778583D01*
X9806153Y-66783647D01*
X9851217Y-66812608D01*
X19582580Y-76543972D01*
X19582583Y-76543974D01*
X19582585Y-76543976D01*
X19649248Y-76582463D01*
X19649250Y-76582465D01*
X19715908Y-76620950D01*
X19715911Y-76620951D01*
X19715914Y-76620953D01*
X19864623Y-76660800D01*
X26740246Y-76660800D01*
X26808367Y-76680802D01*
X26854860Y-76734458D01*
X26864964Y-76804732D01*
X26835470Y-76869312D01*
X26829341Y-76875895D01*
X26753109Y-76952126D01*
X26753107Y-76952129D01*
X26604289Y-77156958D01*
X26489345Y-77382548D01*
X26489342Y-77382554D01*
X26411107Y-77623336D01*
X26411106Y-77623341D01*
X26411106Y-77623342D01*
X26371500Y-77873408D01*
X26371500Y-78126592D01*
X26411106Y-78376658D01*
X26411107Y-78376663D01*
X26486042Y-78607288D01*
X26489344Y-78617450D01*
X26604287Y-78843038D01*
X26753105Y-79047868D01*
X26753107Y-79047870D01*
X26753109Y-79047873D01*
X26932126Y-79226890D01*
X26932129Y-79226892D01*
X26932132Y-79226895D01*
X27136962Y-79375713D01*
X27362550Y-79490656D01*
X27603342Y-79568894D01*
X27853408Y-79608500D01*
X27853411Y-79608500D01*
X28106589Y-79608500D01*
X28106592Y-79608500D01*
X28356658Y-79568894D01*
X28597450Y-79490656D01*
X28823038Y-79375713D01*
X29027868Y-79226895D01*
X29206895Y-79047868D01*
X29355713Y-78843038D01*
X29452289Y-78653496D01*
X29501038Y-78601882D01*
X29564556Y-78584700D01*
X31395444Y-78584700D01*
X31463565Y-78604702D01*
X31507710Y-78653496D01*
X31604287Y-78843038D01*
X31753105Y-79047868D01*
X31753107Y-79047870D01*
X31753109Y-79047873D01*
X31932126Y-79226890D01*
X31932129Y-79226892D01*
X31932132Y-79226895D01*
X32136962Y-79375713D01*
X32362550Y-79490656D01*
X32603342Y-79568894D01*
X32853408Y-79608500D01*
X32853411Y-79608500D01*
X33106589Y-79608500D01*
X33106592Y-79608500D01*
X33356658Y-79568894D01*
X33597450Y-79490656D01*
X33823038Y-79375713D01*
X34027868Y-79226895D01*
X34206895Y-79047868D01*
X34355713Y-78843038D01*
X34470656Y-78617450D01*
X34548894Y-78376658D01*
X34588500Y-78126592D01*
X34588500Y-77939280D01*
X34608502Y-77871159D01*
X34662158Y-77824666D01*
X34732432Y-77814562D01*
X34797012Y-77844056D01*
X34803594Y-77850184D01*
X41656570Y-84703161D01*
X48423654Y-91470245D01*
X48457680Y-91532557D01*
X48452615Y-91603372D01*
X48410068Y-91660208D01*
X48408621Y-91661275D01*
X48307860Y-91734482D01*
X48184487Y-91857855D01*
X48184485Y-91857858D01*
X48081928Y-91999015D01*
X48002713Y-92154482D01*
X48002710Y-92154488D01*
X47948796Y-92320422D01*
X47948795Y-92320426D01*
X47921500Y-92492759D01*
X47921500Y-92667241D01*
X47948795Y-92839574D01*
X47948796Y-92839577D01*
X47998996Y-92994081D01*
X48002712Y-93005516D01*
X48081926Y-93160981D01*
X48184483Y-93302139D01*
X48184485Y-93302141D01*
X48184487Y-93302144D01*
X48307855Y-93425512D01*
X48307858Y-93425514D01*
X48307861Y-93425517D01*
X48449019Y-93528074D01*
X48604484Y-93607288D01*
X48770426Y-93661205D01*
X48942759Y-93688500D01*
X48942762Y-93688500D01*
X50117238Y-93688500D01*
X50117241Y-93688500D01*
X50289574Y-93661205D01*
X50455516Y-93607288D01*
X50610981Y-93528074D01*
X50752139Y-93425517D01*
X50875517Y-93302139D01*
X50978074Y-93160981D01*
X51057288Y-93005516D01*
X51111205Y-92839574D01*
X51138500Y-92667241D01*
X51138500Y-92492759D01*
X51111205Y-92320426D01*
X51057288Y-92154484D01*
X50978074Y-91999019D01*
X50875517Y-91857861D01*
X50875514Y-91857858D01*
X50875512Y-91857855D01*
X50752144Y-91734487D01*
X50752141Y-91734485D01*
X50752139Y-91734483D01*
X50610981Y-91631926D01*
X50455516Y-91552712D01*
X50455513Y-91552711D01*
X50455511Y-91552710D01*
X50289577Y-91498796D01*
X50289574Y-91498795D01*
X50193449Y-91483570D01*
X50117231Y-91471498D01*
X50112303Y-91471111D01*
X50112385Y-91470062D01*
X50049160Y-91451498D01*
X50008162Y-91408500D01*
X49997879Y-91390689D01*
X49997871Y-91390679D01*
X44344095Y-85736904D01*
X43182564Y-84575373D01*
X45840000Y-84575373D01*
X45840000Y-85300000D01*
X46585855Y-85300000D01*
X46570667Y-85326306D01*
X46540000Y-85440756D01*
X46540000Y-85559244D01*
X46570667Y-85673694D01*
X46585855Y-85700000D01*
X45840000Y-85700000D01*
X45840000Y-86424626D01*
X45854504Y-86497544D01*
X45854505Y-86497545D01*
X45909759Y-86580240D01*
X45992454Y-86635494D01*
X45992455Y-86635495D01*
X46065373Y-86649999D01*
X46065377Y-86650000D01*
X46790000Y-86650000D01*
X46790000Y-85904145D01*
X46816306Y-85919333D01*
X46930756Y-85950000D01*
X47049244Y-85950000D01*
X47163694Y-85919333D01*
X47190000Y-85904145D01*
X47190000Y-86650000D01*
X47914623Y-86650000D01*
X47914626Y-86649999D01*
X47987544Y-86635495D01*
X47987545Y-86635494D01*
X48070240Y-86580240D01*
X48125494Y-86497545D01*
X48125495Y-86497544D01*
X48139999Y-86424626D01*
X48140000Y-86424622D01*
X48140000Y-86370900D01*
X48160002Y-86302779D01*
X48213658Y-86256286D01*
X48283932Y-86246182D01*
X48348512Y-86275676D01*
X48367936Y-86296839D01*
X48455658Y-86417578D01*
X48612421Y-86574341D01*
X48612424Y-86574343D01*
X48791785Y-86704657D01*
X48989324Y-86805308D01*
X49200176Y-86873818D01*
X49419149Y-86908500D01*
X49419152Y-86908500D01*
X49640848Y-86908500D01*
X49640851Y-86908500D01*
X49859824Y-86873818D01*
X50070676Y-86805308D01*
X50268215Y-86704657D01*
X50447576Y-86574343D01*
X50604343Y-86417576D01*
X50734657Y-86238215D01*
X50835308Y-86040676D01*
X50903818Y-85829824D01*
X50938500Y-85610851D01*
X50938500Y-85389149D01*
X50903818Y-85170176D01*
X50835308Y-84959324D01*
X50734657Y-84761785D01*
X50604343Y-84582424D01*
X50604341Y-84582421D01*
X50447578Y-84425658D01*
X50268218Y-84295345D01*
X50268217Y-84295344D01*
X50268215Y-84295343D01*
X50070676Y-84194692D01*
X50070673Y-84194691D01*
X50070671Y-84194690D01*
X49859829Y-84126183D01*
X49859825Y-84126182D01*
X49859824Y-84126182D01*
X49640851Y-84091500D01*
X49419149Y-84091500D01*
X49200176Y-84126182D01*
X49200170Y-84126183D01*
X48989328Y-84194690D01*
X48989322Y-84194693D01*
X48791781Y-84295345D01*
X48612421Y-84425658D01*
X48455662Y-84582417D01*
X48367936Y-84703161D01*
X48311713Y-84746514D01*
X48240977Y-84752589D01*
X48178185Y-84719457D01*
X48143274Y-84657637D01*
X48140000Y-84629099D01*
X48140000Y-84575377D01*
X48139999Y-84575373D01*
X48125495Y-84502455D01*
X48125494Y-84502454D01*
X48070240Y-84419759D01*
X47987545Y-84364505D01*
X47987544Y-84364504D01*
X47914626Y-84350000D01*
X47190000Y-84350000D01*
X47190000Y-85095854D01*
X47163694Y-85080667D01*
X47049244Y-85050000D01*
X46930756Y-85050000D01*
X46816306Y-85080667D01*
X46790000Y-85095854D01*
X46790000Y-84350000D01*
X46065373Y-84350000D01*
X45992455Y-84364504D01*
X45992454Y-84364505D01*
X45909759Y-84419759D01*
X45854505Y-84502454D01*
X45854504Y-84502455D01*
X45840000Y-84575373D01*
X43182564Y-84575373D01*
X36480599Y-77873408D01*
X44151500Y-77873408D01*
X44151500Y-78126592D01*
X44191106Y-78376658D01*
X44191107Y-78376663D01*
X44266042Y-78607288D01*
X44269344Y-78617450D01*
X44384287Y-78843038D01*
X44533105Y-79047868D01*
X44533107Y-79047870D01*
X44533109Y-79047873D01*
X44712126Y-79226890D01*
X44712129Y-79226892D01*
X44712132Y-79226895D01*
X44916962Y-79375713D01*
X45142550Y-79490656D01*
X45383342Y-79568894D01*
X45633408Y-79608500D01*
X45633411Y-79608500D01*
X45886589Y-79608500D01*
X45886592Y-79608500D01*
X46136658Y-79568894D01*
X46377450Y-79490656D01*
X46603038Y-79375713D01*
X46807868Y-79226895D01*
X46986895Y-79047868D01*
X47135713Y-78843038D01*
X47232289Y-78653496D01*
X47281038Y-78601882D01*
X47344556Y-78584700D01*
X49175444Y-78584700D01*
X49243565Y-78604702D01*
X49287710Y-78653496D01*
X49384287Y-78843038D01*
X49533105Y-79047868D01*
X49533107Y-79047870D01*
X49533109Y-79047873D01*
X49712126Y-79226890D01*
X49712129Y-79226892D01*
X49712132Y-79226895D01*
X49916962Y-79375713D01*
X50142550Y-79490656D01*
X50383342Y-79568894D01*
X50633408Y-79608500D01*
X50633411Y-79608500D01*
X50886589Y-79608500D01*
X50886592Y-79608500D01*
X51136658Y-79568894D01*
X51377450Y-79490656D01*
X51603038Y-79375713D01*
X51807868Y-79226895D01*
X51986895Y-79047868D01*
X52135713Y-78843038D01*
X52250656Y-78617450D01*
X52328894Y-78376658D01*
X52368500Y-78126592D01*
X52368500Y-77873408D01*
X52328894Y-77623342D01*
X52250656Y-77382550D01*
X52135713Y-77156962D01*
X51986895Y-76952132D01*
X51986892Y-76952129D01*
X51986890Y-76952126D01*
X51807873Y-76773109D01*
X51807870Y-76773107D01*
X51807868Y-76773105D01*
X51603038Y-76624287D01*
X51377450Y-76509344D01*
X51377447Y-76509343D01*
X51377445Y-76509342D01*
X51136663Y-76431107D01*
X51136659Y-76431106D01*
X51136658Y-76431106D01*
X50886592Y-76391500D01*
X50633408Y-76391500D01*
X50383342Y-76431106D01*
X50383336Y-76431107D01*
X50142554Y-76509342D01*
X50142548Y-76509345D01*
X49916958Y-76624289D01*
X49712129Y-76773107D01*
X49712126Y-76773109D01*
X49533109Y-76952126D01*
X49533107Y-76952129D01*
X49384289Y-77156958D01*
X49287711Y-77346503D01*
X49238962Y-77398118D01*
X49175444Y-77415300D01*
X47344556Y-77415300D01*
X47276435Y-77395298D01*
X47232289Y-77346503D01*
X47219000Y-77320422D01*
X47135713Y-77156962D01*
X46986895Y-76952132D01*
X46986892Y-76952129D01*
X46986890Y-76952126D01*
X46807873Y-76773109D01*
X46807870Y-76773107D01*
X46807868Y-76773105D01*
X46603038Y-76624287D01*
X46377450Y-76509344D01*
X46377447Y-76509343D01*
X46377445Y-76509342D01*
X46136663Y-76431107D01*
X46136659Y-76431106D01*
X46136658Y-76431106D01*
X45886592Y-76391500D01*
X45633408Y-76391500D01*
X45383342Y-76431106D01*
X45383336Y-76431107D01*
X45142554Y-76509342D01*
X45142548Y-76509345D01*
X44916958Y-76624289D01*
X44712129Y-76773107D01*
X44712126Y-76773109D01*
X44533109Y-76952126D01*
X44533107Y-76952129D01*
X44384289Y-77156958D01*
X44269345Y-77382548D01*
X44269342Y-77382554D01*
X44191107Y-77623336D01*
X44191106Y-77623341D01*
X44191106Y-77623342D01*
X44151500Y-77873408D01*
X36480599Y-77873408D01*
X34215420Y-75608229D01*
X34215416Y-75608226D01*
X34215414Y-75608224D01*
X34192594Y-75595049D01*
X34082086Y-75531247D01*
X33933377Y-75491400D01*
X33933375Y-75491400D01*
X20235981Y-75491400D01*
X20167860Y-75471398D01*
X20146886Y-75454495D01*
X16123497Y-71431106D01*
X12074030Y-67381640D01*
X12040005Y-67319329D01*
X12045070Y-67248514D01*
X12087617Y-67191678D01*
X12105915Y-67180284D01*
X12142009Y-67161894D01*
X12315004Y-67036206D01*
X12466206Y-66885004D01*
X12578064Y-66731043D01*
X12634286Y-66687690D01*
X12705022Y-66681615D01*
X12767814Y-66714746D01*
X12781934Y-66731041D01*
X12893794Y-66885004D01*
X12893796Y-66885006D01*
X12893798Y-66885009D01*
X13044990Y-67036201D01*
X13044993Y-67036203D01*
X13044996Y-67036206D01*
X13217991Y-67161894D01*
X13408517Y-67258972D01*
X13611878Y-67325047D01*
X13611879Y-67325047D01*
X13611884Y-67325049D01*
X13823084Y-67358500D01*
X13823087Y-67358500D01*
X14036913Y-67358500D01*
X14036916Y-67358500D01*
X14248116Y-67325049D01*
X14451483Y-67258972D01*
X14642009Y-67161894D01*
X14815004Y-67036206D01*
X14928216Y-66922993D01*
X14990526Y-66888970D01*
X15061342Y-66894034D01*
X15106405Y-66922995D01*
X21542424Y-73359014D01*
X21651286Y-73467876D01*
X21784614Y-73544853D01*
X21933323Y-73584700D01*
X26395444Y-73584700D01*
X26463565Y-73604702D01*
X26507710Y-73653496D01*
X26604287Y-73843038D01*
X26753105Y-74047868D01*
X26753107Y-74047870D01*
X26753109Y-74047873D01*
X26932126Y-74226890D01*
X26932129Y-74226892D01*
X26932132Y-74226895D01*
X27136962Y-74375713D01*
X27362550Y-74490656D01*
X27603342Y-74568894D01*
X27853408Y-74608500D01*
X27853411Y-74608500D01*
X28106589Y-74608500D01*
X28106592Y-74608500D01*
X28356658Y-74568894D01*
X28597450Y-74490656D01*
X28823038Y-74375713D01*
X29027868Y-74226895D01*
X29206895Y-74047868D01*
X29355713Y-73843038D01*
X29452289Y-73653496D01*
X29501038Y-73601882D01*
X29564556Y-73584700D01*
X31395444Y-73584700D01*
X31463565Y-73604702D01*
X31507710Y-73653496D01*
X31604287Y-73843038D01*
X31753105Y-74047868D01*
X31753107Y-74047870D01*
X31753109Y-74047873D01*
X31932126Y-74226890D01*
X31932129Y-74226892D01*
X31932132Y-74226895D01*
X32136962Y-74375713D01*
X32362550Y-74490656D01*
X32603342Y-74568894D01*
X32853408Y-74608500D01*
X32853411Y-74608500D01*
X33106589Y-74608500D01*
X33106592Y-74608500D01*
X33356658Y-74568894D01*
X33597450Y-74490656D01*
X33823038Y-74375713D01*
X34027868Y-74226895D01*
X34206895Y-74047868D01*
X34355713Y-73843038D01*
X34452289Y-73653496D01*
X34501038Y-73601882D01*
X34564556Y-73584700D01*
X44175444Y-73584700D01*
X44243565Y-73604702D01*
X44287710Y-73653496D01*
X44384287Y-73843038D01*
X44533105Y-74047868D01*
X44533107Y-74047870D01*
X44533109Y-74047873D01*
X44712126Y-74226890D01*
X44712129Y-74226892D01*
X44712132Y-74226895D01*
X44916962Y-74375713D01*
X45142550Y-74490656D01*
X45383342Y-74568894D01*
X45633408Y-74608500D01*
X45633411Y-74608500D01*
X45886589Y-74608500D01*
X45886592Y-74608500D01*
X46136658Y-74568894D01*
X46377450Y-74490656D01*
X46603038Y-74375713D01*
X46807868Y-74226895D01*
X46986895Y-74047868D01*
X47135713Y-73843038D01*
X47232289Y-73653496D01*
X47281038Y-73601882D01*
X47344556Y-73584700D01*
X49175444Y-73584700D01*
X49243565Y-73604702D01*
X49287710Y-73653496D01*
X49384287Y-73843038D01*
X49533105Y-74047868D01*
X49533107Y-74047870D01*
X49533109Y-74047873D01*
X49712126Y-74226890D01*
X49712129Y-74226892D01*
X49712132Y-74226895D01*
X49916962Y-74375713D01*
X50142550Y-74490656D01*
X50383342Y-74568894D01*
X50633408Y-74608500D01*
X50633411Y-74608500D01*
X50886589Y-74608500D01*
X50886592Y-74608500D01*
X51136658Y-74568894D01*
X51377450Y-74490656D01*
X51603038Y-74375713D01*
X51807868Y-74226895D01*
X51986895Y-74047868D01*
X52135713Y-73843038D01*
X52250656Y-73617450D01*
X52328894Y-73376658D01*
X52368500Y-73126592D01*
X52368500Y-72873408D01*
X52328894Y-72623342D01*
X52250656Y-72382550D01*
X52135713Y-72156962D01*
X51986895Y-71952132D01*
X51986892Y-71952129D01*
X51986890Y-71952126D01*
X51807873Y-71773109D01*
X51807870Y-71773107D01*
X51807868Y-71773105D01*
X51603038Y-71624287D01*
X51377450Y-71509344D01*
X51377447Y-71509343D01*
X51377445Y-71509342D01*
X51136663Y-71431107D01*
X51136659Y-71431106D01*
X51136658Y-71431106D01*
X50886592Y-71391500D01*
X50633408Y-71391500D01*
X50383342Y-71431106D01*
X50383336Y-71431107D01*
X50142554Y-71509342D01*
X50142548Y-71509345D01*
X49916958Y-71624289D01*
X49712129Y-71773107D01*
X49712126Y-71773109D01*
X49533109Y-71952126D01*
X49533107Y-71952129D01*
X49384289Y-72156958D01*
X49287711Y-72346503D01*
X49238962Y-72398118D01*
X49175444Y-72415300D01*
X47344556Y-72415300D01*
X47276435Y-72395298D01*
X47232289Y-72346503D01*
X47135713Y-72156962D01*
X46986895Y-71952132D01*
X46986892Y-71952129D01*
X46986890Y-71952126D01*
X46807873Y-71773109D01*
X46807870Y-71773107D01*
X46807868Y-71773105D01*
X46603038Y-71624287D01*
X46377450Y-71509344D01*
X46377447Y-71509343D01*
X46377445Y-71509342D01*
X46136663Y-71431107D01*
X46136659Y-71431106D01*
X46136658Y-71431106D01*
X45886592Y-71391500D01*
X45633408Y-71391500D01*
X45383342Y-71431106D01*
X45383336Y-71431107D01*
X45142554Y-71509342D01*
X45142548Y-71509345D01*
X44916958Y-71624289D01*
X44712129Y-71773107D01*
X44712126Y-71773109D01*
X44533109Y-71952126D01*
X44533107Y-71952129D01*
X44384289Y-72156958D01*
X44287711Y-72346503D01*
X44238962Y-72398118D01*
X44175444Y-72415300D01*
X34564556Y-72415300D01*
X34496435Y-72395298D01*
X34452289Y-72346503D01*
X34355713Y-72156962D01*
X34206895Y-71952132D01*
X34206892Y-71952129D01*
X34206890Y-71952126D01*
X34027873Y-71773109D01*
X34027870Y-71773107D01*
X34027868Y-71773105D01*
X33823038Y-71624287D01*
X33597450Y-71509344D01*
X33597447Y-71509343D01*
X33597445Y-71509342D01*
X33356663Y-71431107D01*
X33356659Y-71431106D01*
X33356658Y-71431106D01*
X33106592Y-71391500D01*
X32853408Y-71391500D01*
X32603342Y-71431106D01*
X32603336Y-71431107D01*
X32362554Y-71509342D01*
X32362548Y-71509345D01*
X32136958Y-71624289D01*
X31932129Y-71773107D01*
X31932126Y-71773109D01*
X31753109Y-71952126D01*
X31753107Y-71952129D01*
X31604289Y-72156958D01*
X31507711Y-72346503D01*
X31458962Y-72398118D01*
X31395444Y-72415300D01*
X29564556Y-72415300D01*
X29496435Y-72395298D01*
X29452289Y-72346503D01*
X29355713Y-72156962D01*
X29206895Y-71952132D01*
X29206892Y-71952129D01*
X29206890Y-71952126D01*
X29027873Y-71773109D01*
X29027870Y-71773107D01*
X29027868Y-71773105D01*
X28823038Y-71624287D01*
X28597450Y-71509344D01*
X28597447Y-71509343D01*
X28597445Y-71509342D01*
X28356663Y-71431107D01*
X28356659Y-71431106D01*
X28356658Y-71431106D01*
X28106592Y-71391500D01*
X27853408Y-71391500D01*
X27603342Y-71431106D01*
X27603336Y-71431107D01*
X27362554Y-71509342D01*
X27362548Y-71509345D01*
X27136958Y-71624289D01*
X26932129Y-71773107D01*
X26932126Y-71773109D01*
X26753109Y-71952126D01*
X26753107Y-71952129D01*
X26604289Y-72156958D01*
X26507711Y-72346503D01*
X26458962Y-72398118D01*
X26395444Y-72415300D01*
X22304680Y-72415300D01*
X22236559Y-72395298D01*
X22215585Y-72378395D01*
X16088626Y-66251435D01*
X15369318Y-65532127D01*
X15369312Y-65532123D01*
X15352291Y-65522296D01*
X15235986Y-65455147D01*
X15208657Y-65447824D01*
X15196462Y-65441489D01*
X15180363Y-65426043D01*
X15161311Y-65414430D01*
X15147656Y-65394663D01*
X15145231Y-65392336D01*
X15144797Y-65390524D01*
X15142280Y-65386880D01*
X15091894Y-65287991D01*
X14966206Y-65114996D01*
X14966203Y-65114993D01*
X14966201Y-65114990D01*
X14815009Y-64963798D01*
X14815006Y-64963796D01*
X14815004Y-64963794D01*
X14642012Y-64838108D01*
X14642011Y-64838107D01*
X14627714Y-64830822D01*
X14576101Y-64782072D01*
X14559037Y-64713156D01*
X14581940Y-64645955D01*
X14595820Y-64629468D01*
X20836140Y-58389149D01*
X23021500Y-58389149D01*
X23021500Y-58610851D01*
X23056182Y-58829824D01*
X23056183Y-58829829D01*
X23124690Y-59040671D01*
X23124692Y-59040676D01*
X23225343Y-59238215D01*
X23225345Y-59238218D01*
X23355658Y-59417578D01*
X23512421Y-59574341D01*
X23512424Y-59574343D01*
X23691785Y-59704657D01*
X23889324Y-59805308D01*
X24100176Y-59873818D01*
X24319149Y-59908500D01*
X24319152Y-59908500D01*
X25240848Y-59908500D01*
X25240851Y-59908500D01*
X25459824Y-59873818D01*
X25670676Y-59805308D01*
X25868215Y-59704657D01*
X26047576Y-59574343D01*
X26204343Y-59417576D01*
X26334657Y-59238215D01*
X26435308Y-59040676D01*
X26503818Y-58829824D01*
X26538500Y-58610851D01*
X26538500Y-58389149D01*
X26503818Y-58170176D01*
X26435308Y-57959324D01*
X26334657Y-57761785D01*
X26269061Y-57671500D01*
X26204341Y-57582421D01*
X26047578Y-57425658D01*
X25868218Y-57295345D01*
X25868217Y-57295344D01*
X25868215Y-57295343D01*
X25670676Y-57194692D01*
X25670673Y-57194691D01*
X25670671Y-57194690D01*
X25459829Y-57126183D01*
X25459825Y-57126182D01*
X25459824Y-57126182D01*
X25240851Y-57091500D01*
X24319149Y-57091500D01*
X24100176Y-57126182D01*
X24100170Y-57126183D01*
X23889328Y-57194690D01*
X23889322Y-57194693D01*
X23691781Y-57295345D01*
X23512421Y-57425658D01*
X23355658Y-57582421D01*
X23225345Y-57761781D01*
X23124693Y-57959322D01*
X23124690Y-57959328D01*
X23056183Y-58170170D01*
X23056182Y-58170175D01*
X23056182Y-58170176D01*
X23021500Y-58389149D01*
X20836140Y-58389149D01*
X33979285Y-45246005D01*
X34041597Y-45211979D01*
X34068380Y-45209100D01*
X44382275Y-45209100D01*
X44382277Y-45209100D01*
X44530986Y-45169253D01*
X44664314Y-45092276D01*
X44773176Y-44983414D01*
X57743594Y-32012994D01*
X57751666Y-32008586D01*
X57757180Y-32001222D01*
X57782338Y-31991838D01*
X57805906Y-31978969D01*
X57815082Y-31979625D01*
X57823700Y-31976411D01*
X57849936Y-31982118D01*
G37*
%TD.AperFunction*%
%TA.AperFunction,Conductor*%
G36*
X2781869Y-24505077D02*
G01*
X2809006Y-24525696D01*
X13023324Y-34740014D01*
X13132186Y-34848876D01*
X13132187Y-34848877D01*
X13132189Y-34848878D01*
X13177874Y-34875254D01*
X13265514Y-34925853D01*
X13414223Y-34965700D01*
X13414225Y-34965700D01*
X14420175Y-34965700D01*
X14420177Y-34965700D01*
X14568886Y-34925853D01*
X14702214Y-34848876D01*
X14811076Y-34740014D01*
X14870580Y-34680510D01*
X14870593Y-34680495D01*
X21423286Y-28127805D01*
X21485598Y-28093779D01*
X21512381Y-28090900D01*
X45226419Y-28090900D01*
X45294540Y-28110902D01*
X45341033Y-28164558D01*
X45351137Y-28234832D01*
X45321643Y-28299412D01*
X45315514Y-28305995D01*
X38153202Y-35468306D01*
X38090890Y-35502332D01*
X38020075Y-35497267D01*
X37963239Y-35454720D01*
X37940299Y-35393876D01*
X37939274Y-35394039D01*
X37938500Y-35389152D01*
X37938500Y-35389149D01*
X37903818Y-35170176D01*
X37835308Y-34959324D01*
X37734657Y-34761785D01*
X37667887Y-34669885D01*
X37604341Y-34582421D01*
X37447578Y-34425658D01*
X37268218Y-34295345D01*
X37268217Y-34295344D01*
X37268215Y-34295343D01*
X37070676Y-34194692D01*
X37070673Y-34194691D01*
X37070671Y-34194690D01*
X36859829Y-34126183D01*
X36859825Y-34126182D01*
X36859824Y-34126182D01*
X36640851Y-34091500D01*
X35719149Y-34091500D01*
X35500176Y-34126182D01*
X35500170Y-34126183D01*
X35289328Y-34194690D01*
X35289322Y-34194693D01*
X35091781Y-34295345D01*
X34912421Y-34425658D01*
X34755658Y-34582421D01*
X34625345Y-34761781D01*
X34524693Y-34959322D01*
X34524690Y-34959328D01*
X34456183Y-35170170D01*
X34456182Y-35170175D01*
X34456182Y-35170176D01*
X34421500Y-35389149D01*
X34421500Y-35610851D01*
X34456182Y-35829824D01*
X34456183Y-35829829D01*
X34524690Y-36040671D01*
X34524692Y-36040676D01*
X34607029Y-36202271D01*
X34625345Y-36238218D01*
X34755658Y-36417578D01*
X34912421Y-36574341D01*
X34912424Y-36574343D01*
X35091785Y-36704657D01*
X35289324Y-36805308D01*
X35500176Y-36873818D01*
X35719149Y-36908500D01*
X35719152Y-36908500D01*
X36408819Y-36908500D01*
X36476940Y-36928502D01*
X36523433Y-36982158D01*
X36533537Y-37052432D01*
X36504043Y-37117012D01*
X36497914Y-37123595D01*
X31600454Y-42021053D01*
X31538142Y-42055079D01*
X31467326Y-42050014D01*
X31422264Y-42021053D01*
X31365009Y-41963798D01*
X31365006Y-41963796D01*
X31365005Y-41963795D01*
X31365004Y-41963794D01*
X31234781Y-41869182D01*
X31192012Y-41838108D01*
X31192011Y-41838107D01*
X31192009Y-41838106D01*
X31001483Y-41741028D01*
X31001480Y-41741027D01*
X31001478Y-41741026D01*
X30798120Y-41674952D01*
X30798123Y-41674952D01*
X30758801Y-41668724D01*
X30586916Y-41641500D01*
X30373084Y-41641500D01*
X30161884Y-41674951D01*
X30161878Y-41674952D01*
X29958521Y-41741026D01*
X29958515Y-41741029D01*
X29767987Y-41838108D01*
X29594993Y-41963796D01*
X29594990Y-41963798D01*
X29443798Y-42114990D01*
X29443796Y-42114993D01*
X29318108Y-42287987D01*
X29221029Y-42478515D01*
X29209046Y-42515395D01*
X29168971Y-42574000D01*
X29103574Y-42601636D01*
X29033618Y-42589529D01*
X28981312Y-42541522D01*
X28976946Y-42533660D01*
X28920802Y-42423473D01*
X28819032Y-42283396D01*
X28696603Y-42160967D01*
X28556527Y-42059197D01*
X28402254Y-41980591D01*
X28402248Y-41980588D01*
X28237589Y-41927087D01*
X28180000Y-41917965D01*
X28180000Y-42538120D01*
X28172993Y-42534075D01*
X28045826Y-42500000D01*
X27914174Y-42500000D01*
X27787007Y-42534075D01*
X27780000Y-42538120D01*
X27780000Y-41917965D01*
X27722410Y-41927087D01*
X27557751Y-41980588D01*
X27557745Y-41980591D01*
X27403472Y-42059197D01*
X27263396Y-42160967D01*
X27140967Y-42283396D01*
X27039197Y-42423472D01*
X26960591Y-42577745D01*
X26960588Y-42577751D01*
X26907087Y-42742410D01*
X26897966Y-42800000D01*
X27518120Y-42800000D01*
X27514075Y-42807007D01*
X27480000Y-42934174D01*
X27480000Y-43065826D01*
X27514075Y-43192993D01*
X27518120Y-43200000D01*
X26897966Y-43200000D01*
X26907087Y-43257589D01*
X26930831Y-43330664D01*
X26932859Y-43401631D01*
X26896196Y-43462429D01*
X26832484Y-43493755D01*
X26810998Y-43495600D01*
X21214981Y-43495600D01*
X21146860Y-43475598D01*
X21125886Y-43458695D01*
X13056340Y-35389149D01*
X15371500Y-35389149D01*
X15371500Y-35610851D01*
X15406182Y-35829824D01*
X15406183Y-35829829D01*
X15474690Y-36040671D01*
X15474692Y-36040676D01*
X15557029Y-36202271D01*
X15575345Y-36238218D01*
X15705658Y-36417578D01*
X15862421Y-36574341D01*
X15862424Y-36574343D01*
X16041785Y-36704657D01*
X16239324Y-36805308D01*
X16450176Y-36873818D01*
X16669149Y-36908500D01*
X16669152Y-36908500D01*
X17590848Y-36908500D01*
X17590851Y-36908500D01*
X17809824Y-36873818D01*
X18020676Y-36805308D01*
X18218215Y-36704657D01*
X18397576Y-36574343D01*
X18554343Y-36417576D01*
X18684657Y-36238215D01*
X18785308Y-36040676D01*
X18853818Y-35829824D01*
X18888500Y-35610851D01*
X18888500Y-35389149D01*
X23021500Y-35389149D01*
X23021500Y-35610851D01*
X23056182Y-35829824D01*
X23056183Y-35829829D01*
X23124690Y-36040671D01*
X23124692Y-36040676D01*
X23207029Y-36202271D01*
X23225345Y-36238218D01*
X23355658Y-36417578D01*
X23512421Y-36574341D01*
X23512424Y-36574343D01*
X23691785Y-36704657D01*
X23889324Y-36805308D01*
X24100176Y-36873818D01*
X24319149Y-36908500D01*
X24319152Y-36908500D01*
X25240848Y-36908500D01*
X25240851Y-36908500D01*
X25459824Y-36873818D01*
X25670676Y-36805308D01*
X25868215Y-36704657D01*
X26047576Y-36574343D01*
X26204343Y-36417576D01*
X26334657Y-36238215D01*
X26435308Y-36040676D01*
X26503818Y-35829824D01*
X26538500Y-35610851D01*
X26538500Y-35389149D01*
X26503818Y-35170176D01*
X26435308Y-34959324D01*
X26334657Y-34761785D01*
X26267887Y-34669885D01*
X26204341Y-34582421D01*
X26047578Y-34425658D01*
X25868218Y-34295345D01*
X25868217Y-34295344D01*
X25868215Y-34295343D01*
X25670676Y-34194692D01*
X25670673Y-34194691D01*
X25670671Y-34194690D01*
X25459829Y-34126183D01*
X25459825Y-34126182D01*
X25459824Y-34126182D01*
X25240851Y-34091500D01*
X24319149Y-34091500D01*
X24100176Y-34126182D01*
X24100170Y-34126183D01*
X23889328Y-34194690D01*
X23889322Y-34194693D01*
X23691781Y-34295345D01*
X23512421Y-34425658D01*
X23355658Y-34582421D01*
X23225345Y-34761781D01*
X23124693Y-34959322D01*
X23124690Y-34959328D01*
X23056183Y-35170170D01*
X23056182Y-35170175D01*
X23056182Y-35170176D01*
X23021500Y-35389149D01*
X18888500Y-35389149D01*
X18853818Y-35170176D01*
X18785308Y-34959324D01*
X18684657Y-34761785D01*
X18617887Y-34669885D01*
X18554341Y-34582421D01*
X18397578Y-34425658D01*
X18218218Y-34295345D01*
X18218217Y-34295344D01*
X18218215Y-34295343D01*
X18020676Y-34194692D01*
X18020673Y-34194691D01*
X18020671Y-34194690D01*
X17809829Y-34126183D01*
X17809825Y-34126182D01*
X17809824Y-34126182D01*
X17590851Y-34091500D01*
X16669149Y-34091500D01*
X16450176Y-34126182D01*
X16450170Y-34126183D01*
X16239328Y-34194690D01*
X16239322Y-34194693D01*
X16041781Y-34295345D01*
X15862421Y-34425658D01*
X15705658Y-34582421D01*
X15575345Y-34761781D01*
X15474693Y-34959322D01*
X15474690Y-34959328D01*
X15406183Y-35170170D01*
X15406182Y-35170175D01*
X15406182Y-35170176D01*
X15371500Y-35389149D01*
X13056340Y-35389149D01*
X3209320Y-25542129D01*
X3209316Y-25542126D01*
X3209314Y-25542124D01*
X3200413Y-25536985D01*
X3075986Y-25465147D01*
X3048524Y-25457788D01*
X3036217Y-25451361D01*
X3020248Y-25435973D01*
X3001311Y-25424430D01*
X2987456Y-25404373D01*
X2985094Y-25402097D01*
X2984681Y-25400356D01*
X2982280Y-25396880D01*
X2931894Y-25297991D01*
X2806206Y-25124996D01*
X2806203Y-25124993D01*
X2806201Y-25124990D01*
X2655009Y-24973798D01*
X2655006Y-24973796D01*
X2655004Y-24973794D01*
X2482009Y-24848106D01*
X2482007Y-24848105D01*
X2480920Y-24847439D01*
X2480591Y-24847075D01*
X2478004Y-24845196D01*
X2478398Y-24844652D01*
X2433283Y-24794796D01*
X2421670Y-24724756D01*
X2449766Y-24659555D01*
X2478129Y-24634978D01*
X2478003Y-24634804D01*
X2480036Y-24633326D01*
X2480920Y-24632561D01*
X2481995Y-24631901D01*
X2482009Y-24631894D01*
X2645855Y-24512852D01*
X2712717Y-24488997D01*
X2781869Y-24505077D01*
G37*
%TD.AperFunction*%
%TA.AperFunction,Conductor*%
G36*
X3347220Y-9595502D02*
G01*
X3393713Y-9649158D01*
X3403817Y-9719432D01*
X3374323Y-9784012D01*
X3368194Y-9790595D01*
X3273798Y-9884990D01*
X3273796Y-9884993D01*
X3148108Y-10057987D01*
X3051029Y-10248515D01*
X3051026Y-10248521D01*
X2984952Y-10451878D01*
X2984951Y-10451883D01*
X2984951Y-10451884D01*
X2951500Y-10663084D01*
X2951500Y-10876916D01*
X2984951Y-11088116D01*
X2984952Y-11088121D01*
X3051026Y-11291478D01*
X3051028Y-11291483D01*
X3148106Y-11482009D01*
X3273794Y-11655004D01*
X3273796Y-11655006D01*
X3273798Y-11655009D01*
X3424990Y-11806201D01*
X3424993Y-11806203D01*
X3424996Y-11806206D01*
X3597991Y-11931894D01*
X3788517Y-12028972D01*
X3991878Y-12095047D01*
X3991879Y-12095047D01*
X3991884Y-12095049D01*
X4203084Y-12128500D01*
X4203087Y-12128500D01*
X4416913Y-12128500D01*
X4416916Y-12128500D01*
X4628116Y-12095049D01*
X4831483Y-12028972D01*
X5022009Y-11931894D01*
X5195004Y-11806206D01*
X5346206Y-11655004D01*
X5471894Y-11482009D01*
X5471899Y-11481997D01*
X5472561Y-11480920D01*
X5472924Y-11480591D01*
X5474804Y-11478004D01*
X5475347Y-11478398D01*
X5525204Y-11433283D01*
X5595244Y-11421670D01*
X5660445Y-11449766D01*
X5685021Y-11478130D01*
X5685196Y-11478004D01*
X5686668Y-11480030D01*
X5687439Y-11480920D01*
X5688105Y-11482007D01*
X5688106Y-11482009D01*
X5813794Y-11655004D01*
X5813796Y-11655006D01*
X5813798Y-11655009D01*
X5964990Y-11806201D01*
X5964993Y-11806203D01*
X5964996Y-11806206D01*
X6137991Y-11931894D01*
X6328517Y-12028972D01*
X6531878Y-12095047D01*
X6531879Y-12095047D01*
X6531884Y-12095049D01*
X6743084Y-12128500D01*
X6743087Y-12128500D01*
X6956913Y-12128500D01*
X6956916Y-12128500D01*
X7168116Y-12095049D01*
X7371483Y-12028972D01*
X7562009Y-11931894D01*
X7735004Y-11806206D01*
X7792265Y-11748944D01*
X7854574Y-11714920D01*
X7925390Y-11719984D01*
X7970454Y-11748945D01*
X12090080Y-15868572D01*
X12090083Y-15868574D01*
X12090085Y-15868576D01*
X12156748Y-15907063D01*
X12156750Y-15907065D01*
X12223408Y-15945550D01*
X12223411Y-15945551D01*
X12223414Y-15945553D01*
X12372123Y-15985400D01*
X16125255Y-15985400D01*
X16193376Y-16005402D01*
X16239869Y-16059058D01*
X16249973Y-16129332D01*
X16220479Y-16193912D01*
X16182459Y-16223665D01*
X16054968Y-16288625D01*
X16041781Y-16295345D01*
X15862421Y-16425658D01*
X15705658Y-16582421D01*
X15575345Y-16761781D01*
X15474693Y-16959322D01*
X15474690Y-16959328D01*
X15406183Y-17170170D01*
X15406182Y-17170175D01*
X15406182Y-17170176D01*
X15371500Y-17389149D01*
X15371500Y-17610851D01*
X15406182Y-17829824D01*
X15406183Y-17829829D01*
X15463343Y-18005748D01*
X15474692Y-18040676D01*
X15556384Y-18201005D01*
X15575345Y-18238218D01*
X15705658Y-18417578D01*
X15862421Y-18574341D01*
X15980246Y-18659946D01*
X16041785Y-18704657D01*
X16239324Y-18805308D01*
X16450176Y-18873818D01*
X16669149Y-18908500D01*
X16669152Y-18908500D01*
X17358819Y-18908500D01*
X17426940Y-18928502D01*
X17473433Y-18982158D01*
X17483537Y-19052432D01*
X17454043Y-19117012D01*
X17447914Y-19123595D01*
X12550455Y-24021054D01*
X12488143Y-24055080D01*
X12417328Y-24050015D01*
X12372265Y-24021054D01*
X12315009Y-23963798D01*
X12315006Y-23963796D01*
X12315004Y-23963794D01*
X12142009Y-23838106D01*
X11951483Y-23741028D01*
X11951480Y-23741027D01*
X11951478Y-23741026D01*
X11748120Y-23674952D01*
X11748123Y-23674952D01*
X11708801Y-23668724D01*
X11536916Y-23641500D01*
X11323084Y-23641500D01*
X11111884Y-23674951D01*
X11111878Y-23674952D01*
X10908521Y-23741026D01*
X10908515Y-23741029D01*
X10717987Y-23838108D01*
X10544993Y-23963796D01*
X10544990Y-23963798D01*
X10393798Y-24114990D01*
X10393796Y-24114993D01*
X10268108Y-24287987D01*
X10268106Y-24287991D01*
X10171028Y-24478517D01*
X10160836Y-24509885D01*
X10159046Y-24515395D01*
X10118971Y-24574000D01*
X10053574Y-24601636D01*
X9983618Y-24589529D01*
X9931312Y-24541522D01*
X9926946Y-24533660D01*
X9870802Y-24423473D01*
X9769032Y-24283396D01*
X9646603Y-24160967D01*
X9506527Y-24059197D01*
X9352254Y-23980591D01*
X9352248Y-23980588D01*
X9187589Y-23927087D01*
X9130000Y-23917965D01*
X9130000Y-24538120D01*
X9122993Y-24534075D01*
X8995826Y-24500000D01*
X8864174Y-24500000D01*
X8737007Y-24534075D01*
X8730000Y-24538120D01*
X8730000Y-23917965D01*
X8672410Y-23927087D01*
X8507751Y-23980588D01*
X8507745Y-23980591D01*
X8353472Y-24059197D01*
X8213396Y-24160967D01*
X8090967Y-24283396D01*
X7989197Y-24423472D01*
X7910591Y-24577745D01*
X7910588Y-24577751D01*
X7857087Y-24742410D01*
X7847966Y-24800000D01*
X8468120Y-24800000D01*
X8464075Y-24807007D01*
X8430000Y-24934174D01*
X8430000Y-25065826D01*
X8464075Y-25192993D01*
X8468120Y-25200000D01*
X7847966Y-25200000D01*
X7857087Y-25257589D01*
X7910588Y-25422248D01*
X7910591Y-25422254D01*
X7989197Y-25576527D01*
X8090967Y-25716603D01*
X8213396Y-25839032D01*
X8353472Y-25940802D01*
X8507745Y-26019408D01*
X8507751Y-26019411D01*
X8672411Y-26072912D01*
X8730000Y-26082033D01*
X8730000Y-25461879D01*
X8737007Y-25465925D01*
X8864174Y-25500000D01*
X8995826Y-25500000D01*
X9122993Y-25465925D01*
X9130000Y-25461879D01*
X9130000Y-26082033D01*
X9187588Y-26072912D01*
X9352248Y-26019411D01*
X9352254Y-26019408D01*
X9506527Y-25940802D01*
X9646603Y-25839032D01*
X9769032Y-25716603D01*
X9870802Y-25576527D01*
X9926946Y-25466339D01*
X9975694Y-25414724D01*
X10044609Y-25397658D01*
X10111811Y-25420559D01*
X10155963Y-25476156D01*
X10159044Y-25484599D01*
X10171028Y-25521483D01*
X10257852Y-25691884D01*
X10268108Y-25712012D01*
X10271444Y-25716603D01*
X10393794Y-25885004D01*
X10393796Y-25885006D01*
X10393798Y-25885009D01*
X10544990Y-26036201D01*
X10544993Y-26036203D01*
X10544996Y-26036206D01*
X10717991Y-26161894D01*
X10908517Y-26258972D01*
X11111878Y-26325047D01*
X11111879Y-26325047D01*
X11111884Y-26325049D01*
X11323084Y-26358500D01*
X11323087Y-26358500D01*
X11536913Y-26358500D01*
X11536916Y-26358500D01*
X11748116Y-26325049D01*
X11951483Y-26258972D01*
X12142009Y-26161894D01*
X12315004Y-26036206D01*
X12466206Y-25885004D01*
X12578064Y-25731043D01*
X12634286Y-25687690D01*
X12705022Y-25681615D01*
X12767814Y-25714746D01*
X12781934Y-25731041D01*
X12893794Y-25885004D01*
X12893796Y-25885006D01*
X12893798Y-25885009D01*
X13044990Y-26036201D01*
X13044993Y-26036203D01*
X13044996Y-26036206D01*
X13217991Y-26161894D01*
X13408517Y-26258972D01*
X13611878Y-26325047D01*
X13611879Y-26325047D01*
X13611884Y-26325049D01*
X13823084Y-26358500D01*
X13823087Y-26358500D01*
X14036913Y-26358500D01*
X14036916Y-26358500D01*
X14248116Y-26325049D01*
X14451483Y-26258972D01*
X14642009Y-26161894D01*
X14815004Y-26036206D01*
X14928215Y-25922994D01*
X14990525Y-25888971D01*
X15061341Y-25894035D01*
X15106404Y-25922996D01*
X15772278Y-26588870D01*
X15772281Y-26588872D01*
X15772285Y-26588876D01*
X15782373Y-26594700D01*
X15905614Y-26665853D01*
X16054323Y-26705700D01*
X19732719Y-26705700D01*
X19800840Y-26725702D01*
X19847333Y-26779358D01*
X19857437Y-26849632D01*
X19827943Y-26914212D01*
X19821814Y-26920795D01*
X13832915Y-32909695D01*
X13770603Y-32943721D01*
X13743820Y-32946600D01*
X13687638Y-32946600D01*
X13523149Y-32979319D01*
X13368215Y-33043496D01*
X13368211Y-33043498D01*
X13281104Y-33101702D01*
X13228764Y-33136674D01*
X13228762Y-33136675D01*
X13223618Y-33140113D01*
X13222325Y-33138178D01*
X13166490Y-33161855D01*
X13096518Y-33149834D01*
X13062879Y-33125789D01*
X3471905Y-23534815D01*
X3437879Y-23472503D01*
X3435000Y-23445720D01*
X3435000Y-23393023D01*
X3404984Y-23281005D01*
X3395153Y-23244314D01*
X3348043Y-23162718D01*
X3318178Y-23110989D01*
X3318170Y-23110979D01*
X3209320Y-23002129D01*
X3209310Y-23002121D01*
X3075987Y-22925147D01*
X3071522Y-22923950D01*
X3061931Y-22921380D01*
X3032590Y-22903496D01*
X3002941Y-22886190D01*
X3001993Y-22884846D01*
X3001311Y-22884430D01*
X2982282Y-22856883D01*
X2955148Y-22803630D01*
X2942045Y-22733857D01*
X2968745Y-22668072D01*
X3026773Y-22627166D01*
X3091994Y-22622852D01*
X3240544Y-22652400D01*
X3240545Y-22652400D01*
X3408255Y-22652400D01*
X3408256Y-22652400D01*
X3572744Y-22619682D01*
X3572747Y-22619680D01*
X3572750Y-22619680D01*
X3727684Y-22555503D01*
X3727683Y-22555503D01*
X3727689Y-22555501D01*
X3867136Y-22462326D01*
X3985726Y-22343736D01*
X4078901Y-22204289D01*
X4103371Y-22145213D01*
X4143080Y-22049350D01*
X4143080Y-22049347D01*
X4143082Y-22049344D01*
X4175800Y-21884856D01*
X4175800Y-21717144D01*
X4143082Y-21552656D01*
X4143080Y-21552653D01*
X4143080Y-21552649D01*
X4078903Y-21397715D01*
X4078901Y-21397711D01*
X3985726Y-21258264D01*
X3867136Y-21139674D01*
X3727689Y-21046499D01*
X3727690Y-21046499D01*
X3727688Y-21046498D01*
X3727684Y-21046496D01*
X3572755Y-20982321D01*
X3572746Y-20982319D01*
X3572744Y-20982318D01*
X3541876Y-20976178D01*
X3536417Y-20975092D01*
X3473508Y-20942183D01*
X3438377Y-20880488D01*
X3436129Y-20861205D01*
X3436078Y-20861212D01*
X3435000Y-20853024D01*
X3435000Y-20853023D01*
X3395153Y-20704314D01*
X3348043Y-20622718D01*
X3318178Y-20570989D01*
X3318170Y-20570979D01*
X3209320Y-20462129D01*
X3209310Y-20462121D01*
X3075987Y-20385147D01*
X3071522Y-20383950D01*
X3061931Y-20381380D01*
X3001311Y-20344430D01*
X2982280Y-20316880D01*
X2931894Y-20217991D01*
X2806206Y-20044996D01*
X2806203Y-20044993D01*
X2806201Y-20044990D01*
X2655009Y-19893798D01*
X2655006Y-19893796D01*
X2655004Y-19893794D01*
X2482009Y-19768106D01*
X2482007Y-19768105D01*
X2480920Y-19767439D01*
X2480591Y-19767075D01*
X2478004Y-19765196D01*
X2478398Y-19764652D01*
X2433283Y-19714796D01*
X2421670Y-19644756D01*
X2449766Y-19579555D01*
X2478130Y-19554978D01*
X2478004Y-19554804D01*
X2480030Y-19553331D01*
X2480920Y-19552561D01*
X2481997Y-19551899D01*
X2482009Y-19551894D01*
X2655004Y-19426206D01*
X2806206Y-19275004D01*
X2931894Y-19102009D01*
X3028972Y-18911483D01*
X3095049Y-18708116D01*
X3128500Y-18496916D01*
X3128500Y-18283084D01*
X3095049Y-18071884D01*
X3028972Y-17868517D01*
X2931894Y-17677991D01*
X2806206Y-17504996D01*
X2806203Y-17504993D01*
X2806201Y-17504990D01*
X2690360Y-17389149D01*
X3971500Y-17389149D01*
X3971500Y-17610851D01*
X4006182Y-17829824D01*
X4006183Y-17829829D01*
X4063343Y-18005748D01*
X4074692Y-18040676D01*
X4156384Y-18201005D01*
X4175345Y-18238218D01*
X4305658Y-18417578D01*
X4462421Y-18574341D01*
X4580246Y-18659946D01*
X4641785Y-18704657D01*
X4839324Y-18805308D01*
X5050176Y-18873818D01*
X5269149Y-18908500D01*
X5269152Y-18908500D01*
X6190848Y-18908500D01*
X6190851Y-18908500D01*
X6409824Y-18873818D01*
X6620676Y-18805308D01*
X6818215Y-18704657D01*
X6997576Y-18574343D01*
X7154343Y-18417576D01*
X7284657Y-18238215D01*
X7385308Y-18040676D01*
X7453818Y-17829824D01*
X7488500Y-17610851D01*
X7488500Y-17389149D01*
X7453818Y-17170176D01*
X7385308Y-16959324D01*
X7284657Y-16761785D01*
X7154343Y-16582424D01*
X7154341Y-16582421D01*
X6997578Y-16425658D01*
X6818218Y-16295345D01*
X6818217Y-16295344D01*
X6818215Y-16295343D01*
X6620676Y-16194692D01*
X6620673Y-16194691D01*
X6620671Y-16194690D01*
X6409829Y-16126183D01*
X6409825Y-16126182D01*
X6409824Y-16126182D01*
X6190851Y-16091500D01*
X5269149Y-16091500D01*
X5050176Y-16126182D01*
X5050170Y-16126183D01*
X4839328Y-16194690D01*
X4839322Y-16194693D01*
X4641781Y-16295345D01*
X4462421Y-16425658D01*
X4305658Y-16582421D01*
X4175345Y-16761781D01*
X4074693Y-16959322D01*
X4074690Y-16959328D01*
X4006183Y-17170170D01*
X4006182Y-17170175D01*
X4006182Y-17170176D01*
X3971500Y-17389149D01*
X2690360Y-17389149D01*
X2655009Y-17353798D01*
X2655006Y-17353796D01*
X2655004Y-17353794D01*
X2482009Y-17228106D01*
X2291483Y-17131028D01*
X2291480Y-17131027D01*
X2291478Y-17131026D01*
X2088120Y-17064952D01*
X2088123Y-17064952D01*
X2048801Y-17058724D01*
X1876916Y-17031500D01*
X1663084Y-17031500D01*
X1451884Y-17064951D01*
X1451878Y-17064952D01*
X1248521Y-17131026D01*
X1248515Y-17131029D01*
X1057987Y-17228108D01*
X884993Y-17353796D01*
X884990Y-17353798D01*
X790595Y-17448194D01*
X728283Y-17482220D01*
X657468Y-17477155D01*
X600632Y-17434608D01*
X575821Y-17368088D01*
X575500Y-17359099D01*
X575500Y-9701500D01*
X595502Y-9633379D01*
X649158Y-9586886D01*
X701500Y-9575500D01*
X3279099Y-9575500D01*
X3347220Y-9595502D01*
G37*
%TD.AperFunction*%
%TA.AperFunction,Conductor*%
G36*
X57847362Y-19267429D02*
G01*
X57875017Y-19273445D01*
X57883849Y-19280057D01*
X57887718Y-19281396D01*
X57903727Y-19294938D01*
X58034990Y-19426201D01*
X58034993Y-19426203D01*
X58034996Y-19426206D01*
X58207991Y-19551894D01*
X58207996Y-19551896D01*
X58209088Y-19552566D01*
X58209418Y-19552931D01*
X58211996Y-19554804D01*
X58211602Y-19555345D01*
X58256721Y-19605213D01*
X58268328Y-19675255D01*
X58240226Y-19740453D01*
X58211870Y-19765023D01*
X58211996Y-19765196D01*
X58209982Y-19766658D01*
X58209088Y-19767434D01*
X58207987Y-19768108D01*
X58034993Y-19893796D01*
X58034990Y-19893798D01*
X57883798Y-20044990D01*
X57883796Y-20044993D01*
X57758108Y-20217987D01*
X57728293Y-20276503D01*
X57679545Y-20328118D01*
X57616026Y-20345300D01*
X51994123Y-20345300D01*
X51913654Y-20366862D01*
X51845413Y-20385147D01*
X51729110Y-20452295D01*
X51729109Y-20452296D01*
X51712087Y-20462123D01*
X51712081Y-20462127D01*
X47969017Y-24205191D01*
X47906705Y-24239217D01*
X47835889Y-24234152D01*
X47790827Y-24205191D01*
X47746603Y-24160967D01*
X47606527Y-24059197D01*
X47452254Y-23980591D01*
X47452248Y-23980588D01*
X47287589Y-23927087D01*
X47230000Y-23917965D01*
X47230000Y-24538120D01*
X47222993Y-24534075D01*
X47095826Y-24500000D01*
X46964174Y-24500000D01*
X46837007Y-24534075D01*
X46830000Y-24538120D01*
X46830000Y-23917965D01*
X46772410Y-23927087D01*
X46607751Y-23980588D01*
X46607745Y-23980591D01*
X46453472Y-24059197D01*
X46313396Y-24160967D01*
X46190967Y-24283396D01*
X46089197Y-24423472D01*
X46010591Y-24577745D01*
X46010588Y-24577751D01*
X45957087Y-24742410D01*
X45947966Y-24800000D01*
X46568120Y-24800000D01*
X46564075Y-24807007D01*
X46530000Y-24934174D01*
X46530000Y-25065826D01*
X46564075Y-25192993D01*
X46568120Y-25200000D01*
X45947966Y-25200000D01*
X45957087Y-25257589D01*
X45984080Y-25340664D01*
X45986107Y-25411632D01*
X45949445Y-25472429D01*
X45885733Y-25503755D01*
X45864247Y-25505600D01*
X34417556Y-25505600D01*
X34349435Y-25485598D01*
X34302942Y-25431942D01*
X34292838Y-25361668D01*
X34297720Y-25340670D01*
X34305049Y-25318116D01*
X34338500Y-25106916D01*
X34338500Y-24893084D01*
X34305049Y-24681884D01*
X34238972Y-24478517D01*
X34141894Y-24287991D01*
X34016206Y-24114996D01*
X34016203Y-24114993D01*
X34016201Y-24114990D01*
X33865009Y-23963798D01*
X33865006Y-23963796D01*
X33865004Y-23963794D01*
X33692009Y-23838106D01*
X33501483Y-23741028D01*
X33501480Y-23741027D01*
X33501478Y-23741026D01*
X33298120Y-23674952D01*
X33298123Y-23674952D01*
X33258801Y-23668724D01*
X33086916Y-23641500D01*
X32873084Y-23641500D01*
X32661884Y-23674951D01*
X32661878Y-23674952D01*
X32458521Y-23741026D01*
X32458515Y-23741029D01*
X32267987Y-23838108D01*
X32094995Y-23963794D01*
X32037735Y-24021054D01*
X31975422Y-24055079D01*
X31904607Y-24050013D01*
X31859545Y-24021054D01*
X31275816Y-23437326D01*
X31275810Y-23437321D01*
X31199082Y-23393023D01*
X31142486Y-23360347D01*
X30993777Y-23320500D01*
X29914823Y-23320500D01*
X29815683Y-23347064D01*
X29766113Y-23360347D01*
X29761373Y-23363084D01*
X29730193Y-23381086D01*
X29681489Y-23409205D01*
X29632786Y-23437323D01*
X29632782Y-23437326D01*
X29010857Y-24059252D01*
X29010745Y-24059364D01*
X29010686Y-24059424D01*
X28901824Y-24168286D01*
X28900475Y-24170621D01*
X28892892Y-24178273D01*
X28868508Y-24191728D01*
X28846017Y-24208149D01*
X28837874Y-24208633D01*
X28830732Y-24212575D01*
X28802942Y-24210712D01*
X28775146Y-24212366D01*
X28767920Y-24208364D01*
X28759894Y-24207826D01*
X28739093Y-24192398D01*
X28714306Y-24178670D01*
X28696603Y-24160967D01*
X28556527Y-24059197D01*
X28402254Y-23980591D01*
X28402248Y-23980588D01*
X28237589Y-23927087D01*
X28180000Y-23917965D01*
X28180000Y-24538120D01*
X28172993Y-24534075D01*
X28045826Y-24500000D01*
X27914174Y-24500000D01*
X27787007Y-24534075D01*
X27780000Y-24538120D01*
X27780000Y-23917965D01*
X27722410Y-23927087D01*
X27557751Y-23980588D01*
X27557745Y-23980591D01*
X27403472Y-24059197D01*
X27263396Y-24160967D01*
X27140967Y-24283396D01*
X27039197Y-24423472D01*
X26960591Y-24577745D01*
X26960588Y-24577751D01*
X26907087Y-24742410D01*
X26897966Y-24800000D01*
X27518120Y-24800000D01*
X27514075Y-24807007D01*
X27480000Y-24934174D01*
X27480000Y-25065826D01*
X27514075Y-25192993D01*
X27518120Y-25200000D01*
X26897966Y-25200000D01*
X26907087Y-25257589D01*
X26944055Y-25371364D01*
X26946082Y-25442332D01*
X26909420Y-25503129D01*
X26845708Y-25534455D01*
X26824222Y-25536300D01*
X16425681Y-25536300D01*
X16357560Y-25516298D01*
X16336586Y-25499395D01*
X15369318Y-24532127D01*
X15369312Y-24532123D01*
X15358180Y-24525696D01*
X15352291Y-24522296D01*
X15235986Y-24455147D01*
X15208657Y-24447824D01*
X15196462Y-24441489D01*
X15180363Y-24426043D01*
X15161311Y-24414430D01*
X15147656Y-24394663D01*
X15145231Y-24392336D01*
X15144797Y-24390524D01*
X15142280Y-24386880D01*
X15091894Y-24287991D01*
X14966206Y-24114996D01*
X14966203Y-24114993D01*
X14966201Y-24114990D01*
X14815009Y-23963798D01*
X14815006Y-23963796D01*
X14815004Y-23963794D01*
X14642012Y-23838108D01*
X14642011Y-23838107D01*
X14627714Y-23830822D01*
X14576101Y-23782072D01*
X14559037Y-23713156D01*
X14581940Y-23645955D01*
X14595820Y-23629468D01*
X18837685Y-19387605D01*
X18899997Y-19353579D01*
X18926780Y-19350700D01*
X57540675Y-19350700D01*
X57540677Y-19350700D01*
X57689386Y-19310853D01*
X57751633Y-19274914D01*
X57779126Y-19268244D01*
X57805643Y-19258354D01*
X57813155Y-19259988D01*
X57820626Y-19258176D01*
X57847362Y-19267429D01*
G37*
%TD.AperFunction*%
%TA.AperFunction,Conductor*%
G36*
X37590686Y-9581838D02*
G01*
X37613131Y-9583444D01*
X37624087Y-9591645D01*
X37637220Y-9595502D01*
X37651955Y-9612507D01*
X37669967Y-9625991D01*
X37674749Y-9638813D01*
X37683713Y-9649158D01*
X37686915Y-9671430D01*
X37694778Y-9692511D01*
X37691869Y-9705883D01*
X37693817Y-9719432D01*
X37684469Y-9739898D01*
X37679687Y-9761885D01*
X37666201Y-9779898D01*
X37664323Y-9784012D01*
X37658194Y-9790595D01*
X37563798Y-9884990D01*
X37563796Y-9884993D01*
X37438108Y-10057987D01*
X37341029Y-10248515D01*
X37341026Y-10248521D01*
X37274952Y-10451878D01*
X37274951Y-10451883D01*
X37274951Y-10451884D01*
X37241500Y-10663084D01*
X37241500Y-10876916D01*
X37274951Y-11088116D01*
X37274952Y-11088121D01*
X37341026Y-11291478D01*
X37341028Y-11291483D01*
X37424343Y-11454997D01*
X37437447Y-11524774D01*
X37410747Y-11590559D01*
X37352719Y-11631465D01*
X37312076Y-11638200D01*
X23377924Y-11638200D01*
X23309803Y-11618198D01*
X23263310Y-11564542D01*
X23253206Y-11494268D01*
X23265657Y-11454997D01*
X23348972Y-11291483D01*
X23415049Y-11088116D01*
X23448500Y-10876916D01*
X23448500Y-10663084D01*
X23415049Y-10451884D01*
X23348972Y-10248517D01*
X23251894Y-10057991D01*
X23126206Y-9884996D01*
X23126203Y-9884993D01*
X23126201Y-9884990D01*
X23031806Y-9790595D01*
X22997780Y-9728283D01*
X23002845Y-9657468D01*
X23045392Y-9600632D01*
X23111912Y-9575821D01*
X23120901Y-9575500D01*
X37569099Y-9575500D01*
X37590686Y-9581838D01*
G37*
%TD.AperFunction*%
%TD*%
M02*
