%TF.GenerationSoftware,KiCad,Pcbnew,10.0.4*%
%TF.CreationDate,2026-08-22T16:50:02+02:00*%
%TF.ProjectId,KoloredVerb,4b6f6c6f-7265-4645-9665-72622e6b6963,rev?*%
%TF.SameCoordinates,Original*%
%TF.FileFunction,Legend,Top*%
%TF.FilePolarity,Positive*%
%FSLAX46Y46*%
G04 Gerber Fmt 4.6, Leading zero omitted, Abs format (unit mm)*
G04 Created by KiCad (PCBNEW 10.0.4) date 2026-08-22 16:50:02*
%MOMM*%
%LPD*%
G01*
G04 APERTURE LIST*
%ADD10C,0.150000*%
%ADD11C,0.120000*%
G04 APERTURE END LIST*
D10*
X29884761Y-22654819D02*
X29551428Y-22178628D01*
X29313333Y-22654819D02*
X29313333Y-21654819D01*
X29313333Y-21654819D02*
X29694285Y-21654819D01*
X29694285Y-21654819D02*
X29789523Y-21702438D01*
X29789523Y-21702438D02*
X29837142Y-21750057D01*
X29837142Y-21750057D02*
X29884761Y-21845295D01*
X29884761Y-21845295D02*
X29884761Y-21988152D01*
X29884761Y-21988152D02*
X29837142Y-22083390D01*
X29837142Y-22083390D02*
X29789523Y-22131009D01*
X29789523Y-22131009D02*
X29694285Y-22178628D01*
X29694285Y-22178628D02*
X29313333Y-22178628D01*
X30170476Y-21654819D02*
X30503809Y-22654819D01*
X30503809Y-22654819D02*
X30837142Y-21654819D01*
X31122857Y-21750057D02*
X31170476Y-21702438D01*
X31170476Y-21702438D02*
X31265714Y-21654819D01*
X31265714Y-21654819D02*
X31503809Y-21654819D01*
X31503809Y-21654819D02*
X31599047Y-21702438D01*
X31599047Y-21702438D02*
X31646666Y-21750057D01*
X31646666Y-21750057D02*
X31694285Y-21845295D01*
X31694285Y-21845295D02*
X31694285Y-21940533D01*
X31694285Y-21940533D02*
X31646666Y-22083390D01*
X31646666Y-22083390D02*
X31075238Y-22654819D01*
X31075238Y-22654819D02*
X31694285Y-22654819D01*
X29884761Y-63654819D02*
X29551428Y-63178628D01*
X29313333Y-63654819D02*
X29313333Y-62654819D01*
X29313333Y-62654819D02*
X29694285Y-62654819D01*
X29694285Y-62654819D02*
X29789523Y-62702438D01*
X29789523Y-62702438D02*
X29837142Y-62750057D01*
X29837142Y-62750057D02*
X29884761Y-62845295D01*
X29884761Y-62845295D02*
X29884761Y-62988152D01*
X29884761Y-62988152D02*
X29837142Y-63083390D01*
X29837142Y-63083390D02*
X29789523Y-63131009D01*
X29789523Y-63131009D02*
X29694285Y-63178628D01*
X29694285Y-63178628D02*
X29313333Y-63178628D01*
X30170476Y-62654819D02*
X30503809Y-63654819D01*
X30503809Y-63654819D02*
X30837142Y-62654819D01*
X31075238Y-62654819D02*
X31741904Y-62654819D01*
X31741904Y-62654819D02*
X31313333Y-63654819D01*
X29884761Y-40654819D02*
X29551428Y-40178628D01*
X29313333Y-40654819D02*
X29313333Y-39654819D01*
X29313333Y-39654819D02*
X29694285Y-39654819D01*
X29694285Y-39654819D02*
X29789523Y-39702438D01*
X29789523Y-39702438D02*
X29837142Y-39750057D01*
X29837142Y-39750057D02*
X29884761Y-39845295D01*
X29884761Y-39845295D02*
X29884761Y-39988152D01*
X29884761Y-39988152D02*
X29837142Y-40083390D01*
X29837142Y-40083390D02*
X29789523Y-40131009D01*
X29789523Y-40131009D02*
X29694285Y-40178628D01*
X29694285Y-40178628D02*
X29313333Y-40178628D01*
X30170476Y-39654819D02*
X30503809Y-40654819D01*
X30503809Y-40654819D02*
X30837142Y-39654819D01*
X31646666Y-39654819D02*
X31170476Y-39654819D01*
X31170476Y-39654819D02*
X31122857Y-40131009D01*
X31122857Y-40131009D02*
X31170476Y-40083390D01*
X31170476Y-40083390D02*
X31265714Y-40035771D01*
X31265714Y-40035771D02*
X31503809Y-40035771D01*
X31503809Y-40035771D02*
X31599047Y-40083390D01*
X31599047Y-40083390D02*
X31646666Y-40131009D01*
X31646666Y-40131009D02*
X31694285Y-40226247D01*
X31694285Y-40226247D02*
X31694285Y-40464342D01*
X31694285Y-40464342D02*
X31646666Y-40559580D01*
X31646666Y-40559580D02*
X31599047Y-40607200D01*
X31599047Y-40607200D02*
X31503809Y-40654819D01*
X31503809Y-40654819D02*
X31265714Y-40654819D01*
X31265714Y-40654819D02*
X31170476Y-40607200D01*
X31170476Y-40607200D02*
X31122857Y-40559580D01*
X10834761Y-22654819D02*
X10501428Y-22178628D01*
X10263333Y-22654819D02*
X10263333Y-21654819D01*
X10263333Y-21654819D02*
X10644285Y-21654819D01*
X10644285Y-21654819D02*
X10739523Y-21702438D01*
X10739523Y-21702438D02*
X10787142Y-21750057D01*
X10787142Y-21750057D02*
X10834761Y-21845295D01*
X10834761Y-21845295D02*
X10834761Y-21988152D01*
X10834761Y-21988152D02*
X10787142Y-22083390D01*
X10787142Y-22083390D02*
X10739523Y-22131009D01*
X10739523Y-22131009D02*
X10644285Y-22178628D01*
X10644285Y-22178628D02*
X10263333Y-22178628D01*
X11120476Y-21654819D02*
X11453809Y-22654819D01*
X11453809Y-22654819D02*
X11787142Y-21654819D01*
X12644285Y-22654819D02*
X12072857Y-22654819D01*
X12358571Y-22654819D02*
X12358571Y-21654819D01*
X12358571Y-21654819D02*
X12263333Y-21797676D01*
X12263333Y-21797676D02*
X12168095Y-21892914D01*
X12168095Y-21892914D02*
X12072857Y-21940533D01*
X48934761Y-22654819D02*
X48601428Y-22178628D01*
X48363333Y-22654819D02*
X48363333Y-21654819D01*
X48363333Y-21654819D02*
X48744285Y-21654819D01*
X48744285Y-21654819D02*
X48839523Y-21702438D01*
X48839523Y-21702438D02*
X48887142Y-21750057D01*
X48887142Y-21750057D02*
X48934761Y-21845295D01*
X48934761Y-21845295D02*
X48934761Y-21988152D01*
X48934761Y-21988152D02*
X48887142Y-22083390D01*
X48887142Y-22083390D02*
X48839523Y-22131009D01*
X48839523Y-22131009D02*
X48744285Y-22178628D01*
X48744285Y-22178628D02*
X48363333Y-22178628D01*
X49220476Y-21654819D02*
X49553809Y-22654819D01*
X49553809Y-22654819D02*
X49887142Y-21654819D01*
X50125238Y-21654819D02*
X50744285Y-21654819D01*
X50744285Y-21654819D02*
X50410952Y-22035771D01*
X50410952Y-22035771D02*
X50553809Y-22035771D01*
X50553809Y-22035771D02*
X50649047Y-22083390D01*
X50649047Y-22083390D02*
X50696666Y-22131009D01*
X50696666Y-22131009D02*
X50744285Y-22226247D01*
X50744285Y-22226247D02*
X50744285Y-22464342D01*
X50744285Y-22464342D02*
X50696666Y-22559580D01*
X50696666Y-22559580D02*
X50649047Y-22607200D01*
X50649047Y-22607200D02*
X50553809Y-22654819D01*
X50553809Y-22654819D02*
X50268095Y-22654819D01*
X50268095Y-22654819D02*
X50172857Y-22607200D01*
X50172857Y-22607200D02*
X50125238Y-22559580D01*
X10834761Y-40654819D02*
X10501428Y-40178628D01*
X10263333Y-40654819D02*
X10263333Y-39654819D01*
X10263333Y-39654819D02*
X10644285Y-39654819D01*
X10644285Y-39654819D02*
X10739523Y-39702438D01*
X10739523Y-39702438D02*
X10787142Y-39750057D01*
X10787142Y-39750057D02*
X10834761Y-39845295D01*
X10834761Y-39845295D02*
X10834761Y-39988152D01*
X10834761Y-39988152D02*
X10787142Y-40083390D01*
X10787142Y-40083390D02*
X10739523Y-40131009D01*
X10739523Y-40131009D02*
X10644285Y-40178628D01*
X10644285Y-40178628D02*
X10263333Y-40178628D01*
X11120476Y-39654819D02*
X11453809Y-40654819D01*
X11453809Y-40654819D02*
X11787142Y-39654819D01*
X12549047Y-39988152D02*
X12549047Y-40654819D01*
X12310952Y-39607200D02*
X12072857Y-40321485D01*
X12072857Y-40321485D02*
X12691904Y-40321485D01*
X10834761Y-63654819D02*
X10501428Y-63178628D01*
X10263333Y-63654819D02*
X10263333Y-62654819D01*
X10263333Y-62654819D02*
X10644285Y-62654819D01*
X10644285Y-62654819D02*
X10739523Y-62702438D01*
X10739523Y-62702438D02*
X10787142Y-62750057D01*
X10787142Y-62750057D02*
X10834761Y-62845295D01*
X10834761Y-62845295D02*
X10834761Y-62988152D01*
X10834761Y-62988152D02*
X10787142Y-63083390D01*
X10787142Y-63083390D02*
X10739523Y-63131009D01*
X10739523Y-63131009D02*
X10644285Y-63178628D01*
X10644285Y-63178628D02*
X10263333Y-63178628D01*
X11120476Y-62654819D02*
X11453809Y-63654819D01*
X11453809Y-63654819D02*
X11787142Y-62654819D01*
X12549047Y-62654819D02*
X12358571Y-62654819D01*
X12358571Y-62654819D02*
X12263333Y-62702438D01*
X12263333Y-62702438D02*
X12215714Y-62750057D01*
X12215714Y-62750057D02*
X12120476Y-62892914D01*
X12120476Y-62892914D02*
X12072857Y-63083390D01*
X12072857Y-63083390D02*
X12072857Y-63464342D01*
X12072857Y-63464342D02*
X12120476Y-63559580D01*
X12120476Y-63559580D02*
X12168095Y-63607200D01*
X12168095Y-63607200D02*
X12263333Y-63654819D01*
X12263333Y-63654819D02*
X12453809Y-63654819D01*
X12453809Y-63654819D02*
X12549047Y-63607200D01*
X12549047Y-63607200D02*
X12596666Y-63559580D01*
X12596666Y-63559580D02*
X12644285Y-63464342D01*
X12644285Y-63464342D02*
X12644285Y-63226247D01*
X12644285Y-63226247D02*
X12596666Y-63131009D01*
X12596666Y-63131009D02*
X12549047Y-63083390D01*
X12549047Y-63083390D02*
X12453809Y-63035771D01*
X12453809Y-63035771D02*
X12263333Y-63035771D01*
X12263333Y-63035771D02*
X12168095Y-63083390D01*
X12168095Y-63083390D02*
X12120476Y-63131009D01*
X12120476Y-63131009D02*
X12072857Y-63226247D01*
X45880476Y-106014819D02*
X45880476Y-106729104D01*
X45880476Y-106729104D02*
X45832857Y-106871961D01*
X45832857Y-106871961D02*
X45737619Y-106967200D01*
X45737619Y-106967200D02*
X45594762Y-107014819D01*
X45594762Y-107014819D02*
X45499524Y-107014819D01*
X46880476Y-107014819D02*
X46309048Y-107014819D01*
X46594762Y-107014819D02*
X46594762Y-106014819D01*
X46594762Y-106014819D02*
X46499524Y-106157676D01*
X46499524Y-106157676D02*
X46404286Y-106252914D01*
X46404286Y-106252914D02*
X46309048Y-106300533D01*
X47261429Y-106110057D02*
X47309048Y-106062438D01*
X47309048Y-106062438D02*
X47404286Y-106014819D01*
X47404286Y-106014819D02*
X47642381Y-106014819D01*
X47642381Y-106014819D02*
X47737619Y-106062438D01*
X47737619Y-106062438D02*
X47785238Y-106110057D01*
X47785238Y-106110057D02*
X47832857Y-106205295D01*
X47832857Y-106205295D02*
X47832857Y-106300533D01*
X47832857Y-106300533D02*
X47785238Y-106443390D01*
X47785238Y-106443390D02*
X47213810Y-107014819D01*
X47213810Y-107014819D02*
X47832857Y-107014819D01*
X8256666Y-106014819D02*
X8256666Y-106729104D01*
X8256666Y-106729104D02*
X8209047Y-106871961D01*
X8209047Y-106871961D02*
X8113809Y-106967200D01*
X8113809Y-106967200D02*
X7970952Y-107014819D01*
X7970952Y-107014819D02*
X7875714Y-107014819D01*
X8637619Y-106014819D02*
X9304285Y-106014819D01*
X9304285Y-106014819D02*
X8875714Y-107014819D01*
X34926666Y-92014819D02*
X34926666Y-92729104D01*
X34926666Y-92729104D02*
X34879047Y-92871961D01*
X34879047Y-92871961D02*
X34783809Y-92967200D01*
X34783809Y-92967200D02*
X34640952Y-93014819D01*
X34640952Y-93014819D02*
X34545714Y-93014819D01*
X35831428Y-92348152D02*
X35831428Y-93014819D01*
X35593333Y-91967200D02*
X35355238Y-92681485D01*
X35355238Y-92681485D02*
X35974285Y-92681485D01*
X22226666Y-106014819D02*
X22226666Y-106729104D01*
X22226666Y-106729104D02*
X22179047Y-106871961D01*
X22179047Y-106871961D02*
X22083809Y-106967200D01*
X22083809Y-106967200D02*
X21940952Y-107014819D01*
X21940952Y-107014819D02*
X21845714Y-107014819D01*
X22845714Y-106443390D02*
X22750476Y-106395771D01*
X22750476Y-106395771D02*
X22702857Y-106348152D01*
X22702857Y-106348152D02*
X22655238Y-106252914D01*
X22655238Y-106252914D02*
X22655238Y-106205295D01*
X22655238Y-106205295D02*
X22702857Y-106110057D01*
X22702857Y-106110057D02*
X22750476Y-106062438D01*
X22750476Y-106062438D02*
X22845714Y-106014819D01*
X22845714Y-106014819D02*
X23036190Y-106014819D01*
X23036190Y-106014819D02*
X23131428Y-106062438D01*
X23131428Y-106062438D02*
X23179047Y-106110057D01*
X23179047Y-106110057D02*
X23226666Y-106205295D01*
X23226666Y-106205295D02*
X23226666Y-106252914D01*
X23226666Y-106252914D02*
X23179047Y-106348152D01*
X23179047Y-106348152D02*
X23131428Y-106395771D01*
X23131428Y-106395771D02*
X23036190Y-106443390D01*
X23036190Y-106443390D02*
X22845714Y-106443390D01*
X22845714Y-106443390D02*
X22750476Y-106491009D01*
X22750476Y-106491009D02*
X22702857Y-106538628D01*
X22702857Y-106538628D02*
X22655238Y-106633866D01*
X22655238Y-106633866D02*
X22655238Y-106824342D01*
X22655238Y-106824342D02*
X22702857Y-106919580D01*
X22702857Y-106919580D02*
X22750476Y-106967200D01*
X22750476Y-106967200D02*
X22845714Y-107014819D01*
X22845714Y-107014819D02*
X23036190Y-107014819D01*
X23036190Y-107014819D02*
X23131428Y-106967200D01*
X23131428Y-106967200D02*
X23179047Y-106919580D01*
X23179047Y-106919580D02*
X23226666Y-106824342D01*
X23226666Y-106824342D02*
X23226666Y-106633866D01*
X23226666Y-106633866D02*
X23179047Y-106538628D01*
X23179047Y-106538628D02*
X23131428Y-106491009D01*
X23131428Y-106491009D02*
X23036190Y-106443390D01*
X46356666Y-92014819D02*
X46356666Y-92729104D01*
X46356666Y-92729104D02*
X46309047Y-92871961D01*
X46309047Y-92871961D02*
X46213809Y-92967200D01*
X46213809Y-92967200D02*
X46070952Y-93014819D01*
X46070952Y-93014819D02*
X45975714Y-93014819D01*
X47309047Y-92014819D02*
X46832857Y-92014819D01*
X46832857Y-92014819D02*
X46785238Y-92491009D01*
X46785238Y-92491009D02*
X46832857Y-92443390D01*
X46832857Y-92443390D02*
X46928095Y-92395771D01*
X46928095Y-92395771D02*
X47166190Y-92395771D01*
X47166190Y-92395771D02*
X47261428Y-92443390D01*
X47261428Y-92443390D02*
X47309047Y-92491009D01*
X47309047Y-92491009D02*
X47356666Y-92586247D01*
X47356666Y-92586247D02*
X47356666Y-92824342D01*
X47356666Y-92824342D02*
X47309047Y-92919580D01*
X47309047Y-92919580D02*
X47261428Y-92967200D01*
X47261428Y-92967200D02*
X47166190Y-93014819D01*
X47166190Y-93014819D02*
X46928095Y-93014819D01*
X46928095Y-93014819D02*
X46832857Y-92967200D01*
X46832857Y-92967200D02*
X46785238Y-92919580D01*
X22226666Y-92014819D02*
X22226666Y-92729104D01*
X22226666Y-92729104D02*
X22179047Y-92871961D01*
X22179047Y-92871961D02*
X22083809Y-92967200D01*
X22083809Y-92967200D02*
X21940952Y-93014819D01*
X21940952Y-93014819D02*
X21845714Y-93014819D01*
X22607619Y-92014819D02*
X23226666Y-92014819D01*
X23226666Y-92014819D02*
X22893333Y-92395771D01*
X22893333Y-92395771D02*
X23036190Y-92395771D01*
X23036190Y-92395771D02*
X23131428Y-92443390D01*
X23131428Y-92443390D02*
X23179047Y-92491009D01*
X23179047Y-92491009D02*
X23226666Y-92586247D01*
X23226666Y-92586247D02*
X23226666Y-92824342D01*
X23226666Y-92824342D02*
X23179047Y-92919580D01*
X23179047Y-92919580D02*
X23131428Y-92967200D01*
X23131428Y-92967200D02*
X23036190Y-93014819D01*
X23036190Y-93014819D02*
X22750476Y-93014819D01*
X22750476Y-93014819D02*
X22655238Y-92967200D01*
X22655238Y-92967200D02*
X22607619Y-92919580D01*
X8256666Y-77014819D02*
X8256666Y-77729104D01*
X8256666Y-77729104D02*
X8209047Y-77871961D01*
X8209047Y-77871961D02*
X8113809Y-77967200D01*
X8113809Y-77967200D02*
X7970952Y-78014819D01*
X7970952Y-78014819D02*
X7875714Y-78014819D01*
X9256666Y-78014819D02*
X8685238Y-78014819D01*
X8970952Y-78014819D02*
X8970952Y-77014819D01*
X8970952Y-77014819D02*
X8875714Y-77157676D01*
X8875714Y-77157676D02*
X8780476Y-77252914D01*
X8780476Y-77252914D02*
X8685238Y-77300533D01*
X8256666Y-92014819D02*
X8256666Y-92729104D01*
X8256666Y-92729104D02*
X8209047Y-92871961D01*
X8209047Y-92871961D02*
X8113809Y-92967200D01*
X8113809Y-92967200D02*
X7970952Y-93014819D01*
X7970952Y-93014819D02*
X7875714Y-93014819D01*
X8685238Y-92110057D02*
X8732857Y-92062438D01*
X8732857Y-92062438D02*
X8828095Y-92014819D01*
X8828095Y-92014819D02*
X9066190Y-92014819D01*
X9066190Y-92014819D02*
X9161428Y-92062438D01*
X9161428Y-92062438D02*
X9209047Y-92110057D01*
X9209047Y-92110057D02*
X9256666Y-92205295D01*
X9256666Y-92205295D02*
X9256666Y-92300533D01*
X9256666Y-92300533D02*
X9209047Y-92443390D01*
X9209047Y-92443390D02*
X8637619Y-93014819D01*
X8637619Y-93014819D02*
X9256666Y-93014819D01*
X34450476Y-106014819D02*
X34450476Y-106729104D01*
X34450476Y-106729104D02*
X34402857Y-106871961D01*
X34402857Y-106871961D02*
X34307619Y-106967200D01*
X34307619Y-106967200D02*
X34164762Y-107014819D01*
X34164762Y-107014819D02*
X34069524Y-107014819D01*
X35450476Y-107014819D02*
X34879048Y-107014819D01*
X35164762Y-107014819D02*
X35164762Y-106014819D01*
X35164762Y-106014819D02*
X35069524Y-106157676D01*
X35069524Y-106157676D02*
X34974286Y-106252914D01*
X34974286Y-106252914D02*
X34879048Y-106300533D01*
X36069524Y-106014819D02*
X36164762Y-106014819D01*
X36164762Y-106014819D02*
X36260000Y-106062438D01*
X36260000Y-106062438D02*
X36307619Y-106110057D01*
X36307619Y-106110057D02*
X36355238Y-106205295D01*
X36355238Y-106205295D02*
X36402857Y-106395771D01*
X36402857Y-106395771D02*
X36402857Y-106633866D01*
X36402857Y-106633866D02*
X36355238Y-106824342D01*
X36355238Y-106824342D02*
X36307619Y-106919580D01*
X36307619Y-106919580D02*
X36260000Y-106967200D01*
X36260000Y-106967200D02*
X36164762Y-107014819D01*
X36164762Y-107014819D02*
X36069524Y-107014819D01*
X36069524Y-107014819D02*
X35974286Y-106967200D01*
X35974286Y-106967200D02*
X35926667Y-106919580D01*
X35926667Y-106919580D02*
X35879048Y-106824342D01*
X35879048Y-106824342D02*
X35831429Y-106633866D01*
X35831429Y-106633866D02*
X35831429Y-106395771D01*
X35831429Y-106395771D02*
X35879048Y-106205295D01*
X35879048Y-106205295D02*
X35926667Y-106110057D01*
X35926667Y-106110057D02*
X35974286Y-106062438D01*
X35974286Y-106062438D02*
X36069524Y-106014819D01*
X29741905Y-82994819D02*
X29741905Y-81994819D01*
X29741905Y-81994819D02*
X29980000Y-81994819D01*
X29980000Y-81994819D02*
X30122857Y-82042438D01*
X30122857Y-82042438D02*
X30218095Y-82137676D01*
X30218095Y-82137676D02*
X30265714Y-82232914D01*
X30265714Y-82232914D02*
X30313333Y-82423390D01*
X30313333Y-82423390D02*
X30313333Y-82566247D01*
X30313333Y-82566247D02*
X30265714Y-82756723D01*
X30265714Y-82756723D02*
X30218095Y-82851961D01*
X30218095Y-82851961D02*
X30122857Y-82947200D01*
X30122857Y-82947200D02*
X29980000Y-82994819D01*
X29980000Y-82994819D02*
X29741905Y-82994819D01*
X31265714Y-82994819D02*
X30694286Y-82994819D01*
X30980000Y-82994819D02*
X30980000Y-81994819D01*
X30980000Y-81994819D02*
X30884762Y-82137676D01*
X30884762Y-82137676D02*
X30789524Y-82232914D01*
X30789524Y-82232914D02*
X30694286Y-82280533D01*
X47521905Y-82994819D02*
X47521905Y-81994819D01*
X47521905Y-81994819D02*
X47760000Y-81994819D01*
X47760000Y-81994819D02*
X47902857Y-82042438D01*
X47902857Y-82042438D02*
X47998095Y-82137676D01*
X47998095Y-82137676D02*
X48045714Y-82232914D01*
X48045714Y-82232914D02*
X48093333Y-82423390D01*
X48093333Y-82423390D02*
X48093333Y-82566247D01*
X48093333Y-82566247D02*
X48045714Y-82756723D01*
X48045714Y-82756723D02*
X47998095Y-82851961D01*
X47998095Y-82851961D02*
X47902857Y-82947200D01*
X47902857Y-82947200D02*
X47760000Y-82994819D01*
X47760000Y-82994819D02*
X47521905Y-82994819D01*
X48426667Y-81994819D02*
X49045714Y-81994819D01*
X49045714Y-81994819D02*
X48712381Y-82375771D01*
X48712381Y-82375771D02*
X48855238Y-82375771D01*
X48855238Y-82375771D02*
X48950476Y-82423390D01*
X48950476Y-82423390D02*
X48998095Y-82471009D01*
X48998095Y-82471009D02*
X49045714Y-82566247D01*
X49045714Y-82566247D02*
X49045714Y-82804342D01*
X49045714Y-82804342D02*
X48998095Y-82899580D01*
X48998095Y-82899580D02*
X48950476Y-82947200D01*
X48950476Y-82947200D02*
X48855238Y-82994819D01*
X48855238Y-82994819D02*
X48569524Y-82994819D01*
X48569524Y-82994819D02*
X48474286Y-82947200D01*
X48474286Y-82947200D02*
X48426667Y-82899580D01*
X48791905Y-47304819D02*
X48791905Y-46304819D01*
X48791905Y-46304819D02*
X49030000Y-46304819D01*
X49030000Y-46304819D02*
X49172857Y-46352438D01*
X49172857Y-46352438D02*
X49268095Y-46447676D01*
X49268095Y-46447676D02*
X49315714Y-46542914D01*
X49315714Y-46542914D02*
X49363333Y-46733390D01*
X49363333Y-46733390D02*
X49363333Y-46876247D01*
X49363333Y-46876247D02*
X49315714Y-47066723D01*
X49315714Y-47066723D02*
X49268095Y-47161961D01*
X49268095Y-47161961D02*
X49172857Y-47257200D01*
X49172857Y-47257200D02*
X49030000Y-47304819D01*
X49030000Y-47304819D02*
X48791905Y-47304819D01*
X49744286Y-46400057D02*
X49791905Y-46352438D01*
X49791905Y-46352438D02*
X49887143Y-46304819D01*
X49887143Y-46304819D02*
X50125238Y-46304819D01*
X50125238Y-46304819D02*
X50220476Y-46352438D01*
X50220476Y-46352438D02*
X50268095Y-46400057D01*
X50268095Y-46400057D02*
X50315714Y-46495295D01*
X50315714Y-46495295D02*
X50315714Y-46590533D01*
X50315714Y-46590533D02*
X50268095Y-46733390D01*
X50268095Y-46733390D02*
X49696667Y-47304819D01*
X49696667Y-47304819D02*
X50315714Y-47304819D01*
X26406667Y-75937200D02*
X26549524Y-75984819D01*
X26549524Y-75984819D02*
X26787619Y-75984819D01*
X26787619Y-75984819D02*
X26882857Y-75937200D01*
X26882857Y-75937200D02*
X26930476Y-75889580D01*
X26930476Y-75889580D02*
X26978095Y-75794342D01*
X26978095Y-75794342D02*
X26978095Y-75699104D01*
X26978095Y-75699104D02*
X26930476Y-75603866D01*
X26930476Y-75603866D02*
X26882857Y-75556247D01*
X26882857Y-75556247D02*
X26787619Y-75508628D01*
X26787619Y-75508628D02*
X26597143Y-75461009D01*
X26597143Y-75461009D02*
X26501905Y-75413390D01*
X26501905Y-75413390D02*
X26454286Y-75365771D01*
X26454286Y-75365771D02*
X26406667Y-75270533D01*
X26406667Y-75270533D02*
X26406667Y-75175295D01*
X26406667Y-75175295D02*
X26454286Y-75080057D01*
X26454286Y-75080057D02*
X26501905Y-75032438D01*
X26501905Y-75032438D02*
X26597143Y-74984819D01*
X26597143Y-74984819D02*
X26835238Y-74984819D01*
X26835238Y-74984819D02*
X26978095Y-75032438D01*
X27311429Y-74984819D02*
X27549524Y-75984819D01*
X27549524Y-75984819D02*
X27740000Y-75270533D01*
X27740000Y-75270533D02*
X27930476Y-75984819D01*
X27930476Y-75984819D02*
X28168572Y-74984819D01*
X29073333Y-75984819D02*
X28501905Y-75984819D01*
X28787619Y-75984819D02*
X28787619Y-74984819D01*
X28787619Y-74984819D02*
X28692381Y-75127676D01*
X28692381Y-75127676D02*
X28597143Y-75222914D01*
X28597143Y-75222914D02*
X28501905Y-75270533D01*
X45456667Y-58937200D02*
X45599524Y-58984819D01*
X45599524Y-58984819D02*
X45837619Y-58984819D01*
X45837619Y-58984819D02*
X45932857Y-58937200D01*
X45932857Y-58937200D02*
X45980476Y-58889580D01*
X45980476Y-58889580D02*
X46028095Y-58794342D01*
X46028095Y-58794342D02*
X46028095Y-58699104D01*
X46028095Y-58699104D02*
X45980476Y-58603866D01*
X45980476Y-58603866D02*
X45932857Y-58556247D01*
X45932857Y-58556247D02*
X45837619Y-58508628D01*
X45837619Y-58508628D02*
X45647143Y-58461009D01*
X45647143Y-58461009D02*
X45551905Y-58413390D01*
X45551905Y-58413390D02*
X45504286Y-58365771D01*
X45504286Y-58365771D02*
X45456667Y-58270533D01*
X45456667Y-58270533D02*
X45456667Y-58175295D01*
X45456667Y-58175295D02*
X45504286Y-58080057D01*
X45504286Y-58080057D02*
X45551905Y-58032438D01*
X45551905Y-58032438D02*
X45647143Y-57984819D01*
X45647143Y-57984819D02*
X45885238Y-57984819D01*
X45885238Y-57984819D02*
X46028095Y-58032438D01*
X46361429Y-57984819D02*
X46599524Y-58984819D01*
X46599524Y-58984819D02*
X46790000Y-58270533D01*
X46790000Y-58270533D02*
X46980476Y-58984819D01*
X46980476Y-58984819D02*
X47218572Y-57984819D01*
X47551905Y-58080057D02*
X47599524Y-58032438D01*
X47599524Y-58032438D02*
X47694762Y-57984819D01*
X47694762Y-57984819D02*
X47932857Y-57984819D01*
X47932857Y-57984819D02*
X48028095Y-58032438D01*
X48028095Y-58032438D02*
X48075714Y-58080057D01*
X48075714Y-58080057D02*
X48123333Y-58175295D01*
X48123333Y-58175295D02*
X48123333Y-58270533D01*
X48123333Y-58270533D02*
X48075714Y-58413390D01*
X48075714Y-58413390D02*
X47504286Y-58984819D01*
X47504286Y-58984819D02*
X48123333Y-58984819D01*
X44186667Y-75937200D02*
X44329524Y-75984819D01*
X44329524Y-75984819D02*
X44567619Y-75984819D01*
X44567619Y-75984819D02*
X44662857Y-75937200D01*
X44662857Y-75937200D02*
X44710476Y-75889580D01*
X44710476Y-75889580D02*
X44758095Y-75794342D01*
X44758095Y-75794342D02*
X44758095Y-75699104D01*
X44758095Y-75699104D02*
X44710476Y-75603866D01*
X44710476Y-75603866D02*
X44662857Y-75556247D01*
X44662857Y-75556247D02*
X44567619Y-75508628D01*
X44567619Y-75508628D02*
X44377143Y-75461009D01*
X44377143Y-75461009D02*
X44281905Y-75413390D01*
X44281905Y-75413390D02*
X44234286Y-75365771D01*
X44234286Y-75365771D02*
X44186667Y-75270533D01*
X44186667Y-75270533D02*
X44186667Y-75175295D01*
X44186667Y-75175295D02*
X44234286Y-75080057D01*
X44234286Y-75080057D02*
X44281905Y-75032438D01*
X44281905Y-75032438D02*
X44377143Y-74984819D01*
X44377143Y-74984819D02*
X44615238Y-74984819D01*
X44615238Y-74984819D02*
X44758095Y-75032438D01*
X45091429Y-74984819D02*
X45329524Y-75984819D01*
X45329524Y-75984819D02*
X45520000Y-75270533D01*
X45520000Y-75270533D02*
X45710476Y-75984819D01*
X45710476Y-75984819D02*
X45948572Y-74984819D01*
X46234286Y-74984819D02*
X46853333Y-74984819D01*
X46853333Y-74984819D02*
X46520000Y-75365771D01*
X46520000Y-75365771D02*
X46662857Y-75365771D01*
X46662857Y-75365771D02*
X46758095Y-75413390D01*
X46758095Y-75413390D02*
X46805714Y-75461009D01*
X46805714Y-75461009D02*
X46853333Y-75556247D01*
X46853333Y-75556247D02*
X46853333Y-75794342D01*
X46853333Y-75794342D02*
X46805714Y-75889580D01*
X46805714Y-75889580D02*
X46758095Y-75937200D01*
X46758095Y-75937200D02*
X46662857Y-75984819D01*
X46662857Y-75984819D02*
X46377143Y-75984819D01*
X46377143Y-75984819D02*
X46281905Y-75937200D01*
X46281905Y-75937200D02*
X46234286Y-75889580D01*
%TO.C,RV2*%
X25780000Y-12700000D02*
X25780000Y-16100000D01*
X25780000Y-12700000D02*
X35180000Y-12700000D01*
X25780000Y-18900000D02*
X25780000Y-24000000D01*
X25780000Y-24000000D02*
X26780000Y-24000000D01*
X27880000Y-19000000D02*
X33080000Y-19000000D01*
X34180000Y-24000000D02*
X35180000Y-24000000D01*
X35180000Y-12700000D02*
X35180000Y-16100000D01*
X35180000Y-18900000D02*
X35180000Y-24000000D01*
X28880000Y-19000000D02*
G75*
G02*
X32113741Y-18963178I1600000J1500000D01*
G01*
X27080000Y-23100000D02*
G75*
G02*
X26280000Y-23100000I-400000J0D01*
G01*
X26280000Y-23100000D02*
G75*
G02*
X27080000Y-23100000I400000J0D01*
G01*
X33480000Y-17500000D02*
G75*
G02*
X27480000Y-17500000I-3000000J0D01*
G01*
X27480000Y-17500000D02*
G75*
G02*
X33480000Y-17500000I3000000J0D01*
G01*
X34680000Y-13700000D02*
G75*
G02*
X33880000Y-13700000I-400000J0D01*
G01*
X33880000Y-13700000D02*
G75*
G02*
X34680000Y-13700000I400000J0D01*
G01*
%TO.C,RV7*%
X25780000Y-53700000D02*
X25780000Y-57100000D01*
X25780000Y-53700000D02*
X35180000Y-53700000D01*
X25780000Y-59900000D02*
X25780000Y-65000000D01*
X25780000Y-65000000D02*
X26780000Y-65000000D01*
X27880000Y-60000000D02*
X33080000Y-60000000D01*
X34180000Y-65000000D02*
X35180000Y-65000000D01*
X35180000Y-53700000D02*
X35180000Y-57100000D01*
X35180000Y-59900000D02*
X35180000Y-65000000D01*
X28880000Y-60000000D02*
G75*
G02*
X32113741Y-59963178I1600000J1500000D01*
G01*
X27080000Y-64100000D02*
G75*
G02*
X26280000Y-64100000I-400000J0D01*
G01*
X26280000Y-64100000D02*
G75*
G02*
X27080000Y-64100000I400000J0D01*
G01*
X33480000Y-58500000D02*
G75*
G02*
X27480000Y-58500000I-3000000J0D01*
G01*
X27480000Y-58500000D02*
G75*
G02*
X33480000Y-58500000I3000000J0D01*
G01*
X34680000Y-54700000D02*
G75*
G02*
X33880000Y-54700000I-400000J0D01*
G01*
X33880000Y-54700000D02*
G75*
G02*
X34680000Y-54700000I400000J0D01*
G01*
%TO.C,RV5*%
X25780000Y-30700000D02*
X25780000Y-34100000D01*
X25780000Y-30700000D02*
X35180000Y-30700000D01*
X25780000Y-36900000D02*
X25780000Y-42000000D01*
X25780000Y-42000000D02*
X26780000Y-42000000D01*
X27880000Y-37000000D02*
X33080000Y-37000000D01*
X34180000Y-42000000D02*
X35180000Y-42000000D01*
X35180000Y-30700000D02*
X35180000Y-34100000D01*
X35180000Y-36900000D02*
X35180000Y-42000000D01*
X28880000Y-37000000D02*
G75*
G02*
X32113741Y-36963178I1600000J1500000D01*
G01*
X27080000Y-41100000D02*
G75*
G02*
X26280000Y-41100000I-400000J0D01*
G01*
X26280000Y-41100000D02*
G75*
G02*
X27080000Y-41100000I400000J0D01*
G01*
X33480000Y-35500000D02*
G75*
G02*
X27480000Y-35500000I-3000000J0D01*
G01*
X27480000Y-35500000D02*
G75*
G02*
X33480000Y-35500000I3000000J0D01*
G01*
X34680000Y-31700000D02*
G75*
G02*
X33880000Y-31700000I-400000J0D01*
G01*
X33880000Y-31700000D02*
G75*
G02*
X34680000Y-31700000I400000J0D01*
G01*
%TO.C,RV1*%
X6730000Y-12700000D02*
X6730000Y-16100000D01*
X6730000Y-12700000D02*
X16130000Y-12700000D01*
X6730000Y-18900000D02*
X6730000Y-24000000D01*
X6730000Y-24000000D02*
X7730000Y-24000000D01*
X8830000Y-19000000D02*
X14030000Y-19000000D01*
X15130000Y-24000000D02*
X16130000Y-24000000D01*
X16130000Y-12700000D02*
X16130000Y-16100000D01*
X16130000Y-18900000D02*
X16130000Y-24000000D01*
X9830000Y-19000000D02*
G75*
G02*
X13063741Y-18963178I1600000J1500000D01*
G01*
X8030000Y-23100000D02*
G75*
G02*
X7230000Y-23100000I-400000J0D01*
G01*
X7230000Y-23100000D02*
G75*
G02*
X8030000Y-23100000I400000J0D01*
G01*
X14430000Y-17500000D02*
G75*
G02*
X8430000Y-17500000I-3000000J0D01*
G01*
X8430000Y-17500000D02*
G75*
G02*
X14430000Y-17500000I3000000J0D01*
G01*
X15630000Y-13700000D02*
G75*
G02*
X14830000Y-13700000I-400000J0D01*
G01*
X14830000Y-13700000D02*
G75*
G02*
X15630000Y-13700000I400000J0D01*
G01*
%TO.C,RV3*%
X44830000Y-12700000D02*
X44830000Y-16100000D01*
X44830000Y-12700000D02*
X54230000Y-12700000D01*
X44830000Y-18900000D02*
X44830000Y-24000000D01*
X44830000Y-24000000D02*
X45830000Y-24000000D01*
X46930000Y-19000000D02*
X52130000Y-19000000D01*
X53230000Y-24000000D02*
X54230000Y-24000000D01*
X54230000Y-12700000D02*
X54230000Y-16100000D01*
X54230000Y-18900000D02*
X54230000Y-24000000D01*
X47930000Y-19000000D02*
G75*
G02*
X51163741Y-18963178I1600000J1500000D01*
G01*
X46130000Y-23100000D02*
G75*
G02*
X45330000Y-23100000I-400000J0D01*
G01*
X45330000Y-23100000D02*
G75*
G02*
X46130000Y-23100000I400000J0D01*
G01*
X52530000Y-17500000D02*
G75*
G02*
X46530000Y-17500000I-3000000J0D01*
G01*
X46530000Y-17500000D02*
G75*
G02*
X52530000Y-17500000I3000000J0D01*
G01*
X53730000Y-13700000D02*
G75*
G02*
X52930000Y-13700000I-400000J0D01*
G01*
X52930000Y-13700000D02*
G75*
G02*
X53730000Y-13700000I400000J0D01*
G01*
%TO.C,RV4*%
X6730000Y-30700000D02*
X6730000Y-34100000D01*
X6730000Y-30700000D02*
X16130000Y-30700000D01*
X6730000Y-36900000D02*
X6730000Y-42000000D01*
X6730000Y-42000000D02*
X7730000Y-42000000D01*
X8830000Y-37000000D02*
X14030000Y-37000000D01*
X15130000Y-42000000D02*
X16130000Y-42000000D01*
X16130000Y-30700000D02*
X16130000Y-34100000D01*
X16130000Y-36900000D02*
X16130000Y-42000000D01*
X9830000Y-37000000D02*
G75*
G02*
X13063741Y-36963178I1600000J1500000D01*
G01*
X8030000Y-41100000D02*
G75*
G02*
X7230000Y-41100000I-400000J0D01*
G01*
X7230000Y-41100000D02*
G75*
G02*
X8030000Y-41100000I400000J0D01*
G01*
X14430000Y-35500000D02*
G75*
G02*
X8430000Y-35500000I-3000000J0D01*
G01*
X8430000Y-35500000D02*
G75*
G02*
X14430000Y-35500000I3000000J0D01*
G01*
X15630000Y-31700000D02*
G75*
G02*
X14830000Y-31700000I-400000J0D01*
G01*
X14830000Y-31700000D02*
G75*
G02*
X15630000Y-31700000I400000J0D01*
G01*
%TO.C,RV6*%
X6730000Y-53700000D02*
X6730000Y-57100000D01*
X6730000Y-53700000D02*
X16130000Y-53700000D01*
X6730000Y-59900000D02*
X6730000Y-65000000D01*
X6730000Y-65000000D02*
X7730000Y-65000000D01*
X8830000Y-60000000D02*
X14030000Y-60000000D01*
X15130000Y-65000000D02*
X16130000Y-65000000D01*
X16130000Y-53700000D02*
X16130000Y-57100000D01*
X16130000Y-59900000D02*
X16130000Y-65000000D01*
X9830000Y-60000000D02*
G75*
G02*
X13063741Y-59963178I1600000J1500000D01*
G01*
X8030000Y-64100000D02*
G75*
G02*
X7230000Y-64100000I-400000J0D01*
G01*
X7230000Y-64100000D02*
G75*
G02*
X8030000Y-64100000I400000J0D01*
G01*
X14430000Y-58500000D02*
G75*
G02*
X8430000Y-58500000I-3000000J0D01*
G01*
X8430000Y-58500000D02*
G75*
G02*
X14430000Y-58500000I3000000J0D01*
G01*
X15630000Y-54700000D02*
G75*
G02*
X14830000Y-54700000I-400000J0D01*
G01*
X14830000Y-54700000D02*
G75*
G02*
X15630000Y-54700000I400000J0D01*
G01*
%TO.C,J12*%
X45030000Y-105500000D02*
X45030000Y-116000000D01*
X45030000Y-105500000D02*
X54030000Y-105500000D01*
X45030000Y-116000000D02*
X54030000Y-116000000D01*
X54030000Y-105500000D02*
X54030000Y-116000000D01*
X51330000Y-111500000D02*
G75*
G02*
X47730000Y-111500000I-1800000J0D01*
G01*
X47730000Y-111500000D02*
G75*
G02*
X51330000Y-111500000I1800000J0D01*
G01*
%TO.C,J7*%
X6930000Y-105500000D02*
X6930000Y-116000000D01*
X6930000Y-105500000D02*
X15930000Y-105500000D01*
X6930000Y-116000000D02*
X15930000Y-116000000D01*
X15930000Y-105500000D02*
X15930000Y-116000000D01*
X13230000Y-111500000D02*
G75*
G02*
X9630000Y-111500000I-1800000J0D01*
G01*
X9630000Y-111500000D02*
G75*
G02*
X13230000Y-111500000I1800000J0D01*
G01*
%TO.C,J4*%
X33600000Y-91500000D02*
X33600000Y-102000000D01*
X33600000Y-91500000D02*
X42600000Y-91500000D01*
X33600000Y-102000000D02*
X42600000Y-102000000D01*
X42600000Y-91500000D02*
X42600000Y-102000000D01*
X39900000Y-97500000D02*
G75*
G02*
X36300000Y-97500000I-1800000J0D01*
G01*
X36300000Y-97500000D02*
G75*
G02*
X39900000Y-97500000I1800000J0D01*
G01*
%TO.C,J8*%
X20900000Y-105500000D02*
X20900000Y-116000000D01*
X20900000Y-105500000D02*
X29900000Y-105500000D01*
X20900000Y-116000000D02*
X29900000Y-116000000D01*
X29900000Y-105500000D02*
X29900000Y-116000000D01*
X27200000Y-111500000D02*
G75*
G02*
X23600000Y-111500000I-1800000J0D01*
G01*
X23600000Y-111500000D02*
G75*
G02*
X27200000Y-111500000I1800000J0D01*
G01*
%TO.C,J5*%
X45030000Y-91500000D02*
X45030000Y-102000000D01*
X45030000Y-91500000D02*
X54030000Y-91500000D01*
X45030000Y-102000000D02*
X54030000Y-102000000D01*
X54030000Y-91500000D02*
X54030000Y-102000000D01*
X51330000Y-97500000D02*
G75*
G02*
X47730000Y-97500000I-1800000J0D01*
G01*
X47730000Y-97500000D02*
G75*
G02*
X51330000Y-97500000I1800000J0D01*
G01*
%TO.C,J3*%
X20900000Y-91500000D02*
X20900000Y-102000000D01*
X20900000Y-91500000D02*
X29900000Y-91500000D01*
X20900000Y-102000000D02*
X29900000Y-102000000D01*
X29900000Y-91500000D02*
X29900000Y-102000000D01*
X27200000Y-97500000D02*
G75*
G02*
X23600000Y-97500000I-1800000J0D01*
G01*
X23600000Y-97500000D02*
G75*
G02*
X27200000Y-97500000I1800000J0D01*
G01*
%TO.C,J1*%
X6930000Y-76500000D02*
X6930000Y-87000000D01*
X6930000Y-76500000D02*
X15930000Y-76500000D01*
X6930000Y-87000000D02*
X15930000Y-87000000D01*
X15930000Y-76500000D02*
X15930000Y-87000000D01*
X13230000Y-82500000D02*
G75*
G02*
X9630000Y-82500000I-1800000J0D01*
G01*
X9630000Y-82500000D02*
G75*
G02*
X13230000Y-82500000I1800000J0D01*
G01*
%TO.C,J2*%
X6930000Y-91500000D02*
X6930000Y-102000000D01*
X6930000Y-91500000D02*
X15930000Y-91500000D01*
X6930000Y-102000000D02*
X15930000Y-102000000D01*
X15930000Y-91500000D02*
X15930000Y-102000000D01*
X13230000Y-97500000D02*
G75*
G02*
X9630000Y-97500000I-1800000J0D01*
G01*
X9630000Y-97500000D02*
G75*
G02*
X13230000Y-97500000I1800000J0D01*
G01*
%TO.C,J10*%
X33600000Y-105500000D02*
X33600000Y-116000000D01*
X33600000Y-105500000D02*
X42600000Y-105500000D01*
X33600000Y-116000000D02*
X42600000Y-116000000D01*
X42600000Y-105500000D02*
X42600000Y-116000000D01*
X39900000Y-111500000D02*
G75*
G02*
X36300000Y-111500000I-1800000J0D01*
G01*
X36300000Y-111500000D02*
G75*
G02*
X39900000Y-111500000I1800000J0D01*
G01*
%TO.C,D1*%
D11*
X28920000Y-84264000D02*
X28920000Y-84420000D01*
X28920000Y-86580000D02*
X28920000Y-86736000D01*
X28920000Y-84264484D02*
G75*
G02*
X32152335Y-84421392I1560000J-1235516D01*
G01*
X29439039Y-84420000D02*
G75*
G02*
X31521130Y-84420163I1040961J-1080000D01*
G01*
X31521130Y-86579837D02*
G75*
G02*
X29439039Y-86580000I-1041130J1079837D01*
G01*
X32152335Y-86578608D02*
G75*
G02*
X28920000Y-86735516I-1672335J1078608D01*
G01*
%TO.C,D3*%
X46700000Y-84264000D02*
X46700000Y-84420000D01*
X46700000Y-86580000D02*
X46700000Y-86736000D01*
X46700000Y-84264484D02*
G75*
G02*
X49932335Y-84421392I1560000J-1235516D01*
G01*
X47219039Y-84420000D02*
G75*
G02*
X49301130Y-84420163I1040961J-1080000D01*
G01*
X49301130Y-86579837D02*
G75*
G02*
X47219039Y-86580000I-1041130J1079837D01*
G01*
X49932335Y-86578608D02*
G75*
G02*
X46700000Y-86735516I-1672335J1078608D01*
G01*
%TO.C,D2*%
X47580000Y-48000000D02*
X51480000Y-48000000D01*
X47580000Y-48800000D02*
X47580000Y-48000000D01*
X47580000Y-51000000D02*
X51480000Y-51000000D01*
%TO.C,SW1*%
D10*
X25017801Y-73017182D02*
X24980000Y-78000000D01*
X25017801Y-73017182D02*
G75*
G02*
X36480000Y-75500000I5462199J-2482818D01*
G01*
X25980000Y-75500000D02*
G75*
G02*
X26688964Y-73075531I4500000J0D01*
G01*
X26687867Y-77922752D02*
G75*
G02*
X25980000Y-75500000I3792127J2422750D01*
G01*
X28057248Y-71707867D02*
G75*
G02*
X30480000Y-71000000I2422750J-3792127D01*
G01*
X30480000Y-71000000D02*
G75*
G02*
X32904469Y-71708964I0J-4500000D01*
G01*
X30480000Y-80000000D02*
G75*
G02*
X28055531Y-79291036I0J4500002D01*
G01*
X32902752Y-79292133D02*
G75*
G02*
X30480000Y-80000000I-2422752J3792133D01*
G01*
X34272133Y-73077248D02*
G75*
G02*
X34980000Y-75500000I-3792133J-2422752D01*
G01*
X34980000Y-75500000D02*
G75*
G02*
X34271036Y-77924469I-4500002J0D01*
G01*
X36480000Y-75500000D02*
G75*
G02*
X25015898Y-77978627I-6000000J0D01*
G01*
%TO.C,SW2*%
X44067801Y-56017182D02*
X44030000Y-61000000D01*
X44067801Y-56017182D02*
G75*
G02*
X55530000Y-58500000I5462199J-2482818D01*
G01*
X45030000Y-58500000D02*
G75*
G02*
X45738964Y-56075531I4500000J0D01*
G01*
X45737867Y-60922752D02*
G75*
G02*
X45030000Y-58500000I3792127J2422750D01*
G01*
X47107248Y-54707867D02*
G75*
G02*
X49530000Y-54000000I2422750J-3792127D01*
G01*
X49530000Y-54000000D02*
G75*
G02*
X51954469Y-54708964I0J-4500000D01*
G01*
X49530000Y-63000000D02*
G75*
G02*
X47105531Y-62291036I0J4500002D01*
G01*
X51952752Y-62292133D02*
G75*
G02*
X49530000Y-63000000I-2422752J3792133D01*
G01*
X53322133Y-56077248D02*
G75*
G02*
X54030000Y-58500000I-3792133J-2422752D01*
G01*
X54030000Y-58500000D02*
G75*
G02*
X53321036Y-60924469I-4500002J0D01*
G01*
X55530000Y-58500000D02*
G75*
G02*
X44065898Y-60978627I-6000000J0D01*
G01*
%TO.C,SW3*%
X42797801Y-73017182D02*
X42760000Y-78000000D01*
X42797801Y-73017182D02*
G75*
G02*
X54260000Y-75500000I5462199J-2482818D01*
G01*
X43760000Y-75500000D02*
G75*
G02*
X44468964Y-73075531I4500000J0D01*
G01*
X44467867Y-77922752D02*
G75*
G02*
X43760000Y-75500000I3792127J2422750D01*
G01*
X45837248Y-71707867D02*
G75*
G02*
X48260000Y-71000000I2422750J-3792127D01*
G01*
X48260000Y-71000000D02*
G75*
G02*
X50684469Y-71708964I0J-4500000D01*
G01*
X48260000Y-80000000D02*
G75*
G02*
X45835531Y-79291036I0J4500002D01*
G01*
X50682752Y-79292133D02*
G75*
G02*
X48260000Y-80000000I-2422752J3792133D01*
G01*
X52052133Y-73077248D02*
G75*
G02*
X52760000Y-75500000I-3792133J-2422752D01*
G01*
X52760000Y-75500000D02*
G75*
G02*
X52051036Y-77924469I-4500002J0D01*
G01*
X54260000Y-75500000D02*
G75*
G02*
X42795898Y-77978627I-6000000J0D01*
G01*
%TD*%
M02*
