M48
; DRILL file KiCad 10.0.4 date 2026-08-22T16:50:02
; FORMAT={-:-/ absolute / metric / decimal}
; #@! TF.CreationDate,2026-08-22T16:50:02+02:00
; #@! TF.GenerationSoftware,Kicad,Pcbnew,10.0.4
; #@! TF.FileFunction,MixedPlating,1,2
FMAT,2
METRIC
; #@! TA.AperFunction,Plated,PTH,ViaDrill
T1C0.305
; #@! TA.AperFunction,Plated,PTH,ViaDrill
T2C0.400
; #@! TA.AperFunction,Plated,PTH,ComponentDrill
T3C0.500
; #@! TA.AperFunction,Plated,PTH,ComponentDrill
T4C0.600
; #@! TA.AperFunction,Plated,PTH,ComponentDrill
T5C0.900
; #@! TA.AperFunction,Plated,PTH,ComponentDrill
T6C1.000
; #@! TA.AperFunction,Plated,PTH,ComponentDrill
T7C1.100
; #@! TA.AperFunction,NonPlated,NPTH,ComponentDrill
T8C2.500
%
G90
G05
T1
X3.324Y-21.801
X13.771Y-33.798
X33.991Y-44.051
X38.606Y-14.075
X40.825Y-17.757
X46.367Y-27.506
X46.39Y-12.223
T2
X2.425Y-11.425
X2.425Y-16.425
X2.425Y-76.425
X2.425Y-81.425
X2.425Y-86.425
X2.425Y-91.425
X7.425Y-21.425
X7.425Y-26.425
X7.425Y-46.425
X7.425Y-51.425
X7.425Y-61.425
X7.425Y-66.425
X7.425Y-76.425
X7.425Y-81.425
X7.425Y-86.425
X7.425Y-91.425
X7.425Y-96.425
X7.425Y-101.425
X7.425Y-111.425
X7.425Y-116.425
X12.425Y-46.425
X12.425Y-71.425
X12.425Y-116.425
X17.425Y-71.425
X17.425Y-76.425
X17.425Y-81.425
X17.425Y-86.425
X17.425Y-96.425
X17.425Y-101.425
X17.425Y-111.425
X17.425Y-116.425
X22.425Y-21.425
X22.425Y-31.425
X22.425Y-36.425
X22.425Y-41.425
X22.425Y-61.425
X22.425Y-66.425
X22.425Y-81.425
X22.425Y-86.425
X22.425Y-96.425
X22.425Y-101.425
X22.425Y-111.425
X22.425Y-116.425
X27.425Y-21.425
X27.425Y-31.425
X27.425Y-36.425
X27.425Y-41.425
X27.425Y-61.425
X27.425Y-81.425
X27.425Y-86.425
X27.425Y-96.425
X27.425Y-101.425
X27.425Y-111.425
X27.425Y-116.425
X32.425Y-21.425
X32.425Y-51.425
X32.425Y-56.425
X32.425Y-96.425
X32.425Y-101.425
X32.425Y-111.425
X32.425Y-116.425
X37.425Y-21.425
X37.425Y-31.425
X37.425Y-51.425
X37.425Y-61.425
X37.425Y-71.425
X37.425Y-76.425
X37.425Y-81.425
X37.425Y-86.425
X37.425Y-116.425
X42.425Y-21.425
X42.425Y-46.425
X42.425Y-56.425
X42.425Y-61.425
X42.425Y-66.425
X42.425Y-76.425
X42.425Y-81.425
X42.425Y-86.425
X42.425Y-101.425
X42.425Y-106.425
X42.425Y-111.425
X42.425Y-116.425
X47.425Y-66.425
X47.425Y-71.425
X47.425Y-76.425
X47.425Y-81.425
X47.425Y-91.425
X47.425Y-101.425
X47.425Y-106.425
X47.425Y-111.425
X47.425Y-116.425
X52.425Y-66.425
X52.425Y-71.425
X52.425Y-76.425
X52.425Y-81.425
X52.425Y-86.425
X52.425Y-91.425
X52.425Y-101.425
X52.425Y-106.425
X52.425Y-111.425
X52.425Y-116.425
X57.425Y-56.425
X57.425Y-76.425
X57.425Y-81.425
X57.425Y-86.425
X57.425Y-91.425
X57.425Y-96.425
X57.425Y-116.425
T5
X29.21Y-85.5
X31.75Y-85.5
X46.99Y-85.5
X49.53Y-85.5
T6
X1.77Y-18.39
X1.77Y-20.93
X1.77Y-23.47
X1.77Y-26.01
X1.77Y-28.55
X1.77Y-31.09
X1.77Y-33.63
X1.77Y-36.17
X1.77Y-41.25
X1.77Y-43.79
X1.77Y-46.33
X1.77Y-48.87
X1.77Y-56.49
X1.77Y-59.03
X1.77Y-61.57
X1.77Y-64.11
X1.77Y-66.65
X1.77Y-69.19
X1.77Y-71.73
X1.77Y-74.27
X1.77Y-94.59
X1.77Y-97.13
X1.77Y-99.67
X1.77Y-102.21
X1.77Y-104.75
X1.77Y-107.29
X1.77Y-109.83
X1.77Y-112.37
X1.77Y-114.91
X1.77Y-117.45
X4.31Y-10.77
X6.85Y-10.77
X8.93Y-25.0
X8.93Y-43.0
X8.93Y-66.0
X9.39Y-10.77
X11.43Y-25.0
X11.43Y-43.0
X11.43Y-66.0
X11.93Y-10.77
X13.93Y-25.0
X13.93Y-43.0
X13.93Y-66.0
X14.47Y-10.77
X17.01Y-10.77
X19.55Y-10.77
X22.09Y-10.77
X27.98Y-25.0
X27.98Y-43.0
X27.98Y-66.0
X29.71Y-10.77
X30.48Y-25.0
X30.48Y-43.0
X30.48Y-66.0
X32.25Y-10.77
X32.98Y-25.0
X32.98Y-43.0
X32.98Y-66.0
X38.6Y-10.77
X41.14Y-10.77
X43.68Y-10.77
X46.22Y-10.77
X47.03Y-25.0
X48.76Y-10.77
X49.53Y-25.0
X51.3Y-10.77
X52.03Y-25.0
X53.84Y-10.77
X56.38Y-10.77
X58.92Y-18.39
X58.92Y-20.93
X58.92Y-23.47
X58.92Y-26.01
X58.92Y-28.55
X58.92Y-31.09
X58.92Y-33.63
X58.92Y-36.17
X58.92Y-38.71
X58.92Y-41.25
X58.92Y-43.79
X58.92Y-46.33
X58.92Y-51.41
X58.92Y-53.95
X58.92Y-59.03
X58.92Y-61.57
X58.92Y-64.11
X58.92Y-66.65
X58.92Y-69.19
X58.92Y-71.73
X58.92Y-97.13
X58.92Y-99.67
X58.92Y-102.21
X58.92Y-104.75
X58.92Y-107.29
X58.92Y-109.83
X58.92Y-112.37
X58.92Y-114.91
X58.92Y-117.45
T7
X27.98Y-73.0
X27.98Y-78.0
X32.98Y-73.0
X32.98Y-78.0
X45.76Y-73.0
X45.76Y-78.0
X47.03Y-56.0
X47.03Y-61.0
X50.76Y-73.0
X50.76Y-78.0
X52.03Y-56.0
X52.03Y-61.0
T8
X11.43Y-82.5
X11.43Y-97.5
X11.43Y-111.5
X25.4Y-97.5
X25.4Y-111.5
X38.1Y-97.5
X38.1Y-111.5
X49.53Y-97.5
X49.53Y-111.5
T3
X10.93Y-77.58G85X11.93Y-77.58
G05
X10.93Y-92.58G85X11.93Y-92.58
G05
X10.93Y-106.58G85X11.93Y-106.58
G05
X24.9Y-92.58G85X25.9Y-92.58
G05
X24.9Y-106.58G85X25.9Y-106.58
G05
X37.6Y-92.58G85X38.6Y-92.58
G05
X37.6Y-106.58G85X38.6Y-106.58
G05
X49.03Y-92.58G85X50.03Y-92.58
G05
X49.03Y-106.58G85X50.03Y-106.58
G05
T4
X10.98Y-85.88G85X11.88Y-85.88
G05
X11.08Y-88.98G85X11.78Y-88.98
G05
X10.98Y-100.88G85X11.88Y-100.88
G05
X11.08Y-103.98G85X11.78Y-103.98
G05
X10.98Y-114.88G85X11.88Y-114.88
G05
X11.08Y-117.98G85X11.78Y-117.98
G05
X24.95Y-100.88G85X25.85Y-100.88
G05
X25.05Y-103.98G85X25.75Y-103.98
G05
X24.95Y-114.88G85X25.85Y-114.88
G05
X25.05Y-117.98G85X25.75Y-117.98
G05
X37.65Y-100.88G85X38.55Y-100.88
G05
X37.75Y-103.98G85X38.45Y-103.98
G05
X37.65Y-114.88G85X38.55Y-114.88
G05
X37.75Y-117.98G85X38.45Y-117.98
G05
X49.08Y-100.88G85X49.98Y-100.88
G05
X49.18Y-103.98G85X49.88Y-103.98
G05
X49.08Y-114.88G85X49.98Y-114.88
G05
X49.18Y-117.98G85X49.88Y-117.98
G05
T7
X5.38Y-17.5G85X6.08Y-17.5
G05
X5.38Y-35.5G85X6.08Y-35.5
G05
X5.38Y-58.5G85X6.08Y-58.5
G05
X16.78Y-17.5G85X17.48Y-17.5
G05
X16.78Y-35.5G85X17.48Y-35.5
G05
X16.78Y-58.5G85X17.48Y-58.5
G05
X24.43Y-17.5G85X25.13Y-17.5
G05
X24.43Y-35.5G85X25.13Y-35.5
G05
X24.43Y-58.5G85X25.13Y-58.5
G05
X35.83Y-17.5G85X36.53Y-17.5
G05
X35.83Y-35.5G85X36.53Y-35.5
G05
X35.83Y-58.5G85X36.53Y-58.5
G05
X43.48Y-17.5G85X44.18Y-17.5
G05
X54.88Y-17.5G85X55.58Y-17.5
G05
M30
