%TF.GenerationSoftware,KiCad,Pcbnew,10.0.4*%
%TF.CreationDate,2026-08-22T16:50:02+02:00*%
%TF.ProjectId,KoloredVerb,4b6f6c6f-7265-4645-9665-72622e6b6963,rev?*%
%TF.SameCoordinates,Original*%
%TF.FileFunction,Soldermask,Top*%
%TF.FilePolarity,Negative*%
%FSLAX46Y46*%
G04 Gerber Fmt 4.6, Leading zero omitted, Abs format (unit mm)*
G04 Created by KiCad (PCBNEW 10.0.4) date 2026-08-22 16:50:02*
%MOMM*%
%LPD*%
G01*
G04 APERTURE LIST*
G04 Aperture macros list*
%AMRoundRect*
0 Rectangle with rounded corners*
0 $1 Rounding radius*
0 $2 $3 $4 $5 $6 $7 $8 $9 X,Y pos of 4 corners*
0 Add a 4 corners polygon primitive as box body*
4,1,4,$2,$3,$4,$5,$6,$7,$8,$9,$2,$3,0*
0 Add four circle primitives for the rounded corners*
1,1,$1+$1,$2,$3*
1,1,$1+$1,$4,$5*
1,1,$1+$1,$6,$7*
1,1,$1+$1,$8,$9*
0 Add four rect primitives between the rounded corners*
20,1,$1+$1,$2,$3,$4,$5,0*
20,1,$1+$1,$4,$5,$6,$7,0*
20,1,$1+$1,$6,$7,$8,$9,0*
20,1,$1+$1,$8,$9,$2,$3,0*%
G04 Aperture macros list end*
%ADD10O,2.652400X1.952400*%
%ADD11O,1.852400X1.852400*%
%ADD12C,2.652400*%
%ADD13O,2.152400X1.452400*%
%ADD14O,2.352400X1.352400*%
%ADD15O,2.352400X1.452400*%
%ADD16RoundRect,0.076200X-0.900000X-0.900000X0.900000X-0.900000X0.900000X0.900000X-0.900000X0.900000X0*%
%ADD17C,1.952400*%
%ADD18RoundRect,0.076200X-0.500000X-0.400000X0.500000X-0.400000X0.500000X0.400000X-0.500000X0.400000X0*%
%ADD19C,2.352400*%
G04 APERTURE END LIST*
D10*
%TO.C,RV2*%
X24780000Y-17500000D03*
X36180000Y-17500000D03*
D11*
X27980000Y-25000000D03*
X30480000Y-25000000D03*
X32980000Y-25000000D03*
%TD*%
D10*
%TO.C,RV7*%
X24780000Y-58500000D03*
X36180000Y-58500000D03*
D11*
X27980000Y-66000000D03*
X30480000Y-66000000D03*
X32980000Y-66000000D03*
%TD*%
D10*
%TO.C,RV5*%
X24780000Y-35500000D03*
X36180000Y-35500000D03*
D11*
X27980000Y-43000000D03*
X30480000Y-43000000D03*
X32980000Y-43000000D03*
%TD*%
D10*
%TO.C,RV1*%
X5730000Y-17500000D03*
X17130000Y-17500000D03*
D11*
X8930000Y-25000000D03*
X11430000Y-25000000D03*
X13930000Y-25000000D03*
%TD*%
D10*
%TO.C,RV3*%
X43830000Y-17500000D03*
X55230000Y-17500000D03*
D11*
X47030000Y-25000000D03*
X49530000Y-25000000D03*
X52030000Y-25000000D03*
%TD*%
D10*
%TO.C,RV4*%
X5730000Y-35500000D03*
X17130000Y-35500000D03*
D11*
X8930000Y-43000000D03*
X11430000Y-43000000D03*
X13930000Y-43000000D03*
%TD*%
D10*
%TO.C,RV6*%
X5730000Y-58500000D03*
X17130000Y-58500000D03*
D11*
X8930000Y-66000000D03*
X11430000Y-66000000D03*
X13930000Y-66000000D03*
%TD*%
D12*
%TO.C,J12*%
X49530000Y-111500000D03*
D13*
X49530000Y-117980000D03*
D14*
X49530000Y-106580000D03*
D15*
X49530000Y-114880000D03*
%TD*%
D12*
%TO.C,J7*%
X11430000Y-111500000D03*
D13*
X11430000Y-117980000D03*
D14*
X11430000Y-106580000D03*
D15*
X11430000Y-114880000D03*
%TD*%
D12*
%TO.C,J4*%
X38100000Y-97500000D03*
D13*
X38100000Y-103980000D03*
D14*
X38100000Y-92580000D03*
D15*
X38100000Y-100880000D03*
%TD*%
D12*
%TO.C,J8*%
X25400000Y-111500000D03*
D13*
X25400000Y-117980000D03*
D14*
X25400000Y-106580000D03*
D15*
X25400000Y-114880000D03*
%TD*%
D12*
%TO.C,J5*%
X49530000Y-97500000D03*
D13*
X49530000Y-103980000D03*
D14*
X49530000Y-92580000D03*
D15*
X49530000Y-100880000D03*
%TD*%
D12*
%TO.C,J3*%
X25400000Y-97500000D03*
D13*
X25400000Y-103980000D03*
D14*
X25400000Y-92580000D03*
D15*
X25400000Y-100880000D03*
%TD*%
D12*
%TO.C,J1*%
X11430000Y-82500000D03*
D13*
X11430000Y-88980000D03*
D14*
X11430000Y-77580000D03*
D15*
X11430000Y-85880000D03*
%TD*%
D12*
%TO.C,J2*%
X11430000Y-97500000D03*
D13*
X11430000Y-103980000D03*
D14*
X11430000Y-92580000D03*
D15*
X11430000Y-100880000D03*
%TD*%
D12*
%TO.C,J10*%
X38100000Y-111500000D03*
D13*
X38100000Y-117980000D03*
D14*
X38100000Y-106580000D03*
D15*
X38100000Y-114880000D03*
%TD*%
D16*
%TO.C,D1*%
X29210000Y-85500000D03*
D17*
X31750000Y-85500000D03*
%TD*%
D16*
%TO.C,D3*%
X46990000Y-85500000D03*
D17*
X49530000Y-85500000D03*
%TD*%
D18*
%TO.C,D2*%
X48280000Y-48800000D03*
X48280000Y-50200000D03*
X50780000Y-50200000D03*
X50780000Y-48800000D03*
%TD*%
D19*
%TO.C,SW1*%
X27980000Y-73000000D03*
X32980000Y-73000000D03*
X27980000Y-78000000D03*
X32980000Y-78000000D03*
%TD*%
%TO.C,SW2*%
X47030000Y-56000000D03*
X52030000Y-56000000D03*
X47030000Y-61000000D03*
X52030000Y-61000000D03*
%TD*%
%TO.C,SW3*%
X45760000Y-73000000D03*
X50760000Y-73000000D03*
X45760000Y-78000000D03*
X50760000Y-78000000D03*
%TD*%
D11*
%TO.C,ZZ2*%
X58920000Y-97130000D03*
X58920000Y-99670000D03*
X58920000Y-102210000D03*
X58920000Y-104750000D03*
X58920000Y-107290000D03*
X58920000Y-109830000D03*
X58920000Y-112370000D03*
X58920000Y-114910000D03*
X58920000Y-117450000D03*
%TD*%
%TO.C,ZZ3*%
X1770000Y-18390000D03*
X1770000Y-20930000D03*
X1770000Y-23470000D03*
X1770000Y-26010000D03*
X1770000Y-28550000D03*
X1770000Y-31090000D03*
X1770000Y-33630000D03*
X1770000Y-36170000D03*
%TD*%
%TO.C,ZZ4*%
X4310000Y-10770000D03*
X6850000Y-10770000D03*
X9390000Y-10770000D03*
X11930000Y-10770000D03*
X14470000Y-10770000D03*
X17010000Y-10770000D03*
X19550000Y-10770000D03*
X22090000Y-10770000D03*
%TD*%
%TO.C,ZZ5*%
X1770000Y-94590000D03*
X1770000Y-97130000D03*
X1770000Y-99670000D03*
X1770000Y-102210000D03*
X1770000Y-104750000D03*
X1770000Y-107290000D03*
X1770000Y-109830000D03*
X1770000Y-112370000D03*
X1770000Y-114910000D03*
X1770000Y-117450000D03*
%TD*%
%TO.C,J6*%
X1770000Y-41250000D03*
X1770000Y-43790000D03*
X1770000Y-46330000D03*
X1770000Y-48870000D03*
%TD*%
%TO.C,ZZ7*%
X1770000Y-56490000D03*
X1770000Y-59030000D03*
X1770000Y-61570000D03*
X1770000Y-64110000D03*
X1770000Y-66650000D03*
X1770000Y-69190000D03*
X1770000Y-71730000D03*
X1770000Y-74270000D03*
%TD*%
%TO.C,ZZ10*%
X58920000Y-59030000D03*
X58920000Y-61570000D03*
X58920000Y-64110000D03*
X58920000Y-66650000D03*
X58920000Y-69190000D03*
X58920000Y-71730000D03*
%TD*%
%TO.C,J11*%
X29710000Y-10770000D03*
X32250000Y-10770000D03*
%TD*%
%TO.C,ZZ12*%
X38600000Y-10770000D03*
X41140000Y-10770000D03*
X43680000Y-10770000D03*
X46220000Y-10770000D03*
X48760000Y-10770000D03*
X51300000Y-10770000D03*
X53840000Y-10770000D03*
X56380000Y-10770000D03*
%TD*%
%TO.C,J9*%
X58920000Y-51410000D03*
X58920000Y-53950000D03*
%TD*%
%TO.C,ZZ1*%
X58920000Y-18390000D03*
X58920000Y-20930000D03*
X58920000Y-23470000D03*
X58920000Y-26010000D03*
X58920000Y-28550000D03*
X58920000Y-31090000D03*
X58920000Y-33630000D03*
X58920000Y-36170000D03*
X58920000Y-38710000D03*
X58920000Y-41250000D03*
X58920000Y-43790000D03*
X58920000Y-46330000D03*
%TD*%
M02*
